<svg width="49" height="49" viewBox="0 0 49 49" fill="none" xmlns="http://www.w3.org/2000/svg">
<rect width="49" height="49" rx="10" fill="#FFA6A6"/>
<path d="M23.0055 16.1522C23.8775 15.6195 24.7931 15.0869 25.3889 15.6195C25.8757 16.0547 25.0019 17.6898 24.204 18.782C24.4003 19.0594 24.7241 19.8405 24.4481 20.746C26.2984 19.2924 30.1871 16.5849 30.9397 17.3838C31.5473 18.0288 30.6114 19.6457 29.83 20.746C30.2123 21.2135 30.5195 22.7633 30.093 23.5089C30.9606 22.8542 32.859 21.7247 33.5113 22.4437C34.3266 23.3425 32.1 26.172 31.7237 26.5715C32.1209 27.2705 32.3886 29.128 30.2811 30.9655C27.6469 33.2624 17.5133 41.1711 17.0429 41.2044C16.8007 41.2215 13.2923 39.69 10.8216 38.5959C9.45287 37.9898 8.4026 37.5179 8.4026 37.5179C7.71138 37.1492 7.00395 37.1319 6.32894 36.4119C5.98333 36.0433 5.57712 35.5777 4.9465 34.5687C3.56406 32.3568 2.74015 30.7243 2.68144 30.5648C2.52698 30.1449 2.48716 29.8082 2.68147 29.6409C4.58214 28.0045 15.6438 22.1521 18.1447 20.0536C20.5955 17.9972 22.6777 16.3524 23.0055 16.1522Z" fill="#FFFBF7"/>
<path d="M18.1447 20.0536C15.6438 22.1521 4.58214 28.0045 2.68147 29.6409C2.48716 29.8082 2.52698 30.1449 2.68144 30.5648C2.74015 30.7243 3.56406 32.3568 4.9465 34.5687M18.1447 20.0536C20.5955 17.9972 22.6777 16.3524 23.0055 16.1522C23.8775 15.6195 24.7931 15.0869 25.3889 15.6195C25.8757 16.0547 25.0019 17.6898 24.204 18.782M18.1447 20.0536C18.1342 20.4731 18.1948 21.445 18.521 21.9776C18.9287 22.6434 19.4581 22.7469 20.2772 22.4437C20.9923 22.1789 22.8487 20.3465 23.6955 19.4144C23.8504 19.2439 24.0253 19.0265 24.204 18.782M24.204 18.782C24.4003 19.0594 24.7241 19.8405 24.4481 20.746M24.4481 20.746C26.2984 19.2924 30.1871 16.5849 30.9397 17.3838C31.5473 18.0288 30.6114 19.6457 29.83 20.746M24.4481 20.746C24.3331 20.9346 24.0091 21.4317 23.6327 21.9111M23.6327 21.9111C23.1623 22.5103 23.2878 23.5422 23.6955 24.1414C24.1031 24.7406 25.0753 24.7739 26.0788 24.441C27.0824 24.1081 28.8072 21.9776 28.964 21.8445C29.0195 21.7973 29.4016 21.3493 29.83 20.746M23.6327 21.9111L4.9465 34.5687M29.83 20.746C30.2123 21.2135 30.5195 22.7633 30.093 23.5089M30.093 23.5089C30.9606 22.8542 32.859 21.7247 33.5113 22.4437C34.3266 23.3425 32.1 26.172 31.7237 26.5715M30.093 23.5089C28.9326 24.5298 26.5681 26.6047 26.3924 26.7379C26.3601 26.7624 26.3156 26.8078 26.267 26.8709M31.7237 26.5715C31.3474 26.9709 29.2634 28.9076 28.964 29.1014C28.5502 29.3692 27.835 30.1666 26.612 29.1014C25.5689 28.193 25.9856 27.2361 26.267 26.8709M31.7237 26.5715C32.1209 27.2705 32.3886 29.128 30.2811 30.9655C27.6469 33.2624 17.5133 41.1711 17.0429 41.2044C16.6665 41.231 8.4026 37.5179 8.4026 37.5179C7.71138 37.1492 7.00395 37.1319 6.32894 36.4119C5.98333 36.0433 5.57712 35.5777 4.9465 34.5687M26.267 26.8709L10.8216 38.5959" stroke="#FFA6A6" stroke-width="0.5"/>
<path d="M42.9186 8.03765L44.228 8.96222C45.1157 9.58901 45.3996 10.8201 44.8705 11.7483L44.418 12.5422L43.866 13.4994C43.361 14.3752 42.1399 14.3747 41.5673 13.4985L39.6108 16.7299C39.3181 17.2133 38.6953 17.3368 38.2251 17.0048C37.7584 16.6753 37.6197 16.0222 37.9152 15.5461L40.3459 11.6293L40.0563 11.1861C39.6015 10.4902 39.5806 9.59245 40.0031 8.91151L40.2236 8.55626C40.8007 7.62638 42.0073 7.39419 42.9186 8.03765Z" fill="#FFFBF7"/>
<path d="M40.3459 11.6293L40.0563 11.1861C39.6015 10.4902 39.5806 9.59245 40.0031 8.91151L40.2236 8.55626C40.8007 7.62638 42.0073 7.39419 42.9186 8.03765L44.228 8.96222C45.1157 9.58901 45.3996 10.8201 44.8705 11.7483L44.418 12.5422L43.866 13.4994C43.361 14.3752 42.1399 14.3747 41.5673 13.4985V13.4985M40.3459 11.6293L37.9152 15.5461C37.6197 16.0222 37.7584 16.6753 38.2251 17.0048V17.0048C38.6953 17.3368 39.3181 17.2133 39.6108 16.7299L41.5673 13.4985M40.3459 11.6293L41.5673 13.4985" stroke="#FFA6A6" stroke-width="0.5" stroke-linecap="round" stroke-linejoin="round"/>
<path d="M35.2846 19.3648C36.5176 18.7326 37.6985 17.6261 38.1245 16.8734L38.4701 16.8734C38.3107 18.3261 37.0687 20.1401 35.9968 21.1908C35.6507 21.5301 35.0984 21.4241 34.8091 21.0108C34.4229 20.4592 34.7108 19.659 35.2846 19.3648Z" fill="#FFFBF7"/>
</svg>
