<svg width="49" height="49" viewBox="0 0 49 49" fill="none" xmlns="http://www.w3.org/2000/svg">
<rect width="49" height="49" rx="10" fill="#FFA6A6"/>
<path d="M14.1451 42.26C13.7558 35.4452 13.8858 18.248 17.9612 17.271L18.2419 10.3186C18.2692 9.64075 18.4094 8.95589 18.8297 8.42337C19.6736 7.35443 21.3713 6.08108 24.5942 6.00331C28.2605 5.91484 30.2281 7.61874 30.8191 8.81688C30.9677 9.11806 30.9888 9.46036 30.9888 9.79619V17.271C32.8187 17.271 35.8306 24.9004 35.9931 40.0493C35.9996 40.6514 35.3773 41.0545 34.8295 40.8047C34.7935 40.7882 34.7563 40.7744 34.7182 40.7633L32.2418 40.04L29.121 39.3605C28.8742 39.3068 28.6236 39.2719 28.3715 39.256L24.4776 39.0108C23.6352 38.9578 22.7932 39.1189 22.0298 39.479L18.4883 41.15L14.8259 42.71C14.5032 42.8474 14.1451 42.6107 14.1451 42.26Z" fill="#FFFBF7"/>
<path d="M17.9612 17.271C13.8858 18.248 13.7558 35.4452 14.1451 42.26V42.26C14.1451 42.6107 14.5032 42.8474 14.8259 42.71L18.4883 41.15L22.0298 39.479C22.7932 39.1189 23.6352 38.9578 24.4776 39.0108L28.3715 39.256C28.6236 39.2718 28.8742 39.3068 29.121 39.3605L32.2418 40.04L34.7182 40.7633C34.7563 40.7744 34.7935 40.7883 34.8295 40.8047V40.8047C35.3773 41.0545 35.9996 40.6514 35.9931 40.0493C35.8306 24.9004 32.8187 17.271 30.9888 17.271M17.9612 17.271V27.5782C17.9612 28.9552 18.5042 30.3166 19.6878 31.0201C22.06 32.4299 25.7069 33.3956 29.3191 31.0651C30.4649 30.3258 30.9888 28.9646 30.9888 27.6011V9.79619C30.9888 9.46036 30.9677 9.11806 30.8191 8.81688C30.2281 7.61874 28.2605 5.91484 24.5942 6.00331C21.3713 6.08108 19.6736 7.35443 18.8297 8.42337C18.4094 8.95589 18.2692 9.64075 18.2419 10.3186L17.9612 17.271ZM28.2906 11.123V25.4825C28.2906 27.2336 27.3721 28.9584 25.6411 29.224C24.2815 29.4326 22.6812 29.3002 21.2432 28.3039" stroke="#FFA6A6" stroke-width="0.5"/>
</svg>
