<svg width="375" height="812" xmlns="http://www.w3.org/2000/svg">
 <g>
  <title>background</title>
  <rect x="-1" y="-1" width="377" height="814" id="canvas_background" fill="none"/>
 </g>

 <g>
  <title>Layer 1</title>
  <rect width="375" height="812" fill="#FFFBF7" id="svg_1" stroke="null" y="1.858896" x="0"/>
  <path d="m35.99184,80.54762l1.125,0l0,3.66l-1.725,0l0,-2.01l-6.375,0l0,2.01l-1.725,0l0,-3.66l0.975,0c0.61,-0.8 0.915,-2.005 0.915,-3.615l0,-5.235l6.81,0l0,8.85zm-5.835,0l4.11,0l0,-7.23l-3.36,0l0,3.645c0,1.56 -0.25,2.755 -0.75,3.585zm11.605,1.845c-1.1,0 -2.035,-0.38 -2.805,-1.14c-0.77,-0.76 -1.155,-1.695 -1.155,-2.805c0,-1.11 0.385,-2.045 1.155,-2.805c0.77,-0.76 1.705,-1.14 2.805,-1.14c1.11,0 2.045,0.38 2.805,1.14c0.77,0.76 1.155,1.695 1.155,2.805c0,1.11 -0.385,2.045 -1.155,2.805c-0.76,0.76 -1.695,1.14 -2.805,1.14zm-1.665,-2.25c0.45,0.45 1.005,0.675 1.665,0.675c0.66,0 1.215,-0.225 1.665,-0.675c0.45,-0.45 0.675,-1.015 0.675,-1.695c0,-0.68 -0.225,-1.245 -0.675,-1.695c-0.45,-0.45 -1.005,-0.675 -1.665,-0.675c-0.66,0 -1.215,0.225 -1.665,0.675c-0.45,0.45 -0.675,1.015 -0.675,1.695c0,0.68 0.225,1.245 0.675,1.695zm10.5698,2.25c-1.15,0 -2.09,-0.37 -2.82,-1.11c-0.72,-0.75 -1.08,-1.705 -1.08,-2.865c0,-1.27 0.19,-2.25 0.57,-2.94c0.38,-0.7 1.15,-1.335 2.31,-1.905c0.19,-0.09 0.47,-0.22 0.84,-0.39c0.38,-0.17 0.64,-0.29 0.78,-0.36c0.14,-0.08 0.315,-0.19 0.525,-0.33c0.21,-0.15 0.365,-0.305 0.465,-0.465c0.1,-0.17 0.18,-0.37 0.24,-0.6l1.32,0.765c-0.04,0.22 -0.105,0.425 -0.195,0.615c-0.09,0.18 -0.22,0.35 -0.39,0.51c-0.17,0.16 -0.32,0.29 -0.45,0.39c-0.12,0.1 -0.325,0.22 -0.615,0.36c-0.29,0.14 -0.505,0.24 -0.645,0.3c-0.13,0.06 -0.38,0.165 -0.75,0.315c-0.66,0.26 -1.145,0.53 -1.455,0.81c-0.3,0.27 -0.51,0.61 -0.63,1.02c0.6,-0.68 1.415,-1.02 2.445,-1.02c0.88,0 1.645,0.315 2.295,0.945c0.66,0.63 0.99,1.445 0.99,2.445c0,1.02 -0.35,1.86 -1.05,2.52c-0.69,0.66 -1.59,0.99 -2.7,0.99zm-0.015,-1.515c0.63,0 1.145,-0.185 1.545,-0.555c0.4,-0.38 0.6,-0.86 0.6,-1.44c0,-0.59 -0.2,-1.075 -0.6,-1.455c-0.39,-0.38 -0.9,-0.57 -1.53,-0.57c-0.56,0 -1.065,0.18 -1.515,0.54c-0.45,0.35 -0.675,0.82 -0.675,1.41c0,0.6 0.21,1.095 0.63,1.485c0.42,0.39 0.935,0.585 1.545,0.585zm10.9858,-6.18l1.62,0l0,7.5l-1.62,0l0,-1.08c-0.61,0.85 -1.485,1.275 -2.625,1.275c-1.03,0 -1.91,-0.38 -2.64,-1.14c-0.73,-0.77 -1.095,-1.705 -1.095,-2.805c0,-1.11 0.365,-2.045 1.095,-2.805c0.73,-0.76 1.61,-1.14 2.64,-1.14c1.14,0 2.015,0.42 2.625,1.26l0,-1.065zm-4.065,5.475c0.45,0.45 1.015,0.675 1.695,0.675c0.68,0 1.245,-0.225 1.695,-0.675c0.45,-0.46 0.675,-1.035 0.675,-1.725c0,-0.69 -0.225,-1.26 -0.675,-1.71c-0.45,-0.46 -1.015,-0.69 -1.695,-0.69c-0.68,0 -1.245,0.23 -1.695,0.69c-0.45,0.45 -0.675,1.02 -0.675,1.71c0,0.69 0.225,1.265 0.675,1.725zm12.7632,-1.83c0.74,0.34 1.11,0.915 1.11,1.725c0,0.63 -0.215,1.145 -0.645,1.545c-0.42,0.39 -1.025,0.585 -1.815,0.585l-3.84,0l0,-7.5l3.54,0c0.77,0 1.365,0.195 1.785,0.585c0.43,0.38 0.645,0.875 0.645,1.485c0,0.71 -0.26,1.235 -0.78,1.575zm-1.77,-2.265l-1.875,0l0,1.665l1.875,0c0.66,0 0.99,-0.28 0.99,-0.84c0,-0.55 -0.33,-0.825 -0.99,-0.825zm0.27,4.71c0.68,0 1.02,-0.295 1.02,-0.885c0,-0.26 -0.09,-0.46 -0.27,-0.6c-0.18,-0.15 -0.43,-0.225 -0.75,-0.225l-2.145,0l0,1.71l2.145,0zm9.3572,-6.09l1.245,0l0,7.5l-1.59,0l0,-4.77l-3.84,4.77l-1.245,0l0,-7.5l1.59,0l0,4.755l3.84,-4.755zm8.3147,3.645c0.74,0.34 1.11,0.915 1.11,1.725c0,0.63 -0.215,1.145 -0.645,1.545c-0.42,0.39 -1.025,0.585 -1.815,0.585l-3.84,0l0,-7.5l3.54,0c0.77,0 1.365,0.195 1.785,0.585c0.43,0.38 0.645,0.875 0.645,1.485c0,0.71 -0.26,1.235 -0.78,1.575zm-1.77,-2.265l-1.875,0l0,1.665l1.875,0c0.66,0 0.99,-0.28 0.99,-0.84c0,-0.55 -0.33,-0.825 -0.99,-0.825zm0.27,4.71c0.68,0 1.02,-0.295 1.02,-0.885c0,-0.26 -0.09,-0.46 -0.27,-0.6c-0.18,-0.15 -0.43,-0.225 -0.75,-0.225l-2.145,0l0,1.71l2.145,0zm13.1072,-6.09l1.245,0l0,7.5l-1.59,0l0,-4.77l-3.84,4.77l-1.245,0l0,-7.5l1.59,0l0,4.755l3.84,-4.755zm8.1801,0l1.62,0l0,7.5l-1.62,0l0,-2.985l-3.435,0l0,2.985l-1.62,0l0,-7.5l1.62,0l0,2.985l3.435,0l0,-2.985zm11.209,1.155c0.68,0.71 1.02,1.575 1.02,2.595c0,1.02 -0.34,1.885 -1.02,2.595c-0.68,0.71 -1.6,1.14 -2.76,1.29l0,2.865l-1.59,0l0,-2.865c-1.16,-0.15 -2.08,-0.58 -2.76,-1.29c-0.68,-0.71 -1.02,-1.575 -1.02,-2.595c0,-1.02 0.34,-1.885 1.02,-2.595c0.68,-0.71 1.6,-1.14 2.76,-1.29l0,-2.865l1.59,0l0,2.865c1.16,0.15 2.08,0.58 2.76,1.29zm-2.76,4.935c0.69,-0.13 1.225,-0.4 1.605,-0.81c0.38,-0.42 0.57,-0.93 0.57,-1.53c0,-0.6 -0.19,-1.105 -0.57,-1.515c-0.38,-0.42 -0.915,-0.695 -1.605,-0.825l0,4.68zm-3.195,-3.855c-0.38,0.42 -0.57,0.925 -0.57,1.515c0,0.59 0.19,1.095 0.57,1.515c0.38,0.42 0.915,0.695 1.605,0.825l0,-4.68c-0.69,0.13 -1.225,0.405 -1.605,0.825zm11.981,5.46c-1.1,0 -2.035,-0.38 -2.805,-1.14c-0.77,-0.76 -1.155,-1.695 -1.155,-2.805c0,-1.11 0.385,-2.045 1.155,-2.805c0.77,-0.76 1.705,-1.14 2.805,-1.14c1.11,0 2.045,0.38 2.805,1.14c0.77,0.76 1.155,1.695 1.155,2.805c0,1.11 -0.385,2.045 -1.155,2.805c-0.76,0.76 -1.695,1.14 -2.805,1.14zm-1.665,-2.25c0.45,0.45 1.005,0.675 1.665,0.675c0.66,0 1.215,-0.225 1.665,-0.675c0.45,-0.45 0.675,-1.015 0.675,-1.695c0,-0.68 -0.225,-1.245 -0.675,-1.695c-0.45,-0.45 -1.005,-0.675 -1.665,-0.675c-0.66,0 -1.215,0.225 -1.665,0.675c-0.45,0.45 -0.675,1.015 -0.675,1.695c0,0.68 0.225,1.245 0.675,1.695zm11.334,-5.64c1.03,0 1.91,0.385 2.64,1.155c0.73,0.76 1.095,1.69 1.095,2.79c0,1.11 -0.365,2.045 -1.095,2.805c-0.73,0.76 -1.61,1.14 -2.64,1.14c-1.14,0 -2.015,-0.42 -2.625,-1.26l0,4.065l-1.62,0l0,-10.5l1.62,0l0,1.08c0.61,-0.85 1.485,-1.275 2.625,-1.275zm-1.95,5.67c0.45,0.45 1.015,0.675 1.695,0.675c0.68,0 1.245,-0.225 1.695,-0.675c0.45,-0.46 0.675,-1.035 0.675,-1.725c0,-0.69 -0.225,-1.26 -0.675,-1.71c-0.45,-0.46 -1.015,-0.69 -1.695,-0.69c-0.68,0 -1.245,0.23 -1.695,0.69c-0.45,0.45 -0.675,1.02 -0.675,1.71c0,0.69 0.225,1.265 0.675,1.725zm14.804,-5.475l0,7.5l-1.575,0l0,-4.935l-2.16,3.435l-0.195,0l-2.145,-3.42l0,4.92l-1.575,0l0,-7.5l1.65,0l2.175,3.465l2.175,-3.465l1.65,0zm7.811,0l1.62,0l0,7.5l-1.62,0l0,-1.08c-0.61,0.85 -1.485,1.275 -2.625,1.275c-1.03,0 -1.91,-0.38 -2.64,-1.14c-0.73,-0.77 -1.095,-1.705 -1.095,-2.805c0,-1.11 0.365,-2.045 1.095,-2.805c0.73,-0.76 1.61,-1.14 2.64,-1.14c1.14,0 2.015,0.42 2.625,1.26l0,-1.065zm-4.065,5.475c0.45,0.45 1.015,0.675 1.695,0.675c0.68,0 1.245,-0.225 1.695,-0.675c0.45,-0.46 0.675,-1.035 0.675,-1.725c0,-0.69 -0.225,-1.26 -0.675,-1.71c-0.45,-0.46 -1.015,-0.69 -1.695,-0.69c-0.68,0 -1.245,0.23 -1.695,0.69c-0.45,0.45 -0.675,1.02 -0.675,1.71c0,0.69 0.225,1.265 0.675,1.725zm14.023,0.495l1.23,0l0,3.54l-1.59,0l0,-2.01l-6.09,0l0,-7.5l1.62,0l0,5.97l3.21,0l0,-5.97l1.62,0l0,5.97zm7.975,-5.97l1.245,0l0,7.5l-1.59,0l0,-4.77l-3.84,4.77l-1.245,0l0,-7.5l1.59,0l0,4.755l3.84,-4.755zm9.814,-0.195c1.1,0 2.035,0.38 2.805,1.14c0.77,0.76 1.155,1.695 1.155,2.805c0,1.11 -0.385,2.045 -1.155,2.805c-0.77,0.76 -1.705,1.14 -2.805,1.14c-0.97,0 -1.81,-0.295 -2.52,-0.885c-0.7,-0.6 -1.135,-1.365 -1.305,-2.295l-1.245,0l0,2.985l-1.62,0l0,-7.5l1.62,0l0,2.985l1.245,0c0.17,-0.93 0.605,-1.69 1.305,-2.28c0.71,-0.6 1.55,-0.9 2.52,-0.9zm-1.665,5.64c0.45,0.45 1.005,0.675 1.665,0.675c0.66,0 1.215,-0.225 1.665,-0.675c0.45,-0.45 0.675,-1.015 0.675,-1.695c0,-0.68 -0.225,-1.245 -0.675,-1.695c-0.45,-0.45 -1.005,-0.675 -1.665,-0.675c-0.66,0 -1.215,0.225 -1.665,0.675c-0.45,0.45 -0.675,1.015 -0.675,1.695c0,0.68 0.225,1.245 0.675,1.695zm14.379,2.25c-1.1,0 -2.035,-0.38 -2.805,-1.14c-0.77,-0.76 -1.155,-1.695 -1.155,-2.805c0,-1.11 0.385,-2.045 1.155,-2.805c0.77,-0.76 1.705,-1.14 2.805,-1.14c1.11,0 2.045,0.38 2.805,1.14c0.77,0.76 1.155,1.695 1.155,2.805c0,1.11 -0.385,2.045 -1.155,2.805c-0.76,0.76 -1.695,1.14 -2.805,1.14zm-1.665,-2.25c0.45,0.45 1.005,0.675 1.665,0.675c0.66,0 1.215,-0.225 1.665,-0.675c0.45,-0.45 0.675,-1.015 0.675,-1.695c0,-0.68 -0.225,-1.245 -0.675,-1.695c-0.45,-0.45 -1.005,-0.675 -1.665,-0.675c-0.66,0 -1.215,0.225 -1.665,0.675c-0.45,0.45 -0.675,1.015 -0.675,1.695c0,0.68 0.225,1.245 0.675,1.695zm14.38,2.25c-1.13,0 -2.075,-0.38 -2.835,-1.14c-0.75,-0.76 -1.125,-1.695 -1.125,-2.805c0,-1.12 0.375,-2.055 1.125,-2.805c0.76,-0.76 1.705,-1.14 2.835,-1.14c0.73,0 1.395,0.175 1.995,0.525c0.6,0.35 1.05,0.82 1.35,1.41l-1.395,0.81c-0.17,-0.36 -0.43,-0.64 -0.78,-0.84c-0.34,-0.21 -0.735,-0.315 -1.185,-0.315c-0.66,0 -1.215,0.225 -1.665,0.675c-0.44,0.45 -0.66,1.01 -0.66,1.68c0,0.67 0.22,1.23 0.66,1.68c0.45,0.45 1.005,0.675 1.665,0.675c0.44,0 0.835,-0.105 1.185,-0.315c0.36,-0.21 0.63,-0.49 0.81,-0.84l1.395,0.795c-0.32,0.6 -0.78,1.075 -1.38,1.425c-0.6,0.35 -1.265,0.525 -1.995,0.525zm5.704,-3.255c0.12,0.57 0.395,1.01 0.825,1.32c0.43,0.3 0.955,0.45 1.575,0.45c0.86,0 1.505,-0.31 1.935,-0.93l1.335,0.78c-0.74,1.09 -1.835,1.635 -3.285,1.635c-1.22,0 -2.205,-0.37 -2.955,-1.11c-0.75,-0.75 -1.125,-1.695 -1.125,-2.835c0,-1.12 0.37,-2.055 1.11,-2.805c0.74,-0.76 1.69,-1.14 2.85,-1.14c1.1,0 2,0.385 2.7,1.155c0.71,0.77 1.065,1.705 1.065,2.805c0,0.17 -0.02,0.395 -0.06,0.675l-5.97,0zm-0.015,-1.32l4.41,0c-0.11,-0.61 -0.365,-1.07 -0.765,-1.38c-0.39,-0.31 -0.85,-0.465 -1.38,-0.465c-0.6,0 -1.1,0.165 -1.5,0.495c-0.4,0.33 -0.655,0.78 -0.765,1.35zm10.907,4.575c-1.15,0 -2.09,-0.37 -2.82,-1.11c-0.72,-0.75 -1.08,-1.705 -1.08,-2.865c0,-1.27 0.19,-2.25 0.57,-2.94c0.38,-0.7 1.15,-1.335 2.31,-1.905c0.19,-0.09 0.47,-0.22 0.84,-0.39c0.38,-0.17 0.64,-0.29 0.78,-0.36c0.14,-0.08 0.315,-0.19 0.525,-0.33c0.21,-0.15 0.365,-0.305 0.465,-0.465c0.1,-0.17 0.18,-0.37 0.24,-0.6l1.32,0.765c-0.04,0.22 -0.105,0.425 -0.195,0.615c-0.09,0.18 -0.22,0.35 -0.39,0.51c-0.17,0.16 -0.32,0.29 -0.45,0.39c-0.12,0.1 -0.325,0.22 -0.615,0.36c-0.29,0.14 -0.505,0.24 -0.645,0.3c-0.13,0.06 -0.38,0.165 -0.75,0.315c-0.66,0.26 -1.145,0.53 -1.455,0.81c-0.3,0.27 -0.51,0.61 -0.63,1.02c0.6,-0.68 1.415,-1.02 2.445,-1.02c0.88,0 1.645,0.315 2.295,0.945c0.66,0.63 0.99,1.445 0.99,2.445c0,1.02 -0.35,1.86 -1.05,2.52c-0.69,0.66 -1.59,0.99 -2.7,0.99zm-0.015,-1.515c0.63,0 1.145,-0.185 1.545,-0.555c0.4,-0.38 0.6,-0.86 0.6,-1.44c0,-0.59 -0.2,-1.075 -0.6,-1.455c-0.39,-0.38 -0.9,-0.57 -1.53,-0.57c-0.56,0 -1.065,0.18 -1.515,0.54c-0.45,0.35 -0.675,0.82 -0.675,1.41c0,0.6 0.21,1.095 0.63,1.485c0.42,0.39 0.935,0.585 1.545,0.585zm6.32,-1.74c0.12,0.57 0.395,1.01 0.825,1.32c0.43,0.3 0.955,0.45 1.575,0.45c0.86,0 1.505,-0.31 1.935,-0.93l1.335,0.78c-0.74,1.09 -1.835,1.635 -3.285,1.635c-1.22,0 -2.205,-0.37 -2.955,-1.11c-0.75,-0.75 -1.125,-1.695 -1.125,-2.835c0,-1.12 0.37,-2.055 1.11,-2.805c0.74,-0.76 1.69,-1.14 2.85,-1.14c1.1,0 2,0.385 2.7,1.155c0.71,0.77 1.065,1.705 1.065,2.805c0,0.17 -0.02,0.395 -0.06,0.675l-5.97,0zm-0.015,-1.32l4.41,0c-0.11,-0.61 -0.365,-1.07 -0.765,-1.38c-0.39,-0.31 -0.85,-0.465 -1.38,-0.465c-0.6,0 -1.1,0.165 -1.5,0.495c-0.4,0.33 -0.655,0.78 -0.765,1.35zm9.12,2.58l-1.05,3.9l-1.35,0l0.6,-3.9l1.8,0zm10.66,-2.055c0.74,0.34 1.11,0.915 1.11,1.725c0,0.63 -0.215,1.145 -0.645,1.545c-0.42,0.39 -1.025,0.585 -1.815,0.585l-3.84,0l0,-7.5l3.54,0c0.77,0 1.365,0.195 1.785,0.585c0.43,0.38 0.645,0.875 0.645,1.485c0,0.71 -0.26,1.235 -0.78,1.575zm-1.77,-2.265l-1.875,0l0,1.665l1.875,0c0.66,0 0.99,-0.28 0.99,-0.84c0,-0.55 -0.33,-0.825 -0.99,-0.825zm0.27,4.71c0.68,0 1.02,-0.295 1.02,-0.885c0,-0.26 -0.09,-0.46 -0.27,-0.6c-0.18,-0.15 -0.43,-0.225 -0.75,-0.225l-2.145,0l0,1.71l2.145,0zm7.197,-3.54c0.8,0 1.455,0.23 1.965,0.69c0.51,0.45 0.765,1.045 0.765,1.785c0,0.73 -0.255,1.325 -0.765,1.785c-0.51,0.46 -1.165,0.69 -1.965,0.69l-3.27,0l0,-7.5l1.62,0l0,2.55l1.65,0zm3.63,-2.55l1.62,0l0,7.5l-1.62,0l0,-7.5zm-3.615,6.045c0.32,0 0.585,-0.095 0.795,-0.285c0.22,-0.19 0.33,-0.435 0.33,-0.735c0,-0.31 -0.11,-0.555 -0.33,-0.735c-0.21,-0.19 -0.475,-0.285 -0.795,-0.285l-1.665,0l0,2.04l1.665,0zm17.541,-6.045l0,7.5l-1.62,0l0,-5.97l-3.435,0l0,5.97l-1.62,0l0,-7.5l6.675,0zm5.419,7.695c-1.1,0 -2.035,-0.38 -2.805,-1.14c-0.77,-0.76 -1.155,-1.695 -1.155,-2.805c0,-1.11 0.385,-2.045 1.155,-2.805c0.77,-0.76 1.705,-1.14 2.805,-1.14c1.11,0 2.045,0.38 2.805,1.14c0.77,0.76 1.155,1.695 1.155,2.805c0,1.11 -0.385,2.045 -1.155,2.805c-0.76,0.76 -1.695,1.14 -2.805,1.14zm-1.665,-2.25c0.45,0.45 1.005,0.675 1.665,0.675c0.66,0 1.215,-0.225 1.665,-0.675c0.45,-0.45 0.675,-1.015 0.675,-1.695c0,-0.68 -0.225,-1.245 -0.675,-1.695c-0.45,-0.45 -1.005,-0.675 -1.665,-0.675c-0.66,0 -1.215,0.225 -1.665,0.675c-0.45,0.45 -0.675,1.015 -0.675,1.695c0,0.68 0.225,1.245 0.675,1.695zm12.28,-1.8c0.74,0.34 1.11,0.915 1.11,1.725c0,0.63 -0.215,1.145 -0.645,1.545c-0.42,0.39 -1.025,0.585 -1.815,0.585l-3.84,0l0,-7.5l3.54,0c0.77,0 1.365,0.195 1.785,0.585c0.43,0.38 0.645,0.875 0.645,1.485c0,0.71 -0.26,1.235 -0.78,1.575zm-1.77,-2.265l-1.875,0l0,1.665l1.875,0c0.66,0 0.99,-0.28 0.99,-0.84c0,-0.55 -0.33,-0.825 -0.99,-0.825zm0.27,4.71c0.68,0 1.02,-0.295 1.02,-0.885c0,-0.26 -0.09,-0.46 -0.27,-0.6c-0.18,-0.15 -0.43,-0.225 -0.75,-0.225l-2.145,0l0,1.71l2.145,0zm7.197,-3.54c0.8,0 1.455,0.23 1.965,0.69c0.51,0.45 0.765,1.045 0.765,1.785c0,0.73 -0.255,1.325 -0.765,1.785c-0.51,0.46 -1.165,0.69 -1.965,0.69l-3.27,0l0,-7.5l1.62,0l0,2.55l1.65,0zm3.63,-2.55l1.62,0l0,7.5l-1.62,0l0,-7.5zm-3.615,6.045c0.32,0 0.585,-0.095 0.795,-0.285c0.22,-0.19 0.33,-0.435 0.33,-0.735c0,-0.31 -0.11,-0.555 -0.33,-0.735c-0.21,-0.19 -0.475,-0.285 -0.795,-0.285l-1.665,0l0,2.04l1.665,0zm15.996,-6.045l1.62,0l0,7.5l-10.5,0l0,-7.5l1.62,0l0,5.97l2.82,0l0,-5.97l1.62,0l0,5.97l2.82,0l0,-5.97zm9.438,0l1.62,0l0,7.5l-1.62,0l0,-1.08c-0.61,0.85 -1.485,1.275 -2.625,1.275c-1.03,0 -1.91,-0.38 -2.64,-1.14c-0.73,-0.77 -1.095,-1.705 -1.095,-2.805c0,-1.11 0.365,-2.045 1.095,-2.805c0.73,-0.76 1.61,-1.14 2.64,-1.14c1.14,0 2.015,0.42 2.625,1.26l0,-1.065zm-4.065,5.475c0.45,0.45 1.015,0.675 1.695,0.675c0.68,0 1.245,-0.225 1.695,-0.675c0.45,-0.46 0.675,-1.035 0.675,-1.725c0,-0.69 -0.225,-1.26 -0.675,-1.71c-0.45,-0.46 -1.015,-0.69 -1.695,-0.69c-0.68,0 -1.245,0.23 -1.695,0.69c-0.45,0.45 -0.675,1.02 -0.675,1.71c0,0.69 0.225,1.265 0.675,1.725zm8.848,-1.035c0.12,0.57 0.395,1.01 0.825,1.32c0.43,0.3 0.955,0.45 1.575,0.45c0.86,0 1.505,-0.31 1.935,-0.93l1.335,0.78c-0.74,1.09 -1.835,1.635 -3.285,1.635c-1.22,0 -2.205,-0.37 -2.955,-1.11c-0.75,-0.75 -1.125,-1.695 -1.125,-2.835c0,-1.12 0.37,-2.055 1.11,-2.805c0.74,-0.76 1.69,-1.14 2.85,-1.14c1.1,0 2,0.385 2.7,1.155c0.71,0.77 1.065,1.705 1.065,2.805c0,0.17 -0.02,0.395 -0.06,0.675l-5.97,0zm-0.015,-1.32l4.41,0c-0.11,-0.61 -0.365,-1.07 -0.765,-1.38c-0.39,-0.31 -0.85,-0.465 -1.38,-0.465c-0.6,0 -1.1,0.165 -1.5,0.495c-0.4,0.33 -0.655,0.78 -0.765,1.35zm12.907,-3.12l0,1.56l-2.445,0l0,5.94l-1.62,0l0,-5.94l-2.46,0l0,-1.56l6.525,0zm2.079,4.44c0.12,0.57 0.395,1.01 0.825,1.32c0.43,0.3 0.955,0.45 1.575,0.45c0.86,0 1.505,-0.31 1.935,-0.93l1.335,0.78c-0.74,1.09 -1.835,1.635 -3.285,1.635c-1.22,0 -2.205,-0.37 -2.955,-1.11c-0.75,-0.75 -1.125,-1.695 -1.125,-2.835c0,-1.12 0.37,-2.055 1.11,-2.805c0.74,-0.76 1.69,-1.14 2.85,-1.14c1.1,0 2,0.385 2.7,1.155c0.71,0.77 1.065,1.705 1.065,2.805c0,0.17 -0.02,0.395 -0.06,0.675l-5.97,0zm-0.016,-1.32l4.411,0c-0.11,-0.61 -0.365,-1.07 -0.765,-1.38c-0.39,-0.31 -0.85,-0.465 -1.38,-0.465c-0.6,0 -1.1,0.165 -1.5,0.495c-0.4,0.33 -0.655,0.78 -0.766,1.35zm-243.6307,16.88l0,7.5l-1.62,0l0,-5.94l-2.505,0l0,2.79c0,1.19 -0.26,2.035 -0.78,2.535c-0.52,0.5 -1.26,0.705 -2.22,0.615l0,-1.515c0.46,0.08 0.805,-0.015 1.035,-0.285c0.23,-0.27 0.345,-0.745 0.345,-1.425l0,-4.275l5.745,0zm5.4277,7.695c-1.1,0 -2.0349,-0.38 -2.8049,-1.14c-0.77,-0.76 -1.155,-1.695 -1.155,-2.805c0,-1.11 0.385,-2.045 1.155,-2.805c0.77,-0.76 1.7049,-1.14 2.8049,-1.14c1.11,0 2.045,0.38 2.805,1.14c0.77,0.76 1.155,1.695 1.155,2.805c0,1.11 -0.385,2.045 -1.155,2.805c-0.76,0.76 -1.695,1.14 -2.805,1.14zm-1.665,-2.25c0.45,0.45 1.005,0.675 1.665,0.675c0.66,0 1.215,-0.225 1.665,-0.675c0.45,-0.45 0.675,-1.015 0.675,-1.695c0,-0.68 -0.225,-1.245 -0.675,-1.695c-0.45,-0.45 -1.005,-0.675 -1.665,-0.675c-0.66,0 -1.215,0.225 -1.665,0.675c-0.4499,0.45 -0.6749,1.015 -0.6749,1.695c0,0.68 0.225,1.245 0.6749,1.695zm12.602,-5.445l0,7.5l-1.59,0l0,-2.52l-0.9,0l-1.905,2.52l-1.905,0l2.025,-2.67c-0.52,-0.17 -0.94,-0.47 -1.26,-0.9c-0.31,-0.43 -0.465,-0.91 -0.465,-1.44c0,-0.69 0.245,-1.275 0.735,-1.755c0.5,-0.49 1.14,-0.735 1.92,-0.735l3.345,0zm-3.255,3.585l1.665,0l0,-2.115l-1.665,0c-0.33,0 -0.605,0.095 -0.825,0.285c-0.22,0.19 -0.33,0.45 -0.33,0.78c0,0.32 0.11,0.575 0.33,0.765c0.22,0.19 0.495,0.285 0.825,0.285zm11.47,-3.585l0,7.5l-1.62,0l0,-5.94l-2.505,0l0,2.79c0,1.19 -0.26,2.035 -0.78,2.535c-0.52,0.5 -1.26,0.705 -2.22,0.615l0,-1.515c0.46,0.08 0.805,-0.015 1.035,-0.285c0.23,-0.27 0.345,-0.745 0.345,-1.425l0,-4.275l5.745,0zm5.158,2.55c0.8,0 1.455,0.23 1.965,0.69c0.51,0.45 0.765,1.045 0.765,1.785c0,0.73 -0.255,1.325 -0.765,1.785c-0.51,0.46 -1.165,0.69 -1.965,0.69l-3.27,0l0,-7.5l1.62,0l0,2.55l1.65,0zm0.015,3.495c0.32,0 0.585,-0.095 0.795,-0.285c0.22,-0.19 0.33,-0.435 0.33,-0.735c0,-0.31 -0.11,-0.555 -0.33,-0.735c-0.21,-0.19 -0.475,-0.285 -0.795,-0.285l-1.665,0l0,2.04l1.665,0zm9.094,-6.045l1.62,0l0,7.5l-1.62,0l0,-2.985l-3.435,0l0,2.985l-1.62,0l0,-7.5l1.62,0l0,2.985l3.435,0l0,-2.985zm7.04,7.695c-1.1,0 -2.035,-0.38 -2.805,-1.14c-0.77,-0.76 -1.155,-1.695 -1.155,-2.805c0,-1.11 0.385,-2.045 1.155,-2.805c0.77,-0.76 1.705,-1.14 2.805,-1.14c1.11,0 2.045,0.38 2.805,1.14c0.77,0.76 1.155,1.695 1.155,2.805c0,1.11 -0.385,2.045 -1.155,2.805c-0.76,0.76 -1.695,1.14 -2.805,1.14zm-1.665,-2.25c0.45,0.45 1.005,0.675 1.665,0.675c0.66,0 1.215,-0.225 1.665,-0.675c0.45,-0.45 0.675,-1.015 0.675,-1.695c0,-0.68 -0.225,-1.245 -0.675,-1.695c-0.45,-0.45 -1.005,-0.675 -1.665,-0.675c-0.66,0 -1.215,0.225 -1.665,0.675c-0.45,0.45 -0.675,1.015 -0.675,1.695c0,0.68 0.225,1.245 0.675,1.695zm10.63,2.25c-1.13,0 -2.075,-0.38 -2.835,-1.14c-0.75,-0.76 -1.125,-1.695 -1.125,-2.805c0,-1.12 0.375,-2.055 1.125,-2.805c0.76,-0.76 1.705,-1.14 2.835,-1.14c0.73,0 1.395,0.175 1.995,0.525c0.6,0.35 1.05,0.82 1.35,1.41l-1.395,0.81c-0.17,-0.36 -0.43,-0.64 -0.78,-0.84c-0.34,-0.21 -0.735,-0.315 -1.185,-0.315c-0.66,0 -1.215,0.225 -1.665,0.675c-0.44,0.45 -0.66,1.01 -0.66,1.68c0,0.67 0.22,1.23 0.66,1.68c0.45,0.45 1.005,0.675 1.665,0.675c0.44,0 0.835,-0.105 1.185,-0.315c0.36,-0.21 0.63,-0.49 0.81,-0.84l1.395,0.795c-0.32,0.6 -0.78,1.075 -1.38,1.425c-0.6,0.35 -1.265,0.525 -1.995,0.525zm10.203,-7.695l0,1.56l-2.445,0l0,5.94l-1.62,0l0,-5.94l-2.46,0l0,-1.56l6.525,0zm4.366,2.55c0.8,0 1.455,0.23 1.965,0.69c0.51,0.45 0.765,1.045 0.765,1.785c0,0.73 -0.255,1.325 -0.765,1.785c-0.51,0.46 -1.165,0.69 -1.965,0.69l-3.27,0l0,-7.5l1.62,0l0,2.55l1.65,0zm0.015,3.495c0.32,0 0.585,-0.095 0.795,-0.285c0.22,-0.19 0.33,-0.435 0.33,-0.735c0,-0.31 -0.11,-0.555 -0.33,-0.735c-0.21,-0.19 -0.475,-0.285 -0.795,-0.285l-1.665,0l0,2.04l1.665,0zm12.844,-6.045l1.62,0l0,7.5l-1.62,0l0,-2.985l-3.435,0l0,2.985l-1.62,0l0,-7.5l1.62,0l0,2.985l3.435,0l0,-2.985zm7.04,7.695c-1.1,0 -2.035,-0.38 -2.805,-1.14c-0.77,-0.76 -1.155,-1.695 -1.155,-2.805c0,-1.11 0.385,-2.045 1.155,-2.805c0.77,-0.76 1.705,-1.14 2.805,-1.14c1.11,0 2.045,0.38 2.805,1.14c0.77,0.76 1.155,1.695 1.155,2.805c0,1.11 -0.385,2.045 -1.155,2.805c-0.76,0.76 -1.695,1.14 -2.805,1.14zm-1.665,-2.25c0.45,0.45 1.005,0.675 1.665,0.675c0.66,0 1.215,-0.225 1.665,-0.675c0.45,-0.45 0.675,-1.015 0.675,-1.695c0,-0.68 -0.225,-1.245 -0.675,-1.695c-0.45,-0.45 -1.005,-0.675 -1.665,-0.675c-0.66,0 -1.215,0.225 -1.665,0.675c-0.45,0.45 -0.675,1.015 -0.675,1.695c0,0.68 0.225,1.245 0.675,1.695zm12.28,-1.8c0.74,0.34 1.11,0.915 1.11,1.725c0,0.63 -0.215,1.145 -0.645,1.545c-0.42,0.39 -1.025,0.585 -1.815,0.585l-3.84,0l0,-7.5l3.54,0c0.77,0 1.365,0.195 1.785,0.585c0.43,0.38 0.645,0.875 0.645,1.485c0,0.71 -0.26,1.235 -0.78,1.575zm-1.77,-2.265l-1.875,0l0,1.665l1.875,0c0.66,0 0.99,-0.28 0.99,-0.84c0,-0.55 -0.33,-0.825 -0.99,-0.825zm0.27,4.71c0.68,0 1.02,-0.295 1.02,-0.885c0,-0.26 -0.09,-0.46 -0.27,-0.6c-0.18,-0.15 -0.43,-0.225 -0.75,-0.225l-2.145,0l0,1.71l2.145,0zm7.197,-3.54c0.8,0 1.455,0.23 1.965,0.69c0.51,0.45 0.765,1.045 0.765,1.785c0,0.73 -0.255,1.325 -0.765,1.785c-0.51,0.46 -1.165,0.69 -1.965,0.69l-3.27,0l0,-7.5l1.62,0l0,2.55l1.65,0zm3.63,-2.55l1.62,0l0,7.5l-1.62,0l0,-7.5zm-3.615,6.045c0.32,0 0.585,-0.095 0.795,-0.285c0.22,-0.19 0.33,-0.435 0.33,-0.735c0,-0.31 -0.11,-0.555 -0.33,-0.735c-0.21,-0.19 -0.475,-0.285 -0.795,-0.285l-1.665,0l0,2.04l1.665,0zm13.82,1.455l-1.875,0l-1.86,-2.565l-1.875,2.565l-1.89,0l2.82,-3.855l-2.67,-3.645l1.875,0l1.725,2.37l1.725,-2.37l1.89,0l-2.67,3.66l2.805,3.84zm11.468,0l-1.935,0l-3.075,-3.465l0,3.465l-1.62,0l0,-7.5l1.62,0l0,3.315l2.91,-3.315l1.98,0l-3.3,3.675l3.42,3.825zm7.42,-7.5l0,7.5l-1.62,0l0,-5.94l-2.505,0l0,2.79c0,1.19 -0.26,2.035 -0.78,2.535c-0.52,0.5 -1.26,0.705 -2.22,0.615l0,-1.515c0.46,0.08 0.805,-0.015 1.035,-0.285c0.23,-0.27 0.345,-0.745 0.345,-1.425l0,-4.275l5.745,0zm7.318,0l1.245,0l0,7.5l-1.59,0l0,-4.77l-3.84,4.77l-1.245,0l0,-7.5l1.59,0l0,4.755l3.84,-4.755zm4.399,4.44c0.12,0.57 0.395,1.01 0.825,1.32c0.43,0.3 0.955,0.45 1.575,0.45c0.86,0 1.505,-0.31 1.935,-0.93l1.335,0.78c-0.74,1.09 -1.835,1.635 -3.285,1.635c-1.22,0 -2.205,-0.37 -2.955,-1.11c-0.75,-0.75 -1.125,-1.695 -1.125,-2.835c0,-1.12 0.37,-2.055 1.11,-2.805c0.74,-0.76 1.69,-1.14 2.85,-1.14c1.1,0 2,0.385 2.7,1.155c0.71,0.77 1.065,1.705 1.065,2.805c0,0.17 -0.02,0.395 -0.06,0.675l-5.97,0zm-0.015,-1.32l4.41,0c-0.11,-0.61 -0.365,-1.07 -0.765,-1.38c-0.39,-0.31 -0.85,-0.465 -1.38,-0.465c-0.6,0 -1.1,0.165 -1.5,0.495c-0.4,0.33 -0.655,0.78 -0.765,1.35zm12.526,-3.12l1.62,0l0,7.5l-1.62,0l0,-2.985l-3.435,0l0,2.985l-1.62,0l0,-7.5l1.62,0l0,2.985l3.435,0l0,-2.985zm9.229,0l0,1.56l-2.445,0l0,5.94l-1.62,0l0,-5.94l-2.46,0l0,-1.56l6.525,0zm4.344,7.695c-1.1,0 -2.035,-0.38 -2.805,-1.14c-0.77,-0.76 -1.155,-1.695 -1.155,-2.805c0,-1.11 0.385,-2.045 1.155,-2.805c0.77,-0.76 1.705,-1.14 2.805,-1.14c1.11,0 2.045,0.38 2.805,1.14c0.77,0.76 1.155,1.695 1.155,2.805c0,1.11 -0.385,2.045 -1.155,2.805c-0.76,0.76 -1.695,1.14 -2.805,1.14zm-1.665,-2.25c0.45,0.45 1.005,0.675 1.665,0.675c0.66,0 1.215,-0.225 1.665,-0.675c0.45,-0.45 0.675,-1.015 0.675,-1.695c0,-0.68 -0.225,-1.245 -0.675,-1.695c-0.45,-0.45 -1.005,-0.675 -1.665,-0.675c-0.66,0 -1.215,0.225 -1.665,0.675c-0.45,0.45 -0.675,1.015 -0.675,1.695c0,0.68 0.225,1.245 0.675,1.695zm12.279,-1.8c0.74,0.34 1.11,0.915 1.11,1.725c0,0.63 -0.215,1.145 -0.645,1.545c-0.42,0.39 -1.025,0.585 -1.815,0.585l-3.84,0l0,-7.5l3.54,0c0.77,0 1.365,0.195 1.785,0.585c0.43,0.38 0.645,0.875 0.645,1.485c0,0.71 -0.26,1.235 -0.78,1.575zm-1.77,-2.265l-1.875,0l0,1.665l1.875,0c0.66,0 0.99,-0.28 0.99,-0.84c0,-0.55 -0.33,-0.825 -0.99,-0.825zm0.27,4.71c0.68,0 1.02,-0.295 1.02,-0.885c0,-0.26 -0.09,-0.46 -0.27,-0.6c-0.18,-0.15 -0.43,-0.225 -0.75,-0.225l-2.145,0l0,1.71l2.145,0z" fill="#314E78" id="svg_2" stroke="null"/>
 </g>
</svg>