<svg width="375" height="812" viewBox="0 0 375 812" fill="none" xmlns="http://www.w3.org/2000/svg">
<g clip-path="url(#clip0)">
<rect width="375" height="812" fill="#FFFBF7"/>
<path opacity="0.2" d="M34.1561 266.774C-44.6535 244.872 -0.873213 81.0398 -0.874241 0H375.712L381.22 363.189C382.611 377.565 381.717 389.9 381.717 396L381.22 363.189C379.514 345.562 374.374 324.865 359.939 308.827C310.656 254.071 106.041 286.753 34.1561 266.774Z" fill="url(#paint0_linear)"/>
<ellipse opacity="0.3" cx="187" cy="136.748" rx="63" ry="62.7484" fill="url(#paint1_linear)"/>
<path d="M201.174 129.778C200.66 120.046 195.174 114.411 192.496 112.81C194.103 117.612 187.031 126.577 184.46 129.778C182.403 132.339 183.603 136.394 184.46 138.102C182.853 135.647 178.867 130.802 175.781 131.059C171.924 131.379 172.246 135.861 172.567 139.382C172.889 142.904 176.746 145.785 177.389 148.346C177.903 150.395 177.817 157.951 177.71 161.472C174.881 165.314 166.536 184.663 162.571 194.375C167.071 196.295 178.546 199.185 190.889 198.929C203.231 198.673 212.531 192.633 215.639 189.645C214.031 182.709 212.746 169.796 208.889 166.915C206.707 165.285 189.924 158.271 188.639 156.67C187.353 155.069 187.996 150.267 189.281 148.987C190.567 147.706 195.067 147.386 197.317 145.785C199.567 144.184 201.817 141.943 201.174 129.778Z" fill="#FFEBE3"/>
<path d="M193.781 178.76C185.81 177.48 177.817 169.903 174.817 166.595L168.067 181.001L161.929 194.375C188.286 204.939 205 198.536 216.25 192.134L213.389 178.76C210.174 179.294 201.753 180.041 193.781 178.76Z" fill="white"/>
<path d="M185.901 129.544C182.558 132.618 183.357 137.816 184.75 139.63C182.714 137.069 178.894 131.593 175.294 133.386C171.694 135.179 172.936 140.322 174.008 142.67C178.031 148.666 178.353 149.307 177.222 150.354C156.972 144.591 158.901 126.343 158.901 123.782C158.901 121.733 157.401 121.434 156.651 121.541C137.622 122.053 139.139 108.008 143.472 103.292C157.139 90.7203 162.977 109.534 163.401 110.015C163.889 110.569 164.21 111.067 166.294 110.015C174.544 105.854 193.294 100.603 202.294 112.897C211.294 125.19 203.317 138.742 199.567 143.544C205.353 130.738 193.294 111.616 194.258 114.497C195.222 117.379 190.079 125.702 185.901 129.544Z" fill="url(#paint2_linear)"/>
<path d="M122.955 227.2C124.459 227.2 125.715 227.704 126.723 228.712C127.731 229.72 128.235 230.976 128.235 232.48C128.235 233.984 127.731 235.24 126.723 236.248C125.715 237.256 124.459 237.76 122.955 237.76H118.635V244H116.955V227.2H122.955ZM122.955 236.176C123.995 236.176 124.851 235.832 125.523 235.144C126.211 234.44 126.555 233.552 126.555 232.48C126.555 231.408 126.211 230.528 125.523 229.84C124.851 229.136 123.995 228.784 122.955 228.784H118.635V236.176H122.955ZM135.454 231.712C137.23 231.712 138.662 232.344 139.75 233.608C140.854 234.856 141.406 236.336 141.406 238.048C141.406 238.224 141.39 238.472 141.358 238.792H130.822C130.982 240.008 131.494 240.976 132.358 241.696C133.238 242.4 134.318 242.752 135.598 242.752C136.51 242.752 137.294 242.568 137.95 242.2C138.622 241.816 139.126 241.32 139.462 240.712L140.854 241.528C140.326 242.376 139.606 243.048 138.694 243.544C137.782 244.04 136.742 244.288 135.574 244.288C133.686 244.288 132.15 243.696 130.966 242.512C129.782 241.328 129.19 239.824 129.19 238C129.19 236.208 129.774 234.712 130.942 233.512C132.11 232.312 133.614 231.712 135.454 231.712ZM135.454 233.248C134.206 233.248 133.158 233.624 132.31 234.376C131.478 235.112 130.982 236.072 130.822 237.256H139.774C139.614 235.992 139.126 235.008 138.31 234.304C137.494 233.6 136.542 233.248 135.454 233.248ZM151.606 232V233.536H145.51V244H143.926V232H151.606ZM162.271 232H163.615V244H162.031V234.76L154.879 244H153.535V232H155.119V241.24L162.271 232ZM172.557 244.288C170.749 244.288 169.245 243.688 168.045 242.488C166.845 241.272 166.245 239.776 166.245 238C166.245 236.224 166.845 234.736 168.045 233.536C169.245 232.32 170.749 231.712 172.557 231.712C173.741 231.712 174.805 232 175.749 232.576C176.693 233.136 177.381 233.896 177.813 234.856L176.517 235.6C176.197 234.88 175.677 234.312 174.957 233.896C174.253 233.464 173.453 233.248 172.557 233.248C171.229 233.248 170.109 233.712 169.197 234.64C168.285 235.552 167.829 236.672 167.829 238C167.829 239.328 168.285 240.456 169.197 241.384C170.109 242.296 171.229 242.752 172.557 242.752C173.453 242.752 174.253 242.544 174.957 242.128C175.661 241.696 176.213 241.12 176.613 240.4L177.933 241.168C177.437 242.128 176.709 242.888 175.749 243.448C174.789 244.008 173.725 244.288 172.557 244.288ZM188.613 232V233.536H184.365V244H182.781V233.536H178.533V232H188.613ZM196.975 231.712C198.687 231.712 200.143 232.32 201.343 233.536C202.559 234.752 203.167 236.24 203.167 238C203.167 239.76 202.559 241.248 201.343 242.464C200.143 243.68 198.687 244.288 196.975 244.288C194.847 244.288 193.231 243.408 192.127 241.648V248.8H190.543V232H192.127V234.352C193.231 232.592 194.847 231.712 196.975 231.712ZM193.495 241.384C194.407 242.296 195.527 242.752 196.855 242.752C198.183 242.752 199.303 242.296 200.215 241.384C201.127 240.456 201.583 239.328 201.583 238C201.583 236.672 201.127 235.552 200.215 234.64C199.303 233.712 198.183 233.248 196.855 233.248C195.527 233.248 194.407 233.712 193.495 234.64C192.583 235.552 192.127 236.672 192.127 238C192.127 239.328 192.583 240.456 193.495 241.384ZM216.121 232H217.705V244H216.121V241.648C215.017 243.408 213.401 244.288 211.273 244.288C209.561 244.288 208.097 243.68 206.881 242.464C205.681 241.248 205.081 239.76 205.081 238C205.081 236.24 205.681 234.752 206.881 233.536C208.097 232.32 209.561 231.712 211.273 231.712C213.401 231.712 215.017 232.592 216.121 234.352V232ZM208.033 241.384C208.945 242.296 210.065 242.752 211.393 242.752C212.721 242.752 213.841 242.296 214.753 241.384C215.665 240.456 216.121 239.328 216.121 238C216.121 236.672 215.665 235.552 214.753 234.64C213.841 233.712 212.721 233.248 211.393 233.248C210.065 233.248 208.945 233.712 208.033 234.64C207.121 235.552 206.665 236.672 206.665 238C206.665 239.328 207.121 240.456 208.033 241.384ZM230.899 242.464H232.819V247.216H231.235V244H221.059V232H222.643V242.464H229.315V232H230.899V242.464ZM243.951 232H245.295V244H243.711V234.76L236.559 244H235.215V232H236.799V241.24L243.951 232ZM257.285 232V244H255.701V239.392H253.637L249.941 244H247.925L251.717 239.344C250.757 239.2 249.965 238.8 249.341 238.144C248.717 237.488 248.405 236.68 248.405 235.72C248.405 234.632 248.789 233.744 249.557 233.056C250.341 232.352 251.293 232 252.413 232H257.285ZM252.413 237.904H255.701V233.536H252.413C251.741 233.536 251.165 233.736 250.685 234.136C250.221 234.536 249.989 235.064 249.989 235.72C249.989 236.376 250.221 236.904 250.685 237.304C251.165 237.704 251.741 237.904 252.413 237.904Z" fill="#314E78"/>
</g>
<defs>
<linearGradient id="paint0_linear" x1="-79.7112" y1="-136.8" x2="433.025" y2="410.362" gradientUnits="userSpaceOnUse">
<stop stop-color="#FDCC6C"/>
<stop offset="1" stop-color="#FF6392"/>
</linearGradient>
<linearGradient id="paint1_linear" x1="187.168" y1="52.169" x2="187.168" y2="199.497" gradientUnits="userSpaceOnUse">
<stop stop-color="#FFD69C"/>
<stop offset="1" stop-color="#FFB5EF"/>
</linearGradient>
<linearGradient id="paint2_linear" x1="129.617" y1="81.221" x2="193.142" y2="168.127" gradientUnits="userSpaceOnUse">
<stop stop-color="#FDCC6C"/>
<stop offset="1" stop-color="#FF6392"/>
</linearGradient>
<clipPath id="clip0">
<rect width="375" height="812" fill="white"/>
</clipPath>
</defs>
</svg>
