<svg width="375" height="812" viewBox="0 0 375 812" fill="none" xmlns="http://www.w3.org/2000/svg">
<rect width="375" height="812" fill="#FFFBF7"/>
<path d="M155.485 177.26H158.035V185.556H154.125V181H139.675V185.556H135.765V177.26H137.975C139.358 175.447 140.049 172.715 140.049 169.066V157.2H155.485V177.26ZM142.259 177.26H151.575V160.872H143.959V169.134C143.959 172.67 143.392 175.379 142.259 177.26ZM168.563 181.442C166.07 181.442 163.951 180.581 162.205 178.858C160.46 177.135 159.587 175.016 159.587 172.5C159.587 169.984 160.46 167.865 162.205 166.142C163.951 164.419 166.07 163.558 168.563 163.558C171.079 163.558 173.199 164.419 174.921 166.142C176.667 167.865 177.539 169.984 177.539 172.5C177.539 175.016 176.667 177.135 174.921 178.858C173.199 180.581 171.079 181.442 168.563 181.442ZM164.789 176.342C165.809 177.362 167.067 177.872 168.563 177.872C170.059 177.872 171.317 177.362 172.337 176.342C173.357 175.322 173.867 174.041 173.867 172.5C173.867 170.959 173.357 169.678 172.337 168.658C171.317 167.638 170.059 167.128 168.563 167.128C167.067 167.128 165.809 167.638 164.789 168.658C163.769 169.678 163.259 170.959 163.259 172.5C163.259 174.041 163.769 175.322 164.789 176.342ZM188.748 181.442C186.141 181.442 184.01 180.603 182.356 178.926C180.724 177.226 179.908 175.061 179.908 172.432C179.908 169.553 180.338 167.332 181.2 165.768C182.061 164.181 183.806 162.742 186.436 161.45C186.866 161.246 187.501 160.951 188.34 160.566C189.201 160.181 189.79 159.909 190.108 159.75C190.425 159.569 190.822 159.319 191.298 159.002C191.774 158.662 192.125 158.311 192.352 157.948C192.578 157.563 192.76 157.109 192.896 156.588L195.888 158.322C195.797 158.821 195.65 159.285 195.446 159.716C195.242 160.124 194.947 160.509 194.562 160.872C194.176 161.235 193.836 161.529 193.542 161.756C193.27 161.983 192.805 162.255 192.148 162.572C191.49 162.889 191.003 163.116 190.686 163.252C190.391 163.388 189.824 163.626 188.986 163.966C187.49 164.555 186.39 165.167 185.688 165.802C185.008 166.414 184.532 167.185 184.26 168.114C185.62 166.573 187.467 165.802 189.802 165.802C191.796 165.802 193.53 166.516 195.004 167.944C196.5 169.372 197.248 171.219 197.248 173.486C197.248 175.798 196.454 177.702 194.868 179.198C193.304 180.694 191.264 181.442 188.748 181.442ZM188.714 178.008C190.142 178.008 191.309 177.589 192.216 176.75C193.122 175.889 193.576 174.801 193.576 173.486C193.576 172.149 193.122 171.049 192.216 170.188C191.332 169.327 190.176 168.896 188.748 168.896C187.478 168.896 186.334 169.304 185.314 170.12C184.294 170.913 183.784 171.979 183.784 173.316C183.784 174.676 184.26 175.798 185.212 176.682C186.164 177.566 187.331 178.008 188.714 178.008ZM209.773 163.558C212.107 163.558 214.102 164.431 215.757 166.176C217.411 167.899 218.239 170.007 218.239 172.5C218.239 175.016 217.411 177.135 215.757 178.858C214.102 180.581 212.107 181.442 209.773 181.442C207.189 181.442 205.205 180.49 203.823 178.586V187.8H200.151V164H203.823V166.448C205.205 164.521 207.189 163.558 209.773 163.558ZM205.353 176.41C206.373 177.43 207.653 177.94 209.195 177.94C210.736 177.94 212.017 177.43 213.037 176.41C214.057 175.367 214.567 174.064 214.567 172.5C214.567 170.936 214.057 169.644 213.037 168.624C212.017 167.581 210.736 167.06 209.195 167.06C207.653 167.06 206.373 167.581 205.353 168.624C204.333 169.644 203.823 170.936 203.823 172.5C203.823 174.064 204.333 175.367 205.353 176.41ZM229.591 181.442C227.097 181.442 224.978 180.581 223.233 178.858C221.487 177.135 220.615 175.016 220.615 172.5C220.615 169.984 221.487 167.865 223.233 166.142C224.978 164.419 227.097 163.558 229.591 163.558C232.107 163.558 234.226 164.419 235.949 166.142C237.694 167.865 238.567 169.984 238.567 172.5C238.567 175.016 237.694 177.135 235.949 178.858C234.226 180.581 232.107 181.442 229.591 181.442ZM225.817 176.342C226.837 177.362 228.095 177.872 229.591 177.872C231.087 177.872 232.345 177.362 233.365 176.342C234.385 175.322 234.895 174.041 234.895 172.5C234.895 170.959 234.385 169.678 233.365 168.658C232.345 167.638 231.087 167.128 229.591 167.128C228.095 167.128 226.837 167.638 225.817 168.658C224.797 169.678 224.287 170.959 224.287 172.5C224.287 174.041 224.797 175.322 225.817 176.342ZM104.117 204V221H100.445V207.468H92.6587V221H88.9867V204H104.117ZM116.401 221.442C113.908 221.442 111.789 220.581 110.043 218.858C108.298 217.135 107.425 215.016 107.425 212.5C107.425 209.984 108.298 207.865 110.043 206.142C111.789 204.419 113.908 203.558 116.401 203.558C118.917 203.558 121.037 204.419 122.759 206.142C124.505 207.865 125.377 209.984 125.377 212.5C125.377 215.016 124.505 217.135 122.759 218.858C121.037 220.581 118.917 221.442 116.401 221.442ZM112.627 216.342C113.647 217.362 114.905 217.872 116.401 217.872C117.897 217.872 119.155 217.362 120.175 216.342C121.195 215.322 121.705 214.041 121.705 212.5C121.705 210.959 121.195 209.678 120.175 208.658C119.155 207.638 117.897 207.128 116.401 207.128C114.905 207.128 113.647 207.638 112.627 208.658C111.607 209.678 111.097 210.959 111.097 212.5C111.097 214.041 111.607 215.322 112.627 216.342ZM149.232 221H145.05L139.27 213.146V221H135.666V213.214L129.886 221H125.704L132.334 212.33L126.044 204H130.226L135.666 211.446V204H139.27V211.48L144.71 204H148.892L142.602 212.33L149.232 221ZM163.976 204H167.648V221H163.976V218.552C162.593 220.479 160.61 221.442 158.026 221.442C155.691 221.442 153.697 220.581 152.042 218.858C150.387 217.113 149.56 214.993 149.56 212.5C149.56 209.984 150.387 207.865 152.042 206.142C153.697 204.419 155.691 203.558 158.026 203.558C160.61 203.558 162.593 204.51 163.976 206.414V204ZM154.762 216.41C155.782 217.43 157.063 217.94 158.604 217.94C160.145 217.94 161.426 217.43 162.446 216.41C163.466 215.367 163.976 214.064 163.976 212.5C163.976 210.936 163.466 209.644 162.446 208.624C161.426 207.581 160.145 207.06 158.604 207.06C157.063 207.06 155.782 207.581 154.762 208.624C153.742 209.644 153.232 210.936 153.232 212.5C153.232 214.064 153.742 215.367 154.762 216.41ZM186.276 204V221H182.604V207.536H176.926V213.86C176.926 216.557 176.337 218.473 175.158 219.606C173.979 220.739 172.302 221.204 170.126 221V217.566C171.169 217.747 171.951 217.532 172.472 216.92C172.993 216.308 173.254 215.231 173.254 213.69V204H186.276ZM198.579 221.442C196.086 221.442 193.966 220.581 192.221 218.858C190.476 217.135 189.603 215.016 189.603 212.5C189.603 209.984 190.476 207.865 192.221 206.142C193.966 204.419 196.086 203.558 198.579 203.558C201.095 203.558 203.214 204.419 204.937 206.142C206.682 207.865 207.555 209.984 207.555 212.5C207.555 215.016 206.682 217.135 204.937 218.858C203.214 220.581 201.095 221.442 198.579 221.442ZM194.805 216.342C195.825 217.362 197.083 217.872 198.579 217.872C200.075 217.872 201.333 217.362 202.353 216.342C203.373 215.322 203.883 214.041 203.883 212.5C203.883 210.959 203.373 209.678 202.353 208.658C201.333 207.638 200.075 207.128 198.579 207.128C197.083 207.128 195.825 207.638 194.805 208.658C193.785 209.678 193.275 210.959 193.275 212.5C193.275 214.041 193.785 215.322 194.805 216.342ZM222.639 212.262C224.317 213.033 225.155 214.336 225.155 216.172C225.155 217.6 224.668 218.767 223.693 219.674C222.741 220.558 221.37 221 219.579 221H210.875V204H218.899C220.645 204 221.993 204.442 222.945 205.326C223.92 206.187 224.407 207.309 224.407 208.692C224.407 210.301 223.818 211.491 222.639 212.262ZM218.627 207.128H214.377V210.902H218.627C220.123 210.902 220.871 210.267 220.871 208.998C220.871 207.751 220.123 207.128 218.627 207.128ZM219.239 217.804C220.781 217.804 221.551 217.135 221.551 215.798C221.551 215.209 221.347 214.755 220.939 214.438C220.531 214.098 219.965 213.928 219.239 213.928H214.377V217.804H219.239ZM241.605 204H245.277V221H241.605V218.552C240.222 220.479 238.239 221.442 235.655 221.442C233.32 221.442 231.326 220.581 229.671 218.858C228.016 217.113 227.189 214.993 227.189 212.5C227.189 209.984 228.016 207.865 229.671 206.142C231.326 204.419 233.32 203.558 235.655 203.558C238.239 203.558 240.222 204.51 241.605 206.414V204ZM232.391 216.41C233.411 217.43 234.692 217.94 236.233 217.94C237.774 217.94 239.055 217.43 240.075 216.41C241.095 215.367 241.605 214.064 241.605 212.5C241.605 210.936 241.095 209.644 240.075 208.624C239.055 207.581 237.774 207.06 236.233 207.06C234.692 207.06 233.411 207.581 232.391 208.624C231.371 209.644 230.861 210.936 230.861 212.5C230.861 214.064 231.371 215.367 232.391 216.41ZM262.545 204V207.536H257.003V221H253.331V207.536H247.755V204H262.545ZM272.442 209.78C274.255 209.78 275.74 210.301 276.896 211.344C278.052 212.364 278.63 213.713 278.63 215.39C278.63 217.045 278.052 218.393 276.896 219.436C275.74 220.479 274.255 221 272.442 221H265.03V204H268.702V209.78H272.442ZM272.476 217.702C273.201 217.702 273.802 217.487 274.278 217.056C274.776 216.625 275.026 216.07 275.026 215.39C275.026 214.687 274.776 214.132 274.278 213.724C273.802 213.293 273.201 213.078 272.476 213.078H268.702V217.702H272.476ZM282.379 213.52L281.631 204V197.2H286.051V204L285.269 213.52H282.379ZM285.643 220.66C285.145 221.159 284.544 221.408 283.841 221.408C283.139 221.408 282.538 221.159 282.039 220.66C281.541 220.161 281.291 219.561 281.291 218.858C281.291 218.155 281.529 217.555 282.005 217.056C282.504 216.557 283.116 216.308 283.841 216.308C284.544 216.308 285.145 216.557 285.643 217.056C286.142 217.555 286.391 218.155 286.391 218.858C286.391 219.561 286.142 220.161 285.643 220.66Z" fill="#314E78"/>
<path d="M74.6121 465.5V476H73.2321V467.795L69.7971 473.51H69.6171L66.1821 467.81V476H64.7871V465.5H66.3621L69.7071 471.05L73.0371 465.5H74.6121ZM82.9324 468.5H84.2374V476H82.9324V474.71C82.2824 475.7 81.3374 476.195 80.0974 476.195C79.0474 476.195 78.1524 475.815 77.4124 475.055C76.6724 474.285 76.3024 473.35 76.3024 472.25C76.3024 471.15 76.6724 470.22 77.4124 469.46C78.1524 468.69 79.0474 468.305 80.0974 468.305C81.3374 468.305 82.2824 468.8 82.9324 469.79V468.5ZM80.2624 474.935C81.0224 474.935 81.6574 474.68 82.1674 474.17C82.6774 473.65 82.9324 473.01 82.9324 472.25C82.9324 471.49 82.6774 470.855 82.1674 470.345C81.6574 469.825 81.0224 469.565 80.2624 469.565C79.5124 469.565 78.8824 469.825 78.3724 470.345C77.8624 470.855 77.6074 471.49 77.6074 472.25C77.6074 473.01 77.8624 473.65 78.3724 474.17C78.8824 474.68 79.5124 474.935 80.2624 474.935ZM89.7396 476.195C88.6096 476.195 87.6696 475.82 86.9196 475.07C86.1696 474.31 85.7946 473.37 85.7946 472.25C85.7946 471.13 86.1696 470.195 86.9196 469.445C87.6696 468.685 88.6096 468.305 89.7396 468.305C90.4796 468.305 91.1446 468.485 91.7346 468.845C92.3246 469.195 92.7646 469.67 93.0546 470.27L91.9596 470.9C91.7696 470.5 91.4746 470.18 91.0746 469.94C90.6846 469.7 90.2396 469.58 89.7396 469.58C88.9896 469.58 88.3596 469.835 87.8496 470.345C87.3496 470.855 87.0996 471.49 87.0996 472.25C87.0996 473 87.3496 473.63 87.8496 474.14C88.3596 474.65 88.9896 474.905 89.7396 474.905C90.2396 474.905 90.6896 474.79 91.0896 474.56C91.4896 474.32 91.7946 474 92.0046 473.6L93.1146 474.245C92.7946 474.835 92.3346 475.31 91.7346 475.67C91.1346 476.02 90.4696 476.195 89.7396 476.195ZM99.8659 468.5V469.76H97.3159V476H96.0109V469.76H93.4459V468.5H99.8659ZM101.632 472.85C101.762 473.52 102.067 474.04 102.547 474.41C103.037 474.78 103.637 474.965 104.347 474.965C105.337 474.965 106.057 474.6 106.507 473.87L107.617 474.5C106.887 475.63 105.787 476.195 104.317 476.195C103.127 476.195 102.157 475.825 101.407 475.085C100.667 474.335 100.297 473.39 100.297 472.25C100.297 471.12 100.662 470.18 101.392 469.43C102.122 468.68 103.067 468.305 104.227 468.305C105.327 468.305 106.222 468.695 106.912 469.475C107.612 470.245 107.962 471.175 107.962 472.265C107.962 472.455 107.947 472.65 107.917 472.85H101.632ZM104.227 469.535C103.527 469.535 102.947 469.735 102.487 470.135C102.027 470.525 101.742 471.05 101.632 471.71H106.642C106.532 471 106.252 470.46 105.802 470.09C105.352 469.72 104.827 469.535 104.227 469.535ZM113.602 468.305C114.652 468.305 115.547 468.69 116.287 469.46C117.027 470.22 117.397 471.15 117.397 472.25C117.397 473.35 117.027 474.285 116.287 475.055C115.547 475.815 114.652 476.195 113.602 476.195C112.362 476.195 111.417 475.7 110.767 474.71V479H109.462V468.5H110.767V469.79C111.417 468.8 112.362 468.305 113.602 468.305ZM113.437 474.935C114.187 474.935 114.817 474.68 115.327 474.17C115.837 473.65 116.092 473.01 116.092 472.25C116.092 471.49 115.837 470.855 115.327 470.345C114.817 469.825 114.187 469.565 113.437 469.565C112.677 469.565 112.042 469.825 111.532 470.345C111.022 470.855 110.767 471.49 110.767 472.25C110.767 473.01 111.022 473.65 111.532 474.17C112.042 474.68 112.677 474.935 113.437 474.935ZM123.896 468.5H125.291L122.231 476.465C121.911 477.315 121.461 477.96 120.881 478.4C120.301 478.85 119.641 479.05 118.901 479V477.785C119.821 477.855 120.496 477.355 120.926 476.285L121.046 476.015L117.791 468.5H119.171L121.736 474.38L123.896 468.5ZM135.321 468.5H136.626V476H135.321V472.865H131.436V476H130.131V468.5H131.436V471.62H135.321V468.5ZM139.527 472.85C139.657 473.52 139.962 474.04 140.442 474.41C140.932 474.78 141.532 474.965 142.242 474.965C143.232 474.965 143.952 474.6 144.402 473.87L145.512 474.5C144.782 475.63 143.682 476.195 142.212 476.195C141.022 476.195 140.052 475.825 139.302 475.085C138.562 474.335 138.192 473.39 138.192 472.25C138.192 471.12 138.557 470.18 139.287 469.43C140.017 468.68 140.962 468.305 142.122 468.305C143.222 468.305 144.117 468.695 144.807 469.475C145.507 470.245 145.857 471.175 145.857 472.265C145.857 472.455 145.842 472.65 145.812 472.85H139.527ZM142.122 469.535C141.422 469.535 140.842 469.735 140.382 470.135C139.922 470.525 139.637 471.05 139.527 471.71H144.537C144.427 471 144.147 470.46 143.697 470.09C143.247 469.72 142.722 469.535 142.122 469.535ZM153.673 475.055C152.903 475.815 151.968 476.195 150.868 476.195C149.768 476.195 148.833 475.815 148.063 475.055C147.303 474.295 146.923 473.36 146.923 472.25C146.923 471.14 147.303 470.205 148.063 469.445C148.833 468.685 149.768 468.305 150.868 468.305C151.968 468.305 152.903 468.685 153.673 469.445C154.443 470.205 154.828 471.14 154.828 472.25C154.828 473.36 154.443 474.295 153.673 475.055ZM150.868 474.92C151.618 474.92 152.248 474.665 152.758 474.155C153.268 473.645 153.523 473.01 153.523 472.25C153.523 471.49 153.268 470.855 152.758 470.345C152.248 469.835 151.618 469.58 150.868 469.58C150.128 469.58 149.503 469.835 148.993 470.345C148.483 470.855 148.228 471.49 148.228 472.25C148.228 473.01 148.483 473.645 148.993 474.155C149.503 474.665 150.128 474.92 150.868 474.92ZM159.771 476.195C158.661 476.195 157.746 475.83 157.026 475.1C156.306 474.37 155.946 473.43 155.946 472.28C155.946 471 156.131 470.015 156.501 469.325C156.881 468.635 157.651 468.01 158.811 467.45C159.021 467.35 159.306 467.22 159.666 467.06C160.036 466.9 160.306 466.78 160.476 466.7C160.646 466.61 160.836 466.495 161.046 466.355C161.256 466.205 161.411 466.045 161.511 465.875C161.621 465.695 161.701 465.49 161.751 465.26L162.801 465.86C162.771 466.02 162.731 466.17 162.681 466.31C162.631 466.44 162.556 466.57 162.456 466.7C162.366 466.82 162.286 466.925 162.216 467.015C162.146 467.105 162.026 467.205 161.856 467.315C161.696 467.415 161.576 467.49 161.496 467.54C161.426 467.59 161.281 467.665 161.061 467.765C160.851 467.865 160.706 467.935 160.626 467.975C160.556 468.005 160.391 468.075 160.131 468.185C159.871 468.285 159.711 468.35 159.651 468.38C158.971 468.67 158.471 468.965 158.151 469.265C157.841 469.565 157.616 469.945 157.476 470.405C157.796 470.005 158.196 469.71 158.676 469.52C159.156 469.33 159.636 469.235 160.116 469.235C161.056 469.235 161.851 469.555 162.501 470.195C163.161 470.835 163.491 471.66 163.491 472.67C163.491 473.69 163.141 474.535 162.441 475.205C161.741 475.865 160.851 476.195 159.771 476.195ZM158.016 474.275C158.486 474.715 159.071 474.935 159.771 474.935C160.471 474.935 161.046 474.72 161.496 474.29C161.956 473.86 162.186 473.32 162.186 472.67C162.186 472 161.966 471.455 161.526 471.035C161.096 470.605 160.526 470.39 159.816 470.39C159.176 470.39 158.596 470.595 158.076 471.005C157.566 471.405 157.311 471.935 157.311 472.595C157.311 473.275 157.546 473.835 158.016 474.275ZM170.859 476H169.329L167.229 473.165L165.114 476H163.584L166.464 472.145L163.749 468.5H165.294L167.229 471.11L169.164 468.5H170.694L167.994 472.13L170.859 476ZM177.872 475.055C177.102 475.815 176.167 476.195 175.067 476.195C173.967 476.195 173.032 475.815 172.262 475.055C171.502 474.295 171.122 473.36 171.122 472.25C171.122 471.14 171.502 470.205 172.262 469.445C173.032 468.685 173.967 468.305 175.067 468.305C176.167 468.305 177.102 468.685 177.872 469.445C178.642 470.205 179.027 471.14 179.027 472.25C179.027 473.36 178.642 474.295 177.872 475.055ZM175.067 474.92C175.817 474.92 176.447 474.665 176.957 474.155C177.467 473.645 177.722 473.01 177.722 472.25C177.722 471.49 177.467 470.855 176.957 470.345C176.447 469.835 175.817 469.58 175.067 469.58C174.327 469.58 173.702 469.835 173.192 470.345C172.682 470.855 172.427 471.49 172.427 472.25C172.427 473.01 172.682 473.645 173.192 474.155C173.702 474.665 174.327 474.92 175.067 474.92ZM186.722 474.755H187.757V478.01H186.467V476H180.842V478.01H179.552V474.755H180.467C180.947 474.095 181.187 473.17 181.187 471.98V468.5H186.722V474.755ZM181.952 474.755H185.432V469.715H182.477V471.98C182.477 473.1 182.302 474.025 181.952 474.755ZM194.609 468.5H195.659V476H194.369V470.735L190.214 476H189.164V468.5H190.454V473.765L194.609 468.5ZM205.145 468.5V476H203.87V470.555L201.485 474.395H201.32L198.935 470.555V476H197.645V468.5H199.04L201.395 472.295L203.75 468.5H205.145ZM213.467 475.055C212.697 475.815 211.762 476.195 210.662 476.195C209.562 476.195 208.627 475.815 207.857 475.055C207.097 474.295 206.717 473.36 206.717 472.25C206.717 471.14 207.097 470.205 207.857 469.445C208.627 468.685 209.562 468.305 210.662 468.305C211.762 468.305 212.697 468.685 213.467 469.445C214.237 470.205 214.622 471.14 214.622 472.25C214.622 473.36 214.237 474.295 213.467 475.055ZM210.662 474.92C211.412 474.92 212.042 474.665 212.552 474.155C213.062 473.645 213.317 473.01 213.317 472.25C213.317 471.49 213.062 470.855 212.552 470.345C212.042 469.835 211.412 469.58 210.662 469.58C209.922 469.58 209.297 469.835 208.787 470.345C208.277 470.855 208.022 471.49 208.022 472.25C208.022 473.01 208.277 473.645 208.787 474.155C209.297 474.665 209.922 474.92 210.662 474.92ZM223.436 476.195C222.306 476.195 221.366 475.82 220.616 475.07C219.866 474.31 219.491 473.37 219.491 472.25C219.491 471.13 219.866 470.195 220.616 469.445C221.366 468.685 222.306 468.305 223.436 468.305C224.176 468.305 224.841 468.485 225.431 468.845C226.021 469.195 226.461 469.67 226.751 470.27L225.656 470.9C225.466 470.5 225.171 470.18 224.771 469.94C224.381 469.7 223.936 469.58 223.436 469.58C222.686 469.58 222.056 469.835 221.546 470.345C221.046 470.855 220.796 471.49 220.796 472.25C220.796 473 221.046 473.63 221.546 474.14C222.056 474.65 222.686 474.905 223.436 474.905C223.936 474.905 224.386 474.79 224.786 474.56C225.186 474.32 225.491 474 225.701 473.6L226.811 474.245C226.491 474.835 226.031 475.31 225.431 475.67C224.831 476.02 224.166 476.195 223.436 476.195ZM234.327 475.055C233.557 475.815 232.622 476.195 231.522 476.195C230.422 476.195 229.487 475.815 228.717 475.055C227.957 474.295 227.577 473.36 227.577 472.25C227.577 471.14 227.957 470.205 228.717 469.445C229.487 468.685 230.422 468.305 231.522 468.305C232.622 468.305 233.557 468.685 234.327 469.445C235.097 470.205 235.482 471.14 235.482 472.25C235.482 473.36 235.097 474.295 234.327 475.055ZM231.522 474.92C232.272 474.92 232.902 474.665 233.412 474.155C233.922 473.645 234.177 473.01 234.177 472.25C234.177 471.49 233.922 470.855 233.412 470.345C232.902 469.835 232.272 469.58 231.522 469.58C230.782 469.58 230.157 469.835 229.647 470.345C229.137 470.855 228.882 471.49 228.882 472.25C228.882 473.01 229.137 473.645 229.647 474.155C230.157 474.665 230.782 474.92 231.522 474.92ZM240.777 472.16C241.607 472.5 242.022 473.095 242.022 473.945C242.022 474.575 241.772 475.11 241.272 475.55C240.772 475.98 240.062 476.195 239.142 476.195C237.642 476.195 236.637 475.595 236.127 474.395L237.222 473.75C237.512 474.57 238.157 474.98 239.157 474.98C239.657 474.98 240.042 474.875 240.312 474.665C240.592 474.445 240.732 474.165 240.732 473.825C240.732 473.525 240.617 473.28 240.387 473.09C240.167 472.9 239.867 472.805 239.487 472.805H238.392V471.62H239.202C239.582 471.62 239.877 471.53 240.087 471.35C240.297 471.16 240.402 470.905 240.402 470.585C240.402 470.265 240.277 470.005 240.027 469.805C239.787 469.605 239.452 469.505 239.022 469.505C238.182 469.505 237.612 469.86 237.312 470.57L236.247 469.955C236.777 468.855 237.702 468.305 239.022 468.305C239.842 468.305 240.487 468.515 240.957 468.935C241.437 469.355 241.677 469.87 241.677 470.48C241.677 471.24 241.377 471.8 240.777 472.16ZM249.769 474.755H250.804V478.01H249.514V476H243.889V478.01H242.599V474.755H243.514C243.994 474.095 244.234 473.17 244.234 471.98V468.5H249.769V474.755ZM244.999 474.755H248.479V469.715H245.524V471.98C245.524 473.1 245.349 474.025 244.999 474.755ZM258.128 468.5H259.433V476H258.128V474.71C257.478 475.7 256.533 476.195 255.293 476.195C254.243 476.195 253.348 475.815 252.608 475.055C251.868 474.285 251.498 473.35 251.498 472.25C251.498 471.15 251.868 470.22 252.608 469.46C253.348 468.69 254.243 468.305 255.293 468.305C256.533 468.305 257.478 468.8 258.128 469.79V468.5ZM255.458 474.935C256.218 474.935 256.853 474.68 257.363 474.17C257.873 473.65 258.128 473.01 258.128 472.25C258.128 471.49 257.873 470.855 257.363 470.345C256.853 469.825 256.218 469.565 255.458 469.565C254.708 469.565 254.078 469.825 253.568 470.345C253.058 470.855 252.803 471.49 252.803 472.25C252.803 473.01 253.058 473.65 253.568 474.17C254.078 474.68 254.708 474.935 255.458 474.935ZM266.99 468.5V469.76H264.44V476H263.135V469.76H260.57V468.5H266.99ZM271.299 471.2C272.049 471.2 272.669 471.425 273.159 471.875C273.659 472.315 273.909 472.89 273.909 473.6C273.909 474.31 273.659 474.89 273.159 475.34C272.669 475.78 272.049 476 271.299 476H268.134V468.5H269.439V471.2H271.299ZM271.299 474.785C271.669 474.785 271.979 474.68 272.229 474.47C272.489 474.25 272.619 473.96 272.619 473.6C272.619 473.24 272.489 472.95 272.229 472.73C271.979 472.51 271.669 472.4 271.299 472.4H269.439V474.785H271.299ZM282.586 476.195C281.456 476.195 280.516 475.82 279.766 475.07C279.016 474.31 278.641 473.37 278.641 472.25C278.641 471.13 279.016 470.195 279.766 469.445C280.516 468.685 281.456 468.305 282.586 468.305C283.326 468.305 283.991 468.485 284.581 468.845C285.171 469.195 285.611 469.67 285.901 470.27L284.806 470.9C284.616 470.5 284.321 470.18 283.921 469.94C283.531 469.7 283.086 469.58 282.586 469.58C281.836 469.58 281.206 469.835 280.696 470.345C280.196 470.855 279.946 471.49 279.946 472.25C279.946 473 280.196 473.63 280.696 474.14C281.206 474.65 281.836 474.905 282.586 474.905C283.086 474.905 283.536 474.79 283.936 474.56C284.336 474.32 284.641 474 284.851 473.6L285.961 474.245C285.641 474.835 285.181 475.31 284.581 475.67C283.981 476.02 283.316 476.195 282.586 476.195ZM292.259 472.145C293.029 472.465 293.414 473.045 293.414 473.885C293.414 474.505 293.204 475.015 292.784 475.415C292.374 475.805 291.784 476 291.014 476H287.264V468.5H290.714C291.464 468.5 292.044 468.69 292.454 469.07C292.864 469.44 293.069 469.93 293.069 470.54C293.069 471.26 292.799 471.795 292.259 472.145ZM290.654 469.67H288.539V471.635H290.654C291.414 471.635 291.794 471.3 291.794 470.63C291.794 469.99 291.414 469.67 290.654 469.67ZM290.939 474.815C291.319 474.815 291.609 474.725 291.809 474.545C292.019 474.365 292.124 474.11 292.124 473.78C292.124 473.47 292.019 473.23 291.809 473.06C291.609 472.88 291.319 472.79 290.939 472.79H288.539V474.815H290.939ZM301.153 475.055C300.383 475.815 299.448 476.195 298.348 476.195C297.248 476.195 296.313 475.815 295.543 475.055C294.783 474.295 294.403 473.36 294.403 472.25C294.403 471.14 294.783 470.205 295.543 469.445C296.313 468.685 297.248 468.305 298.348 468.305C299.448 468.305 300.383 468.685 301.153 469.445C301.923 470.205 302.308 471.14 302.308 472.25C302.308 473.36 301.923 474.295 301.153 475.055ZM298.348 474.92C299.098 474.92 299.728 474.665 300.238 474.155C300.748 473.645 301.003 473.01 301.003 472.25C301.003 471.49 300.748 470.855 300.238 470.345C299.728 469.835 299.098 469.58 298.348 469.58C297.608 469.58 296.983 469.835 296.473 470.345C295.963 470.855 295.708 471.49 295.708 472.25C295.708 473.01 295.963 473.645 296.473 474.155C296.983 474.665 297.608 474.92 298.348 474.92ZM305.076 467.375V466.235H309.126V467.375H305.076ZM309.291 468.5H310.341V476H309.051V470.735L304.896 476H303.846V468.5H305.136V473.765L309.291 468.5ZM64.2184 491.5V499H62.9134V492.745H59.0284V499H57.7234V491.5H64.2184ZM70.3448 491.305C71.3948 491.305 72.2898 491.69 73.0298 492.46C73.7698 493.22 74.1398 494.15 74.1398 495.25C74.1398 496.35 73.7698 497.285 73.0298 498.055C72.2898 498.815 71.3948 499.195 70.3448 499.195C69.1048 499.195 68.1598 498.7 67.5098 497.71V502H66.2048V491.5H67.5098V492.79C68.1598 491.8 69.1048 491.305 70.3448 491.305ZM70.1798 497.935C70.9298 497.935 71.5598 497.68 72.0698 497.17C72.5798 496.65 72.8348 496.01 72.8348 495.25C72.8348 494.49 72.5798 493.855 72.0698 493.345C71.5598 492.825 70.9298 492.565 70.1798 492.565C69.4198 492.565 68.7848 492.825 68.2748 493.345C67.7648 493.855 67.5098 494.49 67.5098 495.25C67.5098 496.01 67.7648 496.65 68.2748 497.17C68.7848 497.68 69.4198 497.935 70.1798 497.935ZM82.027 498.055C81.257 498.815 80.322 499.195 79.222 499.195C78.122 499.195 77.187 498.815 76.417 498.055C75.657 497.295 75.277 496.36 75.277 495.25C75.277 494.14 75.657 493.205 76.417 492.445C77.187 491.685 78.122 491.305 79.222 491.305C80.322 491.305 81.257 491.685 82.027 492.445C82.797 493.205 83.182 494.14 83.182 495.25C83.182 496.36 82.797 497.295 82.027 498.055ZM79.222 497.92C79.972 497.92 80.602 497.665 81.112 497.155C81.622 496.645 81.877 496.01 81.877 495.25C81.877 494.49 81.622 493.855 81.112 493.345C80.602 492.835 79.972 492.58 79.222 492.58C78.482 492.58 77.857 492.835 77.347 493.345C76.837 493.855 76.582 494.49 76.582 495.25C76.582 496.01 76.837 496.645 77.347 497.155C77.857 497.665 78.482 497.92 79.222 497.92ZM92.2505 492.625C92.9505 493.345 93.3005 494.22 93.3005 495.25C93.3005 496.28 92.9505 497.155 92.2505 497.875C91.5505 498.595 90.6155 499.02 89.4455 499.15V502H88.1555V499.15C86.9855 499.02 86.0505 498.595 85.3505 497.875C84.6505 497.155 84.3005 496.28 84.3005 495.25C84.3005 494.22 84.6505 493.345 85.3505 492.625C86.0505 491.905 86.9855 491.48 88.1555 491.35V488.5H89.4455V491.35C90.6155 491.48 91.5505 491.905 92.2505 492.625ZM85.5905 495.25C85.5905 495.94 85.8155 496.525 86.2655 497.005C86.7255 497.485 87.3555 497.78 88.1555 497.89V492.61C87.3555 492.71 86.7255 493 86.2655 493.48C85.8155 493.96 85.5905 494.55 85.5905 495.25ZM89.4455 497.89C90.2455 497.78 90.8705 497.485 91.3205 497.005C91.7705 496.525 91.9955 495.94 91.9955 495.25C91.9955 494.56 91.7705 493.975 91.3205 493.495C90.8705 493.015 90.2455 492.72 89.4455 492.61V497.89ZM100.288 491.5H101.338V499H100.048V493.735L95.8925 499H94.8425V491.5H96.1325V496.765L100.288 491.5ZM109.579 491.5V499H108.274V492.76H105.319V495.82C105.319 497.05 105.069 497.91 104.569 498.4C104.079 498.88 103.384 499.08 102.484 499V497.77C102.994 497.84 103.374 497.73 103.624 497.44C103.884 497.14 104.014 496.59 104.014 495.79V491.5H109.579ZM114.721 494.2C115.471 494.2 116.091 494.425 116.581 494.875C117.081 495.315 117.331 495.89 117.331 496.6C117.331 497.31 117.081 497.89 116.581 498.34C116.091 498.78 115.471 499 114.721 499H111.556V491.5H112.861V494.2H114.721ZM114.721 497.785C115.091 497.785 115.401 497.68 115.651 497.47C115.911 497.25 116.041 496.96 116.041 496.6C116.041 496.24 115.911 495.95 115.651 495.73C115.401 495.51 115.091 495.4 114.721 495.4H112.861V497.785H114.721ZM126.009 499.195C124.879 499.195 123.939 498.82 123.189 498.07C122.439 497.31 122.064 496.37 122.064 495.25C122.064 494.13 122.439 493.195 123.189 492.445C123.939 491.685 124.879 491.305 126.009 491.305C126.749 491.305 127.414 491.485 128.004 491.845C128.594 492.195 129.034 492.67 129.324 493.27L128.229 493.9C128.039 493.5 127.744 493.18 127.344 492.94C126.954 492.7 126.509 492.58 126.009 492.58C125.259 492.58 124.629 492.835 124.119 493.345C123.619 493.855 123.369 494.49 123.369 495.25C123.369 496 123.619 496.63 124.119 497.14C124.629 497.65 125.259 497.905 126.009 497.905C126.509 497.905 126.959 497.79 127.359 497.56C127.759 497.32 128.064 497 128.274 496.6L129.384 497.245C129.064 497.835 128.604 498.31 128.004 498.67C127.404 499.02 126.739 499.195 126.009 499.195ZM140.932 491.5V499H139.627V492.745H135.742V499H134.437V491.5H140.932ZM149.249 498.055C148.479 498.815 147.544 499.195 146.444 499.195C145.344 499.195 144.409 498.815 143.639 498.055C142.879 497.295 142.499 496.36 142.499 495.25C142.499 494.14 142.879 493.205 143.639 492.445C144.409 491.685 145.344 491.305 146.444 491.305C147.544 491.305 148.479 491.685 149.249 492.445C150.019 493.205 150.404 494.14 150.404 495.25C150.404 496.36 150.019 497.295 149.249 498.055ZM146.444 497.92C147.194 497.92 147.824 497.665 148.334 497.155C148.844 496.645 149.099 496.01 149.099 495.25C149.099 494.49 148.844 493.855 148.334 493.345C147.824 492.835 147.194 492.58 146.444 492.58C145.704 492.58 145.079 492.835 144.569 493.345C144.059 493.855 143.804 494.49 143.804 495.25C143.804 496.01 144.059 496.645 144.569 497.155C145.079 497.665 145.704 497.92 146.444 497.92ZM156.082 491.305C157.132 491.305 158.027 491.69 158.767 492.46C159.507 493.22 159.877 494.15 159.877 495.25C159.877 496.35 159.507 497.285 158.767 498.055C158.027 498.815 157.132 499.195 156.082 499.195C154.842 499.195 153.897 498.7 153.247 497.71V502H151.942V491.5H153.247V492.79C153.897 491.8 154.842 491.305 156.082 491.305ZM155.917 497.935C156.667 497.935 157.297 497.68 157.807 497.17C158.317 496.65 158.572 496.01 158.572 495.25C158.572 494.49 158.317 493.855 157.807 493.345C157.297 492.825 156.667 492.565 155.917 492.565C155.157 492.565 154.522 492.825 154.012 493.345C153.502 493.855 153.247 494.49 153.247 495.25C153.247 496.01 153.502 496.65 154.012 497.17C154.522 497.68 155.157 497.935 155.917 497.935ZM166.721 491.5V492.76H164.171V499H162.866V492.76H160.301V491.5H166.721ZM175.102 492.625C175.802 493.345 176.152 494.22 176.152 495.25C176.152 496.28 175.802 497.155 175.102 497.875C174.402 498.595 173.467 499.02 172.297 499.15V502H171.007V499.15C169.837 499.02 168.902 498.595 168.202 497.875C167.502 497.155 167.152 496.28 167.152 495.25C167.152 494.22 167.502 493.345 168.202 492.625C168.902 491.905 169.837 491.48 171.007 491.35V488.5H172.297V491.35C173.467 491.48 174.402 491.905 175.102 492.625ZM168.442 495.25C168.442 495.94 168.667 496.525 169.117 497.005C169.577 497.485 170.207 497.78 171.007 497.89V492.61C170.207 492.71 169.577 493 169.117 493.48C168.667 493.96 168.442 494.55 168.442 495.25ZM172.297 497.89C173.097 497.78 173.722 497.485 174.172 497.005C174.622 496.525 174.847 495.94 174.847 495.25C174.847 494.56 174.622 493.975 174.172 493.495C173.722 493.015 173.097 492.72 172.297 492.61V497.89ZM184.024 498.055C183.254 498.815 182.319 499.195 181.219 499.195C180.119 499.195 179.184 498.815 178.414 498.055C177.654 497.295 177.274 496.36 177.274 495.25C177.274 494.14 177.654 493.205 178.414 492.445C179.184 491.685 180.119 491.305 181.219 491.305C182.319 491.305 183.254 491.685 184.024 492.445C184.794 493.205 185.179 494.14 185.179 495.25C185.179 496.36 184.794 497.295 184.024 498.055ZM181.219 497.92C181.969 497.92 182.599 497.665 183.109 497.155C183.619 496.645 183.874 496.01 183.874 495.25C183.874 494.49 183.619 493.855 183.109 493.345C182.599 492.835 181.969 492.58 181.219 492.58C180.479 492.58 179.854 492.835 179.344 493.345C178.834 493.855 178.579 494.49 178.579 495.25C178.579 496.01 178.834 496.645 179.344 497.155C179.854 497.665 180.479 497.92 181.219 497.92ZM192.709 491.5V499H191.404V492.76H188.449V495.82C188.449 497.05 188.199 497.91 187.699 498.4C187.209 498.88 186.514 499.08 185.614 499V497.77C186.124 497.84 186.504 497.73 186.754 497.44C187.014 497.14 187.144 496.59 187.144 495.79V491.5H192.709ZM200.131 491.5H201.181V499H199.891V493.735L195.736 499H194.686V491.5H195.976V496.765L200.131 491.5ZM209.498 498.055C208.728 498.815 207.793 499.195 206.693 499.195C205.593 499.195 204.658 498.815 203.888 498.055C203.128 497.295 202.748 496.36 202.748 495.25C202.748 494.14 203.128 493.205 203.888 492.445C204.658 491.685 205.593 491.305 206.693 491.305C207.793 491.305 208.728 491.685 209.498 492.445C210.268 493.205 210.653 494.14 210.653 495.25C210.653 496.36 210.268 497.295 209.498 498.055ZM206.693 497.92C207.443 497.92 208.073 497.665 208.583 497.155C209.093 496.645 209.348 496.01 209.348 495.25C209.348 494.49 209.093 493.855 208.583 493.345C208.073 492.835 207.443 492.58 206.693 492.58C205.953 492.58 205.328 492.835 204.818 493.345C204.308 493.855 204.053 494.49 204.053 495.25C204.053 496.01 204.308 496.645 204.818 497.155C205.328 497.665 205.953 497.92 206.693 497.92ZM221.386 491.5H222.436V499H221.146V493.735L216.991 499H215.941V491.5H217.231V496.765L221.386 491.5ZM234.518 499H232.898L229.478 495.445V499H228.173V491.5H229.478V494.815L232.718 491.5H234.398L230.813 495.13L234.518 499ZM241.373 498.055C240.603 498.815 239.668 499.195 238.568 499.195C237.468 499.195 236.533 498.815 235.763 498.055C235.003 497.295 234.623 496.36 234.623 495.25C234.623 494.14 235.003 493.205 235.763 492.445C236.533 491.685 237.468 491.305 238.568 491.305C239.668 491.305 240.603 491.685 241.373 492.445C242.143 493.205 242.528 494.14 242.528 495.25C242.528 496.36 242.143 497.295 241.373 498.055ZM238.568 497.92C239.318 497.92 239.948 497.665 240.458 497.155C240.968 496.645 241.223 496.01 241.223 495.25C241.223 494.49 240.968 493.855 240.458 493.345C239.948 492.835 239.318 492.58 238.568 492.58C237.828 492.58 237.203 492.835 236.693 493.345C236.183 493.855 235.928 494.49 235.928 495.25C235.928 496.01 236.183 496.645 236.693 497.155C237.203 497.665 237.828 497.92 238.568 497.92ZM249.256 491.5H250.561V499H249.256V495.865H245.371V499H244.066V491.5H245.371V494.62H249.256V491.5ZM258.128 491.5V492.76H255.578V499H254.273V492.76H251.708V491.5H258.128ZM265.188 491.5H266.493V499H265.188V497.71C264.538 498.7 263.593 499.195 262.353 499.195C261.303 499.195 260.408 498.815 259.668 498.055C258.928 497.285 258.558 496.35 258.558 495.25C258.558 494.15 258.928 493.22 259.668 492.46C260.408 491.69 261.303 491.305 262.353 491.305C263.593 491.305 264.538 491.8 265.188 492.79V491.5ZM262.518 497.935C263.278 497.935 263.913 497.68 264.423 497.17C264.933 496.65 265.188 496.01 265.188 495.25C265.188 494.49 264.933 493.855 264.423 493.345C263.913 492.825 263.278 492.565 262.518 492.565C261.768 492.565 261.138 492.825 260.628 493.345C260.118 493.855 259.863 494.49 259.863 495.25C259.863 496.01 260.118 496.65 260.628 497.17C261.138 497.68 261.768 497.935 262.518 497.935ZM274.815 499H273.195L269.775 495.445V499H268.47V491.5H269.775V494.815L273.015 491.5H274.695L271.11 495.13L274.815 499ZM281.609 491.5V492.76H279.059V499H277.754V492.76H275.189V491.5H281.609ZM287.943 491.5H289.248V499H287.943V495.865H284.058V499H282.753V491.5H284.058V494.62H287.943V491.5ZM294.399 494.2C295.149 494.2 295.769 494.425 296.259 494.875C296.759 495.315 297.009 495.89 297.009 496.6C297.009 497.31 296.759 497.89 296.259 498.34C295.769 498.78 295.149 499 294.399 499H291.234V491.5H292.539V494.2H294.399ZM297.984 491.5H299.289V499H297.984V491.5ZM294.399 497.785C294.769 497.785 295.079 497.68 295.329 497.47C295.589 497.25 295.719 496.96 295.719 496.6C295.719 496.24 295.589 495.95 295.329 495.73C295.079 495.51 294.769 495.4 294.399 495.4H292.539V497.785H294.399ZM308.783 491.5V499H307.508V493.555L305.123 497.395H304.958L302.573 493.555V499H301.283V491.5H302.678L305.033 495.295L307.388 491.5H308.783ZM316.22 491.5H317.27V499H315.98V493.735L311.825 499H310.775V491.5H312.065V496.765L316.22 491.5ZM70.0254 520.755H71.0604V524.01H69.7704V522H64.1454V524.01H62.8554V520.755H63.7704C64.2504 520.095 64.4904 519.17 64.4904 517.98V514.5H70.0254V520.755ZM65.2554 520.755H68.7354V515.715H65.7804V517.98C65.7804 519.1 65.6054 520.025 65.2554 520.755ZM78.3841 514.5H79.6891V522H78.3841V520.71C77.7341 521.7 76.7891 522.195 75.5491 522.195C74.4991 522.195 73.6041 521.815 72.8641 521.055C72.1241 520.285 71.7541 519.35 71.7541 518.25C71.7541 517.15 72.1241 516.22 72.8641 515.46C73.6041 514.69 74.4991 514.305 75.5491 514.305C76.7891 514.305 77.7341 514.8 78.3841 515.79V514.5ZM75.7141 520.935C76.4741 520.935 77.1091 520.68 77.6191 520.17C78.1291 519.65 78.3841 519.01 78.3841 518.25C78.3841 517.49 78.1291 516.855 77.6191 516.345C77.1091 515.825 76.4741 515.565 75.7141 515.565C74.9641 515.565 74.3341 515.825 73.8241 516.345C73.3141 516.855 73.0591 517.49 73.0591 518.25C73.0591 519.01 73.3141 519.65 73.8241 520.17C74.3341 520.68 74.9641 520.935 75.7141 520.935ZM86.8563 514.5H88.1613V522H86.8563V518.865H82.9713V522H81.6663V514.5H82.9713V517.62H86.8563V514.5ZM95.3377 514.5H96.6427V522H95.3377V518.865H91.4527V522H90.1477V514.5H91.4527V517.62H95.3377V514.5ZM101.794 517.2C102.544 517.2 103.164 517.425 103.654 517.875C104.154 518.315 104.404 518.89 104.404 519.6C104.404 520.31 104.154 520.89 103.654 521.34C103.164 521.78 102.544 522 101.794 522H98.6292V514.5H99.9342V517.2H101.794ZM105.379 514.5H106.684V522H105.379V514.5ZM101.794 520.785C102.164 520.785 102.474 520.68 102.724 520.47C102.984 520.25 103.114 519.96 103.114 519.6C103.114 519.24 102.984 518.95 102.724 518.73C102.474 518.51 102.164 518.4 101.794 518.4H99.9342V520.785H101.794ZM116.178 514.5V522H114.903V516.555L112.518 520.395H112.353L109.968 516.555V522H108.678V514.5H110.073L112.428 518.295L114.783 514.5H116.178ZM123.615 514.5H124.665V522H123.375V516.735L119.22 522H118.17V514.5H119.46V519.765L123.615 514.5ZM128.602 520.455L127.627 524.1H126.502L127.102 520.455H128.602ZM138.921 514.5H140.226V522H138.921V519.3C138.321 519.56 137.646 519.69 136.896 519.69C135.936 519.69 135.191 519.465 134.661 519.015C134.141 518.555 133.881 517.88 133.881 516.99V514.5H135.186V516.915C135.186 517.475 135.336 517.875 135.636 518.115C135.946 518.355 136.396 518.475 136.986 518.475C137.696 518.475 138.341 518.345 138.921 518.085V514.5ZM147.788 514.5V515.76H145.238V522H143.933V515.76H141.368V514.5H147.788ZM154.969 521.055C154.199 521.815 153.264 522.195 152.164 522.195C151.064 522.195 150.129 521.815 149.359 521.055C148.599 520.295 148.219 519.36 148.219 518.25C148.219 517.14 148.599 516.205 149.359 515.445C150.129 514.685 151.064 514.305 152.164 514.305C153.264 514.305 154.199 514.685 154.969 515.445C155.739 516.205 156.124 517.14 156.124 518.25C156.124 519.36 155.739 520.295 154.969 521.055ZM152.164 520.92C152.914 520.92 153.544 520.665 154.054 520.155C154.564 519.645 154.819 519.01 154.819 518.25C154.819 517.49 154.564 516.855 154.054 516.345C153.544 515.835 152.914 515.58 152.164 515.58C151.424 515.58 150.799 515.835 150.289 516.345C149.779 516.855 149.524 517.49 149.524 518.25C149.524 519.01 149.779 519.645 150.289 520.155C150.799 520.665 151.424 520.92 152.164 520.92ZM161.067 522.195C159.957 522.195 159.042 521.83 158.322 521.1C157.602 520.37 157.242 519.43 157.242 518.28C157.242 517 157.427 516.015 157.797 515.325C158.177 514.635 158.947 514.01 160.107 513.45C160.317 513.35 160.602 513.22 160.962 513.06C161.332 512.9 161.602 512.78 161.772 512.7C161.942 512.61 162.132 512.495 162.342 512.355C162.552 512.205 162.707 512.045 162.807 511.875C162.917 511.695 162.997 511.49 163.047 511.26L164.097 511.86C164.067 512.02 164.027 512.17 163.977 512.31C163.927 512.44 163.852 512.57 163.752 512.7C163.662 512.82 163.582 512.925 163.512 513.015C163.442 513.105 163.322 513.205 163.152 513.315C162.992 513.415 162.872 513.49 162.792 513.54C162.722 513.59 162.577 513.665 162.357 513.765C162.147 513.865 162.002 513.935 161.922 513.975C161.852 514.005 161.687 514.075 161.427 514.185C161.167 514.285 161.007 514.35 160.947 514.38C160.267 514.67 159.767 514.965 159.447 515.265C159.137 515.565 158.912 515.945 158.772 516.405C159.092 516.005 159.492 515.71 159.972 515.52C160.452 515.33 160.932 515.235 161.412 515.235C162.352 515.235 163.147 515.555 163.797 516.195C164.457 516.835 164.787 517.66 164.787 518.67C164.787 519.69 164.437 520.535 163.737 521.205C163.037 521.865 162.147 522.195 161.067 522.195ZM159.312 520.275C159.782 520.715 160.367 520.935 161.067 520.935C161.767 520.935 162.342 520.72 162.792 520.29C163.252 519.86 163.482 519.32 163.482 518.67C163.482 518 163.262 517.455 162.822 517.035C162.392 516.605 161.822 516.39 161.112 516.39C160.472 516.39 159.892 516.595 159.372 517.005C158.862 517.405 158.607 517.935 158.607 518.595C158.607 519.275 158.842 519.835 159.312 520.275ZM169.338 517.2C170.088 517.2 170.708 517.425 171.198 517.875C171.698 518.315 171.948 518.89 171.948 519.6C171.948 520.31 171.698 520.89 171.198 521.34C170.708 521.78 170.088 522 169.338 522H166.173V514.5H167.478V517.2H169.338ZM172.923 514.5H174.228V522H172.923V514.5ZM169.338 520.785C169.708 520.785 170.018 520.68 170.268 520.47C170.528 520.25 170.658 519.96 170.658 519.6C170.658 519.24 170.528 518.95 170.268 518.73C170.018 518.51 169.708 518.4 169.338 518.4H167.478V520.785H169.338ZM185.162 514.5H186.467V522H185.162V518.865H181.277V522H179.972V514.5H181.277V517.62H185.162V514.5ZM194.663 514.5H195.968V522H194.663V520.71C194.013 521.7 193.068 522.195 191.828 522.195C190.778 522.195 189.883 521.815 189.143 521.055C188.403 520.285 188.033 519.35 188.033 518.25C188.033 517.15 188.403 516.22 189.143 515.46C189.883 514.69 190.778 514.305 191.828 514.305C193.068 514.305 194.013 514.8 194.663 515.79V514.5ZM191.993 520.935C192.753 520.935 193.388 520.68 193.898 520.17C194.408 519.65 194.663 519.01 194.663 518.25C194.663 517.49 194.408 516.855 193.898 516.345C193.388 515.825 192.753 515.565 191.993 515.565C191.243 515.565 190.613 515.825 190.103 516.345C189.593 516.855 189.338 517.49 189.338 518.25C189.338 519.01 189.593 519.65 190.103 520.17C190.613 520.68 191.243 520.935 191.993 520.935ZM204.456 522H202.926L200.826 519.165L198.711 522H197.181L200.061 518.145L197.346 514.5H198.891L200.826 517.11L202.761 514.5H204.291L201.591 518.13L204.456 522ZM211.468 521.055C210.698 521.815 209.763 522.195 208.663 522.195C207.563 522.195 206.628 521.815 205.858 521.055C205.098 520.295 204.718 519.36 204.718 518.25C204.718 517.14 205.098 516.205 205.858 515.445C206.628 514.685 207.563 514.305 208.663 514.305C209.763 514.305 210.698 514.685 211.468 515.445C212.238 516.205 212.623 517.14 212.623 518.25C212.623 519.36 212.238 520.295 211.468 521.055ZM208.663 520.92C209.413 520.92 210.043 520.665 210.553 520.155C211.063 519.645 211.318 519.01 211.318 518.25C211.318 517.49 211.063 516.855 210.553 516.345C210.043 515.835 209.413 515.58 208.663 515.58C207.923 515.58 207.298 515.835 206.788 516.345C206.278 516.855 206.023 517.49 206.023 518.25C206.023 519.01 206.278 519.645 206.788 520.155C207.298 520.665 207.923 520.92 208.663 520.92ZM220.318 520.755H221.353V524.01H220.063V522H214.438V524.01H213.148V520.755H214.063C214.543 520.095 214.783 519.17 214.783 517.98V514.5H220.318V520.755ZM215.548 520.755H219.028V515.715H216.073V517.98C216.073 519.1 215.898 520.025 215.548 520.755ZM228.205 514.5H229.255V522H227.965V516.735L223.81 522H222.76V514.5H224.05V519.765L228.205 514.5ZM236.821 514.5V515.76H234.271V522H232.966V515.76H230.401V514.5H236.821ZM241.13 517.2C241.88 517.2 242.5 517.425 242.99 517.875C243.49 518.315 243.74 518.89 243.74 519.6C243.74 520.31 243.49 520.89 242.99 521.34C242.5 521.78 241.88 522 241.13 522H237.965V514.5H239.27V517.2H241.13ZM241.13 520.785C241.5 520.785 241.81 520.68 242.06 520.47C242.32 520.25 242.45 519.96 242.45 519.6C242.45 519.24 242.32 518.95 242.06 518.73C241.81 518.51 241.5 518.4 241.13 518.4H239.27V520.785H241.13ZM255.238 522H253.618L250.198 518.445V522H248.893V514.5H250.198V517.815L253.438 514.5H255.118L251.533 518.13L255.238 522ZM262.706 514.5V522H261.401V515.76H258.446V518.82C258.446 520.05 258.196 520.91 257.696 521.4C257.206 521.88 256.511 522.08 255.611 522V520.77C256.121 520.84 256.501 520.73 256.751 520.44C257.011 520.14 257.141 519.59 257.141 518.79V514.5H262.706ZM270.129 514.5H271.179V522H269.889V516.735L265.734 522H264.684V514.5H265.974V519.765L270.129 514.5ZM274.08 518.85C274.21 519.52 274.515 520.04 274.995 520.41C275.485 520.78 276.085 520.965 276.795 520.965C277.785 520.965 278.505 520.6 278.955 519.87L280.065 520.5C279.335 521.63 278.235 522.195 276.765 522.195C275.575 522.195 274.605 521.825 273.855 521.085C273.115 520.335 272.745 519.39 272.745 518.25C272.745 517.12 273.11 516.18 273.84 515.43C274.57 514.68 275.515 514.305 276.675 514.305C277.775 514.305 278.67 514.695 279.36 515.475C280.06 516.245 280.41 517.175 280.41 518.265C280.41 518.455 280.395 518.65 280.365 518.85H274.08ZM276.675 515.535C275.975 515.535 275.395 515.735 274.935 516.135C274.475 516.525 274.19 517.05 274.08 517.71H279.09C278.98 517 278.7 516.46 278.25 516.09C277.8 515.72 277.275 515.535 276.675 515.535ZM287.1 514.5H288.405V522H287.1V518.865H283.215V522H281.91V514.5H283.215V517.62H287.1V514.5ZM295.972 514.5V515.76H293.422V522H292.117V515.76H289.552V514.5H295.972ZM303.153 521.055C302.383 521.815 301.448 522.195 300.348 522.195C299.248 522.195 298.313 521.815 297.543 521.055C296.783 520.295 296.403 519.36 296.403 518.25C296.403 517.14 296.783 516.205 297.543 515.445C298.313 514.685 299.248 514.305 300.348 514.305C301.448 514.305 302.383 514.685 303.153 515.445C303.923 516.205 304.308 517.14 304.308 518.25C304.308 519.36 303.923 520.295 303.153 521.055ZM300.348 520.92C301.098 520.92 301.728 520.665 302.238 520.155C302.748 519.645 303.003 519.01 303.003 518.25C303.003 517.49 302.748 516.855 302.238 516.345C301.728 515.835 301.098 515.58 300.348 515.58C299.608 515.58 298.983 515.835 298.473 516.345C297.963 516.855 297.708 517.49 297.708 518.25C297.708 519.01 297.963 519.645 298.473 520.155C298.983 520.665 299.608 520.92 300.348 520.92ZM310.841 518.145C311.611 518.465 311.996 519.045 311.996 519.885C311.996 520.505 311.786 521.015 311.366 521.415C310.956 521.805 310.366 522 309.596 522H305.846V514.5H309.296C310.046 514.5 310.626 514.69 311.036 515.07C311.446 515.44 311.651 515.93 311.651 516.54C311.651 517.26 311.381 517.795 310.841 518.145ZM309.236 515.67H307.121V517.635H309.236C309.996 517.635 310.376 517.3 310.376 516.63C310.376 515.99 309.996 515.67 309.236 515.67ZM309.521 520.815C309.901 520.815 310.191 520.725 310.391 520.545C310.601 520.365 310.706 520.11 310.706 519.78C310.706 519.47 310.601 519.23 310.391 519.06C310.191 518.88 309.901 518.79 309.521 518.79H307.121V520.815H309.521Z" fill="#314E78"/>
<ellipse opacity="0.3" cx="187" cy="343.661" rx="85" ry="84.6605" fill="url(#paint0_linear)"/>
<path d="M206.124 334.256C205.43 321.125 198.029 313.523 194.415 311.363C196.583 317.842 187.042 329.937 183.573 334.256C180.797 337.711 182.417 343.183 183.573 345.486C181.405 342.175 176.027 335.638 171.864 335.984C166.66 336.416 167.093 342.463 167.527 347.214C167.961 351.966 173.165 355.853 174.032 359.309C174.726 362.073 174.61 372.267 174.466 377.018C170.65 382.201 159.389 408.308 154.041 421.41C160.112 424.002 175.593 427.901 192.246 427.555C208.9 427.21 221.447 419.06 225.639 415.029C223.471 405.67 221.736 388.249 216.532 384.361C213.588 382.162 190.945 372.699 189.211 370.539C187.476 368.379 188.343 361.9 190.078 360.172C191.813 358.445 197.884 358.013 200.92 355.853C203.956 353.693 206.991 350.67 206.124 334.256Z" fill="#FFEBE3"/>
<path d="M196.149 400.343C185.394 398.615 174.61 388.393 170.563 383.929L161.456 403.367L153.173 421.41C188.735 435.664 211.286 427.025 226.464 418.386L222.604 400.343C218.267 401.063 206.905 402.071 196.149 400.343Z" fill="white"/>
<path d="M185.517 333.941C181.007 338.087 182.085 345.1 183.964 347.548C181.218 344.092 176.063 336.705 171.206 339.124C166.348 341.543 168.025 348.483 169.471 351.65C174.899 359.74 175.333 360.604 173.808 362.017C146.486 354.242 149.088 329.621 149.088 326.166C149.088 323.401 147.064 322.998 146.053 323.142C120.379 323.833 122.425 304.884 128.272 298.521C146.711 281.559 154.588 306.943 155.16 307.592C155.818 308.339 156.252 309.01 159.063 307.592C170.194 301.977 195.491 294.893 207.634 311.48C219.777 328.066 209.015 346.35 203.956 352.829C211.762 335.552 195.491 309.752 196.792 313.639C198.093 317.527 191.155 328.757 185.517 333.941Z" fill="url(#paint1_linear)"/>
<defs>
<linearGradient id="paint0_linear" x1="187.227" y1="229.546" x2="187.227" y2="428.321" gradientUnits="userSpaceOnUse">
<stop stop-color="#FFD69C"/>
<stop offset="1" stop-color="#FFB5EF"/>
</linearGradient>
<linearGradient id="paint1_linear" x1="109.579" y1="268.743" x2="195.286" y2="385.997" gradientUnits="userSpaceOnUse">
<stop stop-color="#FDCC6C"/>
<stop offset="1" stop-color="#FF6392"/>
</linearGradient>
</defs>
</svg>
