<svg width="170" height="170" viewBox="0 0 170 170" fill="none" xmlns="http://www.w3.org/2000/svg">
<ellipse opacity="0.3" cx="85" cy="84.6605" rx="85" ry="84.6605" fill="url(#paint0_linear)"/>
<path d="M104.124 75.2559C103.43 62.1249 96.0288 54.5227 92.4148 52.363C94.5833 58.8422 85.0423 70.9365 81.5729 75.2559C78.7974 78.7115 80.4165 84.1827 81.5729 86.4864C79.4046 83.1749 74.027 76.6381 69.8637 76.9837C64.6597 77.4156 65.0933 83.4628 65.527 88.2142C65.9607 92.9655 71.1648 96.853 72.0321 100.309C72.726 103.073 72.6103 113.267 72.4658 118.018C68.6494 123.201 57.3894 149.308 52.0408 162.41C58.1122 165.002 73.5933 168.901 90.2464 168.555C106.899 168.21 119.447 160.06 123.639 156.029C121.471 146.67 119.736 129.249 114.532 125.361C111.588 123.162 88.9454 113.699 87.2107 111.539C85.4761 109.379 86.3434 102.9 88.0781 101.172C89.8128 99.4447 95.8842 99.0127 98.9199 96.853C101.956 94.6933 104.991 91.6697 104.124 75.2559Z" fill="#FFDFD2"/>
<path d="M94.1495 141.343C83.3944 139.615 72.6104 129.393 68.5628 124.929L59.4556 144.367L51.1735 162.41C86.7347 176.664 109.286 168.025 124.464 159.386L120.604 141.343C116.267 142.063 104.905 143.071 94.1495 141.343Z" fill="white"/>
<path d="M83.517 74.9406C79.0068 79.0872 80.085 86.1003 81.9643 88.548C79.2176 85.0924 74.0627 77.705 69.2056 80.1239C64.3485 82.5428 66.0253 89.4826 67.4709 92.6502C72.8994 100.74 73.3331 101.604 71.8076 103.017C44.4862 95.2418 47.0883 70.6212 47.0883 67.1656C47.0883 64.4012 45.0645 63.9981 44.0526 64.1421C18.3791 64.8332 20.425 45.8839 26.272 39.5214C44.7107 22.559 52.5877 47.9428 53.1597 48.5922C53.8179 49.3394 54.2515 50.0104 57.0628 48.5922C68.1937 42.977 93.4914 35.8931 105.634 52.4797C117.777 69.0662 107.015 87.3503 101.956 93.8294C109.762 76.5517 93.4914 50.7519 94.7924 54.6393C96.0934 58.5268 89.1547 69.7573 83.517 74.9406Z" fill="url(#paint1_linear)"/>
<defs>
<linearGradient id="paint0_linear" x1="85.2267" y1="-29.4545" x2="85.2267" y2="169.321" gradientUnits="userSpaceOnUse">
<stop stop-color="#FFD69C"/>
<stop offset="1" stop-color="#FFB5EF"/>
</linearGradient>
<linearGradient id="paint1_linear" x1="7.5789" y1="9.74263" x2="93.2863" y2="126.997" gradientUnits="userSpaceOnUse">
<stop stop-color="#FDCC6C"/>
<stop offset="1" stop-color="#FF6392"/>
</linearGradient>
</defs>
</svg>
