<svg width="375" height="812" viewBox="0 0 375 812" fill="none" xmlns="http://www.w3.org/2000/svg">
<g clip-path="url(#clip0)">
<rect width="375" height="812" fill="#FFFBF7"/>
<path d="M-1.18431 -5.97075C-1.38022 -6.49187 -1.52801 -7.02982 -1.62583 -7.5779C-3.16675 -17.0795 -10.4298 -70.4994 29.9166 -88.4296C49.7851 -97.2601 72.3028 -111.83 145.154 -84.8974C231.136 -53.1078 287.325 -106.974 300.57 -106.974C313.816 -106.974 343.84 -126.401 379.161 -88.4296C414.483 -50.4586 387.992 -4.54021 387.992 -4.54021C387.992 -4.54021 371.214 38.729 376.512 60.8052C381.811 82.8814 387.992 100.542 386.226 107.607C384.46 114.671 383.577 162.356 354.436 172.952C325.296 183.549 335.009 181.783 267.015 178.25C199.02 174.718 163.698 184.432 149.569 189.73C135.441 195.028 114.248 193.262 76.2765 167.654C38.3055 142.045 29.4751 149.993 10.048 138.513C-9.37898 127.034 -58.7324 63.5426 -17.3264 17.5359C-1.32118 -0.248604 -0.786938 -4.8537 -1.18431 -5.97075Z" fill="url(#paint0_linear)" fill-opacity="0.5"/>
<path d="M-23.0662 102.308C-23.0662 102.308 -14.6773 89.9457 -13.7942 88.1796C-12.9112 86.4135 -13.3527 79.3492 -13.3527 79.3492H-16.4434C-16.4434 79.3492 -13.7942 71.8433 -6.28834 71.8433C1.21755 71.8433 3.42517 75.3754 4.30821 77.1415C5.19126 78.9076 4.74974 79.7907 4.74974 79.7907H2.1006V86.855L14.9048 108.048H20.203V142.487C20.203 142.487 -11.1451 126.151 -23.0662 102.308Z" fill="url(#paint1_linear)" fill-opacity="0.5"/>
<path d="M6.51587 133.657H12.6972V124.826C12.6972 124.826 9.60653 119.969 6.51587 124.826V133.657Z" fill="white"/>
<circle cx="8.43661" cy="111.801" r="3.89865" fill="#FFF4F4"/>
<path d="M-11.9841 108.671C-11.9651 107.662 -11.5986 106.69 -10.9465 105.92C-9.70605 104.38 -7.86639 103.443 -5.89106 103.346C-1.7849 103.236 0.0165157 106.688 0.268184 108.101C0.647894 110.234 0.564004 120.972 0.564004 120.972L-9.04796 120.919L-12.0591 117.762L-11.9841 108.671Z" fill="white"/>
<path d="M19.1964 94.4139L20.2031 142.487C20.2031 142.487 38.4027 149.278 46.0763 150.898C53.75 152.518 71.6052 162.704 71.6052 162.704L71.305 94.6391L19.2052 94.2903" fill="#FFF4F4"/>
<path d="M18.8256 94.4139L71.3051 94.6346L71.0667 82.091H55.5251C55.5251 82.091 53.5956 74.5851 46.359 74.5851C37.48 74.5851 36.0009 82.4883 36.0009 82.4883L18.7815 82.3073L18.8256 94.4139Z" fill="url(#paint2_linear)" fill-opacity="0.5"/>
<rect x="24.3756" y="101.544" width="9.28082" height="10.0667" fill="url(#paint3_linear)" fill-opacity="0.5"/>
<rect x="41.1445" y="101.403" width="9.28082" height="10.0667" fill="url(#paint4_linear)" fill-opacity="0.5"/>
<rect x="57.6974" y="101.549" width="9.28082" height="10.0667" fill="white"/>
<rect x="57.8386" y="120.486" width="9.28082" height="10.0667" fill="url(#paint5_linear)" fill-opacity="0.5"/>
<rect x="57.9709" y="142.522" width="9.28082" height="10.0667" fill="url(#paint6_linear)" fill-opacity="0.5"/>
<rect x="40.7826" y="120.199" width="9.28082" height="10.0667" fill="url(#paint7_linear)" fill-opacity="0.5"/>
<rect x="40.7826" y="120.199" width="9.28082" height="10.0667" fill="white"/>
<rect x="24.4463" y="120.632" width="9.28082" height="10.0667" fill="url(#paint8_linear)" fill-opacity="0.5"/>
<path d="M24.6538 144.015L24.5831 141.074L33.5946 141.26L33.6211 147.18C33.6211 147.18 26.9497 144.964 24.6538 144.015Z" fill="url(#paint9_linear)" fill-opacity="0.5"/>
<path d="M41.2815 149.556L41.149 142.059L50.2842 142.249L50.0811 152.055L41.2815 149.556Z" fill="url(#paint10_linear)" fill-opacity="0.5"/>
<circle cx="45.8644" cy="84.2633" r="5.10401" fill="white"/>
<path d="M71.1506 128.151L71.5922 162.709C71.5922 162.709 99.0902 181.006 100.83 182.312C102.569 183.619 116.95 190.591 123.489 191.028L124.668 121.294L120.804 121.144L101.912 97.6813L94.9134 97.3457L71.155 128.133" fill="url(#paint11_linear)" fill-opacity="0.5"/>
<path d="M71.151 128.151L94.9359 98.2729L97.5629 98.37L100.565 98.5466L102.221 98.7188L120.805 121.166L124.668 121.312V119.974L120.95 119.824L103.148 98.0653L103.263 89.6499L94.64 89.204L94.3089 97.8181L71.4468 108.825L71.151 128.151Z" fill="#FFF4F4"/>
<rect x="86.2462" y="121.669" width="4.32693" height="5.05986" fill="white"/>
<rect x="105.324" y="121.709" width="4.32693" height="5.05986" fill="white"/>
<rect x="98.3043" y="121.696" width="4.32693" height="5.05986" fill="white"/>
<rect x="92.5601" y="121.656" width="4.32693" height="5.05986" fill="white"/>
<rect x="86.2507" y="129.405" width="4.32693" height="5.05986" fill="white"/>
<rect x="105.329" y="129.444" width="4.32693" height="5.05986" fill="white"/>
<rect x="98.3132" y="129.436" width="4.32693" height="5.05986" fill="white"/>
<rect x="92.5688" y="129.396" width="4.32693" height="5.05986" fill="white"/>
<rect x="75.9852" y="152.262" width="4.32693" height="5.05986" fill="white"/>
<rect x="81.606" y="146.443" width="4.32693" height="5.05986" fill="white"/>
<rect x="75.8618" y="146.403" width="4.32693" height="5.05986" fill="white"/>
<rect x="81.6635" y="152.311" width="4.32693" height="5.05986" fill="white"/>
<rect x="92.9355" y="152.381" width="4.32693" height="5.05986" fill="white"/>
<rect x="98.5515" y="146.562" width="4.32693" height="5.05986" fill="white"/>
<rect x="92.8074" y="146.523" width="4.32693" height="5.05986" fill="white"/>
<rect x="98.609" y="152.43" width="4.32693" height="5.05986" fill="white"/>
<rect x="109.342" y="152.549" width="4.32693" height="5.05986" fill="white"/>
<rect x="114.958" y="146.726" width="4.32693" height="5.05986" fill="white"/>
<rect x="109.214" y="146.686" width="4.32693" height="5.05986" fill="white"/>
<rect x="115.016" y="152.598" width="4.32693" height="5.05986" fill="white"/>
<rect x="109.113" y="177.253" width="4.32693" height="7.2189" fill="white"/>
<rect x="114.733" y="171.429" width="4.32693" height="5.05986" fill="white"/>
<rect x="108.989" y="171.394" width="4.32693" height="5.05986" fill="white"/>
<rect x="97.7036" y="171.288" width="4.32693" height="5.05986" fill="white"/>
<path d="M102.07 183.063L97.7479 180.251L97.7258 177.473H102.053L102.07 183.063Z" fill="white"/>
<rect x="91.9595" y="171.248" width="4.32693" height="5.05986" fill="white"/>
<path d="M96.2646 179.191L95.1652 178.431L93.3638 177.244L96.2557 177.253L96.2646 179.191Z" fill="white"/>
<rect x="114.791" y="177.301" width="4.32693" height="7.188" fill="white"/>
<path d="M147.062 75.2474H155.216L155.093 71.2693L146.929 71.1854L147.062 75.2474Z" fill="url(#paint12_linear)" fill-opacity="0.5"/>
<path d="M124.301 112.569L123.52 191.024C123.52 191.024 137.533 193.183 150.139 189.999C162.744 186.816 177.341 183.376 177.341 183.376L177.827 113.316L169.341 109.148L155.574 84.7755L155.234 75.2474H147.066L146.805 84.7755L132.301 108.719L124.301 112.569Z" fill="#FFF4F4"/>
<rect x="145.256" y="119.298" width="5.35126" height="6.65817" fill="url(#paint13_linear)" fill-opacity="0.5"/>
<rect x="152.51" y="119.417" width="5.70889" height="6.53896" fill="url(#paint14_linear)" fill-opacity="0.5"/>
<rect x="145.136" y="127.201" width="5.35126" height="6.65817" fill="url(#paint15_linear)" fill-opacity="0.5"/>
<rect x="152.391" y="127.321" width="5.70889" height="6.53896" fill="url(#paint16_linear)" fill-opacity="0.5"/>
<rect x="145.371" y="143.065" width="5.35126" height="6.65817" fill="url(#paint17_linear)" fill-opacity="0.5"/>
<rect x="132.761" y="143.026" width="5.35126" height="6.65817" fill="url(#paint18_linear)" fill-opacity="0.5"/>
<rect x="164.409" y="143.321" width="5.35126" height="6.65817" fill="url(#paint19_linear)" fill-opacity="0.5"/>
<rect x="164.564" y="172.652" width="5.35126" height="6.65817" fill="url(#paint20_linear)" fill-opacity="0.5"/>
<rect x="132.822" y="172.842" width="5.35126" height="6.65817" fill="url(#paint21_linear)" fill-opacity="0.5"/>
<rect x="152.625" y="143.18" width="5.70889" height="6.53896" fill="url(#paint22_linear)" fill-opacity="0.5"/>
<rect x="145.251" y="150.969" width="5.35126" height="6.65817" fill="url(#paint23_linear)" fill-opacity="0.5"/>
<rect x="152.505" y="151.088" width="5.70889" height="6.53896" fill="url(#paint24_linear)" fill-opacity="0.5"/>
<rect x="145.273" y="171.919" width="5.35126" height="6.65817" fill="url(#paint25_linear)" fill-opacity="0.5"/>
<rect x="152.528" y="172.038" width="5.70889" height="6.53896" fill="url(#paint26_linear)" fill-opacity="0.5"/>
<rect x="145.154" y="179.827" width="5.35126" height="6.65817" fill="url(#paint27_linear)" fill-opacity="0.5"/>
<rect x="152.409" y="179.946" width="5.70889" height="6.53896" fill="url(#paint28_linear)" fill-opacity="0.5"/>
<circle cx="135.732" cy="126.698" r="3.7397" fill="url(#paint29_linear)" fill-opacity="0.5"/>
<circle cx="166.06" cy="127.528" r="3.7397" fill="url(#paint30_linear)" fill-opacity="0.5"/>
<path d="M124.301 112.569H132.456L132.328 108.591L124.164 108.507L124.301 112.569Z" fill="url(#paint31_linear)" fill-opacity="0.5"/>
<path d="M169.659 113.316H177.814L177.686 109.337L169.526 109.254L169.659 113.316Z" fill="url(#paint32_linear)" fill-opacity="0.5"/>
<circle cx="151.441" cy="104.216" r="6.42858" fill="url(#paint33_linear)" fill-opacity="0.5"/>
<path d="M174.445 113.651L174.917 147.507C174.917 147.507 176.154 183.778 176.273 183.659C179.174 180.661 223.993 177.601 229.172 177.478L227.966 106.834L224.103 106.684L205.201 83.2036L198.203 82.868L174.445 113.655" fill="url(#paint34_linear)" fill-opacity="0.5"/>
<path d="M174.445 113.651L198.23 83.7732L200.857 83.8748L203.86 84.0514L205.515 84.2192L224.099 106.666L227.962 106.816V105.479L224.245 105.328L206.442 83.5657L206.557 75.1503L197.934 74.7043L197.603 83.3229L174.463 109.315L174.445 113.651Z" fill="#FFF4F4"/>
<rect x="189.536" y="107.17" width="4.32693" height="5.05986" fill="white"/>
<rect x="208.619" y="107.214" width="4.32693" height="5.05986" fill="white"/>
<rect x="201.599" y="107.2" width="4.32693" height="5.05986" fill="white"/>
<rect x="195.854" y="107.161" width="4.32693" height="5.05986" fill="white"/>
<rect x="189.545" y="114.905" width="4.32693" height="5.05986" fill="white"/>
<rect x="208.623" y="114.949" width="4.32693" height="5.05986" fill="white"/>
<rect x="201.607" y="114.936" width="4.32693" height="5.05986" fill="white"/>
<rect x="195.863" y="114.896" width="4.32693" height="5.05986" fill="white"/>
<rect x="179.381" y="141.396" width="4.32693" height="5.05986" fill="white"/>
<rect x="184.997" y="135.577" width="4.32693" height="5.05986" fill="white"/>
<rect x="179.253" y="135.537" width="4.32693" height="5.05986" fill="white"/>
<rect x="185.055" y="141.445" width="4.32693" height="5.05986" fill="white"/>
<rect x="196.327" y="141.516" width="4.32693" height="5.05986" fill="white"/>
<rect x="201.947" y="135.696" width="4.32693" height="5.05986" fill="white"/>
<rect x="196.203" y="135.657" width="4.32693" height="5.05986" fill="white"/>
<rect x="202.005" y="141.564" width="4.32693" height="5.05986" fill="white"/>
<rect x="212.734" y="141.683" width="4.32693" height="5.05986" fill="white"/>
<rect x="218.354" y="135.86" width="4.32693" height="5.05986" fill="white"/>
<rect x="212.61" y="135.82" width="4.32693" height="5.05986" fill="white"/>
<rect x="218.412" y="141.732" width="4.32693" height="5.05986" fill="white"/>
<rect x="179.5" y="163.587" width="4.32693" height="5.05986" fill="white"/>
<rect x="185.116" y="157.764" width="4.32693" height="5.05986" fill="white"/>
<rect x="179.372" y="157.724" width="4.32693" height="5.05986" fill="white"/>
<rect x="185.174" y="163.631" width="4.32693" height="5.05986" fill="white"/>
<rect x="196.446" y="163.707" width="4.32693" height="5.05986" fill="white"/>
<rect x="202.066" y="157.883" width="4.32693" height="5.05986" fill="white"/>
<rect x="196.322" y="157.843" width="4.32693" height="5.05986" fill="white"/>
<rect x="202.124" y="163.751" width="4.32693" height="5.05986" fill="white"/>
<rect x="212.853" y="163.87" width="4.32693" height="5.05986" fill="white"/>
<rect x="218.473" y="158.051" width="4.32693" height="5.05986" fill="white"/>
<rect x="212.729" y="158.011" width="4.32693" height="5.05986" fill="white"/>
<rect x="218.531" y="163.919" width="4.32693" height="5.05986" fill="white"/>
<path d="M233.017 97.5268C233.017 97.5268 244.435 79.3493 245.318 77.5832C246.201 75.8171 245.76 68.7527 245.76 68.7527H242.669C242.669 68.7527 245.318 61.2468 252.824 61.2468C260.33 61.2468 262.538 64.779 263.421 66.5451C264.304 68.3112 263.862 69.1942 263.862 69.1942H261.213V76.2586L274.017 97.4517H279.315L281.055 179.094C281.055 179.094 230.69 176.732 229.626 177.442C229.295 177.663 229.322 175.354 229.269 174.952C229.048 173.23 227.163 110.777 228.112 97.6018C228.112 97.6151 233.053 97.5224 233.017 97.5268Z" fill="#FFF4F4"/>
<path d="M265.416 123.272H271.597V114.442C271.597 114.442 268.507 109.585 265.416 114.442V123.272Z" fill="white"/>
<path d="M235.733 123.983H241.914V115.152C241.914 115.152 238.823 110.296 235.733 115.152V123.983Z" fill="white"/>
<path d="M235.733 146.779H241.914V137.948C241.914 137.948 238.823 133.091 235.733 137.948V146.779Z" fill="white"/>
<path d="M250.493 147.044H256.674V138.213C256.674 138.213 253.583 133.356 250.493 138.213V147.044Z" fill="white"/>
<path d="M265.248 147.308H271.43V138.478C271.43 138.478 268.339 133.621 265.248 138.478V147.308Z" fill="white"/>
<path d="M236.108 168.59H242.289V159.76C242.289 159.76 239.199 154.903 236.108 159.76V168.59Z" fill="white"/>
<path d="M250.872 168.855H257.054V160.024C257.054 160.024 253.963 155.168 250.872 160.024V168.855Z" fill="white"/>
<path d="M265.637 169.124H271.818V160.294C271.818 160.294 268.728 155.437 265.637 160.294V169.124Z" fill="white"/>
<circle cx="267.337" cy="101.412" r="3.89865" fill="#FFF4F4"/>
<circle cx="239.468" cy="100.821" r="3.89865" fill="#FFF4F4"/>
<circle cx="253.694" cy="120.058" r="3.89865" fill="#FFF4F4"/>
<circle cx="253.402" cy="83.738" r="3.89865" fill="#FFF4F4"/>
<path d="M246.921 98.2862C246.94 97.2772 247.306 96.3057 247.958 95.5355C249.199 93.9952 251.038 93.0585 253.014 92.9614C257.12 92.8511 258.921 96.3038 259.173 97.7167C259.553 99.8492 259.469 110.587 259.469 110.587H246.779L246.846 107.395L246.921 98.2862Z" fill="white"/>
<path d="M279.536 112.865L280.86 179.178C280.86 179.178 295.395 179.328 304.292 180.436C312.076 181.407 330.783 180.511 330.783 180.511L331.667 113.091L279.567 112.742" fill="url(#paint35_linear)" fill-opacity="0.5"/>
<path d="M279.165 112.865L331.645 113.086L331.406 100.542H315.86C315.86 100.542 313.931 93.0365 306.694 93.0365C297.815 93.0365 296.336 100.94 296.336 100.94L279.117 100.759L279.165 112.865Z" fill="url(#paint36_linear)" fill-opacity="0.5"/>
<rect x="284.715" y="119.996" width="9.28082" height="10.0667" fill="white"/>
<rect x="301.484" y="119.85" width="9.28082" height="10.0667" fill="white"/>
<rect x="318.037" y="119.996" width="9.28082" height="10.0667" fill="white"/>
<rect x="318.178" y="138.933" width="9.28082" height="10.0667" fill="white"/>
<rect x="318.311" y="160.974" width="9.28082" height="10.0667" fill="white"/>
<rect x="301.498" y="160.568" width="9.28082" height="10.0667" fill="white"/>
<rect x="284.72" y="160.36" width="9.28082" height="10.0667" fill="white"/>
<rect x="301.122" y="138.646" width="9.28082" height="10.0667" fill="white"/>
<rect x="301.122" y="138.646" width="9.28082" height="10.0667" fill="white"/>
<rect x="284.786" y="139.078" width="9.28082" height="10.0667" fill="white"/>
<circle cx="306.204" cy="102.71" r="5.10401" fill="white"/>
<path d="M354.193 56.0367H362.348L362.22 52.063L354.056 51.9747L354.193 56.0367Z" fill="white"/>
<path d="M331.433 93.3631L330.457 180.612C330.457 180.612 347.915 176.197 358.971 170.705C369.448 165.508 374.424 154.068 375.616 151.834C375.742 151.594 375.848 151.345 375.934 151.088L381.992 133.082C382.16 132.588 382.286 132.08 382.367 131.564L385.131 113.797L386.455 105.664C386.535 105.161 386.535 104.648 386.455 104.145L384.994 94.4713C384.959 94.251 384.819 94.0615 384.619 93.9635L376.433 89.9457L362.666 65.5736L362.326 56.0455H354.171L353.911 65.5736L339.424 89.5042L331.433 93.3631Z" fill="#FFF4F4"/>
<rect x="352.387" y="100.092" width="5.35126" height="6.65817" fill="white"/>
<rect x="359.637" y="100.207" width="5.70889" height="6.53896" fill="white"/>
<rect x="352.268" y="107.995" width="5.35126" height="6.65817" fill="white"/>
<rect x="359.518" y="108.114" width="5.70889" height="6.53896" fill="white"/>
<rect x="352.502" y="123.855" width="5.35126" height="6.65817" fill="white"/>
<rect x="339.893" y="123.819" width="5.35126" height="6.65817" fill="white"/>
<rect x="371.541" y="124.115" width="5.35126" height="6.65817" fill="white"/>
<path d="M373.263 156.47L371.656 158.784L371.859 152.947L375.108 152.814L373.263 156.47Z" fill="white"/>
<rect x="339.954" y="153.635" width="5.35126" height="6.65817" fill="white"/>
<rect x="359.752" y="123.974" width="5.70889" height="6.53896" fill="white"/>
<rect x="352.383" y="131.762" width="5.35126" height="6.65817" fill="white"/>
<rect x="359.633" y="131.882" width="5.70889" height="6.53896" fill="white"/>
<rect x="352.405" y="152.713" width="5.35126" height="6.65817" fill="white"/>
<rect x="359.655" y="152.832" width="5.70889" height="6.53896" fill="white"/>
<rect x="352.286" y="160.62" width="5.35126" height="6.65817" fill="white"/>
<path d="M364.794 166.815L364.189 167.278H359.536V160.74H365.245V166.382L364.794 166.815Z" fill="white"/>
<circle cx="342.864" cy="107.487" r="3.7397" fill="white"/>
<circle cx="373.192" cy="108.322" r="3.7397" fill="white"/>
<path d="M331.428 93.3632H339.583L339.46 89.385L331.296 89.3011L331.428 93.3632Z" fill="white"/>
<circle cx="358.569" cy="85.0094" r="6.42858" fill="white"/>
<path d="M86.1636 240H83.8346L79.1426 234.339V240H77.1876V228.1H79.1426V233.438L83.6646 228.1H85.9936L81.1826 233.897L86.1636 240ZM93.2634 231.5H95.0994V240H93.2634V238.776C92.5721 239.739 91.5804 240.221 90.2884 240.221C89.1211 240.221 88.1238 239.79 87.2964 238.929C86.4691 238.056 86.0554 236.997 86.0554 235.75C86.0554 234.492 86.4691 233.432 87.2964 232.571C88.1238 231.71 89.1211 231.279 90.2884 231.279C91.5804 231.279 92.5721 231.755 93.2634 232.707V231.5ZM88.6564 237.705C89.1664 238.215 89.8068 238.47 90.5774 238.47C91.3481 238.47 91.9884 238.215 92.4984 237.705C93.0084 237.184 93.2634 236.532 93.2634 235.75C93.2634 234.968 93.0084 234.322 92.4984 233.812C91.9884 233.291 91.3481 233.03 90.5774 233.03C89.8068 233.03 89.1664 233.291 88.6564 233.812C88.1464 234.322 87.8914 234.968 87.8914 235.75C87.8914 236.532 88.1464 237.184 88.6564 237.705ZM104.753 240H102.56L99.0755 236.073V240H97.2395V231.5H99.0755V235.257L102.373 231.5H104.617L100.877 235.665L104.753 240ZM116.12 235.631C116.959 236.016 117.378 236.668 117.378 237.586C117.378 238.3 117.135 238.884 116.647 239.337C116.171 239.779 115.486 240 114.59 240H110.238V231.5H114.25C115.123 231.5 115.797 231.721 116.273 232.163C116.761 232.594 117.004 233.155 117.004 233.846C117.004 234.651 116.71 235.246 116.12 235.631ZM114.114 233.064H111.989V234.951H114.114C114.862 234.951 115.236 234.634 115.236 233.999C115.236 233.376 114.862 233.064 114.114 233.064ZM114.42 238.402C115.191 238.402 115.576 238.068 115.576 237.399C115.576 237.104 115.474 236.878 115.27 236.719C115.066 236.549 114.783 236.464 114.42 236.464H111.989V238.402H114.42ZM122.577 234.39C123.484 234.39 124.226 234.651 124.804 235.172C125.382 235.682 125.671 236.356 125.671 237.195C125.671 238.022 125.382 238.697 124.804 239.218C124.226 239.739 123.484 240 122.577 240H118.871V231.5H120.707V234.39H122.577ZM126.691 231.5H128.527V240H126.691V231.5ZM122.594 238.351C122.957 238.351 123.257 238.243 123.495 238.028C123.745 237.813 123.869 237.535 123.869 237.195C123.869 236.844 123.745 236.566 123.495 236.362C123.257 236.147 122.957 236.039 122.594 236.039H120.707V238.351H122.594ZM142.507 240H140.382L138.274 237.093L136.149 240H134.007L137.203 235.631L134.177 231.5H136.302L138.257 234.186L140.212 231.5H142.354L139.328 235.648L142.507 240ZM147.138 240.221C145.892 240.221 144.832 239.79 143.959 238.929C143.087 238.068 142.65 237.008 142.65 235.75C142.65 234.492 143.087 233.432 143.959 232.571C144.832 231.71 145.892 231.279 147.138 231.279C148.396 231.279 149.456 231.71 150.317 232.571C151.19 233.432 151.626 234.492 151.626 235.75C151.626 237.008 151.19 238.068 150.317 238.929C149.456 239.79 148.396 240.221 147.138 240.221ZM145.251 237.671C145.761 238.181 146.39 238.436 147.138 238.436C147.886 238.436 148.515 238.181 149.025 237.671C149.535 237.161 149.79 236.521 149.79 235.75C149.79 234.979 149.535 234.339 149.025 233.829C148.515 233.319 147.886 233.064 147.138 233.064C146.39 233.064 145.761 233.319 145.251 233.829C144.741 234.339 144.486 234.979 144.486 235.75C144.486 236.521 144.741 237.161 145.251 237.671ZM159.448 231.5V233.268H156.677V240H154.841V233.268H152.053V231.5H159.448ZM166.845 231.5H168.256V240H166.454V234.594L162.102 240H160.691V231.5H162.493V236.889L166.845 231.5ZM176.88 231.5V233.268H174.109V240H172.273V233.268H169.485V231.5H176.88ZM179.235 236.532C179.371 237.178 179.683 237.677 180.17 238.028C180.658 238.368 181.253 238.538 181.955 238.538C182.93 238.538 183.661 238.187 184.148 237.484L185.661 238.368C184.823 239.603 183.582 240.221 181.938 240.221C180.556 240.221 179.439 239.802 178.589 238.963C177.739 238.113 177.314 237.042 177.314 235.75C177.314 234.481 177.734 233.421 178.572 232.571C179.411 231.71 180.488 231.279 181.802 231.279C183.049 231.279 184.069 231.715 184.862 232.588C185.667 233.461 186.069 234.52 186.069 235.767C186.069 235.96 186.047 236.215 186.001 236.532H179.235ZM179.218 235.036H184.216C184.092 234.345 183.803 233.823 183.349 233.472C182.907 233.121 182.386 232.945 181.785 232.945C181.105 232.945 180.539 233.132 180.085 233.506C179.632 233.88 179.343 234.39 179.218 235.036ZM198.089 231.5H199.5V240H197.698V234.594L193.346 240H191.935V231.5H193.737V236.889L198.089 231.5ZM205.642 240.221C204.361 240.221 203.29 239.79 202.429 238.929C201.579 238.068 201.154 237.008 201.154 235.75C201.154 234.481 201.579 233.421 202.429 232.571C203.29 231.71 204.361 231.279 205.642 231.279C206.469 231.279 207.223 231.477 207.903 231.874C208.583 232.271 209.093 232.803 209.433 233.472L207.852 234.39C207.659 233.982 207.365 233.665 206.968 233.438C206.583 233.2 206.135 233.081 205.625 233.081C204.877 233.081 204.248 233.336 203.738 233.846C203.239 234.356 202.99 234.991 202.99 235.75C202.99 236.509 203.239 237.144 203.738 237.654C204.248 238.164 204.877 238.419 205.625 238.419C206.124 238.419 206.571 238.3 206.968 238.062C207.376 237.824 207.682 237.507 207.886 237.11L209.467 238.011C209.104 238.691 208.583 239.229 207.903 239.626C207.223 240.023 206.469 240.221 205.642 240.221ZM218.409 231.5V240H216.573V233.234H212.68V240H210.844V231.5H218.409ZM224.551 240.221C223.305 240.221 222.245 239.79 221.372 238.929C220.5 238.068 220.063 237.008 220.063 235.75C220.063 234.492 220.5 233.432 221.372 232.571C222.245 231.71 223.305 231.279 224.551 231.279C225.809 231.279 226.869 231.71 227.73 232.571C228.603 233.432 229.039 234.492 229.039 235.75C229.039 237.008 228.603 238.068 227.73 238.929C226.869 239.79 225.809 240.221 224.551 240.221ZM222.664 237.671C223.174 238.181 223.803 238.436 224.551 238.436C225.299 238.436 225.928 238.181 226.438 237.671C226.948 237.161 227.203 236.521 227.203 235.75C227.203 234.979 226.948 234.339 226.438 233.829C225.928 233.319 225.299 233.064 224.551 233.064C223.803 233.064 223.174 233.319 222.664 233.829C222.154 234.339 221.899 234.979 221.899 235.75C221.899 236.521 222.154 237.161 222.664 237.671ZM237.624 231.5V240H235.788V233.268H232.949V236.43C232.949 237.779 232.655 238.736 232.065 239.303C231.476 239.87 230.637 240.102 229.549 240V238.283C230.071 238.374 230.462 238.266 230.722 237.96C230.983 237.654 231.113 237.116 231.113 236.345V231.5H237.624ZM243.47 234.39C244.377 234.39 245.119 234.651 245.697 235.172C246.275 235.682 246.564 236.356 246.564 237.195C246.564 238.022 246.275 238.697 245.697 239.218C245.119 239.739 244.377 240 243.47 240H239.764V231.5H241.6V234.39H243.47ZM243.487 238.351C243.85 238.351 244.15 238.243 244.388 238.028C244.637 237.813 244.762 237.535 244.762 237.195C244.762 236.844 244.637 236.566 244.388 236.362C244.15 236.147 243.85 236.039 243.487 236.039H241.6V238.351H243.487ZM252.676 235.648C253.582 236.056 254.036 236.73 254.036 237.671C254.036 238.396 253.741 239.003 253.152 239.49C252.562 239.977 251.741 240.221 250.687 240.221C248.975 240.221 247.819 239.541 247.219 238.181L248.715 237.297C249.021 238.147 249.684 238.572 250.704 238.572C251.18 238.572 251.554 238.476 251.826 238.283C252.098 238.079 252.234 237.813 252.234 237.484C252.234 237.189 252.126 236.957 251.911 236.787C251.695 236.606 251.395 236.515 251.01 236.515H249.803V234.9H250.704C251.078 234.9 251.367 234.815 251.571 234.645C251.786 234.464 251.894 234.22 251.894 233.914C251.894 233.619 251.775 233.381 251.537 233.2C251.299 233.007 250.981 232.911 250.585 232.911C249.735 232.911 249.145 233.285 248.817 234.033L247.321 233.183C247.955 231.914 249.032 231.279 250.551 231.279C251.503 231.279 252.256 231.523 252.812 232.01C253.378 232.486 253.662 233.07 253.662 233.761C253.662 234.611 253.333 235.24 252.676 235.648ZM259.547 240.221C258.301 240.221 257.241 239.79 256.368 238.929C255.496 238.068 255.059 237.008 255.059 235.75C255.059 234.492 255.496 233.432 256.368 232.571C257.241 231.71 258.301 231.279 259.547 231.279C260.805 231.279 261.865 231.71 262.726 232.571C263.599 233.432 264.035 234.492 264.035 235.75C264.035 237.008 263.599 238.068 262.726 238.929C261.865 239.79 260.805 240.221 259.547 240.221ZM257.66 237.671C258.17 238.181 258.799 238.436 259.547 238.436C260.295 238.436 260.924 238.181 261.434 237.671C261.944 237.161 262.199 236.521 262.199 235.75C262.199 234.979 261.944 234.339 261.434 233.829C260.924 233.319 260.295 233.064 259.547 233.064C258.799 233.064 258.17 233.319 257.66 233.829C257.15 234.339 256.895 234.979 256.895 235.75C256.895 236.521 257.15 237.161 257.66 237.671ZM271.578 235.631C272.416 236.016 272.836 236.668 272.836 237.586C272.836 238.3 272.592 238.884 272.105 239.337C271.629 239.779 270.943 240 270.048 240H265.696V231.5H269.708C270.58 231.5 271.255 231.721 271.731 232.163C272.218 232.594 272.462 233.155 272.462 233.846C272.462 234.651 272.167 235.246 271.578 235.631ZM269.572 233.064H267.447V234.951H269.572C270.32 234.951 270.694 234.634 270.694 233.999C270.694 233.376 270.32 233.064 269.572 233.064ZM269.878 238.402C270.648 238.402 271.034 238.068 271.034 237.399C271.034 237.104 270.932 236.878 270.728 236.719C270.524 236.549 270.24 236.464 269.878 236.464H267.447V238.402H269.878ZM281.06 231.5H282.896V240H281.06V238.776C280.369 239.739 279.377 240.221 278.085 240.221C276.918 240.221 275.921 239.79 275.093 238.929C274.266 238.056 273.852 236.997 273.852 235.75C273.852 234.492 274.266 233.432 275.093 232.571C275.921 231.71 276.918 231.279 278.085 231.279C279.377 231.279 280.369 231.755 281.06 232.707V231.5ZM276.453 237.705C276.963 238.215 277.604 238.47 278.374 238.47C279.145 238.47 279.785 238.215 280.295 237.705C280.805 237.184 281.06 236.532 281.06 235.75C281.06 234.968 280.805 234.322 280.295 233.812C279.785 233.291 279.145 233.03 278.374 233.03C277.604 233.03 276.963 233.291 276.453 233.812C275.943 234.322 275.688 234.968 275.688 235.75C275.688 236.532 275.943 237.184 276.453 237.705ZM291.53 231.5V233.268H288.759V240H286.923V233.268H284.135V231.5H291.53ZM296.479 234.39C297.385 234.39 298.128 234.651 298.706 235.172C299.284 235.682 299.573 236.356 299.573 237.195C299.573 238.022 299.284 238.697 298.706 239.218C298.128 239.739 297.385 240 296.479 240H292.773V231.5H294.609V234.39H296.479ZM296.496 238.351C296.858 238.351 297.159 238.243 297.397 238.028C297.646 237.813 297.771 237.535 297.771 237.195C297.771 236.844 297.646 236.566 297.397 236.362C297.159 236.147 296.858 236.039 296.496 236.039H294.609V238.351H296.496ZM142.673 256.5V265H140.837V258.234H136.944V265H135.108V256.5H142.673ZM149.614 256.279C150.781 256.279 151.779 256.715 152.606 257.588C153.433 258.449 153.847 259.503 153.847 260.75C153.847 262.008 153.433 263.068 152.606 263.929C151.779 264.79 150.781 265.221 149.614 265.221C148.322 265.221 147.33 264.745 146.639 263.793V268.4H144.803V256.5H146.639V257.724C147.33 256.761 148.322 256.279 149.614 256.279ZM147.404 262.705C147.914 263.215 148.554 263.47 149.325 263.47C150.096 263.47 150.736 263.215 151.246 262.705C151.756 262.184 152.011 261.532 152.011 260.75C152.011 259.968 151.756 259.322 151.246 258.812C150.736 258.291 150.096 258.03 149.325 258.03C148.554 258.03 147.914 258.291 147.404 258.812C146.894 259.322 146.639 259.968 146.639 260.75C146.639 261.532 146.894 262.184 147.404 262.705ZM161.665 256.5H163.076V265H161.274V259.594L156.922 265H155.511V256.5H157.313V261.889L161.665 256.5ZM172.38 256.5V265H170.544V258.268H167.705V261.43C167.705 262.779 167.411 263.736 166.821 264.303C166.232 264.87 165.393 265.102 164.305 265V263.283C164.827 263.374 165.218 263.266 165.478 262.96C165.739 262.654 165.869 262.116 165.869 261.345V256.5H172.38ZM178.532 265.221C177.285 265.221 176.225 264.79 175.353 263.929C174.48 263.068 174.044 262.008 174.044 260.75C174.044 259.492 174.48 258.432 175.353 257.571C176.225 256.71 177.285 256.279 178.532 256.279C179.79 256.279 180.849 256.71 181.711 257.571C182.583 258.432 183.02 259.492 183.02 260.75C183.02 262.008 182.583 263.068 181.711 263.929C180.849 264.79 179.79 265.221 178.532 265.221ZM176.645 262.671C177.155 263.181 177.784 263.436 178.532 263.436C179.28 263.436 179.909 263.181 180.419 262.671C180.929 262.161 181.184 261.521 181.184 260.75C181.184 259.979 180.929 259.339 180.419 258.829C179.909 258.319 179.28 258.064 178.532 258.064C177.784 258.064 177.155 258.319 176.645 258.829C176.135 259.339 175.88 259.979 175.88 260.75C175.88 261.521 176.135 262.161 176.645 262.671ZM194.947 265H192.856L189.966 261.073V265H188.164V261.107L185.274 265H183.183L186.498 260.665L183.353 256.5H185.444L188.164 260.223V256.5H189.966V260.24L192.686 256.5H194.777L191.632 260.665L194.947 265ZM197.032 261.532C197.168 262.178 197.48 262.677 197.967 263.028C198.454 263.368 199.049 263.538 199.752 263.538C200.727 263.538 201.458 263.187 201.945 262.484L203.458 263.368C202.619 264.603 201.378 265.221 199.735 265.221C198.352 265.221 197.236 264.802 196.386 263.963C195.536 263.113 195.111 262.042 195.111 260.75C195.111 259.481 195.53 258.421 196.369 257.571C197.208 256.71 198.284 256.279 199.599 256.279C200.846 256.279 201.866 256.715 202.659 257.588C203.464 258.461 203.866 259.52 203.866 260.767C203.866 260.96 203.843 261.215 203.798 261.532H197.032ZM197.015 260.036H202.013C201.888 259.345 201.599 258.823 201.146 258.472C200.704 258.121 200.183 257.945 199.582 257.945C198.902 257.945 198.335 258.132 197.882 258.506C197.429 258.88 197.14 259.39 197.015 260.036ZM211.211 256.5H213.047V265H211.211V261.617H207.318V265H205.482V256.5H207.318V259.883H211.211V256.5ZM221.331 256.5H222.742V265H220.94V259.594L216.588 265H215.177V256.5H216.979V261.889L221.331 256.5ZM226.317 261.532C226.453 262.178 226.765 262.677 227.252 263.028C227.74 263.368 228.335 263.538 229.037 263.538C230.012 263.538 230.743 263.187 231.23 262.484L232.743 263.368C231.905 264.603 230.664 265.221 229.02 265.221C227.638 265.221 226.521 264.802 225.671 263.963C224.821 263.113 224.396 262.042 224.396 260.75C224.396 259.481 224.816 258.421 225.654 257.571C226.493 256.71 227.57 256.279 228.884 256.279C230.131 256.279 231.151 256.715 231.944 257.588C232.749 258.461 233.151 259.52 233.151 260.767C233.151 260.96 233.129 261.215 233.083 261.532H226.317ZM226.3 260.036H231.298C231.174 259.345 230.885 258.823 230.431 258.472C229.989 258.121 229.468 257.945 228.867 257.945C228.187 257.945 227.621 258.132 227.167 258.506C226.714 258.88 226.425 259.39 226.3 260.036ZM236.083 261.26C236.083 260.795 236.185 260.365 236.389 259.968C236.593 259.571 236.842 259.231 237.137 258.948C237.432 258.653 237.726 258.376 238.021 258.115C238.316 257.843 238.565 257.554 238.769 257.248C238.973 256.931 239.075 256.602 239.075 256.262C239.075 255.786 238.911 255.423 238.582 255.174C238.253 254.913 237.811 254.783 237.256 254.783C236.723 254.783 236.264 254.919 235.879 255.191C235.494 255.463 235.216 255.848 235.046 256.347L233.363 255.395C233.68 254.59 234.19 253.973 234.893 253.542C235.607 253.1 236.412 252.879 237.307 252.879C238.316 252.879 239.188 253.168 239.925 253.746C240.662 254.324 241.03 255.123 241.03 256.143C241.03 256.619 240.928 257.067 240.724 257.486C240.52 257.894 240.271 258.245 239.976 258.54C239.681 258.835 239.387 259.124 239.092 259.407C238.797 259.679 238.548 259.974 238.344 260.291C238.14 260.608 238.038 260.931 238.038 261.26H236.083ZM237.97 264.83C237.721 265.079 237.42 265.204 237.069 265.204C236.718 265.204 236.417 265.079 236.168 264.83C235.919 264.581 235.794 264.28 235.794 263.929C235.794 263.578 235.913 263.277 236.151 263.028C236.4 262.779 236.706 262.654 237.069 262.654C237.42 262.654 237.721 262.779 237.97 263.028C238.219 263.277 238.344 263.578 238.344 263.929C238.344 264.28 238.219 264.581 237.97 264.83Z" fill="#314E78"/>
</g>
<defs>
<linearGradient id="paint0_linear" x1="-106.191" y1="-216.993" x2="252.587" y2="344.973" gradientUnits="userSpaceOnUse">
<stop stop-color="#FFD177"/>
<stop offset="1" stop-color="#FF6392"/>
</linearGradient>
<linearGradient id="paint1_linear" x1="-30.3739" y1="47.4391" x2="54.9333" y2="105.191" gradientUnits="userSpaceOnUse">
<stop stop-color="#FFD177"/>
<stop offset="1" stop-color="#FF6392"/>
</linearGradient>
<linearGradient id="paint2_linear" x1="9.91085" y1="67.6589" x2="26.0034" y2="114.255" gradientUnits="userSpaceOnUse">
<stop stop-color="#FFD177"/>
<stop offset="1" stop-color="#FF6392"/>
</linearGradient>
<linearGradient id="paint3_linear" x1="22.8082" y1="98.0668" x2="35.8989" y2="111.406" gradientUnits="userSpaceOnUse">
<stop stop-color="#FFD177"/>
<stop offset="1" stop-color="#FF6392"/>
</linearGradient>
<linearGradient id="paint4_linear" x1="39.5771" y1="97.9256" x2="52.6678" y2="111.265" gradientUnits="userSpaceOnUse">
<stop stop-color="#FFD177"/>
<stop offset="1" stop-color="#FF6392"/>
</linearGradient>
<linearGradient id="paint5_linear" x1="56.2712" y1="117.008" x2="69.3619" y2="130.348" gradientUnits="userSpaceOnUse">
<stop stop-color="#FFD177"/>
<stop offset="1" stop-color="#FF6392"/>
</linearGradient>
<linearGradient id="paint6_linear" x1="56.4035" y1="139.045" x2="69.4942" y2="152.384" gradientUnits="userSpaceOnUse">
<stop stop-color="#FFD177"/>
<stop offset="1" stop-color="#FF6392"/>
</linearGradient>
<linearGradient id="paint7_linear" x1="39.2152" y1="116.721" x2="52.3059" y2="130.061" gradientUnits="userSpaceOnUse">
<stop stop-color="#FFD177"/>
<stop offset="1" stop-color="#FF6392"/>
</linearGradient>
<linearGradient id="paint8_linear" x1="22.8789" y1="117.154" x2="35.9696" y2="130.493" gradientUnits="userSpaceOnUse">
<stop stop-color="#FFD177"/>
<stop offset="1" stop-color="#FF6392"/>
</linearGradient>
<linearGradient id="paint9_linear" x1="23.0567" y1="138.965" x2="30.125" y2="150.528" gradientUnits="userSpaceOnUse">
<stop stop-color="#FFD177"/>
<stop offset="1" stop-color="#FF6392"/>
</linearGradient>
<linearGradient id="paint10_linear" x1="39.6062" y1="138.606" x2="52.6067" y2="151.737" gradientUnits="userSpaceOnUse">
<stop stop-color="#FFD177"/>
<stop offset="1" stop-color="#FF6392"/>
</linearGradient>
<linearGradient id="paint11_linear" x1="62.1122" y1="64.9827" x2="172.122" y2="134.444" gradientUnits="userSpaceOnUse">
<stop stop-color="#FFD177"/>
<stop offset="1" stop-color="#FF6392"/>
</linearGradient>
<linearGradient id="paint12_linear" x1="145.529" y1="69.7822" x2="149.445" y2="78.6121" gradientUnits="userSpaceOnUse">
<stop stop-color="#FFD177"/>
<stop offset="1" stop-color="#FF6392"/>
</linearGradient>
<linearGradient id="paint13_linear" x1="144.352" y1="116.998" x2="152.951" y2="124.637" gradientUnits="userSpaceOnUse">
<stop stop-color="#FFD177"/>
<stop offset="1" stop-color="#FF6392"/>
</linearGradient>
<linearGradient id="paint14_linear" x1="151.546" y1="117.158" x2="160.045" y2="125.36" gradientUnits="userSpaceOnUse">
<stop stop-color="#FFD177"/>
<stop offset="1" stop-color="#FF6392"/>
</linearGradient>
<linearGradient id="paint15_linear" x1="144.233" y1="124.901" x2="152.832" y2="132.54" gradientUnits="userSpaceOnUse">
<stop stop-color="#FFD177"/>
<stop offset="1" stop-color="#FF6392"/>
</linearGradient>
<linearGradient id="paint16_linear" x1="151.427" y1="125.062" x2="159.926" y2="133.263" gradientUnits="userSpaceOnUse">
<stop stop-color="#FFD177"/>
<stop offset="1" stop-color="#FF6392"/>
</linearGradient>
<linearGradient id="paint17_linear" x1="144.467" y1="140.765" x2="153.066" y2="148.404" gradientUnits="userSpaceOnUse">
<stop stop-color="#FFD177"/>
<stop offset="1" stop-color="#FF6392"/>
</linearGradient>
<linearGradient id="paint18_linear" x1="131.857" y1="140.726" x2="140.456" y2="148.365" gradientUnits="userSpaceOnUse">
<stop stop-color="#FFD177"/>
<stop offset="1" stop-color="#FF6392"/>
</linearGradient>
<linearGradient id="paint19_linear" x1="163.505" y1="141.021" x2="172.105" y2="148.66" gradientUnits="userSpaceOnUse">
<stop stop-color="#FFD177"/>
<stop offset="1" stop-color="#FF6392"/>
</linearGradient>
<linearGradient id="paint20_linear" x1="163.66" y1="170.352" x2="172.259" y2="177.991" gradientUnits="userSpaceOnUse">
<stop stop-color="#FFD177"/>
<stop offset="1" stop-color="#FF6392"/>
</linearGradient>
<linearGradient id="paint21_linear" x1="131.919" y1="170.542" x2="140.518" y2="178.181" gradientUnits="userSpaceOnUse">
<stop stop-color="#FFD177"/>
<stop offset="1" stop-color="#FF6392"/>
</linearGradient>
<linearGradient id="paint22_linear" x1="151.661" y1="140.921" x2="160.16" y2="149.123" gradientUnits="userSpaceOnUse">
<stop stop-color="#FFD177"/>
<stop offset="1" stop-color="#FF6392"/>
</linearGradient>
<linearGradient id="paint23_linear" x1="144.348" y1="148.669" x2="152.947" y2="156.308" gradientUnits="userSpaceOnUse">
<stop stop-color="#FFD177"/>
<stop offset="1" stop-color="#FF6392"/>
</linearGradient>
<linearGradient id="paint24_linear" x1="151.541" y1="148.829" x2="160.041" y2="157.031" gradientUnits="userSpaceOnUse">
<stop stop-color="#FFD177"/>
<stop offset="1" stop-color="#FF6392"/>
</linearGradient>
<linearGradient id="paint25_linear" x1="144.37" y1="169.619" x2="152.969" y2="177.258" gradientUnits="userSpaceOnUse">
<stop stop-color="#FFD177"/>
<stop offset="1" stop-color="#FF6392"/>
</linearGradient>
<linearGradient id="paint26_linear" x1="151.564" y1="169.779" x2="160.063" y2="177.981" gradientUnits="userSpaceOnUse">
<stop stop-color="#FFD177"/>
<stop offset="1" stop-color="#FF6392"/>
</linearGradient>
<linearGradient id="paint27_linear" x1="144.25" y1="177.526" x2="152.85" y2="185.166" gradientUnits="userSpaceOnUse">
<stop stop-color="#FFD177"/>
<stop offset="1" stop-color="#FF6392"/>
</linearGradient>
<linearGradient id="paint28_linear" x1="151.444" y1="177.687" x2="159.944" y2="185.889" gradientUnits="userSpaceOnUse">
<stop stop-color="#FFD177"/>
<stop offset="1" stop-color="#FF6392"/>
</linearGradient>
<linearGradient id="paint29_linear" x1="130.729" y1="120.375" x2="140.409" y2="131.073" gradientUnits="userSpaceOnUse">
<stop stop-color="#FFD177"/>
<stop offset="1" stop-color="#FF6392"/>
</linearGradient>
<linearGradient id="paint30_linear" x1="161.057" y1="121.205" x2="170.737" y2="131.903" gradientUnits="userSpaceOnUse">
<stop stop-color="#FFD177"/>
<stop offset="1" stop-color="#FF6392"/>
</linearGradient>
<linearGradient id="paint31_linear" x1="122.764" y1="107.104" x2="126.678" y2="115.936" gradientUnits="userSpaceOnUse">
<stop stop-color="#FFD177"/>
<stop offset="1" stop-color="#FF6392"/>
</linearGradient>
<linearGradient id="paint32_linear" x1="168.127" y1="107.85" x2="172.042" y2="116.68" gradientUnits="userSpaceOnUse">
<stop stop-color="#FFD177"/>
<stop offset="1" stop-color="#FF6392"/>
</linearGradient>
<linearGradient id="paint33_linear" x1="142.841" y1="93.3455" x2="159.48" y2="111.736" gradientUnits="userSpaceOnUse">
<stop stop-color="#FFD177"/>
<stop offset="1" stop-color="#FF6392"/>
</linearGradient>
<linearGradient id="paint34_linear" x1="165.202" y1="48.0493" x2="280.884" y2="117.474" gradientUnits="userSpaceOnUse">
<stop stop-color="#FFD177"/>
<stop offset="1" stop-color="#FF6392"/>
</linearGradient>
<linearGradient id="paint35_linear" x1="270.732" y1="89.2002" x2="358.131" y2="163.098" gradientUnits="userSpaceOnUse">
<stop stop-color="#FFD177"/>
<stop offset="1" stop-color="#FF6392"/>
</linearGradient>
<linearGradient id="paint36_linear" x1="270.245" y1="86.1103" x2="286.337" y2="132.707" gradientUnits="userSpaceOnUse">
<stop stop-color="#FFD177"/>
<stop offset="1" stop-color="#FF6392"/>
</linearGradient>
<clipPath id="clip0">
<rect width="375" height="812" fill="white"/>
</clipPath>
</defs>
</svg>
