<svg width="375" height="812" viewBox="0 0 375 812" fill="none" xmlns="http://www.w3.org/2000/svg">
<g clip-path="url(#clip0)">
<rect width="375" height="812" fill="#FFFBF7"/>
<path opacity="0.2" d="M34.1561 325.384C-44.6535 298.669 -0.873203 98.844 -0.874231 0H375.712L381.22 442.981C382.611 460.515 381.717 475.56 381.717 483L381.22 442.981C379.514 421.481 374.374 396.236 359.939 376.676C310.656 309.889 106.041 349.751 34.1561 325.384Z" fill="url(#paint0_linear)"/>
<rect y="730" width="375" height="82" fill="#FFFBF7"/>
<circle opacity="0.3" cx="188" cy="169" r="85" fill="url(#paint1_linear)"/>
<path opacity="0.7" d="M166.943 139.575C164.47 144.027 158.113 142.105 154.577 143.116C153.587 143.399 150.764 144.128 147.878 148.175C144.272 153.234 152.516 159.304 151.485 166.892C150.455 174.48 143.241 177.515 139.634 180.045C136.027 182.574 128.298 186.115 126.753 205.338C125.207 224.561 149.424 243.784 152.516 245.808C155.607 247.831 172.611 254.913 187.554 253.902C202.496 252.89 217.439 248.337 219.5 247.831C221.561 247.325 258.145 234.173 255.054 211.914C251.962 189.656 239.596 184.598 234.958 181.562C230.321 178.527 225.168 172.963 226.199 156.775C227.229 140.587 226.643 139.575 219.5 129.458C212.8 119.968 200.951 115.293 192.706 115.293C184.462 115.293 179.825 118.835 176.218 122.376C172.611 125.917 170.035 134.011 166.943 139.575Z" fill="url(#paint2_linear)"/>
<path d="M177.749 170.967C165.925 164.266 174.053 132.045 187.848 126.625C186.37 136.972 207.605 151.85 208.788 154.215C210.266 157.171 210.759 162.591 205.832 169.488C200.905 176.386 201.398 173.43 200.412 183.284C199.427 193.137 217.656 191.659 221.598 214.322C224.751 232.453 193.925 238.3 182.429 238.956C182.921 219.085 189.573 177.667 177.749 170.967Z" fill="url(#paint3_linear)"/>
<path d="M184.445 168.996C164.344 157.171 177.666 135.329 187.848 126.625C188.341 131.388 191.934 143.475 194.299 147.811C197.255 153.23 205.138 153.723 205.63 155.693C206.123 157.664 205.138 163.084 202.674 165.547C200.211 168.01 197.255 170.474 194.299 177.371C191.934 182.889 193.313 186.897 194.299 188.21L171.635 238.464C166.709 227.953 157.052 203.582 157.84 190.181C158.629 176.78 175.905 173.43 184.445 173.43C186.81 170.671 185.431 169.324 184.445 168.996Z" fill="#FFDFD2"/>
<path d="M194.745 148.796C193.103 145.183 191.888 136.971 200.165 133.03C199.836 136.807 198.293 145.249 194.745 148.796Z" fill="#FFAF6D"/>
<path d="M200.165 133.03C200.657 133.03 206.077 142.391 194.745 148.796C196.059 145.019 199.376 136.577 200.165 133.03Z" fill="#FF6949"/>
<path d="M194.168 149.687C195.285 145.878 199.728 138.867 208.57 141.288C205.854 143.934 199.172 149.317 194.168 149.687Z" fill="#FFAF6D"/>
<path d="M208.57 141.288C208.944 141.61 206.933 152.238 194.169 149.686C197.631 147.684 205.657 143.46 208.57 141.288Z" fill="#FF6949"/>
<path d="M194.252 188.399C188.833 182.791 146.955 196.093 180.673 173.619C166.878 172.141 158.995 179.531 153.083 188.399C147.171 197.268 150.62 213.033 154.561 223.38C157.714 231.657 161.781 243.851 161.781 249.771L167.278 251.463L173.199 252.731L179.119 253.577L185.039 254C184.547 246.61 199.741 194.079 194.252 188.399Z" fill="white"/>
<path d="M91.3503 291.36H93.1503V297.216H90.3903V294H80.1903V297.216H77.4303V291.36H78.9903C79.9663 290.08 80.4543 288.152 80.4543 285.576V277.2H91.3503V291.36ZM82.0143 291.36H88.5903V279.792H83.2143V285.624C83.2143 288.12 82.8143 290.032 82.0143 291.36ZM100.582 294.312C98.8223 294.312 97.3263 293.704 96.0943 292.488C94.8623 291.272 94.2463 289.776 94.2463 288C94.2463 286.224 94.8623 284.728 96.0943 283.512C97.3263 282.296 98.8223 281.688 100.582 281.688C102.358 281.688 103.854 282.296 105.07 283.512C106.302 284.728 106.918 286.224 106.918 288C106.918 289.776 106.302 291.272 105.07 292.488C103.854 293.704 102.358 294.312 100.582 294.312ZM97.9183 290.712C98.6383 291.432 99.5263 291.792 100.582 291.792C101.638 291.792 102.526 291.432 103.246 290.712C103.966 289.992 104.326 289.088 104.326 288C104.326 286.912 103.966 286.008 103.246 285.288C102.526 284.568 101.638 284.208 100.582 284.208C99.5263 284.208 98.6383 284.568 97.9183 285.288C97.1983 286.008 96.8383 286.912 96.8383 288C96.8383 289.088 97.1983 289.992 97.9183 290.712ZM114.83 294.312C112.99 294.312 111.486 293.72 110.318 292.536C109.166 291.336 108.59 289.808 108.59 287.952C108.59 285.92 108.894 284.352 109.502 283.248C110.11 282.128 111.342 281.112 113.198 280.2C113.502 280.056 113.95 279.848 114.542 279.576C115.15 279.304 115.566 279.112 115.79 279C116.014 278.872 116.294 278.696 116.63 278.472C116.966 278.232 117.214 277.984 117.374 277.728C117.534 277.456 117.662 277.136 117.758 276.768L119.87 277.992C119.806 278.344 119.702 278.672 119.558 278.976C119.414 279.264 119.206 279.536 118.934 279.792C118.662 280.048 118.422 280.256 118.214 280.416C118.022 280.576 117.694 280.768 117.23 280.992C116.766 281.216 116.422 281.376 116.198 281.472C115.99 281.568 115.59 281.736 114.998 281.976C113.942 282.392 113.166 282.824 112.67 283.272C112.19 283.704 111.854 284.248 111.662 284.904C112.622 283.816 113.926 283.272 115.574 283.272C116.982 283.272 118.206 283.776 119.246 284.784C120.302 285.792 120.83 287.096 120.83 288.696C120.83 290.328 120.27 291.672 119.15 292.728C118.046 293.784 116.606 294.312 114.83 294.312ZM114.806 291.888C115.814 291.888 116.638 291.592 117.278 291C117.918 290.392 118.238 289.624 118.238 288.696C118.238 287.752 117.918 286.976 117.278 286.368C116.654 285.76 115.838 285.456 114.83 285.456C113.934 285.456 113.126 285.744 112.406 286.32C111.686 286.88 111.326 287.632 111.326 288.576C111.326 289.536 111.662 290.328 112.334 290.952C113.006 291.576 113.83 291.888 114.806 291.888ZM129.671 281.688C131.319 281.688 132.727 282.304 133.895 283.536C135.063 284.752 135.647 286.24 135.647 288C135.647 289.776 135.063 291.272 133.895 292.488C132.727 293.704 131.319 294.312 129.671 294.312C127.847 294.312 126.447 293.64 125.471 292.296V298.8H122.879V282H125.471V283.728C126.447 282.368 127.847 281.688 129.671 281.688ZM126.551 290.76C127.271 291.48 128.175 291.84 129.263 291.84C130.351 291.84 131.255 291.48 131.975 290.76C132.695 290.024 133.055 289.104 133.055 288C133.055 286.896 132.695 285.984 131.975 285.264C131.255 284.528 130.351 284.16 129.263 284.16C128.175 284.16 127.271 284.528 126.551 285.264C125.831 285.984 125.471 286.896 125.471 288C125.471 289.104 125.831 290.024 126.551 290.76ZM143.66 294.312C141.9 294.312 140.404 293.704 139.172 292.488C137.94 291.272 137.324 289.776 137.324 288C137.324 286.224 137.94 284.728 139.172 283.512C140.404 282.296 141.9 281.688 143.66 281.688C145.436 281.688 146.932 282.296 148.148 283.512C149.38 284.728 149.996 286.224 149.996 288C149.996 289.776 149.38 291.272 148.148 292.488C146.932 293.704 145.436 294.312 143.66 294.312ZM140.996 290.712C141.716 291.432 142.604 291.792 143.66 291.792C144.716 291.792 145.604 291.432 146.324 290.712C147.044 289.992 147.404 289.088 147.404 288C147.404 286.912 147.044 286.008 146.324 285.288C145.604 284.568 144.716 284.208 143.66 284.208C142.604 284.208 141.716 284.568 140.996 285.288C140.276 286.008 139.916 286.912 139.916 288C139.916 289.088 140.276 289.992 140.996 290.712ZM169.02 282V294H166.428V284.448H160.932V294H158.34V282H169.02ZM177.692 294.312C175.932 294.312 174.436 293.704 173.204 292.488C171.972 291.272 171.356 289.776 171.356 288C171.356 286.224 171.972 284.728 173.204 283.512C174.436 282.296 175.932 281.688 177.692 281.688C179.468 281.688 180.964 282.296 182.18 283.512C183.412 284.728 184.028 286.224 184.028 288C184.028 289.776 183.412 291.272 182.18 292.488C180.964 293.704 179.468 294.312 177.692 294.312ZM175.028 290.712C175.748 291.432 176.636 291.792 177.692 291.792C178.748 291.792 179.636 291.432 180.356 290.712C181.076 289.992 181.436 289.088 181.436 288C181.436 286.912 181.076 286.008 180.356 285.288C179.636 284.568 178.748 284.208 177.692 284.208C176.636 284.208 175.748 284.568 175.028 285.288C174.308 286.008 173.948 286.912 173.948 288C173.948 289.088 174.308 289.992 175.028 290.712ZM200.866 294H197.914L193.834 288.456V294H191.29V288.504L187.21 294H184.258L188.938 287.88L184.498 282H187.45L191.29 287.256V282H193.834V287.28L197.674 282H200.626L196.186 287.88L200.866 294ZM211.274 282H213.866V294H211.274V292.272C210.298 293.632 208.898 294.312 207.074 294.312C205.426 294.312 204.018 293.704 202.85 292.488C201.682 291.256 201.098 289.76 201.098 288C201.098 286.224 201.682 284.728 202.85 283.512C204.018 282.296 205.426 281.688 207.074 281.688C208.898 281.688 210.298 282.36 211.274 283.704V282ZM204.77 290.76C205.49 291.48 206.394 291.84 207.482 291.84C208.57 291.84 209.474 291.48 210.194 290.76C210.914 290.024 211.274 289.104 211.274 288C211.274 286.896 210.914 285.984 210.194 285.264C209.474 284.528 208.57 284.16 207.482 284.16C206.394 284.16 205.49 284.528 204.77 285.264C204.05 285.984 203.69 286.896 203.69 288C203.69 289.104 204.05 290.024 204.77 290.76ZM227.015 282V294H224.423V284.496H220.415V288.96C220.415 290.864 219.999 292.216 219.167 293.016C218.335 293.816 217.151 294.144 215.615 294V291.576C216.351 291.704 216.903 291.552 217.271 291.12C217.639 290.688 217.823 289.928 217.823 288.84V282H227.015ZM235.699 294.312C233.939 294.312 232.443 293.704 231.211 292.488C229.979 291.272 229.363 289.776 229.363 288C229.363 286.224 229.979 284.728 231.211 283.512C232.443 282.296 233.939 281.688 235.699 281.688C237.475 281.688 238.971 282.296 240.187 283.512C241.419 284.728 242.035 286.224 242.035 288C242.035 289.776 241.419 291.272 240.187 292.488C238.971 293.704 237.475 294.312 235.699 294.312ZM233.035 290.712C233.755 291.432 234.643 291.792 235.699 291.792C236.755 291.792 237.643 291.432 238.363 290.712C239.083 289.992 239.443 289.088 239.443 288C239.443 286.912 239.083 286.008 238.363 285.288C237.643 284.568 236.755 284.208 235.699 284.208C234.643 284.208 233.755 284.568 233.035 285.288C232.315 286.008 231.955 286.912 231.955 288C231.955 289.088 232.315 289.992 233.035 290.712ZM252.683 287.832C253.867 288.376 254.459 289.296 254.459 290.592C254.459 291.6 254.115 292.424 253.427 293.064C252.755 293.688 251.787 294 250.523 294H244.379V282H250.043C251.275 282 252.227 282.312 252.899 282.936C253.587 283.544 253.931 284.336 253.931 285.312C253.931 286.448 253.515 287.288 252.683 287.832ZM249.851 284.208H246.851V286.872H249.851C250.907 286.872 251.435 286.424 251.435 285.528C251.435 284.648 250.907 284.208 249.851 284.208ZM250.283 291.744C251.371 291.744 251.915 291.272 251.915 290.328C251.915 289.912 251.771 289.592 251.483 289.368C251.195 289.128 250.795 289.008 250.283 289.008H246.851V291.744H250.283ZM266.071 282H268.663V294H266.071V292.272C265.095 293.632 263.695 294.312 261.871 294.312C260.223 294.312 258.815 293.704 257.647 292.488C256.479 291.256 255.895 289.76 255.895 288C255.895 286.224 256.479 284.728 257.647 283.512C258.815 282.296 260.223 281.688 261.871 281.688C263.695 281.688 265.095 282.36 266.071 283.704V282ZM259.567 290.76C260.287 291.48 261.191 291.84 262.279 291.84C263.367 291.84 264.271 291.48 264.991 290.76C265.711 290.024 266.071 289.104 266.071 288C266.071 286.896 265.711 285.984 264.991 285.264C264.271 284.528 263.367 284.16 262.279 284.16C261.191 284.16 260.287 284.528 259.567 285.264C258.847 285.984 258.487 286.896 258.487 288C258.487 289.104 258.847 290.024 259.567 290.76ZM280.852 282V284.496H276.94V294H274.348V284.496H270.412V282H280.852ZM287.838 286.08C289.118 286.08 290.166 286.448 290.982 287.184C291.798 287.904 292.206 288.856 292.206 290.04C292.206 291.208 291.798 292.16 290.982 292.896C290.166 293.632 289.118 294 287.838 294H282.606V282H285.198V286.08H287.838ZM287.862 291.672C288.374 291.672 288.798 291.52 289.134 291.216C289.486 290.912 289.662 290.52 289.662 290.04C289.662 289.544 289.486 289.152 289.134 288.864C288.798 288.56 288.374 288.408 287.862 288.408H285.198V291.672H287.862ZM294.853 288.72L294.325 282V277.2H297.445V282L296.893 288.72H294.853ZM297.157 293.76C296.805 294.112 296.381 294.288 295.885 294.288C295.389 294.288 294.965 294.112 294.613 293.76C294.261 293.408 294.085 292.984 294.085 292.488C294.085 291.992 294.253 291.568 294.589 291.216C294.941 290.864 295.373 290.688 295.885 290.688C296.381 290.688 296.805 290.864 297.157 291.216C297.509 291.568 297.685 291.992 297.685 292.488C297.685 292.984 297.509 293.408 297.157 293.76Z" fill="#314E78"/>
</g>
<defs>
<linearGradient id="paint0_linear" x1="-79.7111" y1="-166.855" x2="541.439" y2="376.605" gradientUnits="userSpaceOnUse">
<stop stop-color="#FDCC6C"/>
<stop offset="1" stop-color="#FF6392"/>
</linearGradient>
<linearGradient id="paint1_linear" x1="74.2889" y1="25.2727" x2="294.366" y2="260.721" gradientUnits="userSpaceOnUse">
<stop stop-color="#FDCC6C"/>
<stop offset="1" stop-color="#FF6392"/>
</linearGradient>
<linearGradient id="paint2_linear" x1="104.97" y1="67.3767" x2="284.938" y2="245.827" gradientUnits="userSpaceOnUse">
<stop stop-color="#FDCC6C"/>
<stop offset="1" stop-color="#FF6392"/>
</linearGradient>
<linearGradient id="paint3_linear" x1="163.639" y1="87.8199" x2="276.475" y2="141.312" gradientUnits="userSpaceOnUse">
<stop stop-color="#FDCC6C"/>
<stop offset="1" stop-color="#FF6392"/>
</linearGradient>
<clipPath id="clip0">
<rect width="375" height="812" fill="white"/>
</clipPath>
</defs>
</svg>
