<svg width="375" height="812" viewBox="0 0 375 812" fill="none" xmlns="http://www.w3.org/2000/svg">
<rect width="375" height="812" fill="#FFFBF7"/>
<g opacity="0.3">
<path d="M0 0V382.053C0 382.053 29.1281 450.788 104.017 442.811C178.906 434.835 194.437 391.876 284.858 471.049C284.858 471.049 316.756 504.185 375 502.967V0H0Z" fill="url(#paint0_linear)"/>
<path d="M359.186 503C312.382 503 284.647 478.546 284.351 478.265C228.894 428.888 194.898 438.305 147.857 451.356C135.381 454.817 122.467 458.399 107.741 461.403C35.7718 476.105 0.355114 433.341 0 432.899L0.875947 432C1.21922 432.429 36.2571 474.643 107.517 460.089C122.218 457.084 135.097 453.516 147.562 450.055C194.934 436.923 229.155 427.439 285.073 477.218C285.417 477.527 319.07 507.172 374.882 500.746L375 502.074C369.519 502.718 364.24 503 359.186 503Z" fill="url(#paint1_linear)"/>
</g>
<path d="M39.5447 250.131L37.9612 252.872H41.121L39.5447 250.131Z" fill="#E5CAA6"/>
<path d="M39.5447 255.147L37.9612 257.881H41.121L39.5447 255.147Z" fill="#E5CAA6"/>
<path d="M42.8207 252.188L41.3534 255.147H44.2807L42.8207 252.188Z" fill="#E5CAA6"/>
<path d="M274.334 354.9L272.758 357.634H275.91L274.334 354.9Z" fill="#E5CAA6"/>
<path d="M274.334 359.909L272.758 362.65H275.91L274.334 359.909Z" fill="#E5CAA6"/>
<path d="M277.61 356.951L276.15 359.909H279.07L277.61 356.951Z" fill="#E5CAA6"/>
<path d="M362.408 362.636H290.3C289.232 362.636 288.368 361.771 288.368 360.702C288.368 359.633 289.232 358.768 290.3 358.768H362.408C363.476 358.768 364.341 359.633 364.341 360.702C364.341 361.771 363.476 362.636 362.408 362.636Z" fill="white"/>
<path d="M300.259 396.827C299.177 396.827 298.283 396.165 298.24 395.322L296.365 361.443H304.152L302.278 395.322C302.227 396.165 301.341 396.827 300.259 396.827Z" fill="white"/>
<path d="M353.147 396.827C352.065 396.827 351.171 396.165 351.128 395.322L349.254 361.443H357.04L355.166 395.322C355.115 396.165 354.229 396.827 353.147 396.827Z" fill="white"/>
<path d="M326.358 396.827C325.276 396.827 324.382 396.165 324.339 395.322L322.464 361.443H330.251L328.377 395.322C328.334 396.165 327.44 396.827 326.358 396.827Z" fill="white"/>
<path d="M342.535 351.997C343.572 347.366 340.662 342.77 336.035 341.732C331.408 340.693 326.816 343.606 325.778 348.237C324.741 352.868 327.651 357.464 332.278 358.502C336.905 359.541 341.497 356.628 342.535 351.997Z" fill="#FFA6A6"/>
<path d="M338.481 343.057H329.627C329.133 343.057 328.733 342.657 328.733 342.163C328.733 341.669 329.133 341.269 329.627 341.269H338.481C338.975 341.269 339.375 341.669 339.375 342.163C339.375 342.657 338.975 343.057 338.481 343.057Z" fill="#FFA6A6"/>
<path d="M330.237 326.99C330.549 327.136 330.92 327.688 331.043 328.451C331.167 329.215 331.007 329.869 330.745 330.095C330.44 329.956 330.062 329.397 329.939 328.633C329.815 327.87 329.997 327.223 330.237 326.99Z" fill="#FFA6A6"/>
<path d="M330.818 330.019L330.639 330.049L331.444 334.948L331.623 334.919L330.818 330.019Z" fill="#FFA6A6"/>
<path d="M332.815 329.884C332.481 329.862 331.929 330.174 331.522 330.792C331.116 331.418 331.007 332.079 331.145 332.414C331.472 332.443 332.031 332.123 332.438 331.505C332.852 330.887 332.939 330.218 332.815 329.884Z" fill="#FFA6A6"/>
<path d="M328.719 330.56C329.031 330.429 329.648 330.545 330.237 331.003C330.825 331.461 331.137 332.057 331.116 332.421C330.818 332.559 330.186 332.435 329.598 331.977C329.009 331.519 328.711 330.916 328.719 330.56Z" fill="#FFA6A6"/>
<path d="M329.111 332.959C329.423 332.828 330.041 332.952 330.629 333.402C331.217 333.86 331.53 334.456 331.508 334.82C331.21 334.958 330.578 334.835 329.99 334.377C329.401 333.919 329.104 333.315 329.111 332.959Z" fill="#FFA6A6"/>
<path d="M333.215 332.29C332.881 332.268 332.329 332.581 331.922 333.199C331.515 333.817 331.406 334.485 331.544 334.82C331.871 334.849 332.43 334.529 332.837 333.911C333.244 333.286 333.338 332.617 333.215 332.29Z" fill="#FFA6A6"/>
<path d="M331.602 334.811L331.423 334.84L332.228 339.74L332.407 339.71L331.602 334.811Z" fill="#FFA6A6"/>
<path d="M333.607 334.675C333.273 334.653 332.721 334.966 332.314 335.584C331.907 336.209 331.798 336.87 331.936 337.205C332.263 337.234 332.823 336.921 333.229 336.296C333.636 335.678 333.731 335.009 333.607 334.675Z" fill="#FFA6A6"/>
<path d="M329.503 335.351C329.815 335.22 330.433 335.336 331.021 335.794C331.61 336.252 331.922 336.849 331.9 337.212C331.602 337.35 330.97 337.227 330.382 336.769C329.794 336.311 329.496 335.707 329.503 335.351Z" fill="#FFA6A6"/>
<path d="M329.903 337.757C330.215 337.627 330.832 337.75 331.421 338.201C332.009 338.659 332.321 339.255 332.3 339.619C332.002 339.757 331.37 339.633 330.782 339.175C330.193 338.717 329.888 338.106 329.903 337.757Z" fill="#FFA6A6"/>
<path d="M333.999 337.081C333.665 337.059 333.113 337.372 332.706 337.99C332.3 338.608 332.191 339.277 332.329 339.611C332.656 339.64 333.215 339.32 333.622 338.702C334.036 338.084 334.123 337.408 333.999 337.081Z" fill="#FFA6A6"/>
<path d="M332.394 339.601L332.214 339.63L333.02 344.53L333.199 344.5L332.394 339.601Z" fill="#FFA6A6"/>
<path d="M337.922 330.531C338.169 330.749 338.343 331.316 338.22 331.978C338.096 332.639 337.74 333.119 337.421 333.221C337.174 333.01 336.999 332.436 337.116 331.774C337.246 331.12 337.617 330.647 337.922 330.531Z" fill="#FFA6A6"/>
<path d="M337.345 333.176L336.564 337.423L336.743 337.456L337.524 333.209L337.345 333.176Z" fill="#FFA6A6"/>
<path d="M339.447 333.715C339.135 333.592 338.525 333.672 337.936 334.042C337.355 334.421 337.043 334.929 337.072 335.242C337.37 335.373 337.995 335.286 338.583 334.915C339.164 334.537 339.455 334.021 339.447 333.715Z" fill="#FFA6A6"/>
<path d="M335.358 332.959C335.692 332.952 336.237 333.243 336.651 333.803C337.065 334.362 337.174 334.951 337.036 335.235C336.709 335.249 336.157 334.951 335.743 334.391C335.329 333.832 335.242 333.243 335.358 332.959Z" fill="#FFA6A6"/>
<path d="M334.98 335.046C335.314 335.038 335.859 335.329 336.273 335.889C336.687 336.449 336.796 337.038 336.658 337.321C336.331 337.336 335.779 337.038 335.365 336.478C334.951 335.918 334.857 335.329 334.98 335.046Z" fill="#FFA6A6"/>
<path d="M339.062 335.794C338.75 335.671 338.14 335.751 337.551 336.122C336.97 336.5 336.658 337.009 336.687 337.321C336.985 337.452 337.61 337.365 338.198 336.994C338.779 336.623 339.077 336.1 339.062 335.794Z" fill="#FFA6A6"/>
<path d="M336.586 337.332L335.805 341.579L335.984 341.612L336.764 337.364L336.586 337.332Z" fill="#FFA6A6"/>
<path d="M338.685 337.866C338.372 337.743 337.762 337.823 337.174 338.193C336.593 338.571 336.28 339.08 336.309 339.393C336.607 339.524 337.232 339.437 337.82 339.066C338.401 338.695 338.692 338.179 338.685 337.866Z" fill="#FFA6A6"/>
<path d="M334.595 337.118C334.929 337.11 335.474 337.401 335.888 337.961C336.302 338.521 336.411 339.11 336.273 339.393C335.946 339.408 335.394 339.11 334.98 338.55C334.566 337.99 334.479 337.401 334.595 337.118Z" fill="#FFA6A6"/>
<path d="M335.817 341.484L335.037 345.731L335.216 345.764L335.996 341.517L335.817 341.484Z" fill="#FFA6A6"/>
<path d="M344.009 289.338C344.387 289.578 344.786 290.342 344.83 291.352C344.881 292.355 344.568 293.177 344.205 293.431C343.827 293.213 343.428 292.428 343.377 291.418C343.333 290.414 343.668 289.607 344.009 289.338Z" fill="white"/>
<path d="M344.32 293.336L344.081 293.348L344.393 299.803L344.632 299.791L344.32 293.336Z" fill="white"/>
<path d="M346.915 293.468C346.486 293.388 345.731 293.708 345.106 294.449C344.481 295.191 344.249 296.042 344.379 296.492C344.801 296.587 345.564 296.252 346.188 295.511C346.806 294.769 347.024 293.919 346.915 293.468Z" fill="white"/>
<path d="M341.517 293.73C341.939 293.613 342.723 293.853 343.413 294.529C344.103 295.206 344.423 296.027 344.336 296.492C343.929 296.623 343.13 296.369 342.44 295.693C341.743 295.017 341.445 294.188 341.517 293.73Z" fill="white"/>
<path d="M341.67 296.892C342.091 296.776 342.876 297.016 343.566 297.692C344.256 298.368 344.576 299.189 344.488 299.655C344.082 299.786 343.283 299.531 342.593 298.855C341.895 298.179 341.605 297.35 341.67 296.892Z" fill="white"/>
<path d="M347.067 296.63C346.639 296.55 345.883 296.87 345.258 297.612C344.634 298.353 344.401 299.204 344.532 299.655C344.953 299.749 345.716 299.415 346.341 298.673C346.958 297.932 347.176 297.081 347.067 296.63Z" fill="white"/>
<path d="M344.613 299.682L344.374 299.693L344.685 306.149L344.925 306.137L344.613 299.682Z" fill="white"/>
<path d="M347.22 299.785C346.791 299.705 346.036 300.025 345.411 300.767C344.786 301.508 344.554 302.359 344.684 302.81C345.106 302.904 345.868 302.57 346.493 301.828C347.111 301.087 347.329 300.229 347.22 299.785Z" fill="white"/>
<path d="M341.823 300.047C342.244 299.931 343.028 300.171 343.718 300.847C344.408 301.523 344.728 302.344 344.641 302.81C344.234 302.941 343.435 302.686 342.745 302.01C342.048 301.327 341.75 300.498 341.823 300.047Z" fill="white"/>
<path d="M341.975 303.21C342.396 303.093 343.181 303.333 343.871 304.009C344.561 304.685 344.881 305.507 344.793 305.972C344.387 306.103 343.588 305.849 342.898 305.172C342.2 304.496 341.902 303.668 341.975 303.21Z" fill="white"/>
<path d="M347.372 302.948C346.944 302.868 346.188 303.188 345.563 303.929C344.939 304.671 344.706 305.521 344.837 305.972C345.258 306.067 346.021 305.732 346.646 304.991C347.263 304.249 347.481 303.399 347.372 302.948Z" fill="white"/>
<path d="M344.931 305.971L344.692 305.983L345.004 312.438L345.243 312.426L344.931 305.971Z" fill="white"/>
<path d="M349.428 358.681H342.672C339.978 358.681 337.849 356.376 338.067 353.686L341.576 310.538H350.517L354.026 353.686C354.251 356.376 352.123 358.681 349.428 358.681Z" fill="white"/>
<path d="M351.44 310.669H340.66C340.028 310.669 339.52 310.16 339.52 309.527C339.52 308.895 340.028 308.386 340.66 308.386H351.44C352.072 308.386 352.58 308.895 352.58 309.527C352.58 310.153 352.072 310.669 351.44 310.669Z" fill="white"/>
<path d="M347.401 319.226C347.503 315.605 347.684 311.985 347.873 308.372C348.062 304.758 348.316 301.145 348.542 297.532C348.818 293.919 349.065 290.305 349.377 286.7L349.856 281.291C350.045 279.488 350.205 277.685 350.408 275.882C350.365 277.692 350.278 279.502 350.212 281.312L349.936 286.736C349.747 290.349 349.493 293.962 349.268 297.576C348.985 301.189 348.745 304.802 348.433 308.408C348.12 312.014 347.801 315.62 347.401 319.226Z" fill="white"/>
<path d="M347.743 315.082C347.198 307.848 346.987 300.607 346.856 293.366C346.755 286.125 346.74 278.884 347.06 271.636C347.605 278.869 347.815 286.11 347.946 293.351C348.04 300.593 348.055 307.834 347.743 315.082Z" fill="white"/>
<path d="M346.82 321.872C347.27 318.273 347.793 314.689 348.338 311.112C348.876 307.528 349.479 303.959 350.045 300.382C350.67 296.812 351.266 293.242 351.919 289.68L352.914 284.337C353.27 282.563 353.604 280.782 353.982 279.008C353.764 280.803 353.503 282.599 353.263 284.395L352.471 289.767C351.934 293.352 351.331 296.921 350.764 300.498C350.14 304.068 349.544 307.637 348.89 311.2C348.229 314.769 347.568 318.324 346.82 321.872Z" fill="white"/>
<path d="M345.483 271.745C345.483 272.166 345.142 272.508 344.721 272.508C344.299 272.508 343.958 272.166 343.958 271.745C343.958 271.323 344.299 270.981 344.721 270.981C345.142 270.981 345.483 271.323 345.483 271.745Z" stroke="white" stroke-miterlimit="10"/>
<path d="M349.573 269.876C350.584 269.876 351.404 269.056 351.404 268.044C351.404 267.033 350.584 266.212 349.573 266.212C348.562 266.212 347.743 267.033 347.743 268.044C347.743 269.056 348.562 269.876 349.573 269.876Z" stroke="white" stroke-miterlimit="10"/>
<path d="M353.256 277.481C353.589 277.481 353.859 277.211 353.859 276.877C353.859 276.544 353.589 276.274 353.256 276.274C352.923 276.274 352.653 276.544 352.653 276.877C352.653 277.211 352.923 277.481 353.256 277.481Z" stroke="white" stroke-miterlimit="10"/>
<path d="M355.319 289.906C355.319 290.218 355.065 290.473 354.752 290.473C354.44 290.473 354.186 290.218 354.186 289.906C354.186 289.593 354.44 289.339 354.752 289.339C355.065 289.339 355.319 289.593 355.319 289.906Z" stroke="white" stroke-miterlimit="10"/>
<path d="M340.82 285.115C341.366 285.115 341.808 284.672 341.808 284.126C341.808 283.58 341.366 283.137 340.82 283.137C340.275 283.137 339.832 283.58 339.832 284.126C339.832 284.672 340.275 285.115 340.82 285.115Z" stroke="white" stroke-miterlimit="10"/>
<path d="M317.089 330.095H291.913V357.547H317.089V330.095Z" fill="#FFA6A6"/>
<path d="M314.271 333.17H294.738V354.471H314.271V333.17Z" fill="white"/>
<path d="M63.4719 204.831H59.4186V384.213H63.4719V204.831Z" fill="white"/>
<path d="M82.1254 390.764H40.7723C40.7723 386.336 50.0337 382.752 61.4525 382.752C72.8713 382.752 82.1254 386.336 82.1254 390.764Z" fill="white"/>
<path d="M89.8905 207.295H33L34.0533 203.602L34.2639 202.875L36.1743 196.187L36.385 195.46L46.8013 159H77.5419L86.8614 195.46L87.0503 196.187L88.7573 202.875L88.9462 203.602L89.8905 207.295Z" fill="white"/>
<path d="M36.7336 197.822L34.7941 201.181H38.6658L36.7336 197.822Z" fill="#E5CAA6"/>
<path d="M41.121 201.181L39.1815 197.822H43.0604L41.121 201.181Z" fill="#E5CAA6"/>
<path d="M44.9925 197.822L43.0604 201.181H46.932L44.9925 197.822Z" fill="#E5CAA6"/>
<path d="M49.3872 201.181L47.4478 197.822H51.3194L49.3872 201.181Z" fill="#E5CAA6"/>
<path d="M53.2588 197.822L51.3194 201.181H55.191L53.2588 197.822Z" fill="#E5CAA6"/>
<path d="M57.6462 201.181L55.7067 197.822H59.5856L57.6462 201.181Z" fill="#E5CAA6"/>
<path d="M61.5178 197.822L59.5856 201.181H63.4573L61.5178 197.822Z" fill="#E5CAA6"/>
<path d="M65.9052 201.181L63.973 197.822H67.8447L65.9052 201.181Z" fill="#E5CAA6"/>
<path d="M69.7841 197.822L67.8447 201.181H71.7163L69.7841 197.822Z" fill="#E5CAA6"/>
<path d="M74.1714 201.181L72.232 197.822H76.1036L74.1714 201.181Z" fill="#E5CAA6"/>
<path d="M78.0431 197.822L76.1036 201.181H79.9825L78.0431 197.822Z" fill="#E5CAA6"/>
<path d="M82.4305 201.181L80.4983 197.822H84.3699L82.4305 201.181Z" fill="#E5CAA6"/>
<path d="M86.3021 197.822L84.3699 201.181H88.2415L86.3021 197.822Z" fill="#E5CAA6"/>
<path d="M87.0503 196.187H36.1743L36.3849 195.46H86.8614L87.0503 196.187Z" fill="#E5CAA6"/>
<path d="M88.9461 203.602H34.0532L34.2639 202.875H88.7573L88.9461 203.602Z" fill="#E5CAA6"/>
<path d="M96.3111 313.707C97.7929 307.964 100.982 302.831 104.258 297.887C107.163 293.496 110.207 289.127 114.042 285.521C117.877 281.908 122.606 279.065 127.807 278.265C126.536 282.366 125.265 286.466 123.994 290.566C122.722 294.667 121.408 298.854 118.902 302.337C116.279 305.972 112.48 308.632 108.427 310.537C104.367 312.442 100.023 313.642 95.7009 314.834" fill="#BCFBD4"/>
<path d="M96.5805 313.781C98.7669 306.009 103.517 298.942 108.312 292.523C110.789 289.2 113.513 286.074 116.81 283.552C118.372 282.352 126.34 277.067 127.132 279.56C127.481 280.665 125.549 284.657 125.222 285.711C124.612 287.681 124.016 289.651 123.391 291.614C122.222 295.3 120.951 299.03 118.677 302.199C113.331 309.622 104.004 312.261 95.6362 314.573C95.302 314.668 95.44 315.191 95.7815 315.097C103.961 312.836 112.837 310.291 118.423 303.413C123.936 296.63 125.556 286.467 128.077 278.339C128.142 278.128 127.931 277.968 127.742 278.004C119.876 279.444 113.781 284.613 108.965 290.771C103.655 297.561 98.411 305.267 96.0575 313.643C95.9558 313.97 96.4788 314.115 96.5805 313.781Z" fill="#BCFBD4"/>
<path d="M87.5951 333.01C93.3335 320.738 99.0647 308.459 104.803 296.187C105.101 295.554 104.157 295.002 103.859 295.634C98.1204 307.906 92.3892 320.186 86.6508 332.457C86.3602 333.09 87.2973 333.643 87.5951 333.01Z" fill="#BCFBD4"/>
<path d="M88.4232 306.598C88.7573 293.737 93.6096 280.738 96.842 268.371C96.9292 268.03 96.4062 267.884 96.319 268.226C93.0721 280.658 88.2198 293.664 87.8857 306.598C87.8711 306.947 88.4159 306.947 88.4232 306.598Z" fill="#BCFBD4"/>
<path d="M79.7647 309.288C74.2877 304.417 68.7672 299.495 64.4743 293.548C60.1886 287.601 57.1741 280.469 57.4138 273.141C60.9077 278.688 68.2878 280.76 71.927 286.212C73.1255 288.008 73.8446 290.08 74.5492 292.123C76.525 297.845 78.508 303.573 80.4838 309.295" fill="#BCFBD4"/>
<path d="M79.9535 309.099C74.2078 303.988 68.3677 298.812 64.0021 292.414C61.8302 289.23 60.0506 285.747 58.9319 282.054C58.3508 280.135 57.9586 278.172 57.7697 276.18C57.6099 274.464 57.1014 273.846 58.3726 274.9C60.174 276.398 61.7212 278.012 63.6534 279.379C66.3047 281.247 69.1086 282.999 71.1061 285.609C73.6848 288.975 74.7308 293.512 76.1037 297.481C77.4765 301.443 78.8421 305.406 80.215 309.368C80.3312 309.695 80.8542 309.557 80.738 309.222C79.2126 304.817 77.6944 300.418 76.169 296.013C74.9705 292.537 74.0335 288.706 71.8616 285.674C68.0844 280.396 61.329 278.39 57.639 272.995C57.4937 272.777 57.1305 272.85 57.1305 273.134C57.0143 288.735 68.7599 299.858 79.5613 309.477C79.83 309.717 80.2223 309.331 79.9535 309.099Z" fill="#BCFBD4"/>
<path d="M69.1158 282.555C78.0722 300.811 83.9559 320.375 86.5491 340.549C86.6362 341.233 87.7258 341.247 87.6387 340.549C85.0237 320.178 79.1036 300.447 70.0529 282.003C69.7478 281.37 68.8035 281.923 69.1158 282.555Z" fill="#BCFBD4"/>
<path d="M85.2774 266.197C80.7956 250.472 80.9263 233.459 85.6551 217.8C88.9456 222.533 91.4662 227.803 93.0933 233.329C94.9092 239.486 95.6138 246.037 94.546 252.369C93.4783 258.701 90.5582 264.801 85.873 269.185" fill="#BCFBD4"/>
<path d="M85.5394 266.125C83.244 257.823 82.1109 249.266 82.307 240.651C82.416 236.034 82.8808 231.432 83.7234 226.888C84.0866 224.933 84.5225 222.992 85.0164 221.065C85.8663 217.786 86.4619 219.407 87.7258 221.588C96.1301 236.041 98.5925 256.347 85.6702 268.997C85.4159 269.244 85.8009 269.629 86.0551 269.382C100.379 255.358 96.0938 232.741 85.8808 217.663C85.7501 217.474 85.4522 217.495 85.3796 217.728C80.7235 233.599 80.6 250.327 85.0019 266.271C85.1108 266.605 85.6338 266.46 85.5394 266.125Z" fill="#BCFBD4"/>
<path d="M97.9534 309.288C96.7621 301.378 99.3044 293.264 103.423 286.409C107.542 279.553 113.171 273.751 118.75 268.022C120.108 278.942 117.791 290.291 112.263 299.8C110.745 302.417 108.944 304.94 106.532 306.765C104.12 308.59 101.011 309.666 98.0405 309.128" fill="#BCFBD4"/>
<path d="M98.2294 309.288C97.1906 301.022 99.6749 293.024 103.99 286.009C106.183 282.446 108.798 279.168 111.566 276.034C112.822 274.617 114.115 273.221 115.423 271.847C115.982 271.258 116.534 270.516 117.173 270.022C118.154 269.266 118.031 268.735 118.655 269.84C119.251 270.88 118.851 273.541 118.837 274.726C118.815 276.558 118.699 278.39 118.488 280.215C118.009 284.228 117.057 288.212 115.634 291.999C112.822 299.495 107.542 309.942 98.026 308.859C97.6773 308.822 97.6846 309.368 98.026 309.404C106.743 310.4 111.914 301.959 114.973 295.038C118.735 286.539 120.035 277.234 119.004 268.023C118.982 267.804 118.721 267.644 118.539 267.826C107.6 279.08 95.5345 292.319 97.6701 309.288C97.7282 309.629 98.273 309.637 98.2294 309.288Z" fill="#BCFBD4"/>
<path d="M89.4831 295.147C88.8076 285.477 90.7543 275.764 93.9359 266.604C97.1174 257.444 101.519 248.771 105.907 240.119C108.82 250.014 109.749 260.65 107.294 270.668C104.839 280.686 98.7736 290.007 89.9044 295.256" fill="#BCFBD4"/>
<path d="M89.7597 295.147C89.1859 285.18 91.1181 275.387 94.4376 266.023C96.2028 261.043 98.3238 256.194 100.597 251.425C101.687 249.128 102.82 246.852 103.961 244.584C104.091 244.322 105.246 241.479 105.522 241.494C106.438 241.53 106.496 243.304 106.684 244.097C111.079 262.701 107.055 284.38 89.767 295.024C89.4692 295.205 89.7452 295.678 90.043 295.496C109.016 283.82 111.82 259.895 106.176 240.047C106.118 239.829 105.784 239.764 105.675 239.982C96.9364 257.219 88.0672 275.285 89.2149 295.147C89.2367 295.496 89.7815 295.504 89.7597 295.147Z" fill="#BCFBD4"/>
<path d="M83.6073 260.331C87.9583 285.682 88.721 311.483 85.9099 337.052C85.83 337.75 86.9268 337.743 86.9995 337.052C89.8179 311.389 89.0188 285.485 84.6605 260.04C84.537 259.349 83.491 259.64 83.6073 260.331Z" fill="#BCFBD4"/>
<path d="M85.4225 268.596C81.2458 265.106 77.6066 259.181 76.626 253.83C75.6454 248.48 75.936 242.976 76.2701 237.545C76.6115 232.115 76.9965 226.633 76.212 221.246C80.287 226.735 83.7155 232.704 86.4104 238.992C88.4516 243.754 90.0859 248.778 90.2675 253.954C90.4491 259.13 89.0545 264.51 85.6332 268.4" fill="#BCFBD4"/>
<path d="M85.6193 268.408C78.8639 262.446 76.2708 254.558 76.2344 245.725C76.2199 241.632 76.5904 237.553 76.7937 233.475C76.8954 231.432 76.9681 229.389 76.939 227.346C76.9318 226.757 76.3724 222.642 76.7356 222.424C78.0431 221.639 87.29 241.814 87.8057 243.297C90.6968 251.578 91.3214 261.05 85.445 268.212C85.2271 268.481 85.6048 268.866 85.83 268.597C97.4739 254.406 85.4087 233.38 76.4451 221.116C76.3071 220.927 75.9003 220.956 75.9366 221.254C77.1497 230.77 75.0867 240.273 75.8349 249.796C76.416 257.219 79.6194 263.849 85.2271 268.793C85.4958 269.026 85.8808 268.64 85.6193 268.408Z" fill="#BCFBD4"/>
<path d="M79.2846 305.928C81.3911 298.52 80.149 288.422 76.6187 281.573C73.0885 274.732 67.5898 269.069 61.4882 264.372C61.8223 272.267 62.4325 280.272 65.062 287.724C67.6987 295.183 72.2314 302.373 79.2846 305.928Z" fill="#BCFBD4"/>
<path d="M79.5467 306.002C83.9486 289.128 74.5347 274.246 61.6849 264.184C61.5179 264.053 61.2055 264.118 61.22 264.38C61.8883 279.466 64.329 298.23 79.1472 306.169C79.4596 306.336 79.7283 305.863 79.4232 305.696C72.6897 302.09 68.3677 295.685 65.7018 288.67C64.329 285.056 63.45 281.269 62.8689 277.452C62.4767 274.864 62.2297 272.261 62.0481 269.651C61.99 268.8 61.8229 267.863 61.8883 267.012C61.9827 265.776 61.5106 265.42 62.7309 265.703C63.9585 265.987 65.9633 268.466 66.8568 269.317C68.1788 270.574 69.4427 271.897 70.634 273.279C73.2926 276.361 75.6388 279.793 77.2296 283.551C80.1642 290.458 80.9269 298.579 79.0237 305.856C78.9366 306.198 79.4596 306.343 79.5467 306.002Z" fill="#BCFBD4"/>
<path d="M110.069 363.835C110.069 376.136 105.297 386.853 98.2439 392.429H76.002C68.9488 386.853 64.1765 376.136 64.1765 363.835C64.1765 352.341 68.3459 342.229 74.6437 336.398H99.595C105.9 342.229 110.069 352.334 110.069 363.835Z" fill="white"/>
<path d="M76.7792 348.27L70.8083 358.63H82.7574L76.7792 348.27Z" stroke="#E6CAA6" stroke-miterlimit="10"/>
<path d="M76.7792 350.8L72.9875 357.372H80.5709L76.7792 350.8Z" stroke="#E6CAA6" stroke-width="0.5" stroke-miterlimit="10"/>
<path d="M85.4087 382.287L78.1884 386.46V378.121L85.4087 382.287Z" stroke="#E6CAA6" stroke-width="0.75" stroke-miterlimit="10"/>
<path d="M83.0116 382.287L79.387 384.381V380.193L83.0116 382.287Z" stroke="#E6CAA6" stroke-width="0.5" stroke-miterlimit="10"/>
<path d="M95.5345 339.444L89.7525 349.47H101.324L95.5345 339.444Z" stroke="#E6CAA6" stroke-miterlimit="10"/>
<path d="M95.5345 343.247L93.043 347.565H98.0332L95.5345 343.247Z" stroke="#E6CAA6" stroke-width="0.5" stroke-miterlimit="10"/>
<path d="M95.5345 383.472L88.8953 368.197H102.181L95.5345 383.472Z" stroke="#E6CAA6" stroke-miterlimit="10"/>
<path d="M95.5345 379.75L91.3215 370.059H99.7548L95.5345 379.75Z" stroke="#E6CAA6" stroke-width="0.5" stroke-miterlimit="10"/>
<path d="M73.5178 370.56C73.5178 369.543 74.3458 368.714 75.3628 368.714C76.3797 368.714 77.2078 369.543 77.2078 370.56C77.2078 371.578 76.3797 372.407 75.3628 372.407C74.3458 372.407 73.5178 371.578 73.5178 370.56Z" stroke="#E6CAA6" stroke-miterlimit="10"/>
<path d="M95.5345 361.254C97.1713 361.254 98.4982 359.926 98.4982 358.288C98.4982 356.65 97.1713 355.322 95.5345 355.322C93.8977 355.322 92.5709 356.65 92.5709 358.288C92.5709 359.926 93.8977 361.254 95.5345 361.254Z" stroke="#E6CAA6" stroke-miterlimit="10"/>
<path d="M83.5927 343.894C84.2306 343.894 84.7477 343.376 84.7477 342.738C84.7477 342.099 84.2306 341.582 83.5927 341.582C82.9548 341.582 82.4377 342.099 82.4377 342.738C82.4377 343.376 82.9548 343.894 83.5927 343.894Z" stroke="#E6CAA6" stroke-miterlimit="10"/>
<g opacity="0.25">
<path opacity="0.25" d="M101.266 338.114C97.2851 357.794 88.1617 376.42 74.9996 391.571C75.3264 391.862 75.6606 392.16 76.002 392.429H98.2439C105.297 386.853 110.069 376.136 110.069 363.835C110.069 353.388 106.626 344.097 101.266 338.114Z" fill="white"/>
</g>
<path d="M99.5587 336.398H74.6873C73.9318 336.398 73.3217 335.787 73.3217 335.031V334.748C73.3217 333.992 73.9318 333.381 74.6873 333.381H99.5587C100.314 333.381 100.924 333.992 100.924 334.748V335.031C100.932 335.787 100.314 336.398 99.5587 336.398Z" fill="#FFA6A6"/>
<path d="M101.142 303.85C101.839 301.48 102.718 299.16 103.699 296.885C104.672 294.609 105.791 292.392 106.99 290.225C108.21 288.066 109.517 285.965 110.956 283.951C111.682 282.948 112.416 281.952 113.178 280.978C113.963 280.018 114.74 279.066 115.575 278.15C115.227 278.659 114.871 279.168 114.508 279.662L113.462 281.189C112.764 282.207 112.082 283.232 111.42 284.264C110.098 286.343 108.82 288.437 107.622 290.582C106.408 292.719 105.29 294.907 104.2 297.118C103.118 299.335 102.123 301.589 101.142 303.85Z" fill="#BCFBD4"/>
<path d="M83.6944 262.345C83.2949 260.113 82.9753 257.873 82.6702 255.634C82.3579 253.395 82.0964 251.149 81.8349 248.909C81.5952 246.663 81.3555 244.416 81.1666 242.163L80.8906 238.782C80.8252 237.655 80.738 236.521 80.6945 235.394C80.8978 236.507 81.0577 237.626 81.2465 238.746L81.7187 242.105C82.031 244.344 82.2925 246.59 82.554 248.837C82.7937 251.083 83.0334 253.33 83.2223 255.591C83.4184 257.83 83.5927 260.084 83.6944 262.345Z" fill="#BCFBD4"/>
<path d="M66.6461 275.031C67.881 276.957 68.9778 278.964 70.0093 281.007C71.048 283.05 71.9633 285.143 72.8204 287.274C73.6557 289.404 74.4257 291.563 75.0794 293.759C75.3991 294.856 75.7114 295.961 75.9947 297.066C76.2562 298.179 76.525 299.291 76.7356 300.418L75.6533 297.168C75.2974 296.085 74.9269 295.009 74.5492 293.933C73.7792 291.788 72.9947 289.651 72.1521 287.543C71.324 285.427 70.4233 283.333 69.5153 281.247C68.5856 279.16 67.6195 277.103 66.6461 275.031Z" fill="#BCFBD4"/>
<path d="M92.7597 285.885C93.9001 283.115 95.0333 280.353 96.1011 277.561C97.1689 274.769 98.2221 271.978 99.1664 269.149C100.169 266.336 101.062 263.486 101.934 260.636C102.37 259.211 102.791 257.779 103.205 256.34L104.433 252.021C104.178 253.497 103.859 254.958 103.547 256.427C103.205 257.888 102.842 259.342 102.471 260.789C101.702 263.69 100.801 266.547 99.8492 269.389C98.8468 272.21 97.7936 275.024 96.6095 277.779C95.4328 280.52 94.1689 283.239 92.7597 285.885Z" fill="#BCFBD4"/>
<path opacity="0.9" d="M228.862 256.652H173.853C160.531 256.652 149.73 267.463 149.73 280.796V339.822H252.993V280.796C252.993 267.463 242.192 256.652 228.862 256.652Z" fill="#FF9494"/>
<path opacity="0.9" d="M240.768 326.83H161.948V339.822H240.768V326.83Z" fill="#FF9494"/>
<path d="M240.768 339.822H155.839V372.843H240.768V339.822Z" fill="#FFA6A6"/>
<path d="M247.494 377.736H155.229C152.527 377.736 150.34 375.548 150.34 372.843H252.383C252.383 375.548 250.189 377.736 247.494 377.736Z" fill="white"/>
<path d="M152.788 393.025H149.73L155.229 377.736H159.507L152.788 393.025Z" fill="white"/>
<path d="M249.935 393.025H252.993L247.494 377.736H243.216L249.935 393.025Z" fill="white"/>
<path d="M140.97 266.125C138.013 264.155 135.529 261.349 134.36 257.99C133.19 254.631 133.452 250.705 135.435 247.753C137.418 244.802 141.202 243.042 144.667 243.835C144.812 239.153 149.113 235.743 153.275 233.599C157.858 231.236 162.645 229.869 167.33 232.014C169.938 233.213 172.684 235.162 174.064 237.684C175.444 240.2 176.265 242.977 177.064 245.74C180.34 243.791 184.8 244.089 187.793 246.452C190.785 248.815 192.1 253.09 190.967 256.732C194.671 255.162 199.161 254.464 202.567 256.608C206.148 258.862 207.383 263.493 207.63 267.724C207.841 271.359 207.478 275.213 205.415 278.208C202.974 281.756 198.652 283.428 194.563 284.773C187.488 287.092 180.202 289.033 172.756 289.251C165.311 289.469 157.64 287.855 151.539 283.588C145.43 279.32 141.122 272.166 141.34 264.715" fill="#DD7B7B"/>
<path d="M137.069 271.417C133.365 271.614 129.849 273.962 128.244 277.313C126.638 280.665 127.001 284.874 129.159 287.891C126.079 287.935 123.093 289.767 121.655 292.493C120.217 295.22 120.399 298.717 122.098 301.283C123.537 303.45 125.883 304.86 128.316 305.776C135.064 308.313 142.735 307.455 149.432 304.787C153.282 303.253 156.979 301.079 159.573 297.852C162.166 294.624 163.517 290.211 162.398 286.219C161.614 283.435 159.718 281.072 157.481 279.255C155.236 277.437 152.643 276.107 150.064 274.82C145.619 272.602 140.963 270.407 135.994 270.32" fill="#DD7B7B"/>
<path d="M158.897 320.251H137.512C130.764 320.251 125.294 314.777 125.294 308.023C125.294 301.269 130.764 295.794 137.512 295.794H154.459C156.914 295.794 158.904 297.786 158.904 300.244V320.251H158.897Z" fill="#FFA6A6"/>
<path d="M161.948 372.843H147.718C142.757 372.843 138.733 368.815 138.733 363.85V295.787H152.962C157.924 295.787 161.948 299.815 161.948 304.78V372.843Z" fill="#FFA6A6"/>
<path d="M164.461 234.878C166.393 234.42 168.572 234.769 170.287 235.947C171.129 236.536 171.87 237.299 172.342 238.208C172.626 238.637 172.771 239.131 172.953 239.596C173.091 240.076 173.185 240.578 173.265 241.058C173.025 240.614 172.873 240.149 172.626 239.727C172.371 239.313 172.168 238.877 171.863 238.506C171.333 237.721 170.643 237.066 169.873 236.536C169.11 235.998 168.238 235.612 167.33 235.343C166.415 235.096 165.456 234.922 164.461 234.878Z" fill="white"/>
<path d="M196.8 258.818C198.834 258.782 200.94 259.538 202.48 260.999C202.872 261.356 203.185 261.792 203.497 262.214C203.744 262.686 204.035 263.13 204.173 263.638C204.376 264.126 204.441 264.649 204.521 265.158C204.572 265.674 204.55 266.19 204.536 266.692C204.311 265.696 204.085 264.722 203.65 263.849C203.25 262.962 202.683 262.17 201.979 261.516C201.289 260.847 200.475 260.301 199.604 259.858C198.71 259.436 197.78 259.066 196.8 258.818Z" fill="white"/>
<path d="M184.56 248.146C185.011 248.211 185.439 248.371 185.853 248.575C186.267 248.778 186.645 249.047 186.979 249.36C187.313 249.68 187.589 250.073 187.778 250.494C187.974 250.916 188.047 251.388 188.032 251.839C187.887 251.41 187.764 250.989 187.524 250.625C187.291 250.262 187.037 249.92 186.718 249.622C186.1 249.026 185.359 248.553 184.56 248.146Z" fill="white"/>
<path d="M195.616 279.691C196.531 276.362 196.233 272.596 194.301 269.731C192.369 266.867 188.664 265.136 185.323 266.009C186.347 263.602 184.865 260.731 182.701 259.255C180.543 257.779 177.87 257.321 175.313 256.74C167.803 255.031 160.604 251.941 154.19 247.674C150.943 245.514 150.406 246.002 148.873 242.519C147.958 243.864 146.164 246.052 146.113 247.717C143.214 245.071 137.403 244.795 135.428 247.746C133.445 250.698 133.183 254.624 134.352 257.983C135.522 261.341 138.006 264.148 140.963 266.118L141.326 264.708C141.108 272.159 145.415 279.313 151.524 283.581C157.633 287.848 165.304 289.462 172.742 289.244C179.606 289.041 186.333 287.376 192.885 285.296C194.098 283.573 195.064 281.705 195.616 279.691Z" fill="#DD7B7B"/>
<path d="M158.287 271.178L160.728 282.185L169.284 284.628C169.284 284.628 172.342 281.567 172.342 280.956C172.342 280.345 168.064 268.728 168.064 268.728L158.287 271.178Z" fill="#FFD6C5"/>
<path d="M168.057 268.735L158.28 271.178L159.115 274.936C160.866 275.693 162.841 276.252 165.093 276.529C166.321 276.681 167.585 276.449 168.66 275.823C169.212 275.504 169.727 275.111 170.221 274.697C169.146 271.694 168.057 268.735 168.057 268.735Z" fill="#FFD6C5"/>
<path d="M145.439 251.184C145.439 251.184 144.225 276.694 165.495 278C172.178 275.388 176.434 265.575 175.22 257.723C174.006 249.878 166.102 236.792 154.557 240.718C148.481 243.339 145.439 251.184 145.439 251.184Z" fill="#FFD6C5"/>
<path d="M212.664 276.689L228.201 257.677C228.819 256.921 229.16 255.976 229.16 254.995V249.833C229.16 249.44 229.415 249.084 229.785 248.96C230.381 248.764 230.991 249.208 230.991 249.833V253.453L236.489 243.668L243.819 243.057L234.042 260.178L219.376 285.864L212.664 276.689Z" fill="#FFD6C5"/>
<path d="M281.097 259.56L306.76 268.124L314.656 261.465C317.612 258.971 321.949 258.731 325.021 261.08C326.801 262.439 327.738 264.351 325.697 266.903C320.808 273.017 306.753 279.742 306.753 279.742L278.031 273.628L281.097 259.56Z" fill="#FFD6C5"/>
<path opacity="0.5" d="M278.046 273.628L292.305 276.667C293.22 271.527 292.508 266.336 291.847 263.152L281.104 259.568L278.046 273.628Z" fill="#FFD6C5"/>
<path d="M202.277 303.595C202.277 303.595 234.448 267.819 248.838 255.605C251.235 253.569 254.344 252.581 257.482 252.835C268.102 253.693 290.264 257.728 290.264 257.728C290.264 257.728 294.542 273.628 286.595 282.803C281.707 282.192 259.712 277.91 259.712 277.91L215.105 326.83L202.277 303.595Z" fill="#FFCACA"/>
<path d="M287.816 290.749L308.59 313.984L325.915 316.958C329.133 317.51 331.152 320.913 329.874 323.922C329.045 325.864 327.062 328.481 322.646 327.441C312.259 324.998 302.482 321.938 302.482 321.938L278.039 302.367L287.816 290.749Z" fill="#FFD6C5"/>
<path opacity="0.5" d="M300.615 305.064L287.816 290.749L278.039 302.367L295.123 316.049C297.942 313.134 300.331 309.419 300.615 305.064Z" fill="#FFD6C5"/>
<path opacity="0.2" d="M248.7 262.679L203.788 306.321L215.112 326.83L259.719 277.91C259.719 277.91 281.714 282.192 286.603 282.803C287.111 282.221 287.562 281.603 287.976 280.97C279.985 274.435 270.448 266.932 263.344 261.69C258.869 258.397 252.681 258.811 248.7 262.679Z" fill="#FFA6A6"/>
<path d="M184.56 323.159C184.56 323.159 195.558 339.059 211.444 337.227C226.276 335.511 242.7 314.079 254.264 295.816C255.448 293.94 258.099 293.73 259.574 295.38C268.668 305.58 284.765 320.716 284.765 320.716C284.765 320.716 300.041 313.381 300.041 301.756C295.828 296.696 278.249 278.55 267.739 267.768C263.206 263.115 255.869 262.715 250.85 266.838L201.659 307.259L184.56 323.159Z" fill="#FFCACA"/>
<path d="M243.826 320.251H265.211C271.959 320.251 277.428 314.777 277.428 308.023C277.428 301.269 271.959 295.794 265.211 295.794H248.264C245.809 295.794 243.819 297.786 243.819 300.244V320.251H243.826Z" fill="#FFA6A6"/>
<path d="M240.768 372.843H254.998C259.959 372.843 263.983 368.815 263.983 363.85V295.787H249.753C244.792 295.787 240.768 299.815 240.768 304.78V372.843Z" fill="#FFA6A6"/>
<path d="M148.926 260L139.953 263.232C139.953 263.232 143.011 273.628 158.287 280.353L160.117 279.742C160.117 279.742 168.667 284.533 170.81 276.325C174.267 275.118 178.618 274.115 182.025 273.424C185.548 272.712 189.202 273.272 192.347 274.995L204.565 281.705C205.72 282.337 207.165 282.068 208.015 281.058L216.332 271.178L224.816 277.568L213.056 296.303C212.294 297.525 210.717 297.954 209.439 297.292L198.006 291.36L204.725 301.756C204.725 301.756 204.115 320.716 184.56 323.159C177.841 316.434 169.284 307.87 164.396 304.199C159.507 300.527 143.621 290.131 139.343 285.849C135.064 281.567 124.067 266.278 123.457 258.332C123.457 254.049 147.9 250.996 147.9 250.996L148.926 260Z" fill="white"/>
<path d="M146.432 284.031C133.662 275.271 128.251 263.828 125.963 255.954C124.423 256.688 123.457 257.488 123.457 258.339C124.067 266.292 135.064 281.574 139.343 285.856C143.621 290.138 159.507 300.534 164.396 304.206C165.267 304.86 166.263 305.674 167.33 306.605C164.723 301.065 158.984 292.646 146.432 284.031Z" fill="white"/>
<path d="M230.046 259.567L237.274 236.885C237.463 236.296 238 235.889 238.625 235.874L251.591 235.532C252.586 235.503 253.313 236.463 253.022 237.415L245.816 260.978C245.62 261.61 245.024 262.032 244.363 262.01L231.376 261.479C230.417 261.421 229.756 260.483 230.046 259.567Z" fill="#7954EF"/>
<path d="M228.826 259.568L236.054 236.885C236.242 236.296 236.78 235.889 237.405 235.874L250.371 235.533C251.366 235.503 252.092 236.463 251.802 237.416L244.596 260.978C244.4 261.61 243.804 262.032 243.143 262.01L230.155 261.48C229.189 261.421 228.536 260.484 228.826 259.568Z" fill="#7954EF"/>
<path d="M249.448 239.226L244.618 255.009L243.928 257.277L243.601 258.346C243.485 258.724 243.194 259.008 242.845 259.124C242.707 259.168 242.569 259.189 242.424 259.182L239.715 259.073L231.884 258.753C231.1 258.717 230.569 257.954 230.802 257.212L234.543 245.463L235.959 241.021L236.671 238.797C236.7 238.702 236.744 238.608 236.802 238.528C237.005 238.201 237.361 237.99 237.761 237.975L238.138 237.968L248.286 237.699C249.092 237.677 249.681 238.455 249.448 239.226Z" fill="white"/>
<g opacity="0.35">
<path opacity="0.35" d="M244.618 255.009L243.928 257.277L236.802 238.528C237.005 238.201 237.361 237.99 237.761 237.975L238.138 237.968L244.618 255.009Z" fill="white"/>
</g>
<path d="M147.674 263.69C150.195 257.961 150.863 251.432 149.563 245.304C150.471 248.219 153.645 249.869 156.674 250.254C159.703 250.64 162.776 250.102 165.827 250.254C168.878 250.407 172.175 251.483 173.715 254.122C173.999 254.602 174.311 255.198 174.863 255.242C175.553 255.3 175.96 254.486 176.105 253.81C177.231 248.742 175.154 243.181 171.195 239.822C167.236 236.463 161.628 235.293 156.565 236.434C151.502 237.575 147.042 240.905 144.18 245.231C142.386 247.943 141.173 251.076 140.992 254.326C140.81 257.568 141.711 260.92 143.737 263.457C144.239 264.082 144.856 264.686 145.64 264.86C146.425 265.035 147.384 264.591 147.507 263.791" fill="#DD7B7B"/>
<path d="M134.451 550H129.793L120.409 538.678V550H116.499V526.2H120.409V536.876L129.453 526.2H134.111L124.489 537.794L134.451 550ZM146.369 532.558C148.704 532.558 150.699 533.431 152.353 535.176C154.008 536.899 154.835 539.007 154.835 541.5C154.835 544.016 154.008 546.135 152.353 547.858C150.699 549.581 148.704 550.442 146.369 550.442C143.785 550.442 141.802 549.49 140.419 547.586V556.8H136.747V533H140.419V535.448C141.802 533.521 143.785 532.558 146.369 532.558ZM141.949 545.41C142.969 546.43 144.25 546.94 145.791 546.94C147.333 546.94 148.613 546.43 149.633 545.41C150.653 544.367 151.163 543.064 151.163 541.5C151.163 539.936 150.653 538.644 149.633 537.624C148.613 536.581 147.333 536.06 145.791 536.06C144.25 536.06 142.969 536.581 141.949 537.624C140.929 538.644 140.419 539.936 140.419 541.5C140.419 543.064 140.929 544.367 141.949 545.41ZM171.627 533H175.299V550H171.627V547.552C170.245 549.479 168.261 550.442 165.677 550.442C163.343 550.442 161.348 549.581 159.693 547.858C158.039 546.113 157.211 543.993 157.211 541.5C157.211 538.984 158.039 536.865 159.693 535.142C161.348 533.419 163.343 532.558 165.677 532.558C168.261 532.558 170.245 533.51 171.627 535.414V533ZM162.413 545.41C163.433 546.43 164.714 546.94 166.255 546.94C167.797 546.94 169.077 546.43 170.097 545.41C171.117 544.367 171.627 543.064 171.627 541.5C171.627 539.936 171.117 538.644 170.097 537.624C169.077 536.581 167.797 536.06 166.255 536.06C164.714 536.06 163.433 536.581 162.413 537.624C161.393 538.644 160.883 539.936 160.883 541.5C160.883 543.064 161.393 544.367 162.413 545.41ZM187.604 550.442C185.042 550.442 182.9 549.581 181.178 547.858C179.478 546.135 178.628 544.016 178.628 541.5C178.628 538.961 179.478 536.842 181.178 535.142C182.9 533.419 185.042 532.558 187.604 532.558C189.258 532.558 190.766 532.955 192.126 533.748C193.486 534.541 194.506 535.607 195.186 536.944L192.024 538.78C191.638 537.964 191.049 537.329 190.256 536.876C189.485 536.4 188.59 536.162 187.57 536.162C186.074 536.162 184.816 536.672 183.796 537.692C182.798 538.712 182.3 539.981 182.3 541.5C182.3 543.019 182.798 544.288 183.796 545.308C184.816 546.328 186.074 546.838 187.57 546.838C188.567 546.838 189.462 546.6 190.256 546.124C191.072 545.648 191.684 545.013 192.092 544.22L195.254 546.022C194.528 547.382 193.486 548.459 192.126 549.252C190.766 550.045 189.258 550.442 187.604 550.442ZM205.666 550.442C203.173 550.442 201.053 549.581 199.308 547.858C197.563 546.135 196.69 544.016 196.69 541.5C196.69 538.984 197.563 536.865 199.308 535.142C201.053 533.419 203.173 532.558 205.666 532.558C208.182 532.558 210.301 533.419 212.024 535.142C213.769 536.865 214.642 538.984 214.642 541.5C214.642 544.016 213.769 546.135 212.024 547.858C210.301 549.581 208.182 550.442 205.666 550.442ZM201.892 545.342C202.912 546.362 204.17 546.872 205.666 546.872C207.162 546.872 208.42 546.362 209.44 545.342C210.46 544.322 210.97 543.041 210.97 541.5C210.97 539.959 210.46 538.678 209.44 537.658C208.42 536.638 207.162 536.128 205.666 536.128C204.17 536.128 202.912 536.638 201.892 537.658C200.872 538.678 200.362 539.959 200.362 541.5C200.362 543.041 200.872 544.322 201.892 545.342ZM230.286 533V536.536H224.744V550H221.072V536.536H215.496V533H230.286ZM245.571 533H249.243V550H245.571V547.552C244.188 549.479 242.205 550.442 239.621 550.442C237.286 550.442 235.292 549.581 233.637 547.858C231.982 546.113 231.155 543.993 231.155 541.5C231.155 538.984 231.982 536.865 233.637 535.142C235.292 533.419 237.286 532.558 239.621 532.558C242.205 532.558 244.188 533.51 245.571 535.414V533ZM236.357 545.41C237.377 546.43 238.658 546.94 240.199 546.94C241.74 546.94 243.021 546.43 244.041 545.41C245.061 544.367 245.571 543.064 245.571 541.5C245.571 539.936 245.061 538.644 244.041 537.624C243.021 536.581 241.74 536.06 240.199 536.06C238.658 536.06 237.377 536.581 236.357 537.624C235.337 538.644 234.827 539.936 234.827 541.5C234.827 543.064 235.337 544.367 236.357 545.41ZM60.9004 590.442C58.339 590.442 56.197 589.581 54.4744 587.858C52.7744 586.135 51.9244 584.016 51.9244 581.5C51.9244 578.961 52.7744 576.842 54.4744 575.142C56.197 573.419 58.339 572.558 60.9004 572.558C62.555 572.558 64.0624 572.955 65.4224 573.748C66.7824 574.541 67.8024 575.607 68.4824 576.944L65.3204 578.78C64.935 577.964 64.3457 577.329 63.5524 576.876C62.7817 576.4 61.8864 576.162 60.8664 576.162C59.3704 576.162 58.1124 576.672 57.0924 577.692C56.095 578.712 55.5964 579.981 55.5964 581.5C55.5964 583.019 56.095 584.288 57.0924 585.308C58.1124 586.328 59.3704 586.838 60.8664 586.838C61.8637 586.838 62.759 586.6 63.5524 586.124C64.3684 585.648 64.9804 585.013 65.3884 584.22L68.5504 586.022C67.825 587.382 66.7824 588.459 65.4224 589.252C64.0624 590.045 62.555 590.442 60.9004 590.442ZM84.0265 573V576.536H78.4845V590H74.8125V576.536H69.2365V573H84.0265ZM99.3111 573H102.983V590H99.3111V587.552C97.9284 589.479 95.9451 590.442 93.3611 590.442C91.0264 590.442 89.0317 589.581 87.3771 587.858C85.7224 586.113 84.8951 583.993 84.8951 581.5C84.8951 578.984 85.7224 576.865 87.3771 575.142C89.0317 573.419 91.0264 572.558 93.3611 572.558C95.9451 572.558 97.9284 573.51 99.3111 575.414V573ZM90.0971 585.41C91.1171 586.43 92.3977 586.94 93.9391 586.94C95.4804 586.94 96.7611 586.43 97.7811 585.41C98.8011 584.367 99.3111 583.064 99.3111 581.5C99.3111 579.936 98.8011 578.644 97.7811 577.624C96.7611 576.581 95.4804 576.06 93.9391 576.06C92.3977 576.06 91.1171 576.581 90.0971 577.624C89.0771 578.644 88.5671 579.936 88.5671 581.5C88.5671 583.064 89.0771 584.367 90.0971 585.41ZM121.611 573V590H117.939V576.536H112.261V582.86C112.261 585.557 111.672 587.473 110.493 588.606C109.314 589.739 107.637 590.204 105.461 590V586.566C106.504 586.747 107.286 586.532 107.807 585.92C108.328 585.308 108.589 584.231 108.589 582.69V573H121.611ZM139.354 573H143.026V590H139.354V587.552C137.971 589.479 135.988 590.442 133.404 590.442C131.069 590.442 129.075 589.581 127.42 587.858C125.765 586.113 124.938 583.993 124.938 581.5C124.938 578.984 125.765 576.865 127.42 575.142C129.075 573.419 131.069 572.558 133.404 572.558C135.988 572.558 137.971 573.51 139.354 575.414V573ZM130.14 585.41C131.16 586.43 132.441 586.94 133.982 586.94C135.523 586.94 136.804 586.43 137.824 585.41C138.844 584.367 139.354 583.064 139.354 581.5C139.354 579.936 138.844 578.644 137.824 577.624C136.804 576.581 135.523 576.06 133.982 576.06C132.441 576.06 131.16 576.581 130.14 577.624C129.12 578.644 128.61 579.936 128.61 581.5C128.61 583.064 129.12 584.367 130.14 585.41ZM170.766 586.532H173.044V594.556H169.44V590H157.778V594.556H154.174V586.532H156.248C157.291 585.059 157.812 583.007 157.812 580.378V573H170.766V586.532ZM160.294 586.532H167.162V576.366H161.416V580.378C161.416 582.803 161.042 584.855 160.294 586.532ZM183.387 590.442C180.893 590.442 178.774 589.581 177.029 587.858C175.283 586.135 174.411 584.016 174.411 581.5C174.411 578.984 175.283 576.865 177.029 575.142C178.774 573.419 180.893 572.558 183.387 572.558C185.903 572.558 188.022 573.419 189.745 575.142C191.49 576.865 192.363 578.984 192.363 581.5C192.363 584.016 191.49 586.135 189.745 587.858C188.022 589.581 185.903 590.442 183.387 590.442ZM179.613 585.342C180.633 586.362 181.891 586.872 183.387 586.872C184.883 586.872 186.141 586.362 187.161 585.342C188.181 584.322 188.691 583.041 188.691 581.5C188.691 579.959 188.181 578.678 187.161 577.658C186.141 576.638 184.883 576.128 183.387 576.128C181.891 576.128 180.633 576.638 179.613 577.658C178.593 578.678 178.083 579.959 178.083 581.5C178.083 583.041 178.593 584.322 179.613 585.342ZM203.707 590.442C201.146 590.442 199.004 589.581 197.281 587.858C195.581 586.135 194.731 584.016 194.731 581.5C194.731 578.961 195.581 576.842 197.281 575.142C199.004 573.419 201.146 572.558 203.707 572.558C205.362 572.558 206.869 572.955 208.229 573.748C209.589 574.541 210.609 575.607 211.289 576.944L208.127 578.78C207.742 577.964 207.152 577.329 206.359 576.876C205.588 576.4 204.693 576.162 203.673 576.162C202.177 576.162 200.919 576.672 199.899 577.692C198.902 578.712 198.403 579.981 198.403 581.5C198.403 583.019 198.902 584.288 199.899 585.308C200.919 586.328 202.177 586.838 203.673 586.838C204.67 586.838 205.566 586.6 206.359 586.124C207.175 585.648 207.787 585.013 208.195 584.22L211.357 586.022C210.632 587.382 209.589 588.459 208.229 589.252C206.869 590.045 205.362 590.442 203.707 590.442ZM226.833 573V576.536H221.291V590H217.619V576.536H212.043V573H226.833ZM240.942 573H244.852L238.324 590.544C237.53 592.697 236.42 594.307 234.992 595.372C233.564 596.437 231.909 596.913 230.028 596.8V593.366C231.184 593.434 232.113 593.196 232.816 592.652C233.541 592.131 234.119 591.281 234.55 590.102L234.652 589.864L227.512 573H231.422L236.59 585.376L240.942 573ZM262.278 573V590H258.606V576.468H250.82V590H247.148V573H262.278ZM277.996 573H281.668V590H277.996V583.234H270.21V590H266.538V573H270.21V579.766H277.996V573ZM288.819 583.064C289.091 584.356 289.714 585.353 290.689 586.056C291.664 586.736 292.854 587.076 294.259 587.076C296.208 587.076 297.67 586.373 298.645 584.968L301.671 586.736C299.994 589.207 297.512 590.442 294.225 590.442C291.46 590.442 289.227 589.603 287.527 587.926C285.827 586.226 284.977 584.084 284.977 581.5C284.977 578.961 285.816 576.842 287.493 575.142C289.17 573.419 291.324 572.558 293.953 572.558C296.446 572.558 298.486 573.431 300.073 575.176C301.682 576.921 302.487 579.041 302.487 581.534C302.487 581.919 302.442 582.429 302.351 583.064H288.819ZM288.785 580.072H298.781C298.532 578.689 297.954 577.647 297.047 576.944C296.163 576.241 295.12 575.89 293.919 575.89C292.559 575.89 291.426 576.264 290.519 577.012C289.612 577.76 289.034 578.78 288.785 580.072ZM308.509 583.064C308.781 584.356 309.404 585.353 310.379 586.056C311.353 586.736 312.543 587.076 313.949 587.076C315.898 587.076 317.36 586.373 318.335 584.968L321.361 586.736C319.683 589.207 317.201 590.442 313.915 590.442C311.149 590.442 308.917 589.603 307.217 587.926C305.517 586.226 304.667 584.084 304.667 581.5C304.667 578.961 305.505 576.842 307.183 575.142C308.86 573.419 311.013 572.558 313.643 572.558C316.136 572.558 318.176 573.431 319.763 575.176C321.372 576.921 322.177 579.041 322.177 581.534C322.177 581.919 322.131 582.429 322.041 583.064H308.509ZM308.475 580.072H318.471C318.221 578.689 317.643 577.647 316.737 576.944C315.853 576.241 314.81 575.89 313.609 575.89C312.249 575.89 311.115 576.264 310.209 577.012C309.302 577.76 308.724 578.78 308.475 580.072Z" fill="#314E78"/>
<path opacity="0.7" d="M82.5591 623.791C81.6491 624.71 80.5354 625.169 79.2181 625.169C77.9007 625.169 76.7871 624.71 75.8771 623.791C74.9671 622.872 74.5121 621.759 74.5121 620.45C74.5121 619.133 74.9671 618.019 75.8771 617.109C76.7871 616.19 77.9007 615.731 79.2181 615.731C80.5354 615.731 81.6491 616.19 82.5591 617.109C83.4777 618.019 83.9371 619.133 83.9371 620.45C83.9371 621.759 83.4777 622.872 82.5591 623.791ZM76.7091 622.972C77.3851 623.648 78.2214 623.986 79.2181 623.986C80.2147 623.986 81.0467 623.648 81.7141 622.972C82.3901 622.287 82.7281 621.447 82.7281 620.45C82.7281 619.445 82.3901 618.604 81.7141 617.928C81.0467 617.243 80.2147 616.901 79.2181 616.901C78.2214 616.901 77.3851 617.243 76.7091 617.928C76.0417 618.604 75.7081 619.445 75.7081 620.45C75.7081 621.447 76.0417 622.287 76.7091 622.972ZM88.3285 625.169C87.3492 625.169 86.5345 624.844 85.8845 624.194C85.2345 623.535 84.9095 622.721 84.9095 621.75C84.9095 620.779 85.2345 619.969 85.8845 619.319C86.5345 618.66 87.3492 618.331 88.3285 618.331C88.9699 618.331 89.5462 618.487 90.0575 618.799C90.5689 619.102 90.9502 619.514 91.2015 620.034L90.2525 620.58C90.0879 620.233 89.8322 619.956 89.4855 619.748C89.1475 619.54 88.7619 619.436 88.3285 619.436C87.6785 619.436 87.1325 619.657 86.6905 620.099C86.2572 620.541 86.0405 621.091 86.0405 621.75C86.0405 622.4 86.2572 622.946 86.6905 623.388C87.1325 623.83 87.6785 624.051 88.3285 624.051C88.7619 624.051 89.1519 623.951 89.4985 623.752C89.8452 623.544 90.1095 623.267 90.2915 622.92L91.2535 623.479C90.9762 623.99 90.5775 624.402 90.0575 624.714C89.5375 625.017 88.9612 625.169 88.3285 625.169ZM97.1046 618.5V619.592H94.8946V625H93.7636V619.592H91.5406V618.5H97.1046ZM103.224 618.5H104.355V625H103.224V623.882C102.661 624.74 101.842 625.169 100.767 625.169C99.8569 625.169 99.0812 624.84 98.4399 624.181C97.7986 623.514 97.4779 622.703 97.4779 621.75C97.4779 620.797 97.7986 619.991 98.4399 619.332C99.0812 618.665 99.8569 618.331 100.767 618.331C101.842 618.331 102.661 618.76 103.224 619.618V618.5ZM100.91 624.077C101.569 624.077 102.119 623.856 102.561 623.414C103.003 622.963 103.224 622.409 103.224 621.75C103.224 621.091 103.003 620.541 102.561 620.099C102.119 619.648 101.569 619.423 100.91 619.423C100.26 619.423 99.7139 619.648 99.2719 620.099C98.8299 620.541 98.6089 621.091 98.6089 621.75C98.6089 622.409 98.8299 622.963 99.2719 623.414C99.7139 623.856 100.26 624.077 100.91 624.077ZM110.397 621.659C111.065 621.936 111.398 622.439 111.398 623.167C111.398 623.704 111.216 624.146 110.852 624.493C110.497 624.831 109.986 625 109.318 625H106.068V618.5H109.058C109.708 618.5 110.211 618.665 110.566 618.994C110.922 619.315 111.099 619.739 111.099 620.268C111.099 620.892 110.865 621.356 110.397 621.659ZM109.006 619.514H107.173V621.217H109.006C109.665 621.217 109.994 620.927 109.994 620.346C109.994 619.791 109.665 619.514 109.006 619.514ZM109.253 623.973C109.583 623.973 109.834 623.895 110.007 623.739C110.189 623.583 110.28 623.362 110.28 623.076C110.28 622.807 110.189 622.599 110.007 622.452C109.834 622.296 109.583 622.218 109.253 622.218H107.173V623.973H109.253ZM118.001 618.5H119.132V625H118.001V623.882C117.438 624.74 116.619 625.169 115.544 625.169C114.634 625.169 113.859 624.84 113.217 624.181C112.576 623.514 112.255 622.703 112.255 621.75C112.255 620.797 112.576 619.991 113.217 619.332C113.859 618.665 114.634 618.331 115.544 618.331C116.619 618.331 117.438 618.76 118.001 619.618V618.5ZM115.687 624.077C116.346 624.077 116.896 623.856 117.338 623.414C117.78 622.963 118.001 622.409 118.001 621.75C118.001 621.091 117.78 620.541 117.338 620.099C116.896 619.648 116.346 619.423 115.687 619.423C115.037 619.423 114.491 619.648 114.049 620.099C113.607 620.541 113.386 621.091 113.386 621.75C113.386 622.409 113.607 622.963 114.049 623.414C114.491 623.856 115.037 624.077 115.687 624.077ZM121.912 617.525V616.537H125.422V617.525H121.912ZM125.565 618.5H126.475V625H125.357V620.437L121.756 625H120.846V618.5H121.964V623.063L125.565 618.5ZM131.251 625.169C130.272 625.169 129.457 624.844 128.807 624.194C128.157 623.535 127.832 622.721 127.832 621.75C127.832 620.779 128.157 619.969 128.807 619.319C129.457 618.66 130.272 618.331 131.251 618.331C131.893 618.331 132.469 618.487 132.98 618.799C133.492 619.102 133.873 619.514 134.124 620.034L133.175 620.58C133.011 620.233 132.755 619.956 132.408 619.748C132.07 619.54 131.685 619.436 131.251 619.436C130.601 619.436 130.055 619.657 129.613 620.099C129.18 620.541 128.963 621.091 128.963 621.75C128.963 622.4 129.18 622.946 129.613 623.388C130.055 623.83 130.601 624.051 131.251 624.051C131.685 624.051 132.075 623.951 132.421 623.752C132.768 623.544 133.032 623.267 133.214 622.92L134.176 623.479C133.899 623.99 133.5 624.402 132.98 624.714C132.46 625.017 131.884 625.169 131.251 625.169ZM140.028 618.5V625H138.91V622.66H137.961L136.141 625H134.763L136.661 622.595C136.176 622.474 135.781 622.231 135.478 621.867C135.175 621.503 135.023 621.078 135.023 620.593C135.023 619.995 135.235 619.497 135.66 619.098C136.085 618.699 136.618 618.5 137.259 618.5H140.028ZM137.298 621.646H138.91V619.553H137.298C136.977 619.553 136.704 619.648 136.479 619.839C136.254 620.03 136.141 620.285 136.141 620.606C136.141 620.918 136.254 621.169 136.479 621.36C136.704 621.551 136.977 621.646 137.298 621.646ZM150.491 625H149.087L146.123 621.919V625H144.992V618.5H146.123V621.373L148.931 618.5H150.387L147.28 621.646L150.491 625ZM155.131 618.331C156.041 618.331 156.817 618.665 157.458 619.332C158.099 619.991 158.42 620.797 158.42 621.75C158.42 622.703 158.099 623.514 157.458 624.181C156.817 624.84 156.041 625.169 155.131 625.169C154.056 625.169 153.237 624.74 152.674 623.882V627.6H151.543V618.5H152.674V619.618C153.237 618.76 154.056 618.331 155.131 618.331ZM154.988 624.077C155.638 624.077 156.184 623.856 156.626 623.414C157.068 622.963 157.289 622.409 157.289 621.75C157.289 621.091 157.068 620.541 156.626 620.099C156.184 619.648 155.638 619.423 154.988 619.423C154.329 619.423 153.779 619.648 153.337 620.099C152.895 620.541 152.674 621.091 152.674 621.75C152.674 622.409 152.895 622.963 153.337 623.414C153.779 623.856 154.329 624.077 154.988 624.077ZM165.152 618.5H166.283V625H165.152V623.882C164.588 624.74 163.769 625.169 162.695 625.169C161.785 625.169 161.009 624.84 160.368 624.181C159.726 623.514 159.406 622.703 159.406 621.75C159.406 620.797 159.726 619.991 160.368 619.332C161.009 618.665 161.785 618.331 162.695 618.331C163.769 618.331 164.588 618.76 165.152 619.618V618.5ZM162.838 624.077C163.496 624.077 164.047 623.856 164.489 623.414C164.931 622.963 165.152 622.409 165.152 621.75C165.152 621.091 164.931 620.541 164.489 620.099C164.047 619.648 163.496 619.423 162.838 619.423C162.188 619.423 161.642 619.648 161.2 620.099C160.758 620.541 160.537 621.091 160.537 621.75C160.537 622.409 160.758 622.963 161.2 623.414C161.642 623.856 162.188 624.077 162.838 624.077ZM171.051 625.169C170.072 625.169 169.257 624.844 168.607 624.194C167.957 623.535 167.632 622.721 167.632 621.75C167.632 620.779 167.957 619.969 168.607 619.319C169.257 618.66 170.072 618.331 171.051 618.331C171.693 618.331 172.269 618.487 172.78 618.799C173.292 619.102 173.673 619.514 173.924 620.034L172.975 620.58C172.811 620.233 172.555 619.956 172.208 619.748C171.87 619.54 171.485 619.436 171.051 619.436C170.401 619.436 169.855 619.657 169.413 620.099C168.98 620.541 168.763 621.091 168.763 621.75C168.763 622.4 168.98 622.946 169.413 623.388C169.855 623.83 170.401 624.051 171.051 624.051C171.485 624.051 171.875 623.951 172.221 623.752C172.568 623.544 172.832 623.267 173.014 622.92L173.976 623.479C173.699 623.99 173.3 624.402 172.78 624.714C172.26 625.017 171.684 625.169 171.051 625.169ZM179.825 618.5H180.735V625H179.617V620.437L176.016 625H175.106V618.5H176.224V623.063L179.825 618.5ZM186.785 621.659C187.452 621.936 187.786 622.439 187.786 623.167C187.786 623.704 187.604 624.146 187.24 624.493C186.885 624.831 186.373 625 185.706 625H182.456V618.5H185.446C186.096 618.5 186.599 618.665 186.954 618.994C187.309 619.315 187.487 619.739 187.487 620.268C187.487 620.892 187.253 621.356 186.785 621.659ZM185.394 619.514H183.561V621.217H185.394C186.053 621.217 186.382 620.927 186.382 620.346C186.382 619.791 186.053 619.514 185.394 619.514ZM185.641 623.973C185.97 623.973 186.222 623.895 186.395 623.739C186.577 623.583 186.668 623.362 186.668 623.076C186.668 622.807 186.577 622.599 186.395 622.452C186.222 622.296 185.97 622.218 185.641 622.218H183.561V623.973H185.641ZM194.493 624.181C193.826 624.84 193.015 625.169 192.062 625.169C191.109 625.169 190.298 624.84 189.631 624.181C188.972 623.522 188.643 622.712 188.643 621.75C188.643 620.788 188.972 619.978 189.631 619.319C190.298 618.66 191.109 618.331 192.062 618.331C193.015 618.331 193.826 618.66 194.493 619.319C195.16 619.978 195.494 620.788 195.494 621.75C195.494 622.712 195.16 623.522 194.493 624.181ZM192.062 624.064C192.712 624.064 193.258 623.843 193.7 623.401C194.142 622.959 194.363 622.409 194.363 621.75C194.363 621.091 194.142 620.541 193.7 620.099C193.258 619.657 192.712 619.436 192.062 619.436C191.421 619.436 190.879 619.657 190.437 620.099C189.995 620.541 189.774 621.091 189.774 621.75C189.774 622.409 189.995 622.959 190.437 623.401C190.879 623.843 191.421 624.064 192.062 624.064ZM197.893 617.525V616.537H201.403V617.525H197.893ZM201.546 618.5H202.456V625H201.338V620.437L197.737 625H196.827V618.5H197.945V623.063L201.546 618.5ZM211.757 621.659C212.424 621.936 212.758 622.439 212.758 623.167C212.758 623.704 212.576 624.146 212.212 624.493C211.856 624.831 211.345 625 210.678 625H207.428V618.5H210.418C211.068 618.5 211.57 618.665 211.926 618.994C212.281 619.315 212.459 619.739 212.459 620.268C212.459 620.892 212.225 621.356 211.757 621.659ZM210.366 619.514H208.533V621.217H210.366C211.024 621.217 211.354 620.927 211.354 620.346C211.354 619.791 211.024 619.514 210.366 619.514ZM210.613 623.973C210.942 623.973 211.193 623.895 211.367 623.739C211.549 623.583 211.64 623.362 211.64 623.076C211.64 622.807 211.549 622.599 211.367 622.452C211.193 622.296 210.942 622.218 210.613 622.218H208.533V623.973H210.613ZM217.034 625.169C216.054 625.169 215.24 624.844 214.59 624.194C213.94 623.535 213.615 622.721 213.615 621.75C213.615 620.779 213.94 619.969 214.59 619.319C215.24 618.66 216.054 618.331 217.034 618.331C217.675 618.331 218.251 618.487 218.763 618.799C219.274 619.102 219.655 619.514 219.907 620.034L218.958 620.58C218.793 620.233 218.537 619.956 218.191 619.748C217.853 619.54 217.467 619.436 217.034 619.436C216.384 619.436 215.838 619.657 215.396 620.099C214.962 620.541 214.746 621.091 214.746 621.75C214.746 622.4 214.962 622.946 215.396 623.388C215.838 623.83 216.384 624.051 217.034 624.051C217.467 624.051 217.857 623.951 218.204 623.752C218.55 623.544 218.815 623.267 218.997 622.92L219.959 623.479C219.681 623.99 219.283 624.402 218.763 624.714C218.243 625.017 217.666 625.169 217.034 625.169ZM221.779 622.27C221.892 622.851 222.156 623.301 222.572 623.622C222.997 623.943 223.517 624.103 224.132 624.103C224.99 624.103 225.614 623.787 226.004 623.154L226.966 623.7C226.334 624.679 225.38 625.169 224.106 625.169C223.075 625.169 222.234 624.848 221.584 624.207C220.943 623.557 220.622 622.738 220.622 621.75C220.622 620.771 220.939 619.956 221.571 619.306C222.204 618.656 223.023 618.331 224.028 618.331C224.982 618.331 225.757 618.669 226.355 619.345C226.962 620.012 227.265 620.818 227.265 621.763C227.265 621.928 227.252 622.097 227.226 622.27H221.779ZM224.028 619.397C223.422 619.397 222.919 619.57 222.52 619.917C222.122 620.255 221.875 620.71 221.779 621.282H226.121C226.026 620.667 225.783 620.199 225.393 619.878C225.003 619.557 224.548 619.397 224.028 619.397ZM232.83 618.5V619.592H229.697V625H228.566V618.5H232.83ZM239.005 623.921H239.902V626.742H238.784V625H233.909V626.742H232.791V623.921H233.584C234 623.349 234.208 622.547 234.208 621.516V618.5H239.005V623.921ZM234.871 623.921H237.887V619.553H235.326V621.516C235.326 622.487 235.174 623.288 234.871 623.921ZM246.249 618.5H247.38V625H246.249V623.882C245.686 624.74 244.867 625.169 243.792 625.169C242.882 625.169 242.107 624.84 241.465 624.181C240.824 623.514 240.503 622.703 240.503 621.75C240.503 620.797 240.824 619.991 241.465 619.332C242.107 618.665 242.882 618.331 243.792 618.331C244.867 618.331 245.686 618.76 246.249 619.618V618.5ZM243.935 624.077C244.594 624.077 245.144 623.856 245.586 623.414C246.028 622.963 246.249 622.409 246.249 621.75C246.249 621.091 246.028 620.541 245.586 620.099C245.144 619.648 244.594 619.423 243.935 619.423C243.285 619.423 242.739 619.648 242.297 620.099C241.855 620.541 241.634 621.091 241.634 621.75C241.634 622.409 241.855 622.963 242.297 623.414C242.739 623.856 243.285 624.077 243.935 624.077ZM257.063 618.5H257.973V625H256.855V620.437L253.254 625H252.344V618.5H253.462V623.063L257.063 618.5ZM267.273 621.659C267.941 621.936 268.274 622.439 268.274 623.167C268.274 623.704 268.092 624.146 267.728 624.493C267.373 624.831 266.862 625 266.194 625H262.944V618.5H265.934C266.584 618.5 267.087 618.665 267.442 618.994C267.798 619.315 267.975 619.739 267.975 620.268C267.975 620.892 267.741 621.356 267.273 621.659ZM265.882 619.514H264.049V621.217H265.882C266.541 621.217 266.87 620.927 266.87 620.346C266.87 619.791 266.541 619.514 265.882 619.514ZM266.129 623.973C266.459 623.973 266.71 623.895 266.883 623.739C267.065 623.583 267.156 623.362 267.156 623.076C267.156 622.807 267.065 622.599 266.883 622.452C266.71 622.296 266.459 622.218 266.129 622.218H264.049V623.973H266.129ZM270.288 622.27C270.401 622.851 270.665 623.301 271.081 623.622C271.506 623.943 272.026 624.103 272.641 624.103C273.499 624.103 274.123 623.787 274.513 623.154L275.475 623.7C274.843 624.679 273.889 625.169 272.615 625.169C271.584 625.169 270.743 624.848 270.093 624.207C269.452 623.557 269.131 622.738 269.131 621.75C269.131 620.771 269.448 619.956 270.08 619.306C270.713 618.656 271.532 618.331 272.537 618.331C273.491 618.331 274.266 618.669 274.864 619.345C275.471 620.012 275.774 620.818 275.774 621.763C275.774 621.928 275.761 622.097 275.735 622.27H270.288ZM272.537 619.397C271.931 619.397 271.428 619.57 271.029 619.917C270.631 620.255 270.384 620.71 270.288 621.282H274.63C274.535 620.667 274.292 620.199 273.902 619.878C273.512 619.557 273.057 619.397 272.537 619.397ZM280.445 621.672C281.164 621.967 281.524 622.482 281.524 623.219C281.524 623.765 281.307 624.229 280.874 624.61C280.44 624.983 279.825 625.169 279.028 625.169C277.728 625.169 276.857 624.649 276.415 623.609L277.364 623.05C277.615 623.761 278.174 624.116 279.041 624.116C279.474 624.116 279.808 624.025 280.042 623.843C280.284 623.652 280.406 623.41 280.406 623.115C280.406 622.855 280.306 622.643 280.107 622.478C279.916 622.313 279.656 622.231 279.327 622.231H278.378V621.204H279.08C279.409 621.204 279.665 621.126 279.847 620.97C280.029 620.805 280.12 620.584 280.12 620.307C280.12 620.03 280.011 619.804 279.795 619.631C279.587 619.458 279.296 619.371 278.924 619.371C278.196 619.371 277.702 619.679 277.442 620.294L276.519 619.761C276.978 618.808 277.78 618.331 278.924 618.331C279.634 618.331 280.193 618.513 280.601 618.877C281.017 619.241 281.225 619.687 281.225 620.216C281.225 620.875 280.965 621.36 280.445 621.672ZM288.238 623.921H289.135V626.742H288.017V625H283.142V626.742H282.024V623.921H282.817C283.233 623.349 283.441 622.547 283.441 621.516V618.5H288.238V623.921ZM284.104 623.921H287.12V619.553H284.559V621.516C284.559 622.487 284.407 623.288 284.104 623.921ZM290.893 622.27C291.005 622.851 291.27 623.301 291.686 623.622C292.11 623.943 292.63 624.103 293.246 624.103C294.104 624.103 294.728 623.787 295.118 623.154L296.08 623.7C295.447 624.679 294.494 625.169 293.22 625.169C292.188 625.169 291.348 624.848 290.698 624.207C290.056 623.557 289.736 622.738 289.736 621.75C289.736 620.771 290.052 619.956 290.685 619.306C291.317 618.656 292.136 618.331 293.142 618.331C294.095 618.331 294.871 618.669 295.469 619.345C296.075 620.012 296.379 620.818 296.379 621.763C296.379 621.928 296.366 622.097 296.34 622.27H290.893ZM293.142 619.397C292.535 619.397 292.032 619.57 291.634 619.917C291.235 620.255 290.988 620.71 290.893 621.282H295.235C295.139 620.667 294.897 620.199 294.507 619.878C294.117 619.557 293.662 619.397 293.142 619.397ZM298.394 620.034C298.16 620.034 297.96 619.952 297.796 619.787C297.631 619.622 297.549 619.423 297.549 619.189C297.549 618.955 297.631 618.756 297.796 618.591C297.96 618.426 298.16 618.344 298.394 618.344C298.636 618.344 298.836 618.426 298.992 618.591C299.156 618.756 299.239 618.955 299.239 619.189C299.239 619.423 299.156 619.622 298.992 619.787C298.836 619.952 298.636 620.034 298.394 620.034ZM298.394 625.143C298.16 625.143 297.96 625.061 297.796 624.896C297.631 624.731 297.549 624.532 297.549 624.298C297.549 624.064 297.631 623.865 297.796 623.7C297.96 623.535 298.16 623.453 298.394 623.453C298.636 623.453 298.836 623.535 298.992 623.7C299.156 623.865 299.239 624.064 299.239 624.298C299.239 624.532 299.156 624.731 298.992 624.896C298.836 625.061 298.636 625.143 298.394 625.143ZM101.984 638.5H103.115V645H101.984V642.283H98.6174V645H97.4864V638.5H98.6174V641.204H101.984V638.5ZM110.219 638.5H111.35V645H110.219V643.882C109.656 644.74 108.837 645.169 107.762 645.169C106.852 645.169 106.076 644.84 105.435 644.181C104.794 643.514 104.473 642.703 104.473 641.75C104.473 640.797 104.794 639.991 105.435 639.332C106.076 638.665 106.852 638.331 107.762 638.331C108.837 638.331 109.656 638.76 110.219 639.618V638.5ZM107.905 644.077C108.564 644.077 109.114 643.856 109.556 643.414C109.998 642.963 110.219 642.409 110.219 641.75C110.219 641.091 109.998 640.541 109.556 640.099C109.114 639.648 108.564 639.423 107.905 639.423C107.255 639.423 106.709 639.648 106.267 640.099C105.825 640.541 105.604 641.091 105.604 641.75C105.604 642.409 105.825 642.963 106.267 643.414C106.709 643.856 107.255 644.077 107.905 644.077ZM118.706 645H117.38L115.56 642.543L113.727 645H112.401L114.897 641.659L112.544 638.5H113.883L115.56 640.762L117.237 638.5H118.563L116.223 641.646L118.706 645ZM124.783 644.181C124.116 644.84 123.305 645.169 122.352 645.169C121.399 645.169 120.588 644.84 119.921 644.181C119.262 643.522 118.933 642.712 118.933 641.75C118.933 640.788 119.262 639.978 119.921 639.319C120.588 638.66 121.399 638.331 122.352 638.331C123.305 638.331 124.116 638.66 124.783 639.319C125.45 639.978 125.784 640.788 125.784 641.75C125.784 642.712 125.45 643.522 124.783 644.181ZM122.352 644.064C123.002 644.064 123.548 643.843 123.99 643.401C124.432 642.959 124.653 642.409 124.653 641.75C124.653 641.091 124.432 640.541 123.99 640.099C123.548 639.657 123.002 639.436 122.352 639.436C121.711 639.436 121.169 639.657 120.727 640.099C120.285 640.541 120.064 641.091 120.064 641.75C120.064 642.409 120.285 642.959 120.727 643.401C121.169 643.843 121.711 644.064 122.352 644.064ZM132.453 643.921H133.35V646.742H132.232V645H127.357V646.742H126.239V643.921H127.032C127.448 643.349 127.656 642.547 127.656 641.516V638.5H132.453V643.921ZM128.319 643.921H131.335V639.553H128.774V641.516C128.774 642.487 128.623 643.288 128.319 643.921ZM139.288 638.5H140.198V645H139.08V640.437L135.479 645H134.569V638.5H135.687V643.063L139.288 638.5ZM151.67 638.5V645H150.565V640.281L148.498 643.609H148.355L146.288 640.281V645H145.17V638.5H146.379L148.42 641.789L150.461 638.5H151.67ZM158.779 638.5H159.91V645H158.779V643.882C158.215 644.74 157.396 645.169 156.322 645.169C155.412 645.169 154.636 644.84 153.995 644.181C153.353 643.514 153.033 642.703 153.033 641.75C153.033 640.797 153.353 639.991 153.995 639.332C154.636 638.665 155.412 638.331 156.322 638.331C157.396 638.331 158.215 638.76 158.779 639.618V638.5ZM156.465 644.077C157.123 644.077 157.674 643.856 158.116 643.414C158.558 642.963 158.779 642.409 158.779 641.75C158.779 641.091 158.558 640.541 158.116 640.099C157.674 639.648 157.123 639.423 156.465 639.423C155.815 639.423 155.269 639.648 154.827 640.099C154.385 640.541 154.164 641.091 154.164 641.75C154.164 642.409 154.385 642.963 154.827 643.414C155.269 643.856 155.815 644.077 156.465 644.077ZM164.678 645.169C163.699 645.169 162.884 644.844 162.234 644.194C161.584 643.535 161.259 642.721 161.259 641.75C161.259 640.779 161.584 639.969 162.234 639.319C162.884 638.66 163.699 638.331 164.678 638.331C165.319 638.331 165.896 638.487 166.407 638.799C166.918 639.102 167.3 639.514 167.551 640.034L166.602 640.58C166.437 640.233 166.182 639.956 165.835 639.748C165.497 639.54 165.111 639.436 164.678 639.436C164.028 639.436 163.482 639.657 163.04 640.099C162.607 640.541 162.39 641.091 162.39 641.75C162.39 642.4 162.607 642.946 163.04 643.388C163.482 643.83 164.028 644.051 164.678 644.051C165.111 644.051 165.501 643.951 165.848 643.752C166.195 643.544 166.459 643.267 166.641 642.92L167.603 643.479C167.326 643.99 166.927 644.402 166.407 644.714C165.887 645.017 165.311 645.169 164.678 645.169ZM173.454 638.5V639.592H171.244V645H170.113V639.592H167.89V638.5H173.454ZM174.984 642.27C175.097 642.851 175.361 643.301 175.777 643.622C176.202 643.943 176.722 644.103 177.337 644.103C178.195 644.103 178.819 643.787 179.209 643.154L180.171 643.7C179.539 644.679 178.585 645.169 177.311 645.169C176.28 645.169 175.439 644.848 174.789 644.207C174.148 643.557 173.827 642.738 173.827 641.75C173.827 640.771 174.144 639.956 174.776 639.306C175.409 638.656 176.228 638.331 177.233 638.331C178.187 638.331 178.962 638.669 179.56 639.345C180.167 640.012 180.47 640.818 180.47 641.763C180.47 641.928 180.457 642.097 180.431 642.27H174.984ZM177.233 639.397C176.627 639.397 176.124 639.57 175.725 639.917C175.327 640.255 175.08 640.71 174.984 641.282H179.326C179.231 640.667 178.988 640.199 178.598 639.878C178.208 639.557 177.753 639.397 177.233 639.397ZM185.359 638.331C186.269 638.331 187.044 638.665 187.686 639.332C188.327 639.991 188.648 640.797 188.648 641.75C188.648 642.703 188.327 643.514 187.686 644.181C187.044 644.84 186.269 645.169 185.359 645.169C184.284 645.169 183.465 644.74 182.902 643.882V647.6H181.771V638.5H182.902V639.618C183.465 638.76 184.284 638.331 185.359 638.331ZM185.216 644.077C185.866 644.077 186.412 643.856 186.854 643.414C187.296 642.963 187.517 642.409 187.517 641.75C187.517 641.091 187.296 640.541 186.854 640.099C186.412 639.648 185.866 639.423 185.216 639.423C184.557 639.423 184.007 639.648 183.565 640.099C183.123 640.541 182.902 641.091 182.902 641.75C182.902 642.409 183.123 642.963 183.565 643.414C184.007 643.856 184.557 644.077 185.216 644.077ZM195.483 644.181C194.816 644.84 194.005 645.169 193.052 645.169C192.099 645.169 191.288 644.84 190.621 644.181C189.962 643.522 189.633 642.712 189.633 641.75C189.633 640.788 189.962 639.978 190.621 639.319C191.288 638.66 192.099 638.331 193.052 638.331C194.005 638.331 194.816 638.66 195.483 639.319C196.15 639.978 196.484 640.788 196.484 641.75C196.484 642.712 196.15 643.522 195.483 644.181ZM193.052 644.064C193.702 644.064 194.248 643.843 194.69 643.401C195.132 642.959 195.353 642.409 195.353 641.75C195.353 641.091 195.132 640.541 194.69 640.099C194.248 639.657 193.702 639.436 193.052 639.436C192.411 639.436 191.869 639.657 191.427 640.099C190.985 640.541 190.764 641.091 190.764 641.75C190.764 642.409 190.985 642.959 191.427 643.401C191.869 643.843 192.411 644.064 193.052 644.064ZM202.146 641.659C202.814 641.936 203.147 642.439 203.147 643.167C203.147 643.704 202.965 644.146 202.601 644.493C202.246 644.831 201.735 645 201.067 645H197.817V638.5H200.807C201.457 638.5 201.96 638.665 202.315 638.994C202.671 639.315 202.848 639.739 202.848 640.268C202.848 640.892 202.614 641.356 202.146 641.659ZM200.755 639.514H198.922V641.217H200.755C201.414 641.217 201.743 640.927 201.743 640.346C201.743 639.791 201.414 639.514 200.755 639.514ZM201.002 643.973C201.332 643.973 201.583 643.895 201.756 643.739C201.938 643.583 202.029 643.362 202.029 643.076C202.029 642.807 201.938 642.599 201.756 642.452C201.583 642.296 201.332 642.218 201.002 642.218H198.922V643.973H201.002ZM213.247 638.5V645H212.116V639.579H208.749V645H207.618V638.5H213.247ZM220.455 644.181C219.788 644.84 218.977 645.169 218.024 645.169C217.071 645.169 216.26 644.84 215.593 644.181C214.934 643.522 214.605 642.712 214.605 641.75C214.605 640.788 214.934 639.978 215.593 639.319C216.26 638.66 217.071 638.331 218.024 638.331C218.977 638.331 219.788 638.66 220.455 639.319C221.122 639.978 221.456 640.788 221.456 641.75C221.456 642.712 221.122 643.522 220.455 644.181ZM218.024 644.064C218.674 644.064 219.22 643.843 219.662 643.401C220.104 642.959 220.325 642.409 220.325 641.75C220.325 641.091 220.104 640.541 219.662 640.099C219.22 639.657 218.674 639.436 218.024 639.436C217.383 639.436 216.841 639.657 216.399 640.099C215.957 640.541 215.736 641.091 215.736 641.75C215.736 642.409 215.957 642.959 216.399 643.401C216.841 643.843 217.383 644.064 218.024 644.064ZM225.74 645.169C224.778 645.169 223.985 644.853 223.361 644.22C222.737 643.587 222.425 642.773 222.425 641.776C222.425 640.667 222.585 639.813 222.906 639.215C223.235 638.617 223.903 638.075 224.908 637.59C225.09 637.503 225.337 637.391 225.649 637.252C225.97 637.113 226.204 637.009 226.351 636.94C226.498 636.862 226.663 636.762 226.845 636.641C227.027 636.511 227.161 636.372 227.248 636.225C227.343 636.069 227.413 635.891 227.456 635.692L228.366 636.212C228.34 636.351 228.305 636.481 228.262 636.602C228.219 636.715 228.154 636.827 228.067 636.94C227.989 637.044 227.92 637.135 227.859 637.213C227.798 637.291 227.694 637.378 227.547 637.473C227.408 637.56 227.304 637.625 227.235 637.668C227.174 637.711 227.049 637.776 226.858 637.863C226.676 637.95 226.55 638.01 226.481 638.045C226.42 638.071 226.277 638.132 226.052 638.227C225.827 638.314 225.688 638.37 225.636 638.396C225.047 638.647 224.613 638.903 224.336 639.163C224.067 639.423 223.872 639.752 223.751 640.151C224.028 639.804 224.375 639.549 224.791 639.384C225.207 639.219 225.623 639.137 226.039 639.137C226.854 639.137 227.543 639.414 228.106 639.969C228.678 640.524 228.964 641.239 228.964 642.114C228.964 642.998 228.661 643.73 228.054 644.311C227.447 644.883 226.676 645.169 225.74 645.169ZM224.219 643.505C224.626 643.886 225.133 644.077 225.74 644.077C226.347 644.077 226.845 643.891 227.235 643.518C227.634 643.145 227.833 642.677 227.833 642.114C227.833 641.533 227.642 641.061 227.261 640.697C226.888 640.324 226.394 640.138 225.779 640.138C225.224 640.138 224.722 640.316 224.271 640.671C223.829 641.018 223.608 641.477 223.608 642.049C223.608 642.638 223.812 643.124 224.219 643.505ZM235.358 638.5V645H234.227V639.592H231.666V642.244C231.666 643.31 231.449 644.055 231.016 644.48C230.591 644.896 229.989 645.069 229.209 645V643.934C229.651 643.995 229.98 643.899 230.197 643.648C230.422 643.388 230.535 642.911 230.535 642.218V638.5H235.358ZM241.79 638.5H242.7V645H241.582V640.437L237.981 645H237.071V638.5H238.189V643.063L241.79 638.5ZM247.932 641.672C248.651 641.967 249.011 642.482 249.011 643.219C249.011 643.765 248.794 644.229 248.361 644.61C247.928 644.983 247.312 645.169 246.515 645.169C245.215 645.169 244.344 644.649 243.902 643.609L244.851 643.05C245.102 643.761 245.661 644.116 246.528 644.116C246.961 644.116 247.295 644.025 247.529 643.843C247.772 643.652 247.893 643.41 247.893 643.115C247.893 642.855 247.793 642.643 247.594 642.478C247.403 642.313 247.143 642.231 246.814 642.231H245.865V641.204H246.567C246.896 641.204 247.152 641.126 247.334 640.97C247.516 640.805 247.607 640.584 247.607 640.307C247.607 640.03 247.499 639.804 247.282 639.631C247.074 639.458 246.784 639.371 246.411 639.371C245.683 639.371 245.189 639.679 244.929 640.294L244.006 639.761C244.465 638.808 245.267 638.331 246.411 638.331C247.122 638.331 247.681 638.513 248.088 638.877C248.504 639.241 248.712 639.687 248.712 640.216C248.712 640.875 248.452 641.36 247.932 641.672ZM255.722 644.181C255.055 644.84 254.245 645.169 253.291 645.169C252.338 645.169 251.528 644.84 250.86 644.181C250.202 643.522 249.872 642.712 249.872 641.75C249.872 640.788 250.202 639.978 250.86 639.319C251.528 638.66 252.338 638.331 253.291 638.331C254.245 638.331 255.055 638.66 255.722 639.319C256.39 639.978 256.723 640.788 256.723 641.75C256.723 642.712 256.39 643.522 255.722 644.181ZM253.291 644.064C253.941 644.064 254.487 643.843 254.929 643.401C255.371 642.959 255.592 642.409 255.592 641.75C255.592 641.091 255.371 640.541 254.929 640.099C254.487 639.657 253.941 639.436 253.291 639.436C252.65 639.436 252.108 639.657 251.666 640.099C251.224 640.541 251.003 641.091 251.003 641.75C251.003 642.409 251.224 642.959 251.666 643.401C252.108 643.843 252.65 644.064 253.291 644.064ZM261.112 645.169C260.132 645.169 259.318 644.844 258.668 644.194C258.018 643.535 257.693 642.721 257.693 641.75C257.693 640.779 258.018 639.969 258.668 639.319C259.318 638.66 260.132 638.331 261.112 638.331C261.753 638.331 262.329 638.487 262.841 638.799C263.352 639.102 263.733 639.514 263.985 640.034L263.036 640.58C262.871 640.233 262.615 639.956 262.269 639.748C261.931 639.54 261.545 639.436 261.112 639.436C260.462 639.436 259.916 639.657 259.474 640.099C259.04 640.541 258.824 641.091 258.824 641.75C258.824 642.4 259.04 642.946 259.474 643.388C259.916 643.83 260.462 644.051 261.112 644.051C261.545 644.051 261.935 643.951 262.282 643.752C262.628 643.544 262.893 643.267 263.075 642.92L264.037 643.479C263.759 643.99 263.361 644.402 262.841 644.714C262.321 645.017 261.744 645.169 261.112 645.169ZM269.888 638.5V639.592H267.678V645H266.547V639.592H264.324V638.5H269.888ZM275.598 638.5H276.508V645H275.39V640.437L271.789 645H270.879V638.5H271.997V643.063L275.598 638.5Z" fill="#314E78"/>
<defs>
<linearGradient id="paint0_linear" x1="-63.3333" y1="-173.764" x2="572.979" y2="333.758" gradientUnits="userSpaceOnUse">
<stop stop-color="#FDCC6C"/>
<stop offset="1" stop-color="#FF6392"/>
</linearGradient>
<linearGradient id="paint1_linear" x1="-63.3333" y1="407.473" x2="-31.7166" y2="586.126" gradientUnits="userSpaceOnUse">
<stop stop-color="#FDCC6C"/>
<stop offset="1" stop-color="#FF6392"/>
</linearGradient>
</defs>
</svg>
