<svg width="374.99999999999994" height="812" xmlns="http://www.w3.org/2000/svg" style="vector-effect: non-scaling-stroke;" stroke="null">
 <defs style="vector-effect: non-scaling-stroke;" stroke="null">
  <clipPath style="vector-effect: non-scaling-stroke;" stroke="null" id="clip0">
   <rect style="vector-effect: non-scaling-stroke;" stroke="null" id="svg_1" fill="white" height="812" width="375"/>
  </clipPath>
 </defs>
 <g stroke="null">
  <title stroke="null">background</title>
  <rect stroke="null" fill="none" id="canvas_background" height="402" width="582" y="-1" x="-1"/>
 </g>
 <g stroke="null">
  <title stroke="null">Layer 1</title>
  <g stroke="null" id="svg_2" clip-path="url(#clip0)">
   <rect stroke="null" x="0" y="-97.45362" id="svg_3" fill="#FFFBF7" height="909.45362" width="375"/>
   <path stroke="null" id="svg_4" fill="#314E78" d="m85.5459,61.090354c0.46,0.268804 0.82,0.63841 1.08,1.108817c0.26,0.470407 0.39,1.013615 0.39,1.629624c0,0.963214 -0.305,1.764026 -0.915,2.402436c-0.61,0.63841 -1.355,0.957614 -2.235,0.957614l-4.5,0l0,-11.760176l4.17,0c0.86,0 1.585,0.313605 2.175,0.940814c0.6,0.616009 0.9,1.388821 0.9,2.318435c0,1.019215 -0.355,1.820027 -1.065,2.402436zm-2.01,-3.847258l-2.445,0l0,3.091246l2.445,0c0.38,0 0.7,-0.145602 0.96,-0.436807c0.26,-0.302405 0.39,-0.67201 0.39,-1.108817c0,-0.436807 -0.13,-0.800812 -0.39,-1.092016c-0.26,-0.302405 -0.58,-0.453607 -0.96,-0.453607zm0.33,8.131322c0.4,0 0.735,-0.156802 1.005,-0.470407c0.28,-0.324805 0.42,-0.716811 0.42,-1.176018c0,-0.459207 -0.14,-0.845613 -0.42,-1.159217c-0.27,-0.324805 -0.605,-0.487207 -1.005,-0.487207l-2.775,0l0,3.292849l2.775,0zm7.8203,-3.729656c0.8,0 1.455,0.257604 1.965,0.772812c0.51,0.504008 0.765,1.170418 0.765,1.99923c0,0.817612 -0.255,1.484022 -0.765,1.99923c-0.51,0.515208 -1.165,0.772812 -1.965,0.772812l-3.27,0l0,-8.400126l1.62,0l0,2.856043l1.65,0zm3.63,-2.856043l1.62,0l0,8.400126l-1.62,0l0,-8.400126zm-3.615,6.770501c0.32,0 0.585,-0.106402 0.795,-0.319205c0.22,-0.212803 0.33,-0.487207 0.33,-0.823212c0,-0.347205 -0.11,-0.621609 -0.33,-0.823212c-0.21,-0.212803 -0.475,-0.319205 -0.795,-0.319205l-1.665,0l0,2.284834l1.665,0zm10.5958,1.848028c-1.15,0 -2.09,-0.414406 -2.8204,-1.243219c-0.72,-0.840013 -1.08,-1.909629 -1.08,-3.208848c0,-1.422421 0.19,-2.520038 0.57,-3.292849c0.38,-0.784012 1.1504,-1.495222 2.3104,-2.133632c0.19,-0.100802 0.47,-0.246404 0.84,-0.436807c0.38,-0.190403 0.64,-0.324805 0.78,-0.403206c0.14,-0.089601 0.315,-0.212803 0.525,-0.369606c0.21,-0.168003 0.365,-0.341605 0.465,-0.520808c0.1,-0.190403 0.18,-0.414406 0.24,-0.67201l1.32,0.856813c-0.04,0.246404 -0.105,0.476007 -0.195,0.68881c-0.09,0.201603 -0.22,0.392006 -0.39,0.571209c-0.17,0.179203 -0.32,0.324805 -0.45,0.436807c-0.12,0.112002 -0.325,0.246404 -0.615,0.403206c-0.29,0.156802 -0.505,0.268804 -0.645,0.336005c-0.13,0.067201 -0.38,0.184803 -0.75,0.352805c-0.66,0.291204 -1.145,0.593609 -1.455,0.907214c-0.3,0.302405 -0.51,0.68321 -0.63,1.142417c0.6,-0.761611 1.415,-1.142417 2.445,-1.142417c0.88,0 1.645,0.352805 2.295,1.058416c0.66,0.705611 0.99,1.618424 0.99,2.738441c0,1.142417 -0.35,2.083231 -1.05,2.822442c-0.69,0.739211 -1.59,1.108817 -2.7,1.108817zm-0.015,-1.696825c0.63,0 1.145,-0.207203 1.545,-0.621609c0.4,-0.425606 0.6,-0.963214 0.6,-1.612824c0,-0.66081 -0.2,-1.204018 -0.6,-1.629624c-0.39,-0.425606 -0.9,-0.63841 -1.53,-0.63841c-0.56,0 -1.065,0.201603 -1.515,0.604809c-0.45,0.392006 -0.675,0.918414 -0.675,1.579224c0,0.67201 0.21,1.226418 0.63,1.663225c0.42,0.436807 0.935,0.65521 1.545,0.65521zm6.32,-1.948829c0.12,0.63841 0.395,1.131217 0.825,1.478422c0.43,0.336005 0.955,0.504008 1.575,0.504008c0.86,0 1.505,-0.347205 1.935,-1.041616l1.335,0.873613c-0.74,1.220818 -1.835,1.831227 -3.285,1.831227c-1.22,0 -2.205,-0.414406 -2.955,-1.243219c-0.75,-0.840013 -1.125,-1.898428 -1.125,-3.175248c0,-1.254419 0.37,-2.301634 1.11,-3.141647c0.74,-0.851213 1.69,-1.276819 2.85,-1.276819c1.1,0 2,0.431206 2.7,1.293619c0.71,0.862413 1.065,1.909629 1.065,3.141647c0,0.190403 -0.02,0.442407 -0.06,0.756011l-5.97,0zm-0.015,-1.478422l4.41,0c-0.11,-0.68321 -0.365,-1.198418 -0.765,-1.545623c-0.39,-0.347205 -0.85,-0.520808 -1.38,-0.520808c-0.6,0 -1.1,0.184803 -1.5,0.554408c-0.4,0.369606 -0.655,0.873613 -0.765,1.512023zm11.716,-3.712856c1.03,0 1.91,0.431206 2.64,1.293619c0.73,0.851213 1.095,1.892828 1.095,3.124847c0,1.243219 -0.365,2.290434 -1.095,3.141647c-0.73,0.851213 -1.61,1.276819 -2.64,1.276819c-1.14,0 -2.015,-0.470407 -2.625,-1.411221l0,4.552868l-1.62,0l0,-11.760176l1.62,0l0,1.209618c0.61,-0.952014 1.485,-1.428021 2.625,-1.428021zm-1.95,6.350495c0.45,0.504008 1.015,0.756011 1.695,0.756011c0.68,0 1.245,-0.252004 1.695,-0.756011c0.45,-0.515208 0.675,-1.159217 0.675,-1.932029c0,-0.772812 -0.225,-1.411221 -0.675,-1.915229c-0.45,-0.515208 -1.015,-0.772812 -1.695,-0.772812c-0.68,0 -1.245,0.257604 -1.695,0.772812c-0.45,0.504008 -0.675,1.142417 -0.675,1.915229c0,0.772812 0.225,1.416821 0.675,1.932029zm12.583,-6.132092l1.245,0l0,8.400126l-1.59,0l0,-5.34248l-3.84,5.34248l-1.245,0l0,-8.400126l1.59,0l0,5.32568l3.84,-5.32568zm8.855,0l0,1.747226l-2.445,0l0,6.6529l-1.62,0l0,-6.6529l-2.46,0l0,-1.747226l6.525,0zm2.078,4.972874c0.12,0.63841 0.395,1.131217 0.825,1.478422c0.43,0.336005 0.955,0.504008 1.575,0.504008c0.86,0 1.505,-0.347205 1.935,-1.041616l1.335,0.873613c-0.74,1.220818 -1.835,1.831227 -3.285,1.831227c-1.22,0 -2.205,-0.414406 -2.955,-1.243219c-0.75,-0.840013 -1.125,-1.898428 -1.125,-3.175248c0,-1.254419 0.37,-2.301634 1.11,-3.141647c0.74,-0.851213 1.69,-1.276819 2.85,-1.276819c1.1,0 2,0.431206 2.7,1.293619c0.71,0.862413 1.065,1.909629 1.065,3.141647c0,0.190403 -0.02,0.442407 -0.06,0.756011l-5.97,0zm-0.015,-1.478422l4.41,0c-0.11,-0.68321 -0.365,-1.198418 -0.765,-1.545623c-0.39,-0.347205 -0.85,-0.520808 -1.38,-0.520808c-0.6,0 -1.1,0.184803 -1.5,0.554408c-0.4,0.369606 -0.655,0.873613 -0.765,1.512023zm16.275,-3.494452l1.725,0l-2.88,8.66893c-0.35,1.064016 -0.84,1.859228 -1.47,2.385636c-0.63,0.526408 -1.36,0.761611 -2.19,0.705611l0,-1.696825c0.51,0.033601 0.92,-0.084001 1.23,-0.352805c0.32,-0.257604 0.575,-0.67761 0.765,-1.260019l0.045,-0.117602l-3.15,-8.332925l1.725,0l2.28,6.115292l1.92,-6.115292zm5.985,8.618529c-1.13,0 -2.075,-0.425606 -2.835,-1.276819c-0.75,-0.851213 -1.125,-1.898428 -1.125,-3.141647c0,-1.254419 0.375,-2.301634 1.125,-3.141647c0.76,-0.851213 1.705,-1.276819 2.835,-1.276819c0.73,0 1.395,0.196003 1.995,0.588009c0.6,0.392006 1.05,0.918414 1.35,1.579224l-1.395,0.907214c-0.17,-0.403206 -0.43,-0.716811 -0.78,-0.940814c-0.34,-0.235204 -0.735,-0.352805 -1.185,-0.352805c-0.66,0 -1.215,0.252004 -1.665,0.756011c-0.44,0.504008 -0.66,1.131217 -0.66,1.881628c0,0.750411 0.22,1.377621 0.66,1.881628c0.45,0.504008 1.005,0.756011 1.665,0.756011c0.44,0 0.835,-0.117602 1.185,-0.352805c0.36,-0.235204 0.63,-0.548808 0.81,-0.940814l1.395,0.890413c-0.32,0.67201 -0.78,1.204018 -1.38,1.596024c-0.6,0.392006 -1.265,0.588009 -1.995,0.588009zm10.774,-8.618529l0,8.400126l-1.62,0l0,-6.6529l-2.505,0l0,3.124847c0,1.33282 -0.26,2.279234 -0.78,2.839243c-0.52,0.560008 -1.26,0.789612 -2.22,0.68881l0,-1.696825c0.46,0.089601 0.805,-0.0168 1.035,-0.319205c0.23,-0.302405 0.345,-0.834412 0.345,-1.596024l0,-4.788072l5.745,0zm6.943,0l1.725,0l-2.88,8.66893c-0.35,1.064016 -0.84,1.859228 -1.47,2.385636c-0.63,0.526408 -1.36,0.761611 -2.19,0.705611l0,-1.696825c0.51,0.033601 0.92,-0.084001 1.23,-0.352805c0.32,-0.257604 0.575,-0.67761 0.765,-1.260019l0.045,-0.117602l-3.15,-8.332925l1.725,0l2.28,6.115292l1.92,-6.115292zm7.763,0l0,1.747226l-3.405,0l0,6.6529l-1.62,0l0,-8.400126l5.025,0zm6.533,0l1.725,0l-2.88,8.66893c-0.35,1.064016 -0.84,1.859228 -1.47,2.385636c-0.63,0.526408 -1.36,0.761611 -2.19,0.705611l0,-1.696825c0.51,0.033601 0.92,-0.084001 1.23,-0.352805c0.32,-0.257604 0.575,-0.67761 0.765,-1.260019l0.045,-0.117602l-3.15,-8.332925l1.725,0l2.28,6.115292l1.92,-6.115292zm3.641,6.384096l-1.05,4.368065l-1.35,0l0.6,-4.368065l1.8,0zm10.659,-2.301634c0.74,0.380806 1.11,1.024815 1.11,1.932029c0,0.705611 -0.215,1.282419 -0.645,1.730426c-0.42,0.436807 -1.025,0.65521 -1.815,0.65521l-3.84,0l0,-8.400126l3.54,0c0.77,0 1.365,0.218403 1.785,0.65521c0.43,0.425606 0.645,0.980015 0.645,1.663225c0,0.795212 -0.26,1.383221 -0.78,1.764026zm-1.77,-2.536838l-1.875,0l0,1.864828l1.875,0c0.66,0 0.99,-0.313605 0.99,-0.940814c0,-0.616009 -0.33,-0.924014 -0.99,-0.924014zm0.27,5.275279c0.68,0 1.02,-0.330405 1.02,-0.991215c0,-0.291204 -0.09,-0.515208 -0.27,-0.67201c-0.18,-0.168003 -0.43,-0.252004 -0.75,-0.252004l-2.145,0l0,1.915229l2.145,0zm14.308,1.579224l-1.935,0l-3.075,-3.880858l0,3.880858l-1.62,0l0,-8.400126l1.62,0l0,3.712856l2.91,-3.712856l1.98,0l-3.3,4.116062l3.42,4.284064zm4.029,0.218403c-1.1,0 -2.035,-0.425606 -2.805,-1.276819c-0.77,-0.851213 -1.155,-1.898428 -1.155,-3.141647c0,-1.243219 0.385,-2.290434 1.155,-3.141647c0.77,-0.851213 1.705,-1.276819 2.805,-1.276819c1.11,0 2.045,0.425606 2.805,1.276819c0.77,0.851213 1.155,1.898428 1.155,3.141647c0,1.243219 -0.385,2.290434 -1.155,3.141647c-0.76,0.851213 -1.695,1.276819 -2.805,1.276819zm-1.665,-2.520038c0.45,0.504008 1.005,0.756011 1.665,0.756011c0.66,0 1.215,-0.252004 1.665,-0.756011c0.45,-0.504008 0.675,-1.136817 0.675,-1.898428c0,-0.761611 -0.225,-1.394421 -0.675,-1.898428c-0.45,-0.504008 -1.005,-0.756011 -1.665,-0.756011c-0.66,0 -1.215,0.252004 -1.665,0.756011c-0.45,0.504008 -0.675,1.136817 -0.675,1.898428c0,0.761611 0.225,1.394421 0.675,1.898428zm12.527,-6.098491l0,1.747226l-2.445,0l0,6.6529l-1.62,0l0,-6.6529l-2.46,0l0,-1.747226l6.525,0zm4.343,8.618529c-1.1,0 -2.035,-0.425606 -2.805,-1.276819c-0.77,-0.851213 -1.155,-1.898428 -1.155,-3.141647c0,-1.243219 0.385,-2.290434 1.155,-3.141647c0.77,-0.851213 1.705,-1.276819 2.805,-1.276819c1.11,0 2.045,0.425606 2.805,1.276819c0.77,0.851213 1.155,1.898428 1.155,3.141647c0,1.243219 -0.385,2.290434 -1.155,3.141647c-0.76,0.851213 -1.695,1.276819 -2.805,1.276819zm-1.665,-2.520038c0.45,0.504008 1.005,0.756011 1.665,0.756011c0.66,0 1.215,-0.252004 1.665,-0.756011c0.45,-0.504008 0.675,-1.136817 0.675,-1.898428c0,-0.761611 -0.225,-1.394421 -0.675,-1.898428c-0.45,-0.504008 -1.005,-0.756011 -1.665,-0.756011c-0.66,0 -1.215,0.252004 -1.665,0.756011c-0.45,0.504008 -0.675,1.136817 -0.675,1.898428c0,0.761611 0.225,1.394421 0.675,1.898428zm11.335,-6.316895c1.03,0 1.91,0.431206 2.64,1.293619c0.73,0.851213 1.095,1.892828 1.095,3.124847c0,1.243219 -0.365,2.290434 -1.095,3.141647c-0.73,0.851213 -1.61,1.276819 -2.64,1.276819c-1.14,0 -2.015,-0.470407 -2.625,-1.411221l0,4.552868l-1.62,0l0,-11.760176l1.62,0l0,1.209618c0.61,-0.952014 1.485,-1.428021 2.625,-1.428021zm-1.95,6.350495c0.45,0.504008 1.015,0.756011 1.695,0.756011c0.68,0 1.245,-0.252004 1.695,-0.756011c0.45,-0.515208 0.675,-1.159217 0.675,-1.932029c0,-0.772812 -0.225,-1.411221 -0.675,-1.915229c-0.45,-0.515208 -1.015,-0.772812 -1.695,-0.772812c-0.68,0 -1.245,0.257604 -1.695,0.772812c-0.45,0.504008 -0.675,1.142417 -0.675,1.915229c0,0.772812 0.225,1.416821 0.675,1.932029zm10.693,2.486437c-1.1,0 -2.035,-0.425606 -2.805,-1.276819c-0.77,-0.851213 -1.155,-1.898428 -1.155,-3.141647c0,-1.243219 0.385,-2.290434 1.155,-3.141647c0.77,-0.851213 1.705,-1.276819 2.805,-1.276819c1.11,0 2.045,0.425606 2.805,1.276819c0.77,0.851213 1.155,1.898428 1.155,3.141647c0,1.243219 -0.385,2.290434 -1.155,3.141647c-0.76,0.851213 -1.695,1.276819 -2.805,1.276819zm-1.665,-2.520038c0.45,0.504008 1.005,0.756011 1.665,0.756011c0.66,0 1.215,-0.252004 1.665,-0.756011c0.45,-0.504008 0.675,-1.136817 0.675,-1.898428c0,-0.761611 -0.225,-1.394421 -0.675,-1.898428c-0.45,-0.504008 -1.005,-0.756011 -1.665,-0.756011c-0.66,0 -1.215,0.252004 -1.665,0.756011c-0.45,0.504008 -0.675,1.136817 -0.675,1.898428c0,0.761611 0.225,1.394421 0.675,1.898428zm8.32,-7.274509l0,-1.579224l4.2,0l0,1.579224l-4.2,0zm4.2,1.176018l1.245,0l0,8.400126l-1.59,0l0,-5.34248l-3.84,5.34248l-1.245,0l0,-8.400126l1.59,0l0,5.32568l3.84,-5.32568zm12.065,4.082461c0.74,0.380806 1.11,1.024815 1.11,1.932029c0,0.705611 -0.215,1.282419 -0.645,1.730426c-0.42,0.436807 -1.025,0.65521 -1.815,0.65521l-3.84,0l0,-8.400126l3.54,0c0.77,0 1.365,0.218403 1.785,0.65521c0.43,0.425606 0.645,0.980015 0.645,1.663225c0,0.795212 -0.26,1.383221 -0.78,1.764026zm-1.77,-2.536838l-1.875,0l0,1.864828l1.875,0c0.66,0 0.99,-0.313605 0.99,-0.940814c0,-0.616009 -0.33,-0.924014 -0.99,-0.924014zm0.27,5.275279c0.68,0 1.02,-0.330405 1.02,-0.991215c0,-0.291204 -0.09,-0.515208 -0.27,-0.67201c-0.18,-0.168003 -0.43,-0.252004 -0.75,-0.252004l-2.145,0l0,1.915229l2.145,0zm7.197,-3.964859c0.8,0 1.455,0.257604 1.965,0.772812c0.51,0.504008 0.765,1.170418 0.765,1.99923c0,0.817612 -0.255,1.484022 -0.765,1.99923c-0.51,0.515208 -1.165,0.772812 -1.965,0.772812l-3.27,0l0,-8.400126l1.62,0l0,2.856043l1.65,0zm3.63,-2.856043l1.62,0l0,8.400126l-1.62,0l0,-8.400126zm-3.615,6.770501c0.32,0 0.585,-0.106402 0.795,-0.319205c0.22,-0.212803 0.33,-0.487207 0.33,-0.823212c0,-0.347205 -0.11,-0.621609 -0.33,-0.823212c-0.21,-0.212803 -0.475,-0.319205 -0.795,-0.319205l-1.665,0l0,2.284834l1.665,0zm-265.7829,24.248363c-1.13,0 -2.075,-0.425606 -2.835,-1.276819c-0.75,-0.851213 -1.125,-1.898428 -1.125,-3.141647c0,-1.254419 0.375,-2.301634 1.125,-3.141647c0.76,-0.851213 1.705,-1.276819 2.835,-1.276819c0.73,0 1.395,0.196003 1.995,0.588009c0.6,0.392006 1.05,0.918414 1.35,1.579224l-1.395,0.907214c-0.17,-0.403206 -0.43,-0.716811 -0.78,-0.940814c-0.34,-0.235204 -0.735,-0.352805 -1.185,-0.352805c-0.66,0 -1.215,0.252004 -1.665,0.756011c-0.44,0.504008 -0.66,1.131217 -0.66,1.881628c0,0.750411 0.22,1.377621 0.66,1.881628c0.45,0.504008 1.005,0.756011 1.665,0.756011c0.44,0 0.835,-0.117602 1.185,-0.352805c0.36,-0.235204 0.63,-0.548808 0.81,-0.940814l1.395,0.890413c-0.32,0.67201 -0.78,1.204018 -1.38,1.596024c-0.6,0.392006 -1.265,0.588009 -1.995,0.588009zm11.2649,-8.618529l0,8.400126l-1.62,0l0,-6.6865l-3.435,0l0,6.6865l-1.62,0l0,-8.400126l6.675,0zm3.1547,4.972874c0.12,0.63841 0.395,1.131217 0.825,1.478422c0.43,0.336005 0.955,0.504008 1.575,0.504008c0.86,0 1.505,-0.347205 1.935,-1.041616l1.335,0.873613c-0.74,1.220818 -1.835,1.831227 -3.285,1.831227c-1.22,0 -2.205,-0.414406 -2.955,-1.243219c-0.75,-0.840013 -1.125,-1.898428 -1.125,-3.175248c0,-1.254419 0.37,-2.301634 1.11,-3.141647c0.74,-0.851213 1.69,-1.276819 2.85,-1.276819c1.1,0 2,0.431206 2.7,1.293619c0.71,0.862413 1.065,1.909629 1.065,3.141647c0,0.190403 -0.02,0.442407 -0.06,0.756011l-5.97,0zm-0.015,-1.478422l4.41,0c-0.11,-0.68321 -0.365,-1.198418 -0.765,-1.545623c-0.39,-0.347205 -0.85,-0.520808 -1.38,-0.520808c-0.6,0 -1.1,0.184803 -1.5,0.554408c-0.4,0.369606 -0.655,0.873613 -0.765,1.512023zm13.9204,3.192048l1.23,0l0,3.964859l-1.59,0l0,-2.251234l-6.09,0l0,-8.400126l1.62,0l0,6.6865l3.21,0l0,-6.6865l1.62,0l0,6.6865zm7.9742,-6.6865l1.245,0l0,8.400126l-1.59,0l0,-5.34248l-3.84,5.34248l-1.245,0l0,-8.400126l1.59,0l0,5.32568l3.84,-5.32568zm9.0647,0l1.62,0l0,8.400126l-1.62,0l0,-1.209618c-0.61,0.952014 -1.485,1.428021 -2.625,1.428021c-1.03,0 -1.91,-0.425606 -2.64,-1.276819c-0.73,-0.862413 -1.095,-1.909629 -1.095,-3.141647c0,-1.243219 0.365,-2.290434 1.095,-3.141647c0.73,-0.851213 1.61,-1.276819 2.64,-1.276819c1.14,0 2.015,0.470407 2.625,1.411221l0,-1.192818zm-4.065,6.132092c0.45,0.504008 1.015,0.756011 1.695,0.756011c0.68,0 1.245,-0.252004 1.695,-0.756011c0.45,-0.515208 0.675,-1.159217 0.675,-1.932029c0,-0.772812 -0.225,-1.411221 -0.675,-1.915229c-0.45,-0.515208 -1.015,-0.772812 -1.695,-0.772812c-0.68,0 -1.245,0.257604 -1.695,0.772812c-0.45,0.504008 -0.675,1.142417 -0.675,1.915229c0,0.772812 0.225,1.416821 0.675,1.932029zm13.9032,-6.132092l0,8.400126l-1.62,0l0,-6.6529l-2.505,0l0,3.124847c0,1.33282 -0.26,2.279234 -0.78,2.839243c-0.52,0.560008 -1.26,0.789612 -2.22,0.68881l0,-1.696825c0.46,0.089601 0.805,-0.0168 1.035,-0.319205c0.23,-0.302405 0.345,-0.834412 0.345,-1.596024l0,-4.788072l5.745,0zm7.3178,0l1.245,0l0,8.400126l-1.59,0l0,-5.34248l-3.84,5.34248l-1.245,0l0,-8.400126l1.59,0l0,5.32568l3.84,-5.32568zm7.3397,4.099261c0.8,0.403206 1.2,1.069616 1.2,1.99923c0,0.716811 -0.26,1.31602 -0.78,1.797627c-0.52,0.481607 -1.245,0.722411 -2.175,0.722411c-1.51,0 -2.53,-0.67201 -3.06,-2.01603l1.32,-0.873613c0.27,0.840013 0.855,1.260019 1.755,1.260019c0.42,0 0.75,-0.095201 0.99,-0.285604c0.24,-0.201603 0.36,-0.464807 0.36,-0.789612c0,-0.291204 -0.095,-0.520808 -0.285,-0.68881c-0.19,-0.179203 -0.455,-0.268804 -0.795,-0.268804l-1.065,0l0,-1.596024l0.795,0c0.33,0 0.585,-0.084001 0.765,-0.252004c0.19,-0.179203 0.285,-0.420006 0.285,-0.722411c0,-0.291204 -0.105,-0.526408 -0.315,-0.705611c-0.21,-0.190403 -0.49,-0.285604 -0.84,-0.285604c-0.75,0 -1.27,0.369606 -1.56,1.108817l-1.32,-0.840013c0.56,-1.254419 1.51,-1.881628 2.85,-1.881628c0.84,0 1.505,0.240804 1.995,0.722411c0.5,0.470407 0.75,1.047216 0.75,1.730426c0,0.840013 -0.29,1.461622 -0.87,1.864828zm7.9533,-4.099261l1.245,0l0,8.400126l-1.59,0l0,-5.34248l-3.8401,5.34248l-1.245,0l0,-8.400126l1.59,0l0,5.32568l3.8401,-5.32568zm7.37,-0.218403c1.03,0 1.91,0.431206 2.64,1.293619c0.73,0.851213 1.095,1.892828 1.095,3.124847c0,1.243219 -0.365,2.290434 -1.095,3.141647c-0.73,0.851213 -1.61,1.276819 -2.64,1.276819c-1.14,0 -2.015,-0.470407 -2.625,-1.411221l0,4.552868l-1.62,0l0,-11.760176l1.62,0l0,1.209618c0.61,-0.952014 1.485,-1.428021 2.625,-1.428021zm-1.95,6.350495c0.45,0.504008 1.015,0.756011 1.695,0.756011c0.68,0 1.245,-0.252004 1.695,-0.756011c0.45,-0.515208 0.675,-1.159217 0.675,-1.932029c0,-0.772812 -0.225,-1.411221 -0.675,-1.915229c-0.45,-0.515208 -1.015,-0.772812 -1.695,-0.772812c-0.68,0 -1.245,0.257604 -1.695,0.772812c-0.45,0.504008 -0.675,1.142417 -0.675,1.915229c0,0.772812 0.225,1.416821 0.675,1.932029zm11.915,-6.132092l1.725,0l-2.88,8.66893c-0.35,1.064016 -0.84,1.859228 -1.47,2.385636c-0.63,0.526408 -1.36,0.761611 -2.19,0.705611l0,-1.696825c0.51,0.033601 0.92,-0.084001 1.23,-0.352805c0.32,-0.257604 0.575,-0.67761 0.765,-1.260019l0.045,-0.117602l-3.15,-8.332925l1.725,0l2.28,6.115292l1.92,-6.115292zm3.72,4.972874c0.12,0.63841 0.395,1.131217 0.825,1.478422c0.43,0.336005 0.955,0.504008 1.575,0.504008c0.86,0 1.505,-0.347205 1.935,-1.041616l1.335,0.873613c-0.74,1.220818 -1.835,1.831227 -3.285,1.831227c-1.22,0 -2.205,-0.414406 -2.955,-1.243219c-0.75,-0.840013 -1.125,-1.898428 -1.125,-3.175248c0,-1.254419 0.37,-2.301634 1.11,-3.141647c0.74,-0.851213 1.69,-1.276819 2.85,-1.276819c1.1,0 2,0.431206 2.7,1.293619c0.71,0.862413 1.065,1.909629 1.065,3.141647c0,0.190403 -0.02,0.442407 -0.06,0.756011l-5.97,0zm-0.015,-1.478422l4.41,0c-0.11,-0.68321 -0.365,-1.198418 -0.765,-1.545623c-0.39,-0.347205 -0.85,-0.520808 -1.38,-0.520808c-0.6,0 -1.1,0.184803 -1.5,0.554408c-0.4,0.369606 -0.655,0.873613 -0.765,1.512023zm12.907,-3.494452l0,1.747226l-2.445,0l0,6.6529l-1.62,0l0,-6.6529l-2.46,0l0,-1.747226l6.525,0zm2.079,4.972874c0.12,0.63841 0.395,1.131217 0.825,1.478422c0.43,0.336005 0.955,0.504008 1.575,0.504008c0.86,0 1.505,-0.347205 1.935,-1.041616l1.335,0.873613c-0.74,1.220818 -1.835,1.831227 -3.285,1.831227c-1.22,0 -2.205,-0.414406 -2.955,-1.243219c-0.75,-0.840013 -1.125,-1.898428 -1.125,-3.175248c0,-1.254419 0.37,-2.301634 1.11,-3.141647c0.74,-0.851213 1.69,-1.276819 2.85,-1.276819c1.1,0 2,0.431206 2.7,1.293619c0.71,0.862413 1.065,1.909629 1.065,3.141647c0,0.190403 -0.02,0.442407 -0.06,0.756011l-5.97,0zm-0.015,-1.478422l4.41,0c-0.11,-0.68321 -0.365,-1.198418 -0.765,-1.545623c-0.39,-0.347205 -0.85,-0.520808 -1.38,-0.520808c-0.6,0 -1.1,0.184803 -1.5,0.554408c-0.4,0.369606 -0.655,0.873613 -0.765,1.512023zm10.966,5.124077c-1.13,0 -2.075,-0.425606 -2.835,-1.276819c-0.75,-0.851213 -1.125,-1.898428 -1.125,-3.141647c0,-1.254419 0.375,-2.301634 1.125,-3.141647c0.76,-0.851213 1.705,-1.276819 2.835,-1.276819c0.73,0 1.395,0.196003 1.995,0.588009c0.6,0.392006 1.05,0.918414 1.35,1.579224l-1.395,0.907214c-0.17,-0.403206 -0.43,-0.716811 -0.78,-0.940814c-0.34,-0.235204 -0.735,-0.352805 -1.185,-0.352805c-0.66,0 -1.215,0.252004 -1.665,0.756011c-0.44,0.504008 -0.66,1.131217 -0.66,1.881628c0,0.750411 0.22,1.377621 0.66,1.881628c0.45,0.504008 1.005,0.756011 1.665,0.756011c0.44,0 0.835,-0.117602 1.185,-0.352805c0.36,-0.235204 0.63,-0.548808 0.81,-0.940814l1.395,0.890413c-0.32,0.67201 -0.78,1.204018 -1.38,1.596024c-0.6,0.392006 -1.265,0.588009 -1.995,0.588009zm7.86,-5.762486c0.8,0 1.455,0.257604 1.965,0.772812c0.51,0.504008 0.765,1.170418 0.765,1.99923c0,0.817612 -0.255,1.484022 -0.765,1.99923c-0.51,0.515208 -1.165,0.772812 -1.965,0.772812l-3.27,0l0,-8.400126l1.62,0l0,2.856043l1.65,0zm0.015,3.914459c0.32,0 0.585,-0.106402 0.795,-0.319205c0.22,-0.212803 0.33,-0.487207 0.33,-0.823212c0,-0.347205 -0.11,-0.621609 -0.33,-0.823212c-0.21,-0.212803 -0.475,-0.319205 -0.795,-0.319205l-1.665,0l0,2.284834l1.665,0zm13.219,-6.770501l1.245,0l0,8.400126l-1.59,0l0,-5.34248l-3.84,5.34248l-1.245,0l0,-8.400126l1.59,0l0,5.32568l3.84,-5.32568zm10.355,8.618529c-1.15,0 -2.09,-0.414406 -2.82,-1.243219c-0.72,-0.840013 -1.08,-1.909629 -1.08,-3.208848c0,-1.422421 0.19,-2.520038 0.57,-3.292849c0.38,-0.784012 1.15,-1.495222 2.31,-2.133632c0.19,-0.100802 0.47,-0.246404 0.84,-0.436807c0.38,-0.190403 0.64,-0.324805 0.78,-0.403206c0.14,-0.089601 0.315,-0.212803 0.525,-0.369606c0.21,-0.168003 0.365,-0.341605 0.465,-0.520808c0.1,-0.190403 0.18,-0.414406 0.24,-0.67201l1.32,0.856813c-0.04,0.246404 -0.105,0.476007 -0.195,0.68881c-0.09,0.201603 -0.22,0.392006 -0.39,0.571209c-0.17,0.179203 -0.32,0.324805 -0.45,0.436807c-0.12,0.112002 -0.325,0.246404 -0.615,0.403206c-0.29,0.156802 -0.505,0.268804 -0.645,0.336005c-0.13,0.067201 -0.38,0.184803 -0.75,0.352805c-0.66,0.291204 -1.145,0.593609 -1.455,0.907214c-0.3,0.302405 -0.51,0.68321 -0.63,1.142417c0.6,-0.761611 1.415,-1.142417 2.445,-1.142417c0.88,0 1.645,0.352805 2.295,1.058416c0.66,0.705611 0.99,1.618424 0.99,2.738441c0,1.142417 -0.35,2.083231 -1.05,2.822442c-0.69,0.739211 -1.59,1.108817 -2.7,1.108817zm-0.015,-1.696825c0.63,0 1.145,-0.207203 1.545,-0.621609c0.4,-0.425606 0.6,-0.963214 0.6,-1.612824c0,-0.66081 -0.2,-1.204018 -0.6,-1.629624c-0.39,-0.425606 -0.9,-0.63841 -1.53,-0.63841c-0.56,0 -1.065,0.201603 -1.515,0.604809c-0.45,0.392006 -0.675,0.918414 -0.675,1.579224c0,0.67201 0.21,1.226418 0.63,1.663225c0.42,0.436807 0.935,0.65521 1.545,0.65521zm9.808,-6.921704l1.725,0l-2.88,8.66893c-0.35,1.064016 -0.84,1.859228 -1.47,2.385636c-0.63,0.526408 -1.36,0.761611 -2.19,0.705611l0,-1.696825c0.51,0.033601 0.92,-0.084001 1.23,-0.352805c0.32,-0.257604 0.575,-0.67761 0.765,-1.260019l0.045,-0.117602l-3.15,-8.332925l1.725,0l2.28,6.115292l1.92,-6.115292zm8.884,6.6865l1.005,0l0,3.964859l-1.59,0l0,-2.251234l-5.145,0l0,2.251234l-1.59,0l0,-3.964859l0.915,0c0.46,-0.728011 0.69,-1.741626 0.69,-3.040846l0,-3.645655l5.715,0l0,6.6865zm-4.62,0l3.03,0l0,-5.023275l-2.535,0l0,1.98243c0,1.198418 -0.165,2.212033 -0.495,3.040846zm7.922,-1.713626c0.12,0.63841 0.395,1.131217 0.825,1.478422c0.43,0.336005 0.955,0.504008 1.575,0.504008c0.86,0 1.505,-0.347205 1.935,-1.041616l1.335,0.873613c-0.74,1.220818 -1.835,1.831227 -3.285,1.831227c-1.22,0 -2.205,-0.414406 -2.955,-1.243219c-0.75,-0.840013 -1.125,-1.898428 -1.125,-3.175248c0,-1.254419 0.37,-2.301634 1.11,-3.141647c0.74,-0.851213 1.69,-1.276819 2.85,-1.276819c1.1,0 2,0.431206 2.7,1.293619c0.71,0.862413 1.065,1.909629 1.065,3.141647c0,0.190403 -0.02,0.442407 -0.06,0.756011l-5.97,0zm-0.015,-1.478422l4.41,0c-0.11,-0.68321 -0.365,-1.198418 -0.765,-1.545623c-0.39,-0.347205 -0.85,-0.520808 -1.38,-0.520808c-0.6,0 -1.1,0.184803 -1.5,0.554408c-0.4,0.369606 -0.655,0.873613 -0.765,1.512023zm12.908,-3.494452l0,1.747226l-2.445,0l0,6.6529l-1.62,0l0,-6.6529l-2.46,0l0,-1.747226l6.525,0zm2.078,4.972874c0.12,0.63841 0.395,1.131217 0.825,1.478422c0.43,0.336005 0.955,0.504008 1.575,0.504008c0.86,0 1.505,-0.347205 1.935,-1.041616l1.335,0.873613c-0.74,1.220818 -1.835,1.831227 -3.285,1.831227c-1.22,0 -2.205,-0.414406 -2.955,-1.243219c-0.75,-0.840013 -1.125,-1.898428 -1.125,-3.175248c0,-1.254419 0.37,-2.301634 1.11,-3.141647c0.74,-0.851213 1.69,-1.276819 2.85,-1.276819c1.1,0 2,0.431206 2.7,1.293619c0.71,0.862413 1.065,1.909629 1.065,3.141647c0,0.190403 -0.02,0.442407 -0.06,0.756011l-5.97,0zm-0.015,-1.478422l4.41,0c-0.11,-0.68321 -0.365,-1.198418 -0.765,-1.545623c-0.39,-0.347205 -0.85,-0.520808 -1.38,-0.520808c-0.6,0 -1.1,0.184803 -1.5,0.554408c-0.4,0.369606 -0.655,0.873613 -0.765,1.512023zm16.411,0.588009c0.74,0.380806 1.11,1.024815 1.11,1.932029c0,0.705611 -0.215,1.282419 -0.645,1.730426c-0.42,0.436807 -1.025,0.65521 -1.815,0.65521l-3.84,0l0,-8.400126l3.54,0c0.77,0 1.365,0.218403 1.785,0.65521c0.43,0.425606 0.645,0.980015 0.645,1.663225c0,0.795212 -0.26,1.383221 -0.78,1.764026zm-1.77,-2.536838l-1.875,0l0,1.864828l1.875,0c0.66,0 0.99,-0.313605 0.99,-0.940814c0,-0.616009 -0.33,-0.924014 -0.99,-0.924014zm0.27,5.275279c0.68,0 1.02,-0.330405 1.02,-0.991215c0,-0.291204 -0.09,-0.515208 -0.27,-0.67201c-0.18,-0.168003 -0.43,-0.252004 -0.75,-0.252004l-2.145,0l0,1.915229l2.145,0zm7.197,-3.964859c0.8,0 1.455,0.257604 1.965,0.772812c0.51,0.504008 0.765,1.170418 0.765,1.99923c0,0.817612 -0.255,1.484022 -0.765,1.99923c-0.51,0.515208 -1.165,0.772812 -1.965,0.772812l-3.27,0l0,-8.400126l1.62,0l0,2.856043l1.65,0zm3.63,-2.856043l1.62,0l0,8.400126l-1.62,0l0,-8.400126zm-3.615,6.770501c0.32,0 0.585,-0.106402 0.795,-0.319205c0.22,-0.212803 0.33,-0.487207 0.33,-0.823212c0,-0.347205 -0.11,-0.621609 -0.33,-0.823212c-0.21,-0.212803 -0.475,-0.319205 -0.795,-0.319205l-1.665,0l0,2.284834l1.665,0zm13.79,-6.770501l0,8.400126l-1.62,0l0,-6.6865l-3.435,0l0,6.6865l-1.62,0l0,-8.400126l6.675,0zm5.42,8.618529c-1.1,0 -2.035,-0.425606 -2.805,-1.276819c-0.77,-0.851213 -1.155,-1.898428 -1.155,-3.141647c0,-1.243219 0.385,-2.290434 1.155,-3.141647c0.77,-0.851213 1.705,-1.276819 2.805,-1.276819c1.11,0 2.045,0.425606 2.805,1.276819c0.77,0.851213 1.155,1.898428 1.155,3.141647c0,1.243219 -0.385,2.290434 -1.155,3.141647c-0.76,0.851213 -1.695,1.276819 -2.805,1.276819zm-1.665,-2.520038c0.45,0.504008 1.005,0.756011 1.665,0.756011c0.66,0 1.215,-0.252004 1.665,-0.756011c0.45,-0.504008 0.675,-1.136817 0.675,-1.898428c0,-0.761611 -0.225,-1.394421 -0.675,-1.898428c-0.45,-0.504008 -1.005,-0.756011 -1.665,-0.756011c-0.66,0 -1.215,0.252004 -1.665,0.756011c-0.45,0.504008 -0.675,1.136817 -0.675,1.898428c0,0.761611 0.225,1.394421 0.675,1.898428zm13.2,-6.098491l0,8.400126l-1.62,0l0,-6.6529l-2.505,0l0,3.124847c0,1.33282 -0.26,2.279234 -0.78,2.839243c-0.52,0.560008 -1.26,0.789612 -2.22,0.68881l0,-1.696825c0.46,0.089601 0.805,-0.0168 1.035,-0.319205c0.23,-0.302405 0.345,-0.834412 0.345,-1.596024l0,-4.788072l5.745,0zm6.943,0l1.62,0l0,8.400126l-1.62,0l0,-3.34325l-3.435,0l0,3.34325l-1.62,0l0,-8.400126l1.62,0l0,3.34325l3.435,0l0,-3.34325zm9.305,0l0,8.400126l-1.59,0l0,-2.822442l-0.9,0l-1.905,2.822442l-1.905,0l2.025,-2.990445c-0.52,-0.190403 -0.94,-0.526408 -1.26,-1.008015c-0.31,-0.481607 -0.465,-1.019215 -0.465,-1.612824c0,-0.772812 0.245,-1.428021 0.735,-1.965629c0.5,-0.548808 1.14,-0.823212 1.92,-0.823212l3.345,0zm-3.255,4.01526l1.665,0l0,-2.368835l-1.665,0c-0.33,0 -0.605,0.106402 -0.825,0.319205c-0.22,0.212803 -0.33,0.504008 -0.33,0.873613c0,0.358405 0.11,0.64401 0.33,0.856813c0.22,0.212803 0.495,0.319205 0.825,0.319205zm10.87,-4.01526l0,1.747226l-2.445,0l0,6.6529l-1.62,0l0,-6.6529l-2.46,0l0,-1.747226l6.525,0zm4.366,2.856043c0.8,0 1.455,0.257604 1.965,0.772812c0.51,0.504008 0.765,1.170418 0.765,1.99923c0,0.817612 -0.255,1.484022 -0.765,1.99923c-0.51,0.515208 -1.165,0.772812 -1.965,0.772812l-3.27,0l0,-8.400126l1.62,0l0,2.856043l1.65,0zm0.015,3.914459c0.32,0 0.585,-0.106402 0.795,-0.319205c0.22,-0.212803 0.33,-0.487207 0.33,-0.823212c0,-0.347205 -0.11,-0.621609 -0.33,-0.823212c-0.21,-0.212803 -0.475,-0.319205 -0.795,-0.319205l-1.665,0l0,2.284834l1.665,0zm12.004,-2.67124c0.8,0.403206 1.2,1.069616 1.2,1.99923c0,0.716811 -0.26,1.31602 -0.78,1.797627c-0.52,0.481607 -1.245,0.722411 -2.175,0.722411c-1.51,0 -2.53,-0.67201 -3.06,-2.01603l1.32,-0.873613c0.27,0.840013 0.855,1.260019 1.755,1.260019c0.42,0 0.75,-0.095201 0.99,-0.285604c0.24,-0.201603 0.36,-0.464807 0.36,-0.789612c0,-0.291204 -0.095,-0.520808 -0.285,-0.68881c-0.19,-0.179203 -0.455,-0.268804 -0.795,-0.268804l-1.065,0l0,-1.596024l0.795,0c0.33,0 0.585,-0.084001 0.765,-0.252004c0.19,-0.179203 0.285,-0.420006 0.285,-0.722411c0,-0.291204 -0.105,-0.526408 -0.315,-0.705611c-0.21,-0.190403 -0.49,-0.285604 -0.84,-0.285604c-0.75,0 -1.27,0.369606 -1.56,1.108817l-1.32,-0.840013c0.56,-1.254419 1.51,-1.881628 2.85,-1.881628c0.84,0 1.505,0.240804 1.995,0.722411c0.5,0.470407 0.75,1.047216 0.75,1.730426c0,0.840013 -0.29,1.461622 -0.87,1.864828zm8.464,-4.099261l1.62,0l0,8.400126l-1.62,0l0,-1.209618c-0.61,0.952014 -1.485,1.428021 -2.625,1.428021c-1.03,0 -1.91,-0.425606 -2.64,-1.276819c-0.73,-0.862413 -1.095,-1.909629 -1.095,-3.141647c0,-1.243219 0.365,-2.290434 1.095,-3.141647c0.73,-0.851213 1.61,-1.276819 2.64,-1.276819c1.14,0 2.015,0.470407 2.625,1.411221l0,-1.192818zm-4.065,6.132092c0.45,0.504008 1.015,0.756011 1.695,0.756011c0.68,0 1.245,-0.252004 1.695,-0.756011c0.45,-0.515208 0.675,-1.159217 0.675,-1.932029c0,-0.772812 -0.225,-1.411221 -0.675,-1.915229c-0.45,-0.515208 -1.015,-0.772812 -1.695,-0.772812c-0.68,0 -1.245,0.257604 -1.695,0.772812c-0.45,0.504008 -0.675,1.142417 -0.675,1.915229c0,0.772812 0.225,1.416821 0.675,1.932029zm14.203,2.268034l-1.935,0l-3.075,-3.880858l0,3.880858l-1.62,0l0,-8.400126l1.62,0l0,3.712856l2.91,-3.712856l1.98,0l-3.3,4.116062l3.42,4.284064zm6.429,-8.400126l1.62,0l0,8.400126l-1.62,0l0,-1.209618c-0.61,0.952014 -1.485,1.428021 -2.625,1.428021c-1.03,0 -1.91,-0.425606 -2.64,-1.276819c-0.73,-0.862413 -1.095,-1.909629 -1.095,-3.141647c0,-1.243219 0.365,-2.290434 1.095,-3.141647c0.73,-0.851213 1.61,-1.276819 2.64,-1.276819c1.14,0 2.015,0.470407 2.625,1.411221l0,-1.192818zm-4.065,6.132092c0.45,0.504008 1.015,0.756011 1.695,0.756011c0.68,0 1.245,-0.252004 1.695,-0.756011c0.45,-0.515208 0.675,-1.159217 0.675,-1.932029c0,-0.772812 -0.225,-1.411221 -0.675,-1.915229c-0.45,-0.515208 -1.015,-0.772812 -1.695,-0.772812c-0.68,0 -1.245,0.257604 -1.695,0.772812c-0.45,0.504008 -0.675,1.142417 -0.675,1.915229c0,0.772812 0.225,1.416821 0.675,1.932029zm11.788,-2.03283c0.8,0.403206 1.2,1.069616 1.2,1.99923c0,0.716811 -0.26,1.31602 -0.78,1.797627c-0.52,0.481607 -1.245,0.722411 -2.175,0.722411c-1.51,0 -2.53,-0.67201 -3.06,-2.01603l1.32,-0.873613c0.27,0.840013 0.855,1.260019 1.755,1.260019c0.42,0 0.75,-0.095201 0.99,-0.285604c0.24,-0.201603 0.36,-0.464807 0.36,-0.789612c0,-0.291204 -0.095,-0.520808 -0.285,-0.68881c-0.19,-0.179203 -0.455,-0.268804 -0.795,-0.268804l-1.065,0l0,-1.596024l0.795,0c0.33,0 0.585,-0.084001 0.765,-0.252004c0.19,-0.179203 0.285,-0.420006 0.285,-0.722411c0,-0.291204 -0.105,-0.526408 -0.315,-0.705611c-0.21,-0.190403 -0.49,-0.285604 -0.84,-0.285604c-0.75,0 -1.27,0.369606 -1.56,1.108817l-1.32,-0.840013c0.56,-1.254419 1.51,-1.881628 2.85,-1.881628c0.84,0 1.505,0.240804 1.995,0.722411c0.5,0.470407 0.75,1.047216 0.75,1.730426c0,0.840013 -0.29,1.461622 -0.87,1.864828zm5.794,-1.243219c0.8,0 1.455,0.257604 1.965,0.772812c0.51,0.504008 0.765,1.170418 0.765,1.99923c0,0.817612 -0.255,1.484022 -0.765,1.99923c-0.51,0.515208 -1.165,0.772812 -1.965,0.772812l-3.27,0l0,-8.400126l1.62,0l0,2.856043l1.65,0zm3.63,-2.856043l1.62,0l0,8.400126l-1.62,0l0,-8.400126zm-3.615,6.770501c0.32,0 0.585,-0.106402 0.795,-0.319205c0.22,-0.212803 0.33,-0.487207 0.33,-0.823212c0,-0.347205 -0.11,-0.621609 -0.33,-0.823212c-0.21,-0.212803 -0.475,-0.319205 -0.795,-0.319205l-1.665,0l0,2.284834l1.665,0z"/>
  </g>
 </g>
</svg>