<svg width="375" height="812" xmlns="http://www.w3.org/2000/svg">
 <defs>
  <clipPath id="clip0">
   <rect id="svg_1" fill="white" height="812" width="375"/>
  </clipPath>
 </defs>
 <g>
  <title>background</title>
  <rect fill="none" id="canvas_background" height="402" width="582" y="-1" x="-1"/>
 </g>
 <g>
  <title>Layer 1</title>
  <g stroke="null" id="svg_2" clip-path="url(#clip0)">
   <rect x="0" y="-95.91834" stroke="null" id="svg_3" fill="#FFFBF7" height="907.91834" width="375"/>
   <path stroke="null" id="svg_4" fill="#314E78" d="m55.865,68.446187l-2.055,0l-4.14,-5.58504l0,5.58504l-1.725,0l0,-11.740323l1.725,0l0,5.266374l3.99,-5.266374l2.055,0l-4.245,5.719215l4.395,6.021109zm6.2646,-8.385945l1.62,0l0,8.385945l-1.62,0l0,-1.207576c-0.61,0.950407 -1.485,1.425611 -2.625,1.425611c-1.03,0 -1.91,-0.424888 -2.64,-1.274664c-0.73,-0.860957 -1.095,-1.906405 -1.095,-3.136344c0,-1.24112 0.365,-2.286568 1.095,-3.136344c0.73,-0.849776 1.61,-1.274664 2.64,-1.274664c1.14,0 2.015,0.469613 2.625,1.408839l0,-1.190804zm-4.065,6.12174c0.45,0.503157 1.015,0.754735 1.695,0.754735c0.68,0 1.245,-0.251578 1.695,-0.754735c0.45,-0.514338 0.675,-1.15726 0.675,-1.928767c0,-0.771507 -0.225,-1.408839 -0.675,-1.911996c-0.45,-0.514338 -1.015,-0.771507 -1.695,-0.771507c-0.68,0 -1.245,0.257169 -1.695,0.771507c-0.45,0.503157 -0.675,1.140489 -0.675,1.911996c0,0.771507 0.225,1.414429 0.675,1.928767zm14.2033,2.264205l-1.935,0l-3.075,-3.874307l0,3.874307l-1.62,0l0,-8.385945l1.62,0l0,3.706588l2.91,-3.706588l1.98,0l-3.3,4.109113l3.42,4.276832zm6.5197,-8.385945l1.245,0l0,8.385945l-1.59,0l0,-5.333461l-3.84,5.333461l-1.245,0l0,-8.385945l1.59,0l0,5.316689l3.84,-5.316689zm4.3997,4.96448c0.12,0.637332 0.395,1.129307 0.825,1.475926c0.43,0.335438 0.955,0.503157 1.575,0.503157c0.86,0 1.505,-0.346619 1.935,-1.039857l1.335,0.872138c-0.74,1.218757 -1.835,1.828136 -3.285,1.828136c-1.22,0 -2.205,-0.413707 -2.955,-1.24112c-0.75,-0.838595 -1.125,-1.895224 -1.125,-3.169887c0,-1.252301 0.37,-2.297749 1.11,-3.136344c0.74,-0.849776 1.69,-1.274664 2.85,-1.274664c1.1,0 2,0.430479 2.7,1.291436c0.71,0.860957 1.065,1.906405 1.065,3.136344c0,0.190081 -0.02,0.44166 -0.06,0.754735l-5.97,0zm-0.015,-1.475926l4.41,0c-0.11,-0.682057 -0.365,-1.196395 -0.765,-1.543014c-0.39,-0.346619 -0.85,-0.519929 -1.38,-0.519929c-0.6,0 -1.1,0.184491 -1.5,0.553472c-0.4,0.368982 -0.655,0.872138 -0.765,1.50947zm16.9507,-3.488553l0,1.744277l-2.4452,0l0,6.641669l-1.62,0l0,-6.641669l-2.46,0l0,-1.744277l6.5252,0zm6.526,0l1.245,0l0,8.385945l-1.59,0l0,-5.333461l-3.84,5.333461l-1.245,0l0,-8.385945l1.59,0l0,5.316689l3.84,-5.316689zm9.8,0l0,8.385945l-1.62,0l0,-6.675212l-3.435,0l0,6.675212l-1.62,0l0,-8.385945l6.675,0zm5.149,2.851221c0.8,0 1.455,0.257169 1.965,0.771507c0.51,0.503157 0.765,1.168442 0.765,1.995855c0,0.816232 -0.255,1.481517 -0.765,1.995855c-0.51,0.514338 -1.165,0.771507 -1.965,0.771507l-3.27,0l0,-8.385945l1.62,0l0,2.851221l1.65,0zm3.63,-2.851221l1.62,0l0,8.385945l-1.62,0l0,-8.385945zm-3.615,6.759072c0.32,0 0.585,-0.106222 0.795,-0.318666c0.22,-0.212444 0.33,-0.486385 0.33,-0.821823c0,-0.346619 -0.11,-0.62056 -0.33,-0.821823c-0.21,-0.212444 -0.475,-0.318666 -0.795,-0.318666l-1.665,0l0,2.280977l1.665,0zm15.921,-6.759072l1.725,0l-2.88,8.654296c-0.35,1.06222 -0.84,1.856089 -1.47,2.381608c-0.63,0.525519 -1.36,0.760326 -2.19,0.704419l0,-1.693961c0.51,0.033544 0.92,-0.083859 1.23,-0.35221c0.32,-0.257169 0.575,-0.676466 0.765,-1.257892l0.045,-0.117403l-3.15,-8.318858l1.725,0l2.28,6.104968l1.92,-6.104968zm5.985,8.60398c-1.13,0 -2.075,-0.424888 -2.835,-1.274664c-0.75,-0.849776 -1.125,-1.895224 -1.125,-3.136344c0,-1.252301 0.375,-2.297749 1.125,-3.136344c0.76,-0.849776 1.705,-1.274664 2.835,-1.274664c0.73,0 1.395,0.195672 1.995,0.587016c0.6,0.391344 1.05,0.916863 1.35,1.576558l-1.395,0.905682c-0.17,-0.402525 -0.43,-0.715601 -0.78,-0.939226c-0.34,-0.234806 -0.735,-0.35221 -1.185,-0.35221c-0.66,0 -1.215,0.251578 -1.665,0.754735c-0.44,0.503157 -0.66,1.129307 -0.66,1.878452c0,0.749144 0.22,1.375295 0.66,1.878452c0.45,0.503157 1.005,0.754735 1.665,0.754735c0.44,0 0.835,-0.117403 1.185,-0.35221c0.36,-0.234806 0.63,-0.547882 0.81,-0.939226l1.395,0.88891c-0.32,0.670876 -0.78,1.201985 -1.38,1.59333c-0.6,0.391344 -1.265,0.587016 -1.995,0.587016zm10.773,-8.60398l0,8.385945l-1.62,0l0,-6.641669l-2.505,0l0,3.119572c0,1.33057 -0.26,2.275386 -0.78,2.834449c-0.52,0.559063 -1.26,0.788279 -2.22,0.687648l0,-1.693961c0.46,0.08945 0.805,-0.016772 1.035,-0.318666c0.23,-0.301894 0.345,-0.833004 0.345,-1.59333l0,-4.779989l5.745,0zm6.943,0l1.725,0l-2.88,8.654296c-0.35,1.06222 -0.84,1.856089 -1.47,2.381608c-0.63,0.525519 -1.36,0.760326 -2.19,0.704419l0,-1.693961c0.51,0.033544 0.92,-0.083859 1.23,-0.35221c0.32,-0.257169 0.575,-0.676466 0.765,-1.257892l0.045,-0.117403l-3.15,-8.318858l1.725,0l2.28,6.104968l1.92,-6.104968zm7.763,0l0,1.744277l-3.405,0l0,6.641669l-1.62,0l0,-8.385945l5.025,0zm10.038,4.075569c0.74,0.380163 1.11,1.023085 1.11,1.928767c0,0.704419 -0.215,1.280254 -0.645,1.727505c-0.42,0.436069 -1.025,0.654104 -1.815,0.654104l-3.84,0l0,-8.385945l3.54,0c0.77,0 1.365,0.218035 1.785,0.654104c0.43,0.424888 0.645,0.97836 0.645,1.660417c0,0.793869 -0.26,1.380886 -0.78,1.761049zm-1.77,-2.532555l-1.875,0l0,1.86168l1.875,0c0.66,0 0.99,-0.313075 0.99,-0.939226c0,-0.614969 -0.33,-0.922454 -0.99,-0.922454zm0.27,5.266374c0.68,0 1.02,-0.329847 1.02,-0.989542c0,-0.290713 -0.09,-0.514338 -0.27,-0.670876c-0.18,-0.167719 -0.43,-0.251578 -0.75,-0.251578l-2.145,0l0,1.911996l2.145,0zm7.197,-3.958166c0.8,0 1.455,0.257169 1.965,0.771507c0.51,0.503157 0.765,1.168442 0.765,1.995855c0,0.816232 -0.255,1.481517 -0.765,1.995855c-0.51,0.514338 -1.165,0.771507 -1.965,0.771507l-3.27,0l0,-8.385945l1.62,0l0,2.851221l1.65,0zm3.63,-2.851221l1.62,0l0,8.385945l-1.62,0l0,-8.385945zm-3.615,6.759072c0.32,0 0.585,-0.106222 0.795,-0.318666c0.22,-0.212444 0.33,-0.486385 0.33,-0.821823c0,-0.346619 -0.11,-0.62056 -0.33,-0.821823c-0.21,-0.212444 -0.475,-0.318666 -0.795,-0.318666l-1.665,0l0,2.280977l1.665,0zm17.57,1.626873l-1.875,0l-1.86,-2.867993l-1.875,2.867993l-1.89,0l2.82,-4.310376l-2.67,-4.075569l1.875,0l1.725,2.649959l1.725,-2.649959l1.89,0l-2.67,4.092341l2.805,4.293604zm4.086,0.218035c-1.1,0 -2.035,-0.424888 -2.805,-1.274664c-0.77,-0.849776 -1.155,-1.895224 -1.155,-3.136344c0,-1.24112 0.385,-2.286568 1.155,-3.136344c0.77,-0.849776 1.705,-1.274664 2.805,-1.274664c1.11,0 2.045,0.424888 2.805,1.274664c0.77,0.849776 1.155,1.895224 1.155,3.136344c0,1.24112 -0.385,2.286568 -1.155,3.136344c-0.76,0.849776 -1.695,1.274664 -2.805,1.274664zm-1.665,-2.515784c0.45,0.503157 1.005,0.754735 1.665,0.754735c0.66,0 1.215,-0.251578 1.665,-0.754735c0.45,-0.503157 0.675,-1.134898 0.675,-1.895224c0,-0.760326 -0.225,-1.392067 -0.675,-1.895224c-0.45,-0.503157 -1.005,-0.754735 -1.665,-0.754735c-0.66,0 -1.215,0.251578 -1.665,0.754735c-0.45,0.503157 -0.675,1.134898 -0.675,1.895224c0,0.760326 0.225,1.392067 0.675,1.895224zm12.527,-6.088196l0,1.744277l-2.445,0l0,6.641669l-1.62,0l0,-6.641669l-2.46,0l0,-1.744277l6.525,0zm6.526,0l1.245,0l0,8.385945l-1.59,0l0,-5.333461l-3.84,5.333461l-1.245,0l0,-8.385945l1.59,0l0,5.316689l3.84,-5.316689zm8.855,0l0,1.744277l-2.445,0l0,6.641669l-1.62,0l0,-6.641669l-2.46,0l0,-1.744277l6.525,0zm2.078,4.96448c0.12,0.637332 0.395,1.129307 0.825,1.475926c0.43,0.335438 0.955,0.503157 1.575,0.503157c0.86,0 1.505,-0.346619 1.935,-1.039857l1.335,0.872138c-0.74,1.218757 -1.835,1.828136 -3.285,1.828136c-1.22,0 -2.205,-0.413707 -2.955,-1.24112c-0.75,-0.838595 -1.125,-1.895224 -1.125,-3.169887c0,-1.252301 0.37,-2.297749 1.11,-3.136344c0.74,-0.849776 1.69,-1.274664 2.85,-1.274664c1.1,0 2,0.430479 2.7,1.291436c0.71,0.860957 1.065,1.906405 1.065,3.136344c0,0.190081 -0.02,0.44166 -0.06,0.754735l-5.97,0zm-0.015,-1.475926l4.41,0c-0.11,-0.682057 -0.365,-1.196395 -0.765,-1.543014c-0.39,-0.346619 -0.85,-0.519929 -1.38,-0.519929c-0.6,0 -1.1,0.184491 -1.5,0.553472c-0.4,0.368982 -0.655,0.872138 -0.765,1.50947zm16.411,0.587016c0.74,0.380163 1.11,1.023085 1.11,1.928767c0,0.704419 -0.215,1.280254 -0.645,1.727505c-0.42,0.436069 -1.025,0.654104 -1.815,0.654104l-3.84,0l0,-8.385945l3.54,0c0.77,0 1.365,0.218035 1.785,0.654104c0.43,0.424888 0.645,0.97836 0.645,1.660417c0,0.793869 -0.26,1.380886 -0.78,1.761049zm-1.77,-2.532555l-1.875,0l0,1.86168l1.875,0c0.66,0 0.99,-0.313075 0.99,-0.939226c0,-0.614969 -0.33,-0.922454 -0.99,-0.922454zm0.27,5.266374c0.68,0 1.02,-0.329847 1.02,-0.989542c0,-0.290713 -0.09,-0.514338 -0.27,-0.670876c-0.18,-0.167719 -0.43,-0.251578 -0.75,-0.251578l-2.145,0l0,1.911996l2.145,0zm7.197,-3.958166c0.8,0 1.455,0.257169 1.965,0.771507c0.51,0.503157 0.765,1.168442 0.765,1.995855c0,0.816232 -0.255,1.481517 -0.765,1.995855c-0.51,0.514338 -1.165,0.771507 -1.965,0.771507l-3.27,0l0,-8.385945l1.62,0l0,2.851221l1.65,0zm3.63,-2.851221l1.62,0l0,8.385945l-1.62,0l0,-8.385945zm-3.615,6.759072c0.32,0 0.585,-0.106222 0.795,-0.318666c0.22,-0.212444 0.33,-0.486385 0.33,-0.821823c0,-0.346619 -0.11,-0.62056 -0.33,-0.821823c-0.21,-0.212444 -0.475,-0.318666 -0.795,-0.318666l-1.665,0l0,2.280977l1.665,0zm13.79,-6.759072l0,8.385945l-1.62,0l0,-6.675212l-3.435,0l0,6.675212l-1.62,0l0,-8.385945l6.675,0zm5.42,8.60398c-1.1,0 -2.035,-0.424888 -2.805,-1.274664c-0.77,-0.849776 -1.155,-1.895224 -1.155,-3.136344c0,-1.24112 0.385,-2.286568 1.155,-3.136344c0.77,-0.849776 1.705,-1.274664 2.805,-1.274664c1.11,0 2.045,0.424888 2.805,1.274664c0.77,0.849776 1.155,1.895224 1.155,3.136344c0,1.24112 -0.385,2.286568 -1.155,3.136344c-0.76,0.849776 -1.695,1.274664 -2.805,1.274664zm-1.665,-2.515784c0.45,0.503157 1.005,0.754735 1.665,0.754735c0.66,0 1.215,-0.251578 1.665,-0.754735c0.45,-0.503157 0.675,-1.134898 0.675,-1.895224c0,-0.760326 -0.225,-1.392067 -0.675,-1.895224c-0.45,-0.503157 -1.005,-0.754735 -1.665,-0.754735c-0.66,0 -1.215,0.251578 -1.665,0.754735c-0.45,0.503157 -0.675,1.134898 -0.675,1.895224c0,0.760326 0.225,1.392067 0.675,1.895224zm13.2,-6.088196l0,8.385945l-1.62,0l0,-6.641669l-2.505,0l0,3.119572c0,1.33057 -0.26,2.275386 -0.78,2.834449c-0.52,0.559063 -1.26,0.788279 -2.22,0.687648l0,-1.693961c0.46,0.08945 0.805,-0.016772 1.035,-0.318666c0.23,-0.301894 0.345,-0.833004 0.345,-1.59333l0,-4.779989l5.745,0zm6.943,0l1.62,0l0,8.385945l-1.62,0l0,-3.337606l-3.435,0l0,3.337606l-1.62,0l0,-8.385945l1.62,0l0,3.337606l3.435,0l0,-3.337606zm9.305,0l0,8.385945l-1.59,0l0,-2.817678l-0.9,0l-1.905,2.817678l-1.905,0l2.025,-2.985397c-0.52,-0.190081 -0.94,-0.525519 -1.26,-1.006313c-0.31,-0.480794 -0.465,-1.017495 -0.465,-1.610101c0,-0.771507 0.245,-1.425611 0.735,-1.962311c0.5,-0.547882 1.14,-0.821823 1.92,-0.821823l3.345,0zm-3.255,4.008482l1.665,0l0,-2.364837l-1.665,0c-0.33,0 -0.605,0.106222 -0.825,0.318666c-0.22,0.212444 -0.33,0.503157 -0.33,0.872138c0,0.3578 0.11,0.642922 0.33,0.855366c0.22,0.212444 0.495,0.318666 0.825,0.318666zm10.87,-4.008482l0,1.744277l-2.445,0l0,6.641669l-1.62,0l0,-6.641669l-2.46,0l0,-1.744277l6.525,0zm4.366,2.851221c0.8,0 1.455,0.257169 1.965,0.771507c0.51,0.503157 0.765,1.168442 0.765,1.995855c0,0.816232 -0.255,1.481517 -0.765,1.995855c-0.51,0.514338 -1.165,0.771507 -1.965,0.771507l-3.27,0l0,-8.385945l1.62,0l0,2.851221l1.65,0zm0.015,3.90785c0.32,0 0.585,-0.106222 0.795,-0.318666c0.22,-0.212444 0.33,-0.486385 0.33,-0.821823c0,-0.346619 -0.11,-0.62056 -0.33,-0.821823c-0.21,-0.212444 -0.475,-0.318666 -0.795,-0.318666l-1.665,0l0,2.280977l1.665,0zm6.095,-2.062943c0,-0.458432 0.09,-0.88332 0.27,-1.274664c0.18,-0.391344 0.4,-0.726782 0.66,-1.006313c0.26,-0.290713 0.52,-0.564654 0.78,-0.821823c0.26,-0.26835 0.48,-0.553472 0.66,-0.855366c0.18,-0.313075 0.27,-0.637332 0.27,-0.97277c0,-0.469613 -0.145,-0.827413 -0.435,-1.073401c-0.29,-0.257169 -0.68,-0.385753 -1.17,-0.385753c-0.47,0 -0.875,0.134175 -1.215,0.402525c-0.34,0.26835 -0.585,0.648513 -0.735,1.140489l-1.485,-0.939226c0.28,-0.793869 0.73,-1.403248 1.35,-1.828136c0.63,-0.436069 1.34,-0.654104 2.13,-0.654104c0.89,0 1.66,0.285122 2.31,0.855366c0.65,0.570244 0.975,1.358523 0.975,2.364837c0,0.469613 -0.09,0.911273 -0.27,1.324979c-0.18,0.402525 -0.4,0.749144 -0.66,1.039857c-0.26,0.290713 -0.52,0.575835 -0.78,0.855366c-0.26,0.26835 -0.48,0.559063 -0.66,0.872138c-0.18,0.313075 -0.27,0.631741 -0.27,0.955998l-1.725,0zm1.665,3.522097c-0.22,0.245988 -0.485,0.368982 -0.795,0.368982c-0.31,0 -0.575,-0.122994 -0.795,-0.368982c-0.22,-0.245988 -0.33,-0.542291 -0.33,-0.88891c0,-0.346619 0.105,-0.642922 0.315,-0.88891c0.22,-0.245988 0.49,-0.368982 0.81,-0.368982c0.31,0 0.575,0.122994 0.795,0.368982c0.22,0.245988 0.33,0.542291 0.33,0.88891c0,0.346619 -0.11,0.642922 -0.33,0.88891zm-286.6532,10.789916l1.74,0l-3.255,8.721383c-0.8,2.135621 -2.095,3.141934 -3.885,3.01894l0,-1.794592c0.59,0.067088 1.065,-0.033544 1.425,-0.301894c0.37,-0.26835 0.665,-0.715601 0.885,-1.341751l-3.495,-8.302086l1.74,0l2.55,6.188828l2.295,-6.188828zm9.0085,11.740323l-1.935,0l-3.075,-3.874307l0,3.874307l-1.62,0l0,-8.385945l1.62,0l0,3.706588l2.91,-3.706588l1.98,0l-3.3,4.109113l3.42,4.276832zm6.4291,-8.385945l1.62,0l0,8.385945l-1.62,0l0,-1.207576c-0.61,0.950407 -1.485,1.425611 -2.625,1.425611c-1.03,0 -1.91,-0.424888 -2.64,-1.274664c-0.73,-0.860957 -1.095,-1.906405 -1.095,-3.136344c0,-1.24112 0.365,-2.286568 1.095,-3.136344c0.73,-0.849776 1.61,-1.274664 2.64,-1.274664c1.14,0 2.015,0.469613 2.625,1.408839l0,-1.190804zm-4.065,6.12174c0.45,0.503157 1.015,0.754735 1.695,0.754735c0.68,0 1.245,-0.251578 1.695,-0.754735c0.45,-0.514338 0.675,-1.15726 0.675,-1.928767c0,-0.771507 -0.225,-1.408839 -0.675,-1.911996c-0.45,-0.514338 -1.015,-0.771507 -1.695,-0.771507c-0.68,0 -1.245,0.257169 -1.695,0.771507c-0.45,0.503157 -0.675,1.140489 -0.675,1.911996c0,0.771507 0.225,1.414429 0.675,1.928767zm17.2333,2.264205l-1.845,0l-2.55,-3.874307l0,3.874307l-1.59,0l0,-3.840763l-2.55,3.840763l-1.845,0l2.925,-4.276832l-2.775,-4.109113l1.845,0l2.4,3.673044l0,-3.673044l1.59,0l0,3.689816l2.4,-3.689816l1.845,0l-2.775,4.109113l2.925,4.276832zm6.5952,-8.385945l1.245,0l0,8.385945l-1.59,0l0,-5.333461l-3.84,5.333461l-1.245,0l0,-8.385945l1.59,0l0,5.316689l3.84,-5.316689zm8.8547,0l0,1.744277l-2.445,0l0,6.641669l-1.62,0l0,-6.641669l-2.46,0l0,-1.744277l6.525,0zm2.0782,4.96448c0.12,0.637332 0.395,1.129307 0.825,1.475926c0.43,0.335438 0.955,0.503157 1.575,0.503157c0.86,0 1.505,-0.346619 1.935,-1.039857l1.335,0.872138c-0.74,1.218757 -1.835,1.828136 -3.285,1.828136c-1.22,0 -2.205,-0.413707 -2.955,-1.24112c-0.75,-0.838595 -1.125,-1.895224 -1.125,-3.169887c0,-1.252301 0.37,-2.297749 1.11,-3.136344c0.74,-0.849776 1.69,-1.274664 2.85,-1.274664c1.1,0 2,0.430479 2.7,1.291436c0.71,0.860957 1.065,1.906405 1.065,3.136344c0,0.190081 -0.02,0.44166 -0.06,0.754735l-5.97,0zm-0.015,-1.475926l4.41,0c-0.11,-0.682057 -0.365,-1.196395 -0.765,-1.543014c-0.39,-0.346619 -0.85,-0.519929 -1.38,-0.519929c-0.6,0 -1.1,0.184491 -1.5,0.553472c-0.4,0.368982 -0.655,0.872138 -0.765,1.50947zm16.6504,-3.488553l1.2448,0l0,8.385945l-1.5898,0l0,-5.333461l-3.84,5.333461l-1.245,0l0,-8.385945l1.59,0l0,5.316689l3.84,-5.316689zm9.8298,8.385945l-1.875,0l-1.86,-2.867993l-1.875,2.867993l-1.89,0l2.82,-4.310376l-2.67,-4.075569l1.875,0l1.725,2.649959l1.725,-2.649959l1.89,0l-2.67,4.092341l2.805,4.293604zm8.378,0.218035c-1.13,0 -2.075,-0.424888 -2.835,-1.274664c-0.75,-0.849776 -1.125,-1.895224 -1.125,-3.136344c0,-1.252301 0.375,-2.297749 1.125,-3.136344c0.76,-0.849776 1.705,-1.274664 2.835,-1.274664c0.73,0 1.395,0.195672 1.995,0.587016c0.6,0.391344 1.05,0.916863 1.35,1.576558l-1.395,0.905682c-0.17,-0.402525 -0.43,-0.715601 -0.78,-0.939226c-0.34,-0.234806 -0.735,-0.35221 -1.185,-0.35221c-0.66,0 -1.215,0.251578 -1.665,0.754735c-0.44,0.503157 -0.66,1.129307 -0.66,1.878452c0,0.749144 0.22,1.375295 0.66,1.878452c0.45,0.503157 1.005,0.754735 1.665,0.754735c0.44,0 0.835,-0.117403 1.185,-0.35221c0.36,-0.234806 0.63,-0.547882 0.81,-0.939226l1.395,0.88891c-0.32,0.670876 -0.78,1.201985 -1.38,1.59333c-0.6,0.391344 -1.265,0.587016 -1.995,0.587016zm10.203,-8.60398l0,1.744277l-2.445,0l0,6.641669l-1.62,0l0,-6.641669l-2.46,0l0,-1.744277l6.525,0zm4.343,8.60398c-1.1,0 -2.035,-0.424888 -2.805,-1.274664c-0.77,-0.849776 -1.155,-1.895224 -1.155,-3.136344c0,-1.24112 0.385,-2.286568 1.155,-3.136344c0.77,-0.849776 1.705,-1.274664 2.805,-1.274664c1.11,0 2.045,0.424888 2.805,1.274664c0.77,0.849776 1.155,1.895224 1.155,3.136344c0,1.24112 -0.385,2.286568 -1.155,3.136344c-0.76,0.849776 -1.695,1.274664 -2.805,1.274664zm-1.665,-2.515784c0.45,0.503157 1.005,0.754735 1.665,0.754735c0.66,0 1.215,-0.251578 1.665,-0.754735c0.45,-0.503157 0.675,-1.134898 0.675,-1.895224c0,-0.760326 -0.225,-1.392067 -0.675,-1.895224c-0.45,-0.503157 -1.005,-0.754735 -1.665,-0.754735c-0.66,0 -1.215,0.251578 -1.665,0.754735c-0.45,0.503157 -0.675,1.134898 -0.675,1.895224c0,0.760326 0.225,1.392067 0.675,1.895224zm12.52,-6.088196l1.245,0l0,8.385945l-1.59,0l0,-5.333461l-3.84,5.333461l-1.245,0l0,-8.385945l1.59,0l0,5.316689l3.84,-5.316689zm10.774,0l0,8.385945l-1.575,0l0,-5.517952l-2.16,3.840763l-0.195,0l-2.145,-3.823991l0,5.50118l-1.575,0l0,-8.385945l1.65,0l2.175,3.874307l2.175,-3.874307l1.65,0zm5.412,8.60398c-1.1,0 -2.035,-0.424888 -2.805,-1.274664c-0.77,-0.849776 -1.155,-1.895224 -1.155,-3.136344c0,-1.24112 0.385,-2.286568 1.155,-3.136344c0.77,-0.849776 1.705,-1.274664 2.805,-1.274664c1.11,0 2.045,0.424888 2.805,1.274664c0.77,0.849776 1.155,1.895224 1.155,3.136344c0,1.24112 -0.385,2.286568 -1.155,3.136344c-0.76,0.849776 -1.695,1.274664 -2.805,1.274664zm-1.665,-2.515784c0.45,0.503157 1.005,0.754735 1.665,0.754735c0.66,0 1.215,-0.251578 1.665,-0.754735c0.45,-0.503157 0.675,-1.134898 0.675,-1.895224c0,-0.760326 -0.225,-1.392067 -0.675,-1.895224c-0.45,-0.503157 -1.005,-0.754735 -1.665,-0.754735c-0.66,0 -1.215,0.251578 -1.665,0.754735c-0.45,0.503157 -0.675,1.134898 -0.675,1.895224c0,0.760326 0.225,1.392067 0.675,1.895224zm10.63,2.515784c-1.13,0 -2.075,-0.424888 -2.835,-1.274664c-0.75,-0.849776 -1.125,-1.895224 -1.125,-3.136344c0,-1.252301 0.375,-2.297749 1.125,-3.136344c0.76,-0.849776 1.705,-1.274664 2.835,-1.274664c0.73,0 1.395,0.195672 1.995,0.587016c0.6,0.391344 1.05,0.916863 1.35,1.576558l-1.395,0.905682c-0.17,-0.402525 -0.43,-0.715601 -0.78,-0.939226c-0.34,-0.234806 -0.735,-0.35221 -1.185,-0.35221c-0.66,0 -1.215,0.251578 -1.665,0.754735c-0.44,0.503157 -0.66,1.129307 -0.66,1.878452c0,0.749144 0.22,1.375295 0.66,1.878452c0.45,0.503157 1.005,0.754735 1.665,0.754735c0.44,0 0.835,-0.117403 1.185,-0.35221c0.36,-0.234806 0.63,-0.547882 0.81,-0.939226l1.395,0.88891c-0.32,0.670876 -0.78,1.201985 -1.38,1.59333c-0.6,0.391344 -1.265,0.587016 -1.995,0.587016zm10.202,-8.60398l0,1.744277l-2.445,0l0,6.641669l-1.62,0l0,-6.641669l-2.46,0l0,-1.744277l6.525,0zm4.367,2.851221c0.8,0 1.455,0.257169 1.965,0.771507c0.51,0.503157 0.765,1.168442 0.765,1.995855c0,0.816232 -0.255,1.481517 -0.765,1.995855c-0.51,0.514338 -1.165,0.771507 -1.965,0.771507l-3.27,0l0,-8.385945l1.62,0l0,2.851221l1.65,0zm0.015,3.90785c0.32,0 0.585,-0.106222 0.795,-0.318666c0.22,-0.212444 0.33,-0.486385 0.33,-0.821823c0,-0.346619 -0.11,-0.62056 -0.33,-0.821823c-0.21,-0.212444 -0.475,-0.318666 -0.795,-0.318666l-1.665,0l0,2.280977l1.665,0zm13.219,-6.759072l1.245,0l0,8.385945l-1.59,0l0,-5.333461l-3.84,5.333461l-1.245,0l0,-8.385945l1.59,0l0,5.316689l3.84,-5.316689zm13.549,0l0,8.385945l-1.62,0l0,-6.675212l-3.435,0l0,6.675212l-1.62,0l0,-8.385945l6.675,0zm6.125,-0.218035c1.03,0 1.91,0.430479 2.64,1.291436c0.73,0.849776 1.095,1.889633 1.095,3.119572c0,1.24112 -0.365,2.286568 -1.095,3.136344c-0.73,0.849776 -1.61,1.274664 -2.64,1.274664c-1.14,0 -2.015,-0.469613 -2.625,-1.408839l0,4.545182l-1.62,0l0,-11.740323l1.62,0l0,1.207576c0.61,-0.950407 1.485,-1.425611 2.625,-1.425611zm-1.95,6.339775c0.45,0.503157 1.015,0.754735 1.695,0.754735c0.68,0 1.245,-0.251578 1.695,-0.754735c0.45,-0.514338 0.675,-1.15726 0.675,-1.928767c0,-0.771507 -0.225,-1.408839 -0.675,-1.911996c-0.45,-0.514338 -1.015,-0.771507 -1.695,-0.771507c-0.68,0 -1.245,0.257169 -1.695,0.771507c-0.45,0.503157 -0.675,1.140489 -0.675,1.911996c0,0.771507 0.225,1.414429 0.675,1.928767zm10.693,2.48224c-1.1,0 -2.035,-0.424888 -2.805,-1.274664c-0.77,-0.849776 -1.155,-1.895224 -1.155,-3.136344c0,-1.24112 0.385,-2.286568 1.155,-3.136344c0.77,-0.849776 1.705,-1.274664 2.805,-1.274664c1.11,0 2.045,0.424888 2.805,1.274664c0.77,0.849776 1.155,1.895224 1.155,3.136344c0,1.24112 -0.385,2.286568 -1.155,3.136344c-0.76,0.849776 -1.695,1.274664 -2.805,1.274664zm-1.665,-2.515784c0.45,0.503157 1.005,0.754735 1.665,0.754735c0.66,0 1.215,-0.251578 1.665,-0.754735c0.45,-0.503157 0.675,-1.134898 0.675,-1.895224c0,-0.760326 -0.225,-1.392067 -0.675,-1.895224c-0.45,-0.503157 -1.005,-0.754735 -1.665,-0.754735c-0.66,0 -1.215,0.251578 -1.665,0.754735c-0.45,0.503157 -0.675,1.134898 -0.675,1.895224c0,0.760326 0.225,1.392067 0.675,1.895224zm13.397,0.587016l1.005,0l0,3.958166l-1.59,0l0,-2.247433l-5.145,0l0,2.247433l-1.59,0l0,-3.958166l0.915,0c0.46,-0.726782 0.69,-1.738686 0.69,-3.035712l0,-3.6395l5.715,0l0,6.675212zm-4.62,0l3.03,0l0,-5.014795l-2.535,0l0,1.979083c0,1.196395 -0.165,2.208299 -0.495,3.035712zm10.188,1.928767c-1.1,0 -2.035,-0.424888 -2.805,-1.274664c-0.77,-0.849776 -1.155,-1.895224 -1.155,-3.136344c0,-1.24112 0.385,-2.286568 1.155,-3.136344c0.77,-0.849776 1.705,-1.274664 2.805,-1.274664c1.11,0 2.045,0.424888 2.805,1.274664c0.77,0.849776 1.155,1.895224 1.155,3.136344c0,1.24112 -0.385,2.286568 -1.155,3.136344c-0.76,0.849776 -1.695,1.274664 -2.805,1.274664zm-1.665,-2.515784c0.45,0.503157 1.005,0.754735 1.665,0.754735c0.66,0 1.215,-0.251578 1.665,-0.754735c0.45,-0.503157 0.675,-1.134898 0.675,-1.895224c0,-0.760326 -0.225,-1.392067 -0.675,-1.895224c-0.45,-0.503157 -1.005,-0.754735 -1.665,-0.754735c-0.66,0 -1.215,0.251578 -1.665,0.754735c-0.45,0.503157 -0.675,1.134898 -0.675,1.895224c0,0.760326 0.225,1.392067 0.675,1.895224zm13.2,-6.088196l0,8.385945l-1.62,0l0,-6.641669l-2.505,0l0,3.119572c0,1.33057 -0.26,2.275386 -0.78,2.834449c-0.52,0.559063 -1.26,0.788279 -2.22,0.687648l0,-1.693961c0.46,0.08945 0.805,-0.016772 1.035,-0.318666c0.23,-0.301894 0.345,-0.833004 0.345,-1.59333l0,-4.779989l5.745,0zm11.548,8.385945l-1.845,0l-2.55,-3.874307l0,3.874307l-1.59,0l0,-3.840763l-2.55,3.840763l-1.845,0l2.925,-4.276832l-2.775,-4.109113l1.845,0l2.4,3.673044l0,-3.673044l1.59,0l0,3.689816l2.4,-3.689816l1.845,0l-2.775,4.109113l2.925,4.276832zm6.595,-8.385945l1.245,0l0,8.385945l-1.59,0l0,-5.333461l-3.84,5.333461l-1.245,0l0,-8.385945l1.59,0l0,5.316689l3.84,-5.316689zm8.855,0l0,1.744277l-2.445,0l0,6.641669l-1.62,0l0,-6.641669l-2.46,0l0,-1.744277l6.525,0zm2.078,4.96448c0.12,0.637332 0.395,1.129307 0.825,1.475926c0.43,0.335438 0.955,0.503157 1.575,0.503157c0.86,0 1.505,-0.346619 1.935,-1.039857l1.335,0.872138c-0.74,1.218757 -1.835,1.828136 -3.285,1.828136c-1.22,0 -2.205,-0.413707 -2.955,-1.24112c-0.75,-0.838595 -1.125,-1.895224 -1.125,-3.169887c0,-1.252301 0.37,-2.297749 1.11,-3.136344c0.74,-0.849776 1.69,-1.274664 2.85,-1.274664c1.1,0 2,0.430479 2.7,1.291436c0.71,0.860957 1.065,1.906405 1.065,3.136344c0,0.190081 -0.02,0.44166 -0.06,0.754735l-5.97,0zm-0.015,-1.475926l4.41,0c-0.11,-0.682057 -0.365,-1.196395 -0.765,-1.543014c-0.39,-0.346619 -0.85,-0.519929 -1.38,-0.519929c-0.6,0 -1.1,0.184491 -1.5,0.553472c-0.4,0.368982 -0.655,0.872138 -0.765,1.50947zm13.508,-3.488553l0,8.385945l-1.62,0l0,-6.641669l-2.505,0l0,3.119572c0,1.33057 -0.26,2.275386 -0.78,2.834449c-0.52,0.559063 -1.26,0.788279 -2.22,0.687648l0,-1.693961c0.46,0.08945 0.805,-0.016772 1.035,-0.318666c0.23,-0.301894 0.345,-0.833004 0.345,-1.59333l0,-4.779989l5.745,0zm5.157,2.851221c0.8,0 1.455,0.257169 1.965,0.771507c0.51,0.503157 0.765,1.168442 0.765,1.995855c0,0.816232 -0.255,1.481517 -0.765,1.995855c-0.51,0.514338 -1.165,0.771507 -1.965,0.771507l-3.27,0l0,-8.385945l1.62,0l0,2.851221l1.65,0zm0.015,3.90785c0.32,0 0.585,-0.106222 0.795,-0.318666c0.22,-0.212444 0.33,-0.486385 0.33,-0.821823c0,-0.346619 -0.11,-0.62056 -0.33,-0.821823c-0.21,-0.212444 -0.475,-0.318666 -0.795,-0.318666l-1.665,0l0,2.280977l1.665,0zm9.095,-6.759072l1.62,0l0,8.385945l-1.62,0l0,-3.337606l-3.435,0l0,3.337606l-1.62,0l0,-8.385945l1.62,0l0,3.337606l3.435,0l0,-3.337606zm7.039,8.60398c-1.1,0 -2.035,-0.424888 -2.805,-1.274664c-0.77,-0.849776 -1.155,-1.895224 -1.155,-3.136344c0,-1.24112 0.385,-2.286568 1.155,-3.136344c0.77,-0.849776 1.705,-1.274664 2.805,-1.274664c1.11,0 2.045,0.424888 2.805,1.274664c0.77,0.849776 1.155,1.895224 1.155,3.136344c0,1.24112 -0.385,2.286568 -1.155,3.136344c-0.76,0.849776 -1.695,1.274664 -2.805,1.274664zm-1.665,-2.515784c0.45,0.503157 1.005,0.754735 1.665,0.754735c0.66,0 1.215,-0.251578 1.665,-0.754735c0.45,-0.503157 0.675,-1.134898 0.675,-1.895224c0,-0.760326 -0.225,-1.392067 -0.675,-1.895224c-0.45,-0.503157 -1.005,-0.754735 -1.665,-0.754735c-0.66,0 -1.215,0.251578 -1.665,0.754735c-0.45,0.503157 -0.675,1.134898 -0.675,1.895224c0,0.760326 0.225,1.392067 0.675,1.895224zm10.63,2.515784c-1.13,0 -2.075,-0.424888 -2.835,-1.274664c-0.75,-0.849776 -1.125,-1.895224 -1.125,-3.136344c0,-1.252301 0.375,-2.297749 1.125,-3.136344c0.76,-0.849776 1.705,-1.274664 2.835,-1.274664c0.73,0 1.395,0.195672 1.995,0.587016c0.6,0.391344 1.05,0.916863 1.35,1.576558l-1.395,0.905682c-0.17,-0.402525 -0.43,-0.715601 -0.78,-0.939226c-0.34,-0.234806 -0.735,-0.35221 -1.185,-0.35221c-0.66,0 -1.215,0.251578 -1.665,0.754735c-0.44,0.503157 -0.66,1.129307 -0.66,1.878452c0,0.749144 0.22,1.375295 0.66,1.878452c0.45,0.503157 1.005,0.754735 1.665,0.754735c0.44,0 0.835,-0.117403 1.185,-0.35221c0.36,-0.234806 0.63,-0.547882 0.81,-0.939226l1.395,0.88891c-0.32,0.670876 -0.78,1.201985 -1.38,1.59333c-0.6,0.391344 -1.265,0.587016 -1.995,0.587016zm10.203,-8.60398l0,1.744277l-2.445,0l0,6.641669l-1.62,0l0,-6.641669l-2.46,0l0,-1.744277l6.525,0zm4.366,2.851221c0.8,0 1.455,0.257169 1.965,0.771507c0.51,0.503157 0.765,1.168442 0.765,1.995855c0,0.816232 -0.255,1.481517 -0.765,1.995855c-0.51,0.514338 -1.165,0.771507 -1.965,0.771507l-3.27,0l0,-8.385945l1.62,0l0,2.851221l1.65,0zm0.015,3.90785c0.32,0 0.585,-0.106222 0.795,-0.318666c0.22,-0.212444 0.33,-0.486385 0.33,-0.821823c0,-0.346619 -0.11,-0.62056 -0.33,-0.821823c-0.21,-0.212444 -0.475,-0.318666 -0.795,-0.318666l-1.665,0l0,2.280977l1.665,0z"/>
  </g>
 </g>
</svg>