<svg width="225" height="179" viewBox="0 0 225 179" fill="none" xmlns="http://www.w3.org/2000/svg">
<rect opacity="0.7" x="1" y="1" width="223" height="177" rx="29" fill="white" stroke="url(#paint0_linear)" stroke-width="2"/>
<path d="M112.5 72.9286L124.436 60.9928C124.826 60.6023 125.459 60.6023 125.85 60.9928L141.707 76.85C141.895 77.0375 142 77.2919 142 77.5571V86C142 90.4183 138.418 94 134 94H91C86.5817 94 83 90.4183 83 86V81.3571M142 80.3571V43C142 38.5817 138.418 35 134 35H91C86.5817 35 83 38.5817 83 43V83.1572C83 84.0481 84.0771 84.4943 84.7071 83.8643L103.364 65.2071C103.755 64.8166 104.388 64.8166 104.779 65.2071L120.636 81.0642C120.823 81.2518 121.078 81.3571 121.343 81.3571H141C141.552 81.3571 142 80.9094 142 80.3571Z" stroke="url(#paint1_linear)" stroke-width="2" stroke-linecap="round" stroke-linejoin="round"/>
<path d="M99.8572 56.0713C103.348 56.0713 106.179 53.2411 106.179 49.7499C106.179 46.2587 103.348 43.4285 99.8572 43.4285C96.366 43.4285 93.5358 46.2587 93.5358 49.7499C93.5358 53.2411 96.366 56.0713 99.8572 56.0713Z" stroke="url(#paint2_linear)" stroke-width="2" stroke-linecap="round" stroke-linejoin="round"/>
<path d="M54.0191 135.8H55.5191V140.68H53.2191V138H44.7191V140.68H42.4191V135.8H43.7191C44.5325 134.733 44.9391 133.127 44.9391 130.98V124H54.0191V135.8ZM46.2391 135.8H51.7191V126.16H47.2391V131.02C47.2391 133.1 46.9058 134.693 46.2391 135.8ZM61.7124 138.26C60.2458 138.26 58.9991 137.753 57.9724 136.74C56.9458 135.727 56.4324 134.48 56.4324 133C56.4324 131.52 56.9458 130.273 57.9724 129.26C58.9991 128.247 60.2458 127.74 61.7124 127.74C63.1924 127.74 64.4391 128.247 65.4524 129.26C66.4791 130.273 66.9924 131.52 66.9924 133C66.9924 134.48 66.4791 135.727 65.4524 136.74C64.4391 137.753 63.1924 138.26 61.7124 138.26ZM59.4924 135.26C60.0924 135.86 60.8324 136.16 61.7124 136.16C62.5924 136.16 63.3324 135.86 63.9324 135.26C64.5324 134.66 64.8324 133.907 64.8324 133C64.8324 132.093 64.5324 131.34 63.9324 130.74C63.3324 130.14 62.5924 129.84 61.7124 129.84C60.8324 129.84 60.0924 130.14 59.4924 130.74C58.8924 131.34 58.5924 132.093 58.5924 133C58.5924 133.907 58.8924 134.66 59.4924 135.26ZM73.5855 138.26C72.0522 138.26 70.7989 137.767 69.8255 136.78C68.8655 135.78 68.3855 134.507 68.3855 132.96C68.3855 131.267 68.6389 129.96 69.1455 129.04C69.6522 128.107 70.6789 127.26 72.2255 126.5C72.4789 126.38 72.8522 126.207 73.3455 125.98C73.8522 125.753 74.1989 125.593 74.3855 125.5C74.5722 125.393 74.8055 125.247 75.0855 125.06C75.3655 124.86 75.5722 124.653 75.7055 124.44C75.8389 124.213 75.9455 123.947 76.0255 123.64L77.7855 124.66C77.7322 124.953 77.6455 125.227 77.5255 125.48C77.4055 125.72 77.2322 125.947 77.0055 126.16C76.7789 126.373 76.5789 126.547 76.4055 126.68C76.2455 126.813 75.9722 126.973 75.5855 127.16C75.1989 127.347 74.9122 127.48 74.7255 127.56C74.5522 127.64 74.2189 127.78 73.7255 127.98C72.8455 128.327 72.1989 128.687 71.7855 129.06C71.3855 129.42 71.1055 129.873 70.9455 130.42C71.7455 129.513 72.8322 129.06 74.2055 129.06C75.3789 129.06 76.3989 129.48 77.2655 130.32C78.1455 131.16 78.5855 132.247 78.5855 133.58C78.5855 134.94 78.1189 136.06 77.1855 136.94C76.2655 137.82 75.0655 138.26 73.5855 138.26ZM73.5655 136.24C74.4055 136.24 75.0922 135.993 75.6255 135.5C76.1589 134.993 76.4255 134.353 76.4255 133.58C76.4255 132.793 76.1589 132.147 75.6255 131.64C75.1055 131.133 74.4255 130.88 73.5855 130.88C72.8389 130.88 72.1655 131.12 71.5655 131.6C70.9655 132.067 70.6655 132.693 70.6655 133.48C70.6655 134.28 70.9455 134.94 71.5055 135.46C72.0655 135.98 72.7522 136.24 73.5655 136.24ZM88.2132 128H90.3732V138H88.2132V136.56C87.3999 137.693 86.2332 138.26 84.7132 138.26C83.3399 138.26 82.1665 137.753 81.1932 136.74C80.2199 135.713 79.7332 134.467 79.7332 133C79.7332 131.52 80.2199 130.273 81.1932 129.26C82.1665 128.247 83.3399 127.74 84.7132 127.74C86.2332 127.74 87.3999 128.3 88.2132 129.42V128ZM82.7932 135.3C83.3932 135.9 84.1465 136.2 85.0532 136.2C85.9599 136.2 86.7132 135.9 87.3132 135.3C87.9132 134.687 88.2132 133.92 88.2132 133C88.2132 132.08 87.9132 131.32 87.3132 130.72C86.7132 130.107 85.9599 129.8 85.0532 129.8C84.1465 129.8 83.3932 130.107 82.7932 130.72C82.1932 131.32 81.8932 132.08 81.8932 133C81.8932 133.92 82.1932 134.687 82.7932 135.3ZM99.8109 132.86C100.798 133.313 101.291 134.08 101.291 135.16C101.291 136 101.004 136.687 100.431 137.22C99.8709 137.74 99.0642 138 98.0109 138H92.8909V128H97.6109C98.6375 128 99.4309 128.26 99.9909 128.78C100.564 129.287 100.851 129.947 100.851 130.76C100.851 131.707 100.504 132.407 99.8109 132.86ZM97.4509 129.84H94.9509V132.06H97.4509C98.3309 132.06 98.7709 131.687 98.7709 130.94C98.7709 130.207 98.3309 129.84 97.4509 129.84ZM97.8109 136.12C98.7175 136.12 99.1709 135.727 99.1709 134.94C99.1709 134.593 99.0509 134.327 98.8109 134.14C98.5709 133.94 98.2375 133.84 97.8109 133.84H94.9509V136.12H97.8109ZM110.287 128H111.947V138H109.827V131.64L104.707 138H103.047V128H105.167V134.34L110.287 128ZM122.093 128V130.08H118.833V138H116.673V130.08H113.393V128H122.093ZM127.915 131.4C128.982 131.4 129.855 131.707 130.535 132.32C131.215 132.92 131.555 133.713 131.555 134.7C131.555 135.673 131.215 136.467 130.535 137.08C129.855 137.693 128.982 138 127.915 138H123.555V128H125.715V131.4H127.915ZM127.935 136.06C128.362 136.06 128.715 135.933 128.995 135.68C129.288 135.427 129.435 135.1 129.435 134.7C129.435 134.287 129.288 133.96 128.995 133.72C128.715 133.467 128.362 133.34 127.935 133.34H125.715V136.06H127.935ZM148.601 129.54C149.507 130.487 149.961 131.64 149.961 133C149.961 134.36 149.507 135.513 148.601 136.46C147.694 137.407 146.467 137.98 144.921 138.18V142H142.801V138.18C141.254 137.98 140.027 137.407 139.121 136.46C138.214 135.513 137.761 134.36 137.761 133C137.761 131.64 138.214 130.487 139.121 129.54C140.027 128.593 141.254 128.02 142.801 127.82V124H144.921V127.82C146.467 128.02 147.694 128.593 148.601 129.54ZM144.921 136.12C145.841 135.947 146.554 135.587 147.061 135.04C147.567 134.48 147.821 133.8 147.821 133C147.821 132.2 147.567 131.527 147.061 130.98C146.554 130.42 145.841 130.053 144.921 129.88V136.12ZM140.661 130.98C140.154 131.54 139.901 132.213 139.901 133C139.901 133.787 140.154 134.46 140.661 135.02C141.167 135.58 141.881 135.947 142.801 136.12V129.88C141.881 130.053 141.167 130.42 140.661 130.98ZM156.634 138.26C155.168 138.26 153.921 137.753 152.894 136.74C151.868 135.727 151.354 134.48 151.354 133C151.354 131.52 151.868 130.273 152.894 129.26C153.921 128.247 155.168 127.74 156.634 127.74C158.114 127.74 159.361 128.247 160.374 129.26C161.401 130.273 161.914 131.52 161.914 133C161.914 134.48 161.401 135.727 160.374 136.74C159.361 137.753 158.114 138.26 156.634 138.26ZM154.414 135.26C155.014 135.86 155.754 136.16 156.634 136.16C157.514 136.16 158.254 135.86 158.854 135.26C159.454 134.66 159.754 133.907 159.754 133C159.754 132.093 159.454 131.34 158.854 130.74C158.254 130.14 157.514 129.84 156.634 129.84C155.754 129.84 155.014 130.14 154.414 130.74C153.814 131.34 153.514 132.093 153.514 133C153.514 133.907 153.814 134.66 154.414 135.26ZM171.117 128V130.08H167.857V138H165.697V130.08H162.417V128H171.117ZM176.908 138.26C175.441 138.26 174.194 137.753 173.168 136.74C172.141 135.727 171.628 134.48 171.628 133C171.628 131.52 172.141 130.273 173.168 129.26C174.194 128.247 175.441 127.74 176.908 127.74C178.388 127.74 179.634 128.247 180.648 129.26C181.674 130.273 182.188 131.52 182.188 133C182.188 134.48 181.674 135.727 180.648 136.74C179.634 137.753 178.388 138.26 176.908 138.26ZM174.688 135.26C175.288 135.86 176.028 136.16 176.908 136.16C177.788 136.16 178.528 135.86 179.128 135.26C179.728 134.66 180.028 133.907 180.028 133C180.028 132.093 179.728 131.34 179.128 130.74C178.528 130.14 177.788 129.84 176.908 129.84C176.028 129.84 175.288 130.14 174.688 130.74C174.088 131.34 173.788 132.093 173.788 133C173.788 133.907 174.088 134.66 174.688 135.26Z" fill="url(#paint3_linear)"/>
<defs>
<linearGradient id="paint0_linear" x1="-38" y1="-61.8364" x2="184.426" y2="237.277" gradientUnits="userSpaceOnUse">
<stop stop-color="#FDCC6C"/>
<stop offset="1" stop-color="#FF6392"/>
</linearGradient>
<linearGradient id="paint1_linear" x1="73.0356" y1="14.6182" x2="149.415" y2="96.3325" gradientUnits="userSpaceOnUse">
<stop stop-color="#FDCC6C"/>
<stop offset="1" stop-color="#FF6392"/>
</linearGradient>
<linearGradient id="paint2_linear" x1="91.4005" y1="39.0609" x2="107.768" y2="56.5712" gradientUnits="userSpaceOnUse">
<stop stop-color="#FDCC6C"/>
<stop offset="1" stop-color="#FF6392"/>
</linearGradient>
<linearGradient id="paint3_linear" x1="18.1867" y1="110.364" x2="28.6512" y2="173.505" gradientUnits="userSpaceOnUse">
<stop stop-color="#FDCC6C"/>
<stop offset="1" stop-color="#FF6392"/>
</linearGradient>
</defs>
</svg>
