<svg width="375" height="812" xmlns="http://www.w3.org/2000/svg" style="vector-effect: non-scaling-stroke;" stroke="null">
 <defs style="vector-effect: non-scaling-stroke;" stroke="null">
  <clipPath style="vector-effect: non-scaling-stroke;" stroke="null" id="clip0">
   <rect style="vector-effect: non-scaling-stroke;" stroke="null" id="svg_1" fill="white" height="812" width="375"/>
  </clipPath>
 </defs>
 <g stroke="null">
  <title stroke="null">background</title>
  <rect stroke="null" fill="none" id="canvas_background" height="402" width="582" y="-1" x="-1"/>
 </g>
 <g stroke="null">
  <title stroke="null">Layer 1</title>
  <g stroke="null" id="svg_2" clip-path="url(#clip0)">
   <rect stroke="null" x="0" y="-93.357684" id="svg_3" fill="#FFFBF7" height="905.357685" width="375"/>
   <path stroke="null" id="svg_4" fill="#314E78" d="m73.0362,64.472251c0.46,0.267593 0.82,0.635534 1.08,1.103823c0.26,0.468288 0.39,1.00905 0.39,1.622285c0,0.958876 -0.305,1.756082 -0.915,2.391616c-0.61,0.635534 -1.355,0.953302 -2.235,0.953302l-4.5,0l0,-11.707211l4.17,0c0.86,0 1.585,0.312192 2.175,0.936577c0.6,0.613235 0.9,1.382566 0.9,2.307993c0,1.014625 -0.355,1.81183 -1.065,2.391616zm-2.01,-3.829931l-2.445,0l0,3.077324l2.445,0c0.38,0 0.7,-0.144946 0.96,-0.434839c0.26,-0.301043 0.39,-0.668984 0.39,-1.103823c0,-0.434839 -0.13,-0.797205 -0.39,-1.087098c-0.26,-0.301043 -0.58,-0.451564 -0.96,-0.451564zm0.33,8.0947c0.4,0 0.735,-0.156096 1.005,-0.468288c0.28,-0.323342 0.42,-0.713582 0.42,-1.170721c0,-0.457139 -0.14,-0.841804 -0.42,-1.153997c-0.27,-0.323342 -0.605,-0.485013 -1.005,-0.485013l-2.775,0l0,3.278019l2.775,0zm7.8202,-3.712858c0.8,0 1.455,0.256444 1.965,0.769331c0.51,0.501738 0.765,1.165146 0.765,1.990226c0,0.81393 -0.255,1.477339 -0.765,1.990226c-0.51,0.512887 -1.165,0.769331 -1.965,0.769331l-3.27,0l0,-8.362294l1.62,0l0,2.84318l1.65,0zm3.63,-2.84318l1.62,0l0,8.362294l-1.62,0l0,-8.362294zm-3.615,6.740009c0.32,0 0.585,-0.105922 0.795,-0.317767c0.22,-0.211845 0.33,-0.485013 0.33,-0.819505c0,-0.345641 -0.11,-0.61881 -0.33,-0.819505c-0.21,-0.211845 -0.475,-0.317767 -0.795,-0.317767l-1.665,0l0,2.274544l1.665,0zm18.5154,-6.740009l0,8.362294l-1.575,0l0,-5.502389l-2.16,3.829931l-0.195,0l-2.145,-3.813206l0,5.485665l-1.575,0l0,-8.362294l1.65,0l2.175,3.86338l2.175,-3.86338l1.65,0zm5.4112,8.579714c-1.1,0 -2.035,-0.42369 -2.805,-1.271069c-0.7697,-0.847379 -1.1547,-1.889878 -1.1547,-3.127498c0,-1.237619 0.385,-2.280119 1.1547,-3.127498c0.77,-0.847379 1.705,-1.271069 2.805,-1.271069c1.11,0 2.045,0.42369 2.805,1.271069c0.77,0.847379 1.155,1.889878 1.155,3.127498c0,1.237619 -0.385,2.280119 -1.155,3.127498c-0.76,0.847379 -1.695,1.271069 -2.805,1.271069zm-1.665,-2.508688c0.45,0.501738 1.005,0.752606 1.665,0.752606c0.66,0 1.215,-0.250869 1.665,-0.752606c0.45,-0.501738 0.675,-1.131697 0.675,-1.889878c0,-0.758181 -0.225,-1.388141 -0.675,-1.889878c-0.45,-0.501738 -1.005,-0.752606 -1.665,-0.752606c-0.66,0 -1.215,0.250869 -1.665,0.752606c-0.45,0.501738 -0.675,1.131697 -0.675,1.889878c0,0.758181 0.225,1.388141 0.675,1.889878zm16.15,2.291269l-1.845,0l-2.55,-3.86338l0,3.86338l-1.59,0l0,-3.829931l-2.55,3.829931l-1.845,0l2.925,-4.26477l-2.775,-4.097524l1.845,0l2.4,3.662685l0,-3.662685l1.59,0l0,3.679409l2.4,-3.679409l1.845,0l-2.775,4.097524l2.925,4.26477zm1.839,-3.411816c0.12,0.635534 0.395,1.126122 0.825,1.471764c0.43,0.334492 0.955,0.501738 1.575,0.501738c0.86,0 1.505,-0.345641 1.935,-1.036924l1.335,0.869679c-0.74,1.21532 -1.835,1.82298 -3.285,1.82298c-1.22,0 -2.205,-0.41254 -2.955,-1.237619c-0.75,-0.836229 -1.125,-1.889878 -1.125,-3.160947c0,-1.248769 0.37,-2.291269 1.11,-3.127498c0.74,-0.847379 1.69,-1.271069 2.85,-1.271069c1.1,0 2,0.429264 2.7,1.287793c0.71,0.858529 1.065,1.901028 1.065,3.127498c0,0.189545 -0.02,0.440414 -0.06,0.752606l-5.97,0zm-0.015,-1.471764l4.41,0c-0.11,-0.680133 -0.365,-1.193021 -0.765,-1.538662c-0.39,-0.345641 -0.85,-0.518462 -1.38,-0.518462c-0.6,0 -1.1,0.18397 -1.5,0.551911c-0.4,0.367941 -0.655,0.869679 -0.765,1.505213zm12.908,-3.478714l0,1.739357l-2.445,0l0,6.622937l-1.62,0l0,-6.622937l-2.46,0l0,-1.739357l6.525,0zm2.078,4.950478c0.12,0.635534 0.395,1.126122 0.825,1.471764c0.43,0.334492 0.955,0.501738 1.575,0.501738c0.86,0 1.505,-0.345641 1.935,-1.036924l1.335,0.869679c-0.74,1.21532 -1.835,1.82298 -3.285,1.82298c-1.22,0 -2.205,-0.41254 -2.955,-1.237619c-0.75,-0.836229 -1.125,-1.889878 -1.125,-3.160947c0,-1.248769 0.37,-2.291269 1.11,-3.127498c0.74,-0.847379 1.69,-1.271069 2.85,-1.271069c1.1,0 2,0.429264 2.7,1.287793c0.71,0.858529 1.065,1.901028 1.065,3.127498c0,0.189545 -0.02,0.440414 -0.06,0.752606l-5.97,0zm-0.015,-1.471764l4.41,0c-0.11,-0.680133 -0.365,-1.193021 -0.765,-1.538662c-0.39,-0.345641 -0.85,-0.518462 -1.38,-0.518462c-0.6,0 -1.1,0.18397 -1.5,0.551911c-0.4,0.367941 -0.655,0.869679 -0.765,1.505213zm17.82,3.177672l1.005,0l0,3.947003l-1.59,0l0,-2.241095l-5.145,0l0,2.241095l-1.59,0l0,-3.947003l0.915,0c0.46,-0.724732 0.69,-1.733782 0.69,-3.02715l0,-3.629236l5.715,0l0,6.656386zm-4.62,0l3.03,0l0,-5.000652l-2.535,0l0,1.973501c0,1.193021 -0.165,2.202071 -0.495,3.02715zm10.188,1.923328c-1.1,0 -2.035,-0.42369 -2.805,-1.271069c-0.77,-0.847379 -1.155,-1.889878 -1.155,-3.127498c0,-1.237619 0.385,-2.280119 1.155,-3.127498c0.77,-0.847379 1.705,-1.271069 2.805,-1.271069c1.11,0 2.045,0.42369 2.805,1.271069c0.77,0.847379 1.155,1.889878 1.155,3.127498c0,1.237619 -0.385,2.280119 -1.155,3.127498c-0.76,0.847379 -1.695,1.271069 -2.805,1.271069zm-1.665,-2.508688c0.45,0.501738 1.005,0.752606 1.665,0.752606c0.66,0 1.215,-0.250869 1.665,-0.752606c0.45,-0.501738 0.675,-1.131697 0.675,-1.889878c0,-0.758181 -0.225,-1.388141 -0.675,-1.889878c-0.45,-0.501738 -1.005,-0.752606 -1.665,-0.752606c-0.66,0 -1.215,0.250869 -1.665,0.752606c-0.45,0.501738 -0.675,1.131697 -0.675,1.889878c0,0.758181 0.225,1.388141 0.675,1.889878zm10.57,2.508688c-1.15,0 -2.09,-0.41254 -2.82,-1.237619c-0.72,-0.836229 -1.08,-1.901028 -1.08,-3.194396c0,-1.416015 0.19,-2.508688 0.57,-3.278019c0.38,-0.780481 1.15,-1.488488 2.31,-2.124023c0.19,-0.100348 0.47,-0.245294 0.84,-0.434839c0.38,-0.189545 0.64,-0.323342 0.78,-0.40139c0.14,-0.089198 0.315,-0.211845 0.525,-0.367941c0.21,-0.167246 0.365,-0.340067 0.465,-0.518462c0.1,-0.189545 0.18,-0.41254 0.24,-0.668984l1.32,0.852954c-0.04,0.245294 -0.105,0.473863 -0.195,0.685708c-0.09,0.200695 -0.22,0.39024 -0.39,0.568636c-0.17,0.178396 -0.32,0.323342 -0.45,0.434839c-0.12,0.111497 -0.325,0.245294 -0.615,0.40139c-0.29,0.156096 -0.505,0.267593 -0.645,0.334492c-0.13,0.066898 -0.38,0.18397 -0.75,0.351216c-0.66,0.289893 -1.145,0.590935 -1.455,0.903128c-0.3,0.301043 -0.51,0.680133 -0.63,1.137272c0.6,-0.758181 1.415,-1.137272 2.445,-1.137272c0.88,0 1.645,0.351216 2.295,1.053649c0.66,0.702433 0.99,1.611135 0.99,2.726108c0,1.137272 -0.35,2.073849 -1.05,2.809731c-0.69,0.735882 -1.59,1.103823 -2.7,1.103823zm-0.015,-1.689183c0.63,0 1.145,-0.20627 1.545,-0.61881c0.4,-0.42369 0.6,-0.958876 0.6,-1.60556c0,-0.657834 -0.2,-1.198595 -0.6,-1.622285c-0.39,-0.42369 -0.9,-0.635534 -1.53,-0.635534c-0.56,0 -1.065,0.200695 -1.515,0.602085c-0.45,0.39024 -0.675,0.914277 -0.675,1.572111c0,0.668984 0.21,1.220895 0.63,1.655734c0.42,0.434839 0.935,0.652259 1.545,0.652259zm10.986,-6.89053l1.62,0l0,8.362294l-1.62,0l0,-1.20417c-0.61,0.947727 -1.485,1.42159 -2.625,1.42159c-1.03,0 -1.91,-0.42369 -2.64,-1.271069c-0.73,-0.858529 -1.095,-1.901028 -1.095,-3.127498c0,-1.237619 0.365,-2.280119 1.095,-3.127498c0.73,-0.847379 1.61,-1.271069 2.64,-1.271069c1.14,0 2.015,0.468288 2.625,1.404865l0,-1.187446zm-4.065,6.104475c0.45,0.501738 1.015,0.752606 1.695,0.752606c0.68,0 1.245,-0.250869 1.695,-0.752606c0.45,-0.512887 0.675,-1.153997 0.675,-1.923328c0,-0.769331 -0.225,-1.404865 -0.675,-1.906603c-0.45,-0.512887 -1.015,-0.769331 -1.695,-0.769331c-0.68,0 -1.245,0.256444 -1.695,0.769331c-0.45,0.501738 -0.675,1.137272 -0.675,1.906603c0,0.769331 0.225,1.41044 0.675,1.923328zm12.763,-2.0404c0.74,0.379091 1.11,1.0202 1.11,1.923328c0,0.702433 -0.215,1.276644 -0.645,1.722633c-0.42,0.434839 -1.025,0.652259 -1.815,0.652259l-3.84,0l0,-8.362294l3.54,0c0.77,0 1.365,0.21742 1.785,0.652259c0.43,0.42369 0.645,0.975601 0.645,1.655734c0,0.79163 -0.26,1.376991 -0.78,1.756082zm-1.77,-2.525413l-1.875,0l0,1.856429l1.875,0c0.66,0 0.99,-0.312192 0.99,-0.936577c0,-0.613235 -0.33,-0.919852 -0.99,-0.919852zm0.27,5.251521c0.68,0 1.02,-0.328917 1.02,-0.986751c0,-0.289893 -0.09,-0.512887 -0.27,-0.668984c-0.18,-0.167246 -0.43,-0.250869 -0.75,-0.250869l-2.145,0l0,1.906603l2.145,0zm10.111,-6.790183l0,8.362294l-1.62,0l0,-6.622937l-2.505,0l0,3.110773c0,1.326817 -0.26,2.268969 -0.78,2.826455c-0.52,0.557486 -1.26,0.786056 -2.22,0.685708l0,-1.689183c0.46,0.089198 0.805,-0.016725 1.035,-0.317767c0.23,-0.301043 0.345,-0.830655 0.345,-1.588836l0,-4.766508l5.745,0zm7.693,0l0,8.362294l-1.59,0l0,-2.809731l-0.9,0l-1.905,2.809731l-1.905,0l2.025,-2.976977c-0.52,-0.189545 -0.94,-0.524037 -1.26,-1.003475c-0.31,-0.479438 -0.465,-1.014625 -0.465,-1.60556c0,-0.769331 0.245,-1.42159 0.735,-1.956777c0.5,-0.546337 1.14,-0.819505 1.92,-0.819505l3.345,0zm-3.255,3.997176l1.665,0l0,-2.358167l-1.665,0c-0.33,0 -0.605,0.105922 -0.825,0.317767c-0.22,0.211845 -0.33,0.501738 -0.33,0.869679c0,0.356791 0.11,0.641109 0.33,0.852954c0.22,0.211845 0.495,0.317767 0.825,0.317767zm10.87,-3.997176l0,1.739357l-2.445,0l0,6.622937l-1.62,0l0,-6.622937l-2.46,0l0,-1.739357l6.525,0zm4.366,2.84318c0.8,0 1.455,0.256444 1.965,0.769331c0.51,0.501738 0.765,1.165146 0.765,1.990226c0,0.81393 -0.255,1.477339 -0.765,1.990226c-0.51,0.512887 -1.165,0.769331 -1.965,0.769331l-3.27,0l0,-8.362294l1.62,0l0,2.84318l1.65,0zm0.015,3.896829c0.32,0 0.585,-0.105922 0.795,-0.317767c0.22,-0.211845 0.33,-0.485013 0.33,-0.819505c0,-0.345641 -0.11,-0.61881 -0.33,-0.819505c-0.21,-0.211845 -0.475,-0.317767 -0.795,-0.317767l-1.665,0l0,2.274544l1.665,0zm15.499,-5.452216c0.68,0.79163 1.02,1.756082 1.02,2.893354c0,1.137272 -0.34,2.101723 -1.02,2.893354c-0.68,0.79163 -1.6,1.271069 -2.76,1.438315l0,3.194396l-1.59,0l0,-3.194396c-1.16,-0.167246 -2.08,-0.646684 -2.76,-1.438315c-0.68,-0.79163 -1.02,-1.756082 -1.02,-2.893354c0,-1.137272 0.34,-2.101723 1.02,-2.893354c0.68,-0.79163 1.6,-1.271069 2.76,-1.438315l0,-3.194396l1.59,0l0,3.194396c1.16,0.167246 2.08,0.646684 2.76,1.438315zm-2.76,5.502389c0.69,-0.144946 1.225,-0.445989 1.605,-0.903128c0.38,-0.468288 0.57,-1.036924 0.57,-1.705908c0,-0.668984 -0.19,-1.232045 -0.57,-1.689183c-0.38,-0.468288 -0.915,-0.774906 -1.605,-0.919852l0,5.218071zm-3.195,-4.298219c-0.38,0.468288 -0.57,1.03135 -0.57,1.689183c0,0.657834 0.19,1.220895 0.57,1.689183c0.38,0.468288 0.915,0.774906 1.605,0.919852l0,-5.218071c-0.69,0.144946 -1.225,0.451564 -1.605,0.919852zm11.981,6.08775c-1.1,0 -2.035,-0.42369 -2.805,-1.271069c-0.77,-0.847379 -1.155,-1.889878 -1.155,-3.127498c0,-1.237619 0.385,-2.280119 1.155,-3.127498c0.77,-0.847379 1.705,-1.271069 2.805,-1.271069c1.11,0 2.045,0.42369 2.805,1.271069c0.77,0.847379 1.155,1.889878 1.155,3.127498c0,1.237619 -0.385,2.280119 -1.155,3.127498c-0.76,0.847379 -1.695,1.271069 -2.805,1.271069zm-1.665,-2.508688c0.45,0.501738 1.005,0.752606 1.665,0.752606c0.66,0 1.215,-0.250869 1.665,-0.752606c0.45,-0.501738 0.675,-1.131697 0.675,-1.889878c0,-0.758181 -0.225,-1.388141 -0.675,-1.889878c-0.45,-0.501738 -1.005,-0.752606 -1.665,-0.752606c-0.66,0 -1.215,0.250869 -1.665,0.752606c-0.45,0.501738 -0.675,1.131697 -0.675,1.889878c0,0.758181 0.225,1.388141 0.675,1.889878zm12.527,-6.071025l0,1.739357l-2.445,0l0,6.622937l-1.62,0l0,-6.622937l-2.46,0l0,-1.739357l6.525,0zm4.343,8.579714c-1.1,0 -2.035,-0.42369 -2.805,-1.271069c-0.77,-0.847379 -1.155,-1.889878 -1.155,-3.127498c0,-1.237619 0.385,-2.280119 1.155,-3.127498c0.77,-0.847379 1.705,-1.271069 2.805,-1.271069c1.11,0 2.045,0.42369 2.805,1.271069c0.77,0.847379 1.155,1.889878 1.155,3.127498c0,1.237619 -0.385,2.280119 -1.155,3.127498c-0.76,0.847379 -1.695,1.271069 -2.805,1.271069zm-1.665,-2.508688c0.45,0.501738 1.005,0.752606 1.665,0.752606c0.66,0 1.215,-0.250869 1.665,-0.752606c0.45,-0.501738 0.675,-1.131697 0.675,-1.889878c0,-0.758181 -0.225,-1.388141 -0.675,-1.889878c-0.45,-0.501738 -1.005,-0.752606 -1.665,-0.752606c-0.66,0 -1.215,0.250869 -1.665,0.752606c-0.45,0.501738 -0.675,1.131697 -0.675,1.889878c0,0.758181 0.225,1.388141 0.675,1.889878zm12.115,-6.071025l0,1.739357l-3.405,0l0,6.622937l-1.62,0l0,-8.362294l5.025,0zm5.343,-0.21742c1.03,0 1.91,0.429264 2.64,1.287793c0.73,0.847379 1.095,1.884304 1.095,3.110773c0,1.237619 -0.365,2.280119 -1.095,3.127498c-0.73,0.847379 -1.61,1.271069 -2.64,1.271069c-1.14,0 -2.015,-0.468288 -2.625,-1.404865l0,4.532363l-1.62,0l0,-11.707211l1.62,0l0,1.20417c0.61,-0.947727 1.485,-1.42159 2.625,-1.42159zm-1.95,6.321894c0.45,0.501738 1.015,0.752606 1.695,0.752606c0.68,0 1.245,-0.250869 1.695,-0.752606c0.45,-0.512887 0.675,-1.153997 0.675,-1.923328c0,-0.769331 -0.225,-1.404865 -0.675,-1.906603c-0.45,-0.512887 -1.015,-0.769331 -1.695,-0.769331c-0.68,0 -1.245,0.256444 -1.695,0.769331c-0.45,0.501738 -0.675,1.137272 -0.675,1.906603c0,0.769331 0.225,1.41044 0.675,1.923328zm13.093,-6.104475l1.62,0l0,8.362294l-1.62,0l0,-1.20417c-0.61,0.947727 -1.485,1.42159 -2.625,1.42159c-1.03,0 -1.91,-0.42369 -2.64,-1.271069c-0.73,-0.858529 -1.095,-1.901028 -1.095,-3.127498c0,-1.237619 0.365,-2.280119 1.095,-3.127498c0.73,-0.847379 1.61,-1.271069 2.64,-1.271069c1.14,0 2.015,0.468288 2.625,1.404865l0,-1.187446zm-4.065,6.104475c0.45,0.501738 1.015,0.752606 1.695,0.752606c0.68,0 1.245,-0.250869 1.695,-0.752606c0.45,-0.512887 0.675,-1.153997 0.675,-1.923328c0,-0.769331 -0.225,-1.404865 -0.675,-1.906603c-0.45,-0.512887 -1.015,-0.769331 -1.695,-0.769331c-0.68,0 -1.245,0.256444 -1.695,0.769331c-0.45,0.501738 -0.675,1.137272 -0.675,1.906603c0,0.769331 0.225,1.41044 0.675,1.923328zm15.283,-4.816681c0.68,0.79163 1.02,1.756082 1.02,2.893354c0,1.137272 -0.34,2.101723 -1.02,2.893354c-0.68,0.79163 -1.6,1.271069 -2.76,1.438315l0,3.194396l-1.59,0l0,-3.194396c-1.16,-0.167246 -2.08,-0.646684 -2.76,-1.438315c-0.68,-0.79163 -1.02,-1.756082 -1.02,-2.893354c0,-1.137272 0.34,-2.101723 1.02,-2.893354c0.68,-0.79163 1.6,-1.271069 2.76,-1.438315l0,-3.194396l1.59,0l0,3.194396c1.16,0.167246 2.08,0.646684 2.76,1.438315zm-2.76,5.502389c0.69,-0.144946 1.225,-0.445989 1.605,-0.903128c0.38,-0.468288 0.57,-1.036924 0.57,-1.705908c0,-0.668984 -0.19,-1.232045 -0.57,-1.689183c-0.38,-0.468288 -0.915,-0.774906 -1.605,-0.919852l0,5.218071zm-3.195,-4.298219c-0.38,0.468288 -0.57,1.03135 -0.57,1.689183c0,0.657834 0.19,1.220895 0.57,1.689183c0.38,0.468288 0.915,0.774906 1.605,0.919852l0,-5.218071c-0.69,0.144946 -1.225,0.451564 -1.605,0.919852zm13.87,-2.491964l1.245,0l0,8.362294l-1.59,0l0,-5.318419l-3.84,5.318419l-1.245,0l0,-8.362294l1.59,0l0,5.301694l3.84,-5.301694zm8.555,0l1.245,0l0,8.362294l-1.59,0l0,-5.318419l-3.84,5.318419l-1.245,0l0,-8.362294l1.59,0l0,5.301694l3.84,-5.301694zm-278.2232,26.363525c0.74,0.379091 1.11,1.0202 1.11,1.923328c0,0.702433 -0.215,1.276644 -0.645,1.722633c-0.42,0.434839 -1.025,0.652259 -1.815,0.652259l-3.84,0l0,-8.362294l3.54,0c0.77,0 1.365,0.21742 1.785,0.652259c0.43,0.42369 0.645,0.975601 0.645,1.655734c0,0.79163 -0.26,1.376991 -0.78,1.756082zm-1.77,-2.525413l-1.875,0l0,1.856429l1.875,0c0.66,0 0.99,-0.312192 0.99,-0.936577c0,-0.613235 -0.33,-0.919852 -0.99,-0.919852zm0.27,5.251521c0.68,0 1.02,-0.328917 1.02,-0.986751c0,-0.289893 -0.09,-0.512887 -0.27,-0.668984c-0.18,-0.167246 -0.43,-0.250869 -0.75,-0.250869l-2.145,0l0,1.906603l2.145,0zm7.1971,-3.947003c0.8,0 1.455,0.256444 1.965,0.769331c0.51,0.501738 0.765,1.165146 0.765,1.990226c0,0.81393 -0.255,1.477339 -0.765,1.990226c-0.51,0.512887 -1.165,0.769331 -1.965,0.769331l-3.27,0l0,-8.362294l1.62,0l0,2.84318l1.65,0zm3.63,-2.84318l1.62,0l0,8.362294l-1.62,0l0,-8.362294zm-3.615,6.740009c0.32,0 0.585,-0.105922 0.795,-0.317767c0.22,-0.211845 0.33,-0.485013 0.33,-0.819505c0,-0.345641 -0.11,-0.61881 -0.33,-0.819505c-0.21,-0.211845 -0.475,-0.317767 -0.795,-0.317767l-1.665,0l0,2.274544l1.665,0zm13.7904,-6.740009l0,8.362294l-1.62,0l0,-6.656386l-3.435,0l0,6.656386l-1.62,0l0,-8.362294l6.675,0zm5.4197,8.579714c-1.1,0 -2.035,-0.42369 -2.805,-1.271069c-0.77,-0.847379 -1.155,-1.889878 -1.155,-3.127498c0,-1.237619 0.385,-2.280119 1.155,-3.127498c0.77,-0.847379 1.705,-1.271069 2.805,-1.271069c1.11,0 2.045,0.42369 2.805,1.271069c0.77,0.847379 1.155,1.889878 1.155,3.127498c0,1.237619 -0.385,2.280119 -1.155,3.127498c-0.76,0.847379 -1.695,1.271069 -2.805,1.271069zm-1.665,-2.508688c0.45,0.501738 1.005,0.752606 1.665,0.752606c0.66,0 1.215,-0.250869 1.665,-0.752606c0.45,-0.501738 0.675,-1.131697 0.675,-1.889878c0,-0.758181 -0.225,-1.388141 -0.675,-1.889878c-0.45,-0.501738 -1.005,-0.752606 -1.665,-0.752606c-0.66,0 -1.215,0.250869 -1.665,0.752606c-0.45,0.501738 -0.675,1.131697 -0.675,1.889878c0,0.758181 0.225,1.388141 0.675,1.889878zm13.2001,-6.071025l0,8.362294l-1.62,0l0,-6.622937l-2.505,0l0,3.110773c0,1.326817 -0.26,2.268969 -0.78,2.826455c-0.52,0.557486 -1.26,0.786056 -2.22,0.685708l0,-1.689183c0.46,0.089198 0.805,-0.016725 1.035,-0.317767c0.23,-0.301043 0.345,-0.830655 0.345,-1.588836l0,-4.766508l5.745,0zm6.9428,0l1.62,0l0,8.362294l-1.62,0l0,-3.328193l-3.435,0l0,3.328193l-1.62,0l0,-8.362294l1.62,0l0,3.328193l3.435,0l0,-3.328193zm4.7747,4.950478c0.12,0.635534 0.395,1.126122 0.825,1.471764c0.43,0.334492 0.955,0.501738 1.575,0.501738c0.86,0 1.505,-0.345641 1.935,-1.036924l1.335,0.869679c-0.74,1.21532 -1.835,1.82298 -3.285,1.82298c-1.22,0 -2.205,-0.41254 -2.955,-1.237619c-0.75,-0.836229 -1.125,-1.889878 -1.125,-3.160947c0,-1.248769 0.37,-2.291269 1.11,-3.127498c0.74,-0.847379 1.69,-1.271069 2.85,-1.271069c1.1,0 2,0.429264 2.7,1.287793c0.71,0.858529 1.065,1.901028 1.065,3.127498c0,0.189545 -0.02,0.440414 -0.06,0.752606l-5.97,0zm-0.015,-1.471764l4.41,0c-0.11,-0.680133 -0.365,-1.193021 -0.765,-1.538662c-0.39,-0.345641 -0.85,-0.518462 -1.38,-0.518462c-0.6,0 -1.1,0.18397 -1.5,0.551911c-0.4,0.367941 -0.655,0.869679 -0.765,1.505213zm12.5255,-3.478714l1.62,0l0,8.362294l-1.62,0l0,-3.328193l-3.435,0l0,3.328193l-1.62,0l0,-8.362294l1.62,0l0,3.328193l3.435,0l0,-3.328193zm8.5547,0l1.62,0l0,8.362294l-1.62,0l0,-3.328193l-3.435,0l0,3.328193l-1.62,0l0,-8.362294l1.62,0l0,3.328193l3.435,0l0,-3.328193zm6.7692,2.84318c0.8,0 1.455,0.256444 1.965,0.769331c0.51,0.501738 0.765,1.165146 0.765,1.990226c0,0.81393 -0.255,1.477339 -0.765,1.990226c-0.51,0.512887 -1.165,0.769331 -1.965,0.769331l-3.27,0l0,-8.362294l1.62,0l0,2.84318l1.65,0zm3.63,-2.84318l1.62,0l0,8.362294l-1.62,0l0,-8.362294zm-3.615,6.740009c0.32,0 0.585,-0.105922 0.795,-0.317767c0.22,-0.211845 0.33,-0.485013 0.33,-0.819505c0,-0.345641 -0.11,-0.61881 -0.33,-0.819505c-0.21,-0.211845 -0.475,-0.317767 -0.795,-0.317767l-1.665,0l0,2.274544l1.665,0zm13.821,1.622285l-1.875,0l-1.86,-2.859905l-1.875,2.859905l-1.89,0l2.82,-4.298219l-2.67,-4.064075l1.875,0l1.725,2.642485l1.725,-2.642485l1.89,0l-2.67,4.080799l2.805,4.281494zm9.083,-8.579714c1.03,0 1.91,0.429264 2.64,1.287793c0.73,0.847379 1.095,1.884304 1.095,3.110773c0,1.237619 -0.365,2.280119 -1.095,3.127498c-0.73,0.847379 -1.61,1.271069 -2.64,1.271069c-1.14,0 -2.015,-0.468288 -2.625,-1.404865l0,4.532363l-1.62,0l0,-11.707211l1.62,0l0,1.20417c0.61,-0.947727 1.485,-1.42159 2.625,-1.42159zm-1.95,6.321894c0.45,0.501738 1.015,0.752606 1.695,0.752606c0.68,0 1.245,-0.250869 1.695,-0.752606c0.45,-0.512887 0.675,-1.153997 0.675,-1.923328c0,-0.769331 -0.225,-1.404865 -0.675,-1.906603c-0.45,-0.512887 -1.015,-0.769331 -1.695,-0.769331c-0.68,0 -1.245,0.256444 -1.695,0.769331c-0.45,0.501738 -0.675,1.137272 -0.675,1.906603c0,0.769331 0.225,1.41044 0.675,1.923328zm13.093,-6.104475l1.62,0l0,8.362294l-1.62,0l0,-1.20417c-0.61,0.947727 -1.485,1.42159 -2.625,1.42159c-1.03,0 -1.91,-0.42369 -2.64,-1.271069c-0.73,-0.858529 -1.095,-1.901028 -1.095,-3.127498c0,-1.237619 0.365,-2.280119 1.095,-3.127498c0.73,-0.847379 1.61,-1.271069 2.64,-1.271069c1.14,0 2.015,0.468288 2.625,1.404865l0,-1.187446zm-4.065,6.104475c0.45,0.501738 1.015,0.752606 1.695,0.752606c0.68,0 1.245,-0.250869 1.695,-0.752606c0.45,-0.512887 0.675,-1.153997 0.675,-1.923328c0,-0.769331 -0.225,-1.404865 -0.675,-1.906603c-0.45,-0.512887 -1.015,-0.769331 -1.695,-0.769331c-0.68,0 -1.245,0.256444 -1.695,0.769331c-0.45,0.501738 -0.675,1.137272 -0.675,1.906603c0,0.769331 0.225,1.41044 0.675,1.923328zm11.053,2.475239c-1.15,0 -2.09,-0.41254 -2.82,-1.237619c-0.72,-0.836229 -1.08,-1.901028 -1.08,-3.194396c0,-1.416015 0.19,-2.508688 0.57,-3.278019c0.38,-0.780481 1.15,-1.488488 2.31,-2.124023c0.19,-0.100348 0.47,-0.245294 0.84,-0.434839c0.38,-0.189545 0.64,-0.323342 0.78,-0.40139c0.14,-0.089198 0.315,-0.211845 0.525,-0.367941c0.21,-0.167246 0.365,-0.340067 0.465,-0.518462c0.1,-0.189545 0.18,-0.41254 0.24,-0.668984l1.32,0.852954c-0.04,0.245294 -0.105,0.473863 -0.195,0.685708c-0.09,0.200695 -0.22,0.39024 -0.39,0.568636c-0.17,0.178396 -0.32,0.323342 -0.45,0.434839c-0.12,0.111497 -0.325,0.245294 -0.615,0.40139c-0.29,0.156096 -0.505,0.267593 -0.645,0.334492c-0.13,0.066898 -0.38,0.18397 -0.75,0.351216c-0.66,0.289893 -1.145,0.590935 -1.455,0.903128c-0.3,0.301043 -0.51,0.680133 -0.63,1.137272c0.6,-0.758181 1.415,-1.137272 2.445,-1.137272c0.88,0 1.645,0.351216 2.295,1.053649c0.66,0.702433 0.99,1.611135 0.99,2.726108c0,1.137272 -0.35,2.073849 -1.05,2.809731c-0.69,0.735882 -1.59,1.103823 -2.7,1.103823zm-0.015,-1.689183c0.63,0 1.145,-0.20627 1.545,-0.61881c0.4,-0.42369 0.6,-0.958876 0.6,-1.60556c0,-0.657834 -0.2,-1.198595 -0.6,-1.622285c-0.39,-0.42369 -0.9,-0.635534 -1.53,-0.635534c-0.56,0 -1.065,0.200695 -1.515,0.602085c-0.45,0.39024 -0.675,0.914277 -0.675,1.572111c0,0.668984 0.21,1.220895 0.63,1.655734c0.42,0.434839 0.935,0.652259 1.545,0.652259zm8.586,1.689183c-1.1,0 -2.035,-0.42369 -2.805,-1.271069c-0.77,-0.847379 -1.155,-1.889878 -1.155,-3.127498c0,-1.237619 0.385,-2.280119 1.155,-3.127498c0.77,-0.847379 1.705,-1.271069 2.805,-1.271069c1.11,0 2.045,0.42369 2.805,1.271069c0.77,0.847379 1.155,1.889878 1.155,3.127498c0,1.237619 -0.385,2.280119 -1.155,3.127498c-0.76,0.847379 -1.695,1.271069 -2.805,1.271069zm-1.665,-2.508688c0.45,0.501738 1.005,0.752606 1.665,0.752606c0.66,0 1.215,-0.250869 1.665,-0.752606c0.45,-0.501738 0.675,-1.131697 0.675,-1.889878c0,-0.758181 -0.225,-1.388141 -0.675,-1.889878c-0.45,-0.501738 -1.005,-0.752606 -1.665,-0.752606c-0.66,0 -1.215,0.250869 -1.665,0.752606c-0.45,0.501738 -0.675,1.131697 -0.675,1.889878c0,0.758181 0.225,1.388141 0.675,1.889878zm12.527,-6.071025l0,1.739357l-2.445,0l0,6.622937l-1.62,0l0,-6.622937l-2.46,0l0,-1.739357l6.525,0zm2.291,6.355343l-1.05,4.348393l-1.35,0l0.6,-4.348393l1.8,0zm10.03,-6.355343l1.62,0l0,8.362294l-1.62,0l0,-2.826455c-0.6,0.245294 -1.23,0.367941 -1.89,0.367941c-0.93,0 -1.665,-0.256444 -2.205,-0.769331c-0.54,-0.512887 -0.81,-1.265494 -0.81,-2.257819l0,-2.876629l1.62,0l0,2.709383c0,1.003475 0.535,1.505213 1.605,1.505213c0.63,0 1.19,-0.128222 1.68,-0.384666l0,-3.829931zm9.241,0l0,1.739357l-2.445,0l0,6.622937l-1.62,0l0,-6.622937l-2.46,0l0,-1.739357l6.525,0zm4.344,8.579714c-1.1,0 -2.035,-0.42369 -2.805,-1.271069c-0.77,-0.847379 -1.155,-1.889878 -1.155,-3.127498c0,-1.237619 0.385,-2.280119 1.155,-3.127498c0.77,-0.847379 1.705,-1.271069 2.805,-1.271069c1.11,0 2.045,0.42369 2.805,1.271069c0.77,0.847379 1.155,1.889878 1.155,3.127498c0,1.237619 -0.385,2.280119 -1.155,3.127498c-0.76,0.847379 -1.695,1.271069 -2.805,1.271069zm-1.665,-2.508688c0.45,0.501738 1.005,0.752606 1.665,0.752606c0.66,0 1.215,-0.250869 1.665,-0.752606c0.45,-0.501738 0.675,-1.131697 0.675,-1.889878c0,-0.758181 -0.225,-1.388141 -0.675,-1.889878c-0.45,-0.501738 -1.005,-0.752606 -1.665,-0.752606c-0.66,0 -1.215,0.250869 -1.665,0.752606c-0.45,0.501738 -0.675,1.131697 -0.675,1.889878c0,0.758181 0.225,1.388141 0.675,1.889878zm10.569,2.508688c-1.15,0 -2.09,-0.41254 -2.82,-1.237619c-0.72,-0.836229 -1.08,-1.901028 -1.08,-3.194396c0,-1.416015 0.19,-2.508688 0.57,-3.278019c0.38,-0.780481 1.15,-1.488488 2.31,-2.124023c0.19,-0.100348 0.47,-0.245294 0.84,-0.434839c0.38,-0.189545 0.64,-0.323342 0.78,-0.40139c0.14,-0.089198 0.315,-0.211845 0.525,-0.367941c0.21,-0.167246 0.365,-0.340067 0.465,-0.518462c0.1,-0.189545 0.18,-0.41254 0.24,-0.668984l1.32,0.852954c-0.04,0.245294 -0.105,0.473863 -0.195,0.685708c-0.09,0.200695 -0.22,0.39024 -0.39,0.568636c-0.17,0.178396 -0.32,0.323342 -0.45,0.434839c-0.12,0.111497 -0.325,0.245294 -0.615,0.40139c-0.29,0.156096 -0.505,0.267593 -0.645,0.334492c-0.13,0.066898 -0.38,0.18397 -0.75,0.351216c-0.66,0.289893 -1.145,0.590935 -1.455,0.903128c-0.3,0.301043 -0.51,0.680133 -0.63,1.137272c0.6,-0.758181 1.415,-1.137272 2.445,-1.137272c0.88,0 1.645,0.351216 2.295,1.053649c0.66,0.702433 0.99,1.611135 0.99,2.726108c0,1.137272 -0.35,2.073849 -1.05,2.809731c-0.69,0.735882 -1.59,1.103823 -2.7,1.103823zm-0.015,-1.689183c0.63,0 1.145,-0.20627 1.545,-0.61881c0.4,-0.42369 0.6,-0.958876 0.6,-1.60556c0,-0.657834 -0.2,-1.198595 -0.6,-1.622285c-0.39,-0.42369 -0.9,-0.635534 -1.53,-0.635534c-0.56,0 -1.065,0.200695 -1.515,0.602085c-0.45,0.39024 -0.675,0.914277 -0.675,1.572111c0,0.668984 0.21,1.220895 0.63,1.655734c0.42,0.434839 0.935,0.652259 1.545,0.652259zm8.316,-4.04735c0.8,0 1.455,0.256444 1.965,0.769331c0.51,0.501738 0.765,1.165146 0.765,1.990226c0,0.81393 -0.255,1.477339 -0.765,1.990226c-0.51,0.512887 -1.165,0.769331 -1.965,0.769331l-3.27,0l0,-8.362294l1.62,0l0,2.84318l1.65,0zm3.63,-2.84318l1.62,0l0,8.362294l-1.62,0l0,-8.362294zm-3.615,6.740009c0.32,0 0.585,-0.105922 0.795,-0.317767c0.22,-0.211845 0.33,-0.485013 0.33,-0.819505c0,-0.345641 -0.11,-0.61881 -0.33,-0.819505c-0.21,-0.211845 -0.475,-0.317767 -0.795,-0.317767l-1.665,0l0,2.274544l1.665,0zm17.541,-6.740009l0,8.362294l-1.62,0l0,-6.656386l-3.435,0l0,6.656386l-1.62,0l0,-8.362294l6.675,0zm6.124,-0.21742c1.03,0 1.91,0.429264 2.64,1.287793c0.73,0.847379 1.095,1.884304 1.095,3.110773c0,1.237619 -0.365,2.280119 -1.095,3.127498c-0.73,0.847379 -1.61,1.271069 -2.64,1.271069c-1.14,0 -2.015,-0.468288 -2.625,-1.404865l0,4.532363l-1.62,0l0,-11.707211l1.62,0l0,1.20417c0.61,-0.947727 1.485,-1.42159 2.625,-1.42159zm-1.95,6.321894c0.45,0.501738 1.015,0.752606 1.695,0.752606c0.68,0 1.245,-0.250869 1.695,-0.752606c0.45,-0.512887 0.675,-1.153997 0.675,-1.923328c0,-0.769331 -0.225,-1.404865 -0.675,-1.906603c-0.45,-0.512887 -1.015,-0.769331 -1.695,-0.769331c-0.68,0 -1.245,0.256444 -1.695,0.769331c-0.45,0.501738 -0.675,1.137272 -0.675,1.906603c0,0.769331 0.225,1.41044 0.675,1.923328zm12.584,-6.104475l1.245,0l0,8.362294l-1.59,0l0,-5.318419l-3.84,5.318419l-1.245,0l0,-8.362294l1.59,0l0,5.301694l3.84,-5.301694zm8.314,4.064075c0.74,0.379091 1.11,1.0202 1.11,1.923328c0,0.702433 -0.215,1.276644 -0.645,1.722633c-0.42,0.434839 -1.025,0.652259 -1.815,0.652259l-3.84,0l0,-8.362294l3.54,0c0.77,0 1.365,0.21742 1.785,0.652259c0.43,0.42369 0.645,0.975601 0.645,1.655734c0,0.79163 -0.26,1.376991 -0.78,1.756082zm-1.77,-2.525413l-1.875,0l0,1.856429l1.875,0c0.66,0 0.99,-0.312192 0.99,-0.936577c0,-0.613235 -0.33,-0.919852 -0.99,-0.919852zm0.27,5.251521c0.68,0 1.02,-0.328917 1.02,-0.986751c0,-0.289893 -0.09,-0.512887 -0.27,-0.668984c-0.18,-0.167246 -0.43,-0.250869 -0.75,-0.250869l-2.145,0l0,1.906603l2.145,0zm10.111,-6.790183l0,8.362294l-1.62,0l0,-6.622937l-2.505,0l0,3.110773c0,1.326817 -0.26,2.268969 -0.78,2.826455c-0.52,0.557486 -1.26,0.786056 -2.22,0.685708l0,-1.689183c0.46,0.089198 0.805,-0.016725 1.035,-0.317767c0.23,-0.301043 0.345,-0.830655 0.345,-1.588836l0,-4.766508l5.745,0zm3.163,4.950478c0.12,0.635534 0.395,1.126122 0.825,1.471764c0.43,0.334492 0.955,0.501738 1.575,0.501738c0.86,0 1.505,-0.345641 1.935,-1.036924l1.335,0.869679c-0.74,1.21532 -1.835,1.82298 -3.285,1.82298c-1.22,0 -2.205,-0.41254 -2.955,-1.237619c-0.75,-0.836229 -1.125,-1.889878 -1.125,-3.160947c0,-1.248769 0.37,-2.291269 1.11,-3.127498c0.74,-0.847379 1.69,-1.271069 2.85,-1.271069c1.1,0 2,0.429264 2.7,1.287793c0.71,0.858529 1.065,1.901028 1.065,3.127498c0,0.189545 -0.02,0.440414 -0.06,0.752606l-5.97,0zm-0.015,-1.471764l4.41,0c-0.11,-0.680133 -0.365,-1.193021 -0.765,-1.538662c-0.39,-0.345641 -0.85,-0.518462 -1.38,-0.518462c-0.6,0 -1.1,0.18397 -1.5,0.551911c-0.4,0.367941 -0.655,0.869679 -0.765,1.505213zm12.03,-3.478714l1.62,0l0,8.362294l-1.62,0l0,-2.826455c-0.6,0.245294 -1.23,0.367941 -1.89,0.367941c-0.93,0 -1.665,-0.256444 -2.205,-0.769331c-0.54,-0.512887 -0.81,-1.265494 -0.81,-2.257819l0,-2.876629l1.62,0l0,2.709383c0,1.003475 0.535,1.505213 1.605,1.505213c0.63,0 1.19,-0.128222 1.68,-0.384666l0,-3.829931zm6.781,2.84318c0.8,0 1.455,0.256444 1.965,0.769331c0.51,0.501738 0.765,1.165146 0.765,1.990226c0,0.81393 -0.255,1.477339 -0.765,1.990226c-0.51,0.512887 -1.165,0.769331 -1.965,0.769331l-3.27,0l0,-8.362294l1.62,0l0,2.84318l1.65,0zm0.015,3.896829c0.32,0 0.585,-0.105922 0.795,-0.317767c0.22,-0.211845 0.33,-0.485013 0.33,-0.819505c0,-0.345641 -0.11,-0.61881 -0.33,-0.819505c-0.21,-0.211845 -0.475,-0.317767 -0.795,-0.317767l-1.665,0l0,2.274544l1.665,0zm14.42,1.622285l-1.935,0l-3.075,-3.86338l0,3.86338l-1.62,0l0,-8.362294l1.62,0l0,3.696134l2.91,-3.696134l1.98,0l-3.3,4.097524l3.42,4.26477zm7.419,-8.362294l0,8.362294l-1.62,0l0,-6.622937l-2.505,0l0,3.110773c0,1.326817 -0.26,2.268969 -0.78,2.826455c-0.52,0.557486 -1.26,0.786056 -2.22,0.685708l0,-1.689183c0.46,0.089198 0.805,-0.016725 1.035,-0.317767c0.23,-0.301043 0.345,-0.830655 0.345,-1.588836l0,-4.766508l5.745,0zm7.318,0l1.245,0l0,8.362294l-1.59,0l0,-5.318419l-3.84,5.318419l-1.245,0l0,-8.362294l1.59,0l0,5.301694l3.84,-5.301694zm4.4,4.950478c0.12,0.635534 0.395,1.126122 0.825,1.471764c0.43,0.334492 0.955,0.501738 1.575,0.501738c0.86,0 1.505,-0.345641 1.935,-1.036924l1.335,0.869679c-0.74,1.21532 -1.835,1.82298 -3.285,1.82298c-1.22,0 -2.205,-0.41254 -2.955,-1.237619c-0.75,-0.836229 -1.125,-1.889878 -1.125,-3.160947c0,-1.248769 0.37,-2.291269 1.11,-3.127498c0.74,-0.847379 1.69,-1.271069 2.85,-1.271069c1.1,0 2,0.429264 2.7,1.287793c0.71,0.858529 1.065,1.901028 1.065,3.127498c0,0.189545 -0.02,0.440414 -0.06,0.752606l-5.97,0zm-0.015,-1.471764l4.41,0c-0.11,-0.680133 -0.365,-1.193021 -0.765,-1.538662c-0.39,-0.345641 -0.85,-0.518462 -1.38,-0.518462c-0.6,0 -1.1,0.18397 -1.5,0.551911c-0.4,0.367941 -0.655,0.869679 -0.765,1.505213zm12.525,-3.478714l1.62,0l0,8.362294l-1.62,0l0,-3.328193l-3.435,0l0,3.328193l-1.62,0l0,-8.362294l1.62,0l0,3.328193l3.435,0l0,-3.328193zm9.23,0l0,1.739357l-2.445,0l0,6.622937l-1.62,0l0,-6.622937l-2.46,0l0,-1.739357l6.525,0zm4.343,8.579714c-1.1,0 -2.035,-0.42369 -2.805,-1.271069c-0.77,-0.847379 -1.155,-1.889878 -1.155,-3.127498c0,-1.237619 0.385,-2.280119 1.155,-3.127498c0.77,-0.847379 1.705,-1.271069 2.805,-1.271069c1.11,0 2.045,0.42369 2.805,1.271069c0.77,0.847379 1.155,1.889878 1.155,3.127498c0,1.237619 -0.385,2.280119 -1.155,3.127498c-0.76,0.847379 -1.695,1.271069 -2.805,1.271069zm-1.665,-2.508688c0.45,0.501738 1.005,0.752606 1.665,0.752606c0.66,0 1.215,-0.250869 1.665,-0.752606c0.45,-0.501738 0.675,-1.131697 0.675,-1.889878c0,-0.758181 -0.225,-1.388141 -0.675,-1.889878c-0.45,-0.501738 -1.005,-0.752606 -1.665,-0.752606c-0.66,0 -1.215,0.250869 -1.665,0.752606c-0.45,0.501738 -0.675,1.131697 -0.675,1.889878c0,0.758181 0.225,1.388141 0.675,1.889878zm12.28,-2.006951c0.74,0.379091 1.11,1.0202 1.11,1.923328c0,0.702433 -0.215,1.276644 -0.645,1.722633c-0.42,0.434839 -1.025,0.652259 -1.815,0.652259l-3.84,0l0,-8.362294l3.54,0c0.77,0 1.365,0.21742 1.785,0.652259c0.43,0.42369 0.645,0.975601 0.645,1.655734c0,0.79163 -0.26,1.376991 -0.78,1.756082zm-1.77,-2.525413l-1.875,0l0,1.856429l1.875,0c0.66,0 0.99,-0.312192 0.99,-0.936577c0,-0.613235 -0.33,-0.919852 -0.99,-0.919852zm0.27,5.251521c0.68,0 1.02,-0.328917 1.02,-0.986751c0,-0.289893 -0.09,-0.512887 -0.27,-0.668984c-0.18,-0.167246 -0.43,-0.250869 -0.75,-0.250869l-2.145,0l0,1.906603l2.145,0z"/>
  </g>
 </g>
</svg>