<svg width="375" height="812" xmlns="http://www.w3.org/2000/svg">

 <g>
  <title>background</title>
  <rect fill="none" id="canvas_background" height="402" width="582" y="-1" x="-1"/>
 </g>
 <g>
  <title>Layer 1</title>
  <rect stroke="null" id="svg_1" fill="#FFFBF7" height="812" width="375"/>
  <path id="svg_2" fill="#314E78" d="m55.8347,77.85l1.125,0l0,3.66l-1.725,0l0,-2.01l-6.375,0l0,2.01l-1.725,0l0,-3.66l0.975,0c0.61,-0.8 0.915,-2.005 0.915,-3.615l0,-5.235l6.81,0l0,8.85zm-5.835,0l4.11,0l0,-7.23l-3.36,0l0,3.645c0,1.56 -0.25,2.755 -0.75,3.585zm11.6049,1.845c-1.1,0 -2.035,-0.38 -2.805,-1.14c-0.77,-0.76 -1.155,-1.695 -1.155,-2.805c0,-1.11 0.385,-2.045 1.155,-2.805c0.77,-0.76 1.705,-1.14 2.805,-1.14c1.11,0 2.045,0.38 2.805,1.14c0.77,0.76 1.155,1.695 1.155,2.805c0,1.11 -0.385,2.045 -1.155,2.805c-0.76,0.76 -1.695,1.14 -2.805,1.14zm-1.665,-2.25c0.45,0.45 1.005,0.675 1.665,0.675c0.66,0 1.215,-0.225 1.665,-0.675c0.45,-0.45 0.675,-1.015 0.675,-1.695c0,-0.68 -0.225,-1.245 -0.675,-1.695c-0.45,-0.45 -1.005,-0.675 -1.665,-0.675c-0.66,0 -1.215,0.225 -1.665,0.675c-0.45,0.45 -0.675,1.015 -0.675,1.695c0,0.68 0.225,1.245 0.675,1.695zm10.5699,2.25c-1.15,0 -2.09,-0.37 -2.82,-1.11c-0.72,-0.75 -1.08,-1.705 -1.08,-2.865c0,-1.27 0.19,-2.25 0.57,-2.94c0.38,-0.7 1.15,-1.335 2.31,-1.905c0.19,-0.09 0.47,-0.22 0.84,-0.39c0.38,-0.17 0.64,-0.29 0.78,-0.36c0.14,-0.08 0.315,-0.19 0.525,-0.33c0.21,-0.15 0.365,-0.305 0.465,-0.465c0.1,-0.17 0.18,-0.37 0.24,-0.6l1.32,0.765c-0.04,0.22 -0.105,0.425 -0.195,0.615c-0.09,0.18 -0.22,0.35 -0.39,0.51c-0.17,0.16 -0.32,0.29 -0.45,0.39c-0.12,0.1 -0.325,0.22 -0.615,0.36c-0.29,0.14 -0.505,0.24 -0.645,0.3c-0.13,0.06 -0.38,0.165 -0.75,0.315c-0.66,0.26 -1.145,0.53 -1.455,0.81c-0.3,0.27 -0.51,0.61 -0.63,1.02c0.6,-0.68 1.415,-1.02 2.445,-1.02c0.88,0 1.645,0.315 2.295,0.945c0.66,0.63 0.99,1.445 0.99,2.445c0,1.02 -0.35,1.86 -1.05,2.52c-0.69,0.66 -1.59,0.99 -2.7,0.99zm-0.015,-1.515c0.63,0 1.145,-0.185 1.545,-0.555c0.4,-0.38 0.6,-0.86 0.6,-1.44c0,-0.59 -0.2,-1.075 -0.6,-1.455c-0.39,-0.38 -0.9,-0.57 -1.53,-0.57c-0.56,0 -1.065,0.18 -1.515,0.54c-0.45,0.35 -0.675,0.82 -0.675,1.41c0,0.6 0.21,1.095 0.63,1.485c0.42,0.39 0.935,0.585 1.545,0.585zm10.9857,-6.18l1.62,0l0,7.5l-1.62,0l0,-1.08c-0.61,0.85 -1.485,1.275 -2.625,1.275c-1.03,0 -1.91,-0.38 -2.64,-1.14c-0.73,-0.77 -1.095,-1.705 -1.095,-2.805c0,-1.11 0.365,-2.045 1.095,-2.805c0.73,-0.76 1.61,-1.14 2.64,-1.14c1.14,0 2.015,0.42 2.625,1.26l0,-1.065zm-4.065,5.475c0.45,0.45 1.015,0.675 1.695,0.675c0.68,0 1.245,-0.225 1.695,-0.675c0.45,-0.46 0.675,-1.035 0.675,-1.725c0,-0.69 -0.225,-1.26 -0.675,-1.71c-0.45,-0.46 -1.015,-0.69 -1.695,-0.69c-0.68,0 -1.245,0.23 -1.695,0.69c-0.45,0.45 -0.675,1.02 -0.675,1.71c0,0.69 0.225,1.265 0.675,1.725zm12.7633,-1.83c0.74,0.34 1.11,0.915 1.11,1.725c0,0.63 -0.215,1.145 -0.645,1.545c-0.42,0.39 -1.025,0.585 -1.815,0.585l-3.84,0l0,-7.5l3.54,0c0.77,0 1.365,0.195 1.785,0.585c0.43,0.38 0.645,0.875 0.645,1.485c0,0.71 -0.26,1.235 -0.78,1.575zm-1.77,-2.265l-1.875,0l0,1.665l1.875,0c0.66,0 0.99,-0.28 0.99,-0.84c0,-0.55 -0.33,-0.825 -0.99,-0.825zm0.27,4.71c0.68,0 1.02,-0.295 1.02,-0.885c0,-0.26 -0.09,-0.46 -0.27,-0.6c-0.18,-0.15 -0.43,-0.225 -0.75,-0.225l-2.145,0l0,1.71l2.145,0zm7.1971,-3.54c0.8,0 1.455,0.23 1.965,0.69c0.51,0.45 0.765,1.045 0.765,1.785c0,0.73 -0.255,1.325 -0.765,1.785c-0.51,0.46 -1.165,0.69 -1.965,0.69l-3.27,0l0,-7.5l1.62,0l0,2.55l1.65,0zm0.015,3.495c0.32,0 0.585,-0.095 0.795,-0.285c0.22,-0.19 0.33,-0.435 0.33,-0.735c0,-0.31 -0.11,-0.555 -0.33,-0.735c-0.21,-0.19 -0.475,-0.285 -0.795,-0.285l-1.665,0l0,2.04l1.665,0zm8.9494,-6.045l0,1.56l-2.445,0l0,5.94l-1.62,0l0,-5.94l-2.4604,0l0,-1.56l6.5254,0zm2.078,4.44c0.12,0.57 0.395,1.01 0.825,1.32c0.43,0.3 0.955,0.45 1.575,0.45c0.86,0 1.505,-0.31 1.935,-0.93l1.335,0.78c-0.74,1.09 -1.835,1.635 -3.285,1.635c-1.22,0 -2.205,-0.37 -2.955,-1.11c-0.75,-0.75 -1.125,-1.695 -1.125,-2.835c0,-1.12 0.37,-2.055 1.11,-2.805c0.74,-0.76 1.69,-1.14 2.85,-1.14c1.1,0 2,0.385 2.7,1.155c0.71,0.77 1.065,1.705 1.065,2.805c0,0.17 -0.02,0.395 -0.06,0.675l-5.97,0zm-0.015,-1.32l4.41,0c-0.11,-0.61 -0.365,-1.07 -0.765,-1.38c-0.39,-0.31 -0.85,-0.465 -1.38,-0.465c-0.6,0 -1.1,0.165 -1.5,0.495c-0.4,0.33 -0.655,0.78 -0.765,1.35zm14.76,4.575c-1.13,0 -2.075,-0.38 -2.835,-1.14c-0.75,-0.76 -1.125,-1.695 -1.125,-2.805c0,-1.12 0.375,-2.055 1.125,-2.805c0.76,-0.76 1.705,-1.14 2.835,-1.14c0.73,0 1.395,0.175 1.995,0.525c0.6,0.35 1.05,0.82 1.35,1.41l-1.395,0.81c-0.17,-0.36 -0.43,-0.64 -0.78,-0.84c-0.34,-0.21 -0.735,-0.315 -1.185,-0.315c-0.66,0 -1.215,0.225 -1.665,0.675c-0.44,0.45 -0.66,1.01 -0.66,1.68c0,0.67 0.22,1.23 0.66,1.68c0.45,0.45 1.005,0.675 1.665,0.675c0.44,0 0.835,-0.105 1.185,-0.315c0.36,-0.21 0.63,-0.49 0.81,-0.84l1.395,0.795c-0.32,0.6 -0.78,1.075 -1.38,1.425c-0.6,0.35 -1.265,0.525 -1.995,0.525zm9.78,-4.05c0.74,0.34 1.11,0.915 1.11,1.725c0,0.63 -0.215,1.145 -0.645,1.545c-0.42,0.39 -1.025,0.585 -1.815,0.585l-3.84,0l0,-7.5l3.54,0c0.77,0 1.365,0.195 1.785,0.585c0.43,0.38 0.645,0.875 0.645,1.485c0,0.71 -0.26,1.235 -0.78,1.575zm-1.77,-2.265l-1.875,0l0,1.665l1.875,0c0.66,0 0.99,-0.28 0.99,-0.84c0,-0.55 -0.33,-0.825 -0.99,-0.825zm0.27,4.71c0.68,0 1.02,-0.295 1.02,-0.885c0,-0.26 -0.09,-0.46 -0.27,-0.6c-0.18,-0.15 -0.43,-0.225 -0.75,-0.225l-2.145,0l0,1.71l2.145,0zm7.467,1.605c-1.1,0 -2.035,-0.38 -2.805,-1.14c-0.77,-0.76 -1.155,-1.695 -1.155,-2.805c0,-1.11 0.385,-2.045 1.155,-2.805c0.77,-0.76 1.705,-1.14 2.805,-1.14c1.11,0 2.045,0.38 2.805,1.14c0.77,0.76 1.155,1.695 1.155,2.805c0,1.11 -0.385,2.045 -1.155,2.805c-0.76,0.76 -1.695,1.14 -2.805,1.14zm-1.665,-2.25c0.45,0.45 1.005,0.675 1.665,0.675c0.66,0 1.215,-0.225 1.665,-0.675c0.45,-0.45 0.675,-1.015 0.675,-1.695c0,-0.68 -0.225,-1.245 -0.675,-1.695c-0.45,-0.45 -1.005,-0.675 -1.665,-0.675c-0.66,0 -1.215,0.225 -1.665,0.675c-0.45,0.45 -0.675,1.015 -0.675,1.695c0,0.68 0.225,1.245 0.675,1.695zm12.52,-5.445l1.245,0l0,7.5l-1.59,0l0,-4.77l-3.84,4.77l-1.245,0l0,-7.5l1.59,0l0,4.755l3.84,-4.755zm10.415,7.695c-1.13,0 -2.075,-0.38 -2.835,-1.14c-0.75,-0.76 -1.125,-1.695 -1.125,-2.805c0,-1.12 0.375,-2.055 1.125,-2.805c0.76,-0.76 1.705,-1.14 2.835,-1.14c0.73,0 1.395,0.175 1.995,0.525c0.6,0.35 1.05,0.82 1.35,1.41l-1.395,0.81c-0.17,-0.36 -0.43,-0.64 -0.78,-0.84c-0.34,-0.21 -0.735,-0.315 -1.185,-0.315c-0.66,0 -1.215,0.225 -1.665,0.675c-0.44,0.45 -0.66,1.01 -0.66,1.68c0,0.67 0.22,1.23 0.66,1.68c0.45,0.45 1.005,0.675 1.665,0.675c0.44,0 0.835,-0.105 1.185,-0.315c0.36,-0.21 0.63,-0.49 0.81,-0.84l1.395,0.795c-0.32,0.6 -0.78,1.075 -1.38,1.425c-0.6,0.35 -1.265,0.525 -1.995,0.525zm7.969,0c-1.1,0 -2.035,-0.38 -2.805,-1.14c-0.77,-0.76 -1.155,-1.695 -1.155,-2.805c0,-1.11 0.385,-2.045 1.155,-2.805c0.77,-0.76 1.705,-1.14 2.805,-1.14c1.11,0 2.045,0.38 2.805,1.14c0.77,0.76 1.155,1.695 1.155,2.805c0,1.11 -0.385,2.045 -1.155,2.805c-0.76,0.76 -1.695,1.14 -2.805,1.14zm-1.665,-2.25c0.45,0.45 1.005,0.675 1.665,0.675c0.66,0 1.215,-0.225 1.665,-0.675c0.45,-0.45 0.675,-1.015 0.675,-1.695c0,-0.68 -0.225,-1.245 -0.675,-1.695c-0.45,-0.45 -1.005,-0.675 -1.665,-0.675c-0.66,0 -1.215,0.225 -1.665,0.675c-0.45,0.45 -0.675,1.015 -0.675,1.695c0,0.68 0.225,1.245 0.675,1.695zm13.539,0.525l1.23,0l0,3.54l-1.59,0l0,-2.01l-6.09,0l0,-7.5l1.62,0l0,5.97l3.21,0l0,-5.97l1.62,0l0,5.97zm7.975,-5.97l1.245,0l0,7.5l-1.59,0l0,-4.77l-3.84,4.77l-1.245,0l0,-7.5l1.59,0l0,4.755l3.84,-4.755zm9.064,0l1.62,0l0,7.5l-1.62,0l0,-1.08c-0.61,0.85 -1.485,1.275 -2.625,1.275c-1.03,0 -1.91,-0.38 -2.64,-1.14c-0.73,-0.77 -1.095,-1.705 -1.095,-2.805c0,-1.11 0.365,-2.045 1.095,-2.805c0.73,-0.76 1.61,-1.14 2.64,-1.14c1.14,0 2.015,0.42 2.625,1.26l0,-1.065zm-4.065,5.475c0.45,0.45 1.015,0.675 1.695,0.675c0.68,0 1.245,-0.225 1.695,-0.675c0.45,-0.46 0.675,-1.035 0.675,-1.725c0,-0.69 -0.225,-1.26 -0.675,-1.71c-0.45,-0.46 -1.015,-0.69 -1.695,-0.69c-0.68,0 -1.245,0.23 -1.695,0.69c-0.45,0.45 -0.675,1.02 -0.675,1.71c0,0.69 0.225,1.265 0.675,1.725zm13.903,-5.475l0,7.5l-1.62,0l0,-5.94l-2.505,0l0,2.79c0,1.19 -0.26,2.035 -0.78,2.535c-0.52,0.5 -1.26,0.705 -2.22,0.615l0,-1.515c0.46,0.08 0.805,-0.015 1.035,-0.285c0.23,-0.27 0.345,-0.745 0.345,-1.425l0,-4.275l5.745,0zm5.158,2.55c0.8,0 1.455,0.23 1.965,0.69c0.51,0.45 0.765,1.045 0.765,1.785c0,0.73 -0.255,1.325 -0.765,1.785c-0.51,0.46 -1.165,0.69 -1.965,0.69l-3.27,0l0,-7.5l1.62,0l0,2.55l1.65,0zm0.015,3.495c0.32,0 0.585,-0.095 0.795,-0.285c0.22,-0.19 0.33,-0.435 0.33,-0.735c0,-0.31 -0.11,-0.555 -0.33,-0.735c-0.21,-0.19 -0.475,-0.285 -0.795,-0.285l-1.665,0l0,2.04l1.665,0zm9.094,-6.045l1.62,0l0,7.5l-1.62,0l0,-2.985l-3.435,0l0,2.985l-1.62,0l0,-7.5l1.62,0l0,2.985l3.435,0l0,-2.985zm6.77,2.55c0.8,0 1.455,0.23 1.965,0.69c0.51,0.45 0.765,1.045 0.765,1.785c0,0.73 -0.255,1.325 -0.765,1.785c-0.51,0.46 -1.165,0.69 -1.965,0.69l-3.27,0l0,-7.5l1.62,0l0,2.55l1.65,0zm3.63,-2.55l1.62,0l0,7.5l-1.62,0l0,-7.5zm-3.615,6.045c0.32,0 0.585,-0.095 0.795,-0.285c0.22,-0.19 0.33,-0.435 0.33,-0.735c0,-0.31 -0.11,-0.555 -0.33,-0.735c-0.21,-0.19 -0.475,-0.285 -0.795,-0.285l-1.665,0l0,2.04l1.665,0zm8.391,-1.605c0.12,0.57 0.395,1.01 0.825,1.32c0.43,0.3 0.955,0.45 1.575,0.45c0.86,0 1.505,-0.31 1.935,-0.93l1.335,0.78c-0.74,1.09 -1.835,1.635 -3.285,1.635c-1.22,0 -2.205,-0.37 -2.955,-1.11c-0.75,-0.75 -1.125,-1.695 -1.125,-2.835c0,-1.12 0.37,-2.055 1.11,-2.805c0.74,-0.76 1.69,-1.14 2.85,-1.14c1.1,0 2,0.385 2.7,1.155c0.71,0.77 1.065,1.705 1.065,2.805c0,0.17 -0.02,0.395 -0.06,0.675l-5.97,0zm-0.015,-1.32l4.41,0c-0.11,-0.61 -0.365,-1.07 -0.765,-1.38c-0.39,-0.31 -0.85,-0.465 -1.38,-0.465c-0.6,0 -1.1,0.165 -1.5,0.495c-0.4,0.33 -0.655,0.78 -0.765,1.35zm14.76,4.575c-1.13,0 -2.075,-0.38 -2.835,-1.14c-0.75,-0.76 -1.125,-1.695 -1.125,-2.805c0,-1.12 0.375,-2.055 1.125,-2.805c0.76,-0.76 1.705,-1.14 2.835,-1.14c0.73,0 1.395,0.175 1.995,0.525c0.6,0.35 1.05,0.82 1.35,1.41l-1.395,0.81c-0.17,-0.36 -0.43,-0.64 -0.78,-0.84c-0.34,-0.21 -0.735,-0.315 -1.185,-0.315c-0.66,0 -1.215,0.225 -1.665,0.675c-0.44,0.45 -0.66,1.01 -0.66,1.68c0,0.67 0.22,1.23 0.66,1.68c0.45,0.45 1.005,0.675 1.665,0.675c0.44,0 0.835,-0.105 1.185,-0.315c0.36,-0.21 0.63,-0.49 0.81,-0.84l1.395,0.795c-0.32,0.6 -0.78,1.075 -1.38,1.425c-0.6,0.35 -1.265,0.525 -1.995,0.525zm5.704,-3.255c0.12,0.57 0.395,1.01 0.825,1.32c0.43,0.3 0.955,0.45 1.575,0.45c0.86,0 1.505,-0.31 1.935,-0.93l1.335,0.78c-0.74,1.09 -1.835,1.635 -3.285,1.635c-1.22,0 -2.205,-0.37 -2.955,-1.11c-0.75,-0.75 -1.125,-1.695 -1.125,-2.835c0,-1.12 0.37,-2.055 1.11,-2.805c0.74,-0.76 1.69,-1.14 2.85,-1.14c1.1,0 2,0.385 2.7,1.155c0.71,0.77 1.065,1.705 1.065,2.805c0,0.17 -0.02,0.395 -0.06,0.675l-5.97,0zm-0.015,-1.32l4.41,0c-0.11,-0.61 -0.365,-1.07 -0.765,-1.38c-0.39,-0.31 -0.85,-0.465 -1.38,-0.465c-0.6,0 -1.1,0.165 -1.5,0.495c-0.4,0.33 -0.655,0.78 -0.765,1.35zm12.907,-3.12l0,1.56l-2.445,0l0,5.94l-1.62,0l0,-5.94l-2.46,0l0,-1.56l6.525,0zm6.526,0l1.245,0l0,7.5l-1.59,0l0,-4.77l-3.84,4.77l-1.245,0l0,-7.5l1.59,0l0,4.755l3.84,-4.755zm5.375,5.7l-1.05,3.9l-1.35,0l0.6,-3.9l1.8,0zm10.03,-5.7l1.62,0l0,7.5l-1.62,0l0,-2.535c-0.6,0.22 -1.23,0.33 -1.89,0.33c-0.93,0 -1.665,-0.23 -2.205,-0.69c-0.54,-0.46 -0.81,-1.135 -0.81,-2.025l0,-2.58l1.62,0l0,2.43c0,0.9 0.535,1.35 1.605,1.35c0.63,0 1.19,-0.115 1.68,-0.345l0,-3.435zm9.241,0l0,1.56l-2.445,0l0,5.94l-1.62,0l0,-5.94l-2.46,0l0,-1.56l6.525,0zm4.343,7.695c-1.1,0 -2.035,-0.38 -2.805,-1.14c-0.77,-0.76 -1.155,-1.695 -1.155,-2.805c0,-1.11 0.385,-2.045 1.155,-2.805c0.77,-0.76 1.705,-1.14 2.805,-1.14c1.11,0 2.045,0.38 2.805,1.14c0.77,0.76 1.155,1.695 1.155,2.805c0,1.11 -0.385,2.045 -1.155,2.805c-0.76,0.76 -1.695,1.14 -2.805,1.14zm-1.665,-2.25c0.45,0.45 1.005,0.675 1.665,0.675c0.66,0 1.215,-0.225 1.665,-0.675c0.45,-0.45 0.675,-1.015 0.675,-1.695c0,-0.68 -0.225,-1.245 -0.675,-1.695c-0.45,-0.45 -1.005,-0.675 -1.665,-0.675c-0.66,0 -1.215,0.225 -1.665,0.675c-0.45,0.45 -0.675,1.015 -0.675,1.695c0,0.68 0.225,1.245 0.675,1.695zm10.57,2.25c-1.15,0 -2.09,-0.37 -2.82,-1.11c-0.72,-0.75 -1.08,-1.705 -1.08,-2.865c0,-1.27 0.19,-2.25 0.57,-2.94c0.38,-0.7 1.15,-1.335 2.31,-1.905c0.19,-0.09 0.47,-0.22 0.84,-0.39c0.38,-0.17 0.64,-0.29 0.78,-0.36c0.14,-0.08 0.315,-0.19 0.525,-0.33c0.21,-0.15 0.365,-0.305 0.465,-0.465c0.1,-0.17 0.18,-0.37 0.24,-0.6l1.32,0.765c-0.04,0.22 -0.105,0.425 -0.195,0.615c-0.09,0.18 -0.22,0.35 -0.39,0.51c-0.17,0.16 -0.32,0.29 -0.45,0.39c-0.12,0.1 -0.325,0.22 -0.615,0.36c-0.29,0.14 -0.505,0.24 -0.645,0.3c-0.13,0.06 -0.38,0.165 -0.75,0.315c-0.66,0.26 -1.145,0.53 -1.455,0.81c-0.3,0.27 -0.51,0.61 -0.63,1.02c0.6,-0.68 1.415,-1.02 2.445,-1.02c0.88,0 1.645,0.315 2.295,0.945c0.66,0.63 0.99,1.445 0.99,2.445c0,1.02 -0.35,1.86 -1.05,2.52c-0.69,0.66 -1.59,0.99 -2.7,0.99zm-0.015,-1.515c0.63,0 1.145,-0.185 1.545,-0.555c0.4,-0.38 0.6,-0.86 0.6,-1.44c0,-0.59 -0.2,-1.075 -0.6,-1.455c-0.39,-0.38 -0.9,-0.57 -1.53,-0.57c-0.56,0 -1.065,0.18 -1.515,0.54c-0.45,0.35 -0.675,0.82 -0.675,1.41c0,0.6 0.21,1.095 0.63,1.485c0.42,0.39 0.935,0.585 1.545,0.585zm8.316,-3.63c0.8,0 1.455,0.23 1.965,0.69c0.51,0.45 0.765,1.045 0.765,1.785c0,0.73 -0.255,1.325 -0.765,1.785c-0.51,0.46 -1.165,0.69 -1.965,0.69l-3.27,0l0,-7.5l1.62,0l0,2.55l1.65,0zm3.63,-2.55l1.62,0l0,7.5l-1.62,0l0,-7.5zm-3.615,6.045c0.32,0 0.585,-0.095 0.795,-0.285c0.22,-0.19 0.33,-0.435 0.33,-0.735c0,-0.31 -0.11,-0.555 -0.33,-0.735c-0.21,-0.19 -0.475,-0.285 -0.795,-0.285l-1.665,0l0,2.04l1.665,0zm-240.7859,21.455l-1.935,0l-3.075,-3.465l0,3.465l-1.62,0l0,-7.5l1.62,0l0,3.315l2.91,-3.315l1.98,0l-3.3,3.675l3.42,3.825zm7.4197,-7.5l0,7.5l-1.62,0l0,-5.94l-2.505,0l0,2.79c0,1.19 -0.26,2.035 -0.78,2.535c-0.52,0.5 -1.26,0.705 -2.22,0.615l0,-1.515c0.46,0.08 0.805,-0.015 1.035,-0.285c0.23,-0.27 0.345,-0.745 0.345,-1.425l0,-4.275l5.745,0zm7.3178,0l1.245,0l0,7.5l-1.59,0l0,-4.77l-3.84,4.77l-1.245,0l0,-7.5l1.59,0l0,4.755l3.84,-4.755zm4.3997,4.44c0.12,0.57 0.395,1.01 0.8247,1.32c0.43,0.3 0.955,0.45 1.575,0.45c0.86,0 1.505,-0.31 1.935,-0.93l1.335,0.78c-0.74,1.09 -1.835,1.635 -3.285,1.635c-1.22,0 -2.2047,-0.37 -2.9547,-1.11c-0.75,-0.75 -1.125,-1.695 -1.125,-2.835c0,-1.12 0.37,-2.055 1.11,-2.805c0.74,-0.76 1.6897,-1.14 2.8497,-1.14c1.1,0 2,0.385 2.7,1.155c0.71,0.77 1.065,1.705 1.065,2.805c0,0.17 -0.02,0.395 -0.06,0.675l-5.9697,0zm-0.015,-1.32l4.4097,0c-0.11,-0.61 -0.365,-1.07 -0.765,-1.38c-0.39,-0.31 -0.85,-0.465 -1.38,-0.465c-0.6,0 -1.1,0.165 -1.5,0.495c-0.3997,0.33 -0.6547,0.78 -0.7647,1.35zm12.5257,-3.12l1.62,0l0,7.5l-1.62,0l0,-2.985l-3.435,0l0,2.985l-1.62,0l0,-7.5l1.62,0l0,2.985l3.435,0l0,-2.985zm9.229,0l0,1.56l-2.445,0l0,5.94l-1.62,0l0,-5.94l-2.46,0l0,-1.56l6.525,0zm4.367,2.55c0.8,0 1.455,0.23 1.965,0.69c0.51,0.45 0.765,1.045 0.765,1.785c0,0.73 -0.255,1.325 -0.765,1.785c-0.51,0.46 -1.165,0.69 -1.965,0.69l-3.27,0l0,-7.5l1.62,0l0,2.55l1.65,0zm3.63,-2.55l1.62,0l0,7.5l-1.62,0l0,-7.5zm-3.615,6.045c0.32,0 0.585,-0.095 0.795,-0.285c0.22,-0.19 0.33,-0.435 0.33,-0.735c0,-0.31 -0.11,-0.555 -0.33,-0.735c-0.21,-0.19 -0.475,-0.285 -0.795,-0.285l-1.665,0l0,2.04l1.665,0zm18.515,-6.045l0,7.5l-1.575,0l0,-4.935l-2.16,3.435l-0.195,0l-2.145,-3.42l0,4.92l-1.575,0l0,-7.5l1.65,0l2.175,3.465l2.175,-3.465l1.65,0zm5.411,7.695c-1.1,0 -2.035,-0.38 -2.805,-1.14c-0.77,-0.76 -1.155,-1.695 -1.155,-2.805c0,-1.11 0.385,-2.045 1.155,-2.805c0.77,-0.76 1.705,-1.14 2.805,-1.14c1.11,0 2.045,0.38 2.805,1.14c0.77,0.76 1.155,1.695 1.155,2.805c0,1.11 -0.385,2.045 -1.155,2.805c-0.76,0.76 -1.695,1.14 -2.805,1.14zm-1.665,-2.25c0.45,0.45 1.005,0.675 1.665,0.675c0.66,0 1.215,-0.225 1.665,-0.675c0.45,-0.45 0.675,-1.015 0.675,-1.695c0,-0.68 -0.225,-1.245 -0.675,-1.695c-0.45,-0.45 -1.005,-0.675 -1.665,-0.675c-0.66,0 -1.215,0.225 -1.665,0.675c-0.45,0.45 -0.675,1.015 -0.675,1.695c0,0.68 0.225,1.245 0.675,1.695zm12.115,-5.445l0,1.56l-3.405,0l0,5.94l-1.62,0l0,-7.5l5.025,0zm6.974,0l0,7.5l-1.62,0l0,-5.94l-2.505,0l0,2.79c0,1.19 -0.26,2.035 -0.78,2.535c-0.52,0.5 -1.26,0.705 -2.22,0.615l0,-1.515c0.46,0.08 0.805,-0.015 1.035,-0.285c0.23,-0.27 0.345,-0.745 0.345,-1.425l0,-4.275l5.745,0zm7.318,0l1.245,0l0,7.5l-1.59,0l0,-4.77l-3.84,4.77l-1.245,0l0,-7.5l1.59,0l0,4.755l3.84,-4.755zm10.415,7.695c-1.13,0 -2.075,-0.38 -2.835,-1.14c-0.75,-0.76 -1.125,-1.695 -1.125,-2.805c0,-1.12 0.375,-2.055 1.125,-2.805c0.76,-0.76 1.705,-1.14 2.835,-1.14c0.73,0 1.395,0.175 1.995,0.525c0.6,0.35 1.05,0.82 1.35,1.41l-1.395,0.81c-0.17,-0.36 -0.43,-0.64 -0.78,-0.84c-0.34,-0.21 -0.735,-0.315 -1.185,-0.315c-0.66,0 -1.215,0.225 -1.665,0.675c-0.44,0.45 -0.66,1.01 -0.66,1.68c0,0.67 0.22,1.23 0.66,1.68c0.45,0.45 1.005,0.675 1.665,0.675c0.44,0 0.835,-0.105 1.185,-0.315c0.36,-0.21 0.63,-0.49 0.81,-0.84l1.395,0.795c-0.32,0.6 -0.78,1.075 -1.38,1.425c-0.6,0.35 -1.265,0.525 -1.995,0.525zm14.625,-5.64c0.46,0.24 0.82,0.57 1.08,0.99c0.26,0.42 0.39,0.905 0.39,1.455c0,0.86 -0.305,1.575 -0.915,2.145c-0.61,0.57 -1.355,0.855 -2.235,0.855l-4.5,0l0,-10.5l4.17,0c0.86,0 1.585,0.28 2.175,0.84c0.6,0.55 0.9,1.24 0.9,2.07c0,0.91 -0.355,1.625 -1.065,2.145zm-2.01,-3.435l-2.445,0l0,2.76l2.445,0c0.38,0 0.7,-0.13 0.96,-0.39c0.26,-0.27 0.39,-0.6 0.39,-0.99c0,-0.39 -0.13,-0.715 -0.39,-0.975c-0.26,-0.27 -0.58,-0.405 -0.96,-0.405zm0.33,7.26c0.4,0 0.735,-0.14 1.005,-0.42c0.28,-0.29 0.42,-0.64 0.42,-1.05c0,-0.41 -0.14,-0.755 -0.42,-1.035c-0.27,-0.29 -0.605,-0.435 -1.005,-0.435l-2.775,0l0,2.94l2.775,0zm10.563,-5.88l1.62,0l0,7.5l-1.62,0l0,-1.08c-0.61,0.85 -1.485,1.275 -2.625,1.275c-1.03,0 -1.91,-0.38 -2.64,-1.14c-0.73,-0.77 -1.095,-1.705 -1.095,-2.805c0,-1.11 0.365,-2.045 1.095,-2.805c0.73,-0.76 1.61,-1.14 2.64,-1.14c1.14,0 2.015,0.42 2.625,1.26l0,-1.065zm-4.065,5.475c0.45,0.45 1.015,0.675 1.695,0.675c0.68,0 1.245,-0.225 1.695,-0.675c0.45,-0.46 0.675,-1.035 0.675,-1.725c0,-0.69 -0.225,-1.26 -0.675,-1.71c-0.45,-0.46 -1.015,-0.69 -1.695,-0.69c-0.68,0 -1.245,0.23 -1.695,0.69c-0.45,0.45 -0.675,1.02 -0.675,1.71c0,0.69 0.225,1.265 0.675,1.725zm15.223,-5.475l0,7.5l-1.575,0l0,-4.935l-2.16,3.435l-0.195,0l-2.145,-3.42l0,4.92l-1.575,0l0,-7.5l1.65,0l2.175,3.465l2.175,-3.465l1.65,0zm7.302,0l1.245,0l0,7.5l-1.59,0l0,-4.77l-3.84,4.77l-1.245,0l0,-7.5l1.59,0l0,4.755l3.84,-4.755zm10.415,7.695c-1.13,0 -2.075,-0.38 -2.835,-1.14c-0.75,-0.76 -1.125,-1.695 -1.125,-2.805c0,-1.12 0.375,-2.055 1.125,-2.805c0.76,-0.76 1.705,-1.14 2.835,-1.14c0.73,0 1.395,0.175 1.995,0.525c0.6,0.35 1.05,0.82 1.35,1.41l-1.395,0.81c-0.17,-0.36 -0.43,-0.64 -0.78,-0.84c-0.34,-0.21 -0.735,-0.315 -1.185,-0.315c-0.66,0 -1.215,0.225 -1.665,0.675c-0.44,0.45 -0.66,1.01 -0.66,1.68c0,0.67 0.22,1.23 0.66,1.68c0.45,0.45 1.005,0.675 1.665,0.675c0.44,0 0.835,-0.105 1.185,-0.315c0.36,-0.21 0.63,-0.49 0.81,-0.84l1.395,0.795c-0.32,0.6 -0.78,1.075 -1.38,1.425c-0.6,0.35 -1.265,0.525 -1.995,0.525zm9.779,-4.05c0.74,0.34 1.11,0.915 1.11,1.725c0,0.63 -0.215,1.145 -0.645,1.545c-0.42,0.39 -1.025,0.585 -1.815,0.585l-3.84,0l0,-7.5l3.54,0c0.77,0 1.365,0.195 1.785,0.585c0.43,0.38 0.645,0.875 0.645,1.485c0,0.71 -0.26,1.235 -0.78,1.575zm-1.77,-2.265l-1.875,0l0,1.665l1.875,0c0.66,0 0.99,-0.28 0.99,-0.84c0,-0.55 -0.33,-0.825 -0.99,-0.825zm0.27,4.71c0.68,0 1.02,-0.295 1.02,-0.885c0,-0.26 -0.09,-0.46 -0.27,-0.6c-0.18,-0.15 -0.43,-0.225 -0.75,-0.225l-2.145,0l0,1.71l2.145,0zm9.44,-6.09l0,7.5l-1.59,0l0,-2.52l-0.9,0l-1.905,2.52l-1.905,0l2.025,-2.67c-0.52,-0.17 -0.94,-0.47 -1.26,-0.9c-0.31,-0.43 -0.465,-0.91 -0.465,-1.44c0,-0.69 0.245,-1.275 0.735,-1.755c0.5,-0.49 1.14,-0.735 1.92,-0.735l3.345,0zm-3.255,3.585l1.665,0l0,-2.115l-1.665,0c-0.33,0 -0.605,0.095 -0.825,0.285c-0.22,0.19 -0.33,0.45 -0.33,0.78c0,0.32 0.11,0.575 0.33,0.765c0.22,0.19 0.495,0.285 0.825,0.285zm9.355,0.075c0.8,0.36 1.2,0.955 1.2,1.785c0,0.64 -0.26,1.175 -0.78,1.605c-0.52,0.43 -1.245,0.645 -2.175,0.645c-1.51,0 -2.53,-0.6 -3.06,-1.8l1.32,-0.78c0.27,0.75 0.855,1.125 1.755,1.125c0.42,0 0.75,-0.085 0.99,-0.255c0.24,-0.18 0.36,-0.415 0.36,-0.705c0,-0.26 -0.095,-0.465 -0.285,-0.615c-0.19,-0.16 -0.455,-0.24 -0.795,-0.24l-1.065,0l0,-1.425l0.795,0c0.33,0 0.585,-0.075 0.765,-0.225c0.19,-0.16 0.285,-0.375 0.285,-0.645c0,-0.26 -0.105,-0.47 -0.315,-0.63c-0.21,-0.17 -0.49,-0.255 -0.84,-0.255c-0.75,0 -1.27,0.33 -1.56,0.99l-1.32,-0.75c0.56,-1.12 1.51,-1.68 2.85,-1.68c0.84,0 1.505,0.215 1.995,0.645c0.5,0.42 0.75,0.935 0.75,1.545c0,0.75 -0.29,1.305 -0.87,1.665zm8.463,-3.66l1.62,0l0,7.5l-1.62,0l0,-1.08c-0.61,0.85 -1.485,1.275 -2.625,1.275c-1.03,0 -1.91,-0.38 -2.64,-1.14c-0.73,-0.77 -1.095,-1.705 -1.095,-2.805c0,-1.11 0.365,-2.045 1.095,-2.805c0.73,-0.76 1.61,-1.14 2.64,-1.14c1.14,0 2.015,0.42 2.625,1.26l0,-1.065zm-4.065,5.475c0.45,0.45 1.015,0.675 1.695,0.675c0.68,0 1.245,-0.225 1.695,-0.675c0.45,-0.46 0.675,-1.035 0.675,-1.725c0,-0.69 -0.225,-1.26 -0.675,-1.71c-0.45,-0.46 -1.015,-0.69 -1.695,-0.69c-0.68,0 -1.245,0.23 -1.695,0.69c-0.45,0.45 -0.675,1.02 -0.675,1.71c0,0.69 0.225,1.265 0.675,1.725zm13.304,-5.475l0,1.56l-2.445,0l0,5.94l-1.62,0l0,-5.94l-2.46,0l0,-1.56l6.525,0zm4.366,2.55c0.8,0 1.455,0.23 1.965,0.69c0.51,0.45 0.765,1.045 0.765,1.785c0,0.73 -0.255,1.325 -0.765,1.785c-0.51,0.46 -1.165,0.69 -1.965,0.69l-3.27,0l0,-7.5l1.62,0l0,2.55l1.65,0zm0.015,3.495c0.32,0 0.585,-0.095 0.795,-0.285c0.22,-0.19 0.33,-0.435 0.33,-0.735c0,-0.31 -0.11,-0.555 -0.33,-0.735c-0.21,-0.19 -0.475,-0.285 -0.795,-0.285l-1.665,0l0,2.04l1.665,0zm7.491,1.65c-1.13,0 -2.075,-0.38 -2.835,-1.14c-0.75,-0.76 -1.125,-1.695 -1.125,-2.805c0,-1.12 0.375,-2.055 1.125,-2.805c0.76,-0.76 1.705,-1.14 2.835,-1.14c0.73,0 1.395,0.175 1.995,0.525c0.6,0.35 1.05,0.82 1.35,1.41l-1.395,0.81c-0.17,-0.36 -0.43,-0.64 -0.78,-0.84c-0.34,-0.21 -0.735,-0.315 -1.185,-0.315c-0.66,0 -1.215,0.225 -1.665,0.675c-0.44,0.45 -0.66,1.01 -0.66,1.68c0,0.67 0.22,1.23 0.66,1.68c0.45,0.45 1.005,0.675 1.665,0.675c0.44,0 0.835,-0.105 1.185,-0.315c0.36,-0.21 0.63,-0.49 0.81,-0.84l1.395,0.795c-0.32,0.6 -0.78,1.075 -1.38,1.425c-0.6,0.35 -1.265,0.525 -1.995,0.525zm10.248,-7.695l0,7.5l-1.59,0l0,-2.52l-0.9,0l-1.905,2.52l-1.905,0l2.025,-2.67c-0.52,-0.17 -0.94,-0.47 -1.26,-0.9c-0.31,-0.43 -0.465,-0.91 -0.465,-1.44c0,-0.69 0.245,-1.275 0.735,-1.755c0.5,-0.49 1.14,-0.735 1.92,-0.735l3.345,0zm-3.255,3.585l1.665,0l0,-2.115l-1.665,0c-0.33,0 -0.605,0.095 -0.825,0.285c-0.22,0.19 -0.33,0.45 -0.33,0.78c0,0.32 0.11,0.575 0.33,0.765c0.22,0.19 0.495,0.285 0.825,0.285z"/>
 </g>
</svg>