<svg width="170" height="170" viewBox="0 0 170 170" fill="none" xmlns="http://www.w3.org/2000/svg">
<circle opacity="0.3" cx="85" cy="85" r="85" fill="url(#paint0_linear)"/>
<path opacity="0.7" d="M63.9431 55.5753C61.4698 60.0269 55.1127 58.1046 51.5767 59.1164C50.5874 59.3995 47.7638 60.1281 44.8783 64.1751C41.2715 69.2338 49.5157 75.3042 48.4852 82.8922C47.4547 90.4803 40.2409 93.5155 36.6341 96.0448C33.0272 98.5742 25.2982 102.115 23.7524 121.338C22.2066 140.561 46.4241 159.784 49.5157 161.808C52.6072 163.831 69.611 170.913 84.5537 169.902C99.4964 168.89 114.439 164.337 116.5 163.831C118.561 163.325 155.145 150.173 152.053 127.915C148.962 105.656 136.595 100.598 131.958 97.5624C127.321 94.5272 122.168 88.9627 123.199 72.7748C124.229 56.587 123.643 55.5753 116.5 45.4579C109.8 35.9679 97.9506 31.2936 89.7063 31.2936C81.4621 31.2936 76.8247 34.8347 73.2178 38.3757C69.611 41.9168 67.0347 50.0107 63.9431 55.5753Z" fill="url(#paint1_linear)"/>
<path d="M74.7486 86.9665C62.9243 80.2661 71.0529 48.0447 84.8479 42.6252C83.3698 52.9715 104.605 67.8505 105.787 70.2154C107.265 73.1714 107.758 78.5909 102.831 85.4885C97.9046 92.386 98.3973 89.4299 97.4119 99.2835C96.4265 109.137 114.656 107.659 118.597 130.322C121.75 148.453 90.9242 154.3 79.4283 154.956C79.921 135.085 86.573 93.667 74.7486 86.9665Z" fill="url(#paint2_linear)"/>
<path d="M81.4446 84.9958C61.3432 73.1715 74.6658 51.3293 84.8478 42.6252C85.3405 47.3878 88.9333 59.4749 91.2982 63.8105C94.2542 69.23 102.137 69.7227 102.63 71.6934C103.122 73.6641 102.137 79.0836 99.6737 81.547C97.2103 84.0104 94.2542 86.4738 91.2982 93.3714C88.9333 98.8894 90.3128 102.897 91.2982 104.21L68.6348 154.464C63.708 143.953 54.0515 119.582 54.8398 106.181C55.6281 92.7801 72.9048 89.4299 81.4446 89.4299C83.8095 86.6709 82.43 85.3242 81.4446 84.9958Z" fill="#FFDFD2"/>
<path d="M91.7452 64.7958C90.1029 61.1828 88.8877 52.9715 97.1647 49.03C96.8362 52.8072 95.2925 61.2485 91.7452 64.7958Z" fill="#FFAF6D"/>
<path d="M97.1649 49.03C97.6575 49.03 103.077 58.391 91.7454 64.7958C93.0592 61.0186 96.3766 52.5773 97.1649 49.03Z" fill="#FF6949"/>
<path d="M91.1682 65.6865C92.2846 61.878 96.7279 54.8666 105.57 57.2885C102.854 59.9341 96.1713 65.3175 91.1682 65.6865Z" fill="#FFAF6D"/>
<path d="M105.57 57.2885C105.943 57.6104 103.932 68.2384 91.1683 65.6866C94.6303 63.6846 102.656 59.4597 105.57 57.2885Z" fill="#FF6949"/>
<path d="M91.2528 104.4C85.8333 98.7909 43.9554 112.093 77.6737 89.6192C63.8787 88.1412 55.9958 95.5314 50.0836 104.4C44.1714 113.268 47.6202 129.034 51.5616 139.38C54.7148 147.657 58.7811 159.851 58.7811 165.771L64.2786 167.463L70.199 168.731L76.1194 169.577L82.0398 170C81.5471 162.61 96.741 110.08 91.2528 104.4Z" fill="white"/>
<defs>
<linearGradient id="paint0_linear" x1="85.2267" y1="-29.5726" x2="85.2267" y2="170" gradientUnits="userSpaceOnUse">
<stop stop-color="#FFD69C"/>
<stop offset="1" stop-color="#FFB5EF"/>
</linearGradient>
<linearGradient id="paint1_linear" x1="1.96965" y1="-16.6232" x2="181.938" y2="161.827" gradientUnits="userSpaceOnUse">
<stop stop-color="#FDCC6C"/>
<stop offset="1" stop-color="#FF6392"/>
</linearGradient>
<linearGradient id="paint2_linear" x1="60.6388" y1="3.81991" x2="173.474" y2="57.3123" gradientUnits="userSpaceOnUse">
<stop stop-color="#FDCC6C"/>
<stop offset="1" stop-color="#FF6392"/>
</linearGradient>
</defs>
</svg>
