<svg width="375" height="812" viewBox="0 0 375 812" fill="none" xmlns="http://www.w3.org/2000/svg">
<g clip-path="url(#clip0)">
<rect width="375" height="812" fill="#FFFBF7"/>
<path opacity="0.2" d="M34.1561 325.384C-44.6535 298.669 -0.873203 98.844 -0.874231 0H375.712L381.22 442.981C382.611 460.515 381.717 475.56 381.717 483L381.22 442.981C379.514 421.481 374.374 396.236 359.939 376.676C310.656 309.889 106.041 349.751 34.1561 325.384Z" fill="url(#paint0_linear)"/>
<rect y="730" width="375" height="82" fill="#FFFBF7"/>
<circle opacity="0.3" cx="188" cy="169" r="85" fill="url(#paint1_linear)"/>
<path opacity="0.7" d="M166.943 139.575C164.47 144.027 158.113 142.105 154.577 143.116C153.587 143.399 150.764 144.128 147.878 148.175C144.272 153.234 152.516 159.304 151.485 166.892C150.455 174.48 143.241 177.515 139.634 180.045C136.027 182.574 128.298 186.115 126.753 205.338C125.207 224.561 149.424 243.784 152.516 245.808C155.607 247.831 172.611 254.913 187.554 253.902C202.496 252.89 217.439 248.337 219.5 247.831C221.561 247.325 258.145 234.173 255.054 211.914C251.962 189.656 239.596 184.598 234.958 181.562C230.321 178.527 225.168 172.963 226.199 156.775C227.229 140.587 226.643 139.575 219.5 129.458C212.8 119.968 200.951 115.293 192.706 115.293C184.462 115.293 179.825 118.835 176.218 122.376C172.611 125.917 170.035 134.011 166.943 139.575Z" fill="url(#paint2_linear)"/>
<path d="M177.749 170.967C165.925 164.266 174.053 132.045 187.848 126.625C186.37 136.972 207.605 151.85 208.788 154.215C210.266 157.171 210.759 162.591 205.832 169.488C200.905 176.386 201.398 173.43 200.412 183.284C199.427 193.137 217.656 191.659 221.598 214.322C224.751 232.453 193.925 238.3 182.429 238.956C182.921 219.085 189.573 177.667 177.749 170.967Z" fill="url(#paint3_linear)"/>
<path d="M184.445 168.996C164.344 157.171 177.666 135.329 187.848 126.625C188.341 131.388 191.934 143.475 194.299 147.811C197.255 153.23 205.138 153.723 205.63 155.693C206.123 157.664 205.138 163.084 202.674 165.547C200.211 168.01 197.255 170.474 194.299 177.371C191.934 182.889 193.313 186.897 194.299 188.21L171.635 238.464C166.709 227.953 157.052 203.582 157.84 190.181C158.629 176.78 175.905 173.43 184.445 173.43C186.81 170.671 185.431 169.324 184.445 168.996Z" fill="#FFDFD2"/>
<path d="M194.745 148.796C193.103 145.183 191.888 136.971 200.165 133.03C199.836 136.807 198.293 145.249 194.745 148.796Z" fill="#FFAF6D"/>
<path d="M200.165 133.03C200.657 133.03 206.077 142.391 194.745 148.796C196.059 145.019 199.376 136.577 200.165 133.03Z" fill="#FF6949"/>
<path d="M194.168 149.687C195.285 145.878 199.728 138.867 208.57 141.288C205.854 143.934 199.172 149.317 194.168 149.687Z" fill="#FFAF6D"/>
<path d="M208.57 141.288C208.944 141.61 206.933 152.238 194.169 149.686C197.631 147.684 205.657 143.46 208.57 141.288Z" fill="#FF6949"/>
<path d="M194.252 188.399C188.833 182.791 146.955 196.093 180.673 173.619C166.878 172.141 158.995 179.531 153.083 188.399C147.171 197.268 150.62 213.033 154.561 223.38C157.714 231.657 161.781 243.851 161.781 249.771L167.278 251.463L173.199 252.731L179.119 253.577L185.039 254C184.547 246.61 199.741 194.079 194.252 188.399Z" fill="white"/>
<path d="M57.9782 285.288C58.7142 285.672 59.2902 286.2 59.7062 286.872C60.1222 287.544 60.3302 288.32 60.3302 289.2C60.3302 290.576 59.8422 291.72 58.8662 292.632C57.8902 293.544 56.6982 294 55.2902 294H48.0902V277.2H54.7622C56.1382 277.2 57.2982 277.648 58.2422 278.544C59.2022 279.424 59.6822 280.528 59.6822 281.856C59.6822 283.312 59.1142 284.456 57.9782 285.288ZM54.7622 279.792H50.8502V284.208H54.7622C55.3702 284.208 55.8822 284 56.2982 283.584C56.7142 283.152 56.9222 282.624 56.9222 282C56.9222 281.376 56.7142 280.856 56.2982 280.44C55.8822 280.008 55.3702 279.792 54.7622 279.792ZM55.2902 291.408C55.9302 291.408 56.4662 291.184 56.8982 290.736C57.3462 290.272 57.5702 289.712 57.5702 289.056C57.5702 288.4 57.3462 287.848 56.8982 287.4C56.4662 286.936 55.9302 286.704 55.2902 286.704H50.8502V291.408H55.2902ZM68.3518 294.312C66.5918 294.312 65.0958 293.704 63.8638 292.488C62.6318 291.272 62.0158 289.776 62.0158 288C62.0158 286.224 62.6318 284.728 63.8638 283.512C65.0958 282.296 66.5918 281.688 68.3518 281.688C70.1278 281.688 71.6238 282.296 72.8398 283.512C74.0718 284.728 74.6878 286.224 74.6878 288C74.6878 289.776 74.0718 291.272 72.8398 292.488C71.6238 293.704 70.1278 294.312 68.3518 294.312ZM65.6878 290.712C66.4078 291.432 67.2958 291.792 68.3518 291.792C69.4078 291.792 70.2958 291.432 71.0158 290.712C71.7358 289.992 72.0958 289.088 72.0958 288C72.0958 286.912 71.7358 286.008 71.0158 285.288C70.2958 284.568 69.4078 284.208 68.3518 284.208C67.2958 284.208 66.4078 284.568 65.6878 285.288C64.9678 286.008 64.6078 286.912 64.6078 288C64.6078 289.088 64.9678 289.992 65.6878 290.712ZM82.6955 294.312C80.8875 294.312 79.3755 293.704 78.1595 292.488C76.9595 291.272 76.3595 289.776 76.3595 288C76.3595 286.208 76.9595 284.712 78.1595 283.512C79.3755 282.296 80.8875 281.688 82.6955 281.688C83.8635 281.688 84.9275 281.968 85.8875 282.528C86.8475 283.088 87.5675 283.84 88.0475 284.784L85.8155 286.08C85.5435 285.504 85.1275 285.056 84.5675 284.736C84.0235 284.4 83.3915 284.232 82.6715 284.232C81.6155 284.232 80.7275 284.592 80.0075 285.312C79.3035 286.032 78.9515 286.928 78.9515 288C78.9515 289.072 79.3035 289.968 80.0075 290.688C80.7275 291.408 81.6155 291.768 82.6715 291.768C83.3755 291.768 84.0075 291.6 84.5675 291.264C85.1435 290.928 85.5755 290.48 85.8635 289.92L88.0955 291.192C87.5835 292.152 86.8475 292.912 85.8875 293.472C84.9275 294.032 83.8635 294.312 82.6955 294.312ZM95.4455 294.312C93.6375 294.312 92.1255 293.704 90.9095 292.488C89.7095 291.272 89.1095 289.776 89.1095 288C89.1095 286.208 89.7095 284.712 90.9095 283.512C92.1255 282.296 93.6375 281.688 95.4455 281.688C96.6135 281.688 97.6775 281.968 98.6375 282.528C99.5975 283.088 100.318 283.84 100.798 284.784L98.5655 286.08C98.2935 285.504 97.8775 285.056 97.3175 284.736C96.7735 284.4 96.1415 284.232 95.4215 284.232C94.3655 284.232 93.4775 284.592 92.7575 285.312C92.0535 286.032 91.7015 286.928 91.7015 288C91.7015 289.072 92.0535 289.968 92.7575 290.688C93.4775 291.408 94.3655 291.768 95.4215 291.768C96.1255 291.768 96.7575 291.6 97.3175 291.264C97.8935 290.928 98.3255 290.48 98.6135 289.92L100.846 291.192C100.334 292.152 99.5975 292.912 98.6375 293.472C97.6775 294.032 96.6135 294.312 95.4455 294.312ZM111.77 282V284.496H107.858V294H105.266V284.496H101.33V282H111.77ZM122.559 282H125.151V294H122.559V292.272C121.583 293.632 120.183 294.312 118.359 294.312C116.711 294.312 115.303 293.704 114.135 292.488C112.967 291.256 112.383 289.76 112.383 288C112.383 286.224 112.967 284.728 114.135 283.512C115.303 282.296 116.711 281.688 118.359 281.688C120.183 281.688 121.583 282.36 122.559 283.704V282ZM116.055 290.76C116.775 291.48 117.679 291.84 118.767 291.84C119.855 291.84 120.759 291.48 121.479 290.76C122.199 290.024 122.559 289.104 122.559 288C122.559 286.896 122.199 285.984 121.479 285.264C120.759 284.528 119.855 284.16 118.767 284.16C117.679 284.16 116.775 284.528 116.055 285.264C115.335 285.984 114.975 286.896 114.975 288C114.975 289.104 115.335 290.024 116.055 290.76ZM136.26 282H138.852V294H136.26V289.224H130.764V294H128.172V282H130.764V286.776H136.26V282ZM147.524 294.312C145.764 294.312 144.268 293.704 143.036 292.488C141.804 291.272 141.188 289.776 141.188 288C141.188 286.224 141.804 284.728 143.036 283.512C144.268 282.296 145.764 281.688 147.524 281.688C149.3 281.688 150.796 282.296 152.012 283.512C153.244 284.728 153.86 286.224 153.86 288C153.86 289.776 153.244 291.272 152.012 292.488C150.796 293.704 149.3 294.312 147.524 294.312ZM144.86 290.712C145.58 291.432 146.468 291.792 147.524 291.792C148.58 291.792 149.468 291.432 150.188 290.712C150.908 289.992 151.268 289.088 151.268 288C151.268 286.912 150.908 286.008 150.188 285.288C149.468 284.568 148.58 284.208 147.524 284.208C146.468 284.208 145.58 284.568 144.86 285.288C144.14 286.008 143.78 286.912 143.78 288C143.78 289.088 144.14 289.992 144.86 290.712ZM164.507 287.832C165.691 288.376 166.283 289.296 166.283 290.592C166.283 291.6 165.939 292.424 165.251 293.064C164.579 293.688 163.611 294 162.347 294H156.203V282H161.867C163.099 282 164.051 282.312 164.723 282.936C165.411 283.544 165.755 284.336 165.755 285.312C165.755 286.448 165.339 287.288 164.507 287.832ZM161.675 284.208H158.675V286.872H161.675C162.731 286.872 163.259 286.424 163.259 285.528C163.259 284.648 162.731 284.208 161.675 284.208ZM162.107 291.744C163.195 291.744 163.739 291.272 163.739 290.328C163.739 289.912 163.595 289.592 163.307 289.368C163.019 289.128 162.619 289.008 162.107 289.008H158.675V291.744H162.107ZM178.285 282V294H175.693V284.496H171.685V288.96C171.685 290.864 171.269 292.216 170.437 293.016C169.605 293.816 168.421 294.144 166.885 294V291.576C167.621 291.704 168.173 291.552 168.541 291.12C168.909 290.688 169.093 289.928 169.093 288.84V282H178.285ZM183.345 289.104C183.537 290.016 183.977 290.72 184.665 291.216C185.353 291.696 186.193 291.936 187.185 291.936C188.561 291.936 189.593 291.44 190.281 290.448L192.417 291.696C191.233 293.44 189.481 294.312 187.161 294.312C185.209 294.312 183.633 293.72 182.433 292.536C181.233 291.336 180.633 289.824 180.633 288C180.633 286.208 181.225 284.712 182.409 283.512C183.593 282.296 185.113 281.688 186.969 281.688C188.729 281.688 190.169 282.304 191.289 283.536C192.425 284.768 192.993 286.264 192.993 288.024C192.993 288.296 192.961 288.656 192.897 289.104H183.345ZM183.321 286.992H190.377C190.201 286.016 189.793 285.28 189.153 284.784C188.529 284.288 187.793 284.04 186.945 284.04C185.985 284.04 185.185 284.304 184.545 284.832C183.905 285.36 183.497 286.08 183.321 286.992ZM203.362 282H205.954V294H203.362V289.224H197.866V294H195.274V282H197.866V286.776H203.362V282ZM217.649 282H219.641V294H217.097V286.368L210.953 294H208.961V282H211.505V289.608L217.649 282ZM224.689 289.104C224.881 290.016 225.321 290.72 226.009 291.216C226.697 291.696 227.537 291.936 228.529 291.936C229.905 291.936 230.937 291.44 231.625 290.448L233.761 291.696C232.577 293.44 230.825 294.312 228.505 294.312C226.553 294.312 224.977 293.72 223.777 292.536C222.577 291.336 221.977 289.824 221.977 288C221.977 286.208 222.569 284.712 223.753 283.512C224.937 282.296 226.457 281.688 228.313 281.688C230.073 281.688 231.513 282.304 232.633 283.536C233.769 284.768 234.337 286.264 234.337 288.024C234.337 288.296 234.305 288.656 234.241 289.104H224.689ZM224.665 286.992H231.721C231.545 286.016 231.137 285.28 230.497 284.784C229.873 284.288 229.137 284.04 228.289 284.04C227.329 284.04 226.529 284.304 225.889 284.832C225.249 285.36 224.841 286.08 224.665 286.992ZM253.297 282V294H250.705V284.448H245.209V294H242.617V282H253.297ZM265.809 282H268.401V294H265.809V292.272C264.833 293.632 263.433 294.312 261.609 294.312C259.961 294.312 258.553 293.704 257.385 292.488C256.217 291.256 255.633 289.76 255.633 288C255.633 286.224 256.217 284.728 257.385 283.512C258.553 282.296 259.961 281.688 261.609 281.688C263.433 281.688 264.833 282.36 265.809 283.704V282ZM259.305 290.76C260.025 291.48 260.929 291.84 262.017 291.84C263.105 291.84 264.009 291.48 264.729 290.76C265.449 290.024 265.809 289.104 265.809 288C265.809 286.896 265.449 285.984 264.729 285.264C264.009 284.528 263.105 284.16 262.017 284.16C260.929 284.16 260.025 284.528 259.305 285.264C258.585 285.984 258.225 286.896 258.225 288C258.225 289.104 258.585 290.024 259.305 290.76ZM278.214 281.688C279.862 281.688 281.27 282.304 282.438 283.536C283.606 284.752 284.19 286.24 284.19 288C284.19 289.776 283.606 291.272 282.438 292.488C281.27 293.704 279.862 294.312 278.214 294.312C276.39 294.312 274.99 293.64 274.014 292.296V298.8H271.422V282H274.014V283.728C274.99 282.368 276.39 281.688 278.214 281.688ZM275.094 290.76C275.814 291.48 276.718 291.84 277.806 291.84C278.894 291.84 279.798 291.48 280.518 290.76C281.238 290.024 281.598 289.104 281.598 288C281.598 286.896 281.238 285.984 280.518 285.264C279.798 284.528 278.894 284.16 277.806 284.16C276.718 284.16 275.814 284.528 275.094 285.264C274.374 285.984 274.014 286.896 274.014 288C274.014 289.104 274.374 290.024 275.094 290.76ZM292.203 294.312C290.443 294.312 288.947 293.704 287.715 292.488C286.483 291.272 285.867 289.776 285.867 288C285.867 286.224 286.483 284.728 287.715 283.512C288.947 282.296 290.443 281.688 292.203 281.688C293.979 281.688 295.475 282.296 296.691 283.512C297.923 284.728 298.539 286.224 298.539 288C298.539 289.776 297.923 291.272 296.691 292.488C295.475 293.704 293.979 294.312 292.203 294.312ZM289.539 290.712C290.259 291.432 291.147 291.792 292.203 291.792C293.259 291.792 294.147 291.432 294.867 290.712C295.587 289.992 295.947 289.088 295.947 288C295.947 286.912 295.587 286.008 294.867 285.288C294.147 284.568 293.259 284.208 292.203 284.208C291.147 284.208 290.259 284.568 289.539 285.288C288.819 286.008 288.459 286.912 288.459 288C288.459 289.088 288.819 289.992 289.539 290.712ZM310.66 282V294H308.068V284.496H304.06V288.96C304.06 290.864 303.644 292.216 302.812 293.016C301.98 293.816 300.796 294.144 299.26 294V291.576C299.996 291.704 300.548 291.552 300.916 291.12C301.284 290.688 301.468 289.928 301.468 288.84V282H310.66ZM322.968 282V294H320.424V289.968H318.984L315.936 294H312.888L316.128 289.728C315.296 289.456 314.624 288.976 314.112 288.288C313.616 287.6 313.368 286.832 313.368 285.984C313.368 284.88 313.76 283.944 314.544 283.176C315.344 282.392 316.368 282 317.616 282H322.968ZM317.76 287.736H320.424V284.352H317.76C317.232 284.352 316.792 284.504 316.44 284.808C316.088 285.112 315.912 285.528 315.912 286.056C315.912 286.568 316.088 286.976 316.44 287.28C316.792 287.584 317.232 287.736 317.76 287.736ZM326.513 288.72L325.985 282V277.2H329.105V282L328.553 288.72H326.513ZM328.817 293.76C328.465 294.112 328.041 294.288 327.545 294.288C327.049 294.288 326.625 294.112 326.273 293.76C325.921 293.408 325.745 292.984 325.745 292.488C325.745 291.992 325.913 291.568 326.249 291.216C326.601 290.864 327.033 290.688 327.545 290.688C328.041 290.688 328.465 290.864 328.817 291.216C329.169 291.568 329.345 291.992 329.345 292.488C329.345 292.984 329.169 293.408 328.817 293.76Z" fill="#314E78"/>
</g>
<defs>
<linearGradient id="paint0_linear" x1="-79.7111" y1="-166.855" x2="541.439" y2="376.605" gradientUnits="userSpaceOnUse">
<stop stop-color="#FDCC6C"/>
<stop offset="1" stop-color="#FF6392"/>
</linearGradient>
<linearGradient id="paint1_linear" x1="74.2889" y1="25.2727" x2="294.366" y2="260.721" gradientUnits="userSpaceOnUse">
<stop stop-color="#FDCC6C"/>
<stop offset="1" stop-color="#FF6392"/>
</linearGradient>
<linearGradient id="paint2_linear" x1="104.97" y1="67.3767" x2="284.938" y2="245.827" gradientUnits="userSpaceOnUse">
<stop stop-color="#FDCC6C"/>
<stop offset="1" stop-color="#FF6392"/>
</linearGradient>
<linearGradient id="paint3_linear" x1="163.639" y1="87.8199" x2="276.475" y2="141.312" gradientUnits="userSpaceOnUse">
<stop stop-color="#FDCC6C"/>
<stop offset="1" stop-color="#FF6392"/>
</linearGradient>
<clipPath id="clip0">
<rect width="375" height="812" fill="white"/>
</clipPath>
</defs>
</svg>
