<svg width="375" height="812" viewBox="0 0 375 812" fill="none" xmlns="http://www.w3.org/2000/svg">
<rect width="375" height="812" fill="#FFFBF7"/>
<ellipse opacity="0.3" cx="188" cy="184.748" rx="63" ry="62.7484" fill="url(#paint0_linear)"/>
<path d="M202.174 177.778C201.66 168.045 196.174 162.411 193.496 160.81C195.103 165.612 188.031 174.576 185.46 177.778C183.403 180.339 184.603 184.394 185.46 186.102C183.853 183.647 179.867 178.802 176.781 179.058C172.924 179.378 173.246 183.86 173.567 187.382C173.888 190.904 177.746 193.785 178.388 196.346C178.903 198.395 178.817 205.95 178.71 209.472C175.881 213.314 167.536 232.663 163.571 242.374C168.071 244.295 179.546 247.185 191.888 246.929C204.231 246.673 213.531 240.633 216.638 237.645C215.031 230.708 213.746 217.796 209.888 214.915C207.706 213.285 190.924 206.271 189.638 204.67C188.353 203.069 188.996 198.267 190.281 196.986C191.567 195.706 196.067 195.386 198.317 193.785C200.567 192.184 202.817 189.943 202.174 177.778Z" fill="#FFEBE3"/>
<path d="M194.782 226.76C186.81 225.479 178.817 217.903 175.817 214.594L169.067 229.001L162.929 242.374C189.286 252.939 206 246.536 217.25 240.133L214.389 226.76C211.174 227.294 202.753 228.041 194.782 226.76Z" fill="white"/>
<path d="M186.901 177.544C183.558 180.618 184.357 185.815 185.75 187.63C183.714 185.068 179.894 179.593 176.294 181.386C172.694 183.179 173.936 188.322 175.008 190.67C179.031 196.666 179.353 197.307 178.222 198.354C157.972 192.591 159.901 174.343 159.901 171.782C159.901 169.733 158.401 169.434 157.651 169.54C138.622 170.053 140.139 156.008 144.472 151.292C158.139 138.72 163.977 157.534 164.401 158.015C164.889 158.569 165.21 159.066 167.294 158.015C175.544 153.853 194.294 148.603 203.294 160.897C212.294 173.19 204.317 186.742 200.567 191.544C206.353 178.738 194.294 159.616 195.258 162.497C196.222 165.379 191.079 173.702 186.901 177.544Z" fill="url(#paint1_linear)"/>
<path d="M135.56 71.2V77.632H130.28V71.2H126.44V88H130.28V81.328H135.56V88H139.4V71.2H135.56ZM150.876 76V77.128C150.084 76.216 148.908 75.664 147.3 75.664C144.156 75.664 141.564 78.424 141.564 82C141.564 85.576 144.156 88.336 147.3 88.336C148.908 88.336 150.084 87.784 150.876 86.872V88H154.476V76H150.876ZM148.02 84.928C146.364 84.928 145.164 83.8 145.164 82C145.164 80.2 146.364 79.072 148.02 79.072C149.676 79.072 150.876 80.2 150.876 82C150.876 83.8 149.676 84.928 148.02 84.928ZM162.877 88.336C165.229 88.336 167.269 87.112 168.301 85.24L165.157 83.44C164.773 84.28 163.885 84.784 162.829 84.784C161.269 84.784 160.117 83.656 160.117 82C160.117 80.344 161.269 79.216 162.829 79.216C163.885 79.216 164.749 79.72 165.157 80.56L168.301 78.736C167.269 76.888 165.205 75.664 162.877 75.664C159.229 75.664 156.517 78.424 156.517 82C156.517 85.576 159.229 88.336 162.877 88.336ZM179.47 76H168.67V79.456H172.294V88H175.894V79.456H179.47V76ZM188.199 75.664C186.591 75.664 185.415 76.216 184.623 77.128V76H181.023V92.8H184.623V86.872C185.415 87.784 186.591 88.336 188.199 88.336C191.343 88.336 193.935 85.576 193.935 82C193.935 78.424 191.343 75.664 188.199 75.664ZM187.479 84.928C185.823 84.928 184.623 83.8 184.623 82C184.623 80.2 185.823 79.072 187.479 79.072C189.135 79.072 190.335 80.2 190.335 82C190.335 83.8 189.135 84.928 187.479 84.928ZM201.736 88.336C205.264 88.336 208.096 85.576 208.096 82C208.096 78.424 205.264 75.664 201.736 75.664C198.208 75.664 195.376 78.424 195.376 82C195.376 85.576 198.208 88.336 201.736 88.336ZM201.736 84.832C200.176 84.832 198.976 83.704 198.976 82C198.976 80.296 200.176 79.168 201.736 79.168C203.296 79.168 204.496 80.296 204.496 82C204.496 83.704 203.296 84.832 201.736 84.832ZM212.173 74.584H219.373V71.464H212.173V74.584ZM218.773 76L213.637 82V76H210.133V88H212.773L217.909 82V88H221.413V76H218.773ZM235.574 88L231.086 82L235.454 76H231.254L227.654 81.256V76H224.054V88H227.654V82.696L231.494 88H235.574ZM245.538 76L240.402 82V76H236.898V88H239.538L244.674 82V88H248.178V76H245.538Z" fill="#314E78"/>
<defs>
<linearGradient id="paint0_linear" x1="188.168" y1="100.169" x2="188.168" y2="247.497" gradientUnits="userSpaceOnUse">
<stop stop-color="#FFD69C"/>
<stop offset="1" stop-color="#FFB5EF"/>
</linearGradient>
<linearGradient id="paint1_linear" x1="130.617" y1="129.221" x2="194.142" y2="216.127" gradientUnits="userSpaceOnUse">
<stop stop-color="#FDCC6C"/>
<stop offset="1" stop-color="#FF6392"/>
</linearGradient>
</defs>
</svg>
