<svg width="375" height="812" viewBox="0 0 375 812" fill="none" xmlns="http://www.w3.org/2000/svg">
<rect width="375" height="812" fill="#FFFBF7"/>
<path d="M95.3275 197.2V221H91.4175V200.94H81.7275V221H77.8175V197.2H95.3275ZM107.883 221.442C105.389 221.442 103.27 220.581 101.525 218.858C99.7795 217.135 98.9068 215.016 98.9068 212.5C98.9068 209.984 99.7795 207.865 101.525 206.142C103.27 204.419 105.389 203.558 107.883 203.558C110.399 203.558 112.518 204.419 114.241 206.142C115.986 207.865 116.859 209.984 116.859 212.5C116.859 215.016 115.986 217.135 114.241 218.858C112.518 220.581 110.399 221.442 107.883 221.442ZM104.109 216.342C105.129 217.362 106.387 217.872 107.883 217.872C109.379 217.872 110.637 217.362 111.657 216.342C112.677 215.322 113.187 214.041 113.187 212.5C113.187 210.959 112.677 209.678 111.657 208.658C110.637 207.638 109.379 207.128 107.883 207.128C106.387 207.128 105.129 207.638 104.109 208.658C103.089 209.678 102.579 210.959 102.579 212.5C102.579 214.041 103.089 215.322 104.109 216.342ZM129.069 212.296C130.882 213.112 131.789 214.461 131.789 216.342C131.789 217.793 131.2 219.005 130.021 219.98C128.842 220.955 127.199 221.442 125.091 221.442C121.668 221.442 119.356 220.082 118.155 217.362L121.147 215.594C121.759 217.294 123.085 218.144 125.125 218.144C126.077 218.144 126.825 217.951 127.369 217.566C127.913 217.158 128.185 216.625 128.185 215.968C128.185 215.379 127.97 214.914 127.539 214.574C127.108 214.211 126.508 214.03 125.737 214.03H123.323V210.8H125.125C125.873 210.8 126.451 210.63 126.859 210.29C127.29 209.927 127.505 209.44 127.505 208.828C127.505 208.239 127.267 207.763 126.791 207.4C126.315 207.015 125.68 206.822 124.887 206.822C123.187 206.822 122.008 207.57 121.351 209.066L118.359 207.366C119.628 204.827 121.782 203.558 124.819 203.558C126.723 203.558 128.23 204.045 129.341 205.02C130.474 205.972 131.041 207.139 131.041 208.522C131.041 210.222 130.384 211.48 129.069 212.296ZM149.582 217.532H151.86V225.556H148.256V221H136.594V225.556H132.99V217.532H135.064C136.107 216.059 136.628 214.007 136.628 211.378V204H149.582V217.532ZM139.11 217.532H145.978V207.366H140.232V211.378C140.232 213.803 139.858 215.855 139.11 217.532ZM164.465 203.558C166.8 203.558 168.795 204.431 170.449 206.176C172.104 207.899 172.931 210.007 172.931 212.5C172.931 215.016 172.104 217.135 170.449 218.858C168.795 220.581 166.8 221.442 164.465 221.442C161.881 221.442 159.898 220.49 158.515 218.586V227.8H154.843V204H158.515V206.448C159.898 204.521 161.881 203.558 164.465 203.558ZM160.045 216.41C161.065 217.43 162.346 217.94 163.887 217.94C165.429 217.94 166.709 217.43 167.729 216.41C168.749 215.367 169.259 214.064 169.259 212.5C169.259 210.936 168.749 209.644 167.729 208.624C166.709 207.581 165.429 207.06 163.887 207.06C162.346 207.06 161.065 207.581 160.045 208.624C159.025 209.644 158.515 210.936 158.515 212.5C158.515 214.064 159.025 215.367 160.045 216.41ZM189.723 204H193.395V221H189.723V218.552C188.341 220.479 186.357 221.442 183.773 221.442C181.439 221.442 179.444 220.581 177.789 218.858C176.135 217.113 175.307 214.993 175.307 212.5C175.307 209.984 176.135 207.865 177.789 206.142C179.444 204.419 181.439 203.558 183.773 203.558C186.357 203.558 188.341 204.51 189.723 206.414V204ZM180.509 216.41C181.529 217.43 182.81 217.94 184.351 217.94C185.893 217.94 187.173 217.43 188.193 216.41C189.213 215.367 189.723 214.064 189.723 212.5C189.723 210.936 189.213 209.644 188.193 208.624C187.173 207.581 185.893 207.06 184.351 207.06C182.81 207.06 181.529 207.581 180.509 208.624C179.489 209.644 178.979 210.936 178.979 212.5C178.979 214.064 179.489 215.367 180.509 216.41ZM209.439 212.262C211.117 213.033 211.955 214.336 211.955 216.172C211.955 217.6 211.468 218.767 210.493 219.674C209.541 220.558 208.17 221 206.379 221H197.675V204H205.699C207.445 204 208.793 204.442 209.745 205.326C210.72 206.187 211.207 207.309 211.207 208.692C211.207 210.301 210.618 211.491 209.439 212.262ZM205.427 207.128H201.177V210.902H205.427C206.923 210.902 207.671 210.267 207.671 208.998C207.671 207.751 206.923 207.128 205.427 207.128ZM206.039 217.804C207.581 217.804 208.351 217.135 208.351 215.798C208.351 215.209 208.147 214.755 207.739 214.438C207.331 214.098 206.765 213.928 206.039 213.928H201.177V217.804H206.039ZM228.957 204V221H225.285V207.536H219.607V213.86C219.607 216.557 219.017 218.473 217.839 219.606C216.66 220.739 214.983 221.204 212.807 221V217.566C213.849 217.747 214.631 217.532 215.153 216.92C215.674 216.308 215.935 215.231 215.935 213.69V204H228.957ZM246.394 204V221H242.79V215.288H240.75L236.432 221H232.114L236.704 214.948C235.525 214.563 234.573 213.883 233.848 212.908C233.145 211.933 232.794 210.845 232.794 209.644C232.794 208.08 233.349 206.754 234.46 205.666C235.593 204.555 237.044 204 238.812 204H246.394ZM239.016 212.126H242.79V207.332H239.016C238.268 207.332 237.644 207.547 237.146 207.978C236.647 208.409 236.398 208.998 236.398 209.746C236.398 210.471 236.647 211.049 237.146 211.48C237.644 211.911 238.268 212.126 239.016 212.126ZM253.557 214.064C253.829 215.356 254.453 216.353 255.427 217.056C256.402 217.736 257.592 218.076 258.997 218.076C260.947 218.076 262.409 217.373 263.383 215.968L266.409 217.736C264.732 220.207 262.25 221.442 258.963 221.442C256.198 221.442 253.965 220.603 252.265 218.926C250.565 217.226 249.715 215.084 249.715 212.5C249.715 209.961 250.554 207.842 252.231 206.142C253.909 204.419 256.062 203.558 258.691 203.558C261.185 203.558 263.225 204.431 264.811 206.176C266.421 207.921 267.225 210.041 267.225 212.534C267.225 212.919 267.18 213.429 267.089 214.064H253.557ZM253.523 211.072H263.519C263.27 209.689 262.692 208.647 261.785 207.944C260.901 207.241 259.859 206.89 258.657 206.89C257.297 206.89 256.164 207.264 255.257 208.012C254.351 208.76 253.773 209.78 253.523 211.072ZM287.796 204V221H284.226V209.814L279.33 217.6H278.888L274.026 209.848V221H270.456V204H274.196L279.126 211.854L284.056 204H287.796ZM292.786 213.52L292.038 204V197.2H296.458V204L295.676 213.52H292.786ZM296.05 220.66C295.552 221.159 294.951 221.408 294.248 221.408C293.546 221.408 292.945 221.159 292.446 220.66C291.948 220.161 291.698 219.561 291.698 218.858C291.698 218.155 291.936 217.555 292.412 217.056C292.911 216.557 293.523 216.308 294.248 216.308C294.951 216.308 295.552 216.557 296.05 217.056C296.549 217.555 296.798 218.155 296.798 218.858C296.798 219.561 296.549 220.161 296.05 220.66Z" fill="#314E78"/>
<path d="M78.8146 465.5H71.4046V466.25H74.7046V476H75.5146V466.25H78.8146V465.5ZM82.3425 468.335C80.0475 468.335 78.4575 470.045 78.4575 472.25C78.4575 474.515 80.0925 476.165 82.4025 476.165C83.8875 476.165 85.0575 475.49 85.6725 474.47L85.0125 474.08C84.5775 474.875 83.6475 475.445 82.4175 475.445C80.7075 475.445 79.4175 474.335 79.2375 472.64H86.0325C86.0325 472.52 86.0475 472.4 86.0475 472.28C86.0475 470.225 84.6225 468.335 82.3425 468.335ZM82.3425 469.055C83.8125 469.055 85.1025 470.075 85.2675 471.905H79.2375C79.3875 470.24 80.6325 469.055 82.3425 469.055ZM93.9955 468.5H87.8005V476H88.5505V469.235H93.2305V476H93.9955V468.5ZM99.6863 468.335C97.3913 468.335 95.8013 470.045 95.8013 472.25C95.8013 474.515 97.4363 476.165 99.7463 476.165C101.231 476.165 102.401 475.49 103.016 474.47L102.356 474.08C101.921 474.875 100.991 475.445 99.7613 475.445C98.0513 475.445 96.7613 474.335 96.5813 472.64H103.376C103.376 472.52 103.391 472.4 103.391 472.28C103.391 470.225 101.966 468.335 99.6863 468.335ZM99.6863 469.055C101.156 469.055 102.446 470.075 102.611 471.905H96.5813C96.7313 470.24 97.9763 469.055 99.6863 469.055ZM109.119 468.335C107.664 468.335 106.509 469.085 105.894 470.24V468.5H105.144V479H105.894V474.26C106.509 475.415 107.664 476.165 109.119 476.165C111.264 476.165 113.004 474.47 113.004 472.25C113.004 470.03 111.264 468.335 109.119 468.335ZM109.074 475.445C107.289 475.445 105.894 474.035 105.894 472.25C105.894 470.465 107.289 469.055 109.074 469.055C110.859 469.055 112.254 470.465 112.254 472.25C112.254 474.035 110.859 475.445 109.074 475.445ZM117.782 471.41H115.562V468.5H114.812V476H117.782C119.117 476 120.257 475.085 120.257 473.705C120.257 472.325 119.117 471.41 117.782 471.41ZM117.782 475.265H115.562V472.145H117.782C118.727 472.145 119.492 472.745 119.492 473.705C119.492 474.65 118.727 475.265 117.782 475.265ZM131.391 468.5L128.781 475.175L125.751 468.5H124.941L128.391 476.135L128.226 476.54C127.761 477.635 126.996 478.385 125.991 478.295V479C127.281 479.105 128.391 478.13 128.961 476.69L132.201 468.5H131.391ZM142.167 472.13C142.812 471.815 143.127 471.2 143.127 470.465C143.127 469.37 142.362 468.5 140.892 468.5H137.547V476H141.177C142.737 476 143.487 475.07 143.487 473.93C143.487 473.075 143.037 472.415 142.167 472.13ZM140.892 469.235C141.837 469.235 142.362 469.715 142.362 470.51C142.362 471.35 141.852 471.83 140.892 471.83H138.297V469.235H140.892ZM141.177 475.265H138.297V472.565H141.177C142.167 472.565 142.737 473.075 142.737 473.9C142.737 474.755 142.182 475.265 141.177 475.265ZM151.749 468.5V470.195C151.119 469.07 149.964 468.335 148.524 468.335C146.394 468.335 144.639 470.03 144.639 472.25C144.639 474.47 146.394 476.165 148.524 476.165C149.964 476.165 151.119 475.43 151.749 474.305V476H152.514V468.5H151.749ZM148.584 475.445C146.799 475.445 145.404 474.035 145.404 472.25C145.404 470.465 146.799 469.055 148.584 469.055C150.369 469.055 151.749 470.465 151.749 472.25C151.749 474.035 150.369 475.445 148.584 475.445ZM158.252 476.165C159.722 476.165 160.982 475.415 161.582 474.26L160.952 473.885C160.457 474.815 159.467 475.445 158.252 475.445C156.437 475.445 155.072 474.035 155.072 472.25C155.072 470.465 156.437 469.055 158.252 469.055C159.452 469.055 160.472 469.67 160.907 470.615L161.522 470.255C160.982 469.085 159.722 468.335 158.252 468.335C155.987 468.335 154.307 470.03 154.307 472.25C154.307 474.47 155.987 476.165 158.252 476.165ZM170.599 468.335C168.304 468.335 166.714 470.045 166.714 472.25C166.714 474.515 168.349 476.165 170.659 476.165C172.144 476.165 173.314 475.49 173.929 474.47L173.269 474.08C172.834 474.875 171.904 475.445 170.674 475.445C168.964 475.445 167.674 474.335 167.494 472.64H174.289C174.289 472.52 174.304 472.4 174.304 472.28C174.304 470.225 172.879 468.335 170.599 468.335ZM170.599 469.055C172.069 469.055 173.359 470.075 173.524 471.905H167.494C167.644 470.24 168.889 469.055 170.599 469.055ZM179.492 476.165C180.962 476.165 182.222 475.415 182.822 474.26L182.192 473.885C181.697 474.815 180.707 475.445 179.492 475.445C177.677 475.445 176.312 474.035 176.312 472.25C176.312 470.465 177.677 469.055 179.492 469.055C180.692 469.055 181.712 469.67 182.147 470.615L182.762 470.255C182.222 469.085 180.962 468.335 179.492 468.335C177.227 468.335 175.547 470.03 175.547 472.25C175.547 474.47 177.227 476.165 179.492 476.165ZM189.569 468.5H183.359V469.235H186.089V476H186.839V469.235H189.569V468.5ZM193.896 471.41H191.676V468.5H190.926V476H193.896C195.231 476 196.371 475.085 196.371 473.705C196.371 472.325 195.231 471.41 193.896 471.41ZM193.896 475.265H191.676V472.145H193.896C194.841 472.145 195.606 472.745 195.606 473.705C195.606 474.65 194.841 475.265 193.896 475.265ZM205.449 476.165C206.919 476.165 208.179 475.415 208.779 474.26L208.149 473.885C207.654 474.815 206.664 475.445 205.449 475.445C203.634 475.445 202.269 474.035 202.269 472.25C202.269 470.465 203.634 469.055 205.449 469.055C206.649 469.055 207.669 469.67 208.104 470.615L208.719 470.255C208.179 469.085 206.919 468.335 205.449 468.335C203.184 468.335 201.504 470.03 201.504 472.25C201.504 474.47 203.184 476.165 205.449 476.165ZM215.043 472.13C215.688 471.815 216.003 471.2 216.003 470.465C216.003 469.37 215.238 468.5 213.768 468.5H210.423V476H214.053C215.613 476 216.363 475.07 216.363 473.93C216.363 473.075 215.913 472.415 215.043 472.13ZM213.768 469.235C214.713 469.235 215.238 469.715 215.238 470.51C215.238 471.35 214.728 471.83 213.768 471.83H211.173V469.235H213.768ZM214.053 475.265H211.173V472.565H214.053C215.043 472.565 215.613 473.075 215.613 473.9C215.613 474.755 215.058 475.265 214.053 475.265ZM221.46 476.165C223.635 476.165 225.39 474.47 225.39 472.25C225.39 470.03 223.635 468.335 221.46 468.335C219.27 468.335 217.515 470.03 217.515 472.25C217.515 474.47 219.27 476.165 221.46 476.165ZM221.46 475.445C219.675 475.445 218.28 474.035 218.28 472.25C218.28 470.465 219.675 469.055 221.46 469.055C223.245 469.055 224.625 470.465 224.625 472.25C224.625 474.035 223.245 475.445 221.46 475.445ZM228.38 467.195H232.175V466.535H228.38V467.195ZM232.73 468.5L227.945 474.695V468.5H227.195V476H227.855L232.625 469.805V476H233.39V468.5H232.73ZM245.9 468.5H239.705V476H240.455V469.235H245.135V476H245.9V468.5ZM252.191 468.335C250.736 468.335 249.581 469.085 248.966 470.24V468.5H248.216V479H248.966V474.26C249.581 475.415 250.736 476.165 252.191 476.165C254.336 476.165 256.076 474.47 256.076 472.25C256.076 470.03 254.336 468.335 252.191 468.335ZM252.146 475.445C250.361 475.445 248.966 474.035 248.966 472.25C248.966 470.465 250.361 469.055 252.146 469.055C253.931 469.055 255.326 470.465 255.326 472.25C255.326 474.035 253.931 475.445 252.146 475.445ZM261.319 476.165C263.494 476.165 265.249 474.47 265.249 472.25C265.249 470.03 263.494 468.335 261.319 468.335C259.129 468.335 257.374 470.03 257.374 472.25C257.374 474.47 259.129 476.165 261.319 476.165ZM261.319 475.445C259.534 475.445 258.139 474.035 258.139 472.25C258.139 470.465 259.534 469.055 261.319 469.055C263.104 469.055 264.484 470.465 264.484 472.25C264.484 474.035 263.104 475.445 261.319 475.445ZM275.303 472.25C275.303 470.135 273.713 468.485 271.298 468.335V465.5H270.548V468.335C268.133 468.485 266.543 470.135 266.543 472.25C266.543 474.365 268.133 476.015 270.548 476.165V479H271.298V476.165C273.713 476.015 275.303 474.365 275.303 472.25ZM267.308 472.25C267.308 470.54 268.553 469.22 270.548 469.07V475.43C268.553 475.28 267.308 473.96 267.308 472.25ZM271.298 475.43V469.07C273.293 469.22 274.538 470.54 274.538 472.25C274.538 473.96 273.293 475.28 271.298 475.43ZM282.637 468.5L277.852 474.695V468.5H277.102V476H277.762L282.532 469.805V476H283.297V468.5H282.637ZM291.703 468.5H286.423V472.85C286.423 474.785 285.808 475.4 284.653 475.295V476C286.063 476.105 287.173 475.475 287.173 472.85V469.235H290.953V476H291.703V468.5ZM296.977 471.41H294.757V468.5H294.007V476H296.977C298.312 476 299.452 475.085 299.452 473.705C299.452 472.325 298.312 471.41 296.977 471.41ZM296.977 475.265H294.757V472.145H296.977C297.922 472.145 298.687 472.745 298.687 473.705C298.687 474.65 297.922 475.265 296.977 475.265ZM57.6373 491.5L52.8523 497.695V491.5H52.1023V499H52.7623L57.5323 492.805V499H58.2973V491.5H57.6373ZM69.232 495.13C69.877 494.815 70.192 494.2 70.192 493.465C70.192 492.37 69.427 491.5 67.957 491.5H64.612V499H68.242C69.802 499 70.552 498.07 70.552 496.93C70.552 496.075 70.102 495.415 69.232 495.13ZM67.957 492.235C68.902 492.235 69.427 492.715 69.427 493.51C69.427 494.35 68.917 494.83 67.957 494.83H65.362V492.235H67.957ZM68.242 498.265H65.362V495.565H68.242C69.232 495.565 69.802 496.075 69.802 496.9C69.802 497.755 69.247 498.265 68.242 498.265ZM75.1846 494.41H72.9646V491.5H72.2146V499H75.1846C76.5196 499 77.6596 498.085 77.6596 496.705C77.6596 495.325 76.5196 494.41 75.1846 494.41ZM78.8146 491.5V499H79.5646V491.5H78.8146ZM75.1846 498.265H72.9646V495.145H75.1846C76.1296 495.145 76.8946 495.745 76.8946 496.705C76.8946 497.65 76.1296 498.265 75.1846 498.265ZM93.1119 491.5H92.2119L89.4819 495.805L86.7519 491.5H85.8669V499H86.6169V492.61L89.4369 497.065H89.5419L92.3469 492.64V499H93.1119V491.5ZM98.8527 499.165C101.028 499.165 102.783 497.47 102.783 495.25C102.783 493.03 101.028 491.335 98.8527 491.335C96.6627 491.335 94.9077 493.03 94.9077 495.25C94.9077 497.47 96.6627 499.165 98.8527 499.165ZM98.8527 498.445C97.0677 498.445 95.6727 497.035 95.6727 495.25C95.6727 493.465 97.0677 492.055 98.8527 492.055C100.638 492.055 102.018 493.465 102.018 495.25C102.018 497.035 100.638 498.445 98.8527 498.445ZM112.432 499L108.892 495.1L112.282 491.5H111.352L108.187 494.89V491.5H107.422V494.89L104.257 491.5H103.327L106.732 495.1L103.177 499H104.107L107.422 495.31V499H108.187V495.31L111.502 499H112.432ZM116.708 491.335C114.413 491.335 112.823 493.045 112.823 495.25C112.823 497.515 114.458 499.165 116.768 499.165C118.253 499.165 119.423 498.49 120.038 497.47L119.378 497.08C118.943 497.875 118.013 498.445 116.783 498.445C115.073 498.445 113.783 497.335 113.603 495.64H120.398C120.398 495.52 120.413 495.4 120.413 495.28C120.413 493.225 118.988 491.335 116.708 491.335ZM116.708 492.055C118.178 492.055 119.468 493.075 119.633 494.905H113.603C113.753 493.24 114.998 492.055 116.708 492.055ZM127.123 491.5H120.913V492.235H123.643V499H124.393V492.235H127.123V491.5ZM131.561 491.335C129.266 491.335 127.676 493.045 127.676 495.25C127.676 497.515 129.311 499.165 131.621 499.165C133.106 499.165 134.276 498.49 134.891 497.47L134.231 497.08C133.796 497.875 132.866 498.445 131.636 498.445C129.926 498.445 128.636 497.335 128.456 495.64H135.251C135.251 495.52 135.266 495.4 135.266 495.28C135.266 493.225 133.841 491.335 131.561 491.335ZM131.561 492.055C133.031 492.055 134.321 493.075 134.486 494.905H128.456C128.606 493.24 129.851 492.055 131.561 492.055ZM147.213 491.5H141.018V499H141.768V492.235H146.448V499H147.213V491.5ZM152.964 499.165C155.139 499.165 156.894 497.47 156.894 495.25C156.894 493.03 155.139 491.335 152.964 491.335C150.774 491.335 149.019 493.03 149.019 495.25C149.019 497.47 150.774 499.165 152.964 499.165ZM152.964 498.445C151.179 498.445 149.784 497.035 149.784 495.25C149.784 493.465 151.179 492.055 152.964 492.055C154.749 492.055 156.129 493.465 156.129 495.25C156.129 497.035 154.749 498.445 152.964 498.445ZM164.556 498.265V491.5H159.291V495.25C159.291 496.735 158.991 497.545 158.466 498.265H157.596V501.01H158.361V499H164.841V501.01H165.606V498.265H164.556ZM159.396 498.265C159.816 497.5 160.041 496.585 160.041 495.25V492.235H163.791V498.265H159.396ZM172.999 499L168.814 495.1L172.849 491.5H171.799L168.004 494.905V491.5H167.254V499H168.004V495.31L171.979 499H172.999ZM180.595 491.5H175.315V495.85C175.315 497.785 174.7 498.4 173.545 498.295V499C174.955 499.105 176.065 498.475 176.065 495.85V492.235H179.845V499H180.595V491.5ZM189.213 491.335C187.143 491.335 185.508 492.85 185.328 494.89H183.648V491.5H182.898V499H183.648V495.61H185.328C185.508 497.65 187.143 499.165 189.213 499.165C191.388 499.165 193.143 497.47 193.143 495.25C193.143 493.03 191.388 491.335 189.213 491.335ZM189.213 498.445C187.428 498.445 186.033 497.035 186.033 495.25C186.033 493.465 187.428 492.055 189.213 492.055C190.998 492.055 192.378 493.465 192.378 495.25C192.378 497.035 190.998 498.445 189.213 498.445ZM199.773 491.5V495.355C199.068 495.67 198.258 495.835 197.463 495.835C196.038 495.835 195.243 495.25 195.243 493.945V491.5H194.493V493.945C194.493 495.655 195.588 496.555 197.493 496.555C198.303 496.555 199.113 496.39 199.773 496.06V499H200.538V491.5H199.773ZM208.384 491.5L203.599 497.695V491.5H202.849V499H203.509L208.279 492.805V499H209.044V491.5H208.384ZM216.61 491.5H210.4V492.235H213.13V499H213.88V492.235H216.61V491.5ZM220.937 494.41H218.717V491.5H217.967V499H220.937C222.272 499 223.412 498.085 223.412 496.705C223.412 495.325 222.272 494.41 220.937 494.41ZM220.937 498.265H218.717V495.145H220.937C221.882 495.145 222.647 495.745 222.647 496.705C222.647 497.65 221.882 498.265 220.937 498.265ZM234.545 491.5L231.935 498.175L228.905 491.5H228.095L231.545 499.135L231.38 499.54C230.915 500.635 230.15 501.385 229.145 501.295V502C230.435 502.105 231.545 501.13 232.115 499.69L235.355 491.5H234.545ZM241.322 495.13C241.967 494.815 242.282 494.2 242.282 493.465C242.282 492.37 241.517 491.5 240.047 491.5H236.702V499H240.332C241.892 499 242.642 498.07 242.642 496.93C242.642 496.075 242.192 495.415 241.322 495.13ZM240.047 492.235C240.992 492.235 241.517 492.715 241.517 493.51C241.517 494.35 241.007 494.83 240.047 494.83H237.452V492.235H240.047ZM240.332 498.265H237.452V495.565H240.332C241.322 495.565 241.892 496.075 241.892 496.9C241.892 497.755 241.337 498.265 240.332 498.265ZM247.679 491.335C245.384 491.335 243.794 493.045 243.794 495.25C243.794 497.515 245.429 499.165 247.739 499.165C249.224 499.165 250.394 498.49 251.009 497.47L250.349 497.08C249.914 497.875 248.984 498.445 247.754 498.445C246.044 498.445 244.754 497.335 244.574 495.64H251.369C251.369 495.52 251.384 495.4 251.384 495.28C251.384 493.225 249.959 491.335 247.679 491.335ZM247.679 492.055C249.149 492.055 250.439 493.075 250.604 494.905H244.574C244.724 493.24 245.969 492.055 247.679 492.055ZM258.994 498.265V491.5H253.729V495.25C253.729 496.735 253.429 497.545 252.904 498.265H252.034V501.01H252.799V499H259.279V501.01H260.044V498.265H258.994ZM253.834 498.265C254.254 497.5 254.479 496.585 254.479 495.25V492.235H258.229V498.265H253.834ZM264.834 499.165C267.009 499.165 268.764 497.47 268.764 495.25C268.764 493.03 267.009 491.335 264.834 491.335C262.644 491.335 260.889 493.03 260.889 495.25C260.889 497.47 262.644 499.165 264.834 499.165ZM264.834 498.445C263.049 498.445 261.654 497.035 261.654 495.25C261.654 493.465 263.049 492.055 264.834 492.055C266.619 492.055 267.999 493.465 267.999 495.25C267.999 497.035 266.619 498.445 264.834 498.445ZM277.814 491.5H276.914L274.184 495.805L271.454 491.5H270.569V499H271.319V492.61L274.139 497.065H274.244L277.049 492.64V499H277.814V491.5ZM286.21 491.5H280.93V495.85C280.93 497.785 280.315 498.4 279.16 498.295V499C280.57 499.105 281.68 498.475 281.68 495.85V492.235H285.46V499H286.21V491.5ZM291.888 491.335C289.593 491.335 288.003 493.045 288.003 495.25C288.003 497.515 289.638 499.165 291.948 499.165C293.433 499.165 294.603 498.49 295.218 497.47L294.558 497.08C294.123 497.875 293.193 498.445 291.963 498.445C290.253 498.445 288.963 497.335 288.783 495.64H295.578C295.578 495.52 295.593 495.4 295.593 495.28C295.593 493.225 294.168 491.335 291.888 491.335ZM291.888 492.055C293.358 492.055 294.648 493.075 294.813 494.905H288.783C288.933 493.24 290.178 492.055 291.888 492.055ZM302.776 491.5V494.89H298.096V491.5H297.346V499H298.096V495.61H302.776V499H303.541V491.5H302.776ZM311.392 491.5L306.607 497.695V491.5H305.857V499H306.517L311.287 492.805V499H312.052V491.5H311.392ZM319.558 491.5H316.588C315.253 491.5 314.113 492.415 314.113 493.795C314.113 495.055 315.073 495.925 316.258 496.06L313.858 499H314.833L317.188 496.075H318.808V499H319.558V491.5ZM316.588 495.355C315.643 495.355 314.878 494.755 314.878 493.795C314.878 492.85 315.643 492.235 316.588 492.235H318.808V495.355H316.588ZM323.143 497.98H322.213L321.643 501.1H322.333L323.143 497.98ZM76.5574 514.5V518.355C75.8524 518.67 75.0424 518.835 74.2474 518.835C72.8224 518.835 72.0274 518.25 72.0274 516.945V514.5H71.2774V516.945C71.2774 518.655 72.3724 519.555 74.2774 519.555C75.0874 519.555 75.8974 519.39 76.5574 519.06V522H77.3224V514.5H76.5574ZM84.884 514.5H78.674V515.235H81.404V522H82.154V515.235H84.884V514.5ZM89.3825 522.165C91.5575 522.165 93.3125 520.47 93.3125 518.25C93.3125 516.03 91.5575 514.335 89.3825 514.335C87.1925 514.335 85.4375 516.03 85.4375 518.25C85.4375 520.47 87.1925 522.165 89.3825 522.165ZM89.3825 521.445C87.5975 521.445 86.2025 520.035 86.2025 518.25C86.2025 516.465 87.5975 515.055 89.3825 515.055C91.1675 515.055 92.5475 516.465 92.5475 518.25C92.5475 520.035 91.1675 521.445 89.3825 521.445ZM98.3874 522.18C100.502 522.18 102.032 520.695 102.032 518.685C102.032 516.63 100.532 515.175 98.5524 515.175C97.5174 515.175 96.2424 515.64 95.4924 516.81C95.7324 515.49 96.3474 514.815 97.8174 514.155C99.3474 513.45 100.922 513.09 101.177 511.65L100.577 511.305C100.367 512.58 99.0474 512.775 97.4124 513.555C95.0274 514.725 94.6074 515.985 94.6074 518.325C94.6074 520.65 96.2574 522.18 98.3874 522.18ZM98.3874 521.43C96.6774 521.43 95.4174 520.215 95.4174 518.49C95.5374 516.9 97.0074 515.91 98.4624 515.91C100.127 515.91 101.267 517.08 101.267 518.685C101.267 520.275 100.082 521.43 98.3874 521.43ZM106.657 517.41H104.437V514.5H103.687V522H106.657C107.992 522 109.132 521.085 109.132 519.705C109.132 518.325 107.992 517.41 106.657 517.41ZM110.287 514.5V522H111.037V514.5H110.287ZM106.657 521.265H104.437V518.145H106.657C107.602 518.145 108.367 518.745 108.367 519.705C108.367 520.65 107.602 521.265 106.657 521.265ZM120.609 522.18C122.724 522.18 124.254 520.695 124.254 518.685C124.254 516.63 122.754 515.175 120.774 515.175C119.739 515.175 118.464 515.64 117.714 516.81C117.954 515.49 118.569 514.815 120.039 514.155C121.569 513.45 123.144 513.09 123.399 511.65L122.799 511.305C122.589 512.58 121.269 512.775 119.634 513.555C117.249 514.725 116.829 515.985 116.829 518.325C116.829 520.65 118.479 522.18 120.609 522.18ZM120.609 521.43C118.899 521.43 117.639 520.215 117.639 518.49C117.759 516.9 119.229 515.91 120.684 515.91C122.349 515.91 123.489 517.08 123.489 518.685C123.489 520.275 122.304 521.43 120.609 521.43ZM128.878 517.41H126.658V514.5H125.908V522H128.878C130.213 522 131.353 521.085 131.353 519.705C131.353 518.325 130.213 517.41 128.878 517.41ZM132.508 514.5V522H133.258V514.5H132.508ZM128.878 521.265H126.658V518.145H128.878C129.823 518.145 130.588 518.745 130.588 519.705C130.588 520.65 129.823 521.265 128.878 521.265ZM140.812 514.5H134.602V515.235H137.332V522H138.082V515.235H140.812V514.5ZM145.138 517.41H142.918V514.5H142.168V522H145.138C146.473 522 147.613 521.085 147.613 519.705C147.613 518.325 146.473 517.41 145.138 517.41ZM145.138 521.265H142.918V518.145H145.138C146.083 518.145 146.848 518.745 146.848 519.705C146.848 520.65 146.083 521.265 145.138 521.265ZM157.877 518.13C158.522 517.815 158.837 517.2 158.837 516.465C158.837 515.37 158.072 514.5 156.602 514.5H153.257V522H156.887C158.447 522 159.197 521.07 159.197 519.93C159.197 519.075 158.747 518.415 157.877 518.13ZM156.602 515.235C157.547 515.235 158.072 515.715 158.072 516.51C158.072 517.35 157.562 517.83 156.602 517.83H154.007V515.235H156.602ZM156.887 521.265H154.007V518.565H156.887C157.877 518.565 158.447 519.075 158.447 519.9C158.447 520.755 157.892 521.265 156.887 521.265ZM170.604 522L166.419 518.1L170.454 514.5H169.404L165.609 517.905V514.5H164.859V522H165.609V518.31L169.584 522H170.604ZM177.307 514.5L174.697 521.175L171.667 514.5H170.857L174.307 522.135L174.142 522.54C173.677 523.635 172.912 524.385 171.907 524.295V525C173.197 525.105 174.307 524.13 174.877 522.69L178.117 514.5H177.307ZM183.438 514.335C181.983 514.335 180.828 515.085 180.213 516.24V514.5H179.463V525H180.213V520.26C180.828 521.415 181.983 522.165 183.438 522.165C185.583 522.165 187.323 520.47 187.323 518.25C187.323 516.03 185.583 514.335 183.438 514.335ZM183.393 521.445C181.608 521.445 180.213 520.035 180.213 518.25C180.213 516.465 181.608 515.055 183.393 515.055C185.178 515.055 186.573 516.465 186.573 518.25C186.573 520.035 185.178 521.445 183.393 521.445ZM192.566 522.165C194.036 522.165 195.296 521.415 195.896 520.26L195.266 519.885C194.771 520.815 193.781 521.445 192.566 521.445C190.751 521.445 189.386 520.035 189.386 518.25C189.386 516.465 190.751 515.055 192.566 515.055C193.766 515.055 194.786 515.67 195.221 516.615L195.836 516.255C195.296 515.085 194.036 514.335 192.566 514.335C190.301 514.335 188.621 516.03 188.621 518.25C188.621 520.47 190.301 522.165 192.566 522.165ZM200.841 514.335C198.546 514.335 196.956 516.045 196.956 518.25C196.956 520.515 198.591 522.165 200.901 522.165C202.386 522.165 203.556 521.49 204.171 520.47L203.511 520.08C203.076 520.875 202.146 521.445 200.916 521.445C199.206 521.445 197.916 520.335 197.736 518.64H204.531C204.531 518.52 204.546 518.4 204.546 518.28C204.546 516.225 203.121 514.335 200.841 514.335ZM200.841 515.055C202.311 515.055 203.601 516.075 203.766 517.905H197.736C197.886 516.24 199.131 515.055 200.841 515.055ZM214.918 518.13C215.563 517.815 215.878 517.2 215.878 516.465C215.878 515.37 215.113 514.5 213.643 514.5H210.298V522H213.928C215.488 522 216.238 521.07 216.238 519.93C216.238 519.075 215.788 518.415 214.918 518.13ZM213.643 515.235C214.588 515.235 215.113 515.715 215.113 516.51C215.113 517.35 214.603 517.83 213.643 517.83H211.048V515.235H213.643ZM213.928 521.265H211.048V518.565H213.928C214.918 518.565 215.488 519.075 215.488 519.9C215.488 520.755 214.933 521.265 213.928 521.265ZM221.336 522.165C222.806 522.165 224.066 521.415 224.666 520.26L224.036 519.885C223.541 520.815 222.551 521.445 221.336 521.445C219.521 521.445 218.156 520.035 218.156 518.25C218.156 516.465 219.521 515.055 221.336 515.055C222.536 515.055 223.556 515.67 223.991 516.615L224.606 516.255C224.066 515.085 222.806 514.335 221.336 514.335C219.071 514.335 217.391 516.03 217.391 518.25C217.391 520.47 219.071 522.165 221.336 522.165ZM229.611 514.335C227.316 514.335 225.726 516.045 225.726 518.25C225.726 520.515 227.361 522.165 229.671 522.165C231.156 522.165 232.326 521.49 232.941 520.47L232.281 520.08C231.846 520.875 230.916 521.445 229.686 521.445C227.976 521.445 226.686 520.335 226.506 518.64H233.301C233.301 518.52 233.316 518.4 233.316 518.28C233.316 516.225 231.891 514.335 229.611 514.335ZM229.611 515.055C231.081 515.055 232.371 516.075 232.536 517.905H226.506C226.656 516.24 227.901 515.055 229.611 515.055ZM240.866 522L237.881 518.13L240.686 514.5H239.786L237.416 517.545L235.061 514.5H234.146L236.966 518.145L233.966 522H234.881L237.416 518.73L239.951 522H240.866ZM249.812 522.165C251.282 522.165 252.542 521.415 253.142 520.26L252.512 519.885C252.017 520.815 251.027 521.445 249.812 521.445C247.997 521.445 246.632 520.035 246.632 518.25C246.632 516.465 247.997 515.055 249.812 515.055C251.012 515.055 252.032 515.67 252.467 516.615L253.082 516.255C252.542 515.085 251.282 514.335 249.812 514.335C247.547 514.335 245.867 516.03 245.867 518.25C245.867 520.47 247.547 522.165 249.812 522.165ZM258.147 522.165C260.322 522.165 262.077 520.47 262.077 518.25C262.077 516.03 260.322 514.335 258.147 514.335C255.957 514.335 254.202 516.03 254.202 518.25C254.202 520.47 255.957 522.165 258.147 522.165ZM258.147 521.445C256.362 521.445 254.967 520.035 254.967 518.25C254.967 516.465 256.362 515.055 258.147 515.055C259.932 515.055 261.312 516.465 261.312 518.25C261.312 520.035 259.932 521.445 258.147 521.445ZM267.152 522.18C269.267 522.18 270.797 520.695 270.797 518.685C270.797 516.63 269.297 515.175 267.317 515.175C266.282 515.175 265.007 515.64 264.257 516.81C264.497 515.49 265.112 514.815 266.582 514.155C268.112 513.45 269.687 513.09 269.942 511.65L269.342 511.305C269.132 512.58 267.812 512.775 266.177 513.555C263.792 514.725 263.372 515.985 263.372 518.325C263.372 520.65 265.022 522.18 267.152 522.18ZM267.152 521.43C265.442 521.43 264.182 520.215 264.182 518.49C264.302 516.9 265.772 515.91 267.227 515.91C268.892 515.91 270.032 517.08 270.032 518.685C270.032 520.275 268.847 521.43 267.152 521.43ZM275.421 517.41H273.201V514.5H272.451V522H275.421C276.756 522 277.896 521.085 277.896 519.705C277.896 518.325 276.756 517.41 275.421 517.41ZM279.051 514.5V522H279.801V514.5H279.051ZM275.421 521.265H273.201V518.145H275.421C276.366 518.145 277.131 518.745 277.131 519.705C277.131 520.65 276.366 521.265 275.421 521.265ZM287.355 514.5H281.145V515.235H283.875V522H284.625V515.235H287.355V514.5ZM294.246 514.5L289.461 520.695V514.5H288.711V522H289.371L294.141 515.805V522H294.906V514.5H294.246ZM298.407 513.195H302.202V512.535H298.407V513.195ZM302.757 514.5L297.972 520.695V514.5H297.222V522H297.882L302.652 515.805V522H303.417V514.5H302.757Z" fill="#314E78"/>
<ellipse opacity="0.3" cx="187" cy="343.661" rx="85" ry="84.6605" fill="url(#paint0_linear)"/>
<path d="M206.124 334.256C205.43 321.125 198.029 313.523 194.415 311.363C196.583 317.842 187.042 329.937 183.573 334.256C180.797 337.711 182.416 343.183 183.573 345.486C181.404 342.175 176.027 335.638 171.863 335.984C166.659 336.416 167.093 342.463 167.527 347.214C167.96 351.966 173.165 355.853 174.032 359.309C174.726 362.073 174.61 372.267 174.466 377.018C170.649 382.201 159.389 408.308 154.041 421.41C160.112 424.002 175.593 427.901 192.246 427.555C208.899 427.21 221.447 419.06 225.639 415.029C223.471 405.67 221.736 388.249 216.532 384.361C213.588 382.162 190.945 372.699 189.211 370.539C187.476 368.379 188.343 361.9 190.078 360.172C191.813 358.445 197.884 358.013 200.92 355.853C203.955 353.693 206.991 350.67 206.124 334.256Z" fill="#FFEBE3"/>
<path d="M196.149 400.343C185.394 398.615 174.61 388.393 170.563 383.929L161.455 403.367L153.173 421.41C188.735 435.664 211.286 427.025 226.464 418.386L222.603 400.343C218.267 401.063 206.904 402.071 196.149 400.343Z" fill="white"/>
<path d="M185.517 333.941C181.007 338.087 182.085 345.1 183.964 347.548C181.217 344.092 176.062 336.705 171.205 339.124C166.348 341.543 168.025 348.483 169.471 351.65C174.899 359.74 175.333 360.604 173.807 362.017C146.486 354.242 149.088 329.621 149.088 326.166C149.088 323.401 147.064 322.998 146.052 323.142C120.379 323.833 122.425 304.884 128.272 298.521C146.71 281.559 154.587 306.943 155.159 307.592C155.818 308.339 156.251 309.01 159.063 307.592C170.194 301.977 195.491 294.893 207.634 311.48C219.777 328.066 209.015 346.35 203.955 352.829C211.761 335.552 195.491 309.752 196.792 313.639C198.093 317.527 191.154 328.757 185.517 333.941Z" fill="url(#paint1_linear)"/>
<defs>
<linearGradient id="paint0_linear" x1="187.227" y1="229.546" x2="187.227" y2="428.321" gradientUnits="userSpaceOnUse">
<stop stop-color="#FFD69C"/>
<stop offset="1" stop-color="#FFB5EF"/>
</linearGradient>
<linearGradient id="paint1_linear" x1="109.579" y1="268.743" x2="195.286" y2="385.997" gradientUnits="userSpaceOnUse">
<stop stop-color="#FDCC6C"/>
<stop offset="1" stop-color="#FF6392"/>
</linearGradient>
</defs>
</svg>
