<svg width="375" height="812" viewBox="0 0 375 812" fill="none" xmlns="http://www.w3.org/2000/svg">
<rect width="375" height="812" fill="#FFFBF7"/>
<g opacity="0.3">
<path d="M0 0V382.053C0 382.053 29.1281 450.788 104.017 442.811C178.906 434.835 194.437 391.876 284.858 471.049C284.858 471.049 316.756 504.185 375 502.967V0H0Z" fill="url(#paint0_linear)"/>
<path d="M359.186 503C312.382 503 284.647 478.546 284.351 478.265C228.894 428.888 194.898 438.305 147.857 451.356C135.381 454.817 122.467 458.399 107.741 461.403C35.7718 476.105 0.355114 433.341 0 432.899L0.875947 432C1.21922 432.429 36.2571 474.643 107.517 460.089C122.218 457.084 135.097 453.516 147.562 450.055C194.934 436.923 229.155 427.439 285.073 477.218C285.417 477.527 319.07 507.172 374.882 500.746L375 502.074C369.519 502.718 364.24 503 359.186 503Z" fill="url(#paint1_linear)"/>
</g>
<path d="M37.7856 126.732L42.0764 122.443L46.0798 126.445L41.789 130.735L37.7856 126.732Z" fill="#FFCCCC"/>
<path d="M42.5249 131.812L46.8157 127.523L50.8192 131.525L46.5284 135.815L42.5249 131.812Z" fill="#FFCCCC"/>
<path d="M43.5401 121.656L47.8309 117.366L51.8344 121.368L47.5436 125.658L43.5401 121.656Z" fill="#FFCCCC"/>
<path d="M178.991 194.775L183.281 190.486L187.285 194.488L182.994 198.777L178.991 194.775Z" fill="#FFCCCC"/>
<path d="M183.73 199.852L188.021 195.562L192.024 199.565L187.733 203.854L183.73 199.852Z" fill="#FFCCCC"/>
<path d="M178.651 204.931L182.942 200.641L186.945 204.643L182.654 208.933L178.651 204.931Z" fill="#FFCCCC"/>
<path d="M75.041 103H116V124.267H75.041V103Z" fill="#FFB9B9"/>
<path d="M50.6235 182.555H65.5892V217.212H50.6235V182.555Z" fill="#FFCCCC"/>
<path d="M57.9013 185.705C57.9013 185.705 44.0383 163.803 43.3452 158.074C42.652 152.346 41.9589 150.324 41.9589 150.324C41.9589 150.324 46.1178 149.65 47.5041 152.683C48.8904 155.716 53.0493 152.009 54.4356 160.096C54.4356 160.096 54.7822 164.14 57.9013 162.792C61.0205 161.444 57.9013 185.705 57.9013 185.705Z" fill="#FFCCCC"/>
<path d="M59.2877 189.644C59.2877 189.644 49.7347 171.493 46.5772 164.301C44.2358 158.966 42.2288 150.26 42.2288 150.26C42.2288 150.26 38.1949 151.774 38.5495 155.055C38.884 158.137 35.8736 159.164 36.5426 162.931C37.2651 167.007 43.0182 167.771 39.553 171.493C37.449 173.75 39.0278 177.603 40.5564 180.055C41.5365 181.623 46.3698 183.051 45.2392 182.452C42.6503 181.082 59.2877 189.644 59.2877 189.644Z" fill="#FFB9B9"/>
<path d="M50.1966 165.975C52.2299 170.39 53.6029 174.096 53.2631 174.253C52.9234 174.409 50.9996 170.957 48.9662 166.541C46.9329 162.126 45.5599 158.42 45.8997 158.263C46.2394 158.107 48.1632 161.559 50.1966 165.975Z" fill="#FFB9B9"/>
<path d="M62.4385 200.671C62.4385 200.671 41.7187 185.084 38.9833 179.964C36.2479 174.844 34.87 173.187 34.87 173.187C34.87 173.187 38.4253 171.076 40.8069 173.424C43.1885 175.772 45.6313 170.822 49.8671 177.904C49.8671 177.904 50.3332 182.875 53.3953 181.858C56.5696 180.814 62.4385 200.671 62.4385 200.671Z" fill="#FFCCCC"/>
<path d="M64.8014 203.034C64.8014 203.034 49.3114 189.859 43.7643 184.41C39.6487 180.356 34.6486 173.103 34.6486 173.103C34.6486 173.103 31.3973 175.978 32.9065 178.846C34.3245 181.548 31.8633 183.606 33.8451 186.822C35.9856 190.302 41.6711 188.889 39.7467 193.578C38.5785 196.426 41.4348 199.386 43.7609 201.078C45.2431 202.159 50.3006 201.696 49.0244 201.561C46.0871 201.274 64.8014 203.034 64.8014 203.034Z" fill="#FFE9E9"/>
<path d="M46.0172 188.553C49.5172 191.927 52.1441 194.881 51.8845 195.15C51.6249 195.419 48.577 192.902 45.077 189.528C41.5769 186.154 38.95 183.2 39.2097 182.931C39.4693 182.662 42.5171 185.179 46.0172 188.553Z" fill="#FFCCCC"/>
<path d="M169.476 158.925C169.476 158.925 185.551 132.847 186.582 125.901C187.614 118.955 188.466 116.52 188.466 116.52C188.466 116.52 184.002 115.507 182.352 119.151C180.702 122.794 176.391 118.088 174.49 127.878C174.49 127.878 173.915 132.79 170.608 131.012C167.301 129.234 169.476 158.925 169.476 158.925Z" fill="#FFCCCC"/>
<path d="M167.986 162.863C167.986 162.863 179.503 141.522 183.364 133.038C186.231 126.742 188.885 116.39 188.885 116.39C188.885 116.39 193.304 118.392 192.75 122.309C192.229 125.992 195.529 127.373 194.602 131.85C193.593 136.705 187.155 137.36 190.834 141.978C193.066 144.784 191.123 149.331 189.302 152.205C188.136 154.041 182.685 155.533 183.972 154.868C186.913 153.359 167.986 162.863 167.986 162.863Z" fill="#FFB9B9"/>
<path d="M179.103 134.927C176.521 140.142 174.743 144.535 175.128 144.739C175.513 144.943 177.918 140.878 180.5 135.662C183.082 130.447 184.861 126.054 184.475 125.85C184.09 125.646 181.681 129.708 179.103 134.927Z" fill="#FFB9B9"/>
<path d="M164.048 176.253C164.048 176.253 187.48 158.382 190.725 152.333C193.969 146.285 195.555 144.358 195.555 144.358C195.555 144.358 191.769 141.672 189.049 144.381C186.328 147.09 183.899 141.025 178.918 149.379C178.918 149.379 178.166 155.351 174.864 153.988C171.441 152.575 164.048 176.253 164.048 176.253Z" fill="#FFE9E9"/>
<path d="M160.897 179.404C160.897 179.404 178.691 163.903 185.097 157.455C189.852 152.672 195.749 143.959 195.749 143.959C195.749 143.959 199.205 147.645 197.391 151.132C195.685 154.401 198.312 157.034 195.962 160.901C193.419 165.082 187.195 163.091 189.1 168.952C190.253 172.508 186.935 176.023 184.288 177.997C182.602 179.261 177.022 178.458 178.441 178.338C181.709 178.096 160.897 179.404 160.897 179.404Z" fill="#FFCCCC"/>
<path d="M184.788 161.089C180.882 165.206 177.959 168.812 178.246 169.14C178.532 169.469 181.937 166.394 185.843 162.274C189.749 158.154 192.672 154.551 192.385 154.223C192.098 153.894 188.694 156.972 184.788 161.089Z" fill="white"/>
<path d="M68.7397 182.555H94.7328V217.212H68.7397V182.555Z" fill="#FFB9B9"/>
<path d="M125.452 183.342H151.445V218H125.452V183.342Z" fill="#FFCCCC"/>
<path d="M118.363 103H135.692V124.267H118.363V103Z" fill="#FFCCCC"/>
<path d="M56.9248 121.116H175.075V207.76H56.9248V121.116Z" fill="#FFB9B9"/>
<path d="M60.0755 121.116H175.076V207.76H60.0755V121.116Z" fill="#FFE9E9"/>
<path d="M60.8631 121.904H173.5V128.205H60.8631V121.904Z" fill="white"/>
<path d="M60.8631 128.205H173.5V206.185H60.8631V128.205Z" fill="#FFCCCC"/>
<path d="M79.7669 131.356H93.1573V146.322H79.7669V131.356Z" fill="#FFB9B9"/>
<path d="M94.7328 131.356H108.911V146.322H94.7328V131.356Z" fill="#FFB9B9"/>
<path d="M110.486 131.356H123.877V146.322H110.486V131.356Z" fill="#FFB9B9"/>
<path d="M125.452 131.356H139.63V146.322H125.452V131.356Z" fill="white"/>
<path d="M141.205 131.356H154.596V146.322H141.205V131.356Z" fill="white"/>
<path d="M156.959 131.356H170.349V146.322H156.959V131.356Z" fill="white"/>
<path d="M79.7669 148.685H93.1573V164.438H79.7669V148.685Z" fill="white"/>
<path d="M94.7328 148.685H108.911V164.438H94.7328V148.685Z" fill="white"/>
<path d="M110.486 148.685H123.877V164.438H110.486V148.685Z" fill="#FFE9E9"/>
<path d="M125.452 148.685H139.63V164.438H125.452V148.685Z" fill="white"/>
<path d="M141.205 148.685H154.596V164.438H141.205V148.685Z" fill="white"/>
<path d="M156.959 148.685H170.349V164.438H156.959V148.685Z" fill="white"/>
<path d="M79.7669 166.014H93.1573V181.767H79.7669V166.014Z" fill="white"/>
<path d="M94.7328 166.014H108.911V181.767H94.7328V166.014Z" fill="white"/>
<path d="M110.486 166.014H123.877V181.767H110.486V166.014Z" fill="#FFE9E9"/>
<path d="M125.452 166.014H139.63V181.767H125.452V166.014Z" fill="white"/>
<path d="M141.205 166.014H154.596V181.767H141.205V166.014Z" fill="#FFE9E9"/>
<path d="M156.959 166.014H170.349V181.767H156.959V166.014Z" fill="white"/>
<path d="M79.7669 184.13H93.945V199.096H79.7669V184.13Z" fill="#FFE9E9"/>
<path d="M95.5204 184.13H108.911V199.096H95.5204V184.13Z" fill="#FFE9E9"/>
<path d="M110.486 184.13H124.664V199.096H110.486V184.13Z" fill="white"/>
<path d="M126.239 184.13H139.63V199.096H126.239V184.13Z" fill="white"/>
<path d="M141.205 184.13H155.383V199.096H141.205V184.13Z" fill="#FFB9B9"/>
<path d="M156.959 184.13H171.137V199.096H156.959V184.13Z" fill="white"/>
<path d="M64.8012 125.449C64.8012 126.101 64.2722 126.63 63.6197 126.63C62.9672 126.63 62.4382 126.101 62.4382 125.449C62.4382 124.796 62.9672 124.267 63.6197 124.267C64.2722 124.267 64.8012 124.796 64.8012 125.449Z" fill="#FFB9B9"/>
<path d="M68.7395 125.449C68.7395 126.101 68.2105 126.63 67.558 126.63C66.9055 126.63 66.3765 126.101 66.3765 125.449C66.3765 124.796 66.9055 124.267 67.558 124.267C68.2105 124.267 68.7395 124.796 68.7395 125.449Z" fill="#FFB9B9"/>
<path d="M72.6779 125.449C72.6779 126.101 72.1489 126.63 71.4964 126.63C70.8439 126.63 70.3149 126.101 70.3149 125.449C70.3149 124.796 70.8439 124.267 71.4964 124.267C72.1489 124.267 72.6779 124.796 72.6779 125.449Z" fill="#FFB9B9"/>
<path d="M64.0134 150.26C64.0134 149.39 64.6994 148.685 65.5457 148.685H75.0839C75.9301 148.685 76.6161 149.39 76.6161 150.26C76.6161 151.13 75.9301 151.836 75.0839 151.836H65.5457C64.6994 151.836 64.0134 151.13 64.0134 150.26Z" fill="white"/>
<path d="M64.0134 167.589C64.0134 166.719 64.6994 166.014 65.5457 166.014H75.0839C75.9301 166.014 76.6161 166.719 76.6161 167.589C76.6161 168.459 75.9301 169.164 75.0839 169.164H65.5457C64.6994 169.164 64.0134 168.459 64.0134 167.589Z" fill="white"/>
<path d="M64.0134 185.705C64.0134 184.835 64.6994 184.13 65.5457 184.13H75.0839C75.9301 184.13 76.6161 184.835 76.6161 185.705C76.6161 186.576 75.9301 187.281 75.0839 187.281H65.5457C64.6994 187.281 64.0134 186.576 64.0134 185.705Z" fill="white"/>
<path d="M80.5546 151.442C80.5546 150.789 81.091 150.26 81.7528 150.26H87.233C87.8948 150.26 88.4313 150.789 88.4313 151.442C88.4313 152.094 87.8948 152.623 87.233 152.623H81.7528C81.091 152.623 80.5546 152.094 80.5546 151.442Z" fill="#FFB9B9"/>
<path d="M80.5546 154.986C80.5546 154.551 80.9218 154.199 81.3748 154.199H83.6727C84.1257 154.199 84.4929 154.551 84.4929 154.986C84.4929 155.421 84.1257 155.774 83.6727 155.774H81.3748C80.9218 155.774 80.5546 155.421 80.5546 154.986Z" fill="#FFB9B9"/>
<path d="M96.3081 151.048C96.3081 150.613 96.7888 150.26 97.3818 150.26H103.111C103.704 150.26 104.185 150.613 104.185 151.048C104.185 151.483 103.704 151.836 103.111 151.836H97.3818C96.7888 151.836 96.3081 151.483 96.3081 151.048Z" fill="#FFB9B9"/>
<path d="M142.781 187.281C142.781 186.846 143.213 186.493 143.747 186.493H148.903C149.437 186.493 149.87 186.846 149.87 187.281C149.87 187.716 149.437 188.068 148.903 188.068H143.747C143.213 188.068 142.781 187.716 142.781 187.281Z" fill="white"/>
<path d="M157.746 168.77C157.746 168.118 158.227 167.589 158.82 167.589H164.549C165.142 167.589 165.623 168.118 165.623 168.77C165.623 169.423 165.142 169.952 164.549 169.952H158.82C158.227 169.952 157.746 169.423 157.746 168.77Z" fill="#FFF0F0"/>
<path d="M157.746 151.442C157.746 150.789 158.179 150.26 158.713 150.26H163.869C164.403 150.26 164.835 150.789 164.835 151.442C164.835 152.094 164.403 152.623 163.869 152.623H158.713C158.179 152.623 157.746 152.094 157.746 151.442Z" fill="#FFF0F0"/>
<path d="M141.993 151.442C141.993 150.789 142.474 150.26 143.067 150.26H148.796C149.389 150.26 149.87 150.789 149.87 151.442C149.87 152.094 149.389 152.623 148.796 152.623H143.067C142.474 152.623 141.993 152.094 141.993 151.442Z" fill="#FFF0F0"/>
<path d="M99.4588 154.592C99.4588 155.245 98.7535 155.774 97.8834 155.774C97.0134 155.774 96.3081 155.245 96.3081 154.592C96.3081 153.94 97.0134 153.411 97.8834 153.411C98.7535 153.411 99.4588 153.94 99.4588 154.592Z" fill="#FFB9B9"/>
<path d="M130.178 152.229C130.178 152.882 129.649 153.411 128.996 153.411C128.344 153.411 127.815 152.882 127.815 152.229C127.815 151.577 128.344 151.048 128.996 151.048C129.649 151.048 130.178 151.577 130.178 152.229Z" fill="#FFB9B9"/>
<path d="M134.904 152.229C134.904 152.882 134.375 153.411 133.722 153.411C133.07 153.411 132.541 152.882 132.541 152.229C132.541 151.577 133.07 151.048 133.722 151.048C134.375 151.048 134.904 151.577 134.904 152.229Z" fill="#FFB9B9"/>
<path d="M134.904 169.164C134.904 170.034 134.375 170.74 133.722 170.74C133.07 170.74 132.541 170.034 132.541 169.164C132.541 168.294 133.07 167.589 133.722 167.589C134.375 167.589 134.904 168.294 134.904 169.164Z" fill="#FFB9B9"/>
<path d="M130.178 169.164C130.178 170.034 129.649 170.74 128.996 170.74C128.344 170.74 127.815 170.034 127.815 169.164C127.815 168.294 128.344 167.589 128.996 167.589C129.649 167.589 130.178 168.294 130.178 169.164Z" fill="#FFB9B9"/>
<path d="M134.904 186.493C134.904 187.363 134.199 188.068 133.329 188.068C132.459 188.068 131.753 187.363 131.753 186.493C131.753 185.623 132.459 184.918 133.329 184.918C134.199 184.918 134.904 185.623 134.904 186.493Z" fill="#FFB9B9"/>
<path d="M130.178 186.493C130.178 187.363 129.473 188.068 128.603 188.068C127.733 188.068 127.027 187.363 127.027 186.493C127.027 185.623 127.733 184.918 128.603 184.918C129.473 184.918 130.178 185.623 130.178 186.493Z" fill="#FFB9B9"/>
<path d="M88.4314 186.887C88.4314 187.539 87.9024 188.068 87.2499 188.068C86.5974 188.068 86.0684 187.539 86.0684 186.887C86.0684 186.234 86.5974 185.705 87.2499 185.705C87.9024 185.705 88.4314 186.234 88.4314 186.887Z" fill="#FFB9B9"/>
<path d="M83.7052 186.887C83.7052 187.539 83.1762 188.068 82.5237 188.068C81.8712 188.068 81.3422 187.539 81.3422 186.887C81.3422 186.234 81.8712 185.705 82.5237 185.705C83.1762 185.705 83.7052 186.234 83.7052 186.887Z" fill="#FFB9B9"/>
<path d="M130.178 134.113C130.178 134.765 129.649 135.294 128.996 135.294C128.344 135.294 127.815 134.765 127.815 134.113C127.815 133.46 128.344 132.931 128.996 132.931C129.649 132.931 130.178 133.46 130.178 134.113Z" fill="#FFB9B9"/>
<path d="M114.424 134.113C114.424 134.765 113.719 135.294 112.849 135.294C111.979 135.294 111.274 134.765 111.274 134.113C111.274 133.46 111.979 132.931 112.849 132.931C113.719 132.931 114.424 133.46 114.424 134.113Z" fill="white"/>
<path d="M119.15 134.113C119.15 134.765 118.445 135.294 117.575 135.294C116.705 135.294 116 134.765 116 134.113C116 133.46 116.705 132.931 117.575 132.931C118.445 132.931 119.15 133.46 119.15 134.113Z" fill="white"/>
<path d="M98.6711 134.113C98.6711 134.765 98.1421 135.294 97.4896 135.294C96.8371 135.294 96.3081 134.765 96.3081 134.113C96.3081 133.46 96.8371 132.931 97.4896 132.931C98.1421 132.931 98.6711 133.46 98.6711 134.113Z" fill="white"/>
<path d="M103.397 134.113C103.397 134.765 102.868 135.294 102.216 135.294C101.563 135.294 101.034 134.765 101.034 134.113C101.034 133.46 101.563 132.931 102.216 132.931C102.868 132.931 103.397 133.46 103.397 134.113Z" fill="white"/>
<path d="M83.7052 134.113C83.7052 134.765 83.1762 135.294 82.5237 135.294C81.8712 135.294 81.3422 134.765 81.3422 134.113C81.3422 133.46 81.8712 132.931 82.5237 132.931C83.1762 132.931 83.7052 133.46 83.7052 134.113Z" fill="white"/>
<path d="M88.4314 134.113C88.4314 134.765 87.9024 135.294 87.2499 135.294C86.5974 135.294 86.0684 134.765 86.0684 134.113C86.0684 133.46 86.5974 132.931 87.2499 132.931C87.9024 132.931 88.4314 133.46 88.4314 134.113Z" fill="white"/>
<path d="M137.015 143.031V139.827L134.886 143.031H137.015ZM137.029 145.534V143.806H134.116V142.938L137.159 138.445H137.864V143.031H138.842V143.806H137.864V145.534H137.029Z" fill="#FFB9B9"/>
<path d="M102.736 145.204C102.768 144.595 102.889 144.066 103.099 143.615C103.312 143.164 103.726 142.755 104.34 142.387L105.256 141.839C105.667 141.592 105.955 141.382 106.12 141.208C106.381 140.935 106.512 140.622 106.512 140.27C106.512 139.859 106.392 139.534 106.154 139.294C105.915 139.05 105.597 138.928 105.199 138.928C104.61 138.928 104.203 139.159 103.977 139.619C103.856 139.866 103.789 140.208 103.776 140.645H102.903C102.912 140.03 103.022 139.529 103.232 139.141C103.605 138.457 104.262 138.115 105.204 138.115C105.987 138.115 106.558 138.333 106.918 138.771C107.28 139.208 107.462 139.695 107.462 140.231C107.462 140.797 107.269 141.28 106.884 141.681C106.661 141.915 106.262 142.198 105.686 142.53L105.032 142.905C104.72 143.082 104.475 143.252 104.297 143.413C103.979 143.699 103.778 144.016 103.695 144.365H107.428V145.204H102.736Z" fill="white"/>
<path d="M91.6603 155.672V156.462C91.442 156.687 91.151 157.078 90.7872 157.635C90.4266 158.193 90.1071 158.793 89.8287 159.438C89.5535 160.065 89.3447 160.638 89.2024 161.155C89.1106 161.487 88.992 162.022 88.8465 162.761H87.9022C88.1174 161.385 88.5919 160.015 89.3257 158.652C89.7591 157.854 90.2146 157.164 90.6923 156.583H86.9343V155.672H91.6603Z" fill="#FFB9B9"/>
<path d="M135.217 157.804V157.09C135.942 157.024 136.448 156.915 136.735 156.764C137.021 156.608 137.235 156.244 137.376 155.672H138.169V163.051H137.097V157.804H135.217Z" fill="#FFB9B9"/>
<path d="M118.556 195.31C118.613 195.841 118.842 196.209 119.241 196.413C119.446 196.516 119.682 196.568 119.951 196.568C120.462 196.568 120.84 196.392 121.087 196.04C121.333 195.688 121.456 195.298 121.456 194.869C121.456 194.352 121.309 193.951 121.015 193.668C120.724 193.385 120.374 193.243 119.965 193.243C119.668 193.243 119.412 193.306 119.198 193.43C118.987 193.554 118.807 193.727 118.656 193.948L117.909 193.901L118.431 189.908H121.997V190.809H119.078L118.786 192.871C118.946 192.739 119.097 192.641 119.241 192.575C119.497 192.461 119.792 192.404 120.128 192.404C120.757 192.404 121.291 192.624 121.729 193.062C122.167 193.501 122.385 194.056 122.385 194.73C122.385 195.43 122.184 196.048 121.782 196.584C121.382 197.119 120.743 197.386 119.864 197.386C119.305 197.386 118.81 197.217 118.378 196.879C117.95 196.537 117.711 196.014 117.659 195.31H118.556Z" fill="#FFB9B9"/>
<path d="M167.422 192.154C167.803 192.154 168.101 192.04 168.316 191.813C168.53 191.582 168.637 191.308 168.637 190.991C168.637 190.715 168.535 190.461 168.33 190.23C168.125 189.999 167.813 189.884 167.393 189.884C166.977 189.884 166.676 189.999 166.49 190.23C166.305 190.461 166.212 190.732 166.212 191.042C166.212 191.391 166.332 191.663 166.572 191.859C166.812 192.056 167.096 192.154 167.422 192.154ZM167.475 195.821C167.875 195.821 168.207 195.706 168.469 195.475C168.735 195.24 168.868 194.892 168.868 194.43C168.868 193.951 168.732 193.587 168.46 193.339C168.188 193.09 167.839 192.966 167.413 192.966C167 192.966 166.662 193.094 166.399 193.349C166.14 193.601 166.01 193.951 166.01 194.399C166.01 194.785 166.129 195.119 166.366 195.402C166.606 195.681 166.976 195.821 167.475 195.821ZM166.246 192.511C166.005 192.401 165.818 192.271 165.684 192.123C165.431 191.847 165.304 191.489 165.304 191.047C165.304 190.496 165.49 190.022 165.861 189.625C166.233 189.229 166.759 189.031 167.441 189.031C168.101 189.031 168.618 189.218 168.993 189.594C169.367 189.967 169.555 190.403 169.555 190.903C169.555 191.365 169.446 191.739 169.228 192.025C169.106 192.187 168.918 192.346 168.661 192.501C168.946 192.642 169.17 192.804 169.334 192.987C169.638 193.332 169.79 193.78 169.79 194.332C169.79 194.983 169.587 195.537 169.18 195.992C168.773 196.443 168.199 196.669 167.456 196.669C166.787 196.669 166.22 196.474 165.756 196.085C165.295 195.692 165.064 195.123 165.064 194.378C165.064 193.94 165.163 193.563 165.362 193.245C165.56 192.925 165.855 192.68 166.246 192.511Z" fill="#FFB9B9"/>
<path d="M135.819 176.353C136.2 176.353 136.498 176.239 136.713 176.011C136.927 175.78 137.034 175.506 137.034 175.189C137.034 174.913 136.932 174.66 136.727 174.429C136.522 174.198 136.21 174.082 135.79 174.082C135.374 174.082 135.073 174.198 134.887 174.429C134.702 174.66 134.609 174.931 134.609 175.241C134.609 175.589 134.729 175.861 134.969 176.058C135.209 176.254 135.493 176.353 135.819 176.353ZM135.872 180.02C136.272 180.02 136.604 179.904 136.866 179.673C137.132 179.439 137.265 179.09 137.265 178.628C137.265 178.149 137.129 177.785 136.857 177.537C136.584 177.289 136.235 177.165 135.81 177.165C135.397 177.165 135.059 177.292 134.796 177.547C134.537 177.799 134.407 178.149 134.407 178.597C134.407 178.983 134.526 179.318 134.763 179.601C135.003 179.88 135.373 180.02 135.872 180.02ZM134.642 176.71C134.402 176.599 134.215 176.47 134.081 176.322C133.828 176.046 133.701 175.687 133.701 175.246C133.701 174.694 133.887 174.22 134.258 173.824C134.63 173.427 135.156 173.229 135.838 173.229C136.498 173.229 137.015 173.417 137.39 173.793C137.764 174.165 137.952 174.601 137.952 175.101C137.952 175.563 137.843 175.937 137.625 176.223C137.503 176.385 137.314 176.544 137.058 176.699C137.343 176.841 137.567 177.003 137.731 177.185C138.035 177.53 138.187 177.978 138.187 178.53C138.187 179.182 137.984 179.735 137.577 180.19C137.17 180.642 136.596 180.868 135.853 180.868C135.184 180.868 134.617 180.673 134.153 180.283C133.692 179.89 133.461 179.321 133.461 178.577C133.461 178.139 133.56 177.761 133.759 177.444C133.957 177.123 134.252 176.879 134.642 176.71Z" fill="#FFB9B9"/>
<path d="M99.4586 197.521C99.4904 196.844 99.6114 196.256 99.8214 195.756C100.035 195.255 100.448 194.8 101.063 194.391L101.979 193.782C102.39 193.508 102.678 193.274 102.843 193.081C103.104 192.777 103.235 192.43 103.235 192.039C103.235 191.582 103.115 191.221 102.877 190.954C102.638 190.683 102.32 190.548 101.922 190.548C101.333 190.548 100.926 190.804 100.7 191.316C100.579 191.59 100.512 191.97 100.499 192.456H99.6257C99.6352 191.772 99.745 191.215 99.9551 190.784C100.327 190.024 100.985 189.644 101.927 189.644C102.71 189.644 103.281 189.887 103.64 190.373C104.003 190.859 104.185 191.4 104.185 191.995C104.185 192.624 103.992 193.161 103.607 193.607C103.384 193.866 102.985 194.181 102.409 194.55L101.755 194.966C101.443 195.164 101.198 195.352 101.02 195.531C100.701 195.849 100.501 196.201 100.418 196.589H104.151V197.521H99.4586Z" fill="#FFB9B9"/>
<path d="M260.992 303.059L265.691 301.632L267.931 339.731L266.086 340.543L260.992 303.059Z" fill="#FFFBF7"/>
<path d="M296.454 292.058L303.59 289.818L312.351 324.667L310.309 325.26L296.454 292.058Z" fill="#FFFBF7"/>
<path d="M212.599 300.183L203.596 328.949L201.181 327.851L205.353 299.085L212.599 300.183Z" fill="#FFFBF7"/>
<path d="M254.69 304.289H257.325L260.992 303.059L266.086 340.543L263.847 339.95L254.69 304.289Z" fill="#FFFBF7"/>
<path opacity="0.3" d="M245.579 194.691L287.539 194.494L286.727 287.578L251.485 290.828L246.457 292.848L205.419 290.367L205.528 287.732L250.475 282.088L245.579 194.691Z" fill="#FFA6A6"/>
<path d="M231.152 194.845L245.578 194.691L252.363 285.646L202.893 288.259L200.105 268.232L211.501 266.014L237.147 264.609L231.152 194.845Z" fill="url(#paint2_linear)"/>
<path d="M249.311 268.013C249.311 268.013 245.403 268.013 245.249 270.736C245.095 273.019 245.007 287.051 244.985 291.509C244.985 292.146 244.942 292.76 244.81 293.375C244.656 294.144 245.491 295.769 247.445 295.813C251.199 295.923 255.415 295.813 255.415 295.813C255.415 295.813 257.216 295.264 256.886 292.211C256.557 289.159 253.198 273.436 253.198 273.436C253.198 273.436 252.187 269.703 255.745 269.703C259.302 269.703 287.627 267.661 287.627 267.661C287.627 267.661 291.535 267.837 291.689 264.258C291.842 260.678 292.545 196.909 292.545 196.909C292.545 196.909 293.05 194.186 290.679 194.033C288.307 193.879 283.565 194.362 283.565 194.362C283.565 194.362 282.028 194.538 282.028 196.734C282.028 198.93 284.706 262.501 284.399 263.796C283.938 265.795 279.041 266.256 276.494 266.432C273.947 266.607 249.311 268.013 249.311 268.013Z" fill="#FFB3B3"/>
<path d="M222.304 198.095C222.304 198.095 221.865 193.615 224.895 193.879C227.003 194.077 229.089 194.406 231.175 194.823C231.175 194.823 232.47 194.648 232.712 196.119C232.953 197.59 242.856 264.675 242.175 264.938C241.495 265.202 207.044 267.2 206.275 267.2C205.507 267.2 202.674 267.112 203.025 269.352C203.377 271.592 205.55 287.117 205.55 287.732C205.55 288.347 205.836 290.63 205.243 290.806C204.65 290.982 194.418 290.499 194.418 290.499L195.187 269.418C195.187 269.418 195.143 265.839 197.207 265.575C199.271 265.312 235.039 263.906 235.456 263.489C235.873 263.072 234.776 259.449 234.336 257.824C234.117 256.901 222.304 198.095 222.304 198.095Z" fill="#FFB3B3"/>
<path d="M253.646 254.359C253.777 254.357 253.885 254.461 253.887 254.592C253.888 254.71 253.804 254.81 253.691 254.83L253.653 254.833L232.759 255.132C232.627 255.134 232.52 255.029 232.518 254.898C232.516 254.78 232.601 254.681 232.713 254.661L232.752 254.657L253.646 254.359Z" fill="#FFFBF7"/>
<path fill-rule="evenodd" clip-rule="evenodd" d="M188.624 321.022C188.669 320.883 178.657 355.809 178.152 358.366C176.773 365.347 177.386 366.463 173.296 367.583C172.248 367.87 170.913 367.051 169.066 368.453C164.012 372.295 157.445 373.74 157.207 370.916C157.207 368.314 168.534 362.249 170.526 357.264C172.596 352.085 173.926 309.064 178.214 306.742C182.503 304.42 193.114 291.416 188.624 321.022Z" fill="#FFD8B6"/>
<path fill-rule="evenodd" clip-rule="evenodd" d="M175.523 368.953C175.523 368.953 177.48 365.399 177.613 360.603C177.613 360.603 173.906 362.857 170.547 365.464C166.669 368.474 165.863 368.508 165.863 368.508C161.633 368.967 161.18 366.509 161.18 366.509C161.18 366.509 158.46 368.881 153.773 371.092C149.575 373.072 163.727 376.409 166.383 373.189C169.038 369.969 172.021 368.368 172.021 368.368L172.073 374.044L173.438 374.271L175.523 368.953Z" fill="#FFA6A6"/>
<path fill-rule="evenodd" clip-rule="evenodd" d="M175.061 285.022L163.072 346.183L184.69 350.478C184.69 350.478 192.322 317.637 196.874 289.531C196.874 289.531 200.245 275.041 188.696 272.895C177.148 270.748 175.061 285.022 175.061 285.022Z" fill="#DFBFF8"/>
<path fill-rule="evenodd" clip-rule="evenodd" d="M188.564 271.826C211.341 269.002 228.161 268.761 233.428 270.082C233.428 270.082 244.363 272.273 242.311 280.69C239.808 290.961 228.051 291.133 228.051 291.133L189.97 294.12C186.942 294.389 176.978 295.543 176.403 283.84C175.86 272.801 188.068 271.887 188.564 271.826Z" fill="#DFBFF8"/>
<path fill-rule="evenodd" clip-rule="evenodd" d="M188.253 256.846C188.253 256.846 217.65 249.506 221.808 248.666C232.32 246.541 233.636 255.642 226.969 256.856C222.95 257.587 214.811 258.426 207.723 259.219C197.733 260.337 190.386 260.936 190.386 260.936L188.253 256.846Z" fill="#FFD8B6"/>
<path fill-rule="evenodd" clip-rule="evenodd" d="M240.149 177.221C240.149 177.221 224.118 180.321 224.263 189.549C224.337 194.296 229.103 199.324 226.902 200.834C218.299 206.731 227.894 208.804 222.465 213.502C214.392 220.49 219.761 231.905 228.474 230.907C237.5 229.874 233.528 242.826 249.009 238.74C257.733 236.438 260.242 234.433 266.389 231.16C272.538 227.886 275.923 211.502 268.038 203.707C263.134 198.771 258.59 199.389 255.713 191.033C252.835 182.676 250.145 177.581 245.99 178.385C244.41 176.248 240.149 177.221 240.149 177.221Z" fill="#8D5959"/>
<path fill-rule="evenodd" clip-rule="evenodd" d="M231.278 197.453C231.229 197.277 230.982 197.274 230.927 197.448C230.449 198.995 229.315 203.162 230.944 203.319C232.779 203.496 231.722 199.065 231.278 197.453Z" fill="white"/>
<path fill-rule="evenodd" clip-rule="evenodd" d="M247.299 209.641C246.568 203.298 245.873 198.117 245.873 198.117L236.102 203.631L236.679 211.36C237.124 214.205 239.836 216.117 242.666 215.58C245.658 215.011 247.648 212.666 247.299 209.641Z" fill="#F4B784"/>
<path fill-rule="evenodd" clip-rule="evenodd" d="M240.629 187.503C240.629 187.503 239.559 184.43 237.618 185.92C236.229 186.985 236.599 186.11 236.287 185.282C235.126 182.205 234.737 189.783 230.239 191.37C230.164 195.229 229.969 207.565 237.652 208.046C240.641 208.233 244.469 205.923 245.787 201.526C246.646 198.659 245.931 195.774 244.883 195.198C241.43 193.304 241.495 191.351 240.629 187.503Z" fill="#FFD8B6"/>
<path fill-rule="evenodd" clip-rule="evenodd" d="M250.601 195.895C251.196 192.844 248.281 193.08 248.281 193.08C248.281 193.08 248.276 196.109 247.529 198.831C250.453 198.691 250.601 195.895 250.601 195.895Z" fill="#FFD8B6"/>
<path fill-rule="evenodd" clip-rule="evenodd" d="M248.99 198.053C248.941 197.876 248.694 197.873 248.639 198.047C248.162 199.593 247.028 203.762 248.656 203.918C250.491 204.096 249.434 199.664 248.99 198.053Z" fill="white"/>
<path fill-rule="evenodd" clip-rule="evenodd" d="M222.667 252.417C222.667 252.417 223.179 231.279 223.537 227.207C224.402 217.371 228.729 215.179 232.001 219.185C235.946 224.015 231.248 253.565 231.248 253.565C231.248 253.565 230.651 257.504 226.944 257.577C222.563 257.664 222.667 252.417 222.667 252.417Z" fill="#FFD8B6"/>
<path fill-rule="evenodd" clip-rule="evenodd" d="M220.252 237.124C220.388 234.984 218.748 215.856 227.71 215.782C234.68 215.725 233.031 224.837 231.033 240.133L220.252 237.124Z" fill="#DABBF2"/>
<path fill-rule="evenodd" clip-rule="evenodd" d="M253.018 255.078C248.035 256.294 234.245 255.713 232.764 255.078C231.284 254.444 232.092 249.916 232.092 249.916C223.062 226.868 223.915 219.209 224.706 217.496C225.775 215.179 235.353 215.311 235.715 213.503C235.893 212.611 235.83 209.533 235.83 209.533L248.176 208.847C248.176 208.847 248.864 212.236 249.517 213.323C250.786 215.439 258.585 213.799 261.793 218.076C267.526 225.721 259.696 238.858 255.387 248.415C255.387 248.415 255.654 252.907 253.018 255.078Z" fill="#DABBF2"/>
<path fill-rule="evenodd" clip-rule="evenodd" d="M234.872 287.26L224.342 276.249C224.342 276.249 226.613 263.972 232.447 258.624L253.259 257.894C253.259 257.894 262.189 264.114 261.218 279.181L245.253 287.347L234.872 287.26Z" fill="#DABBF2"/>
<path fill-rule="evenodd" clip-rule="evenodd" d="M253.745 258.138L232.447 258.624L232.977 255.365L253.041 254.759L253.745 258.138Z" fill="#E4EBF7"/>
<path d="M239.869 258.631C239.999 258.646 240.092 258.764 240.077 258.894C239.836 260.974 239.654 263.236 239.526 265.65C239.238 271.067 239.233 276.832 239.405 282.32L239.438 283.285C239.466 284.082 239.496 284.81 239.526 285.458L239.583 286.572C239.59 286.703 239.491 286.815 239.36 286.823C239.229 286.83 239.117 286.73 239.109 286.599L239.084 286.134L239.041 285.233C239.018 284.731 238.996 284.184 238.974 283.598L238.963 283.302C238.759 277.515 238.746 271.377 239.052 265.625C239.18 263.201 239.364 260.93 239.606 258.84C239.619 258.722 239.716 258.635 239.83 258.63L239.869 258.631Z" fill="#FFFBF7"/>
<path d="M253.683 258.069C253.814 258.067 253.923 258.171 253.925 258.302C253.927 258.42 253.843 258.52 253.73 258.54L253.692 258.544L232.82 258.908C232.688 258.91 232.58 258.806 232.578 258.675C232.576 258.557 232.66 258.458 232.773 258.437L232.811 258.434L253.683 258.069Z" fill="#FFFBF7"/>
<path fill-rule="evenodd" clip-rule="evenodd" d="M232.92 318.856C232.886 318.703 242.73 356.329 243.66 358.96C246.201 366.14 247.375 366.833 244.22 370.097C243.411 370.933 241.734 370.907 240.8 373.208C238.242 379.503 232.985 384.419 231.224 381.948C229.803 379.552 236.924 367.785 236.037 362.107C235.116 356.209 212.858 315.866 215.54 311.387C218.221 306.908 220.895 289.142 232.92 318.856Z" fill="#FFD8B6"/>
<path fill-rule="evenodd" clip-rule="evenodd" d="M247.018 370.566C247.018 370.566 246.88 366.224 244.385 361.735C244.385 361.735 242.202 365.834 240.532 370.069C238.603 374.957 237.88 375.428 237.88 375.428C234.236 378.16 232.476 376.144 232.476 376.144C232.476 376.144 231.266 379.812 228.156 384.407C225.372 388.521 240.226 383.87 240.913 379.455C241.601 375.04 243.474 371.937 243.474 371.937L246.62 377.137L248.001 376.6L247.018 370.566Z" fill="#FFA6A6"/>
<path fill-rule="evenodd" clip-rule="evenodd" d="M200.049 289.011L218.388 353.159L241.09 346.731C241.09 346.731 232.381 311.705 223.041 282.694C223.041 282.694 219.202 267.238 207.146 270.813C195.091 274.388 200.049 289.011 200.049 289.011Z" fill="#DABBF2"/>
<path fill-rule="evenodd" clip-rule="evenodd" d="M212.002 269.727C237.266 266.012 245.186 266.058 251.078 267.394C251.078 267.394 263.295 269.557 261.226 278.97C258.7 290.458 245.627 290.945 245.627 290.945L214.128 294.488C210.767 294.865 198.778 295.656 198.778 283.396C198.778 271.101 211.452 269.808 212.002 269.727Z" fill="#DABBF2"/>
<path fill-rule="evenodd" clip-rule="evenodd" d="M255.341 248.073C255.341 248.073 251.916 229.961 252.048 225.729C252.365 215.505 258.457 214.474 261.567 219.032C263.971 222.556 265.474 249.166 265.474 249.166C265.474 249.166 264.558 253.718 260.55 254.188C255.813 254.743 255.341 248.073 255.341 248.073Z" fill="#FFD8B6"/>
<path fill-rule="evenodd" clip-rule="evenodd" d="M257.397 215.462C262.394 216.494 264.31 221.426 264.763 235.422L251.576 237.56C251.546 235.416 242.903 213.918 258.448 215.664" fill="#DABBF2"/>
<path fill-rule="evenodd" clip-rule="evenodd" d="M222.667 257.643C222.667 257.643 253.315 246.829 257.377 246.031C265.62 244.412 268.503 252.891 261.6 255.404C252.714 258.638 224.204 263.454 224.204 263.454L222.667 257.643Z" fill="#FFD8B6"/>
<path d="M246.344 265.286C246.474 265.27 246.592 265.362 246.608 265.492C246.622 265.61 246.549 265.717 246.439 265.749L246.401 265.757L210.324 270.187C210.194 270.203 210.076 270.111 210.06 269.981C210.045 269.864 210.119 269.756 210.229 269.724L210.266 269.716L246.344 265.286Z" fill="#FFFBF7"/>
<path fill-rule="evenodd" clip-rule="evenodd" d="M209.41 277.494L246.311 271.653L209.741 260.586L179.348 268.46L209.41 277.494Z" fill="#FFFBF7"/>
<path fill-rule="evenodd" clip-rule="evenodd" d="M208.019 274.923L234.819 270.68L208.891 262.592L186.185 268.36L208.019 274.923Z" fill="#7954EF"/>
<path fill-rule="evenodd" clip-rule="evenodd" d="M246.289 273.558L246.319 271.666L208.658 277.324L209.296 279.345L246.289 273.558Z" fill="#FEE6C6"/>
<path d="M203.776 264.276C203.802 264.205 203.875 264.163 203.948 264.174L203.979 264.182L225.07 271.915C225.152 271.945 225.194 272.036 225.164 272.118C225.138 272.19 225.065 272.231 224.992 272.22L224.961 272.212L203.87 264.479C203.788 264.449 203.745 264.358 203.776 264.276Z" fill="#FFFBF7"/>
<path d="M206.573 263.155C206.598 263.083 206.67 263.041 206.743 263.05L206.774 263.058L230.358 271.259C230.44 271.287 230.484 271.378 230.455 271.46C230.43 271.532 230.358 271.575 230.285 271.565L230.254 271.558L206.671 263.357C206.588 263.328 206.544 263.238 206.573 263.155Z" fill="#FFFBF7"/>
<path d="M203.457 266.194C203.485 266.122 203.558 266.082 203.631 266.094L203.662 266.102L221.374 272.877C221.455 272.908 221.496 272.999 221.465 273.081C221.437 273.152 221.364 273.193 221.291 273.181L221.26 273.172L203.549 266.398C203.467 266.367 203.426 266.275 203.457 266.194Z" fill="#FFFBF7"/>
<path d="M198.605 266.678C198.632 266.607 198.706 266.567 198.778 266.579L198.809 266.587L216.521 273.361C216.603 273.392 216.644 273.483 216.612 273.565C216.585 273.636 216.512 273.677 216.439 273.665L216.408 273.656L198.696 266.883C198.615 266.851 198.574 266.76 198.605 266.678Z" fill="#FFFBF7"/>
<path d="M194.123 267.441C194.15 267.37 194.224 267.329 194.296 267.341L194.327 267.35L212.039 274.123C212.121 274.155 212.162 274.246 212.13 274.328C212.103 274.399 212.03 274.439 211.957 274.427L211.926 274.419L194.214 267.645C194.133 267.614 194.092 267.523 194.123 267.441Z" fill="#FFFBF7"/>
<path d="M230.436 269.519C230.523 269.508 230.602 269.569 230.612 269.656C230.622 269.732 230.576 269.802 230.506 269.826L230.475 269.833L207.54 272.662C207.454 272.673 207.375 272.612 207.364 272.525C207.355 272.449 207.401 272.379 207.47 272.355L207.502 272.348L230.436 269.519Z" fill="#FFFBF7"/>
<path d="M225.349 267.725C225.436 267.714 225.515 267.776 225.525 267.862C225.535 267.938 225.489 268.008 225.419 268.032L225.388 268.039L202.454 270.869C202.367 270.879 202.288 270.818 202.277 270.731C202.268 270.655 202.314 270.585 202.383 270.562L202.415 270.555L225.349 267.725Z" fill="#FFFBF7"/>
<path d="M219.043 266.528C219.129 266.517 219.208 266.579 219.219 266.666C219.229 266.742 219.183 266.812 219.113 266.835L219.082 266.842L196.147 269.672C196.06 269.683 195.982 269.621 195.971 269.534C195.961 269.459 196.007 269.389 196.077 269.365L196.108 269.358L219.043 266.528Z" fill="#FFFBF7"/>
<path d="M214.778 263.354C214.864 263.344 214.943 263.405 214.954 263.492C214.964 263.568 214.918 263.638 214.848 263.661L214.817 263.668L191.882 266.498C191.795 266.509 191.716 266.447 191.706 266.361C191.696 266.285 191.742 266.215 191.812 266.191L191.843 266.184L214.778 263.354Z" fill="#FFFBF7"/>
<path fill-rule="evenodd" clip-rule="evenodd" d="M209.266 279.346L207.608 279.49L179.156 270.551L167.658 222.454L198.302 228.572L209.266 279.346Z" fill="#FEE6C6"/>
<path fill-rule="evenodd" clip-rule="evenodd" d="M207.549 279.493L177.545 270.081C177.271 269.994 177.062 269.771 176.995 269.491L165.892 223.269C165.753 222.688 166.263 222.158 166.848 222.276L195.917 228.12C196.235 228.184 196.486 228.431 196.555 228.749L207.549 279.493Z" fill="#FFF3E2"/>
<path fill-rule="evenodd" clip-rule="evenodd" d="M225.233 263.477C224.329 266.853 216.809 265.707 216.809 265.707L213.123 268.708C212.54 269.11 212.289 268.717 211.971 268.79C211.115 268.985 210.91 268.085 210.91 268.085C210.583 268.012 210.159 268.346 209.845 267.562C209.845 267.562 209.236 267.656 209.028 266.938C208.95 266.671 210.126 263.055 210.829 260.939C211.138 260.01 211.941 259.335 212.909 259.19L221.908 257.835C221.908 257.835 226.45 258.934 225.233 263.477Z" fill="#FFD8B6"/>
<path d="M217.346 263.313C217.469 263.26 217.612 263.317 217.664 263.441C217.712 263.552 217.67 263.678 217.571 263.741L217.537 263.759L214.889 264.889L212.241 268.535C212.171 268.631 212.043 268.661 211.94 268.611L211.902 268.589C211.806 268.519 211.776 268.391 211.826 268.287L211.848 268.25L214.536 264.55C214.553 264.527 214.574 264.506 214.598 264.49L214.637 264.47L217.346 263.313Z" fill="#DD936F"/>
<path d="M215.535 262.2C215.652 262.134 215.8 262.175 215.865 262.292C215.925 262.397 215.897 262.528 215.806 262.601L215.773 262.623L213.342 263.992L211.185 267.766C211.125 267.87 210.999 267.914 210.889 267.873L210.854 267.856C210.749 267.796 210.706 267.67 210.747 267.56L210.763 267.525L212.954 263.693C212.968 263.668 212.987 263.645 213.01 263.627L213.046 263.602L215.535 262.2Z" fill="#DD936F"/>
<path d="M213.778 261.172C213.883 261.089 214.036 261.107 214.119 261.212C214.193 261.306 214.187 261.437 214.111 261.523L214.079 261.553L212.443 262.847L210.474 266.899C210.421 267.007 210.298 267.059 210.187 267.025L210.15 267.011C210.041 266.958 209.99 266.835 210.023 266.723L210.038 266.687L212.031 262.585C212.042 262.563 212.056 262.543 212.072 262.526L212.099 262.501L213.778 261.172Z" fill="#DD936F"/>
<path d="M225.948 291.607L227.21 296.897C227.21 296.897 227.715 299.169 228.472 299.926C231.722 300.036 254.669 304.267 254.669 304.267C254.669 304.267 258.972 305.409 265.669 301.61L304.336 289.357C304.336 289.357 305.676 289.247 305.544 286.941C305.412 284.636 312.153 196.887 312.153 196.646C312.153 196.404 311.275 195.504 309.54 195.394C307.959 195.306 291.381 194.296 291.381 194.296L291.469 261.03C291.469 261.03 291.908 267.156 289.12 267.398C282.73 267.947 256.667 267.552 253.307 270.231C251.046 272.053 256.14 287.666 256.667 290.85C256.821 291.838 249.86 291.399 247.686 291.992C245.93 292.497 225.948 291.607 225.948 291.607Z" fill="#FFA6A6"/>
<path d="M127.651 535.38C129.849 535.38 131.674 536.071 133.125 537.454C134.575 538.837 135.301 540.582 135.301 542.69C135.301 544.798 134.575 546.543 133.125 547.926C131.674 549.309 129.849 550 127.651 550H118.641V526.2H133.261V529.94H122.551V535.38H127.651ZM127.651 546.328C128.716 546.328 129.6 545.999 130.303 545.342C131.028 544.662 131.391 543.778 131.391 542.69C131.391 541.602 131.028 540.729 130.303 540.072C129.6 539.392 128.716 539.052 127.651 539.052H122.551V546.328H127.651ZM145.703 538.78C147.517 538.78 149.001 539.301 150.157 540.344C151.313 541.364 151.891 542.713 151.891 544.39C151.891 546.045 151.313 547.393 150.157 548.436C149.001 549.479 147.517 550 145.703 550H138.291V533H141.963V538.78H145.703ZM153.931 533H157.603V550H153.931V533ZM145.737 546.702C146.463 546.702 147.063 546.487 147.539 546.056C148.038 545.625 148.287 545.07 148.287 544.39C148.287 543.687 148.038 543.132 147.539 542.724C147.063 542.293 146.463 542.078 145.737 542.078H141.963V546.702H145.737ZM169.89 550.442C167.328 550.442 165.186 549.581 163.464 547.858C161.764 546.135 160.914 544.016 160.914 541.5C160.914 538.961 161.764 536.842 163.464 535.142C165.186 533.419 167.328 532.558 169.89 532.558C171.544 532.558 173.052 532.955 174.412 533.748C175.772 534.541 176.792 535.607 177.472 536.944L174.31 538.78C173.924 537.964 173.335 537.329 172.542 536.876C171.771 536.4 170.876 536.162 169.856 536.162C168.36 536.162 167.102 536.672 166.082 537.692C165.084 538.712 164.586 539.981 164.586 541.5C164.586 543.019 165.084 544.288 166.082 545.308C167.102 546.328 168.36 546.838 169.856 546.838C170.853 546.838 171.748 546.6 172.542 546.124C173.358 545.648 173.97 545.013 174.378 544.22L177.54 546.022C176.814 547.382 175.772 548.459 174.412 549.252C173.052 550.045 171.544 550.442 169.89 550.442ZM193.016 533V536.536H187.474V550H183.802V536.536H178.226V533H193.016ZM205.122 532.558C207.457 532.558 209.452 533.431 211.106 535.176C212.761 536.899 213.588 539.007 213.588 541.5C213.588 544.016 212.761 546.135 211.106 547.858C209.452 549.581 207.457 550.442 205.122 550.442C202.538 550.442 200.555 549.49 199.172 547.586V556.8H195.5V533H199.172V535.448C200.555 533.521 202.538 532.558 205.122 532.558ZM200.702 545.41C201.722 546.43 203.003 546.94 204.544 546.94C206.086 546.94 207.366 546.43 208.386 545.41C209.406 544.367 209.916 543.064 209.916 541.5C209.916 539.936 209.406 538.644 208.386 537.624C207.366 536.581 206.086 536.06 204.544 536.06C203.003 536.06 201.722 536.581 200.702 537.624C199.682 538.644 199.172 539.936 199.172 541.5C199.172 543.064 199.682 544.367 200.702 545.41ZM224.328 538.78C226.142 538.78 227.626 539.301 228.782 540.344C229.938 541.364 230.516 542.713 230.516 544.39C230.516 546.045 229.938 547.393 228.782 548.436C227.626 549.479 226.142 550 224.328 550H216.916V533H220.588V538.78H224.328ZM232.556 533H236.228V550H232.556V533ZM224.362 546.702C225.088 546.702 225.688 546.487 226.164 546.056C226.663 545.625 226.912 545.07 226.912 544.39C226.912 543.687 226.663 543.132 226.164 542.724C225.688 542.293 225.088 542.078 224.362 542.078H220.588V546.702H224.362ZM243.279 530.62V527.424H252.799V530.62H243.279ZM252.799 533H255.621V550H252.017V539.188L243.313 550H240.491V533H244.095V543.778L252.799 533ZM78.9634 573V590H75.2914V576.468H67.5054V590H63.8334V573H78.9634ZM91.248 590.442C88.7547 590.442 86.6354 589.581 84.89 587.858C83.1447 586.135 82.272 584.016 82.272 581.5C82.272 578.984 83.1447 576.865 84.89 575.142C86.6354 573.419 88.7547 572.558 91.248 572.558C93.764 572.558 95.8834 573.419 97.606 575.142C99.3514 576.865 100.224 578.984 100.224 581.5C100.224 584.016 99.3514 586.135 97.606 587.858C95.8834 589.581 93.764 590.442 91.248 590.442ZM87.474 585.342C88.494 586.362 89.752 586.872 91.248 586.872C92.744 586.872 94.002 586.362 95.022 585.342C96.042 584.322 96.552 583.041 96.552 581.5C96.552 579.959 96.042 578.678 95.022 577.658C94.002 576.638 92.744 576.128 91.248 576.128C89.752 576.128 88.494 576.638 87.474 577.658C86.454 578.678 85.944 579.959 85.944 581.5C85.944 583.041 86.454 584.322 87.474 585.342ZM115.852 573H118.674V590H115.07V579.188L106.366 590H103.544V573H107.148V583.778L115.852 573ZM130.959 590.442C128.398 590.442 126.256 589.581 124.533 587.858C122.833 586.135 121.983 584.016 121.983 581.5C121.983 578.961 122.833 576.842 124.533 575.142C126.256 573.419 128.398 572.558 130.959 572.558C132.614 572.558 134.121 572.955 135.481 573.748C136.841 574.541 137.861 575.607 138.541 576.944L135.379 578.78C134.994 577.964 134.404 577.329 133.611 576.876C132.84 576.4 131.945 576.162 130.925 576.162C129.429 576.162 128.171 576.672 127.151 577.692C126.154 578.712 125.655 579.981 125.655 581.5C125.655 583.019 126.154 584.288 127.151 585.308C128.171 586.328 129.429 586.838 130.925 586.838C131.922 586.838 132.818 586.6 133.611 586.124C134.427 585.648 135.039 585.013 135.447 584.22L138.609 586.022C137.884 587.382 136.841 588.459 135.481 589.252C134.121 590.045 132.614 590.442 130.959 590.442ZM156.391 590H152.005L145.035 582.146V590H141.363V573H145.035V580.514L151.631 573H156.119L148.639 581.33L156.391 590ZM182.389 590H178.003L171.033 582.146V590H167.361V573H171.033V580.514L177.629 573H182.117L174.637 581.33L182.389 590ZM199.207 573V590H195.535V576.536H189.857V582.86C189.857 585.557 189.267 587.473 188.089 588.606C186.91 589.739 185.233 590.204 183.057 590V586.566C184.099 586.747 184.881 586.532 185.403 585.92C185.924 585.308 186.185 584.231 186.185 582.69V573H199.207ZM215.794 573H218.616V590H215.012V579.188L206.308 590H203.486V573H207.09V583.778L215.794 573ZM225.766 583.064C226.038 584.356 226.662 585.353 227.636 586.056C228.611 586.736 229.801 587.076 231.206 587.076C233.156 587.076 234.618 586.373 235.592 584.968L238.618 586.736C236.941 589.207 234.459 590.442 231.172 590.442C228.407 590.442 226.174 589.603 224.474 587.926C222.774 586.226 221.924 584.084 221.924 581.5C221.924 578.961 222.763 576.842 224.44 575.142C226.118 573.419 228.271 572.558 230.9 572.558C233.394 572.558 235.434 573.431 237.02 575.176C238.63 576.921 239.434 579.041 239.434 581.534C239.434 581.919 239.389 582.429 239.298 583.064H225.766ZM225.732 580.072H235.728C235.479 578.689 234.901 577.647 233.994 576.944C233.11 576.241 232.068 575.89 230.866 575.89C229.506 575.89 228.373 576.264 227.466 577.012C226.56 577.76 225.982 578.78 225.732 580.072ZM254.123 573H257.795V590H254.123V583.234H246.337V590H242.665V573H246.337V579.766H254.123V573ZM275.044 573V576.536H269.502V590H265.83V576.536H260.254V573H275.044ZM284.889 590.442C282.395 590.442 280.276 589.581 278.531 587.858C276.785 586.135 275.913 584.016 275.913 581.5C275.913 578.984 276.785 576.865 278.531 575.142C280.276 573.419 282.395 572.558 284.889 572.558C287.405 572.558 289.524 573.419 291.247 575.142C292.992 576.865 293.865 578.984 293.865 581.5C293.865 584.016 292.992 586.135 291.247 587.858C289.524 589.581 287.405 590.442 284.889 590.442ZM281.115 585.342C282.135 586.362 283.393 586.872 284.889 586.872C286.385 586.872 287.643 586.362 288.663 585.342C289.683 584.322 290.193 583.041 290.193 581.5C290.193 579.959 289.683 578.678 288.663 577.658C287.643 576.638 286.385 576.128 284.889 576.128C283.393 576.128 282.135 576.638 281.115 577.658C280.095 578.678 279.585 579.959 279.585 581.5C279.585 583.041 280.095 584.322 281.115 585.342ZM308.949 581.262C310.626 582.033 311.465 583.336 311.465 585.172C311.465 586.6 310.978 587.767 310.003 588.674C309.051 589.558 307.68 590 305.889 590H297.185V573H305.209C306.954 573 308.303 573.442 309.255 574.326C310.23 575.187 310.717 576.309 310.717 577.692C310.717 579.301 310.128 580.491 308.949 581.262ZM304.937 576.128H300.687V579.902H304.937C306.433 579.902 307.181 579.267 307.181 577.998C307.181 576.751 306.433 576.128 304.937 576.128ZM305.549 586.804C307.09 586.804 307.861 586.135 307.861 584.798C307.861 584.209 307.657 583.755 307.249 583.438C306.841 583.098 306.274 582.928 305.549 582.928H300.687V586.804H305.549Z" fill="#314E78"/>
<path opacity="0.7" d="M67.331 623.791C66.421 624.71 65.3074 625.169 63.99 625.169C62.6727 625.169 61.559 624.71 60.649 623.791C59.739 622.872 59.284 621.759 59.284 620.45C59.284 619.133 59.739 618.019 60.649 617.109C61.559 616.19 62.6727 615.731 63.99 615.731C65.3074 615.731 66.421 616.19 67.331 617.109C68.2497 618.019 68.709 619.133 68.709 620.45C68.709 621.759 68.2497 622.872 67.331 623.791ZM61.481 622.972C62.157 623.648 62.9934 623.986 63.99 623.986C64.9867 623.986 65.8187 623.648 66.486 622.972C67.162 622.287 67.5 621.447 67.5 620.45C67.5 619.445 67.162 618.604 66.486 617.928C65.8187 617.243 64.9867 616.901 63.99 616.901C62.9934 616.901 62.157 617.243 61.481 617.928C60.8137 618.604 60.48 619.445 60.48 620.45C60.48 621.447 60.8137 622.287 61.481 622.972ZM76.5715 619.475C77.1782 620.099 77.4815 620.857 77.4815 621.75C77.4815 622.643 77.1782 623.401 76.5715 624.025C75.9648 624.649 75.1545 625.017 74.1405 625.13V627.6H73.0225V625.13C72.0085 625.017 71.1982 624.649 70.5915 624.025C69.9848 623.401 69.6815 622.643 69.6815 621.75C69.6815 620.857 69.9848 620.099 70.5915 619.475C71.1982 618.851 72.0085 618.483 73.0225 618.37V615.9H74.1405V618.37C75.1545 618.483 75.9648 618.851 76.5715 619.475ZM70.7995 621.75C70.7995 622.348 70.9945 622.855 71.3845 623.271C71.7832 623.687 72.3292 623.943 73.0225 624.038V619.462C72.3292 619.549 71.7832 619.8 71.3845 620.216C70.9945 620.632 70.7995 621.143 70.7995 621.75ZM74.1405 624.038C74.8338 623.943 75.3755 623.687 75.7655 623.271C76.1555 622.855 76.3505 622.348 76.3505 621.75C76.3505 621.152 76.1555 620.645 75.7655 620.229C75.3755 619.813 74.8338 619.557 74.1405 619.462V624.038ZM84.304 624.181C83.6366 624.84 82.8263 625.169 81.873 625.169C80.9196 625.169 80.1093 624.84 79.442 624.181C78.7833 623.522 78.454 622.712 78.454 621.75C78.454 620.788 78.7833 619.978 79.442 619.319C80.1093 618.66 80.9196 618.331 81.873 618.331C82.8263 618.331 83.6366 618.66 84.304 619.319C84.9713 619.978 85.305 620.788 85.305 621.75C85.305 622.712 84.9713 623.522 84.304 624.181ZM81.873 624.064C82.523 624.064 83.069 623.843 83.511 623.401C83.953 622.959 84.174 622.409 84.174 621.75C84.174 621.091 83.953 620.541 83.511 620.099C83.069 619.657 82.523 619.436 81.873 619.436C81.2316 619.436 80.69 619.657 80.248 620.099C79.806 620.541 79.585 621.091 79.585 621.75C79.585 622.409 79.806 622.959 80.248 623.401C80.69 623.843 81.2316 624.064 81.873 624.064ZM90.2263 618.331C91.1363 618.331 91.9119 618.665 92.5533 619.332C93.1946 619.991 93.5153 620.797 93.5153 621.75C93.5153 622.703 93.1946 623.514 92.5533 624.181C91.9119 624.84 91.1363 625.169 90.2263 625.169C89.1516 625.169 88.3326 624.74 87.7693 623.882V627.6H86.6383V618.5H87.7693V619.618C88.3326 618.76 89.1516 618.331 90.2263 618.331ZM90.0833 624.077C90.7333 624.077 91.2793 623.856 91.7213 623.414C92.1633 622.963 92.3843 622.409 92.3843 621.75C92.3843 621.091 92.1633 620.541 91.7213 620.099C91.2793 619.648 90.7333 619.423 90.0833 619.423C89.4246 619.423 88.8743 619.648 88.4323 620.099C87.9903 620.541 87.7693 621.091 87.7693 621.75C87.7693 622.409 87.9903 622.963 88.4323 623.414C88.8743 623.856 89.4246 624.077 90.0833 624.077ZM101.365 618.5V625H100.26V620.281L98.1928 623.609H98.0498L95.9828 620.281V625H94.8648V618.5H96.0738L98.1148 621.789L100.156 618.5H101.365ZM108.512 618.5V625H107.381V619.592H104.82V622.244C104.82 623.31 104.604 624.055 104.17 624.48C103.746 624.896 103.143 625.069 102.363 625V623.934C102.805 623.995 103.135 623.899 103.351 623.648C103.577 623.388 103.689 622.911 103.689 622.218V618.5H108.512ZM115.088 618.5V625H113.97V622.66H113.021L111.201 625H109.823L111.721 622.595C111.236 622.474 110.841 622.231 110.538 621.867C110.235 621.503 110.083 621.078 110.083 620.593C110.083 619.995 110.295 619.497 110.72 619.098C111.145 618.699 111.678 618.5 112.319 618.5H115.088ZM112.358 621.646H113.97V619.553H112.358C112.037 619.553 111.764 619.648 111.539 619.839C111.314 620.03 111.201 620.285 111.201 620.606C111.201 620.918 111.314 621.169 111.539 621.36C111.764 621.551 112.037 621.646 112.358 621.646ZM117.868 617.525V616.537H121.378V617.525H117.868ZM121.521 618.5H122.431V625H121.313V620.437L117.712 625H116.802V618.5H117.92V623.063L121.521 618.5ZM128.989 618.5V619.592H126.779V625H125.648V619.592H123.425V618.5H128.989ZM130.519 622.27C130.632 622.851 130.896 623.301 131.312 623.622C131.737 623.943 132.257 624.103 132.872 624.103C133.73 624.103 134.354 623.787 134.744 623.154L135.706 623.7C135.073 624.679 134.12 625.169 132.846 625.169C131.815 625.169 130.974 624.848 130.324 624.207C129.683 623.557 129.362 622.738 129.362 621.75C129.362 620.771 129.678 619.956 130.311 619.306C130.944 618.656 131.763 618.331 132.768 618.331C133.721 618.331 134.497 618.669 135.095 619.345C135.702 620.012 136.005 620.818 136.005 621.763C136.005 621.928 135.992 622.097 135.966 622.27H130.519ZM132.768 619.397C132.161 619.397 131.659 619.57 131.26 619.917C130.861 620.255 130.614 620.71 130.519 621.282H134.861C134.766 620.667 134.523 620.199 134.133 619.878C133.743 619.557 133.288 619.397 132.768 619.397ZM143.61 625.169C142.631 625.169 141.816 624.844 141.166 624.194C140.516 623.535 140.191 622.721 140.191 621.75C140.191 620.779 140.516 619.969 141.166 619.319C141.816 618.66 142.631 618.331 143.61 618.331C144.252 618.331 144.828 618.487 145.339 618.799C145.851 619.102 146.232 619.514 146.483 620.034L145.534 620.58C145.37 620.233 145.114 619.956 144.767 619.748C144.429 619.54 144.044 619.436 143.61 619.436C142.96 619.436 142.414 619.657 141.972 620.099C141.539 620.541 141.322 621.091 141.322 621.75C141.322 622.4 141.539 622.946 141.972 623.388C142.414 623.83 142.96 624.051 143.61 624.051C144.044 624.051 144.434 623.951 144.78 623.752C145.127 623.544 145.391 623.267 145.573 622.92L146.535 623.479C146.258 623.99 145.859 624.402 145.339 624.714C144.819 625.017 144.243 625.169 143.61 625.169ZM151.994 621.659C152.661 621.936 152.995 622.439 152.995 623.167C152.995 623.704 152.813 624.146 152.449 624.493C152.093 624.831 151.582 625 150.915 625H147.665V618.5H150.655C151.305 618.5 151.807 618.665 152.163 618.994C152.518 619.315 152.696 619.739 152.696 620.268C152.696 620.892 152.462 621.356 151.994 621.659ZM150.603 619.514H148.77V621.217H150.603C151.261 621.217 151.591 620.927 151.591 620.346C151.591 619.791 151.261 619.514 150.603 619.514ZM150.85 623.973C151.179 623.973 151.43 623.895 151.604 623.739C151.786 623.583 151.877 623.362 151.877 623.076C151.877 622.807 151.786 622.599 151.604 622.452C151.43 622.296 151.179 622.218 150.85 622.218H148.77V623.973H150.85ZM159.701 624.181C159.034 624.84 158.224 625.169 157.27 625.169C156.317 625.169 155.507 624.84 154.839 624.181C154.181 623.522 153.851 622.712 153.851 621.75C153.851 620.788 154.181 619.978 154.839 619.319C155.507 618.66 156.317 618.331 157.27 618.331C158.224 618.331 159.034 618.66 159.701 619.319C160.369 619.978 160.702 620.788 160.702 621.75C160.702 622.712 160.369 623.522 159.701 624.181ZM157.27 624.064C157.92 624.064 158.466 623.843 158.908 623.401C159.35 622.959 159.571 622.409 159.571 621.75C159.571 621.091 159.35 620.541 158.908 620.099C158.466 619.657 157.92 619.436 157.27 619.436C156.629 619.436 156.087 619.657 155.645 620.099C155.203 620.541 154.982 621.091 154.982 621.75C154.982 622.409 155.203 622.959 155.645 623.401C156.087 623.843 156.629 624.064 157.27 624.064ZM162.829 622.27C162.941 622.851 163.206 623.301 163.622 623.622C164.046 623.943 164.566 624.103 165.182 624.103C166.04 624.103 166.664 623.787 167.054 623.154L168.016 623.7C167.383 624.679 166.43 625.169 165.156 625.169C164.124 625.169 163.284 624.848 162.634 624.207C161.992 623.557 161.672 622.738 161.672 621.75C161.672 620.771 161.988 619.956 162.621 619.306C163.253 618.656 164.072 618.331 165.078 618.331C166.031 618.331 166.807 618.669 167.405 619.345C168.011 620.012 168.315 620.818 168.315 621.763C168.315 621.928 168.302 622.097 168.276 622.27H162.829ZM165.078 619.397C164.471 619.397 163.968 619.57 163.57 619.917C163.171 620.255 162.924 620.71 162.829 621.282H167.171C167.075 620.667 166.833 620.199 166.443 619.878C166.053 619.557 165.598 619.397 165.078 619.397ZM178.494 618.5V625H177.363V619.579H173.996V625H172.865V618.5H178.494ZM185.701 624.181C185.034 624.84 184.224 625.169 183.27 625.169C182.317 625.169 181.507 624.84 180.839 624.181C180.181 623.522 179.851 622.712 179.851 621.75C179.851 620.788 180.181 619.978 180.839 619.319C181.507 618.66 182.317 618.331 183.27 618.331C184.224 618.331 185.034 618.66 185.701 619.319C186.369 619.978 186.702 620.788 186.702 621.75C186.702 622.712 186.369 623.522 185.701 624.181ZM183.27 624.064C183.92 624.064 184.466 623.843 184.908 623.401C185.35 622.959 185.571 622.409 185.571 621.75C185.571 621.091 185.35 620.541 184.908 620.099C184.466 619.657 183.92 619.436 183.27 619.436C182.629 619.436 182.087 619.657 181.645 620.099C181.203 620.541 180.982 621.091 180.982 621.75C180.982 622.409 181.203 622.959 181.645 623.401C182.087 623.843 182.629 624.064 183.27 624.064ZM191.624 618.331C192.534 618.331 193.309 618.665 193.951 619.332C194.592 619.991 194.913 620.797 194.913 621.75C194.913 622.703 194.592 623.514 193.951 624.181C193.309 624.84 192.534 625.169 191.624 625.169C190.549 625.169 189.73 624.74 189.167 623.882V627.6H188.036V618.5H189.167V619.618C189.73 618.76 190.549 618.331 191.624 618.331ZM191.481 624.077C192.131 624.077 192.677 623.856 193.119 623.414C193.561 622.963 193.782 622.409 193.782 621.75C193.782 621.091 193.561 620.541 193.119 620.099C192.677 619.648 192.131 619.423 191.481 619.423C190.822 619.423 190.272 619.648 189.83 620.099C189.388 620.541 189.167 621.091 189.167 621.75C189.167 622.409 189.388 622.963 189.83 623.414C190.272 623.856 190.822 624.077 191.481 624.077ZM200.844 618.5V619.592H198.634V625H197.503V619.592H195.28V618.5H200.844ZM208.108 619.475C208.714 620.099 209.018 620.857 209.018 621.75C209.018 622.643 208.714 623.401 208.108 624.025C207.501 624.649 206.691 625.017 205.677 625.13V627.6H204.559V625.13C203.545 625.017 202.734 624.649 202.128 624.025C201.521 623.401 201.218 622.643 201.218 621.75C201.218 620.857 201.521 620.099 202.128 619.475C202.734 618.851 203.545 618.483 204.559 618.37V615.9H205.677V618.37C206.691 618.483 207.501 618.851 208.108 619.475ZM202.336 621.75C202.336 622.348 202.531 622.855 202.921 623.271C203.319 623.687 203.865 623.943 204.559 624.038V619.462C203.865 619.549 203.319 619.8 202.921 620.216C202.531 620.632 202.336 621.143 202.336 621.75ZM205.677 624.038C206.37 623.943 206.912 623.687 207.302 623.271C207.692 622.855 207.887 622.348 207.887 621.75C207.887 621.152 207.692 620.645 207.302 620.229C206.912 619.813 206.37 619.557 205.677 619.462V624.038ZM215.84 624.181C215.173 624.84 214.362 625.169 213.409 625.169C212.456 625.169 211.645 624.84 210.978 624.181C210.319 623.522 209.99 622.712 209.99 621.75C209.99 620.788 210.319 619.978 210.978 619.319C211.645 618.66 212.456 618.331 213.409 618.331C214.362 618.331 215.173 618.66 215.84 619.319C216.507 619.978 216.841 620.788 216.841 621.75C216.841 622.712 216.507 623.522 215.84 624.181ZM213.409 624.064C214.059 624.064 214.605 623.843 215.047 623.401C215.489 622.959 215.71 622.409 215.71 621.75C215.71 621.091 215.489 620.541 215.047 620.099C214.605 619.657 214.059 619.436 213.409 619.436C212.768 619.436 212.226 619.657 211.784 620.099C211.342 620.541 211.121 621.091 211.121 621.75C211.121 622.409 211.342 622.959 211.784 623.401C212.226 623.843 212.768 624.064 213.409 624.064ZM223.367 618.5V625H222.236V619.592H219.675V622.244C219.675 623.31 219.458 624.055 219.025 624.48C218.6 624.896 217.998 625.069 217.218 625V623.934C217.66 623.995 217.989 623.899 218.206 623.648C218.431 623.388 218.544 622.911 218.544 622.218V618.5H223.367ZM229.8 618.5H230.71V625H229.592V620.437L225.991 625H225.081V618.5H226.199V623.063L229.8 618.5ZM237.917 624.181C237.25 624.84 236.44 625.169 235.486 625.169C234.533 625.169 233.723 624.84 233.055 624.181C232.397 623.522 232.067 622.712 232.067 621.75C232.067 620.788 232.397 619.978 233.055 619.319C233.723 618.66 234.533 618.331 235.486 618.331C236.44 618.331 237.25 618.66 237.917 619.319C238.585 619.978 238.918 620.788 238.918 621.75C238.918 622.712 238.585 623.522 237.917 624.181ZM235.486 624.064C236.136 624.064 236.682 623.843 237.124 623.401C237.566 622.959 237.787 622.409 237.787 621.75C237.787 621.091 237.566 620.541 237.124 620.099C236.682 619.657 236.136 619.436 235.486 619.436C234.845 619.436 234.303 619.657 233.861 620.099C233.419 620.541 233.198 621.091 233.198 621.75C233.198 622.409 233.419 622.959 233.861 623.401C234.303 623.843 234.845 624.064 235.486 624.064ZM241.421 623.661L240.576 626.82H239.601L240.121 623.661H241.421ZM251.898 618.5V625H250.767V619.579H247.4V625H246.269V618.5H251.898ZM259.106 624.181C258.438 624.84 257.628 625.169 256.675 625.169C255.721 625.169 254.911 624.84 254.244 624.181C253.585 623.522 253.256 622.712 253.256 621.75C253.256 620.788 253.585 619.978 254.244 619.319C254.911 618.66 255.721 618.331 256.675 618.331C257.628 618.331 258.438 618.66 259.106 619.319C259.773 619.978 260.107 620.788 260.107 621.75C260.107 622.712 259.773 623.522 259.106 624.181ZM256.675 624.064C257.325 624.064 257.871 623.843 258.313 623.401C258.755 622.959 258.976 622.409 258.976 621.75C258.976 621.091 258.755 620.541 258.313 620.099C257.871 619.657 257.325 619.436 256.675 619.436C256.033 619.436 255.492 619.657 255.05 620.099C254.608 620.541 254.387 621.091 254.387 621.75C254.387 622.409 254.608 622.959 255.05 623.401C255.492 623.843 256.033 624.064 256.675 624.064ZM265.769 621.659C266.436 621.936 266.77 622.439 266.77 623.167C266.77 623.704 266.588 624.146 266.224 624.493C265.869 624.831 265.357 625 264.69 625H261.44V618.5H264.43C265.08 618.5 265.583 618.665 265.938 618.994C266.293 619.315 266.471 619.739 266.471 620.268C266.471 620.892 266.237 621.356 265.769 621.659ZM264.378 619.514H262.545V621.217H264.378C265.037 621.217 265.366 620.927 265.366 620.346C265.366 619.791 265.037 619.514 264.378 619.514ZM264.625 623.973C264.954 623.973 265.206 623.895 265.379 623.739C265.561 623.583 265.652 623.362 265.652 623.076C265.652 622.807 265.561 622.599 265.379 622.452C265.206 622.296 264.954 622.218 264.625 622.218H262.545V623.973H264.625ZM270.734 620.84C271.384 620.84 271.921 621.035 272.346 621.425C272.779 621.806 272.996 622.305 272.996 622.92C272.996 623.535 272.779 624.038 272.346 624.428C271.921 624.809 271.384 625 270.734 625H267.991V618.5H269.122V620.84H270.734ZM273.841 618.5H274.972V625H273.841V618.5ZM270.734 623.947C271.054 623.947 271.323 623.856 271.54 623.674C271.765 623.483 271.878 623.232 271.878 622.92C271.878 622.608 271.765 622.357 271.54 622.166C271.323 621.975 271.054 621.88 270.734 621.88H269.122V623.947H270.734ZM284.474 618.5H285.605V625H276.7V618.5H277.831V623.921H280.587V618.5H281.718V623.921H284.474V618.5ZM292.72 618.5H293.851V625H292.72V623.882C292.157 624.74 291.338 625.169 290.263 625.169C289.353 625.169 288.578 624.84 287.936 624.181C287.295 623.514 286.974 622.703 286.974 621.75C286.974 620.797 287.295 619.991 287.936 619.332C288.578 618.665 289.353 618.331 290.263 618.331C291.338 618.331 292.157 618.76 292.72 619.618V618.5ZM290.406 624.077C291.065 624.077 291.615 623.856 292.057 623.414C292.499 622.963 292.72 622.409 292.72 621.75C292.72 621.091 292.499 620.541 292.057 620.099C291.615 619.648 291.065 619.423 290.406 619.423C289.756 619.423 289.21 619.648 288.768 620.099C288.326 620.541 288.105 621.091 288.105 621.75C288.105 622.409 288.326 622.963 288.768 623.414C289.21 623.856 289.756 624.077 290.406 624.077ZM296.631 617.525V616.537H300.141V617.525H296.631ZM300.284 618.5H301.194V625H300.076V620.437L296.475 625H295.565V618.5H296.683V623.063L300.284 618.5ZM307.752 618.5V619.592H305.542V625H304.411V619.592H302.188V618.5H307.752ZM309.282 622.27C309.395 622.851 309.659 623.301 310.075 623.622C310.5 623.943 311.02 624.103 311.635 624.103C312.493 624.103 313.117 623.787 313.507 623.154L314.469 623.7C313.836 624.679 312.883 625.169 311.609 625.169C310.578 625.169 309.737 624.848 309.087 624.207C308.446 623.557 308.125 622.738 308.125 621.75C308.125 620.771 308.441 619.956 309.074 619.306C309.707 618.656 310.526 618.331 311.531 618.331C312.484 618.331 313.26 618.669 313.858 619.345C314.465 620.012 314.768 620.818 314.768 621.763C314.768 621.928 314.755 622.097 314.729 622.27H309.282ZM311.531 619.397C310.924 619.397 310.422 619.57 310.023 619.917C309.624 620.255 309.377 620.71 309.282 621.282H313.624C313.529 620.667 313.286 620.199 312.896 619.878C312.506 619.557 312.051 619.397 311.531 619.397ZM95.0061 638.331C95.9161 638.331 96.6917 638.665 97.3331 639.332C97.9744 639.991 98.2951 640.797 98.2951 641.75C98.2951 642.703 97.9744 643.514 97.3331 644.181C96.6917 644.84 95.9161 645.169 95.0061 645.169C93.9314 645.169 93.1124 644.74 92.5491 643.882V647.6H91.4181V638.5H92.5491V639.618C93.1124 638.76 93.9314 638.331 95.0061 638.331ZM94.8631 644.077C95.5131 644.077 96.0591 643.856 96.5011 643.414C96.9431 642.963 97.1641 642.409 97.1641 641.75C97.1641 641.091 96.9431 640.541 96.5011 640.099C96.0591 639.648 95.5131 639.423 94.8631 639.423C94.2044 639.423 93.6541 639.648 93.2121 640.099C92.7701 640.541 92.5491 641.091 92.5491 641.75C92.5491 642.409 92.7701 642.963 93.2121 643.414C93.6541 643.856 94.2044 644.077 94.8631 644.077ZM100.438 642.27C100.55 642.851 100.815 643.301 101.231 643.622C101.655 643.943 102.175 644.103 102.791 644.103C103.649 644.103 104.273 643.787 104.663 643.154L105.625 643.7C104.992 644.679 104.039 645.169 102.765 645.169C101.733 645.169 100.893 644.848 100.243 644.207C99.6013 643.557 99.2806 642.738 99.2806 641.75C99.2806 640.771 99.597 639.956 100.23 639.306C100.862 638.656 101.681 638.331 102.687 638.331C103.64 638.331 104.416 638.669 105.014 639.345C105.62 640.012 105.924 640.818 105.924 641.763C105.924 641.928 105.911 642.097 105.885 642.27H100.438ZM102.687 639.397C102.08 639.397 101.577 639.57 101.179 639.917C100.78 640.255 100.533 640.71 100.438 641.282H104.78C104.684 640.667 104.442 640.199 104.052 639.878C103.662 639.557 103.207 639.397 102.687 639.397ZM108.29 637.525V636.537H111.8V637.525H108.29ZM111.943 638.5H112.853V645H111.735V640.437L108.134 645H107.224V638.5H108.342V643.063L111.943 638.5ZM119.41 638.5V639.592H117.2V645H116.069V639.592H113.846V638.5H119.41ZM125.12 638.5H126.03V645H124.912V640.437L121.311 645H120.401V638.5H121.519V643.063L125.12 638.5ZM132.25 638.5H133.381V645H132.25V642.283H128.883V645H127.752V638.5H128.883V641.204H132.25V638.5ZM139.367 638.5V639.592H136.234V645H135.103V638.5H139.367ZM143.725 641.555V640.463H148.47V641.555H143.725ZM159.048 645H157.644L154.68 641.919V645H153.549V638.5H154.68V641.373L157.488 638.5H158.944L155.837 641.646L159.048 645ZM165.521 638.5V645H164.39V639.592H161.829V642.244C161.829 643.31 161.612 644.055 161.179 644.48C160.754 644.896 160.152 645.069 159.372 645V643.934C159.814 643.995 160.143 643.899 160.36 643.648C160.585 643.388 160.698 642.911 160.698 642.218V638.5H165.521ZM171.953 638.5H172.863V645H171.745V640.437L168.144 645H167.234V638.5H168.352V643.063L171.953 638.5ZM175.378 642.27C175.491 642.851 175.755 643.301 176.171 643.622C176.596 643.943 177.116 644.103 177.731 644.103C178.589 644.103 179.213 643.787 179.603 643.154L180.565 643.7C179.932 644.679 178.979 645.169 177.705 645.169C176.674 645.169 175.833 644.848 175.183 644.207C174.542 643.557 174.221 642.738 174.221 641.75C174.221 640.771 174.537 639.956 175.17 639.306C175.803 638.656 176.622 638.331 177.627 638.331C178.58 638.331 179.356 638.669 179.954 639.345C180.561 640.012 180.864 640.818 180.864 641.763C180.864 641.928 180.851 642.097 180.825 642.27H175.378ZM177.627 639.397C177.02 639.397 176.518 639.57 176.119 639.917C175.72 640.255 175.473 640.71 175.378 641.282H179.72C179.625 640.667 179.382 640.199 178.992 639.878C178.602 639.557 178.147 639.397 177.627 639.397ZM186.662 638.5H187.793V645H186.662V642.283H183.295V645H182.164V638.5H183.295V641.204H186.662V638.5ZM194.351 638.5V639.592H192.141V645H191.01V639.592H188.787V638.5H194.351ZM198.085 640.84C198.735 640.84 199.272 641.035 199.697 641.425C200.13 641.806 200.347 642.305 200.347 642.92C200.347 643.535 200.13 644.038 199.697 644.428C199.272 644.809 198.735 645 198.085 645H195.342V638.5H196.473V640.84H198.085ZM201.192 638.5H202.323V645H201.192V638.5ZM198.085 643.947C198.406 643.947 198.674 643.856 198.891 643.674C199.116 643.483 199.229 643.232 199.229 642.92C199.229 642.608 199.116 642.357 198.891 642.166C198.674 641.975 198.406 641.88 198.085 641.88H196.473V643.947H198.085ZM212.93 638.5V645H211.799V639.579H208.432V645H207.301V638.5H212.93ZM218.239 638.331C219.149 638.331 219.925 638.665 220.566 639.332C221.208 639.991 221.528 640.797 221.528 641.75C221.528 642.703 221.208 643.514 220.566 644.181C219.925 644.84 219.149 645.169 218.239 645.169C217.165 645.169 216.346 644.74 215.782 643.882V647.6H214.651V638.5H215.782V639.618C216.346 638.76 217.165 638.331 218.239 638.331ZM218.096 644.077C218.746 644.077 219.292 643.856 219.734 643.414C220.176 642.963 220.397 642.409 220.397 641.75C220.397 641.091 220.176 640.541 219.734 640.099C219.292 639.648 218.746 639.423 218.096 639.423C217.438 639.423 216.887 639.648 216.445 640.099C216.003 640.541 215.782 641.091 215.782 641.75C215.782 642.409 216.003 642.963 216.445 643.414C216.887 643.856 217.438 644.077 218.096 644.077ZM227.597 638.5H228.507V645H227.389V640.437L223.788 645H222.878V638.5H223.996V643.063L227.597 638.5ZM235.819 643.921H236.716V646.742H235.598V645H230.723V646.742H229.605V643.921H230.398C230.814 643.349 231.022 642.547 231.022 641.516V638.5H235.819V643.921ZM231.685 643.921H234.701V639.553H232.14V641.516C232.14 642.487 231.988 643.288 231.685 643.921ZM242.218 638.5H243.427L240.775 645.403C240.497 646.14 240.107 646.699 239.605 647.08C239.102 647.47 238.53 647.643 237.889 647.6V646.547C238.686 646.608 239.271 646.174 239.644 645.247L239.748 645.013L236.927 638.5H238.123L240.346 643.596L242.218 638.5ZM249.245 638.5V639.592H247.035V645H245.904V639.592H243.681V638.5H249.245ZM256.541 645.169C255.562 645.169 254.747 644.844 254.097 644.194C253.447 643.535 253.122 642.721 253.122 641.75C253.122 640.779 253.447 639.969 254.097 639.319C254.747 638.66 255.562 638.331 256.541 638.331C257.183 638.331 257.759 638.487 258.27 638.799C258.782 639.102 259.163 639.514 259.414 640.034L258.465 640.58C258.301 640.233 258.045 639.956 257.698 639.748C257.36 639.54 256.975 639.436 256.541 639.436C255.891 639.436 255.345 639.657 254.903 640.099C254.47 640.541 254.253 641.091 254.253 641.75C254.253 642.4 254.47 642.946 254.903 643.388C255.345 643.83 255.891 644.051 256.541 644.051C256.975 644.051 257.365 643.951 257.711 643.752C258.058 643.544 258.322 643.267 258.504 642.92L259.466 643.479C259.189 643.99 258.79 644.402 258.27 644.714C257.75 645.017 257.174 645.169 256.541 645.169ZM265.876 638.5H267.007V645H265.876V643.882C265.313 644.74 264.494 645.169 263.419 645.169C262.509 645.169 261.734 644.84 261.092 644.181C260.451 643.514 260.13 642.703 260.13 641.75C260.13 640.797 260.451 639.991 261.092 639.332C261.734 638.665 262.509 638.331 263.419 638.331C264.494 638.331 265.313 638.76 265.876 639.618V638.5ZM263.562 644.077C264.221 644.077 264.771 643.856 265.213 643.414C265.655 642.963 265.876 642.409 265.876 641.75C265.876 641.091 265.655 640.541 265.213 640.099C264.771 639.648 264.221 639.423 263.562 639.423C262.912 639.423 262.366 639.648 261.924 640.099C261.482 640.541 261.261 641.091 261.261 641.75C261.261 642.409 261.482 642.963 261.924 643.414C262.366 643.856 262.912 644.077 263.562 644.077ZM275.221 638.5V645H274.116V640.281L272.049 643.609H271.906L269.839 640.281V645H268.721V638.5H269.93L271.971 641.789L274.012 638.5H275.221ZM281.666 638.5H282.576V645H281.458V640.437L277.857 645H276.947V638.5H278.065V643.063L281.666 638.5Z" fill="#314E78"/>
<defs>
<linearGradient id="paint0_linear" x1="-63.3333" y1="-173.764" x2="572.979" y2="333.758" gradientUnits="userSpaceOnUse">
<stop stop-color="#FDCC6C"/>
<stop offset="1" stop-color="#FF6392"/>
</linearGradient>
<linearGradient id="paint1_linear" x1="-63.3333" y1="407.473" x2="-31.7166" y2="586.126" gradientUnits="userSpaceOnUse">
<stop stop-color="#FDCC6C"/>
<stop offset="1" stop-color="#FF6392"/>
</linearGradient>
<linearGradient id="paint2_linear" x1="251.06" y1="129.564" x2="173.564" y2="174.98" gradientUnits="userSpaceOnUse">
<stop stop-color="#58CAEA"/>
<stop offset="1" stop-color="#4C4CBF"/>
</linearGradient>
</defs>
</svg>
