<svg width="375" height="812" viewBox="0 0 375 812" fill="none" xmlns="http://www.w3.org/2000/svg">
<rect width="375" height="812" fill="#FFFBF7"/>
<g opacity="0.3">
<path d="M0 0V382.053C0 382.053 29.1281 450.788 104.017 442.811C178.906 434.835 194.437 391.876 284.858 471.049C284.858 471.049 316.756 504.185 375 502.967V0H0Z" fill="url(#paint0_linear)"/>
<path d="M359.186 503C312.382 503 284.647 478.546 284.351 478.265C228.894 428.888 194.898 438.305 147.857 451.356C135.381 454.817 122.467 458.399 107.741 461.403C35.7718 476.105 0.355114 433.341 0 432.899L0.875947 432C1.21922 432.429 36.2571 474.643 107.517 460.089C122.218 457.084 135.097 453.516 147.562 450.055C194.934 436.923 229.155 427.439 285.073 477.218C285.417 477.527 319.07 507.172 374.882 500.746L375 502.074C369.519 502.718 364.24 503 359.186 503Z" fill="url(#paint1_linear)"/>
</g>
<path d="M45.7712 297.061C45.7712 297.061 35.2218 288.739 33.4389 280.577C31.656 272.415 35.5185 266.759 41.1641 265.869C46.8096 264.979 50.2299 262.297 69.9879 268.99C89.7459 275.682 112.482 263.789 112.482 263.789C112.482 263.789 131.061 255.243 140.229 257.328C150.668 259.699 152.888 266.017 150.067 277.311C147.245 288.605 137.633 297.146 137.633 297.146L45.7712 297.061Z" fill="#FFFBF7"/>
<path d="M40.9967 296.176C40.9967 296.176 39.3484 296.176 39.0736 297.824C38.7989 299.473 39.3484 304.693 40.1725 306.341C40.9967 307.989 44.862 307.907 44.862 307.907L139.072 307.714C139.072 307.714 142.201 307.747 142.918 305.242C143.493 303.228 144.331 301.22 144.391 299.83C144.464 298.192 143.283 296.766 141.66 296.533C140.637 296.407 139.608 296.34 138.578 296.33C131.432 296.327 40.9967 296.176 40.9967 296.176Z" fill="#FFFBF7"/>
<path d="M37 322L43.1707 307H48L41.561 322H37Z" fill="#FFFBF7"/>
<path d="M133.853 307.989L139.622 322L143.743 321.725L138.248 307.989H133.853Z" fill="#FFFBF7"/>
<path opacity="0.5" d="M47.3728 296.325C47.3728 296.325 38.6889 289.624 38.2823 286.836C37.7521 283.223 41.0295 277.825 53.7271 280.215C66.4248 282.605 88.8146 289.072 100.949 285.761C113.084 282.451 128.358 268.611 129.457 267.88C130.556 267.149 143.539 260.754 146.49 270.498C149.44 280.242 137.578 296.22 137.578 296.22L47.3728 296.325Z" fill="#FFA6A6"/>
<path d="M192.261 279.732C186.022 279.732 181.975 286.525 180.731 289.922H203.876C202.604 286.525 198.501 279.732 192.261 279.732Z" fill="#7954EF"/>
<rect x="190.772" y="252.615" width="2.38256" height="27.1166" fill="#314E78"/>
<rect width="2.38485" height="14.5686" transform="matrix(0.966396 -0.25706 0.250045 0.968234 187.114 237.172)" fill="#314E78"/>
<ellipse cx="191.878" cy="251.492" rx="1.78692" ry="1.81353" fill="#314E78"/>
<path d="M197.324 233.53L179.54 239.143L176.306 284.74L228.553 269.628L197.324 233.53Z" fill="url(#paint2_linear)"/>
<path d="M191.112 225.671L180.136 228.78L178.179 240.093L200.132 233.443L191.112 225.671Z" fill="#7954EF"/>
<path d="M184.39 222.994C181.852 223.72 180.365 227.289 180.05 228.953L191.197 225.671C189.94 224.491 186.928 222.268 184.39 222.994Z" fill="#271113"/>
<ellipse cx="184.22" cy="222.476" rx="1.10619" ry="1.12266" fill="#271113"/>
<g opacity="0.6">
<path d="M135.038 360.131V329.992H130.358V348.3C128.854 352.244 125.32 360.425 123.21 361.599C120.572 363.068 117.339 366.522 115.977 368.94C114.888 370.874 113.425 376.367 112.829 378.871H115.977H116.403C117.594 371.358 120.572 368.076 122.274 366.522C123.635 365.278 124.373 364.564 124.571 364.363C125.593 363.471 128.656 361.34 130.358 364.881C131.818 367.919 132.91 375.273 132.825 378.871H136.569C137.046 374.519 135.236 367.098 134.272 363.931C140.058 364.277 140.484 366.09 142.951 368.94C144.614 370.861 146.44 376.223 146.78 378.871H150.014C150.156 377.662 149.639 373.811 146.44 368.076C143.241 362.342 137.505 360.39 135.038 360.131Z" fill="#314E78"/>
<ellipse cx="114.956" cy="378.785" rx="2.46765" ry="2.5044" fill="#314E78"/>
<ellipse cx="134.697" cy="378.785" rx="2.46765" ry="2.5044" fill="#314E78"/>
<ellipse cx="148.312" cy="378.785" rx="2.46765" ry="2.5044" fill="#314E78"/>
</g>
<rect x="105" y="317.557" width="49.5232" height="12.4356" rx="6.21782" fill="#FFFBF7"/>
<path d="M110.593 302.789C111.655 298.48 115.387 293.923 117.06 292.167C125.569 292.513 142.826 293.445 143.779 294.413C144.97 295.622 150.076 306.848 150.161 308.662C150.246 310.475 150.192 313.371 148.034 317.557C145.673 322.134 129.166 321.875 122.421 321.616C115.869 321.364 111.318 318.623 110.593 317.557C109.595 316.089 108.829 315.225 109.147 310.734C109.465 306.244 109.147 308.662 110.593 302.789Z" fill="#DABBF2"/>
<path d="M117.382 310.057C116.412 311.646 116.343 316.303 116.43 318.433C116.776 320.246 118.507 320.16 120.584 320.419C122.661 320.678 134.084 319.037 134.084 319.21V320.85C134.084 321.973 135.815 329.399 136.075 331.039C136.334 332.68 143.777 346.754 144.383 347.618C144.989 348.481 148.97 355.993 149.316 356.511C149.662 357.029 149.143 358.152 149.316 358.67C149.489 359.188 150.268 360.656 150.787 361.778C151.306 362.901 152.085 366.182 152.172 366.614C152.258 367.045 153.21 369.377 153.556 369.722C153.902 370.067 158.316 372.226 161.432 370.327C164.547 368.427 160.047 363.505 159.528 362.296C159.008 361.088 156.066 357.116 155.46 355.993C154.854 354.871 154.335 352.28 154.162 350.64C153.989 348.999 151.825 340.192 151.739 339.069C151.652 337.947 148.45 325.168 147.844 323.009C147.239 320.85 142.479 310.402 141.96 308.417C141.44 306.431 139.969 302.977 139.883 301.768C139.796 300.559 135.815 297.364 133.392 297.192C130.969 297.019 129.151 298.314 125.517 299.696C121.882 301.077 118.593 308.071 117.382 310.057Z" fill="#FFD1BD"/>
<path d="M123.381 314.531C123.381 317.019 123.041 320.116 122.871 321.354C122.871 322.016 122.683 323.927 121.935 326.276C120.999 329.212 120.743 336.985 120.658 339.316C120.573 341.648 121.339 352.788 121.509 355.379C121.679 357.97 121.594 367.297 121.509 369.283C121.424 371.269 120.573 374.464 120.403 375.069C120.233 375.673 118.871 381.718 118.786 382.841C118.701 383.964 122.19 389.318 123.041 389.404C123.892 389.491 128.061 384.568 128.402 383.618C128.742 382.668 128.487 380.078 128.402 378.178C128.316 376.278 128.061 370.492 128.061 368.851C128.061 367.21 129.508 360.388 129.763 359.438C130.018 358.488 131.38 351.148 131.635 349.939C131.89 348.73 132.741 342.512 133.507 340.439C134.273 338.366 133.847 334.049 133.762 331.112C133.677 328.176 133.337 323.513 133.592 321.095C133.847 318.677 133.762 315.05 133.762 314.013C133.762 312.977 132.826 310.473 130.018 308.918C127.21 307.364 123.381 311.423 123.381 314.531Z" fill="#FFD1BD"/>
<path d="M151.807 365.081C151.805 365.072 151.802 365.063 151.8 365.054C151.802 365.063 151.805 365.072 151.807 365.081C152.072 366.086 152.96 368.979 155.119 369.458C157.842 370.063 158.778 369.631 158.948 368.94C159.118 368.249 160.054 364.708 159.629 363.672C159.288 362.843 158.636 361.139 158.352 360.391C159.402 361.743 161.841 364.743 162.181 365.917C162.607 367.386 162.947 374.812 161.926 375.331C160.905 375.849 155.799 373.172 154.778 372.394C153.757 371.617 153.076 370.84 152.821 370.149C152.619 369.601 152.12 366.285 151.807 365.081Z" fill="#FFA6A6"/>
<path d="M119.71 378.929C119.714 378.919 119.717 378.91 119.721 378.9C119.717 378.91 119.714 378.919 119.71 378.929C119.324 379.97 118.328 383.054 119.97 384.905C122.04 387.239 123.149 387.49 123.73 387.008C124.311 386.526 127.348 384.099 127.608 382.923C127.817 381.982 128.288 380.079 128.497 379.245C128.6 381.11 128.931 385.318 128.508 386.557C127.98 388.105 123.68 394.73 122.442 394.497C121.203 394.263 118.278 388.557 117.843 387.208C117.408 385.858 117.279 384.735 117.478 383.97C117.636 383.362 119.244 380.174 119.71 378.929Z" fill="#FFA6A6"/>
<path d="M116.568 213.416C118.882 205.056 124.907 203.254 127.63 203.398C128.849 203.398 132.31 203.588 136.394 204.348C141.5 205.298 143.116 212.38 143.627 216.87C144.137 221.361 143.542 230.429 143.116 231.206C142.691 231.983 141.84 240.101 141.414 244.419C140.989 248.737 140.223 248.823 140.223 250.291V291.657L113.504 292.348C111.944 291.628 108.944 290.068 109.42 289.584C110.016 288.98 110.611 287.166 110.611 284.489C110.611 281.812 107.038 270.758 106.016 263.677C104.997 256.608 108.98 246.184 110.602 241.938L110.611 241.914C112.228 237.683 113.675 223.865 116.568 213.416Z" fill="#8D5959"/>
<path d="M146.525 257.537C148.499 255.534 149.219 252.73 149.333 251.579L161.245 271.182C163.288 271.7 176.987 274.377 178.093 274.464C179.2 274.55 185.581 276.364 185.837 276.277C186.092 276.191 189.751 273.859 190.176 273.773C190.602 273.686 192.644 273.514 193.665 273.6C194.686 273.686 197.835 274.723 198.345 274.895C198.856 275.068 200.983 275.5 201.408 275.5C201.834 275.5 203.28 275.845 203.28 276.277C203.28 276.709 201.919 277.486 201.408 277.486C200.898 277.486 200.047 277.659 199.877 277.832C199.707 278.004 193.41 280.25 190.006 280.25H185.837C184.39 280.25 184.05 280.25 179.285 280.768C174.52 281.286 172.903 280.682 171.116 280.768C169.329 280.854 158.693 280.854 156.991 280.25C155.629 279.766 146.61 266.691 142.27 260.215C142.866 260.157 144.55 259.541 146.525 257.537Z" fill="#FFD1BD"/>
<path d="M108.999 249.803C109.612 246.556 114.502 246.397 116.402 246.743L116.411 246.772C116.774 247.97 118.632 254.101 120.742 256.242C122.529 258.056 129.591 261.299 132.91 264.705C135.236 262.258 139.666 257.299 140.823 256.539C141.981 255.779 142.185 249.42 142.355 246.311C143.546 246.282 145.452 246.194 145.929 246.263C146.525 246.349 151.375 251.53 152.311 254.553C153.247 257.576 145.844 262.584 145.333 262.757C144.823 262.93 145.078 264.052 145.163 267.852C145.248 271.652 142.44 273.725 141.589 274.329C140.738 274.934 140.228 275.452 139.972 276.056C139.768 276.54 139.547 288.003 139.462 293.673L122.273 292.983L116.998 292.292L117.679 263.275C112.233 264.657 108.886 262.7 107.893 261.548C108.007 258.986 108.387 253.05 108.999 249.803Z" fill="#DABBF2"/>
<path d="M113.509 290.008C111.893 288.022 108.063 262.374 107.978 261.596C109.255 263.064 115.183 263.554 118.104 263.237C118.53 269.685 119.517 282.599 120.061 282.668C120.742 282.754 126.954 284.136 131.974 285.431C136.994 286.727 146.865 293.117 147.12 293.722C147.376 294.326 150.354 301.494 151.035 304.085C151.579 306.157 150.808 309.784 150.354 311.339L148.312 305.553C145.419 301.926 144.397 297.694 144.057 297.09C143.717 296.485 115.126 291.995 113.509 290.008Z" fill="#FFD1BD"/>
<path d="M119.111 221.038C119.656 220.83 120.246 221.527 120.473 221.901C120.132 223.076 120.614 226.248 120.898 227.687C120.756 228.004 120.319 228.534 119.707 228.119C118.941 227.601 117.92 223.283 118.005 222.419C118.09 221.556 118.43 221.297 119.111 221.038Z" fill="#FFD1BD"/>
<path d="M123.72 245.793C124.673 245.24 124.117 238.251 123.72 234.825L134 238C133.858 239.698 134.169 244.394 134.782 245.361C135.395 246.328 140.086 246.397 142.355 246.311C142.355 248.067 142.321 251.959 142.185 253.479C142.015 255.378 141.845 255.465 141.589 256.242C141.385 256.864 135.718 262.201 132.91 264.792C131.208 263.381 126.852 260.094 123.04 258.228C119.227 256.363 117.026 249.794 116.402 246.743C118.445 246.656 122.767 246.345 123.72 245.793Z" fill="#FFD1BD"/>
<path d="M140.59 221.27C140.581 221.239 140.573 221.209 140.568 221.18C140.576 221.208 140.583 221.238 140.59 221.27C140.758 221.798 141.589 222.66 141.589 224.03C141.589 225.481 141.845 227.312 140.568 228.089C140.789 226.215 140.838 222.373 140.59 221.27Z" fill="#FFD1BD"/>
<path d="M121.867 214.981C123.078 211.457 127.698 210.209 129.857 210.025C130.361 209.968 131.118 210.025 134.566 210.025C136.876 210.025 138.94 212.7 140.201 214.981C141.463 217.262 140.874 225.758 140.79 228.747C140.706 231.736 138.603 234.332 138.015 235.354C137.426 236.377 133.053 240.153 130.361 239.995C127.67 239.838 121.867 233.23 121.279 232.208C120.792 231.362 119.864 222.734 120.017 221.667C120.101 221.082 120.353 219.386 121.867 214.981Z" fill="url(#paint3_linear)"/>
<g opacity="0.6">
<ellipse cx="254.506" cy="375.33" rx="2.46765" ry="2.5044" fill="#314E78"/>
<ellipse cx="274.588" cy="375.33" rx="2.46765" ry="2.5044" fill="#314E78"/>
<ellipse cx="288.032" cy="375.33" rx="2.46765" ry="2.5044" fill="#314E78"/>
<path d="M270.333 354.061C260.19 353.75 254.421 367.586 252.804 374.543H256.293C258.42 364.059 264.036 357.459 273.907 357.75C281.803 357.983 285.309 369.042 286.075 374.543H289.904C288.457 363.768 283.011 354.449 270.333 354.061Z" fill="#314E78"/>
<path d="M272.8 375.417C273.209 367.185 270.503 359.756 269.142 357.459C270.361 357.167 273.005 357.42 273.481 357.653C275.251 359.594 276.091 370.304 276.289 375.417H272.8Z" fill="#314E78"/>
<rect x="268.546" y="337.074" width="5.61603" height="18.8318" fill="#314E78"/>
</g>
<path d="M291.895 293.933C290.959 300.237 284.832 321.654 282.79 323.468C286.648 326.864 294.703 333.347 296.064 332.104C297.766 330.549 311.636 265.262 311.976 259.908C312.317 254.553 308.879 254.083 307.041 253.344C305.027 252.535 298.362 252.913 296.064 254.899C293.767 256.885 292.831 287.629 291.895 293.933Z" fill="#FFFBF7"/>
<path d="M242.712 334.953C241.623 333.364 243.166 327.613 244.074 324.936C252.214 324.245 269.942 322.777 275.728 322.431C282.961 322 288.236 324.936 289.938 324.936C291.64 324.936 296.405 332.104 294.363 334.953C292.321 337.803 261.688 338.062 256.412 338.062C251.136 338.062 244.074 336.94 242.712 334.953Z" fill="#FFFBF7"/>
<path d="M240.917 325.909C238.223 327.435 232.595 330.538 231.642 330.745L229.43 333.94C230.168 334.401 231.864 335.616 232.749 336.79C233.855 338.258 243.64 348.103 244.321 349.571C245.002 351.039 247.98 359.675 248.405 361.834C248.831 363.993 247.469 369.002 247.214 369.52C246.959 370.038 249.171 368.138 255.043 366.238C260.914 364.338 255.043 355.53 256.234 350.262C257.425 344.994 256.149 347.499 255.043 346.549C253.936 345.599 251.639 346.203 250.448 344.821C249.495 343.716 243.697 331.752 240.917 325.909Z" fill="#FFD1BD"/>
<path d="M222.027 365.116C222.98 362.905 219.701 337.481 217.942 325.045C220.013 323.75 224.307 321.28 224.92 321.764C225.686 322.368 230.536 326.513 231.983 331.868C233.429 337.222 230.536 359.33 230.536 361.143C230.536 362.957 231.302 366.325 231.983 367.447C232.663 368.57 232.748 372.024 231.983 374.27C231.217 376.515 217.942 379.797 214.879 379.969C211.816 380.142 209.263 377.379 209.944 376.86C210.625 376.342 212.667 376.17 217.347 372.024C222.027 367.879 220.836 367.879 222.027 365.116Z" fill="#FFD1BD"/>
<path d="M224.128 374.035C219.023 378.871 214.229 377.029 212.471 375.503C211.819 375.503 210.344 375.572 209.663 375.849C208.982 376.125 207.224 376.655 206.429 376.885V381.635C209.152 382.326 215.432 383.345 218.768 381.894C221.455 380.725 227.268 379.777 231.34 379.256C232.786 379.072 233.565 377.783 233.914 376.367C233.999 376.021 233.744 370.581 233.659 369.89C233.591 369.337 232.382 367.99 231.957 367.299C231.531 367.472 231.974 367.282 231.361 367.558C230.607 367.898 230.513 367.987 224.41 373.768L224.128 374.035Z" fill="#FFA6A6"/>
<path d="M253.974 356.632C254.388 363.707 249.932 366.279 247.652 366.68C247.236 367.19 246.348 368.387 246.124 369.095C245.899 369.804 245.179 371.516 244.847 372.284L244.847 372.849C244.847 374.734 246.732 376.022 248.452 375.313C250.713 373.626 255.881 369.364 256.908 365.831C257.736 362.98 260.481 357.819 262.587 354.306C263.331 353.064 262.836 351.645 261.986 350.471C261.778 350.184 257.486 346.913 256.908 346.539C256.445 346.24 254.706 346.077 253.91 345.969C253.77 346.411 253.854 346.192 253.673 346.847C253.45 347.654 253.457 347.784 253.952 356.242L253.974 356.632Z" fill="#FFA6A6"/>
<path d="M264.717 300.544C264.717 299.421 264.121 299.249 262.164 296.831C269.198 295.708 283.335 293.756 283.607 294.931C283.879 296.105 284.855 298.299 285.309 299.249C278.445 300.055 264.717 301.442 264.717 300.544Z" fill="#FFD1BD"/>
<path d="M238.931 262.287C239.611 260.905 246.816 255.839 250.333 253.479C251.286 254.308 251.127 256.818 250.928 257.969L234.591 272.218C231.187 272.046 224.176 271.683 223.359 271.614C222.338 271.527 216.807 271.268 216.041 271.441C215.275 271.614 213.744 271.7 212.722 272.305C211.701 272.909 210.255 272.823 209.319 272.909C208.383 272.996 207.957 273.514 207.532 273.773C207.106 274.032 206 274.55 205.745 274.291C205.49 274.032 206.341 273.168 206.766 272.477C207.192 271.787 208.808 271.268 208.638 271.096C208.468 270.923 206.511 270.837 205.745 271.182C205.132 271.458 204.809 273.255 204.724 274.118C203.873 273.773 203.533 272.132 203.277 270.664C203.022 269.196 203.447 268.85 203.447 268.591C203.447 268.332 206 266.605 206.766 266.173C207.532 265.741 210.255 266.519 213.403 266.691C216.552 266.864 224.125 265.828 227.699 264.187C230.558 262.874 236.378 262.373 238.931 262.287Z" fill="#FFD1BD"/>
<path d="M246.251 277.202C245.094 274.646 250.137 259.268 252.804 251.899C253.74 250.949 256.599 249.153 260.547 249.567C264.495 249.982 267.808 254.576 268.971 256.821C275.574 262.763 281.763 284.571 284.032 294.733C279.522 302.591 261.228 298.273 261.228 297.928C261.228 297.583 256.037 285.751 253.74 284.37C251.442 282.988 247.698 280.397 246.251 277.202Z" fill="#DABBF2"/>
<path d="M255.051 254.649C251.732 253.44 245.01 260.781 244.67 260.953C239.139 267.085 227.787 279.434 226.63 279.78C225.184 280.211 213.259 280.678 210.599 281.075C207.45 281.545 205.238 281.631 203.621 282.063C202.182 282.448 199.231 281.766 197.869 281.075C196.508 280.384 194.381 279.607 193.445 278.83C192.509 278.052 189.615 276.93 189.445 277.534C189.275 278.139 191.232 280.298 192.679 281.075C194.125 281.852 192.253 281.852 191.232 282.716C190.211 283.579 185.786 282.716 184.68 282.716C183.574 282.716 185.02 284.011 187.658 284.788C190.296 285.566 189.701 286.688 191.232 287.552C192.764 288.415 194.466 287.552 199.741 286.688C205.017 285.825 202.199 285.839 208.812 286.688C215.534 287.552 226.545 287.638 228.077 287.552C229.608 287.466 230.119 289.365 233.012 286.688C235.905 284.011 245.35 277.793 251.902 273.821C258.454 269.848 261.603 267.603 261.688 262.681C261.773 257.758 258.369 255.858 255.051 254.649Z" fill="#FFD1BD"/>
<path d="M256.888 240.957C261.483 244.67 270.792 255.862 272.971 262.978C270.304 258.113 263.73 248.85 258.76 250.715C253.944 252.523 250.79 255.883 249.826 257.241C249.799 257.286 249.771 257.327 249.741 257.365C249.767 257.326 249.795 257.285 249.826 257.241C250.249 256.532 250.221 254.961 249.741 253.824C248.999 252.067 249.145 250.427 248.464 249.679L256.888 240.957Z" fill="#FFD1BD"/>
<path d="M227.957 237.842C226.119 235.838 224.525 228.371 223.958 224.888C225.83 220.599 229.88 211.9 231.106 211.416C232.637 210.812 244.04 213.748 246.252 215.561C248.464 217.375 252.123 231.365 252.889 234.906C253.502 237.738 258.25 242.476 260.547 244.491C256.86 247.255 249.383 252.419 248.975 250.968C248.464 249.155 245.401 245.441 244.976 245.182C244.55 244.923 241.317 249.155 239.615 250.018C237.913 250.882 234.424 247.169 232.212 244.491C229.999 241.814 230.255 240.346 227.957 237.842Z" fill="url(#paint4_linear)"/>
<path d="M222.437 220.219C221.416 223.328 222.863 225.89 223.714 226.782C226.947 227.646 227.202 224.623 228.053 224.623C228.904 224.623 229.245 224.45 229.925 224.623C230.606 224.796 231.797 226.782 233.669 227.991C235.541 229.2 236.477 226.782 237.839 226.782C239.2 226.782 239.541 227.991 240.817 228.596C242.093 229.2 242.093 228.078 243.029 227.991C243.965 227.905 244.816 230.496 245.497 232.223C246.178 233.95 247.029 235.85 248.05 236.541C248.867 237.093 251.113 236.771 252.134 236.541C253.127 235.763 255.232 234.088 255.708 233.604C256.304 233 256.559 227.646 256.474 225.919C256.389 224.191 252.815 216.678 252.134 215.728C251.59 214.968 245.837 211.266 243.029 209.51C242.122 209.165 239.677 208.37 237.158 207.956C234.01 207.438 231.712 209.769 231.117 210.115C230.521 210.46 228.309 213.224 227.202 213.569C226.096 213.915 223.714 216.333 222.437 220.219Z" fill="#FFE7D1"/>
<path d="M248.636 197.153C239.515 195.702 239.503 204.954 240.638 209.761L249.317 217.447C249.771 215.806 251.53 212.818 254.933 213.993C259.188 215.461 258.677 221.247 260.124 226.515C261.57 231.782 268.888 228.933 266.25 227.724C263.613 226.515 264.549 221.247 265.314 213.993C266.08 206.738 260.039 198.966 248.636 197.153Z" fill="#FFE7D1"/>
<path d="M245.565 214.028C243.389 213.891 241.032 210.67 240.125 209.076V207.881C243.019 208.934 249.059 211.193 250.063 211.808C251.067 212.423 251.458 214.397 251.528 215.308C250.447 214.938 247.741 214.164 245.565 214.028Z" fill="#635AC9"/>
<path d="M284.713 297.694C277.14 300.803 265.806 301.114 264.717 300.63C252.407 301.292 226.895 303.014 223.559 302.876C219.39 302.703 216.071 305.294 214.54 306.416C213.008 307.539 210.2 313.757 209.86 315.57C209.519 317.384 212.498 325.933 213.348 327.488C214.199 329.042 220.241 329.042 224.751 329.647C229.261 330.251 229.771 335.087 234.451 335.951C239.131 336.815 241.088 328.006 242.62 327.488C244.151 326.97 271.466 326.97 279.89 325.933C288.314 324.897 285.676 322.047 288.059 315.57C289.965 310.389 286.301 301.58 284.713 297.694Z" fill="#FFAEAE"/>
<rect x="147.035" y="289.922" width="102.11" height="9.49944" rx="4.74972" fill="#FFFBF7"/>
<rect opacity="0.6" x="171.201" y="299.421" width="37.4402" height="95.5126" fill="#FFFBF7"/>
<rect x="170.01" y="284.395" width="20.5921" height="2.76348" fill="#666E83"/>
<rect x="170.862" y="287.158" width="18.8903" height="2.76348" fill="#666E83"/>
<rect x="175.115" y="278.35" width="4.59493" height="6.0451" fill="#AE7DDE"/>
<path d="M176.307 274.447C176.307 273.836 176.802 273.341 177.413 273.341C178.024 273.341 178.519 273.836 178.519 274.447V278.35H176.307V274.447Z" fill="#605D5D"/>
<path d="M182.263 278.35H184.475L185.667 284.395H181.072L182.263 278.35Z" fill="#FFA6A6"/>
<path d="M182.263 274.447C182.263 273.836 182.759 273.341 183.369 273.341C183.98 273.341 184.476 273.836 184.476 274.447V278.35H182.263V274.447Z" fill="#605D5D"/>
<path d="M85.8155 181.036L204.742 180.845L204.501 160.951L79.0749 161.921L79 181.036H85.8155Z" fill="#FFA6A6"/>
<path d="M145.304 164.521V178.219L201.26 178.028V164.713L145.304 164.521Z" fill="#FFFBF7"/>
<path d="M85.4908 164.521V178.219L141.446 178.028V164.713L85.4908 164.521Z" fill="#FFFBF7"/>
<path d="M85.4949 167.821H88.4117L88.4408 178.252L85.4908 178.219L85.4949 167.821Z" fill="#FFFBF7"/>
<path d="M88.4657 169.648H90.4297L90.5004 178.207L88.4408 178.252L88.4657 169.648Z" fill="#FFFBF7"/>
<path d="M137.818 167.742H139.533L139.549 178.169L137.818 178.14V167.742Z" fill="#FFFBF7"/>
<path d="M139.574 169.569H141.538L141.609 178.128L139.549 178.169L139.574 169.569Z" fill="#FFFBF7"/>
<path d="M90.5882 168.308H92.5521L92.6229 178.232L90.5632 178.282L90.5882 168.308Z" fill="#FFFBF7"/>
<path d="M92.5102 170.692L93.5171 169.885L98.6142 177.329L97.5157 178.219L92.5102 170.692Z" fill="#FFFBF7"/>
<path d="M116.302 178.169H128.569L128.506 176.792L116.302 176.859V178.169Z" fill="#FFFBF7"/>
<path d="M118.366 176.821H130.637L130.57 175.444L118.366 175.51V176.821Z" fill="#FFA6A6"/>
<path d="M147.268 167.322H148.99L149.007 178.298L147.264 178.265L147.268 167.322Z" fill="#FFFBF7"/>
<path d="M149.028 169.66H150.988L151.058 178.215L148.999 178.261L149.028 169.66Z" fill="#FFFBF7"/>
<path d="M197.54 167.688H199.254L199.271 178.115L197.54 178.086V167.688Z" fill="#FFFBF7"/>
<path d="M199.246 169.365L201.289 169.386L201.368 178.032L199.279 178.061L199.246 169.365Z" fill="#FFFBF7"/>
<path d="M195.58 170.234H197.544L197.623 178.111L195.53 178.136L195.58 170.234Z" fill="#FFFBF7"/>
<path d="M145.287 168.333H147.251L147.322 178.257L145.262 178.307L145.287 168.333Z" fill="#FFFBF7"/>
<path d="M165.638 170.721L166.645 169.914L171.742 177.358L170.644 178.248L165.638 170.721Z" fill="#FFFBF7"/>
<path d="M157.325 178.198H169.595L169.528 176.821L157.325 176.888V178.198Z" fill="#FFFBF7"/>
<path d="M156.651 176.9H168.917L168.85 175.523L156.651 175.589V176.9Z" fill="#FFA6A6"/>
<path d="M204.63 159.94L204.509 144H316.017L316.291 182.089L204.725 183L204.63 161.359" fill="#FFA6A6"/>
<path d="M125.211 150.674C125.211 150.674 124.138 150.316 124.05 150.05C123.963 149.784 123.605 148.261 124.316 148.261H130.4C130.4 148.261 131.382 149.871 130.133 150.229C128.885 150.587 129.954 151.211 130.312 151.211C130.67 151.211 131.473 151.211 131.652 151.656C131.831 152.101 131.819 161.484 131.819 161.484H122.798V152.376C122.793 152.114 122.895 151.862 123.08 151.676C123.265 151.491 123.518 151.389 123.78 151.394C124.766 151.39 125.481 151.123 125.211 150.674Z" fill="#FFA6A6"/>
<rect x="124.129" y="154.282" width="6.32871" height="3.92372" fill="#FFFBF7"/>
<path d="M135.522 150.674C135.522 150.674 134.448 150.316 134.361 150.05C134.273 149.784 133.915 148.261 134.627 148.261H140.71C140.71 148.261 141.692 149.871 140.444 150.229C139.196 150.587 140.265 151.211 140.623 151.211C140.981 151.211 141.784 151.211 141.963 151.656C142.142 152.101 142.129 161.484 142.129 161.484H133.108V152.376C133.104 152.114 133.206 151.862 133.391 151.676C133.576 151.491 133.828 151.389 134.09 151.394C135.105 151.39 135.805 151.123 135.522 150.674Z" fill="#FFFBF7"/>
<rect x="134.452" y="154.282" width="6.32871" height="3.92372" fill="#FFFBF7"/>
<path d="M146.198 150.562C146.198 150.562 145.125 150.204 145.038 149.938C144.95 149.671 144.592 148.148 145.304 148.148H151.387C151.387 148.148 152.369 149.759 151.121 150.117C149.873 150.474 150.942 151.099 151.3 151.099C151.658 151.099 152.461 151.099 152.64 151.544C152.818 151.989 152.806 161.372 152.806 161.372H143.785V152.264C143.781 152.002 143.883 151.749 144.068 151.564C144.253 151.379 144.505 151.277 144.767 151.282C145.749 151.277 146.465 151.011 146.198 150.562Z" fill="#FFA6A6"/>
<rect x="145.116" y="154.165" width="6.32871" height="3.92372" fill="#FFFBF7"/>
<rect x="208.466" y="147.874" width="51.5201" height="31.4646" fill="#FFFBF7"/>
<circle cx="265.504" cy="164.422" r="2.24688" fill="#FFFBF7"/>
<path d="M242.873 168.541C242.873 168.541 241.799 168.183 241.712 167.917C241.624 167.651 241.266 166.128 241.978 166.128H248.061C248.061 166.128 249.043 167.738 247.795 168.096C246.547 168.454 247.616 169.078 247.974 169.078C248.332 169.078 249.135 169.078 249.314 169.523C249.493 169.968 249.48 179.351 249.48 179.351H240.459V170.239C240.455 169.977 240.557 169.724 240.742 169.539C240.927 169.354 241.179 169.252 241.441 169.257C242.415 169.257 243.131 168.986 242.873 168.541Z" fill="#FFFBF7"/>
<rect x="241.778" y="172.144" width="6.32871" height="3.92372" fill="#FFFBF7"/>
<rect x="75" y="181" width="243" height="2" fill="#D9E0FF"/>
<path d="M127.036 535.38C129.235 535.38 131.06 536.071 132.51 537.454C133.961 538.837 134.686 540.582 134.686 542.69C134.686 544.798 133.961 546.543 132.51 547.926C131.06 549.309 129.235 550 127.036 550H118.026V526.2H132.646V529.94H121.936V535.38H127.036ZM127.036 546.328C128.102 546.328 128.986 545.999 129.688 545.342C130.414 544.662 130.776 543.778 130.776 542.69C130.776 541.602 130.414 540.729 129.688 540.072C128.986 539.392 128.102 539.052 127.036 539.052H121.936V546.328H127.036ZM145.701 550.442C143.208 550.442 141.088 549.581 139.343 547.858C137.598 546.135 136.725 544.016 136.725 541.5C136.725 538.984 137.598 536.865 139.343 535.142C141.088 533.419 143.208 532.558 145.701 532.558C148.217 532.558 150.336 533.419 152.059 535.142C153.804 536.865 154.677 538.984 154.677 541.5C154.677 544.016 153.804 546.135 152.059 547.858C150.336 549.581 148.217 550.442 145.701 550.442ZM141.927 545.342C142.947 546.362 144.205 546.872 145.701 546.872C147.197 546.872 148.455 546.362 149.475 545.342C150.495 544.322 151.005 543.041 151.005 541.5C151.005 539.959 150.495 538.678 149.475 537.658C148.455 536.638 147.197 536.128 145.701 536.128C144.205 536.128 142.947 536.638 141.927 537.658C140.907 538.678 140.397 539.959 140.397 541.5C140.397 543.041 140.907 544.322 141.927 545.342ZM171.847 533V550H168.175V536.536H162.497V542.86C162.497 545.557 161.908 547.473 160.729 548.606C159.551 549.739 157.873 550.204 155.697 550V546.566C156.74 546.747 157.522 546.532 158.043 545.92C158.565 545.308 158.825 544.231 158.825 542.69V533H171.847ZM183.538 538.78C185.352 538.78 186.836 539.301 187.992 540.344C189.148 541.364 189.726 542.713 189.726 544.39C189.726 546.045 189.148 547.393 187.992 548.436C186.836 549.479 185.352 550 183.538 550H176.126V533H179.798V538.78H183.538ZM183.572 546.702C184.298 546.702 184.898 546.487 185.374 546.056C185.873 545.625 186.122 545.07 186.122 544.39C186.122 543.687 185.873 543.132 185.374 542.724C184.898 542.293 184.298 542.078 183.572 542.078H179.798V546.702H183.572ZM212.856 533H216.528V550H192.728V533H196.4V546.532H202.792V533H206.464V546.532H212.856V533ZM228.809 550.442C226.315 550.442 224.196 549.581 222.451 547.858C220.705 546.135 219.833 544.016 219.833 541.5C219.833 538.984 220.705 536.865 222.451 535.142C224.196 533.419 226.315 532.558 228.809 532.558C231.325 532.558 233.444 533.419 235.167 535.142C236.912 536.865 237.785 538.984 237.785 541.5C237.785 544.016 236.912 546.135 235.167 547.858C233.444 549.581 231.325 550.442 228.809 550.442ZM225.035 545.342C226.055 546.362 227.313 546.872 228.809 546.872C230.305 546.872 231.563 546.362 232.583 545.342C233.603 544.322 234.113 543.041 234.113 541.5C234.113 539.959 233.603 538.678 232.583 537.658C231.563 536.638 230.305 536.128 228.809 536.128C227.313 536.128 226.055 536.638 225.035 537.658C224.015 538.678 223.505 539.959 223.505 541.5C223.505 543.041 224.015 544.322 225.035 545.342ZM243.893 530.62V527.424H253.413V530.62H243.893ZM253.413 533H256.235V550H252.631V539.188L243.927 550H241.105V533H244.709V543.778L253.413 533ZM68.3425 581.262C70.0199 582.033 70.8585 583.336 70.8585 585.172C70.8585 586.6 70.3712 587.767 69.3965 588.674C68.4445 589.558 67.0732 590 65.2825 590H56.5785V573H64.6025C66.3479 573 67.6965 573.442 68.6485 574.326C69.6232 575.187 70.1105 576.309 70.1105 577.692C70.1105 579.301 69.5212 580.491 68.3425 581.262ZM64.3305 576.128H60.0805V579.902H64.3305C65.8265 579.902 66.5745 579.267 66.5745 577.998C66.5745 576.751 65.8265 576.128 64.3305 576.128ZM64.9425 586.804C66.4839 586.804 67.2545 586.135 67.2545 584.798C67.2545 584.209 67.0505 583.755 66.6425 583.438C66.2345 583.098 65.6679 582.928 64.9425 582.928H60.0805V586.804H64.9425ZM81.2561 578.78C83.0695 578.78 84.5541 579.301 85.7101 580.344C86.8661 581.364 87.4441 582.713 87.4441 584.39C87.4441 586.045 86.8661 587.393 85.7101 588.436C84.5541 589.479 83.0695 590 81.2561 590H73.8441V573H77.5161V578.78H81.2561ZM89.4841 573H93.1561V590H89.4841V573ZM81.2901 586.702C82.0155 586.702 82.6161 586.487 83.0921 586.056C83.5908 585.625 83.8401 585.07 83.8401 584.39C83.8401 583.687 83.5908 583.132 83.0921 582.724C82.6161 582.293 82.0155 582.078 81.2901 582.078H77.5161V586.702H81.2901ZM105.306 590.442C102.7 590.442 100.569 589.603 98.9144 587.926C97.2824 586.226 96.4664 584.061 96.4664 581.432C96.4664 578.553 96.897 576.332 97.7584 574.768C98.6197 573.181 100.365 571.742 102.994 570.45C103.425 570.246 104.06 569.951 104.898 569.566C105.76 569.181 106.349 568.909 106.666 568.75C106.984 568.569 107.38 568.319 107.856 568.002C108.332 567.662 108.684 567.311 108.91 566.948C109.137 566.563 109.318 566.109 109.454 565.588L112.446 567.322C112.356 567.821 112.208 568.285 112.004 568.716C111.8 569.124 111.506 569.509 111.12 569.872C110.735 570.235 110.395 570.529 110.1 570.756C109.828 570.983 109.364 571.255 108.706 571.572C108.049 571.889 107.562 572.116 107.244 572.252C106.95 572.388 106.383 572.626 105.544 572.966C104.048 573.555 102.949 574.167 102.246 574.802C101.566 575.414 101.09 576.185 100.818 577.114C102.178 575.573 104.026 574.802 106.36 574.802C108.355 574.802 110.089 575.516 111.562 576.944C113.058 578.372 113.806 580.219 113.806 582.486C113.806 584.798 113.013 586.702 111.426 588.198C109.862 589.694 107.822 590.442 105.306 590.442ZM105.272 587.008C106.7 587.008 107.868 586.589 108.774 585.75C109.681 584.889 110.134 583.801 110.134 582.486C110.134 581.149 109.681 580.049 108.774 579.188C107.89 578.327 106.734 577.896 105.306 577.896C104.037 577.896 102.892 578.304 101.872 579.12C100.852 579.913 100.342 580.979 100.342 582.316C100.342 583.676 100.818 584.798 101.77 585.682C102.722 586.566 103.89 587.008 105.272 587.008ZM124.733 590.442C122.24 590.442 120.121 589.581 118.375 587.858C116.63 586.135 115.757 584.016 115.757 581.5C115.757 578.984 116.63 576.865 118.375 575.142C120.121 573.419 122.24 572.558 124.733 572.558C127.249 572.558 129.369 573.419 131.091 575.142C132.837 576.865 133.709 578.984 133.709 581.5C133.709 584.016 132.837 586.135 131.091 587.858C129.369 589.581 127.249 590.442 124.733 590.442ZM120.959 585.342C121.979 586.362 123.237 586.872 124.733 586.872C126.229 586.872 127.487 586.362 128.507 585.342C129.527 584.322 130.037 583.041 130.037 581.5C130.037 579.959 129.527 578.678 128.507 577.658C127.487 576.638 126.229 576.128 124.733 576.128C123.237 576.128 121.979 576.638 120.959 577.658C119.939 578.678 119.429 579.959 119.429 581.5C119.429 583.041 119.939 584.322 120.959 585.342ZM146.652 572.558C148.986 572.558 150.981 573.431 152.636 575.176C154.29 576.899 155.118 579.007 155.118 581.5C155.118 584.016 154.29 586.135 152.636 587.858C150.981 589.581 148.986 590.442 146.652 590.442C144.068 590.442 142.084 589.49 140.702 587.586V596.8H137.03V573H140.702V575.448C142.084 573.521 144.068 572.558 146.652 572.558ZM142.232 585.41C143.252 586.43 144.532 586.94 146.074 586.94C147.615 586.94 148.896 586.43 149.916 585.41C150.936 584.367 151.446 583.064 151.446 581.5C151.446 579.936 150.936 578.644 149.916 577.624C148.896 576.581 147.615 576.06 146.074 576.06C144.532 576.06 143.252 576.581 142.232 577.624C141.212 578.644 140.702 579.936 140.702 581.5C140.702 583.064 141.212 584.367 142.232 585.41ZM184.286 573V590H180.716V578.814L175.82 586.6H175.378L170.516 578.848V590H166.946V573H170.686L175.616 580.854L180.546 573H184.286ZM201.992 573H205.664V590H201.992V587.552C200.609 589.479 198.626 590.442 196.042 590.442C193.707 590.442 191.712 589.581 190.058 587.858C188.403 586.113 187.576 583.993 187.576 581.5C187.576 578.984 188.403 576.865 190.058 575.142C191.712 573.419 193.707 572.558 196.042 572.558C198.626 572.558 200.609 573.51 201.992 575.414V573ZM192.778 585.41C193.798 586.43 195.078 586.94 196.62 586.94C198.161 586.94 199.442 586.43 200.462 585.41C201.482 584.367 201.992 583.064 201.992 581.5C201.992 579.936 201.482 578.644 200.462 577.624C199.442 576.581 198.161 576.06 196.62 576.06C195.078 576.06 193.798 576.581 192.778 577.624C191.758 578.644 191.248 579.936 191.248 581.5C191.248 583.064 191.758 584.367 192.778 585.41ZM217.968 590.442C215.406 590.442 213.264 589.581 211.542 587.858C209.842 586.135 208.992 584.016 208.992 581.5C208.992 578.961 209.842 576.842 211.542 575.142C213.264 573.419 215.406 572.558 217.968 572.558C219.622 572.558 221.13 572.955 222.49 573.748C223.85 574.541 224.87 575.607 225.55 576.944L222.388 578.78C222.002 577.964 221.413 577.329 220.62 576.876C219.849 576.4 218.954 576.162 217.934 576.162C216.438 576.162 215.18 576.672 214.16 577.692C213.162 578.712 212.664 579.981 212.664 581.5C212.664 583.019 213.162 584.288 214.16 585.308C215.18 586.328 216.438 586.838 217.934 586.838C218.931 586.838 219.826 586.6 220.62 586.124C221.436 585.648 222.048 585.013 222.456 584.22L225.618 586.022C224.892 587.382 223.85 588.459 222.49 589.252C221.13 590.045 219.622 590.442 217.968 590.442ZM241.094 573V576.536H235.552V590H231.88V576.536H226.304V573H241.094ZM245.804 583.064C246.076 584.356 246.7 585.353 247.674 586.056C248.649 586.736 249.839 587.076 251.244 587.076C253.194 587.076 254.656 586.373 255.63 584.968L258.656 586.736C256.979 589.207 254.497 590.442 251.21 590.442C248.445 590.442 246.212 589.603 244.512 587.926C242.812 586.226 241.962 584.084 241.962 581.5C241.962 578.961 242.801 576.842 244.478 575.142C246.156 573.419 248.309 572.558 250.938 572.558C253.432 572.558 255.472 573.431 257.058 575.176C258.668 576.921 259.472 579.041 259.472 581.534C259.472 581.919 259.427 582.429 259.336 583.064H245.804ZM245.77 580.072H255.766C255.517 578.689 254.939 577.647 254.032 576.944C253.148 576.241 252.106 575.89 250.904 575.89C249.544 575.89 248.411 576.264 247.504 577.012C246.598 577.76 246.02 578.78 245.77 580.072ZM272.326 572.558C274.66 572.558 276.655 573.431 278.31 575.176C279.964 576.899 280.792 579.007 280.792 581.5C280.792 584.016 279.964 586.135 278.31 587.858C276.655 589.581 274.66 590.442 272.326 590.442C269.742 590.442 267.758 589.49 266.376 587.586V596.8H262.704V573H266.376V575.448C267.758 573.521 269.742 572.558 272.326 572.558ZM267.906 585.41C268.926 586.43 270.206 586.94 271.748 586.94C273.289 586.94 274.57 586.43 275.59 585.41C276.61 584.367 277.12 583.064 277.12 581.5C277.12 579.936 276.61 578.644 275.59 577.624C274.57 576.581 273.289 576.06 271.748 576.06C270.206 576.06 268.926 576.581 267.906 577.624C266.886 578.644 266.376 579.936 266.376 581.5C266.376 583.064 266.886 584.367 267.906 585.41ZM292.144 590.442C289.65 590.442 287.531 589.581 285.786 587.858C284.04 586.135 283.168 584.016 283.168 581.5C283.168 578.984 284.04 576.865 285.786 575.142C287.531 573.419 289.65 572.558 292.144 572.558C294.66 572.558 296.779 573.419 298.502 575.142C300.247 576.865 301.12 578.984 301.12 581.5C301.12 584.016 300.247 586.135 298.502 587.858C296.779 589.581 294.66 590.442 292.144 590.442ZM288.37 585.342C289.39 586.362 290.648 586.872 292.144 586.872C293.64 586.872 294.898 586.362 295.918 585.342C296.938 584.322 297.448 583.041 297.448 581.5C297.448 579.959 296.938 578.678 295.918 577.658C294.898 576.638 293.64 576.128 292.144 576.128C290.648 576.128 289.39 576.638 288.37 577.658C287.35 578.678 286.84 579.959 286.84 581.5C286.84 583.041 287.35 584.322 288.37 585.342ZM316.204 581.262C317.881 582.033 318.72 583.336 318.72 585.172C318.72 586.6 318.233 587.767 317.258 588.674C316.306 589.558 314.935 590 313.144 590H304.44V573H312.464C314.209 573 315.558 573.442 316.51 574.326C317.485 575.187 317.972 576.309 317.972 577.692C317.972 579.301 317.383 580.491 316.204 581.262ZM312.192 576.128H307.942V579.902H312.192C313.688 579.902 314.436 579.267 314.436 577.998C314.436 576.751 313.688 576.128 312.192 576.128ZM312.804 586.804C314.345 586.804 315.116 586.135 315.116 584.798C315.116 584.209 314.912 583.755 314.504 583.438C314.096 583.098 313.529 582.928 312.804 582.928H307.942V586.804H312.804Z" fill="#314E78"/>
<path opacity="0.7" d="M73.1128 625.169C71.7348 625.169 70.5952 624.714 69.6938 623.804C68.8012 622.894 68.3548 621.776 68.3548 620.45C68.3548 619.124 68.8012 618.006 69.6938 617.096C70.5952 616.186 71.7348 615.731 73.1128 615.731C73.9448 615.731 74.7075 615.93 75.4008 616.329C76.1028 616.728 76.6488 617.265 77.0388 617.941L75.9858 618.552C75.7258 618.049 75.3358 617.651 74.8158 617.356C74.3045 617.053 73.7368 616.901 73.1128 616.901C72.0642 616.901 71.2062 617.239 70.5388 617.915C69.8802 618.591 69.5508 619.436 69.5508 620.45C69.5508 621.455 69.8802 622.296 70.5388 622.972C71.2062 623.648 72.0642 623.986 73.1128 623.986C73.7368 623.986 74.3045 623.839 74.8158 623.544C75.3358 623.241 75.7258 622.842 75.9858 622.348L77.0388 622.946C76.6575 623.622 76.1158 624.164 75.4138 624.571C74.7118 624.97 73.9448 625.169 73.1128 625.169ZM84.8292 618.5V625H83.7242V620.281L81.6572 623.609H81.5142L79.4472 620.281V625H78.3292V618.5H79.5382L81.5792 621.789L83.6202 618.5H84.8292ZM92.0418 624.181C91.3744 624.84 90.5641 625.169 89.6108 625.169C88.6574 625.169 87.8471 624.84 87.1798 624.181C86.5211 623.522 86.1918 622.712 86.1918 621.75C86.1918 620.788 86.5211 619.978 87.1798 619.319C87.8471 618.66 88.6574 618.331 89.6108 618.331C90.5641 618.331 91.3744 618.66 92.0418 619.319C92.7091 619.978 93.0428 620.788 93.0428 621.75C93.0428 622.712 92.7091 623.522 92.0418 624.181ZM89.6108 624.064C90.2608 624.064 90.8068 623.843 91.2488 623.401C91.6908 622.959 91.9118 622.409 91.9118 621.75C91.9118 621.091 91.6908 620.541 91.2488 620.099C90.8068 619.657 90.2608 619.436 89.6108 619.436C88.9694 619.436 88.4278 619.657 87.9858 620.099C87.5438 620.541 87.3228 621.091 87.3228 621.75C87.3228 622.409 87.5438 622.959 87.9858 623.401C88.4278 623.843 88.9694 624.064 89.6108 624.064ZM98.9582 618.5V619.592H96.7482V625H95.6172V619.592H93.3942V618.5H98.9582ZM103.537 618.331C104.447 618.331 105.223 618.665 105.864 619.332C106.506 619.991 106.826 620.797 106.826 621.75C106.826 622.703 106.506 623.514 105.864 624.181C105.223 624.84 104.447 625.169 103.537 625.169C102.463 625.169 101.644 624.74 101.08 623.882V627.6H99.9493V618.5H101.08V619.618C101.644 618.76 102.463 618.331 103.537 618.331ZM103.394 624.077C104.044 624.077 104.59 623.856 105.032 623.414C105.474 622.963 105.695 622.409 105.695 621.75C105.695 621.091 105.474 620.541 105.032 620.099C104.59 619.648 104.044 619.423 103.394 619.423C102.736 619.423 102.185 619.648 101.743 620.099C101.301 620.541 101.08 621.091 101.08 621.75C101.08 622.409 101.301 622.963 101.743 623.414C102.185 623.856 102.736 624.077 103.394 624.077ZM112.895 618.5H113.805V625H112.687V620.437L109.086 625H108.176V618.5H109.294V623.063L112.895 618.5ZM124.405 618.5V625H123.274V619.579H119.907V625H118.776V618.5H124.405ZM131.613 624.181C130.946 624.84 130.135 625.169 129.182 625.169C128.229 625.169 127.418 624.84 126.751 624.181C126.092 623.522 125.763 622.712 125.763 621.75C125.763 620.788 126.092 619.978 126.751 619.319C127.418 618.66 128.229 618.331 129.182 618.331C130.135 618.331 130.946 618.66 131.613 619.319C132.28 619.978 132.614 620.788 132.614 621.75C132.614 622.712 132.28 623.522 131.613 624.181ZM129.182 624.064C129.832 624.064 130.378 623.843 130.82 623.401C131.262 622.959 131.483 622.409 131.483 621.75C131.483 621.091 131.262 620.541 130.82 620.099C130.378 619.657 129.832 619.436 129.182 619.436C128.541 619.436 127.999 619.657 127.557 620.099C127.115 620.541 126.894 621.091 126.894 621.75C126.894 622.409 127.115 622.959 127.557 623.401C127.999 623.843 128.541 624.064 129.182 624.064ZM137.535 618.331C138.445 618.331 139.221 618.665 139.862 619.332C140.504 619.991 140.824 620.797 140.824 621.75C140.824 622.703 140.504 623.514 139.862 624.181C139.221 624.84 138.445 625.169 137.535 625.169C136.461 625.169 135.642 624.74 135.078 623.882V627.6H133.947V618.5H135.078V619.618C135.642 618.76 136.461 618.331 137.535 618.331ZM137.392 624.077C138.042 624.077 138.588 623.856 139.03 623.414C139.472 622.963 139.693 622.409 139.693 621.75C139.693 621.091 139.472 620.541 139.03 620.099C138.588 619.648 138.042 619.423 137.392 619.423C136.734 619.423 136.183 619.648 135.741 620.099C135.299 620.541 135.078 621.091 135.078 621.75C135.078 622.409 135.299 622.963 135.741 623.414C136.183 623.856 136.734 624.077 137.392 624.077ZM146.756 618.5V619.592H144.546V625H143.415V619.592H141.192V618.5H146.756ZM154.019 619.475C154.626 620.099 154.929 620.857 154.929 621.75C154.929 622.643 154.626 623.401 154.019 624.025C153.413 624.649 152.602 625.017 151.588 625.13V627.6H150.47V625.13C149.456 625.017 148.646 624.649 148.039 624.025C147.433 623.401 147.129 622.643 147.129 621.75C147.129 620.857 147.433 620.099 148.039 619.475C148.646 618.851 149.456 618.483 150.47 618.37V615.9H151.588V618.37C152.602 618.483 153.413 618.851 154.019 619.475ZM148.247 621.75C148.247 622.348 148.442 622.855 148.832 623.271C149.231 623.687 149.777 623.943 150.47 624.038V619.462C149.777 619.549 149.231 619.8 148.832 620.216C148.442 620.632 148.247 621.143 148.247 621.75ZM151.588 624.038C152.282 623.943 152.823 623.687 153.213 623.271C153.603 622.855 153.798 622.348 153.798 621.75C153.798 621.152 153.603 620.645 153.213 620.229C152.823 619.813 152.282 619.557 151.588 619.462V624.038ZM161.752 624.181C161.084 624.84 160.274 625.169 159.321 625.169C158.367 625.169 157.557 624.84 156.89 624.181C156.231 623.522 155.902 622.712 155.902 621.75C155.902 620.788 156.231 619.978 156.89 619.319C157.557 618.66 158.367 618.331 159.321 618.331C160.274 618.331 161.084 618.66 161.752 619.319C162.419 619.978 162.753 620.788 162.753 621.75C162.753 622.712 162.419 623.522 161.752 624.181ZM159.321 624.064C159.971 624.064 160.517 623.843 160.959 623.401C161.401 622.959 161.622 622.409 161.622 621.75C161.622 621.091 161.401 620.541 160.959 620.099C160.517 619.657 159.971 619.436 159.321 619.436C158.679 619.436 158.138 619.657 157.696 620.099C157.254 620.541 157.033 621.091 157.033 621.75C157.033 622.409 157.254 622.959 157.696 623.401C158.138 623.843 158.679 624.064 159.321 624.064ZM169.279 618.5V625H168.148V619.592H165.587V622.244C165.587 623.31 165.37 624.055 164.937 624.48C164.512 624.896 163.91 625.069 163.13 625V623.934C163.572 623.995 163.901 623.899 164.118 623.648C164.343 623.388 164.456 622.911 164.456 622.218V618.5H169.279ZM175.711 618.5H176.621V625H175.503V620.437L171.902 625H170.992V618.5H172.11V623.063L175.711 618.5ZM183.829 624.181C183.162 624.84 182.351 625.169 181.398 625.169C180.445 625.169 179.634 624.84 178.967 624.181C178.308 623.522 177.979 622.712 177.979 621.75C177.979 620.788 178.308 619.978 178.967 619.319C179.634 618.66 180.445 618.331 181.398 618.331C182.351 618.331 183.162 618.66 183.829 619.319C184.496 619.978 184.83 620.788 184.83 621.75C184.83 622.712 184.496 623.522 183.829 624.181ZM181.398 624.064C182.048 624.064 182.594 623.843 183.036 623.401C183.478 622.959 183.699 622.409 183.699 621.75C183.699 621.091 183.478 620.541 183.036 620.099C182.594 619.657 182.048 619.436 181.398 619.436C180.757 619.436 180.215 619.657 179.773 620.099C179.331 620.541 179.11 621.091 179.11 621.75C179.11 622.409 179.331 622.959 179.773 623.401C180.215 623.843 180.757 624.064 181.398 624.064ZM187.333 623.661L186.488 626.82H185.513L186.033 623.661H187.333ZM195.769 618.331C196.679 618.331 197.454 618.665 198.096 619.332C198.737 619.991 199.058 620.797 199.058 621.75C199.058 622.703 198.737 623.514 198.096 624.181C197.454 624.84 196.679 625.169 195.769 625.169C194.694 625.169 193.875 624.74 193.312 623.882V627.6H192.181V618.5H193.312V619.618C193.875 618.76 194.694 618.331 195.769 618.331ZM195.626 624.077C196.276 624.077 196.822 623.856 197.264 623.414C197.706 622.963 197.927 622.409 197.927 621.75C197.927 621.091 197.706 620.541 197.264 620.099C196.822 619.648 196.276 619.423 195.626 619.423C194.967 619.423 194.417 619.648 193.975 620.099C193.533 620.541 193.312 621.091 193.312 621.75C193.312 622.409 193.533 622.963 193.975 623.414C194.417 623.856 194.967 624.077 195.626 624.077ZM201.2 622.27C201.313 622.851 201.577 623.301 201.993 623.622C202.418 623.943 202.938 624.103 203.553 624.103C204.411 624.103 205.035 623.787 205.425 623.154L206.387 623.7C205.755 624.679 204.801 625.169 203.527 625.169C202.496 625.169 201.655 624.848 201.005 624.207C200.364 623.557 200.043 622.738 200.043 621.75C200.043 620.771 200.36 619.956 200.992 619.306C201.625 618.656 202.444 618.331 203.449 618.331C204.403 618.331 205.178 618.669 205.776 619.345C206.383 620.012 206.686 620.818 206.686 621.763C206.686 621.928 206.673 622.097 206.647 622.27H201.2ZM203.449 619.397C202.843 619.397 202.34 619.57 201.941 619.917C201.543 620.255 201.296 620.71 201.2 621.282H205.542C205.447 620.667 205.204 620.199 204.814 619.878C204.424 619.557 203.969 619.397 203.449 619.397ZM209.052 617.525V616.537H212.562V617.525H209.052ZM212.705 618.5H213.615V625H212.497V620.437L208.896 625H207.986V618.5H209.104V623.063L212.705 618.5ZM220.173 618.5V619.592H217.963V625H216.832V619.592H214.609V618.5H220.173ZM225.883 618.5H226.793V625H225.675V620.437L222.074 625H221.164V618.5H222.282V623.063L225.883 618.5ZM233.013 618.5H234.144V625H233.013V622.283H229.646V625H228.515V618.5H229.646V621.204H233.013V618.5ZM240.129 618.5V619.592H236.996V625H235.865V618.5H240.129ZM249.09 618.5H250V625H248.882V620.437L245.281 625H244.371V618.5H245.489V623.063L249.09 618.5ZM260.354 618.5H261.485V625H260.354V623.882C259.79 624.74 258.971 625.169 257.897 625.169C256.987 625.169 256.211 624.84 255.57 624.181C254.928 623.514 254.608 622.703 254.608 621.75C254.608 620.797 254.928 619.991 255.57 619.332C256.211 618.665 256.987 618.331 257.897 618.331C258.971 618.331 259.79 618.76 260.354 619.618V618.5ZM258.04 624.077C258.698 624.077 259.249 623.856 259.691 623.414C260.133 622.963 260.354 622.409 260.354 621.75C260.354 621.091 260.133 620.541 259.691 620.099C259.249 619.648 258.698 619.423 258.04 619.423C257.39 619.423 256.844 619.648 256.402 620.099C255.96 620.541 255.739 621.091 255.739 621.75C255.739 622.409 255.96 622.963 256.402 623.414C256.844 623.856 257.39 624.077 258.04 624.077ZM268.788 623.921H269.685V626.742H268.567V625H263.692V626.742H262.574V623.921H263.367C263.783 623.349 263.991 622.547 263.991 621.516V618.5H268.788V623.921ZM264.654 623.921H267.67V619.553H265.109V621.516C265.109 622.487 264.958 623.288 264.654 623.921ZM274.492 618.331C275.402 618.331 276.178 618.665 276.819 619.332C277.461 619.991 277.781 620.797 277.781 621.75C277.781 622.703 277.461 623.514 276.819 624.181C276.178 624.84 275.402 625.169 274.492 625.169C273.418 625.169 272.599 624.74 272.035 623.882V627.6H270.904V618.5H272.035V619.618C272.599 618.76 273.418 618.331 274.492 618.331ZM274.349 624.077C274.999 624.077 275.545 623.856 275.987 623.414C276.429 622.963 276.65 622.409 276.65 621.75C276.65 621.091 276.429 620.541 275.987 620.099C275.545 619.648 274.999 619.423 274.349 619.423C273.691 619.423 273.14 619.648 272.698 620.099C272.256 620.541 272.035 621.091 272.035 621.75C272.035 622.409 272.256 622.963 272.698 623.414C273.14 623.856 273.691 624.077 274.349 624.077ZM279.924 622.27C280.037 622.851 280.301 623.301 280.717 623.622C281.142 623.943 281.662 624.103 282.277 624.103C283.135 624.103 283.759 623.787 284.149 623.154L285.111 623.7C284.478 624.679 283.525 625.169 282.251 625.169C281.22 625.169 280.379 624.848 279.729 624.207C279.088 623.557 278.767 622.738 278.767 621.75C278.767 620.771 279.083 619.956 279.716 619.306C280.349 618.656 281.168 618.331 282.173 618.331C283.126 618.331 283.902 618.669 284.5 619.345C285.107 620.012 285.41 620.818 285.41 621.763C285.41 621.928 285.397 622.097 285.371 622.27H279.924ZM282.173 619.397C281.566 619.397 281.064 619.57 280.665 619.917C280.266 620.255 280.019 620.71 279.924 621.282H284.266C284.171 620.667 283.928 620.199 283.538 619.878C283.148 619.557 282.693 619.397 282.173 619.397ZM289.752 625.169C288.773 625.169 287.958 624.844 287.308 624.194C286.658 623.535 286.333 622.721 286.333 621.75C286.333 620.779 286.658 619.969 287.308 619.319C287.958 618.66 288.773 618.331 289.752 618.331C290.394 618.331 290.97 618.487 291.481 618.799C291.993 619.102 292.374 619.514 292.625 620.034L291.676 620.58C291.512 620.233 291.256 619.956 290.909 619.748C290.571 619.54 290.186 619.436 289.752 619.436C289.102 619.436 288.556 619.657 288.114 620.099C287.681 620.541 287.464 621.091 287.464 621.75C287.464 622.4 287.681 622.946 288.114 623.388C288.556 623.83 289.102 624.051 289.752 624.051C290.186 624.051 290.576 623.951 290.922 623.752C291.269 623.544 291.533 623.267 291.715 622.92L292.677 623.479C292.4 623.99 292.001 624.402 291.481 624.714C290.961 625.017 290.385 625.169 289.752 625.169ZM297.174 621.555V620.463H301.919V621.555H297.174ZM123.404 641.659C124.071 641.936 124.405 642.439 124.405 643.167C124.405 643.704 124.223 644.146 123.859 644.493C123.503 644.831 122.992 645 122.325 645H119.075V638.5H122.065C122.715 638.5 123.217 638.665 123.573 638.994C123.928 639.315 124.106 639.739 124.106 640.268C124.106 640.892 123.872 641.356 123.404 641.659ZM122.013 639.514H120.18V641.217H122.013C122.671 641.217 123.001 640.927 123.001 640.346C123.001 639.791 122.671 639.514 122.013 639.514ZM122.26 643.973C122.589 643.973 122.84 643.895 123.014 643.739C123.196 643.583 123.287 643.362 123.287 643.076C123.287 642.807 123.196 642.599 123.014 642.452C122.84 642.296 122.589 642.218 122.26 642.218H120.18V643.973H122.26ZM128.369 640.84C129.019 640.84 129.556 641.035 129.981 641.425C130.414 641.806 130.631 642.305 130.631 642.92C130.631 643.535 130.414 644.038 129.981 644.428C129.556 644.809 129.019 645 128.369 645H125.626V638.5H126.757V640.84H128.369ZM131.476 638.5H132.607V645H131.476V638.5ZM128.369 643.947C128.689 643.947 128.958 643.856 129.175 643.674C129.4 643.483 129.513 643.232 129.513 642.92C129.513 642.608 129.4 642.357 129.175 642.166C128.958 641.975 128.689 641.88 128.369 641.88H126.757V643.947H128.369ZM137.286 645.169C136.324 645.169 135.531 644.853 134.907 644.22C134.283 643.587 133.971 642.773 133.971 641.776C133.971 640.667 134.131 639.813 134.452 639.215C134.781 638.617 135.448 638.075 136.454 637.59C136.636 637.503 136.883 637.391 137.195 637.252C137.515 637.113 137.749 637.009 137.897 636.94C138.044 636.862 138.209 636.762 138.391 636.641C138.573 636.511 138.707 636.372 138.794 636.225C138.889 636.069 138.958 635.891 139.002 635.692L139.912 636.212C139.886 636.351 139.851 636.481 139.808 636.602C139.764 636.715 139.699 636.827 139.613 636.94C139.535 637.044 139.465 637.135 139.405 637.213C139.344 637.291 139.24 637.378 139.093 637.473C138.954 637.56 138.85 637.625 138.781 637.668C138.72 637.711 138.594 637.776 138.404 637.863C138.222 637.95 138.096 638.01 138.027 638.045C137.966 638.071 137.823 638.132 137.598 638.227C137.372 638.314 137.234 638.37 137.182 638.396C136.592 638.647 136.159 638.903 135.882 639.163C135.613 639.423 135.418 639.752 135.297 640.151C135.574 639.804 135.921 639.549 136.337 639.384C136.753 639.219 137.169 639.137 137.585 639.137C138.399 639.137 139.088 639.414 139.652 639.969C140.224 640.524 140.51 641.239 140.51 642.114C140.51 642.998 140.206 643.73 139.6 644.311C138.993 644.883 138.222 645.169 137.286 645.169ZM135.765 643.505C136.172 643.886 136.679 644.077 137.286 644.077C137.892 644.077 138.391 643.891 138.781 643.518C139.179 643.145 139.379 642.677 139.379 642.114C139.379 641.533 139.188 641.061 138.807 640.697C138.434 640.324 137.94 640.138 137.325 640.138C136.77 640.138 136.267 640.316 135.817 640.671C135.375 641.018 135.154 641.477 135.154 642.049C135.154 642.638 135.357 643.124 135.765 643.505ZM146.43 638.5H147.34V645H146.222V640.437L142.621 645H141.711V638.5H142.829V643.063L146.43 638.5ZM152.649 638.331C153.559 638.331 154.335 638.665 154.976 639.332C155.617 639.991 155.938 640.797 155.938 641.75C155.938 642.703 155.617 643.514 154.976 644.181C154.335 644.84 153.559 645.169 152.649 645.169C151.574 645.169 150.755 644.74 150.192 643.882V647.6H149.061V638.5H150.192V639.618C150.755 638.76 151.574 638.331 152.649 638.331ZM152.506 644.077C153.156 644.077 153.702 643.856 154.144 643.414C154.586 642.963 154.807 642.409 154.807 641.75C154.807 641.091 154.586 640.541 154.144 640.099C153.702 639.648 153.156 639.423 152.506 639.423C151.847 639.423 151.297 639.648 150.855 640.099C150.413 640.541 150.192 641.091 150.192 641.75C150.192 642.409 150.413 642.963 150.855 643.414C151.297 643.856 151.847 644.077 152.506 644.077ZM162.67 638.5H163.801V645H162.67V643.882C162.106 644.74 161.287 645.169 160.213 645.169C159.303 645.169 158.527 644.84 157.886 644.181C157.244 643.514 156.924 642.703 156.924 641.75C156.924 640.797 157.244 639.991 157.886 639.332C158.527 638.665 159.303 638.331 160.213 638.331C161.287 638.331 162.106 638.76 162.67 639.618V638.5ZM160.356 644.077C161.014 644.077 161.565 643.856 162.007 643.414C162.449 642.963 162.67 642.409 162.67 641.75C162.67 641.091 162.449 640.541 162.007 640.099C161.565 639.648 161.014 639.423 160.356 639.423C159.706 639.423 159.16 639.648 158.718 640.099C158.276 640.541 158.055 641.091 158.055 641.75C158.055 642.409 158.276 642.963 158.718 643.414C159.16 643.856 159.706 644.077 160.356 644.077ZM166.58 637.525V636.537H170.09V637.525H166.58ZM170.233 638.5H171.143V645H170.025V640.437L166.424 645H165.514V638.5H166.632V643.063L170.233 638.5ZM180.613 638.5H181.744V645H180.613V642.283H177.246V645H176.115V638.5H177.246V641.204H180.613V638.5ZM188.847 638.5H189.978V645H188.847V643.882C188.284 644.74 187.465 645.169 186.39 645.169C185.48 645.169 184.705 644.84 184.063 644.181C183.422 643.514 183.101 642.703 183.101 641.75C183.101 640.797 183.422 639.991 184.063 639.332C184.705 638.665 185.48 638.331 186.39 638.331C187.465 638.331 188.284 638.76 188.847 639.618V638.5ZM186.533 644.077C187.192 644.077 187.742 643.856 188.184 643.414C188.626 642.963 188.847 642.409 188.847 641.75C188.847 641.091 188.626 640.541 188.184 640.099C187.742 639.648 187.192 639.423 186.533 639.423C185.883 639.423 185.337 639.648 184.895 640.099C184.453 640.541 184.232 641.091 184.232 641.75C184.232 642.409 184.453 642.963 184.895 643.414C185.337 643.856 185.883 644.077 186.533 644.077ZM197.997 645.169C197.018 645.169 196.203 644.844 195.553 644.194C194.903 643.535 194.578 642.721 194.578 641.75C194.578 640.779 194.903 639.969 195.553 639.319C196.203 638.66 197.018 638.331 197.997 638.331C198.638 638.331 199.215 638.487 199.726 638.799C200.237 639.102 200.619 639.514 200.87 640.034L199.921 640.58C199.756 640.233 199.501 639.956 199.154 639.748C198.816 639.54 198.43 639.436 197.997 639.436C197.347 639.436 196.801 639.657 196.359 640.099C195.926 640.541 195.709 641.091 195.709 641.75C195.709 642.4 195.926 642.946 196.359 643.388C196.801 643.83 197.347 644.051 197.997 644.051C198.43 644.051 198.82 643.951 199.167 643.752C199.514 643.544 199.778 643.267 199.96 642.92L200.922 643.479C200.645 643.99 200.246 644.402 199.726 644.714C199.206 645.017 198.63 645.169 197.997 645.169ZM206.38 641.659C207.048 641.936 207.381 642.439 207.381 643.167C207.381 643.704 207.199 644.146 206.835 644.493C206.48 644.831 205.969 645 205.301 645H202.051V638.5H205.041C205.691 638.5 206.194 638.665 206.549 638.994C206.905 639.315 207.082 639.739 207.082 640.268C207.082 640.892 206.848 641.356 206.38 641.659ZM204.989 639.514H203.156V641.217H204.989C205.648 641.217 205.977 640.927 205.977 640.346C205.977 639.791 205.648 639.514 204.989 639.514ZM205.236 643.973C205.566 643.973 205.817 643.895 205.99 643.739C206.172 643.583 206.263 643.362 206.263 643.076C206.263 642.807 206.172 642.599 205.99 642.452C205.817 642.296 205.566 642.218 205.236 642.218H203.156V643.973H205.236ZM214.088 644.181C213.421 644.84 212.61 645.169 211.657 645.169C210.704 645.169 209.893 644.84 209.226 644.181C208.567 643.522 208.238 642.712 208.238 641.75C208.238 640.788 208.567 639.978 209.226 639.319C209.893 638.66 210.704 638.331 211.657 638.331C212.61 638.331 213.421 638.66 214.088 639.319C214.755 639.978 215.089 640.788 215.089 641.75C215.089 642.712 214.755 643.522 214.088 644.181ZM211.657 644.064C212.307 644.064 212.853 643.843 213.295 643.401C213.737 642.959 213.958 642.409 213.958 641.75C213.958 641.091 213.737 640.541 213.295 640.099C212.853 639.657 212.307 639.436 211.657 639.436C211.016 639.436 210.474 639.657 210.032 640.099C209.59 640.541 209.369 641.091 209.369 641.75C209.369 642.409 209.59 642.959 210.032 643.401C210.474 643.843 211.016 644.064 211.657 644.064ZM217.488 637.525V636.537H220.998V637.525H217.488ZM221.141 638.5H222.051V645H220.933V640.437L217.332 645H216.422V638.5H217.54V643.063L221.141 638.5ZM231.352 641.659C232.019 641.936 232.353 642.439 232.353 643.167C232.353 643.704 232.171 644.146 231.807 644.493C231.452 644.831 230.94 645 230.273 645H227.023V638.5H230.013C230.663 638.5 231.166 638.665 231.521 638.994C231.876 639.315 232.054 639.739 232.054 640.268C232.054 640.892 231.82 641.356 231.352 641.659ZM229.961 639.514H228.128V641.217H229.961C230.62 641.217 230.949 640.927 230.949 640.346C230.949 639.791 230.62 639.514 229.961 639.514ZM230.208 643.973C230.537 643.973 230.789 643.895 230.962 643.739C231.144 643.583 231.235 643.362 231.235 643.076C231.235 642.807 231.144 642.599 230.962 642.452C230.789 642.296 230.537 642.218 230.208 642.218H228.128V643.973H230.208ZM239.073 645H237.669L234.705 641.919V645H233.574V638.5H234.705V641.373L237.513 638.5H238.969L235.862 641.646L239.073 645ZM244.471 638.5H245.68L243.028 645.403C242.751 646.14 242.361 646.699 241.858 647.08C241.356 647.47 240.784 647.643 240.142 647.6V646.547C240.94 646.608 241.525 646.174 241.897 645.247L242.001 645.013L239.18 638.5H240.376L242.599 643.596L244.471 638.5ZM249.426 645.169C248.446 645.169 247.632 644.844 246.982 644.194C246.332 643.535 246.007 642.721 246.007 641.75C246.007 640.779 246.332 639.969 246.982 639.319C247.632 638.66 248.446 638.331 249.426 638.331C250.067 638.331 250.643 638.487 251.155 638.799C251.666 639.102 252.047 639.514 252.299 640.034L251.35 640.58C251.185 640.233 250.929 639.956 250.583 639.748C250.245 639.54 249.859 639.436 249.426 639.436C248.776 639.436 248.23 639.657 247.788 640.099C247.354 640.541 247.138 641.091 247.138 641.75C247.138 642.4 247.354 642.946 247.788 643.388C248.23 643.83 248.776 644.051 249.426 644.051C249.859 644.051 250.249 643.951 250.596 643.752C250.942 643.544 251.207 643.267 251.389 642.92L252.351 643.479C252.073 643.99 251.675 644.402 251.155 644.714C250.635 645.017 250.058 645.169 249.426 645.169ZM253.766 642.335L253.519 638.5V635.9H254.884V638.5L254.637 642.335H253.766ZM254.195 645.143C253.961 645.143 253.762 645.061 253.597 644.896C253.432 644.731 253.35 644.532 253.35 644.298C253.35 644.064 253.432 643.865 253.597 643.7C253.762 643.535 253.961 643.453 254.195 643.453C254.438 643.453 254.637 643.535 254.793 643.7C254.958 643.865 255.04 644.064 255.04 644.298C255.04 644.532 254.958 644.731 254.793 644.896C254.637 645.061 254.438 645.143 254.195 645.143Z" fill="#314E78"/>
<defs>
<linearGradient id="paint0_linear" x1="-63.3333" y1="-173.764" x2="572.979" y2="333.758" gradientUnits="userSpaceOnUse">
<stop stop-color="#FDCC6C"/>
<stop offset="1" stop-color="#FF6392"/>
</linearGradient>
<linearGradient id="paint1_linear" x1="-63.3333" y1="407.473" x2="-31.7166" y2="586.126" gradientUnits="userSpaceOnUse">
<stop stop-color="#FDCC6C"/>
<stop offset="1" stop-color="#FF6392"/>
</linearGradient>
<linearGradient id="paint2_linear" x1="187.794" y1="235.257" x2="202.831" y2="284.618" gradientUnits="userSpaceOnUse">
<stop stop-color="#FFF7CF" stop-opacity="0.43"/>
<stop offset="1" stop-color="#FFF7CF" stop-opacity="0"/>
</linearGradient>
<linearGradient id="paint3_linear" x1="130" y1="215" x2="130.5" y2="240" gradientUnits="userSpaceOnUse">
<stop stop-color="#FFD1BD"/>
<stop offset="1" stop-color="#FFCBB5"/>
</linearGradient>
<linearGradient id="paint4_linear" x1="242.253" y1="211.336" x2="242.253" y2="251.22" gradientUnits="userSpaceOnUse">
<stop stop-color="#FFD1BD"/>
<stop offset="1" stop-color="#FFCEB8"/>
</linearGradient>
</defs>
</svg>
