<svg width="101" height="105" viewBox="0 0 101 105" fill="none" xmlns="http://www.w3.org/2000/svg">
<path fill-rule="evenodd" clip-rule="evenodd" d="M56.4622 5.93246C67.0823 7.02645 79.3171 2.08419 87.5537 9.02101C95.7549 15.928 93.9263 28.9325 96.3314 39.5101C98.4768 48.9457 101.749 57.8388 100.846 67.4816C99.7357 79.3465 99.9215 93.5902 90.5995 100.755C81.2753 107.922 68.0049 103.339 56.4622 101.596C46.5726 100.104 37.6412 96.4828 28.9425 91.4488C19.0796 85.7411 7.58924 81.0623 2.82233 70.5546C-2.16075 59.5703 0.375531 46.8355 3.3919 35.1274C6.57062 22.7892 9.46153 8.15741 20.456 2.10914C31.3472 -3.88231 44.1552 4.66468 56.4622 5.93246Z" fill="#FFA6A6"/>
<path d="M60.818 48.1588H59.8657V40.8769V18.3526C59.8657 18.2428 59.8503 18.1355 59.8213 18.0332C59.5969 14.72 55.844 12.1687 51.0926 12.1687C46.1911 12.1687 42.3512 14.8826 42.3512 18.3517V40.8761V48.1579H41.4006C36.0178 48.1579 31.6385 52.4551 31.6385 57.738V76.8134C31.6385 82.0979 36.0178 86.3976 41.4006 86.3976H60.818C66.1999 86.3976 70.5783 82.0987 70.5783 76.8134V57.738C70.5792 52.4568 66.1999 48.1588 60.818 48.1588ZM68.0192 57.7388V62.8138H52.3871V50.6732H58.5857H60.818C64.7885 50.6732 68.0192 53.8431 68.0192 57.7388ZM44.912 40.8778V18.3492C44.912 16.3628 47.7425 14.6848 51.0935 14.6848C54.4428 14.6848 57.2724 16.3628 57.2724 18.3492C57.2724 18.4448 57.2844 18.5386 57.3066 18.6283V40.8778V48.1596H44.9129L44.912 40.8778ZM41.4006 50.6732H43.6312H52.3871V62.8138H34.1985V57.7388C34.1985 53.8431 37.4301 50.6732 41.4006 50.6732Z" fill="white"/>
</svg>
