<svg width="103" height="107" viewBox="0 0 103 107" fill="none" xmlns="http://www.w3.org/2000/svg">
<path fill-rule="evenodd" clip-rule="evenodd" d="M57.4622 6.93246C68.0823 8.02645 80.3171 3.08419 88.5537 10.021C96.7549 16.928 94.9263 29.9325 97.3314 40.5101C99.4768 49.9457 102.749 58.8388 101.846 68.4816C100.736 80.3465 100.921 94.5902 91.5995 101.755C82.2753 108.922 69.0049 104.339 57.4622 102.596C47.5726 101.104 38.6412 97.4828 29.9425 92.4488C20.0796 86.7411 8.58924 82.0623 3.82233 71.5546C-1.16075 60.5703 1.37553 47.8355 4.3919 36.1274C7.57062 23.7892 10.4615 9.15741 21.456 3.10914C32.3472 -2.88231 45.1552 5.66468 57.4622 6.93246Z" fill="#FFFBF7" stroke="url(#paint0_linear)" stroke-width="2"/>
<path d="M61.818 49.1588H60.8657V41.8769V19.3526C60.8657 19.2428 60.8503 19.1355 60.8213 19.0332C60.5969 15.72 56.844 13.1687 52.0926 13.1687C47.1911 13.1687 43.3512 15.8826 43.3512 19.3517V41.8761V49.1579H42.4006C37.0178 49.1579 32.6385 53.4551 32.6385 58.738V77.8134C32.6385 83.0979 37.0178 87.3976 42.4006 87.3976H61.818C67.1999 87.3976 71.5783 83.0987 71.5783 77.8134V58.738C71.5792 53.4568 67.1999 49.1588 61.818 49.1588ZM69.0192 58.7388V63.8138H53.3871V51.6732H59.5857H61.818C65.7885 51.6732 69.0192 54.8431 69.0192 58.7388ZM45.912 41.8778V19.3492C45.912 17.3628 48.7425 15.6848 52.0935 15.6848C55.4428 15.6848 58.2724 17.3628 58.2724 19.3492C58.2724 19.4448 58.2844 19.5386 58.3066 19.6283V41.8778V49.1596H45.9129L45.912 41.8778ZM42.4006 51.6732H44.6312H53.3871V63.8138H35.1985V58.7388C35.1985 54.8431 38.4301 51.6732 42.4006 51.6732Z" fill="url(#paint1_linear)"/>
<defs>
<linearGradient id="paint0_linear" x1="-16.0578" y1="-35.152" x2="119.659" y2="104.979" gradientUnits="userSpaceOnUse">
<stop stop-color="#FDCC6C"/>
<stop offset="1" stop-color="#FF6392"/>
</linearGradient>
<linearGradient id="paint1_linear" x1="26.0621" y1="-12.474" x2="108.275" y2="33.6663" gradientUnits="userSpaceOnUse">
<stop stop-color="#FDCC6C"/>
<stop offset="1" stop-color="#FF6392"/>
</linearGradient>
</defs>
</svg>
