<svg width="100" height="105" viewBox="0 0 100 105" fill="none" xmlns="http://www.w3.org/2000/svg">
<path fill-rule="evenodd" clip-rule="evenodd" d="M45.7945 1.47026C56.7659 -0.00147084 69.7939 -2.21909 77.9422 5.45916C86.0807 13.1281 80.8028 27.2628 84.5019 37.9447C88.3748 49.1287 101.236 57.0889 99.9037 68.8785C98.5449 80.9024 87.8741 89.6985 77.9191 96.1983C68.3895 102.42 56.7855 106.884 45.7945 104.208C35.5613 101.716 30.0179 91 23.121 82.8553C17.8743 76.6594 14.1151 69.9389 10.5527 62.5904C6.26198 53.7396 -1.46921 45.3913 0.243617 35.664C1.99771 25.7023 11.2617 19.3139 19.2257 13.3356C27.2161 7.33744 35.9765 2.78727 45.7945 1.47026Z" fill="#97AAFD"/>
<path d="M76.6539 49.4693C75.8594 46.2318 73.8321 43.6215 70.9458 42.1195C68.8958 41.0513 65.8805 40.3401 62.8809 40.2158C57.0925 39.9706 41.1536 34.7336 38.9849 34.0138L35.0249 27.0525C34.8444 26.7357 34.4979 26.5385 34.1213 26.5385C33.7446 26.5385 33.3968 26.7363 33.217 27.0538L24.2631 42.8439C24.0826 43.1614 24.0984 43.5479 24.3035 43.8509C24.4943 44.1329 24.8202 44.3012 25.1666 44.3012C25.1934 44.3012 25.2195 44.3006 25.2455 44.2986L33.8119 43.6675C36.2385 45.5837 48.2565 55.1257 51.9442 59.0691C53.0378 60.2372 53.7582 61.1076 54.3359 61.8076C54.4072 61.8944 54.4731 61.9726 54.5417 62.0548L45.8525 77.3841C45.5815 77.8626 45.7668 78.4608 46.2655 78.7211L48.1392 79.6966L45.7421 83.9279C45.4711 84.4071 45.6563 85.0053 46.1558 85.265C46.3122 85.3465 46.4803 85.3846 46.6456 85.3846C47.0106 85.3846 47.3646 85.1979 47.5512 84.8686L49.9484 80.6379L51.8221 81.6134C51.9744 81.693 52.1432 81.7331 52.3133 81.7331C52.4114 81.7331 52.5095 81.7193 52.6056 81.6923C52.867 81.618 53.0872 81.4471 53.2175 81.217L61.7585 66.1533C62.2868 66.225 62.8206 66.2651 63.3591 66.2651C64.7416 66.2651 66.1494 66.0278 67.536 65.5505C70.7605 64.4409 73.4829 62.1593 75.2029 59.1276C76.9229 56.096 77.4381 52.6653 76.6539 49.4693ZM34.1234 29.5872L37.0803 34.7842L33.1381 41.7382L26.9758 42.1918L34.1234 29.5872ZM51.901 79.4093L50.0355 78.4384C50.0321 78.4365 50.03 78.4345 50.0273 78.4332C50.0245 78.4319 50.0211 78.4312 50.0177 78.4292L48.1529 77.4583L55.9962 63.6219C56.5189 64.088 57.1275 64.5126 57.9968 64.9642C58.5436 65.2488 59.1103 65.4828 59.6886 65.6741L51.901 79.4093ZM73.3951 58.1863C71.9166 60.7927 69.5894 62.7489 66.841 63.6955C64.133 64.627 61.3414 64.462 58.9792 63.2314C57.5103 62.4683 57.0534 61.9161 55.9509 60.5817C55.3554 59.8606 54.6137 58.964 53.4783 57.7512C49.6884 53.6986 37.8879 44.3255 35.2115 42.2135L38.7256 36.0134C42.0962 37.1283 56.9327 41.9368 62.7917 42.1852C65.4942 42.297 68.1754 42.9201 69.964 43.8516C72.3282 45.0815 73.9926 47.2363 74.6513 49.9195C75.3188 52.6449 74.8729 55.5806 73.3951 58.1863Z" fill="white"/>
</svg>
