<svg width="110" height="110" viewBox="0 0 110 110" fill="none" xmlns="http://www.w3.org/2000/svg">
<path fill-rule="evenodd" clip-rule="evenodd" d="M8.27391 40.7629C8.98599 28.0735 14.0078 14.3344 23.5231 7.30624C32.6691 0.550901 44.2659 5.4337 54.9412 6.29369C62.7319 6.92131 69.6795 9.45244 77.2033 11.6307C87.1531 14.5113 100.85 11.1186 106.047 21.0896C111.178 30.9338 103.237 43.554 99.5729 54.5501C96.6358 63.3654 92.8741 71.5436 86.9942 78.274C81.1363 84.9792 73.9731 89.2464 66.2748 92.6648C56.7122 96.9111 46.5546 104.341 37.1429 100.41C27.6301 96.4369 24.69 83.3205 19.8219 73.2623C14.7563 62.7961 7.59344 52.889 8.27391 40.7629Z" fill="#73E8BE"/>
<path d="M30.043 33.6638C28.115 33.9964 23.402 34.1073 20.7241 33.9964C24.366 36.2138 31.9711 41.3137 41.6113 41.3137C51.5936 41.3137 63.1411 32.666 60.5704 33.6638C57.9997 34.6616 51.8942 33.6638 49.9662 33.3312C49.2574 33.2089 46.7527 32.3334 45.146 32.3334C43.5393 32.3334 40.6473 33.6638 40.3259 33.6638C40.0046 33.6638 37.1125 32.3334 35.5058 32.3334C33.8991 32.3334 31.4605 33.4193 30.043 33.6638Z" stroke="white" stroke-width="1.7"/>
<path d="M20.7241 34.2927C22.3325 39.6265 28.5732 50.294 40.6684 50.294C52.7636 50.294 59.1114 39.4088 60.9343 33.9662" stroke="white" stroke-width="1.7" stroke-linecap="round" stroke-linejoin="round"/>
<path d="M49.0105 43.4743C48.785 43.7106 48.7901 44.0882 49.022 44.3181L56.1994 51.4206L55.3299 52.3303C55.2216 52.4437 55.1619 52.5965 55.164 52.7548C55.1661 52.9132 55.23 53.0639 55.3418 53.1745L57.7271 55.5341L55.9615 57.3803C55.8531 57.4936 55.7934 57.6465 55.7955 57.8048C55.7977 57.9631 55.8615 58.1138 55.9729 58.2245L58.5418 60.7674C58.543 60.7685 58.543 60.7697 58.5442 60.7709C58.5454 60.7721 58.5465 60.7721 58.5477 60.7733L61.9304 64.1213C61.9323 64.1232 61.9328 64.1256 61.9344 64.1276C61.9359 64.1295 61.9387 64.1299 61.9407 64.1315L65.3181 67.4747C65.3205 67.4771 65.321 67.4803 65.3233 67.4822C65.3257 67.4842 65.3285 67.4849 65.3308 67.4873L68.7063 70.8286C68.7091 70.8314 68.7096 70.835 68.7123 70.8377C68.7151 70.8404 68.7186 70.8412 68.7214 70.8435L71.4029 73.4979C71.5142 73.6081 71.6644 73.6689 71.8201 73.6667C71.9753 73.6645 72.1238 73.5996 72.2325 73.4863L73.9978 71.6397L77.2084 74.8186L75.442 76.6656C75.216 76.9019 75.2211 77.2794 75.4534 77.5094C75.6857 77.7393 76.0567 77.7341 76.2827 77.4978L81.0112 72.5528C81.012 72.552 81.0132 72.5516 81.0143 72.5508C81.0155 72.55 81.0155 72.5488 81.0162 72.5476L83.2658 70.1953C83.3788 70.0771 83.4338 69.9236 83.4317 69.7708C83.4297 69.618 83.3705 69.4661 83.2544 69.3511C83.0221 69.1212 82.6511 69.1264 82.4251 69.3627L80.5823 71.2907L77.3713 68.111L79.1381 66.2632C79.2511 66.1451 79.3061 65.9915 79.304 65.8388C79.302 65.686 79.2428 65.534 79.1267 65.4191L63.6967 50.1473C63.4645 49.9174 63.0934 49.9226 62.8675 50.1589L61.1026 52.0047L58.7145 49.6451C58.4822 49.4155 58.1112 49.4211 57.8852 49.657L57.0177 50.5652L49.8398 43.4628C49.6075 43.2328 49.2361 43.238 49.0105 43.4743ZM79.7641 72.1461L78.0262 73.9636L74.8152 70.7847L76.5531 68.9672L79.7641 72.1461ZM77.8879 65.8585L73.5693 70.376C73.5681 70.3772 73.5661 70.3776 73.565 70.3788C73.5638 70.38 73.5635 70.382 73.5623 70.3832L71.8005 72.2262L69.9523 70.3966L72.1301 68.1181C72.2431 68 72.2981 67.8464 72.296 67.6937C72.2939 67.5409 72.2348 67.3889 72.1186 67.274C71.8864 67.0445 71.5149 67.0496 71.2894 67.2856L69.1115 69.564L66.5629 67.0412L68.7399 64.7643C68.8529 64.6461 68.9079 64.4926 68.9059 64.3398C68.9038 64.187 68.8446 64.0351 68.7285 63.9201C68.4962 63.6902 68.1248 63.6954 67.8992 63.9317L65.7222 66.2086L63.1735 63.6857L65.3509 61.4064C65.4639 61.2883 65.5189 61.1351 65.5168 60.9824C65.5148 60.8296 65.4556 60.6776 65.3391 60.5627C65.1068 60.3331 64.7354 60.3383 64.5098 60.5746L62.3328 62.8535L59.7833 60.3299L61.9612 58.0526C62.0741 57.9348 62.1292 57.7809 62.1271 57.6281C62.125 57.4753 62.0659 57.3234 61.9497 57.2084C61.7178 56.9785 61.3464 56.9837 61.1205 57.22L58.9426 59.4973L57.2113 57.7838L58.9742 55.9405C58.9754 55.9393 58.9765 55.9392 58.9773 55.938L61.5342 53.2635C61.5346 53.2631 61.5349 53.2627 61.5353 53.2623L63.299 51.4181L77.8879 65.8585ZM60.284 52.86L58.5449 54.6784L56.5797 52.7347L57.4466 51.8277C57.4473 51.8269 57.4489 51.8265 57.4497 51.8257C57.4504 51.8249 57.4508 51.8233 57.4516 51.8225L58.3172 50.9167L60.284 52.86Z" fill="white"/>
</svg>
