<svg width="105" height="105" viewBox="0 0 105 105" fill="none" xmlns="http://www.w3.org/2000/svg">
<path fill-rule="evenodd" clip-rule="evenodd" d="M55.5133 7.94218C66.6478 6.06694 77.8127 -3.8541 87.9858 1.63865C98.2384 7.17436 102.702 21.6745 104.58 34.4348C106.303 46.1379 102.466 57.6874 97.7947 68.2908C93.7032 77.5782 87.0358 84.4311 79.7826 90.7229C72.3592 97.1625 64.824 105.582 55.5133 104.968C46.307 104.362 41.3706 92.5281 33.1989 87.6536C22.7787 81.4377 6.5162 84.7507 1.38644 72.681C-3.60028 60.9479 6.07004 47.8165 11.3533 36.2534C15.8019 26.5169 20.9416 16.8963 29.3326 11.5168C37.1868 6.48149 46.6002 9.44328 55.5133 7.94218Z" fill="#FFBA87"/>
<path d="M36.4167 55.7716H36.3906V51.6246C36.3906 51.3043 36.1174 51.045 35.7798 51.045H35V45.4711C35 45.3177 34.9356 45.1701 34.8212 45.0611L30.0717 40.5521C29.897 40.3864 29.6348 40.3361 29.4059 40.4265C29.1774 40.5162 29.0288 40.7276 29.0288 40.9621V51.045H28.2494C27.9118 51.045 27.6385 51.3043 27.6385 51.6246V55.7716H27.6108C27.2732 55.7716 27 56.0309 27 56.3512V73.6468C27 73.9671 27.2732 74.2264 27.6108 74.2264H36.4171C36.7547 74.2264 37.028 73.9671 37.028 73.6468V56.3512C37.0275 56.0309 36.7543 55.7716 36.4167 55.7716ZM30.2505 42.3621L33.7783 45.7111V51.045H30.2505V42.3621ZM28.8602 52.2043H35.169V55.7716H28.8602V52.2043ZM35.8059 73.0668H28.2213V56.9304H28.249H35.7794H35.8055V73.0668H35.8059Z" fill="white"/>
<path fill-rule="evenodd" clip-rule="evenodd" d="M42.404 70.5118L44.9186 72.9882H71.9716L74.8454 70.5118H42.404ZM41.3966 69.2736C40.6582 69.2736 40.2913 70.169 40.8174 70.6872L44.1703 73.9891C44.3247 74.1411 44.5328 74.2264 44.7495 74.2264H72.1249C72.3226 74.2264 72.5139 74.1554 72.6637 74.0263L76.4955 70.7244C77.0753 70.2248 76.722 69.2736 75.9567 69.2736H41.3966Z" fill="white"/>
<path fill-rule="evenodd" clip-rule="evenodd" d="M58.7807 68.4481C69.4942 68.4481 78.1793 59.7631 78.1793 49.0495C78.1793 38.336 69.4942 29.6509 58.7807 29.6509C48.0671 29.6509 39.3821 38.336 39.3821 49.0495C39.3821 59.7631 48.0671 68.4481 58.7807 68.4481ZM58.7807 70.0991C70.406 70.0991 79.8302 60.6749 79.8302 49.0495C79.8302 37.4242 70.406 28 58.7807 28C47.1553 28 37.7311 37.4242 37.7311 49.0495C37.7311 60.6749 47.1553 70.0991 58.7807 70.0991Z" fill="white"/>
<path fill-rule="evenodd" clip-rule="evenodd" d="M58.3679 64.3208C66.574 64.3208 73.2264 57.6684 73.2264 49.4623C73.2264 41.2562 66.574 34.6038 58.3679 34.6038C50.1618 34.6038 43.5094 41.2562 43.5094 49.4623C43.5094 57.6684 50.1618 64.3208 58.3679 64.3208ZM58.3679 65.9717C67.4858 65.9717 74.8774 58.5802 74.8774 49.4623C74.8774 40.3444 67.4858 32.9529 58.3679 32.9529C49.25 32.9529 41.8585 40.3444 41.8585 49.4623C41.8585 58.5802 49.25 65.9717 58.3679 65.9717Z" fill="white"/>
<path fill-rule="evenodd" clip-rule="evenodd" d="M55.0911 41.1826C55.3329 41.4243 55.3329 41.8163 55.0911 42.0581L50.1383 47.0109C49.8965 47.2527 49.5045 47.2527 49.2627 47.0109C49.0209 46.7692 49.0209 46.3772 49.2627 46.1354L54.2156 41.1826C54.4573 40.9408 54.8493 40.9408 55.0911 41.1826Z" fill="white"/>
<path fill-rule="evenodd" clip-rule="evenodd" d="M60.4483 41.1744C60.6946 41.4115 60.702 41.8035 60.4648 42.0498L49.7337 53.1936C49.4965 53.4399 49.1046 53.4473 48.8583 53.2101C48.612 52.973 48.6046 52.581 48.8418 52.3348L59.5729 41.1909C59.8101 40.9446 60.202 40.9372 60.4483 41.1744Z" fill="white"/>
</svg>
