<svg width="375" height="812" viewBox="0 0 375 812" fill="none" xmlns="http://www.w3.org/2000/svg">
<g clip-path="url(#clip0)">
<rect width="375" height="812" fill="#FFFBF7"/>
<path fill-rule="evenodd" clip-rule="evenodd" d="M143.609 -3.64886C159.847 19.5215 145.891 53.9905 143.502 83.801C141.597 107.585 140.824 131.059 131.103 152.413C120.891 174.846 107.621 197.034 87.2926 207.273C66.9754 217.506 44.2112 212.202 22.7134 207.006C1.2801 201.825 -21.989 196.761 -35.6991 177.545C-49.1961 158.628 -49.3144 131.943 -48.3694 107.377C-47.5267 85.4741 -38.8744 66.1084 -30.6425 46.1087C-21.3533 23.5398 -16.2151 -3.44305 2.57395 -16.3925C22.1676 -29.8964 46.3509 -24.5888 68.9709 -22.5449C95.0871 -20.1851 127.434 -26.7275 143.609 -3.64886Z" fill="#FFA6A6"/>
</g>
<defs>
<clipPath id="clip0">
<rect width="375" height="812" fill="white"/>
</clipPath>
</defs>
</svg>
