<?xml version="1.0" encoding="utf-8"?>
<!-- Generator: Adobe Illustrator 24.0.1, SVG Export Plug-In . SVG Version: 6.00 Build 0)  -->
<svg version="1.1" id="Layer_1" xmlns="http://www.w3.org/2000/svg" xmlns:xlink="http://www.w3.org/1999/xlink" x="0px" y="0px"
	 viewBox="0 0 105 105" style="enable-background:new 0 0 105 105;" xml:space="preserve">
<style type="text/css">
	.st0{fill-rule:evenodd;clip-rule:evenodd;}
	.st1{fill-rule:evenodd;clip-rule:evenodd;fill:#DD5858;}
	.st2{fill-rule:evenodd;clip-rule:evenodd;fill:#606060;}
	.st3{fill:#FFFFFF;}
	
		.st4{fill-rule:evenodd;clip-rule:evenodd;fill:none;stroke:#000000;stroke-width:0.25;stroke-linecap:round;stroke-linejoin:round;stroke-miterlimit:10;}
	.st5{fill:#606060;}
	.st6{fill:none;stroke:#606060;stroke-linecap:round;stroke-linejoin:round;stroke-miterlimit:10;}
	.st7{fill-rule:evenodd;clip-rule:evenodd;fill:none;stroke:#DD5858;stroke-width:0.25;stroke-miterlimit:10;}
	.st8{fill-rule:evenodd;clip-rule:evenodd;fill:#FFFFFF;}
	.st9{fill:url(#SVGID_17_);}
	.st10{fill:url(#SVGID_18_);}
	.st11{fill:url(#SVGID_19_);}
	.st12{fill:url(#SVGID_20_);}
	.st13{fill:url(#SVGID_21_);}
	.st14{fill:url(#SVGID_22_);}
	.st15{fill:url(#SVGID_23_);}
	.st16{fill:url(#SVGID_24_);}
	
		.st17{fill-rule:evenodd;clip-rule:evenodd;fill:none;stroke:#FFFFFF;stroke-width:0.25;stroke-linecap:round;stroke-linejoin:round;stroke-miterlimit:10;}
	.st18{fill-rule:evenodd;clip-rule:evenodd;fill:none;stroke:#FFFFFF;stroke-width:0.25;stroke-miterlimit:10;}
	
		.st19{fill-rule:evenodd;clip-rule:evenodd;fill:none;stroke:#FFFFFF;stroke-width:0.1;stroke-linecap:round;stroke-linejoin:round;stroke-miterlimit:10;}
	.st20{fill:none;stroke:#FFFFFF;stroke-width:0.25;stroke-linecap:round;stroke-linejoin:round;stroke-miterlimit:10;}
	.st21{fill-rule:evenodd;clip-rule:evenodd;fill:#FFFFFF;stroke:#FFFFFF;stroke-width:0.25;stroke-miterlimit:10;}
	.st22{fill-rule:evenodd;clip-rule:evenodd;fill:none;stroke:#000000;stroke-width:0.25;stroke-miterlimit:10;}
	
		.st23{fill-rule:evenodd;clip-rule:evenodd;fill:none;stroke:#000000;stroke-width:0.1;stroke-linecap:round;stroke-linejoin:round;stroke-miterlimit:10;}
	.st24{fill:none;stroke:#000000;stroke-width:0.25;stroke-linecap:round;stroke-linejoin:round;stroke-miterlimit:10;}
	.st25{fill:url(#SVGID_25_);}
	.st26{fill:#93E9B9;}
	.st27{fill:#B4B5F2;}
	.st28{fill:#FFC887;}
	.st29{fill:#FFD288;}
	.st30{fill:#FF8DA6;}
	.st31{fill:#7BE5BE;}
	.st32{fill:#B7EEB2;}
	.st33{fill:#FFE188;}
	.st34{fill:#FF6BA6;}
	.st35{fill:#FFA4A6;}
	.st36{fill:#BFB9ED;}
	.st37{fill:#99AAFD;}
	.st38{fill:#FFBD87;}
</style>
<g>
	<g>
		<g>
			<path class="st36" d="M61.93,50.61h-19.2c-3.14,0-5.7,2.57-5.7,5.71v10.09c2.45-1.18,8.9-3.51,15.65,0.55
				c6.83,4.1,13.47,0.99,14.96,0.19V56.32C67.63,53.17,65.07,50.61,61.93,50.61z"/>
		</g>
		<g>
			<path class="st36" d="M59.81,22.76c0-1.23-1-2.23-2.23-2.23H47.07c-1.22,0-2.23,1-2.23,2.23v26.5h14.97V22.76z"/>
		</g>
		<g>
			<g>
				<path class="st36" d="M91.34,22.27C75.58,8.2,65.42,1.18,57.35,1.18c-5.92,0-10.71,3.78-15.75,11.34
					c-5.85,8.78-11.12,9.79-27.3,16.58c-30.23,12.68,4.88,32.18-2.93,52.66c-1.99,5.22-0.23,6.51,3.35,6.51
					c3.48,0,8.67-1.22,13.8-1.22c4.05,0,8.05,0.76,11.13,3.49c11.12,9.85,17.96,13.3,22.48,13.3c9.35,0,8.76-14.77,15.55-18.17
					C104.99,72,111.72,40.46,91.34,22.27z M73.75,31.33c0.8-1.05,1.8-1.53,1.85-1.55c0.23-0.11,0.51-0.01,0.62,0.23
					c0.11,0.23,0.01,0.51-0.22,0.62c-0.14,0.06-3.33,1.63-1.91,5.41c0.09,0.24-0.03,0.51-0.27,0.6c-0.05,0.02-0.11,0.03-0.16,0.03
					c-0.19,0-0.37-0.12-0.44-0.3C72.3,33.97,73,32.31,73.75,31.33z M68.99,78.77c0,3.89-3.17,7.06-7.06,7.06h-19.2
					c-3.89,0-7.06-3.17-7.06-7.06V56.32c0-3.9,3.17-7.06,7.06-7.06h0.76v-26.5c0-1.98,1.61-3.59,3.59-3.59h10.51
					c1.98,0,3.59,1.61,3.59,3.59v26.5h0.76c3.89,0,7.06,3.16,7.06,7.06V78.77z M89.83,63.4c-0.18,1.1-0.78,1.73-1.8,1.93
					c-0.72,0.14-1.43,0.09-3.23-0.14c-1.12-0.14-1.5-0.19-2.12-0.25c-1.14-0.11-2.17-1.06-3.32-2.82c-0.78-1.19-0.75-1.13-2.97-5.41
					c-2.07-3.96-3.37-5.97-4.87-7.1c-0.3-0.23-0.6-0.4-0.9-0.53c-5.25-2.19-7.13-4.93-5.92-9.02c0.35-1.18,1.09-2,2.51-3.07
					c0.2-0.15,0.89-0.65,0.92-0.68c2.9-2.14,3.88-3.92,3.23-7.81c-0.05-0.29,0.15-0.56,0.43-0.61c0.29-0.05,0.56,0.15,0.61,0.43
					c0.73,4.34-0.45,6.49-3.64,8.84c-0.04,0.03-0.73,0.53-0.92,0.67c-1.26,0.94-1.86,1.61-2.13,2.52c-1.04,3.49,0.51,5.74,5.31,7.75
					c0.38,0.16,0.75,0.38,1.12,0.66c1.68,1.26,3.03,3.34,5.18,7.46c2.2,4.22,2.17,4.17,2.92,5.31c0.99,1.51,1.82,2.28,2.53,2.34
					c0.64,0.06,1.03,0.11,2.16,0.25c3.02,0.39,3.66,0.26,3.85-0.91c0.18-1.12-0.44-1.69-2.4-2.59c-0.11-0.05-0.11-0.05-0.23-0.1
					c-0.64-0.29-0.96-0.44-1.3-0.64c-1.7-0.98-2.9-5.51-4.44-14.42c-0.73-4.24,0.08-9.38,2.43-15.43c0.11-0.27,0.41-0.41,0.68-0.3
					c0.27,0.11,0.41,0.41,0.3,0.68c-2.28,5.88-3.07,10.84-2.37,14.86c1.43,8.28,2.67,12.95,3.92,13.68c0.3,0.17,0.6,0.32,1.21,0.59
					c0.11,0.05,0.11,0.05,0.23,0.1C89.19,60.76,90.11,61.61,89.83,63.4z"/>
			</g>
		</g>
	</g>
</g>
</svg>
