<?xml version="1.0" encoding="utf-8"?>
<!-- Generator: Adobe Illustrator 24.0.1, SVG Export Plug-In . SVG Version: 6.00 Build 0)  -->
<svg version="1.1" id="Layer_1" xmlns="http://www.w3.org/2000/svg" xmlns:xlink="http://www.w3.org/1999/xlink" x="0px" y="0px"
	 viewBox="0 0 105 105" style="enable-background:new 0 0 105 105;" xml:space="preserve">
<style type="text/css">
	.st0{fill-rule:evenodd;clip-rule:evenodd;}
	.st1{fill-rule:evenodd;clip-rule:evenodd;fill:#DD5858;}
	.st2{fill-rule:evenodd;clip-rule:evenodd;fill:#606060;}
	.st3{fill:#FFFFFF;}
	
		.st4{fill-rule:evenodd;clip-rule:evenodd;fill:none;stroke:#000000;stroke-width:0.25;stroke-linecap:round;stroke-linejoin:round;stroke-miterlimit:10;}
	.st5{fill:#606060;}
	.st6{fill:none;stroke:#606060;stroke-linecap:round;stroke-linejoin:round;stroke-miterlimit:10;}
	.st7{fill-rule:evenodd;clip-rule:evenodd;fill:none;stroke:#DD5858;stroke-width:0.25;stroke-miterlimit:10;}
	.st8{fill-rule:evenodd;clip-rule:evenodd;fill:#FFFFFF;}
	.st9{fill:url(#SVGID_17_);}
	.st10{fill:url(#SVGID_18_);}
	.st11{fill:url(#SVGID_19_);}
	.st12{fill:url(#SVGID_20_);}
	.st13{fill:url(#SVGID_21_);}
	.st14{fill:url(#SVGID_22_);}
	.st15{fill:url(#SVGID_23_);}
	.st16{fill:url(#SVGID_24_);}
	
		.st17{fill-rule:evenodd;clip-rule:evenodd;fill:none;stroke:#FFFFFF;stroke-width:0.25;stroke-linecap:round;stroke-linejoin:round;stroke-miterlimit:10;}
	.st18{fill-rule:evenodd;clip-rule:evenodd;fill:none;stroke:#FFFFFF;stroke-width:0.25;stroke-miterlimit:10;}
	
		.st19{fill-rule:evenodd;clip-rule:evenodd;fill:none;stroke:#FFFFFF;stroke-width:0.1;stroke-linecap:round;stroke-linejoin:round;stroke-miterlimit:10;}
	.st20{fill:none;stroke:#FFFFFF;stroke-width:0.25;stroke-linecap:round;stroke-linejoin:round;stroke-miterlimit:10;}
	.st21{fill-rule:evenodd;clip-rule:evenodd;fill:#FFFFFF;stroke:#FFFFFF;stroke-width:0.25;stroke-miterlimit:10;}
	.st22{fill-rule:evenodd;clip-rule:evenodd;fill:none;stroke:#000000;stroke-width:0.25;stroke-miterlimit:10;}
	
		.st23{fill-rule:evenodd;clip-rule:evenodd;fill:none;stroke:#000000;stroke-width:0.1;stroke-linecap:round;stroke-linejoin:round;stroke-miterlimit:10;}
	.st24{fill:none;stroke:#000000;stroke-width:0.25;stroke-linecap:round;stroke-linejoin:round;stroke-miterlimit:10;}
	.st25{fill:url(#SVGID_25_);}
	.st26{fill:#93E9B9;}
	.st27{fill:#B4B5F2;}
	.st28{fill:#FFC887;}
	.st29{fill:#FFD288;}
	.st30{fill:#FF8DA6;}
	.st31{fill:#7BE5BE;}
	.st32{fill:#B7EEB2;}
	.st33{fill:#FFE188;}
	.st34{fill:#FF6BA6;}
	.st35{fill:#FFA4A6;}
	.st36{fill:#BFB9ED;}
	.st37{fill:#99AAFD;}
	.st38{fill:#FFBD87;}
</style>
<g>
	<g>
		<path class="st37" d="M91.34,22.27C75.58,8.2,65.42,1.18,57.35,1.18c-5.92,0-10.71,3.78-15.75,11.34
			c-5.85,8.78-11.12,9.79-27.3,16.58c-30.23,12.68,4.88,32.18-2.93,52.66c-1.99,5.22-0.23,6.51,3.35,6.51
			c3.48,0,8.67-1.22,13.8-1.22c4.05,0,8.05,0.76,11.13,3.49c11.12,9.85,17.96,13.3,22.48,13.3c9.35,0,8.76-14.77,15.55-18.17
			C104.99,72,111.72,40.46,91.34,22.27z M68.99,78.77c0,3.89-3.17,7.06-7.06,7.06h-19.2c-3.89,0-7.06-3.17-7.06-7.06V56.32
			c0-3.9,3.17-7.06,7.06-7.06h0.76v-26.5c0-1.98,1.61-3.59,3.59-3.59h10.51c1.98,0,3.59,1.61,3.59,3.59v26.5h0.76
			c3.89,0,7.06,3.16,7.06,7.06V78.77z M85.54,64.04c-0.23,1.36-0.33,1.82-0.47,2.23c-0.08,0.24-0.17,0.48-0.38,0.54
			c-0.03,0.01-0.06,0.01-0.09,0.01c-0.14,0-0.24-0.09-0.28-0.12c-0.23-0.18-0.2-0.3,0.03-1.19c0.49-1.88,0.74-4.95,0.6-7.32
			c-0.11-1.76-0.12-2.47-0.08-3.03c0.13-1.64,0.02-2.94-0.37-4.62c-0.38-1.62-0.96-2.98-1.84-4.3c-0.84-1.27-1.66-2.17-3.25-3.59
			c-0.92-0.83-1.93-1.79-2.25-2.16c-0.55-0.64-0.89-1.24-1.25-2.24c-0.1-0.27-0.22-0.59-0.27-0.69c-0.06-0.12-0.18-0.39-0.26-0.61
			c-0.25-0.61-1.07-2.18-1.26-2.44c-0.02-0.03-0.05-0.07-0.08-0.1c0.17,0.57,0.17,1-0.01,1.31c-0.19,0.32-0.75,0.56-1.06,0.67
			c-0.19,0.07-0.39,0.16-0.5,0.21l-0.04,0.02c-0.04,0.02-0.07,0.03-0.1,0.04l-0.03,0.01c-0.04,0.02-0.07,0.03-0.11,0.05
			c0.09,0.41,0.18,0.84,0.28,1.26c0.29,1.21,0.42,1.5,1.43,3.1c0.93,1.48,1.37,2.27,1.54,2.74c0.06,0.17,0.17,0.7,0.24,1.11
			c0.13,0.79,0.4,2.02,0.53,2.39c0.08,0.24,0.05,0.45-0.09,0.58c-0.11,0.1-0.27,0.13-0.42,0.06c-0.19-0.08-0.25-0.24-0.48-1.25
			c-0.13-0.57-0.29-1.31-0.34-1.66c-0.17-1.05-0.28-1.29-1.72-3.6c-1.01-1.63-1.16-1.96-1.48-3.27l-0.21-0.86l-0.47-0.73
			c-0.56-0.88-0.65-1.09-0.67-1.76c-0.04-1.11-0.05-1.85-0.05-2.94c0-0.66,0-1.35-0.02-1.54c-0.04-0.49-0.2-1.22-0.35-1.55
			c-0.19-0.41-0.56-0.81-0.78-0.97c-0.06,0.33-0.14,1.1-0.23,2.04c-0.06,0.58-0.17,1.53-0.24,2.12c-0.34,2.73-0.42,3.79-0.34,4.21
			c0.08,0.37,0.4,1.34,0.71,2.17c0.38,0.99,0.38,0.99,0.96,2.26c0.29,0.62,0.72,1.61,0.97,2.2c0.59,1.43,1.15,2.63,1.58,3.38
			c0.2,0.36,0.4,0.72,0.45,0.84c0.18,0.38,1.8,3.28,2.95,5.26c0.89,1.53,1.24,2.32,1.71,3.86c0.37,1.21,0.58,3.26,0.47,4.67
			c-0.04,0.55-0.28,1.79-0.49,2.05c-0.06,0.07-0.23,0.22-0.5,0.1c-0.03-0.01-0.05-0.02-0.07-0.03c-0.25-0.15-0.17-0.39-0.13-0.54
			c0.22-0.69,0.33-1.42,0.34-2.29c0.04-1.95-0.3-3.66-1.07-5.36c-0.22-0.49-1.1-2.2-1.31-2.53c-0.09-0.14-0.47-0.82-0.79-1.4
			c-0.34-0.62-0.74-1.33-0.86-1.54c-0.12-0.22-0.47-0.85-0.76-1.37c-0.28-0.51-0.67-1.24-0.88-1.62c-0.44-0.8-0.98-1.96-1.56-3.33
			c-0.24-0.58-0.6-1.42-0.8-1.88c-0.77-1.76-1.23-2.96-1.57-4.12c-0.23-0.78-0.26-1.17-0.17-2.1c0.03-0.32,0.1-1.01,0.15-1.55
			c0.05-0.53,0.16-1.56,0.23-2.28c0.08-0.72,0.18-1.73,0.24-2.25v0c0.14-1.36,0.19-1.81,0.83-1.87c0.23-0.02,0.36,0.05,0.67,0.24
			c0.23,0.14,0.47,0.33,0.6,0.48c0.41,0.46,0.72,1.34,0.83,2.35c0.04,0.38,0.09,1.71,0.09,2.55c0.06-0.08,0.14-0.15,0.23-0.21
			c0.59-0.36,1.26-0.24,1.75,0.3c0.07,0.08,0.34,0.3,0.59,0.46c0.23,0.15,0.49,0.33,0.58,0.4c0.04-0.02,0.11-0.06,0.15-0.09
			c0.45-0.27,1.25-0.79,1.91-1.24c0.57-0.38,1.39-0.83,1.71-0.89c0.27-0.05,1.58-0.14,2.91-0.2c1.4-0.07,1.77-0.07,1.91,0.32
			c0.1,0.27,0,0.74-0.15,1.04c-0.28,0.56-1.09,1.22-1.8,1.48c-0.16,0.06-0.5,0.16-0.81,0.25c0.46,0.04,1.24,0.15,1.63,0.24
			c0.14,0.03,0.51,0.09,0.81,0.12c1.07,0.12,1.54,0.23,1.69,0.64c0.16,0.44-0.18,0.98-0.91,1.45c-0.33,0.21-0.54,0.3-1.02,0.41
			c-0.33,0.08-0.78,0.14-1.03,0.14c-0.69,0-0.73,0.03-0.97,0.21c-0.39,0.29-1.01,0.65-1.53,0.89l-0.27,0.12l0,0.04
			c0,0.04-0.02,0.14-0.05,0.27c0.36-0.49,0.68-0.63,1.97-1.13c0.86-0.33,1.34-0.45,1.68-0.43c0.3,0.02,2,0.75,2.63,1.09
			c0.35,0.19,0.57,0.31,0.63,0.53c0.05,0.19-0.04,0.36-0.15,0.53c-0.15,0.24-0.26,0.34-0.53,0.48c-0.18,0.09-0.47,0.19-0.66,0.23
			c-0.37,0.07-1.08,0.02-1.55-0.11l-0.16-0.05l-0.36,0.21c-0.25,0.15-0.62,0.35-0.82,0.44c-0.06,0.03-0.16,0.07-0.21,0.1
			c-0.01,0.12-0.1,0.66-0.19,1.12c-0.07,0.41-0.13,0.72-0.15,0.87c0.04,0.04,0.1,0.1,0.18,0.18c0.9,0.84,2.21,2.42,2.86,3.45
			c0.96,1.51,1.51,3.03,1.89,5.22c0.25,1.43,0.29,2.22,0.18,3.86c-0.02,0.35-0.02,1.08,0.01,1.62
			C85.91,59.99,85.84,62.25,85.54,64.04z"/>
		<path class="st37" d="M61.93,50.61h-19.2c-3.14,0-5.7,2.57-5.7,5.71v10.09c2.45-1.18,8.9-3.51,15.65,0.55
			c6.83,4.1,13.47,0.99,14.96,0.19V56.32C67.63,53.17,65.07,50.61,61.93,50.61z"/>
		<path class="st37" d="M77.44,34.8c1.03-0.92,1.54-1.23,2.37-1.42c0.59-0.13,1.16-0.36,1.37-0.49c0.24-0.16,0.66-0.57,0.79-0.79
			l0,0c0.05-0.08,0.08-0.17,0.1-0.25c-0.08,0.01-0.18,0.01-0.28,0.02c-0.25,0.02-0.65,0.04-0.87,0.04c-0.22,0.01-0.7,0.02-1.07,0.03
			c-0.8,0.02-1.7,0.14-1.85,0.21c-0.17,0.08-0.5,0.26-1.3,0.75c-0.54,0.32-1.51,1-1.87,1.27c0.05,0.09,0.13,0.21,0.21,0.35
			c0.18,0.3,0.46,0.81,0.62,1.14l0.15,0.32l0.45-0.3C76.65,35.43,77.16,35.05,77.44,34.8z"/>
		<path class="st37" d="M59.81,22.76c0-1.23-1-2.23-2.23-2.23H47.07c-1.22,0-2.23,1-2.23,2.23v26.5h14.97V22.76z"/>
		<path class="st37" d="M72.8,33.68c-0.15-0.27-0.39-0.54-0.57-0.65c-0.07-0.04-0.14-0.06-0.2-0.06c-0.05,0-0.09,0.01-0.13,0.03l0,0
			c-0.1,0.05-0.16,0.16-0.17,0.3c-0.03,0.45,0.07,1.36,0.28,2.53c0.23-0.11,0.48-0.21,0.64-0.26c0.69-0.22,0.68-0.32,0.65-0.59
			C73.27,34.74,73.05,34.12,72.8,33.68z"/>
		<path class="st37" d="M81.15,36.33c0.7,0.01,1.35-0.13,1.73-0.38c0.2-0.13,0.4-0.32,0.51-0.46c-0.05-0.01-0.1-0.02-0.17-0.04
			c-0.19-0.04-0.52-0.09-0.73-0.1c-0.23-0.02-0.62-0.08-0.87-0.13c-0.72-0.14-1.58-0.25-1.82-0.25c-0.16,0-0.57,0.11-1.21,0.38
			c-0.54,0.23-1.86,1.01-2.31,1.36l-0.1,0.08l0.03,0.06c0.06,0.14,0.28,0.66,0.49,1.19c0.33,0.84,0.47,1.12,0.69,1.42
			c0.05-0.19,0.11-0.42,0.16-0.63l0,0l0.29-1.11l0.28-0.1c0.72-0.27,1.56-0.72,1.92-1.03C80.33,36.32,80.47,36.32,81.15,36.33z"/>
		<path class="st37" d="M81.77,39.24l0.46-0.29l0.46,0.12c0.41,0.11,0.91,0.14,1.16,0.07c0.15-0.04,0.36-0.14,0.52-0.22
			c-0.13-0.07-0.33-0.16-0.6-0.27c-0.34-0.14-0.82-0.35-1.08-0.47c-0.57-0.25-0.59-0.25-0.89-0.19c-0.5,0.1-2.04,0.68-2.4,0.89
			c-0.13,0.08-0.15,0.09-0.44,0.61c-0.3,0.55-0.46,1.02-0.47,1.17c0.16,0.2,0.94,0.94,1.35,1.29c0.12-0.49,0.3-1.41,0.3-1.58
			c-0.02-0.13,0.03-0.28,0.14-0.4c0.1-0.11,0.22-0.18,0.35-0.18C80.76,39.79,81.27,39.55,81.77,39.24z"/>
	</g>
</g>
</svg>
