<?xml version="1.0" encoding="utf-8"?>
<!-- Generator: Adobe Illustrator 24.0.1, SVG Export Plug-In . SVG Version: 6.00 Build 0)  -->
<svg version="1.1" id="Layer_1" xmlns="http://www.w3.org/2000/svg" xmlns:xlink="http://www.w3.org/1999/xlink" x="0px" y="0px"
	 viewBox="0 0 105 105" style="enable-background:new 0 0 105 105;" xml:space="preserve">
<style type="text/css">
	.st0{fill-rule:evenodd;clip-rule:evenodd;}
	.st1{fill-rule:evenodd;clip-rule:evenodd;fill:#DD5858;}
	.st2{fill-rule:evenodd;clip-rule:evenodd;fill:#606060;}
	.st3{fill:#FFFFFF;}
	
		.st4{fill-rule:evenodd;clip-rule:evenodd;fill:none;stroke:#000000;stroke-width:0.25;stroke-linecap:round;stroke-linejoin:round;stroke-miterlimit:10;}
	.st5{fill:#606060;}
	.st6{fill:none;stroke:#606060;stroke-linecap:round;stroke-linejoin:round;stroke-miterlimit:10;}
	.st7{fill-rule:evenodd;clip-rule:evenodd;fill:none;stroke:#DD5858;stroke-width:0.25;stroke-miterlimit:10;}
	.st8{fill-rule:evenodd;clip-rule:evenodd;fill:#FFFFFF;}
	.st9{fill:url(#SVGID_17_);}
	.st10{fill:url(#SVGID_18_);}
	.st11{fill:url(#SVGID_19_);}
	.st12{fill:url(#SVGID_20_);}
	.st13{fill:url(#SVGID_21_);}
	.st14{fill:url(#SVGID_22_);}
	.st15{fill:url(#SVGID_23_);}
	.st16{fill:url(#SVGID_24_);}
	
		.st17{fill-rule:evenodd;clip-rule:evenodd;fill:none;stroke:#FFFFFF;stroke-width:0.25;stroke-linecap:round;stroke-linejoin:round;stroke-miterlimit:10;}
	.st18{fill-rule:evenodd;clip-rule:evenodd;fill:none;stroke:#FFFFFF;stroke-width:0.25;stroke-miterlimit:10;}
	
		.st19{fill-rule:evenodd;clip-rule:evenodd;fill:none;stroke:#FFFFFF;stroke-width:0.1;stroke-linecap:round;stroke-linejoin:round;stroke-miterlimit:10;}
	.st20{fill:none;stroke:#FFFFFF;stroke-width:0.25;stroke-linecap:round;stroke-linejoin:round;stroke-miterlimit:10;}
	.st21{fill-rule:evenodd;clip-rule:evenodd;fill:#FFFFFF;stroke:#FFFFFF;stroke-width:0.25;stroke-miterlimit:10;}
	.st22{fill-rule:evenodd;clip-rule:evenodd;fill:none;stroke:#000000;stroke-width:0.25;stroke-miterlimit:10;}
	
		.st23{fill-rule:evenodd;clip-rule:evenodd;fill:none;stroke:#000000;stroke-width:0.1;stroke-linecap:round;stroke-linejoin:round;stroke-miterlimit:10;}
	.st24{fill:none;stroke:#000000;stroke-width:0.25;stroke-linecap:round;stroke-linejoin:round;stroke-miterlimit:10;}
	.st25{fill:url(#SVGID_25_);}
	.st26{fill:#93E9B9;}
	.st27{fill:#B4B5F2;}
	.st28{fill:#FFC887;}
	.st29{fill:#FFD288;}
	.st30{fill:#FF8DA6;}
	.st31{fill:#7BE5BE;}
	.st32{fill:#B7EEB2;}
	.st33{fill:#FFE188;}
	.st34{fill:#FF6BA6;}
	.st35{fill:#FFA4A6;}
	.st36{fill:#BFB9ED;}
	.st37{fill:#99AAFD;}
	.st38{fill:#FFBD87;}
</style>
<path class="st32" d="M92,41.74c-8.67-5.78-9.67-10.98-16.38-26.97C71.71,5.45,67.15,2.42,62.11,2.42
	c-9.43,0-20.54,10.61-32.19,10.61c-2.09,0-4.2-0.34-6.32-1.15c-1.48-0.56-2.63-0.82-3.53-0.82c-7.73,0,3.46,19.05-5.14,28.76
	c-29.86,33.71-0.16,27.61,4.82,37.57c8.16,16.33,22.8,25.21,37.07,25.21c9.3,0,18.45-3.78,25.54-11.72
	C106.45,63.89,109.65,53.51,92,41.74z M76.23,33.35c-0.11-0.05-0.2-0.13-0.28-0.23C76.11,33.25,76.22,33.35,76.23,33.35z
	 M49.04,70.48c-1.9,1.11-4.24,1.65-5.94,3.1c-1.26,1.07-3.06,6.17-1.17,7.61c1.16,0.89,3.41-0.55,1.93-1.52
	c2.39,1.57-0.86,3.32-3.07,1.75c-4.56-3.25-0.19-9.32,1.7-11.54c-4.46,3.94-8.51-1.87-13.05-1.85c-2.85,0.01-6.48,4.88-3.75,5.7
	c0.24,0.06,0.48,0.11,0.75,0.12c-0.29-0.01-0.53-0.06-0.75-0.12c-4.56-1.1-3.16-10.55,1.97-10.43c2.96,0.07,10.2,2.75,10.06-2.76
	c-4.78,3.59-8.21,1.76-13.47,0.31c-3.31-0.91-10.16-5.04-13.08-2.76c-1.37,1.06-2.25,3.33-0.22,4.14c0.8,0.32,2.6-0.03,1.75-0.98
	c1.94,1.9-1.56,3.46-3.37,1.58c-5.88-6.12,3.58-16.18,10.54-13.69c5.03,1.8,7.79,4.24,13.27,2.82c15.48-3.99,8.38-28.5,26.99-28.98
	c3.75-0.1,8.98,1.41,11.95,3.79c3.3,2.64,3.14,5.47,3.87,6.36c-0.57-0.47-1.83-1.51-1.83-1.51c-2.82,3.65-1.07,7.71-8.76,11.75
	c2.82-2.22,3.25-5.27,3.63-8.09c-0.68,2.27-5.5,4.42-6.09,6.83c-0.99,4.03,2.14,4.51,2.94,7.86C68.03,59.06,55.3,66.84,49.04,70.48z
	 M12.71,61.25c-0.08-0.08-0.15-0.15-0.24-0.23C12.56,61.1,12.64,61.17,12.71,61.25z M84.65,59.85l-13.1,15.61l-0.1,6.92l-0.9,0.97
	l-4.4,4.76c-0.21,0.23-0.55,0.24-0.78,0.03s-0.24-0.55-0.03-0.78l4.16-4.47L69,82.43l-4.14,4.49c-0.21,0.23-0.55,0.24-0.78,0.03
	c-0.23-0.21-0.24-0.55-0.03-0.78l4.14-4.47l-0.51-0.47l-4.12,4.46c-0.21,0.23-0.55,0.24-0.78,0.03c-0.23-0.21-0.24-0.55-0.03-0.78
	l4.14-4.47L66.39,80l-4.14,4.47c-0.21,0.23-0.55,0.24-0.78,0.03c-0.23-0.21-0.24-0.55-0.03-0.78l4.14-4.47l-0.51-0.45l-4.14,4.47
	c-0.21,0.23-0.55,0.24-0.78,0.03c-0.23-0.21-0.24-0.55-0.03-0.78l4.16-4.47l-0.51-0.47l-4.14,4.49c-0.21,0.23-0.55,0.24-0.78,0.03
	s-0.24-0.55-0.03-0.78l4.14-4.47l-0.51-0.47l-4.14,4.47c-0.21,0.23-0.55,0.24-0.78,0.03c-0.21-0.19-0.22-0.55-0.01-0.78l4.4-4.74
	l0.9-0.97l6.9-0.62L84.3,59.52c0.11-0.09,0.24-0.1,0.33-0.01C84.73,59.6,84.74,59.75,84.65,59.85z"/>
</svg>
