<?xml version="1.0" encoding="utf-8"?>
<!-- Generator: Adobe Illustrator 24.0.1, SVG Export Plug-In . SVG Version: 6.00 Build 0)  -->
<svg version="1.1" id="Layer_1" xmlns="http://www.w3.org/2000/svg" xmlns:xlink="http://www.w3.org/1999/xlink" x="0px" y="0px"
	 viewBox="0 0 105 105" style="enable-background:new 0 0 105 105;" xml:space="preserve">
<style type="text/css">
	.st0{fill-rule:evenodd;clip-rule:evenodd;}
	.st1{fill-rule:evenodd;clip-rule:evenodd;fill:#DD5858;}
	.st2{fill-rule:evenodd;clip-rule:evenodd;fill:#606060;}
	.st3{fill:#FFFFFF;}
	
		.st4{fill-rule:evenodd;clip-rule:evenodd;fill:none;stroke:#000000;stroke-width:0.25;stroke-linecap:round;stroke-linejoin:round;stroke-miterlimit:10;}
	.st5{fill:#606060;}
	.st6{fill:none;stroke:#606060;stroke-linecap:round;stroke-linejoin:round;stroke-miterlimit:10;}
	.st7{fill-rule:evenodd;clip-rule:evenodd;fill:none;stroke:#DD5858;stroke-width:0.25;stroke-miterlimit:10;}
	.st8{fill-rule:evenodd;clip-rule:evenodd;fill:#FFFFFF;}
	.st9{fill:url(#SVGID_17_);}
	.st10{fill:url(#SVGID_18_);}
	.st11{fill:url(#SVGID_19_);}
	.st12{fill:url(#SVGID_20_);}
	.st13{fill:url(#SVGID_21_);}
	.st14{fill:url(#SVGID_22_);}
	.st15{fill:url(#SVGID_23_);}
	.st16{fill:url(#SVGID_24_);}
	
		.st17{fill-rule:evenodd;clip-rule:evenodd;fill:none;stroke:#FFFFFF;stroke-width:0.25;stroke-linecap:round;stroke-linejoin:round;stroke-miterlimit:10;}
	.st18{fill-rule:evenodd;clip-rule:evenodd;fill:none;stroke:#FFFFFF;stroke-width:0.25;stroke-miterlimit:10;}
	
		.st19{fill-rule:evenodd;clip-rule:evenodd;fill:none;stroke:#FFFFFF;stroke-width:0.1;stroke-linecap:round;stroke-linejoin:round;stroke-miterlimit:10;}
	.st20{fill:none;stroke:#FFFFFF;stroke-width:0.25;stroke-linecap:round;stroke-linejoin:round;stroke-miterlimit:10;}
	.st21{fill-rule:evenodd;clip-rule:evenodd;fill:#FFFFFF;stroke:#FFFFFF;stroke-width:0.25;stroke-miterlimit:10;}
	.st22{fill-rule:evenodd;clip-rule:evenodd;fill:none;stroke:#000000;stroke-width:0.25;stroke-miterlimit:10;}
	
		.st23{fill-rule:evenodd;clip-rule:evenodd;fill:none;stroke:#000000;stroke-width:0.1;stroke-linecap:round;stroke-linejoin:round;stroke-miterlimit:10;}
	.st24{fill:none;stroke:#000000;stroke-width:0.25;stroke-linecap:round;stroke-linejoin:round;stroke-miterlimit:10;}
	.st25{fill:url(#SVGID_25_);}
	.st26{fill:#93E9B9;}
	.st27{fill:#B4B5F2;}
	.st28{fill:#FFC887;}
	.st29{fill:#FFD288;}
	.st30{fill:#FF8DA6;}
	.st31{fill:#7BE5BE;}
	.st32{fill:#B7EEB2;}
	.st33{fill:#FFE188;}
	.st34{fill:#FF6BA6;}
	.st35{fill:#FFA4A6;}
	.st36{fill:#BFB9ED;}
	.st37{fill:#99AAFD;}
	.st38{fill:#FFBD87;}
</style>
<g>
	<g>
		<path class="st38" d="M51.56,88.68L36.29,75.34l-6.57,7.52L44.99,96.2c0.39,0.34,0.98,0.3,1.32-0.09L51.65,90c0,0,0,0,0,0
			C51.99,89.61,51.95,89.02,51.56,88.68z M50.77,90.06c-0.11,0.13-0.31,0.14-0.44,0.03c-0.13-0.11-0.14-0.31-0.03-0.44
			c0.11-0.13,0.1-0.33-0.03-0.44c0,0,0,0,0,0l-14.1-12.32c-0.13-0.11-0.14-0.31-0.03-0.44c0.11-0.13,0.31-0.14,0.44-0.03l14.1,12.32
			c0,0,0,0,0,0C51.06,89.08,51.1,89.67,50.77,90.06z"/>
		<path class="st38" d="M93.62,23.25c1.99-5.22,0.23-6.51-3.35-6.51c-3.48,0-8.67,1.22-13.8,1.22c-4.05,0-8.05-0.76-11.13-3.49
			C54.23,4.63,47.39,1.18,42.87,1.18h0c-9.35,0-8.76,14.77-15.55,18.17C0.01,33-6.72,64.54,13.66,82.73
			c15.75,14.06,25.91,21.09,33.98,21.09c5.92,0,10.71-3.78,15.75-11.34c5.85-8.78,11.12-9.79,27.3-16.58
			C120.93,63.23,85.82,43.73,93.62,23.25z M17.69,69.86C17.69,69.86,17.68,69.85,17.69,69.86c-0.09-0.07-0.15-0.14-0.17-0.22
			c-0.05-0.18,0.03-0.37,0.26-0.64c0.38-0.44,1.42-1.3,2.84-1.71c1.4-0.41,3.04-0.3,3.65,0.06c0.04,0.01,0.07,0.03,0.11,0.06
			l6.69,5.84c0.13,0.11,0.14,0.31,0.03,0.44c-0.11,0.13-0.31,0.14-0.44,0.03l-6.36-5.55c-0.02,0.02-0.04,0.04-0.06,0.07
			c-0.38,0.44-1.42,1.3-2.84,1.71c-0.98,0.29-1.87,0.28-2.38,0.24l8.35,7.29c0.13,0.11,0.14,0.31,0.03,0.44
			c-0.11,0.13-0.31,0.14-0.44,0.03L17.69,69.86z M30.27,74.63c-0.11,0.13-0.31,0.14-0.44,0.03l-5.64-4.93
			c-0.13-0.11-0.14-0.31-0.03-0.44c0.11-0.13,0.31-0.14,0.44-0.03l5.64,4.93C30.37,74.31,30.38,74.5,30.27,74.63z M27.07,79.71
			c-0.13-0.11-0.14-0.31-0.03-0.44l5.34-6.11c0.05-0.06,0.13-0.1,0.2-0.1c0,0,0.01,0,0.01,0c0.08-0.01,0.16,0.02,0.23,0.08
			l1.88,1.64c0.13,0.11,0.14,0.31,0.03,0.44c-0.11,0.13-0.31,0.14-0.44,0.03l-0.7-0.62l-0.62,0.7c-0.11,0.13-0.31,0.14-0.44,0.03
			c-0.13-0.11-0.14-0.31-0.03-0.44l0.62-0.7l-0.47-0.41l-4.93,5.64l0.94,0.82l0.62-0.7c0.11-0.13,0.31-0.14,0.44-0.03
			c0.13,0.11,0.14,0.31,0.03,0.44l-0.62,0.7l0.23,0.21c0.13,0.11,0.14,0.31,0.03,0.44c-0.11,0.13-0.31,0.14-0.44,0.03L27.07,79.71z
			 M52.12,90.41L52.12,90.41l-5.34,6.11c-0.57,0.65-1.55,0.71-2.2,0.15c0,0,0,0,0,0L29.07,83.12l0,0c-0.13-0.11-0.14-0.31-0.03-0.44
			l6.98-7.99c0.07-0.08,0.16-0.11,0.25-0.1c0.07,0,0.13,0.03,0.19,0.08l15.51,13.55C52.62,88.78,52.68,89.76,52.12,90.41z
			 M78.17,59.73c-6.05,9.33-13.83,12.41-25.24,12.45c-10.77,0.04-18.1-3.89-24.32-9.92c-2.63-2.55-3.31-5.66-7.35-8.63l0,0
			c3.6,0.68,7.04,0.03,10.47-0.08c7.54-0.26,15.32,4.7,22.53,4.55c7.26-0.16,11.77-4.93,17.97-4.83c3.48,0.05,6.63,0.75,10.7-0.16
			C80.41,55.68,79.43,57.79,78.17,59.73z M52.96,46.43c-10.8-0.21-16.07,7.52-33.53,5.39h0c2.07-1.11,4.37-2.76,6.06-4.47
			c3.71-3.76,6.66-8.05,11.66-11.19c6.99-4.39,12.41-4.54,16.87,0.12c4.94-3.79,10.15-5.52,18.56,1.69
			c3.83,3.29,6.4,7.33,9.02,10.51c1.11,1.34,2.11,2,3.63,3.11C70.44,53.81,63.99,45.63,52.96,46.43z"/>
		<path class="st38" d="M21.22,69.35c1.31-0.38,2.23-1.15,2.56-1.54c-0.47-0.14-1.69-0.3-2.99,0.08c-1.31,0.38-2.24,1.17-2.56,1.54
			C18.71,69.57,19.92,69.73,21.22,69.35z"/>
	</g>
</g>
</svg>
