<?xml version="1.0" encoding="utf-8"?>
<!-- Generator: Adobe Illustrator 24.0.1, SVG Export Plug-In . SVG Version: 6.00 Build 0)  -->
<svg version="1.1" id="Layer_1" xmlns="http://www.w3.org/2000/svg" xmlns:xlink="http://www.w3.org/1999/xlink" x="0px" y="0px"
	 viewBox="0 0 105 105" style="enable-background:new 0 0 105 105;" xml:space="preserve">
<style type="text/css">
	.st0{fill-rule:evenodd;clip-rule:evenodd;}
	.st1{fill-rule:evenodd;clip-rule:evenodd;fill:#DD5858;}
	.st2{fill-rule:evenodd;clip-rule:evenodd;fill:#606060;}
	.st3{fill:#FFFFFF;}
	
		.st4{fill-rule:evenodd;clip-rule:evenodd;fill:none;stroke:#000000;stroke-width:0.25;stroke-linecap:round;stroke-linejoin:round;stroke-miterlimit:10;}
	.st5{fill:#606060;}
	.st6{fill:none;stroke:#606060;stroke-linecap:round;stroke-linejoin:round;stroke-miterlimit:10;}
	.st7{fill-rule:evenodd;clip-rule:evenodd;fill:none;stroke:#DD5858;stroke-width:0.25;stroke-miterlimit:10;}
	.st8{fill-rule:evenodd;clip-rule:evenodd;fill:#FFFFFF;}
	.st9{fill:url(#SVGID_17_);}
	.st10{fill:url(#SVGID_18_);}
	.st11{fill:url(#SVGID_19_);}
	.st12{fill:url(#SVGID_20_);}
	.st13{fill:url(#SVGID_21_);}
	.st14{fill:url(#SVGID_22_);}
	.st15{fill:url(#SVGID_23_);}
	.st16{fill:url(#SVGID_24_);}
	
		.st17{fill-rule:evenodd;clip-rule:evenodd;fill:none;stroke:#FFFFFF;stroke-width:0.25;stroke-linecap:round;stroke-linejoin:round;stroke-miterlimit:10;}
	.st18{fill-rule:evenodd;clip-rule:evenodd;fill:none;stroke:#FFFFFF;stroke-width:0.25;stroke-miterlimit:10;}
	
		.st19{fill-rule:evenodd;clip-rule:evenodd;fill:none;stroke:#FFFFFF;stroke-width:0.1;stroke-linecap:round;stroke-linejoin:round;stroke-miterlimit:10;}
	.st20{fill:none;stroke:#FFFFFF;stroke-width:0.25;stroke-linecap:round;stroke-linejoin:round;stroke-miterlimit:10;}
	.st21{fill-rule:evenodd;clip-rule:evenodd;fill:#FFFFFF;stroke:#FFFFFF;stroke-width:0.25;stroke-miterlimit:10;}
	.st22{fill-rule:evenodd;clip-rule:evenodd;fill:none;stroke:#000000;stroke-width:0.25;stroke-miterlimit:10;}
	
		.st23{fill-rule:evenodd;clip-rule:evenodd;fill:none;stroke:#000000;stroke-width:0.1;stroke-linecap:round;stroke-linejoin:round;stroke-miterlimit:10;}
	.st24{fill:none;stroke:#000000;stroke-width:0.25;stroke-linecap:round;stroke-linejoin:round;stroke-miterlimit:10;}
	.st25{fill:url(#SVGID_25_);}
	.st26{fill:#93E9B9;}
	.st27{fill:#B4B5F2;}
	.st28{fill:#FFC887;}
	.st29{fill:#FFD288;}
	.st30{fill:#FF8DA6;}
	.st31{fill:#7BE5BE;}
	.st32{fill:#B7EEB2;}
	.st33{fill:#FFE188;}
	.st34{fill:#FF6BA6;}
	.st35{fill:#FFA4A6;}
	.st36{fill:#BFB9ED;}
	.st37{fill:#99AAFD;}
	.st38{fill:#FFBD87;}
</style>
<g>
	<path class="st26" d="M84.3,59.52L69.72,73.76l-6.9,0.62l-0.9,0.97l-4.4,4.74c-0.21,0.23-0.2,0.59,0.01,0.78
		c0.23,0.21,0.57,0.2,0.78-0.03l4.14-4.47l0.51,0.47l-4.14,4.47c-0.21,0.23-0.2,0.57,0.03,0.78c0.23,0.21,0.57,0.2,0.78-0.03
		l4.14-4.49l0.51,0.47l-4.16,4.47c-0.21,0.23-0.2,0.57,0.03,0.78c0.23,0.21,0.57,0.2,0.78-0.03l4.14-4.47l0.51,0.45l-4.14,4.47
		c-0.21,0.23-0.2,0.57,0.03,0.78c0.23,0.21,0.57,0.2,0.78-0.03L66.39,80l0.51,0.47l-4.14,4.47c-0.21,0.23-0.2,0.57,0.03,0.78
		c0.23,0.21,0.57,0.2,0.78-0.03l4.12-4.46l0.51,0.47l-4.14,4.47c-0.21,0.23-0.2,0.57,0.03,0.78c0.23,0.21,0.57,0.2,0.78-0.03
		L69,82.43l0.51,0.47l-4.16,4.47c-0.21,0.23-0.2,0.57,0.03,0.78s0.57,0.2,0.78-0.03l4.4-4.76l0.9-0.97l0.1-6.92l13.1-15.61
		c0.09-0.09,0.08-0.25-0.01-0.33C84.54,59.43,84.41,59.43,84.3,59.52z"/>
	<path class="st26" d="M92,41.74c-8.67-5.78-9.67-10.98-16.38-26.97C71.71,5.45,67.15,2.42,62.11,2.42
		c-9.43,0-20.54,10.61-32.19,10.61c-2.09,0-4.2-0.34-6.32-1.15c-1.48-0.56-2.63-0.82-3.53-0.82c-7.73,0,3.46,19.05-5.14,28.76
		c-29.86,33.71-0.16,27.61,4.82,37.57c8.16,16.33,22.8,25.21,37.07,25.21c9.3,0,18.45-3.77,25.54-11.72
		C106.45,63.89,109.65,53.5,92,41.74z M81.45,90.05c-6.51,7.29-15.26,11.31-24.63,11.31c-14.62,0-28.41-9.4-35.97-24.53
		c-1.64-3.28-5.44-4.94-9.11-6.55c-4.01-1.75-7.8-3.41-8.56-6.86C2.17,58.85,6.32,51.4,15.85,40.63c4.93-5.57,3.89-13.61,3.05-20.06
		c-0.44-3.37-0.89-6.85,0.03-7.9c0.14-0.16,0.41-0.38,1.13-0.38c0.77,0,1.81,0.25,3.1,0.74c2.14,0.82,4.42,1.23,6.76,1.23
		c6.41,0,12.47-2.97,18.32-5.85c4.98-2.45,9.69-4.76,13.87-4.76c3.23,0,8.02,1.2,12.38,11.6c1,2.4,1.89,4.58,2.68,6.5
		c4.58,11.24,6.47,15.9,14.15,21.02c6.73,4.48,9.98,8.5,10.56,13.03C102.8,63.04,97.27,72.33,81.45,90.05z"/>
	<path class="st26" d="M76.23,33.35c0,0-0.12-0.1-0.28-0.23C76.03,33.22,76.12,33.3,76.23,33.35z"/>
	<path class="st26" d="M25.69,73.73c0.21,0.06,0.45,0.11,0.75,0.12C26.17,73.84,25.93,73.78,25.69,73.73z"/>
	<path class="st26" d="M65.85,49.95c-0.8-3.35-3.93-3.83-2.94-7.86c0.59-2.41,5.41-4.56,6.09-6.83c-0.38,2.82-0.81,5.87-3.63,8.09
		c7.69-4.03,5.95-8.1,8.76-11.75c0,0,1.26,1.04,1.83,1.51c-0.73-0.89-0.58-3.73-3.87-6.36c-2.97-2.37-8.19-3.89-11.95-3.79
		c-18.62,0.48-11.51,24.99-26.99,28.98c-5.47,1.41-8.24-1.02-13.27-2.82C12.92,46.65,3.46,56.7,9.34,62.82
		c1.81,1.88,5.31,0.32,3.37-1.58c0.86,0.95-0.94,1.3-1.75,0.98c-2.03-0.82-1.15-3.08,0.22-4.14c2.92-2.27,9.77,1.85,13.08,2.76
		c5.25,1.45,8.68,3.28,13.47-0.31c0.13,5.52-7.11,2.83-10.06,2.76c-5.14-0.11-6.53,9.33-1.97,10.43c-2.73-0.82,0.9-5.69,3.75-5.7
		c4.54-0.02,8.58,5.78,13.05,1.85c-1.89,2.23-6.26,8.29-1.7,11.54c2.21,1.57,5.45-0.18,3.07-1.75c1.48,0.97-0.77,2.41-1.93,1.52
		c-1.89-1.45-0.09-6.55,1.17-7.61c1.7-1.45,4.04-1.99,5.94-3.1C55.3,66.84,68.03,59.06,65.85,49.95z"/>
	<path class="st26" d="M12.71,61.25c-0.07-0.07-0.14-0.15-0.24-0.23C12.56,61.1,12.63,61.17,12.71,61.25z"/>
</g>
</svg>
