<?xml version="1.0" encoding="utf-8"?>
<!-- Generator: Adobe Illustrator 24.0.1, SVG Export Plug-In . SVG Version: 6.00 Build 0)  -->
<svg version="1.1" id="Layer_1" xmlns="http://www.w3.org/2000/svg" xmlns:xlink="http://www.w3.org/1999/xlink" x="0px" y="0px"
	 viewBox="0 0 105 105" style="enable-background:new 0 0 105 105;" xml:space="preserve">
<style type="text/css">
	.st0{fill-rule:evenodd;clip-rule:evenodd;}
	.st1{fill-rule:evenodd;clip-rule:evenodd;fill:#DD5858;}
	.st2{fill-rule:evenodd;clip-rule:evenodd;fill:#606060;}
	.st3{fill:#FFFFFF;}
	
		.st4{fill-rule:evenodd;clip-rule:evenodd;fill:none;stroke:#000000;stroke-width:0.25;stroke-linecap:round;stroke-linejoin:round;stroke-miterlimit:10;}
	.st5{fill:#606060;}
	.st6{fill:none;stroke:#606060;stroke-linecap:round;stroke-linejoin:round;stroke-miterlimit:10;}
	.st7{fill-rule:evenodd;clip-rule:evenodd;fill:none;stroke:#DD5858;stroke-width:0.25;stroke-miterlimit:10;}
	.st8{fill-rule:evenodd;clip-rule:evenodd;fill:#FFFFFF;}
	.st9{fill:url(#SVGID_17_);}
	.st10{fill:url(#SVGID_18_);}
	.st11{fill:url(#SVGID_19_);}
	.st12{fill:url(#SVGID_20_);}
	.st13{fill:url(#SVGID_21_);}
	.st14{fill:url(#SVGID_22_);}
	.st15{fill:url(#SVGID_23_);}
	.st16{fill:url(#SVGID_24_);}
	
		.st17{fill-rule:evenodd;clip-rule:evenodd;fill:none;stroke:#FFFFFF;stroke-width:0.25;stroke-linecap:round;stroke-linejoin:round;stroke-miterlimit:10;}
	.st18{fill-rule:evenodd;clip-rule:evenodd;fill:none;stroke:#FFFFFF;stroke-width:0.25;stroke-miterlimit:10;}
	
		.st19{fill-rule:evenodd;clip-rule:evenodd;fill:none;stroke:#FFFFFF;stroke-width:0.1;stroke-linecap:round;stroke-linejoin:round;stroke-miterlimit:10;}
	.st20{fill:none;stroke:#FFFFFF;stroke-width:0.25;stroke-linecap:round;stroke-linejoin:round;stroke-miterlimit:10;}
	.st21{fill-rule:evenodd;clip-rule:evenodd;fill:#FFFFFF;stroke:#FFFFFF;stroke-width:0.25;stroke-miterlimit:10;}
	.st22{fill-rule:evenodd;clip-rule:evenodd;fill:none;stroke:#000000;stroke-width:0.25;stroke-miterlimit:10;}
	
		.st23{fill-rule:evenodd;clip-rule:evenodd;fill:none;stroke:#000000;stroke-width:0.1;stroke-linecap:round;stroke-linejoin:round;stroke-miterlimit:10;}
	.st24{fill:none;stroke:#000000;stroke-width:0.25;stroke-linecap:round;stroke-linejoin:round;stroke-miterlimit:10;}
	.st25{fill:url(#SVGID_25_);}
	.st26{fill:#93E9B9;}
	.st27{fill:#B4B5F2;}
	.st28{fill:#FFC887;}
	.st29{fill:#FFD288;}
	.st30{fill:#FF8DA6;}
	.st31{fill:#7BE5BE;}
	.st32{fill:#B7EEB2;}
	.st33{fill:#FFE188;}
	.st34{fill:#FF6BA6;}
	.st35{fill:#FFA4A6;}
	.st36{fill:#BFB9ED;}
	.st37{fill:#99AAFD;}
	.st38{fill:#FFBD87;}
</style>
<g>
	<path class="st27" d="M61.93,49.25h-0.76v-26.5c0-1.98-1.61-3.59-3.59-3.59H47.07c-1.98,0-3.59,1.61-3.59,3.59v26.5h-0.76
		c-3.89,0-7.06,3.16-7.06,7.06v22.45c0,3.89,3.17,7.06,7.06,7.06h19.2c3.89,0,7.06-3.17,7.06-7.06V56.32
		C68.99,52.42,65.82,49.25,61.93,49.25z M44.85,22.76c0-1.23,1-2.23,2.23-2.23h10.51c1.22,0,2.23,1,2.23,2.23v26.5H44.85V22.76z
		 M67.63,67.14c-1.48,0.8-8.13,3.91-14.96-0.19c-6.76-4.06-13.2-1.73-15.65-0.55V56.32c0-3.14,2.56-5.71,5.7-5.71h19.2
		c3.14,0,5.7,2.57,5.7,5.71V67.14z"/>
	<path class="st27" d="M91.34,22.27C75.58,8.21,65.42,1.18,57.35,1.18c-5.92,0-10.71,3.78-15.75,11.34
		c-5.85,8.78-11.12,9.79-27.3,16.58c-30.23,12.68,4.88,32.18-2.93,52.66c-1.99,5.22-0.23,6.51,3.35,6.51c3.48,0,8.67-1.22,13.8-1.22
		c4.05,0,8.05,0.76,11.13,3.49c11.12,9.85,17.96,13.3,22.48,13.3c9.35,0,8.76-14.77,15.55-18.17C104.99,72,111.72,40.46,91.34,22.27
		z M77.13,84.54c-3.32,1.66-5,5.51-6.63,9.22c-1.98,4.53-3.85,8.82-8.37,8.82c-4.71,0-11.79-4.25-21.65-12.98
		c-2.89-2.56-6.8-3.8-11.96-3.8c-2.89,0-5.79,0.38-8.35,0.71c-2.03,0.26-3.95,0.51-5.44,0.51c-1.47,0-2.38-0.24-2.71-0.72
		c-0.25-0.36-0.52-1.38,0.52-4.1c3.4-8.94-0.89-17.67-4.68-25.38c-3.14-6.39-6.11-12.43-4.22-17.47c1.32-3.53,4.97-6.51,11.14-9.1
		c2.43-1.02,4.63-1.92,6.58-2.71c11.38-4.63,16.09-6.55,21.28-14.33c5.04-7.56,9.44-10.79,14.71-10.79c8.2,0,19.19,8.31,33.15,20.78
		c8.69,7.76,12.65,18.22,11.15,29.46C99.9,65.82,90.73,77.74,77.13,84.54z"/>
	<path class="st27" d="M85.73,55.08c0.11-1.63,0.07-2.43-0.18-3.86c-0.38-2.19-0.93-3.7-1.89-5.22c-0.65-1.03-1.96-2.61-2.86-3.45
		c-0.08-0.08-0.14-0.14-0.18-0.18c0.02-0.15,0.08-0.47,0.15-0.87c0.08-0.46,0.17-1,0.19-1.12c0.05-0.03,0.15-0.07,0.21-0.1
		c0.2-0.09,0.56-0.29,0.82-0.44l0.36-0.21l0.16,0.05c0.47,0.13,1.18,0.18,1.55,0.11c0.2-0.04,0.48-0.14,0.66-0.23
		c0.27-0.14,0.38-0.24,0.53-0.48c0.11-0.17,0.2-0.34,0.15-0.53c-0.06-0.22-0.28-0.35-0.63-0.53c-0.63-0.34-2.33-1.07-2.63-1.09
		c-0.34-0.02-0.82,0.1-1.68,0.43c-1.29,0.49-1.61,0.64-1.97,1.13c0.03-0.13,0.05-0.23,0.05-0.27l0-0.04l0.27-0.12
		c0.53-0.24,1.14-0.59,1.53-0.89c0.23-0.18,0.27-0.2,0.97-0.21c0.25,0,0.7-0.06,1.03-0.14c0.48-0.11,0.69-0.2,1.02-0.41
		c0.73-0.46,1.07-1.01,0.91-1.45c-0.15-0.41-0.62-0.52-1.69-0.64c-0.31-0.03-0.68-0.09-0.81-0.12c-0.38-0.09-1.16-0.2-1.63-0.24
		c0.32-0.09,0.65-0.19,0.81-0.25c0.71-0.26,1.51-0.92,1.8-1.48c0.15-0.3,0.24-0.77,0.15-1.04c-0.14-0.39-0.51-0.38-1.91-0.32
		c-1.34,0.07-2.65,0.16-2.91,0.2c-0.32,0.06-1.14,0.5-1.71,0.89c-0.66,0.44-1.47,0.96-1.91,1.24c-0.04,0.02-0.1,0.06-0.15,0.09
		c-0.09-0.06-0.36-0.25-0.58-0.4c-0.24-0.17-0.51-0.38-0.59-0.46c-0.49-0.54-1.16-0.66-1.75-0.3c-0.09,0.06-0.17,0.12-0.23,0.21
		c-0.01-0.84-0.05-2.17-0.09-2.55c-0.11-1.01-0.42-1.89-0.83-2.35c-0.13-0.14-0.37-0.33-0.6-0.48c-0.31-0.19-0.45-0.26-0.68-0.24
		c-0.64,0.06-0.69,0.51-0.83,1.87v0c-0.05,0.52-0.16,1.53-0.24,2.25c-0.08,0.73-0.18,1.75-0.23,2.28c-0.05,0.54-0.12,1.23-0.15,1.55
		c-0.09,0.93-0.06,1.32,0.17,2.1c0.35,1.16,0.8,2.36,1.57,4.12c0.2,0.45,0.56,1.3,0.8,1.88c0.58,1.37,1.12,2.53,1.56,3.33
		c0.21,0.38,0.6,1.1,0.88,1.62c0.29,0.53,0.63,1.16,0.76,1.37c0.12,0.21,0.52,0.92,0.86,1.54c0.32,0.58,0.71,1.26,0.79,1.4
		c0.21,0.33,1.09,2.03,1.31,2.53c0.77,1.7,1.11,3.41,1.07,5.36c-0.02,0.87-0.12,1.6-0.34,2.29c-0.05,0.14-0.12,0.39,0.13,0.54
		c0.02,0.01,0.04,0.02,0.07,0.03c0.27,0.13,0.44-0.03,0.5-0.1c0.21-0.26,0.45-1.5,0.49-2.05c0.11-1.41-0.1-3.46-0.47-4.67
		c-0.47-1.54-0.82-2.33-1.71-3.86c-1.15-1.98-2.77-4.88-2.95-5.26c-0.06-0.12-0.25-0.49-0.45-0.84c-0.42-0.75-0.98-1.95-1.58-3.38
		c-0.25-0.59-0.68-1.58-0.97-2.2c-0.59-1.28-0.59-1.28-0.96-2.26c-0.32-0.83-0.64-1.8-0.71-2.17c-0.09-0.42,0-1.48,0.34-4.21
		c0.07-0.59,0.18-1.53,0.24-2.12c0.1-0.94,0.17-1.71,0.23-2.04c0.22,0.15,0.59,0.56,0.78,0.97c0.15,0.33,0.32,1.06,0.35,1.55
		c0.01,0.2,0.02,0.89,0.02,1.54c-0.01,1.09,0.01,1.83,0.05,2.94c0.02,0.67,0.11,0.88,0.67,1.76l0.47,0.73l0.21,0.86
		c0.31,1.31,0.46,1.65,1.48,3.27c1.44,2.31,1.55,2.54,1.72,3.6c0.06,0.35,0.21,1.09,0.34,1.66c0.24,1,0.3,1.17,0.48,1.25
		c0.15,0.07,0.31,0.04,0.42-0.06c0.14-0.13,0.17-0.34,0.09-0.58c-0.13-0.37-0.4-1.6-0.53-2.39c-0.07-0.41-0.17-0.94-0.24-1.11
		c-0.16-0.47-0.61-1.27-1.54-2.74c-1.01-1.6-1.14-1.89-1.43-3.1c-0.1-0.42-0.19-0.84-0.28-1.26c0.03-0.02,0.07-0.03,0.11-0.05
		l0.03-0.01c0.03-0.01,0.06-0.03,0.1-0.04l0.04-0.02c0.11-0.05,0.31-0.14,0.5-0.21c0.31-0.11,0.87-0.34,1.06-0.67
		c0.18-0.3,0.19-0.74,0.01-1.31c0.03,0.03,0.05,0.07,0.08,0.1c0.19,0.26,1.01,1.83,1.26,2.44c0.09,0.22,0.2,0.48,0.26,0.61
		c0.05,0.11,0.18,0.42,0.27,0.69c0.36,0.99,0.7,1.6,1.25,2.24c0.31,0.36,1.32,1.33,2.25,2.16c1.59,1.42,2.41,2.33,3.25,3.59
		c0.88,1.32,1.46,2.69,1.84,4.3c0.39,1.69,0.5,2.98,0.37,4.62c-0.04,0.56-0.03,1.27,0.08,3.03c0.14,2.36-0.11,5.44-0.6,7.32
		c-0.23,0.89-0.26,1-0.03,1.19c0.04,0.03,0.14,0.12,0.28,0.12c0.03,0,0.06,0,0.09-0.01c0.21-0.06,0.3-0.31,0.38-0.54
		c0.14-0.41,0.24-0.87,0.47-2.23c0.31-1.79,0.37-4.05,0.2-7.11C85.71,56.15,85.71,55.43,85.73,55.08z M72.64,35.32
		c-0.15,0.05-0.4,0.15-0.64,0.26c-0.21-1.16-0.31-2.07-0.28-2.53c0.01-0.14,0.07-0.25,0.17-0.3l0,0c0.04-0.02,0.08-0.03,0.13-0.03
		c0.06,0,0.13,0.02,0.2,0.06c0.18,0.11,0.43,0.39,0.57,0.65c0.24,0.44,0.46,1.06,0.49,1.29C73.32,35,73.33,35.1,72.64,35.32z
		 M75.81,35.76l-0.15-0.32c-0.16-0.33-0.43-0.85-0.62-1.14c-0.09-0.14-0.16-0.26-0.21-0.35c0.36-0.27,1.33-0.95,1.87-1.27
		c0.8-0.48,1.13-0.67,1.3-0.75c0.14-0.06,1.05-0.18,1.85-0.21c0.37-0.01,0.85-0.02,1.07-0.03c0.23-0.01,0.62-0.03,0.87-0.04
		c0.1-0.01,0.2-0.01,0.28-0.02c-0.02,0.08-0.05,0.17-0.1,0.25l0,0c-0.13,0.21-0.55,0.63-0.79,0.79c-0.2,0.13-0.78,0.35-1.37,0.49
		c-0.82,0.19-1.33,0.49-2.37,1.42c-0.28,0.25-0.79,0.63-1.18,0.89L75.81,35.76z M77.83,37.49l-0.29,1.11l0,0
		c-0.05,0.21-0.11,0.44-0.16,0.63c-0.22-0.31-0.35-0.59-0.69-1.42c-0.21-0.53-0.43-1.05-0.49-1.19l-0.03-0.06l0.1-0.08
		c0.45-0.35,1.77-1.13,2.31-1.36c0.64-0.27,1.05-0.37,1.21-0.38c0.24-0.01,1.1,0.1,1.82,0.25c0.25,0.05,0.64,0.11,0.87,0.13
		c0.21,0.02,0.54,0.07,0.73,0.1c0.07,0.01,0.13,0.03,0.17,0.04c-0.11,0.14-0.32,0.33-0.51,0.46c-0.38,0.24-1.03,0.38-1.73,0.38
		c-0.68-0.01-0.82,0-1.13,0.27c-0.35,0.31-1.2,0.76-1.92,1.03L77.83,37.49z M80.29,39.76c-0.1,0.12-0.15,0.27-0.14,0.4
		c-0.01,0.17-0.19,1.09-0.3,1.58c-0.41-0.35-1.19-1.09-1.35-1.29c0.01-0.15,0.17-0.62,0.47-1.17c0.29-0.52,0.3-0.53,0.44-0.61
		c0.35-0.22,1.89-0.79,2.4-0.89c0.3-0.06,0.32-0.06,0.89,0.19c0.26,0.11,0.74,0.32,1.08,0.47c0.26,0.11,0.46,0.2,0.6,0.27
		c-0.16,0.08-0.37,0.18-0.52,0.22c-0.25,0.06-0.75,0.03-1.16-0.07l-0.46-0.12l-0.46,0.29c-0.5,0.31-1.01,0.54-1.13,0.57
		C80.52,39.58,80.39,39.64,80.29,39.76z"/>
</g>
</svg>
