<?xml version="1.0" encoding="utf-8"?>
<!-- Generator: Adobe Illustrator 24.0.1, SVG Export Plug-In . SVG Version: 6.00 Build 0)  -->
<svg version="1.1" id="Layer_1" xmlns="http://www.w3.org/2000/svg" xmlns:xlink="http://www.w3.org/1999/xlink" x="0px" y="0px"
	 viewBox="0 0 105 105" style="enable-background:new 0 0 105 105;" xml:space="preserve">
<style type="text/css">
	.st0{fill-rule:evenodd;clip-rule:evenodd;}
	.st1{fill-rule:evenodd;clip-rule:evenodd;fill:#DD5858;}
	.st2{fill-rule:evenodd;clip-rule:evenodd;fill:#606060;}
	.st3{fill:#FFFFFF;}
	
		.st4{fill-rule:evenodd;clip-rule:evenodd;fill:none;stroke:#000000;stroke-width:0.25;stroke-linecap:round;stroke-linejoin:round;stroke-miterlimit:10;}
	.st5{fill:#606060;}
	.st6{fill:none;stroke:#606060;stroke-linecap:round;stroke-linejoin:round;stroke-miterlimit:10;}
	.st7{fill-rule:evenodd;clip-rule:evenodd;fill:none;stroke:#DD5858;stroke-width:0.25;stroke-miterlimit:10;}
	.st8{fill-rule:evenodd;clip-rule:evenodd;fill:#FFFFFF;}
	.st9{fill:url(#SVGID_17_);}
	.st10{fill:url(#SVGID_18_);}
	.st11{fill:url(#SVGID_19_);}
	.st12{fill:url(#SVGID_20_);}
	.st13{fill:url(#SVGID_21_);}
	.st14{fill:url(#SVGID_22_);}
	.st15{fill:url(#SVGID_23_);}
	.st16{fill:url(#SVGID_24_);}
	
		.st17{fill-rule:evenodd;clip-rule:evenodd;fill:none;stroke:#FFFFFF;stroke-width:0.25;stroke-linecap:round;stroke-linejoin:round;stroke-miterlimit:10;}
	.st18{fill-rule:evenodd;clip-rule:evenodd;fill:none;stroke:#FFFFFF;stroke-width:0.25;stroke-miterlimit:10;}
	
		.st19{fill-rule:evenodd;clip-rule:evenodd;fill:none;stroke:#FFFFFF;stroke-width:0.1;stroke-linecap:round;stroke-linejoin:round;stroke-miterlimit:10;}
	.st20{fill:none;stroke:#FFFFFF;stroke-width:0.25;stroke-linecap:round;stroke-linejoin:round;stroke-miterlimit:10;}
	.st21{fill-rule:evenodd;clip-rule:evenodd;fill:#FFFFFF;stroke:#FFFFFF;stroke-width:0.25;stroke-miterlimit:10;}
	.st22{fill-rule:evenodd;clip-rule:evenodd;fill:none;stroke:#000000;stroke-width:0.25;stroke-miterlimit:10;}
	
		.st23{fill-rule:evenodd;clip-rule:evenodd;fill:none;stroke:#000000;stroke-width:0.1;stroke-linecap:round;stroke-linejoin:round;stroke-miterlimit:10;}
	.st24{fill:none;stroke:#000000;stroke-width:0.25;stroke-linecap:round;stroke-linejoin:round;stroke-miterlimit:10;}
	.st25{fill:url(#SVGID_25_);}
	.st26{fill:#93E9B9;}
	.st27{fill:#B4B5F2;}
	.st28{fill:#FFC887;}
	.st29{fill:#FFD288;}
	.st30{fill:#FF8DA6;}
	.st31{fill:#7BE5BE;}
	.st32{fill:#B7EEB2;}
	.st33{fill:#FFE188;}
	.st34{fill:#FF6BA6;}
	.st35{fill:#FFA4A6;}
	.st36{fill:#BFB9ED;}
	.st37{fill:#99AAFD;}
	.st38{fill:#FFBD87;}
</style>
<g>
	<g>
		<path class="st31" d="M72.69,72.26C72.69,72.26,72.69,72.26,72.69,72.26c-0.02-0.05-0.04-0.1-0.06-0.15
			c-0.01-0.02-0.01-0.04-0.02-0.06c-0.01-0.03-0.02-0.07-0.03-0.11c-0.01-0.02-0.01-0.04-0.02-0.06c-0.01-0.04-0.02-0.07-0.02-0.11
			c0-0.02-0.01-0.03-0.01-0.05c0-0.01,0-0.01,0-0.02l-0.83,1.2l0.68-0.44L72.69,72.26z"/>
		<path class="st31" d="M68.28,77.83l-4.51,6.5c1.21-0.37,2.25-1.14,2.98-2.19l4.17-6.01c-0.43,0.27-0.86,0.55-1.29,0.83
			L68.28,77.83z"/>
		<path class="st31" d="M74.74,71.27C74.74,71.27,74.74,71.27,74.74,71.27c0-0.01-0.01-0.01-0.01-0.01
			c-0.01-0.01-0.02-0.03-0.03-0.04c0,0-0.01-0.01-0.01-0.01c-0.01-0.01-0.02-0.02-0.04-0.03c0,0,0,0-0.01,0
			c-0.02-0.01-0.04-0.02-0.06-0.02c0,0,0,0,0,0c-0.02,0-0.04-0.01-0.06-0.01c0,0-0.01,0-0.01,0c-0.01,0-0.02,0-0.03,0
			c-0.01,0-0.01,0-0.02,0c-0.01,0-0.03,0.01-0.04,0.02c0,0-0.01,0.01-0.01,0.01c-0.01,0.01-0.02,0.01-0.03,0.02
			c-0.01,0-0.01,0.01-0.02,0.01c-0.01,0.01-0.03,0.03-0.04,0.04c-0.07,0.11-0.05,0.25,0.04,0.33c0.08,0.07,0.2,0.08,0.3,0.02
			c0.05-0.04,0.09-0.09,0.11-0.15c0,0,0-0.01,0-0.01c0-0.01,0-0.01,0-0.02c0-0.01,0-0.02,0-0.03c0,0,0,0,0,0
			C74.78,71.36,74.76,71.31,74.74,71.27z"/>
		<path class="st31" d="M83.2,68.74c-0.43,0.28-0.73,0.7-0.83,1.2c-0.11,0.5-0.02,1.01,0.26,1.44c0.28,0.43,0.7,0.73,1.2,0.83
			c0.5,0.11,1.01,0.02,1.44-0.26c0.43-0.28,0.73-0.7,0.83-1.2c0.11-0.5,0.02-1.01-0.26-1.44C85.27,68.43,84.09,68.17,83.2,68.74z"/>
		<path class="st31" d="M74.77,69.4c0,0,0.01,0,0.01,0c0.03,0,0.06,0.01,0.1,0.01c0.01,0,0.03,0.01,0.04,0.01
			c0.02,0,0.04,0.01,0.06,0.01c0.01,0,0.02,0,0.03,0.01c0.82-1.24,1.19-2.73,1.05-4.22l-0.03-0.26l0.26-0.03
			c0.91-0.11,1.74-0.61,2.26-1.36c0.88-1.27,0.73-2.99-0.35-4.09l-0.13-0.13l1.06-2.45c0.13-0.3,0-0.64-0.29-0.78l-0.02-0.01
			c-0.15-0.06-0.31-0.07-0.46-0.01c-0.15,0.06-0.27,0.17-0.33,0.32l-1,2.29l-0.23-0.07c-1.33-0.39-2.76,0.12-3.55,1.26
			c-0.49,0.71-0.68,1.56-0.52,2.41c0.15,0.85,0.63,1.58,1.33,2.07c0.26,0.18,0.55,0.32,0.85,0.42l0.16,0.05l0.06,0.38
			c0.25,1.37-0.05,2.76-0.85,3.9l-0.21,0.3C74.32,69.38,74.55,69.37,74.77,69.4z M74.51,63.76c-1.11-0.77-1.39-2.31-0.62-3.42
			c0.77-1.11,2.31-1.39,3.42-0.62c1.11,0.77,1.39,2.3,0.62,3.42l0,0c-0.48,0.69-1.24,1.06-2.02,1.06
			C75.43,64.19,74.94,64.05,74.51,63.76z"/>
		<path class="st31" d="M84.92,67.2c-0.84-0.18-1.7-0.03-2.43,0.44c-0.77,0.49-1.29,1.3-1.43,2.21l-0.04,0.26l-0.26-0.03
			c-1.53-0.2-3.08,0.15-4.37,0.98l-0.23,0.15l-0.38-0.6c-0.11-0.17-0.25-0.31-0.4-0.42l0,0c-0.08-0.06-0.17-0.1-0.26-0.14
			c-0.01,0-0.02-0.01-0.02-0.01c-0.04-0.01-0.07-0.03-0.11-0.04c-0.02-0.01-0.03-0.01-0.05-0.01c-0.03-0.01-0.06-0.02-0.09-0.02
			c-0.01,0-0.03,0-0.04-0.01c-0.03-0.01-0.07-0.01-0.1-0.02c0,0-0.01,0-0.01,0c-0.52-0.05-1.04,0.17-1.36,0.63l0,0
			c-0.03,0.04-0.05,0.08-0.07,0.12c-0.01,0.01-0.01,0.03-0.02,0.04c-0.01,0.03-0.03,0.05-0.04,0.08c-0.01,0.01-0.01,0.03-0.02,0.04
			c-0.01,0.03-0.02,0.06-0.03,0.09c0,0.01-0.01,0.02-0.01,0.03c-0.01,0.04-0.02,0.08-0.03,0.13c0,0.01,0,0.01,0,0.02
			c-0.01,0.04-0.01,0.07-0.02,0.11c0,0.01,0,0.02,0,0.03c0,0.04-0.01,0.07-0.01,0.11c0,0.01,0,0.01,0,0.02c0,0.04,0,0.09,0,0.13
			c0,0.01,0,0.02,0,0.03c0,0.03,0.01,0.07,0.01,0.1c0,0.01,0,0.03,0.01,0.04c0.01,0.03,0.01,0.07,0.02,0.1c0,0.01,0,0.02,0.01,0.03
			c0.01,0.04,0.02,0.08,0.04,0.12c0,0.01,0.01,0.02,0.01,0.03c0.01,0.03,0.03,0.06,0.04,0.09c0.01,0.01,0.01,0.02,0.02,0.04
			c0.02,0.04,0.04,0.08,0.07,0.12c0,0,0,0,0,0l0.15,0.23l-0.51,0.33l-9.4,6.05c-1.08,0.7-1.88,1.71-2.29,2.9L76.79,71.7
			c1.17-0.75,2.56-1.01,3.93-0.71l0.37,0.08l0.04,0.16c0.08,0.31,0.22,0.6,0.39,0.87c0.96,1.49,2.96,1.93,4.45,0.97
			c1.49-0.96,1.93-2.96,0.97-4.45C86.48,67.88,85.76,67.38,84.92,67.2z M75.32,71.47c0,0.01,0,0.02,0,0.03c0,0.01,0,0.02,0,0.03
			c-0.02,0.12-0.06,0.23-0.13,0.34l0,0c-0.01,0.02-0.03,0.04-0.04,0.06c0,0,0,0,0,0c-0.08,0.09-0.17,0.16-0.28,0.21c0,0,0,0,0,0
			c-0.06,0.03-0.12,0.05-0.19,0.06c-0.05,0.01-0.1,0.01-0.14,0.01c-0.16,0-0.32-0.05-0.45-0.14C74.05,72.04,74.02,72.02,74,72
			c-0.01-0.01-0.02-0.01-0.02-0.02c-0.01-0.01-0.03-0.03-0.04-0.04c-0.01-0.01-0.02-0.02-0.03-0.04c-0.01-0.01-0.01-0.02-0.02-0.02
			c-0.01-0.01-0.02-0.03-0.03-0.04c-0.12-0.18-0.15-0.39-0.11-0.6c0.05-0.21,0.17-0.39,0.35-0.5c0.18-0.11,0.38-0.15,0.57-0.11
			c0.01,0,0.02,0,0.02,0c0.01,0,0.02,0,0.02,0.01c0.08,0.02,0.17,0.06,0.24,0.11c0.01,0,0.01,0.01,0.02,0.01c0,0,0,0,0,0
			c0.01,0.01,0.02,0.01,0.03,0.02c0.01,0.01,0.02,0.02,0.03,0.02c0.01,0.01,0.02,0.01,0.02,0.02c0.01,0.01,0.02,0.02,0.04,0.03
			c0.01,0.01,0.01,0.01,0.02,0.02c0.01,0.01,0.02,0.03,0.03,0.04c0,0,0.01,0.01,0.01,0.01c0.01,0.02,0.02,0.03,0.03,0.05
			c0.09,0.14,0.13,0.29,0.13,0.44c0,0,0,0,0,0C75.32,71.43,75.32,71.45,75.32,71.47z M86.64,70.87c-0.14,0.64-0.52,1.19-1.07,1.55
			c-0.4,0.26-0.86,0.39-1.33,0.39c-0.17,0-0.35-0.02-0.52-0.06c-0.64-0.14-1.19-0.52-1.55-1.07c-0.36-0.55-0.47-1.21-0.34-1.85
			c0.14-0.64,0.52-1.19,1.07-1.55l0,0c1.14-0.73,2.66-0.4,3.39,0.74C86.66,69.57,86.78,70.23,86.64,70.87z"/>
		<path class="st31" d="M92,41.74c-8.67-5.78-9.67-10.98-16.38-26.97C71.71,5.45,67.15,2.42,62.11,2.42
			c-9.43,0-20.54,10.61-32.19,10.61c-2.09,0-4.2-0.34-6.32-1.15c-1.48-0.56-2.63-0.82-3.53-0.82c-7.73,0,3.46,19.05-5.14,28.76
			c-29.86,33.71-0.16,27.61,4.82,37.57c8.16,16.33,22.8,25.21,37.07,25.21c9.3,0,18.45-3.78,25.54-11.72
			C106.45,63.89,109.65,53.51,92,41.74z M76.23,33.35c-0.11-0.05-0.2-0.13-0.28-0.23C76.11,33.25,76.22,33.35,76.23,33.35z
			 M49.04,70.48c-1.9,1.11-4.24,1.65-5.94,3.1c-1.26,1.07-3.06,6.17-1.17,7.61c1.16,0.89,3.41-0.55,1.93-1.52
			c2.39,1.57-0.86,3.32-3.07,1.75c-4.56-3.25-0.19-9.32,1.7-11.54c-4.46,3.94-8.51-1.87-13.05-1.85c-2.85,0.01-6.48,4.88-3.75,5.7
			c0.24,0.06,0.48,0.11,0.75,0.12c-0.29-0.01-0.53-0.06-0.75-0.12c-4.56-1.1-3.16-10.55,1.97-10.43c2.96,0.07,10.2,2.75,10.06-2.76
			c-4.78,3.59-8.21,1.76-13.47,0.31c-3.31-0.91-10.16-5.04-13.08-2.76c-1.37,1.06-2.25,3.33-0.22,4.14c0.8,0.32,2.6-0.03,1.75-0.98
			c1.94,1.9-1.56,3.46-3.37,1.58c-5.88-6.12,3.58-16.18,10.54-13.69c5.03,1.8,7.79,4.24,13.27,2.82
			c15.48-3.99,8.38-28.5,26.99-28.98c3.75-0.1,8.98,1.41,11.95,3.79c3.3,2.64,3.14,5.47,3.87,6.36c-0.57-0.47-1.83-1.51-1.83-1.51
			c-2.82,3.65-1.07,7.71-8.76,11.75c2.82-2.22,3.25-5.27,3.63-8.09c-0.68,2.27-5.5,4.42-6.09,6.83c-0.99,4.03,2.14,4.51,2.94,7.86
			C68.03,59.06,55.3,66.84,49.04,70.48z M12.71,61.25c-0.08-0.08-0.15-0.15-0.24-0.23C12.56,61.1,12.64,61.17,12.71,61.25z
			 M86.27,73.52c-1.75,1.12-4.08,0.62-5.21-1.13c-0.17-0.27-0.31-0.56-0.41-0.86l-0.05-0.01c-1.22-0.26-2.47-0.04-3.52,0.64
			c-0.06,0.04-2.23,1.44-4.97,3.2l-4.92,7.1c-0.95,1.37-2.37,2.29-4.01,2.58l-0.65,0.12l4.55-6.56c-3.27,2.11-6.59,3.94-6.64,3.98
			c0,0,0.8-2.85,2.79-4.23l0,0l7.26-4.67l2.36-3.4l0,0c0-0.01,0.01-0.02,0.01-0.02l0,0c0,0,0,0,0,0l0.99-1.43
			c0.71-1.02,0.98-2.26,0.76-3.49l-0.01-0.05c-0.3-0.11-0.58-0.26-0.84-0.44c-0.83-0.57-1.38-1.43-1.56-2.42
			c-0.18-0.99,0.04-1.99,0.61-2.82c0.88-1.27,2.43-1.86,3.92-1.53l0.81-1.85c0.12-0.28,0.35-0.5,0.63-0.61
			c0.22-0.09,0.46-0.1,0.68-0.05l0.01-0.01l0.18,0.08c0.58,0.25,0.85,0.93,0.59,1.51l-0.92,2.11c1.15,1.29,1.28,3.21,0.28,4.65
			c-0.56,0.81-1.41,1.36-2.38,1.55c0.09,1.48-0.29,2.96-1.09,4.22l0.11,0.08c0.22,0.15,0.42,0.35,0.58,0.59l0.09,0.14
			c1.28-0.76,2.77-1.09,4.25-0.95c0.22-0.96,0.8-1.79,1.63-2.32c0.85-0.55,1.85-0.73,2.84-0.51c0.98,0.21,1.82,0.8,2.37,1.64
			C88.53,70.06,88.02,72.39,86.27,73.52z"/>
		<path class="st31" d="M77.48,62.83c0.6-0.87,0.38-2.06-0.48-2.66c-0.33-0.23-0.71-0.34-1.09-0.34c-0.61,0-1.2,0.29-1.57,0.82
			c-0.6,0.87-0.38,2.06,0.48,2.66C75.69,63.91,76.88,63.69,77.48,62.83z"/>
	</g>
</g>
</svg>
