<?xml version="1.0" encoding="utf-8"?>
<!-- Generator: Adobe Illustrator 24.0.1, SVG Export Plug-In . SVG Version: 6.00 Build 0)  -->
<svg version="1.1" id="Layer_1" xmlns="http://www.w3.org/2000/svg" xmlns:xlink="http://www.w3.org/1999/xlink" x="0px" y="0px"
	 viewBox="0 0 105 105" style="enable-background:new 0 0 105 105;" xml:space="preserve">
<style type="text/css">
	.st0{fill-rule:evenodd;clip-rule:evenodd;}
	.st1{fill-rule:evenodd;clip-rule:evenodd;fill:#DD5858;}
	.st2{fill-rule:evenodd;clip-rule:evenodd;fill:#606060;}
	.st3{fill:#FFFFFF;}
	
		.st4{fill-rule:evenodd;clip-rule:evenodd;fill:none;stroke:#000000;stroke-width:0.25;stroke-linecap:round;stroke-linejoin:round;stroke-miterlimit:10;}
	.st5{fill:#606060;}
	.st6{fill:none;stroke:#606060;stroke-linecap:round;stroke-linejoin:round;stroke-miterlimit:10;}
	.st7{fill-rule:evenodd;clip-rule:evenodd;fill:none;stroke:#DD5858;stroke-width:0.25;stroke-miterlimit:10;}
	.st8{fill-rule:evenodd;clip-rule:evenodd;fill:#FFFFFF;}
	.st9{fill:url(#SVGID_17_);}
	.st10{fill:url(#SVGID_18_);}
	.st11{fill:url(#SVGID_19_);}
	.st12{fill:url(#SVGID_20_);}
	.st13{fill:url(#SVGID_21_);}
	.st14{fill:url(#SVGID_22_);}
	.st15{fill:url(#SVGID_23_);}
	.st16{fill:url(#SVGID_24_);}
	
		.st17{fill-rule:evenodd;clip-rule:evenodd;fill:none;stroke:#FFFFFF;stroke-width:0.25;stroke-linecap:round;stroke-linejoin:round;stroke-miterlimit:10;}
	.st18{fill-rule:evenodd;clip-rule:evenodd;fill:none;stroke:#FFFFFF;stroke-width:0.25;stroke-miterlimit:10;}
	
		.st19{fill-rule:evenodd;clip-rule:evenodd;fill:none;stroke:#FFFFFF;stroke-width:0.1;stroke-linecap:round;stroke-linejoin:round;stroke-miterlimit:10;}
	.st20{fill:none;stroke:#FFFFFF;stroke-width:0.25;stroke-linecap:round;stroke-linejoin:round;stroke-miterlimit:10;}
	.st21{fill-rule:evenodd;clip-rule:evenodd;fill:#FFFFFF;stroke:#FFFFFF;stroke-width:0.25;stroke-miterlimit:10;}
	.st22{fill-rule:evenodd;clip-rule:evenodd;fill:none;stroke:#000000;stroke-width:0.25;stroke-miterlimit:10;}
	
		.st23{fill-rule:evenodd;clip-rule:evenodd;fill:none;stroke:#000000;stroke-width:0.1;stroke-linecap:round;stroke-linejoin:round;stroke-miterlimit:10;}
	.st24{fill:none;stroke:#000000;stroke-width:0.25;stroke-linecap:round;stroke-linejoin:round;stroke-miterlimit:10;}
	.st25{fill:url(#SVGID_25_);}
	.st26{fill:#93E9B9;}
	.st27{fill:#B4B5F2;}
	.st28{fill:#FFC887;}
	.st29{fill:#FFD288;}
	.st30{fill:#FF8DA6;}
	.st31{fill:#7BE5BE;}
	.st32{fill:#B7EEB2;}
	.st33{fill:#FFE188;}
	.st34{fill:#FF6BA6;}
	.st35{fill:#FFA4A6;}
	.st36{fill:#BFB9ED;}
	.st37{fill:#99AAFD;}
	.st38{fill:#FFBD87;}
</style>
<g>
	<path class="st29" d="M93.62,23.25c1.99-5.22,0.23-6.51-3.35-6.51c-3.48,0-8.67,1.22-13.8,1.22c-4.05,0-8.05-0.76-11.13-3.49
		C54.23,4.63,47.39,1.18,42.87,1.18v1.24h0c4.7,0,11.79,4.25,21.65,12.98c2.89,2.56,6.8,3.8,11.96,3.8c2.89,0,5.79-0.38,8.35-0.71
		c2.03-0.26,3.95-0.51,5.44-0.51c1.47,0,2.38,0.24,2.71,0.72c0.25,0.36,0.52,1.38-0.52,4.1c-3.4,8.94,0.89,17.67,4.68,25.38
		c3.14,6.39,6.11,12.43,4.22,17.47c-1.32,3.53-4.97,6.51-11.14,9.1c-2.43,1.02-4.63,1.92-6.58,2.71
		c-11.38,4.63-16.09,6.55-21.28,14.33c-5.04,7.56-9.44,10.79-14.71,10.79c-8.2,0-19.19-8.31-33.15-20.78
		C5.81,74.05,1.85,63.59,3.35,52.35C5.1,39.18,14.27,27.26,27.87,20.46c3.32-1.66,5-5.51,6.63-9.22c1.98-4.53,3.85-8.82,8.37-8.82
		l0-1.24c0,0,0,0,0,0c-9.35,0-8.76,14.77-15.55,18.17C0.01,33-6.72,64.54,13.66,82.73c15.75,14.06,25.91,21.09,33.98,21.09
		c5.92,0,10.71-3.78,15.75-11.34c5.85-8.78,11.12-9.79,27.3-16.58C120.93,63.23,85.82,43.73,93.62,23.25z"/>
	<path class="st29" d="M72.24,53.26c-6.2-0.1-10.71,4.68-17.97,4.83c-7.22,0.16-14.99-4.8-22.53-4.55
		c-3.43,0.12-6.87,0.76-10.47,0.08l0,0c4.04,2.98,4.73,6.09,7.35,8.63c6.22,6.04,13.54,9.97,24.32,9.92
		c11.42-0.05,19.2-3.12,25.24-12.45c1.26-1.94,2.24-4.05,4.76-6.63C78.87,54,75.72,53.31,72.24,53.26z"/>
	<path class="st29" d="M25.49,47.34c-1.69,1.71-3.99,3.36-6.06,4.47h0c17.46,2.14,22.73-5.6,33.53-5.39
		c11.04-0.8,17.49,7.39,32.27,5.15c-1.52-1.11-2.53-1.76-3.63-3.11c-2.62-3.18-5.19-7.22-9.02-10.51
		c-8.4-7.21-13.62-5.48-18.56-1.69c-4.46-4.66-9.88-4.51-16.87-0.12C32.15,39.29,29.2,43.58,25.49,47.34z"/>
	<path class="st29" d="M50.1,87.05c-0.35-0.29-0.8-0.45-1.28-0.41c-0.48,0.04-0.87,0.24-1.19,0.63l-0.37,0.43l-3.17-2.67l1.42-1.69
		c0.29-0.35,0.45-0.84,0.41-1.28c-0.04-0.44-0.24-0.87-0.63-1.19c-0.35-0.29-0.8-0.45-1.28-0.41c-0.48,0.04-0.86,0.32-1.19,0.67
		l-0.51,0.61L27.5,69.26c-0.39-0.33-0.88-0.45-1.36-0.41c-0.36,0.03-0.67,0.18-0.94,0.36l-2.04-1.76c-0.13-0.11-0.29-0.14-0.45-0.12
		c-0.16,0.01-0.31,0.11-0.43,0.2l-0.37,0.43l-4.39-3.73c-0.26-0.22-0.66-0.18-0.88,0.04c-0.22,0.26-0.19,0.62,0.07,0.84l4.43,3.77
		l-0.33,0.39c-0.22,0.26-0.19,0.62,0.07,0.84l2.04,1.76c-0.34,0.75-0.18,1.71,0.48,2.25l14.81,12.5l-0.51,0.61
		c-0.29,0.35-0.45,0.8-0.41,1.28s0.24,0.87,0.63,1.19c0.74,0.62,1.82,0.53,2.44-0.21l1.42-1.69L45,90.47l-0.37,0.43
		c-0.62,0.74-0.53,1.82,0.21,2.44c0.74,0.62,1.82,0.53,2.44-0.21l3.03-3.6c0.29-0.35,0.45-0.8,0.41-1.28
		C50.68,87.76,50.49,87.38,50.1,87.05z M22.09,69.61l0.33-0.39l0.37-0.43l1.6,1.31l-0.73,0.87L22.09,69.61z M24.17,73.21
		c-0.26-0.22-0.3-0.7-0.08-0.96l1.72-2c0.11-0.13,0.26-0.22,0.46-0.24c0.2-0.02,0.37,0.05,0.5,0.16l0.17,0.15l-0.73,0.83l0.88,0.85
		l0.73-0.87l0.91,0.77L28,72.72l0.92,0.81l0.73-0.87l0.91,0.77l-1.46,1.7L30,75.89l1.46-1.74l0.91,0.77l-0.73,0.83l0.92,0.81
		l0.73-0.87l0.91,0.77l-0.73,0.83l0.92,0.81l0.73-0.87l0.91,0.77l-1.46,1.7l0.92,0.85l1.46-1.74l0.91,0.77l-2.6,3.04L24.17,73.21z
		 M36.21,83.37l2.6-3.04l2.74,2.3l-2.55,3.08L36.21,83.37z M39.4,88.69c-0.18,0.22-0.54,0.25-0.76,0.07
		c-0.22-0.18-0.25-0.54-0.07-0.76l0.91-1.09l3.25-3.87c0.04-0.04,0.08-0.05,0.11-0.09c0.04-0.04,0.03-0.08,0.07-0.13l0.8-0.96
		c0.07-0.09,0.23-0.18,0.35-0.19c0.12-0.01,0.33,0.05,0.42,0.17c0.22,0.18,0.25,0.54,0.07,0.76L39.4,88.69z M42.55,86.85l0.73-0.87
		l3.21,2.66l-0.73,0.87L42.55,86.85z M49.36,88.76l-3.03,3.6c-0.18,0.22-0.54,0.25-0.76,0.07c-0.22-0.18-0.25-0.54-0.07-0.76
		l3.03-3.6c0.07-0.09,0.23-0.18,0.35-0.19c0.2-0.02,0.32,0.01,0.41,0.13C49.51,88.19,49.54,88.55,49.36,88.76z"/>
</g>
</svg>
