<svg width="49" height="49" viewBox="0 0 49 49" fill="none" xmlns="http://www.w3.org/2000/svg">
<rect width="49" height="49" rx="10" fill="#FFA6A6"/>
<path d="M14.6774 22.0896C15.2121 20.0896 13.436 15.1041 12.4811 12.8613L11.3298 9.69392C12.9787 8.53254 16.9362 6.39981 19.5745 7.15999C22.2128 7.92017 27.6372 8.11022 30.0196 8.11022V12.8613C29.8393 15.0629 29.7332 19.8612 30.7517 21.4414C32.025 23.4167 38.2956 37.9535 39.0277 38.509C40.1403 39.3533 42.0837 39.1497 41.9971 40.5438C41.9951 40.5759 41.992 40.6076 41.9879 40.6386C41.8606 41.5954 37.2452 41.9966 35.0489 41.4102C32.8526 40.8238 31.8021 36.9967 31.1974 36.2868C30.5926 35.577 26.1682 34.2807 25.3724 33.9721C24.5766 33.6634 23.7172 32.3054 24.0674 30.8857C24.4175 29.466 24.8631 27.4907 24.8631 24.034C24.8631 21.2686 21.4542 18.3554 20.234 17.2957C20.0431 18.5405 20.6297 21.3241 20.6297 22.0896C20.6297 23.0463 21.6164 26.0093 21.8074 27.4907C21.9984 28.9722 20.757 31.7808 20.6297 33.3239C20.5023 34.8671 19.6757 36.919 21.2026 37.9535C22.8723 39.0847 23.5319 38.4366 24.1915 38.7606C25.6894 39.4966 26.1702 39.7329 25.2132 40.6386C24.5556 41.261 20.6297 42.0584 18.688 41.9966C16.7464 41.9349 14.6774 39.2189 14.3272 36.9967C13.9771 34.7745 13.818 33.4474 12.4811 30.8857C11.1442 28.324 10.8259 27.6142 11.0805 26.0093C11.3352 24.4043 14.0089 24.5895 14.6774 22.0896Z" fill="#FFFBF7"/>
<path d="M20.234 17.2957C20.0431 18.5405 20.6297 21.3241 20.6297 22.0896C20.6297 23.0463 21.6164 26.0093 21.8074 27.4907C21.9984 28.9722 20.757 31.7808 20.6297 33.3239C20.5023 34.8671 19.6757 36.919 21.2026 37.9535C22.8723 39.0847 23.5319 38.4366 24.1915 38.7606C25.6894 39.4966 26.1702 39.7329 25.2132 40.6386C24.5556 41.261 20.6297 42.0584 18.688 41.9966C16.7464 41.9349 14.6774 39.2189 14.3272 36.9967C13.9771 34.7745 13.818 33.4474 12.4811 30.8857C11.1442 28.324 10.8259 27.6142 11.0805 26.0093C11.3352 24.4043 14.0089 24.5895 14.6774 22.0896C15.2121 20.0896 13.436 15.1041 12.4811 12.8613L11.3298 9.69392C12.9787 8.53254 16.9362 6.39981 19.5745 7.15999M20.234 17.2957C21.4542 18.3554 24.8631 21.2686 24.8631 24.034C24.8631 27.4907 24.4175 29.466 24.0674 30.8857C23.7172 32.3054 24.5766 33.6634 25.3724 33.9721C26.1682 34.2807 30.5926 35.577 31.1974 36.2868C31.8021 36.9967 32.8526 40.8238 35.0489 41.4102C37.2452 41.9966 41.8606 41.5954 41.9879 40.6386C41.992 40.6076 41.9951 40.5759 41.9971 40.5438C42.0837 39.1497 40.1403 39.3533 39.0277 38.509V38.509C38.2956 37.9535 32.025 23.4167 30.7517 21.4414C29.7332 19.8612 29.8393 15.0629 30.0196 12.8613V8.11022C27.6372 8.11022 22.2128 7.92017 19.5745 7.15999M20.234 17.2957L19.5745 7.15999" stroke="#FFA6A6" stroke-width="0.5"/>
</svg>
