<?xml version="1.0" encoding="utf-8"?>
<!-- Generator: Adobe Illustrator 24.0.1, SVG Export Plug-In . SVG Version: 6.00 Build 0)  -->
<svg version="1.1" id="Layer_1" xmlns="http://www.w3.org/2000/svg" xmlns:xlink="http://www.w3.org/1999/xlink" x="0px" y="0px"
	 viewBox="0 0 105 105" style="enable-background:new 0 0 105 105;" xml:space="preserve">
<style type="text/css">
	.st0{fill-rule:evenodd;clip-rule:evenodd;}
	.st1{fill-rule:evenodd;clip-rule:evenodd;fill:#DD5858;}
	.st2{fill-rule:evenodd;clip-rule:evenodd;fill:#606060;}
	.st3{fill:#FFFFFF;}
	
		.st4{fill-rule:evenodd;clip-rule:evenodd;fill:none;stroke:#000000;stroke-width:0.25;stroke-linecap:round;stroke-linejoin:round;stroke-miterlimit:10;}
	.st5{fill:#606060;}
	.st6{fill:none;stroke:#606060;stroke-linecap:round;stroke-linejoin:round;stroke-miterlimit:10;}
	.st7{fill-rule:evenodd;clip-rule:evenodd;fill:none;stroke:#DD5858;stroke-width:0.25;stroke-miterlimit:10;}
	.st8{fill-rule:evenodd;clip-rule:evenodd;fill:#FFFFFF;}
	.st9{fill:url(#SVGID_17_);}
	.st10{fill:url(#SVGID_18_);}
	.st11{fill:url(#SVGID_19_);}
	.st12{fill:url(#SVGID_20_);}
	.st13{fill:url(#SVGID_21_);}
	.st14{fill:url(#SVGID_22_);}
	.st15{fill:url(#SVGID_23_);}
	.st16{fill:url(#SVGID_24_);}
	
		.st17{fill-rule:evenodd;clip-rule:evenodd;fill:none;stroke:#FFFFFF;stroke-width:0.25;stroke-linecap:round;stroke-linejoin:round;stroke-miterlimit:10;}
	.st18{fill-rule:evenodd;clip-rule:evenodd;fill:none;stroke:#FFFFFF;stroke-width:0.25;stroke-miterlimit:10;}
	
		.st19{fill-rule:evenodd;clip-rule:evenodd;fill:none;stroke:#FFFFFF;stroke-width:0.1;stroke-linecap:round;stroke-linejoin:round;stroke-miterlimit:10;}
	.st20{fill:none;stroke:#FFFFFF;stroke-width:0.25;stroke-linecap:round;stroke-linejoin:round;stroke-miterlimit:10;}
	.st21{fill-rule:evenodd;clip-rule:evenodd;fill:#FFFFFF;stroke:#FFFFFF;stroke-width:0.25;stroke-miterlimit:10;}
	.st22{fill-rule:evenodd;clip-rule:evenodd;fill:none;stroke:#000000;stroke-width:0.25;stroke-miterlimit:10;}
	
		.st23{fill-rule:evenodd;clip-rule:evenodd;fill:none;stroke:#000000;stroke-width:0.1;stroke-linecap:round;stroke-linejoin:round;stroke-miterlimit:10;}
	.st24{fill:none;stroke:#000000;stroke-width:0.25;stroke-linecap:round;stroke-linejoin:round;stroke-miterlimit:10;}
	.st25{fill:url(#SVGID_25_);}
	.st26{fill:#93E9B9;}
	.st27{fill:#B4B5F2;}
	.st28{fill:#FFC887;}
	.st29{fill:#FFD288;}
	.st30{fill:#FF8DA6;}
	.st31{fill:#7BE5BE;}
	.st32{fill:#B7EEB2;}
	.st33{fill:#FFE188;}
	.st34{fill:#FF6BA6;}
	.st35{fill:#FFA4A6;}
	.st36{fill:#BFB9ED;}
	.st37{fill:#99AAFD;}
	.st38{fill:#FFBD87;}
</style>
<g>
	<g>
		<path class="st33" d="M22.78,68.78l-0.37,0.43l-0.33,0.39l1.57,1.35l0.73-0.87L22.78,68.78z M36.94,78.8l-1.46,1.74l-0.92-0.85
			l1.46-1.7l-0.91-0.77l-0.73,0.87l-0.92-0.81l0.73-0.83l-0.91-0.77l-0.73,0.87l-0.91-0.81l0.73-0.83l-0.91-0.77L30,75.89
			l-0.91-0.77l1.46-1.7l-0.91-0.77l-0.73,0.87L28,72.72l0.73-0.83l-0.91-0.77l-0.73,0.87l-0.88-0.85l0.73-0.83l-0.17-0.15
			c-0.13-0.11-0.3-0.18-0.5-0.16c-0.2,0.02-0.35,0.11-0.46,0.24l-1.72,2c-0.22,0.26-0.18,0.74,0.08,0.96l11.08,9.4l2.6-3.04
			L36.94,78.8z M38.8,80.33l-2.6,3.04l2.78,2.34l2.55-3.08L38.8,80.33z M44.49,81.85c-0.09-0.11-0.3-0.18-0.42-0.17
			c-0.12,0.01-0.27,0.1-0.35,0.19l-0.8,0.96c-0.04,0.04-0.03,0.08-0.07,0.13c-0.04,0.04-0.08,0.05-0.11,0.09l-3.25,3.87L38.58,88
			c-0.18,0.22-0.15,0.58,0.07,0.76c0.22,0.18,0.58,0.15,0.76-0.07l5.15-6.08C44.74,82.39,44.71,82.03,44.49,81.85z M43.28,85.98
			l-0.73,0.87l3.21,2.66l0.73-0.87L43.28,85.98z M49.29,88c-0.09-0.11-0.21-0.14-0.41-0.13c-0.12,0.01-0.27,0.1-0.35,0.19l-3.03,3.6
			c-0.18,0.22-0.15,0.58,0.07,0.76c0.22,0.18,0.58,0.15,0.76-0.07l3.03-3.6C49.54,88.54,49.51,88.19,49.29,88z M49.29,88
			c-0.09-0.11-0.21-0.14-0.41-0.13c-0.12,0.01-0.27,0.1-0.35,0.19l-3.03,3.6c-0.18,0.22-0.15,0.58,0.07,0.76
			c0.22,0.18,0.58,0.15,0.76-0.07l3.03-3.6C49.54,88.54,49.51,88.19,49.29,88z M46.49,88.65l-3.21-2.66l-0.73,0.87l3.21,2.66
			L46.49,88.65z M44.49,81.85c-0.09-0.11-0.3-0.18-0.42-0.17c-0.12,0.01-0.27,0.1-0.35,0.19l-0.8,0.96
			c-0.04,0.04-0.03,0.08-0.07,0.13c-0.04,0.04-0.08,0.05-0.11,0.09l-3.25,3.87L38.58,88c-0.18,0.22-0.15,0.58,0.07,0.76
			c0.22,0.18,0.58,0.15,0.76-0.07l5.15-6.08C44.74,82.39,44.71,82.03,44.49,81.85z M41.54,82.63l-2.74-2.3l-2.6,3.04l2.78,2.34
			L41.54,82.63z M36.94,78.8l-1.46,1.74l-0.92-0.85l1.46-1.7l-0.91-0.77l-0.73,0.87l-0.92-0.81l0.73-0.83l-0.91-0.77l-0.73,0.87
			l-0.91-0.81l0.73-0.83l-0.91-0.77L30,75.89l-0.91-0.77l1.46-1.7l-0.91-0.77l-0.73,0.87L28,72.72l0.73-0.83l-0.91-0.77l-0.73,0.87
			l-0.88-0.85l0.73-0.83l-0.17-0.15c-0.13-0.11-0.3-0.18-0.5-0.16c-0.2,0.02-0.35,0.11-0.46,0.24l-1.72,2
			c-0.22,0.26-0.18,0.74,0.08,0.96l11.08,9.4l2.6-3.04L36.94,78.8z M22.78,68.78l-0.37,0.43l-0.33,0.39l1.57,1.35l0.73-0.87
			L22.78,68.78z M93.62,23.25c1.99-5.22,0.23-6.51-3.35-6.51c-3.48,0-8.67,1.22-13.8,1.22c-4.05,0-8.05-0.76-11.13-3.49
			C54.23,4.63,47.39,1.18,42.87,1.18c0,0,0,0,0,0c-9.35,0-8.76,14.77-15.55,18.17C0.01,33-6.72,64.54,13.66,82.73
			c15.75,14.06,25.91,21.09,33.98,21.09c5.92,0,10.71-3.78,15.75-11.34c5.85-8.78,11.12-9.79,27.3-16.58
			C120.93,63.23,85.82,43.73,93.62,23.25z M50.31,89.53l-3.03,3.6c-0.62,0.74-1.7,0.83-2.44,0.21c-0.74-0.62-0.83-1.7-0.21-2.44
			l0.37-0.43l-3.21-2.66l-1.42,1.69c-0.62,0.74-1.7,0.83-2.44,0.21c-0.39-0.33-0.58-0.71-0.63-1.19c-0.04-0.48,0.12-0.94,0.41-1.28
			l0.51-0.61l-14.81-12.5c-0.65-0.55-0.81-1.5-0.48-2.25l-2.04-1.76c-0.26-0.22-0.29-0.58-0.07-0.84l0.33-0.39l-4.43-3.77
			c-0.26-0.22-0.29-0.58-0.07-0.84c0.22-0.22,0.62-0.26,0.88-0.04l4.39,3.73l0.37-0.43c0.11-0.09,0.27-0.18,0.43-0.2
			c0.16-0.01,0.32,0.01,0.45,0.12l2.04,1.76c0.27-0.18,0.58-0.33,0.94-0.36c0.48-0.04,0.97,0.08,1.36,0.41l14.81,12.46l0.51-0.61
			c0.33-0.35,0.71-0.62,1.19-0.67c0.48-0.04,0.94,0.12,1.28,0.41c0.39,0.33,0.59,0.76,0.63,1.19c0.04,0.44-0.12,0.94-0.41,1.28
			l-1.43,1.69l3.17,2.67l0.37-0.43c0.33-0.39,0.71-0.58,1.19-0.63c0.48-0.04,0.94,0.12,1.28,0.41c0.39,0.33,0.59,0.71,0.63,1.19
			C50.77,88.72,50.6,89.18,50.31,89.53z M78.17,59.73c-6.05,9.33-13.83,12.41-25.24,12.45c-10.77,0.04-18.1-3.89-24.32-9.92
			c-1.31-1.27-2.14-2.69-3.15-4.16c-1-1.47-2.19-2.99-4.2-4.48c3.6,0.68,7.04,0.03,10.47-0.08c7.54-0.26,15.32,4.7,22.53,4.55
			c7.26-0.16,11.77-4.93,17.97-4.83c3.48,0.05,6.63,0.75,10.7-0.16C80.41,55.68,79.43,57.79,78.17,59.73z M52.96,46.42
			c-9.49-0.19-14.71,5.76-27.67,5.76c-1.79,0-3.73-0.11-5.85-0.37c2.07-1.11,4.37-2.76,6.06-4.47c3.71-3.76,6.66-8.05,11.66-11.19
			c7-4.39,12.41-4.54,16.87,0.12c4.94-3.79,10.15-5.52,18.56,1.69c3.83,3.29,6.41,7.33,9.02,10.51c1.11,1.34,2.11,2,3.63,3.11
			C70.44,53.81,63.99,45.63,52.96,46.42z M49.29,88c-0.09-0.11-0.21-0.14-0.41-0.13c-0.12,0.01-0.27,0.1-0.35,0.19l-3.03,3.6
			c-0.18,0.22-0.15,0.58,0.07,0.76c0.22,0.18,0.58,0.15,0.76-0.07l3.03-3.6C49.54,88.54,49.51,88.19,49.29,88z M46.49,88.65
			l-3.21-2.66l-0.73,0.87l3.21,2.66L46.49,88.65z M44.49,81.85c-0.09-0.11-0.3-0.18-0.42-0.17c-0.12,0.01-0.27,0.1-0.35,0.19
			l-0.8,0.96c-0.04,0.04-0.03,0.08-0.07,0.13c-0.04,0.04-0.08,0.05-0.11,0.09l-3.25,3.87L38.58,88c-0.18,0.22-0.15,0.58,0.07,0.76
			c0.22,0.18,0.58,0.15,0.76-0.07l5.15-6.08C44.74,82.39,44.71,82.03,44.49,81.85z M41.54,82.63l-2.74-2.3l-2.6,3.04l2.78,2.34
			L41.54,82.63z M36.94,78.8l-1.46,1.74l-0.92-0.85l1.46-1.7l-0.91-0.77l-0.73,0.87l-0.92-0.81l0.73-0.83l-0.91-0.77l-0.73,0.87
			l-0.91-0.81l0.73-0.83l-0.91-0.77L30,75.89l-0.91-0.77l1.46-1.7l-0.91-0.77l-0.73,0.87L28,72.72l0.73-0.83l-0.91-0.77l-0.73,0.87
			l-0.88-0.85l0.73-0.83l-0.17-0.15c-0.13-0.11-0.3-0.18-0.5-0.16c-0.2,0.02-0.35,0.11-0.46,0.24l-1.72,2
			c-0.22,0.26-0.18,0.74,0.08,0.96l11.08,9.4l2.6-3.04L36.94,78.8z M22.78,68.78l-0.37,0.43l-0.33,0.39l1.57,1.35l0.73-0.87
			L22.78,68.78z"/>
	</g>
</g>
</svg>
