<?xml version="1.0" encoding="utf-8"?>
<!-- Generator: Adobe Illustrator 24.0.1, SVG Export Plug-In . SVG Version: 6.00 Build 0)  -->
<svg version="1.1" id="Layer_1" xmlns="http://www.w3.org/2000/svg" xmlns:xlink="http://www.w3.org/1999/xlink" x="0px" y="0px"
	 viewBox="0 0 105 105" style="enable-background:new 0 0 105 105;" xml:space="preserve">
<style type="text/css">
	.st0{fill-rule:evenodd;clip-rule:evenodd;}
	.st1{fill-rule:evenodd;clip-rule:evenodd;fill:#DD5858;}
	.st2{fill-rule:evenodd;clip-rule:evenodd;fill:#606060;}
	.st3{fill:#FFFFFF;}
	
		.st4{fill-rule:evenodd;clip-rule:evenodd;fill:none;stroke:#000000;stroke-width:0.25;stroke-linecap:round;stroke-linejoin:round;stroke-miterlimit:10;}
	.st5{fill:#606060;}
	.st6{fill:none;stroke:#606060;stroke-linecap:round;stroke-linejoin:round;stroke-miterlimit:10;}
	.st7{fill-rule:evenodd;clip-rule:evenodd;fill:none;stroke:#DD5858;stroke-width:0.25;stroke-miterlimit:10;}
	.st8{fill-rule:evenodd;clip-rule:evenodd;fill:#FFFFFF;}
	.st9{fill:url(#SVGID_17_);}
	.st10{fill:url(#SVGID_18_);}
	.st11{fill:url(#SVGID_19_);}
	.st12{fill:url(#SVGID_20_);}
	.st13{fill:url(#SVGID_21_);}
	.st14{fill:url(#SVGID_22_);}
	.st15{fill:url(#SVGID_23_);}
	.st16{fill:url(#SVGID_24_);}
	
		.st17{fill-rule:evenodd;clip-rule:evenodd;fill:none;stroke:#FFFFFF;stroke-width:0.25;stroke-linecap:round;stroke-linejoin:round;stroke-miterlimit:10;}
	.st18{fill-rule:evenodd;clip-rule:evenodd;fill:none;stroke:#FFFFFF;stroke-width:0.25;stroke-miterlimit:10;}
	
		.st19{fill-rule:evenodd;clip-rule:evenodd;fill:none;stroke:#FFFFFF;stroke-width:0.1;stroke-linecap:round;stroke-linejoin:round;stroke-miterlimit:10;}
	.st20{fill:none;stroke:#FFFFFF;stroke-width:0.25;stroke-linecap:round;stroke-linejoin:round;stroke-miterlimit:10;}
	.st21{fill-rule:evenodd;clip-rule:evenodd;fill:#FFFFFF;stroke:#FFFFFF;stroke-width:0.25;stroke-miterlimit:10;}
	.st22{fill-rule:evenodd;clip-rule:evenodd;fill:none;stroke:#000000;stroke-width:0.25;stroke-miterlimit:10;}
	
		.st23{fill-rule:evenodd;clip-rule:evenodd;fill:none;stroke:#000000;stroke-width:0.1;stroke-linecap:round;stroke-linejoin:round;stroke-miterlimit:10;}
	.st24{fill:none;stroke:#000000;stroke-width:0.25;stroke-linecap:round;stroke-linejoin:round;stroke-miterlimit:10;}
	.st25{fill:url(#SVGID_25_);}
	.st26{fill:#93E9B9;}
	.st27{fill:#B4B5F2;}
	.st28{fill:#FFC887;}
	.st29{fill:#FFD288;}
	.st30{fill:#FF8DA6;}
	.st31{fill:#7BE5BE;}
	.st32{fill:#B7EEB2;}
	.st33{fill:#FFE188;}
	.st34{fill:#FF6BA6;}
	.st35{fill:#FFA4A6;}
	.st36{fill:#BFB9ED;}
	.st37{fill:#99AAFD;}
	.st38{fill:#FFBD87;}
</style>
<g>
	<g>
		<path class="st27" d="M61.93,49.25h-0.76v-26.5c0-1.98-1.61-3.59-3.59-3.59H47.07c-1.98,0-3.59,1.61-3.59,3.59v26.5h-0.76
			c-3.89,0-7.06,3.16-7.06,7.06v22.45c0,3.89,3.17,7.06,7.06,7.06h19.2c3.89,0,7.06-3.17,7.06-7.06V56.32
			C68.99,52.42,65.82,49.25,61.93,49.25z M44.85,22.76c0-1.23,1-2.23,2.23-2.23h10.51c1.22,0,2.23,1,2.23,2.23v26.5H44.85V22.76z
			 M67.63,67.14c-1.48,0.8-8.13,3.91-14.96-0.19c-6.76-4.06-13.2-1.73-15.65-0.55V56.32c0-3.14,2.56-5.71,5.7-5.71h19.2
			c3.14,0,5.7,2.57,5.7,5.71V67.14z"/>
		<path class="st27" d="M91.34,22.27C75.58,8.21,65.42,1.18,57.35,1.18c-5.92,0-10.71,3.78-15.75,11.34
			c-5.85,8.78-11.12,9.79-27.3,16.58c-30.23,12.68,4.88,32.18-2.93,52.66c-1.99,5.22-0.23,6.51,3.35,6.51
			c3.48,0,8.67-1.22,13.8-1.22c4.05,0,8.05,0.76,11.13,3.49c11.12,9.85,17.96,13.3,22.48,13.3c9.35,0,8.76-14.77,15.55-18.17
			C104.99,72,111.72,40.46,91.34,22.27z M77.13,84.54c-3.32,1.66-5,5.51-6.63,9.22c-1.98,4.53-3.85,8.82-8.37,8.82
			c-4.71,0-11.79-4.25-21.65-12.98c-2.89-2.56-6.8-3.8-11.96-3.8c-2.89,0-5.79,0.38-8.35,0.71c-2.03,0.26-3.95,0.51-5.44,0.51
			c-1.47,0-2.38-0.24-2.71-0.72c-0.25-0.36-0.52-1.38,0.52-4.1c3.4-8.94-0.89-17.67-4.68-25.38c-3.14-6.39-6.11-12.43-4.22-17.47
			c1.32-3.53,4.97-6.51,11.14-9.1c2.43-1.02,4.63-1.92,6.58-2.71c11.38-4.63,16.09-6.55,21.28-14.33
			c5.04-7.56,9.44-10.79,14.71-10.79c8.2,0,19.19,8.31,33.15,20.78c8.69,7.76,12.65,18.22,11.15,29.46
			C99.9,65.82,90.73,77.74,77.13,84.54z"/>
		<path class="st27" d="M86.82,59.68c-0.12-0.05-0.12-0.05-0.23-0.1c-0.61-0.28-0.9-0.42-1.21-0.59c-1.26-0.73-2.5-5.4-3.92-13.68
			c-0.69-4.03,0.09-8.98,2.37-14.86c0.11-0.27-0.03-0.58-0.3-0.68c-0.27-0.11-0.58,0.03-0.68,0.3c-2.35,6.05-3.16,11.19-2.43,15.43
			c1.53,8.9,2.74,13.43,4.44,14.42c0.34,0.2,0.66,0.35,1.3,0.64c0.12,0.05,0.12,0.05,0.23,0.1c1.97,0.9,2.58,1.47,2.4,2.59
			c-0.19,1.17-0.83,1.29-3.85,0.91c-1.13-0.15-1.52-0.19-2.16-0.25c-0.71-0.07-1.55-0.84-2.53-2.34c-0.75-1.15-0.72-1.09-2.92-5.31
			c-2.14-4.11-3.5-6.2-5.18-7.46c-0.37-0.28-0.74-0.5-1.12-0.66c-4.8-2-6.34-4.25-5.31-7.75c0.27-0.91,0.87-1.58,2.13-2.52
			c0.19-0.14,0.88-0.64,0.92-0.67c3.2-2.35,4.37-4.49,3.64-8.84c-0.05-0.29-0.32-0.48-0.61-0.43c-0.29,0.05-0.48,0.32-0.43,0.61
			c0.65,3.89-0.32,5.67-3.23,7.81c-0.03,0.03-0.73,0.53-0.92,0.68c-1.42,1.06-2.16,1.88-2.51,3.07c-1.21,4.09,0.67,6.83,5.92,9.02
			c0.3,0.12,0.59,0.3,0.9,0.53c1.5,1.13,2.81,3.14,4.87,7.1c2.23,4.28,2.19,4.21,2.97,5.41c1.15,1.76,2.18,2.71,3.32,2.82
			c0.62,0.06,1.01,0.1,2.12,0.25c1.8,0.23,2.51,0.28,3.23,0.14c1.02-0.2,1.62-0.82,1.8-1.93C90.11,61.61,89.19,60.76,86.82,59.68z"
			/>
		<path class="st27" d="M75.79,30.21c0,0-3.74,1.75-2.15,5.99L75.79,30.21z"/>
	</g>
</g>
</svg>
