<?xml version="1.0" encoding="utf-8"?>
<!-- Generator: Adobe Illustrator 24.0.1, SVG Export Plug-In . SVG Version: 6.00 Build 0)  -->
<svg version="1.1" id="Layer_1" xmlns="http://www.w3.org/2000/svg" xmlns:xlink="http://www.w3.org/1999/xlink" x="0px" y="0px"
	 viewBox="0 0 105 105" style="enable-background:new 0 0 105 105;" xml:space="preserve">
<style type="text/css">
	.st0{fill-rule:evenodd;clip-rule:evenodd;}
	.st1{fill-rule:evenodd;clip-rule:evenodd;fill:#DD5858;}
	.st2{fill-rule:evenodd;clip-rule:evenodd;fill:#606060;}
	.st3{fill:#FFFFFF;}
	
		.st4{fill-rule:evenodd;clip-rule:evenodd;fill:none;stroke:#000000;stroke-width:0.25;stroke-linecap:round;stroke-linejoin:round;stroke-miterlimit:10;}
	.st5{fill:#606060;}
	.st6{fill:none;stroke:#606060;stroke-linecap:round;stroke-linejoin:round;stroke-miterlimit:10;}
	.st7{fill-rule:evenodd;clip-rule:evenodd;fill:none;stroke:#DD5858;stroke-width:0.25;stroke-miterlimit:10;}
	.st8{fill-rule:evenodd;clip-rule:evenodd;fill:#FFFFFF;}
	.st9{fill:url(#SVGID_17_);}
	.st10{fill:url(#SVGID_18_);}
	.st11{fill:url(#SVGID_19_);}
	.st12{fill:url(#SVGID_20_);}
	.st13{fill:url(#SVGID_21_);}
	.st14{fill:url(#SVGID_22_);}
	.st15{fill:url(#SVGID_23_);}
	.st16{fill:url(#SVGID_24_);}
	
		.st17{fill-rule:evenodd;clip-rule:evenodd;fill:none;stroke:#FFFFFF;stroke-width:0.25;stroke-linecap:round;stroke-linejoin:round;stroke-miterlimit:10;}
	.st18{fill-rule:evenodd;clip-rule:evenodd;fill:none;stroke:#FFFFFF;stroke-width:0.25;stroke-miterlimit:10;}
	
		.st19{fill-rule:evenodd;clip-rule:evenodd;fill:none;stroke:#FFFFFF;stroke-width:0.1;stroke-linecap:round;stroke-linejoin:round;stroke-miterlimit:10;}
	.st20{fill:none;stroke:#FFFFFF;stroke-width:0.25;stroke-linecap:round;stroke-linejoin:round;stroke-miterlimit:10;}
	.st21{fill-rule:evenodd;clip-rule:evenodd;fill:#FFFFFF;stroke:#FFFFFF;stroke-width:0.25;stroke-miterlimit:10;}
	.st22{fill-rule:evenodd;clip-rule:evenodd;fill:none;stroke:#000000;stroke-width:0.25;stroke-miterlimit:10;}
	
		.st23{fill-rule:evenodd;clip-rule:evenodd;fill:none;stroke:#000000;stroke-width:0.1;stroke-linecap:round;stroke-linejoin:round;stroke-miterlimit:10;}
	.st24{fill:none;stroke:#000000;stroke-width:0.25;stroke-linecap:round;stroke-linejoin:round;stroke-miterlimit:10;}
	.st25{fill:url(#SVGID_25_);}
	.st26{fill:#93E9B9;}
	.st27{fill:#B4B5F2;}
	.st28{fill:#FFC887;}
	.st29{fill:#FFD288;}
	.st30{fill:#FF8DA6;}
	.st31{fill:#7BE5BE;}
	.st32{fill:#B7EEB2;}
	.st33{fill:#FFE188;}
	.st34{fill:#FF6BA6;}
	.st35{fill:#FFA4A6;}
	.st36{fill:#BFB9ED;}
	.st37{fill:#99AAFD;}
	.st38{fill:#FFBD87;}
</style>
<g>
	<g>
		<path class="st26" d="M77.93,63.14L77.93,63.14c0.77-1.12,0.49-2.65-0.62-3.42c-1.11-0.77-2.65-0.49-3.42,0.62
			c-0.77,1.11-0.49,2.65,0.62,3.42c0.43,0.29,0.91,0.44,1.4,0.44C76.69,64.19,77.46,63.82,77.93,63.14z M74.83,63.31
			c-0.87-0.6-1.08-1.79-0.48-2.66c0.37-0.53,0.97-0.82,1.57-0.82c0.38,0,0.76,0.11,1.09,0.34c0.87,0.6,1.08,1.79,0.48,2.66
			C76.88,63.69,75.69,63.91,74.83,63.31z"/>
		<path class="st26" d="M75.2,70.97c-0.01-0.02-0.02-0.03-0.03-0.05c0,0-0.01-0.01-0.01-0.01c-0.01-0.01-0.02-0.03-0.04-0.04
			c-0.01-0.01-0.01-0.01-0.02-0.02c-0.01-0.01-0.02-0.02-0.04-0.03c-0.01-0.01-0.01-0.01-0.02-0.02c-0.01-0.01-0.02-0.02-0.03-0.03
			c-0.01-0.01-0.02-0.01-0.03-0.02c0,0,0,0,0,0c-0.01,0-0.01-0.01-0.02-0.01c-0.07-0.05-0.16-0.08-0.24-0.1
			c-0.01,0-0.02-0.01-0.03-0.01c-0.01,0-0.01,0-0.02,0c-0.19-0.04-0.4,0-0.58,0.11c-0.18,0.12-0.3,0.29-0.35,0.5
			c-0.05,0.21-0.01,0.42,0.11,0.6c0.01,0.01,0.02,0.03,0.03,0.04c0.01,0.01,0.01,0.02,0.02,0.02c0.01,0.01,0.02,0.03,0.03,0.04
			c0.01,0.01,0.02,0.03,0.04,0.04c0.01,0.01,0.02,0.02,0.02,0.02c0.02,0.02,0.05,0.04,0.08,0.06c0.13,0.09,0.29,0.14,0.45,0.14
			c0.05,0,0.1,0,0.14-0.01c0.07-0.01,0.13-0.03,0.19-0.06c0,0,0,0,0,0c0.11-0.05,0.2-0.12,0.28-0.21c0,0,0,0,0,0
			c0.01-0.02,0.03-0.04,0.04-0.06l0,0c0.07-0.1,0.11-0.22,0.13-0.34c0-0.01,0-0.02,0-0.02c0-0.01,0-0.02,0-0.03
			c0-0.02,0-0.03,0-0.05c0,0,0,0,0,0C75.32,71.26,75.28,71.11,75.2,70.97z M74.77,71.44c0,0.01,0,0.01,0,0.02c0,0,0,0.01,0,0.01
			c-0.01,0.06-0.05,0.11-0.11,0.15c-0.09,0.06-0.21,0.05-0.3-0.02c-0.1-0.08-0.12-0.23-0.05-0.33c0.01-0.02,0.02-0.03,0.04-0.04
			c0,0,0.01-0.01,0.01-0.01c0.01-0.01,0.02-0.02,0.03-0.02c0,0,0.01-0.01,0.01-0.01c0.01-0.01,0.03-0.01,0.04-0.02
			c0.01,0,0.01,0,0.02,0c0.01,0,0.02,0,0.03,0c0,0,0.01,0,0.01,0c0.02,0,0.04,0,0.06,0.01c0,0,0,0,0,0c0.02,0,0.04,0.01,0.05,0.02
			c0,0,0,0,0.01,0c0.01,0.01,0.02,0.02,0.04,0.03c0.01,0,0.01,0.01,0.02,0.01c0.01,0.01,0.02,0.02,0.03,0.04
			c0,0,0.01,0.01,0.01,0.01c0,0,0,0,0,0c0.03,0.04,0.04,0.09,0.04,0.13c0,0,0,0,0,0.01C74.78,71.42,74.78,71.43,74.77,71.44z"/>
		<path class="st26" d="M85.03,66.67c-0.98-0.21-1.99-0.03-2.84,0.51c-0.82,0.53-1.41,1.37-1.63,2.32
			c-1.48-0.14-2.97,0.19-4.25,0.95l-0.09-0.14c-0.15-0.24-0.35-0.44-0.58-0.59l-0.11-0.08c0.8-1.25,1.18-2.73,1.09-4.22
			c0.96-0.19,1.82-0.74,2.38-1.55c1-1.43,0.87-3.36-0.28-4.65l0.92-2.11c0.25-0.58-0.02-1.26-0.59-1.51l-0.16-0.07l-0.01,0.01
			c-0.23-0.06-0.48-0.05-0.71,0.04c-0.29,0.11-0.51,0.33-0.63,0.61l-0.81,1.85c-1.49-0.33-3.04,0.26-3.92,1.53
			c-0.57,0.83-0.79,1.83-0.61,2.82c0.18,0.99,0.73,1.85,1.56,2.42c0.26,0.18,0.54,0.33,0.84,0.44l0.01,0.05
			c0.22,1.23-0.05,2.47-0.76,3.49l-1,1.44c0,0,0,0,0,0l0,0c-0.01,0.01-0.01,0.01-0.01,0.02l0,0l-2.36,3.4l-7.26,4.67l0,0
			c-1.39,0.9-2.35,2.27-2.71,3.88c-0.01,0.02-0.01,0.05-0.02,0.08l0.28,0.05l0.14,0.21c0.05-0.04,2.88-1.85,6.15-3.96l-4.55,6.56
			l0.65-0.12c1.64-0.3,3.07-1.22,4.01-2.58l4.92-7.1c2.74-1.76,4.91-3.16,4.97-3.2c1.05-0.67,2.3-0.9,3.52-0.64l0.05,0.01
			c0.1,0.3,0.23,0.59,0.41,0.86c0.72,1.12,1.94,1.73,3.17,1.73c0.7,0,1.4-0.19,2.03-0.6c1.75-1.13,2.25-3.46,1.13-5.21
			C86.86,67.46,86.02,66.88,85.03,66.67z M74.31,69.13c0.79-1.14,1.09-2.53,0.85-3.9l-0.06-0.38l-0.16-0.05
			c-0.31-0.1-0.59-0.24-0.85-0.42c-0.71-0.49-1.18-1.23-1.33-2.07c-0.15-0.85,0.03-1.7,0.52-2.41c0.79-1.14,2.22-1.64,3.55-1.26
			l0.23,0.07l1-2.29c0.06-0.15,0.18-0.26,0.33-0.32c0.15-0.06,0.31-0.06,0.46,0.01l0.02,0.01c0.29,0.14,0.42,0.48,0.29,0.78
			l-1.06,2.45l0.13,0.13c1.08,1.1,1.23,2.82,0.35,4.09c-0.52,0.75-1.34,1.25-2.26,1.36l-0.26,0.03l0.03,0.26
			c0.14,1.48-0.23,2.98-1.05,4.22c-0.01,0-0.02,0-0.03-0.01c-0.02,0-0.04-0.01-0.06-0.01c-0.01,0-0.03-0.01-0.04-0.01
			c-0.03-0.01-0.07-0.01-0.1-0.02c0,0,0,0-0.01,0c-0.22-0.03-0.45-0.02-0.67,0.03L74.31,69.13z M72.53,71.7c0,0.01,0,0.01,0,0.02
			c0,0.02,0.01,0.04,0.01,0.05c0.01,0.04,0.01,0.07,0.02,0.11c0,0.02,0.01,0.04,0.02,0.06c0.01,0.04,0.02,0.07,0.03,0.1
			c0.01,0.02,0.01,0.04,0.02,0.06c0.02,0.05,0.04,0.1,0.06,0.15c0,0,0,0,0,0l-0.3,0.19l-0.7,0.45L72.53,71.7z M66.75,82.14
			c-0.73,1.05-1.77,1.82-2.98,2.19l4.51-6.5l1.47-0.95c0.39-0.25,0.78-0.5,1.17-0.75L66.75,82.14z M85.98,73.06
			c-1.49,0.96-3.49,0.53-4.45-0.97c-0.17-0.27-0.3-0.56-0.39-0.87l-0.04-0.16l-0.37-0.08c-1.36-0.29-2.76-0.04-3.93,0.71
			L61.24,81.71c0.41-1.19,1.21-2.21,2.29-2.9l0,0L73,72.71l0.44-0.28l-0.15-0.23c0,0,0,0,0,0c-0.02-0.04-0.05-0.08-0.07-0.12
			c-0.01-0.01-0.01-0.02-0.02-0.04c-0.01-0.03-0.03-0.06-0.04-0.09c0-0.01-0.01-0.02-0.01-0.03c-0.02-0.04-0.03-0.08-0.04-0.12
			c0-0.01,0-0.02-0.01-0.03c-0.01-0.03-0.02-0.06-0.02-0.1c0-0.01,0-0.03-0.01-0.04c-0.01-0.03-0.01-0.07-0.01-0.1
			c0-0.01,0-0.02,0-0.03c0-0.04,0-0.09,0-0.13c0-0.01,0-0.02,0-0.02c0-0.04,0-0.07,0.01-0.11c0-0.01,0-0.02,0-0.03
			c0-0.04,0.01-0.07,0.02-0.11c0-0.01,0-0.01,0-0.02c0.01-0.04,0.02-0.08,0.03-0.13c0-0.01,0.01-0.02,0.01-0.03
			c0.01-0.03,0.02-0.06,0.03-0.09c0.01-0.01,0.01-0.03,0.02-0.04c0.01-0.03,0.02-0.05,0.04-0.07c0.01-0.01,0.01-0.03,0.02-0.04
			c0.02-0.04,0.05-0.08,0.07-0.12l0,0l0,0c0,0,0,0,0,0c0.32-0.45,0.84-0.67,1.36-0.62c0,0,0.01,0,0.01,0c0.04,0,0.07,0.01,0.11,0.02
			c0.01,0,0.02,0,0.04,0.01c0.03,0.01,0.06,0.02,0.1,0.02c0.01,0,0.03,0.01,0.04,0.01c0.04,0.01,0.09,0.03,0.13,0.05c0,0,0,0,0,0
			c0.09,0.04,0.18,0.09,0.26,0.14l0,0c0.16,0.11,0.29,0.25,0.4,0.42l0.38,0.6l0.23-0.15c1.29-0.83,2.85-1.18,4.37-0.98l0.26,0.03
			l0.04-0.26c0.15-0.91,0.67-1.72,1.43-2.21c0.72-0.47,1.58-0.62,2.43-0.44c0.84,0.18,1.56,0.68,2.03,1.4
			C87.9,70.1,87.47,72.1,85.98,73.06z"/>
		<path class="st26" d="M82.91,68.28L82.91,68.28c-0.55,0.36-0.93,0.9-1.07,1.55c-0.14,0.64-0.02,1.3,0.34,1.85
			c0.36,0.55,0.9,0.93,1.55,1.07c0.17,0.04,0.35,0.06,0.52,0.06c0.47,0,0.92-0.13,1.33-0.39c0.55-0.35,0.93-0.9,1.07-1.55
			c0.14-0.64,0.02-1.3-0.33-1.85C85.57,67.88,84.05,67.55,82.91,68.28z M86.1,70.75c-0.11,0.5-0.4,0.93-0.83,1.2
			c-0.43,0.28-0.94,0.37-1.44,0.26c-0.5-0.11-0.93-0.4-1.2-0.83c-0.28-0.43-0.37-0.94-0.26-1.44c0.11-0.5,0.4-0.93,0.83-1.2l0,0
			c0.89-0.57,2.07-0.31,2.64,0.57C86.12,69.74,86.21,70.26,86.1,70.75z"/>
		<path class="st26" d="M92,41.74c-8.67-5.78-9.67-10.98-16.38-26.97C71.71,5.45,67.15,2.42,62.11,2.42
			c-9.43,0-20.54,10.61-32.19,10.61c-2.09,0-4.2-0.34-6.32-1.15c-1.48-0.56-2.63-0.82-3.53-0.82c-7.73,0,3.46,19.05-5.14,28.76
			c-29.86,33.71-0.16,27.61,4.82,37.57c8.16,16.33,22.8,25.21,37.07,25.21c9.3,0,18.45-3.77,25.54-11.72
			C106.45,63.89,109.65,53.5,92,41.74z M81.45,90.05c-6.51,7.29-15.26,11.31-24.63,11.31c-14.62,0-28.41-9.4-35.97-24.53
			c-1.64-3.28-5.44-4.94-9.11-6.55c-4.01-1.75-7.8-3.41-8.56-6.86C2.17,58.85,6.32,51.4,15.85,40.63
			c4.93-5.57,3.89-13.61,3.05-20.06c-0.44-3.37-0.89-6.85,0.03-7.9c0.14-0.16,0.41-0.38,1.13-0.38c0.77,0,1.81,0.25,3.1,0.74
			c2.14,0.82,4.42,1.23,6.76,1.23c6.41,0,12.47-2.97,18.32-5.85c4.98-2.45,9.69-4.76,13.87-4.76c3.23,0,8.02,1.2,12.38,11.6
			c1,2.4,1.89,4.58,2.68,6.5c4.58,11.24,6.47,15.9,14.15,21.02c6.73,4.48,9.98,8.5,10.56,13.03C102.8,63.04,97.27,72.33,81.45,90.05
			z"/>
		<path class="st26" d="M76.23,33.35c0,0-0.12-0.1-0.28-0.23C76.03,33.22,76.12,33.3,76.23,33.35z"/>
		<path class="st26" d="M25.69,73.73c0.21,0.06,0.45,0.11,0.75,0.12C26.17,73.84,25.93,73.78,25.69,73.73z"/>
		<path class="st26" d="M65.85,49.95c-0.8-3.35-3.93-3.83-2.94-7.86c0.59-2.41,5.41-4.56,6.09-6.83c-0.38,2.82-0.81,5.87-3.63,8.09
			c7.69-4.03,5.95-8.1,8.76-11.75c0,0,1.26,1.04,1.83,1.51c-0.73-0.89-0.58-3.73-3.87-6.36c-2.97-2.37-8.19-3.89-11.95-3.79
			c-18.62,0.48-11.51,24.99-26.99,28.98c-5.47,1.41-8.24-1.02-13.27-2.82C12.92,46.65,3.46,56.7,9.34,62.82
			c1.81,1.88,5.31,0.32,3.37-1.58c0.86,0.95-0.94,1.3-1.75,0.98c-2.03-0.82-1.15-3.08,0.22-4.14c2.92-2.27,9.77,1.85,13.08,2.76
			c5.25,1.45,8.68,3.28,13.47-0.31c0.13,5.52-7.11,2.83-10.06,2.76c-5.14-0.11-6.53,9.33-1.97,10.43c-2.73-0.82,0.9-5.69,3.75-5.7
			c4.54-0.02,8.58,5.78,13.05,1.85c-1.89,2.23-6.26,8.29-1.7,11.54c2.21,1.57,5.45-0.18,3.07-1.75c1.48,0.97-0.77,2.41-1.93,1.52
			c-1.89-1.45-0.09-6.55,1.17-7.61c1.7-1.45,4.04-1.99,5.94-3.1C55.3,66.84,68.03,59.06,65.85,49.95z"/>
		<path class="st26" d="M12.71,61.25c-0.07-0.07-0.14-0.15-0.24-0.23C12.56,61.1,12.63,61.17,12.71,61.25z"/>
	</g>
</g>
</svg>
