<?xml version="1.0" encoding="utf-8"?>
<!-- Generator: Adobe Illustrator 24.0.1, SVG Export Plug-In . SVG Version: 6.00 Build 0)  -->
<svg version="1.1" id="Layer_1" xmlns="http://www.w3.org/2000/svg" xmlns:xlink="http://www.w3.org/1999/xlink" x="0px" y="0px"
	 viewBox="0 0 105 105" style="enable-background:new 0 0 105 105;" xml:space="preserve">
<style type="text/css">
	.st0{fill-rule:evenodd;clip-rule:evenodd;}
	.st1{fill-rule:evenodd;clip-rule:evenodd;fill:#DD5858;}
	.st2{fill-rule:evenodd;clip-rule:evenodd;fill:#606060;}
	.st3{fill:#FFFFFF;}
	
		.st4{fill-rule:evenodd;clip-rule:evenodd;fill:none;stroke:#000000;stroke-width:0.25;stroke-linecap:round;stroke-linejoin:round;stroke-miterlimit:10;}
	.st5{fill:#606060;}
	.st6{fill:none;stroke:#606060;stroke-linecap:round;stroke-linejoin:round;stroke-miterlimit:10;}
	.st7{fill-rule:evenodd;clip-rule:evenodd;fill:none;stroke:#DD5858;stroke-width:0.25;stroke-miterlimit:10;}
	.st8{fill-rule:evenodd;clip-rule:evenodd;fill:#FFFFFF;}
	.st9{fill:url(#SVGID_17_);}
	.st10{fill:url(#SVGID_18_);}
	.st11{fill:url(#SVGID_19_);}
	.st12{fill:url(#SVGID_20_);}
	.st13{fill:url(#SVGID_21_);}
	.st14{fill:url(#SVGID_22_);}
	.st15{fill:url(#SVGID_23_);}
	.st16{fill:url(#SVGID_24_);}
	
		.st17{fill-rule:evenodd;clip-rule:evenodd;fill:none;stroke:#FFFFFF;stroke-width:0.25;stroke-linecap:round;stroke-linejoin:round;stroke-miterlimit:10;}
	.st18{fill-rule:evenodd;clip-rule:evenodd;fill:none;stroke:#FFFFFF;stroke-width:0.25;stroke-miterlimit:10;}
	
		.st19{fill-rule:evenodd;clip-rule:evenodd;fill:none;stroke:#FFFFFF;stroke-width:0.1;stroke-linecap:round;stroke-linejoin:round;stroke-miterlimit:10;}
	.st20{fill:none;stroke:#FFFFFF;stroke-width:0.25;stroke-linecap:round;stroke-linejoin:round;stroke-miterlimit:10;}
	.st21{fill-rule:evenodd;clip-rule:evenodd;fill:#FFFFFF;stroke:#FFFFFF;stroke-width:0.25;stroke-miterlimit:10;}
	.st22{fill-rule:evenodd;clip-rule:evenodd;fill:none;stroke:#000000;stroke-width:0.25;stroke-miterlimit:10;}
	
		.st23{fill-rule:evenodd;clip-rule:evenodd;fill:none;stroke:#000000;stroke-width:0.1;stroke-linecap:round;stroke-linejoin:round;stroke-miterlimit:10;}
	.st24{fill:none;stroke:#000000;stroke-width:0.25;stroke-linecap:round;stroke-linejoin:round;stroke-miterlimit:10;}
	.st25{fill:url(#SVGID_25_);}
	.st26{fill:#93E9B9;}
	.st27{fill:#B4B5F2;}
	.st28{fill:#FFC887;}
	.st29{fill:#FFD288;}
	.st30{fill:#FF8DA6;}
	.st31{fill:#7BE5BE;}
	.st32{fill:#B7EEB2;}
	.st33{fill:#FFE188;}
	.st34{fill:#FF6BA6;}
	.st35{fill:#FFA4A6;}
	.st36{fill:#BFB9ED;}
	.st37{fill:#99AAFD;}
	.st38{fill:#FFBD87;}
</style>
<g>
	<path class="st28" d="M93.62,23.25c1.99-5.22,0.23-6.51-3.35-6.51c-3.48,0-8.67,1.22-13.8,1.22c-4.05,0-8.05-0.76-11.13-3.49
		C54.23,4.63,47.39,1.18,42.87,1.18v1.24h0c4.7,0,11.79,4.25,21.65,12.98c2.89,2.56,6.8,3.8,11.96,3.8c2.89,0,5.79-0.38,8.35-0.71
		c2.03-0.26,3.95-0.51,5.44-0.51c1.47,0,2.38,0.24,2.71,0.72c0.25,0.36,0.52,1.38-0.52,4.1c-3.4,8.94,0.89,17.67,4.68,25.38
		c3.14,6.39,6.11,12.43,4.22,17.47c-1.32,3.53-4.97,6.51-11.14,9.1c-2.43,1.02-4.63,1.92-6.58,2.71
		c-11.38,4.63-16.09,6.55-21.28,14.33c-5.04,7.56-9.44,10.79-14.71,10.79c-8.2,0-19.19-8.31-33.15-20.78
		C5.81,74.05,1.85,63.59,3.35,52.35C5.1,39.18,14.27,27.26,27.87,20.46c3.32-1.66,5-5.51,6.63-9.22c1.98-4.53,3.85-8.82,8.37-8.82
		l0-1.24c0,0,0,0,0,0c-9.35,0-8.76,14.77-15.55,18.17C0.01,33-6.72,64.54,13.66,82.73c15.75,14.06,25.91,21.09,33.98,21.09
		c5.92,0,10.71-3.78,15.75-11.34c5.85-8.78,11.12-9.79,27.3-16.58C120.93,63.23,85.82,43.73,93.62,23.25z"/>
	<path class="st28" d="M72.24,53.26c-6.2-0.1-10.71,4.68-17.97,4.83c-7.22,0.16-14.99-4.8-22.53-4.55
		c-3.43,0.12-6.87,0.76-10.47,0.08l0,0c4.04,2.98,4.73,6.09,7.35,8.63c6.22,6.04,13.54,9.97,24.32,9.92
		c11.42-0.05,19.2-3.12,25.24-12.45c1.26-1.94,2.24-4.05,4.76-6.63C78.87,54,75.72,53.31,72.24,53.26z"/>
	<path class="st28" d="M25.49,47.34c-1.69,1.71-3.99,3.36-6.06,4.47h0c17.46,2.14,22.73-5.6,33.53-5.39
		c11.04-0.8,17.49,7.39,32.27,5.15c-1.52-1.11-2.53-1.76-3.63-3.11c-2.62-3.18-5.19-7.22-9.02-10.51
		c-8.4-7.21-13.62-5.48-18.56-1.69c-4.46-4.66-9.88-4.51-16.87-0.12C32.15,39.29,29.2,43.58,25.49,47.34z"/>
	<path class="st28" d="M29.39,81.33c0.11-0.13,0.1-0.33-0.03-0.44l-0.23-0.21l0.62-0.7c0.11-0.13,0.1-0.33-0.03-0.44
		c-0.13-0.11-0.33-0.1-0.44,0.03l-0.62,0.7l-0.94-0.82l4.93-5.64l0.47,0.41l-0.62,0.7c-0.11,0.13-0.1,0.33,0.03,0.44
		c0.13,0.11,0.33,0.1,0.44-0.03l0.62-0.7l0.7,0.62c0.13,0.11,0.33,0.1,0.44-0.03c0.11-0.13,0.1-0.33-0.03-0.44l-1.88-1.64
		c-0.06-0.06-0.15-0.08-0.23-0.08c0,0-0.01,0-0.01,0c-0.08,0.01-0.15,0.04-0.2,0.1l-5.34,6.11c-0.11,0.13-0.1,0.33,0.03,0.44
		l1.88,1.64C29.08,81.47,29.28,81.46,29.39,81.33z"/>
	<path class="st28" d="M51.97,88.21L36.46,74.66c-0.05-0.05-0.12-0.07-0.19-0.08c-0.09-0.01-0.19,0.03-0.25,0.1l-6.98,7.99
		c-0.11,0.13-0.1,0.33,0.03,0.44l0,0l15.51,13.55c0,0,0,0,0,0c0.65,0.57,1.64,0.5,2.2-0.15l5.34-6.11l0,0
		C52.68,89.76,52.62,88.78,51.97,88.21z M51.65,90C51.65,90,51.65,90,51.65,90l-5.34,6.11c-0.34,0.39-0.93,0.43-1.32,0.09
		L29.72,82.85l6.57-7.52l15.27,13.34C51.95,89.02,51.99,89.61,51.65,90z"/>
	<path class="st28" d="M27.39,77.92c0.11-0.13,0.1-0.33-0.03-0.44l-8.35-7.29c0.51,0.04,1.4,0.04,2.38-0.24
		c1.42-0.42,2.46-1.27,2.84-1.71c0.02-0.02,0.04-0.05,0.06-0.07l6.36,5.55c0.13,0.11,0.33,0.1,0.44-0.03
		c0.11-0.13,0.1-0.33-0.03-0.44l-6.69-5.84c-0.03-0.03-0.07-0.05-0.11-0.06c-0.6-0.36-2.25-0.47-3.65-0.06
		c-1.42,0.42-2.46,1.27-2.84,1.71c-0.24,0.27-0.31,0.46-0.26,0.64c0.02,0.08,0.08,0.15,0.16,0.21c0,0,0.01,0.01,0.01,0.01l9.26,8.1
		C27.08,78.07,27.28,78.05,27.39,77.92z M20.8,67.89c1.3-0.38,2.51-0.22,2.99-0.08c-0.33,0.39-1.25,1.16-2.56,1.54
		c-1.3,0.38-2.51,0.22-2.99,0.08C18.55,69.06,19.49,68.27,20.8,67.89z"/>
	<path class="st28" d="M50.68,88.74C50.68,88.74,50.68,88.74,50.68,88.74l-14.1-12.32c-0.13-0.11-0.33-0.1-0.44,0.03
		c-0.11,0.13-0.1,0.33,0.03,0.44l14.1,12.32c0,0,0,0,0,0c0.13,0.11,0.14,0.31,0.03,0.44c-0.11,0.13-0.1,0.33,0.03,0.44
		c0.13,0.11,0.33,0.1,0.44-0.03C51.1,89.67,51.06,89.08,50.68,88.74z"/>
	<path class="st28" d="M24.16,69.3c-0.11,0.13-0.1,0.33,0.03,0.44l5.64,4.93c0.13,0.11,0.33,0.1,0.44-0.03
		c0.11-0.13,0.1-0.33-0.03-0.44l-5.64-4.93C24.47,69.15,24.27,69.17,24.16,69.3z"/>
</g>
</svg>
