<?xml version="1.0" encoding="utf-8"?>
<!-- Generator: Adobe Illustrator 24.0.1, SVG Export Plug-In . SVG Version: 6.00 Build 0)  -->
<svg version="1.1" id="Layer_1" xmlns="http://www.w3.org/2000/svg" xmlns:xlink="http://www.w3.org/1999/xlink" x="0px" y="0px"
	 viewBox="0 0 105 105" style="enable-background:new 0 0 105 105;" xml:space="preserve">
<style type="text/css">
	.st0{fill-rule:evenodd;clip-rule:evenodd;}
	.st1{fill-rule:evenodd;clip-rule:evenodd;fill:#DD5858;}
	.st2{fill-rule:evenodd;clip-rule:evenodd;fill:#606060;}
	.st3{fill:#FFFFFF;}
	
		.st4{fill-rule:evenodd;clip-rule:evenodd;fill:none;stroke:#000000;stroke-width:0.25;stroke-linecap:round;stroke-linejoin:round;stroke-miterlimit:10;}
	.st5{fill:#606060;}
	.st6{fill:none;stroke:#606060;stroke-linecap:round;stroke-linejoin:round;stroke-miterlimit:10;}
	.st7{fill-rule:evenodd;clip-rule:evenodd;fill:none;stroke:#DD5858;stroke-width:0.25;stroke-miterlimit:10;}
	.st8{fill-rule:evenodd;clip-rule:evenodd;fill:#FFFFFF;}
	.st9{fill:url(#SVGID_17_);}
	.st10{fill:url(#SVGID_18_);}
	.st11{fill:url(#SVGID_19_);}
	.st12{fill:url(#SVGID_20_);}
	.st13{fill:url(#SVGID_21_);}
	.st14{fill:url(#SVGID_22_);}
	.st15{fill:url(#SVGID_23_);}
	.st16{fill:url(#SVGID_24_);}
	
		.st17{fill-rule:evenodd;clip-rule:evenodd;fill:none;stroke:#FFFFFF;stroke-width:0.25;stroke-linecap:round;stroke-linejoin:round;stroke-miterlimit:10;}
	.st18{fill-rule:evenodd;clip-rule:evenodd;fill:none;stroke:#FFFFFF;stroke-width:0.25;stroke-miterlimit:10;}
	
		.st19{fill-rule:evenodd;clip-rule:evenodd;fill:none;stroke:#FFFFFF;stroke-width:0.1;stroke-linecap:round;stroke-linejoin:round;stroke-miterlimit:10;}
	.st20{fill:none;stroke:#FFFFFF;stroke-width:0.25;stroke-linecap:round;stroke-linejoin:round;stroke-miterlimit:10;}
	.st21{fill-rule:evenodd;clip-rule:evenodd;fill:#FFFFFF;stroke:#FFFFFF;stroke-width:0.25;stroke-miterlimit:10;}
	.st22{fill-rule:evenodd;clip-rule:evenodd;fill:none;stroke:#000000;stroke-width:0.25;stroke-miterlimit:10;}
	
		.st23{fill-rule:evenodd;clip-rule:evenodd;fill:none;stroke:#000000;stroke-width:0.1;stroke-linecap:round;stroke-linejoin:round;stroke-miterlimit:10;}
	.st24{fill:none;stroke:#000000;stroke-width:0.25;stroke-linecap:round;stroke-linejoin:round;stroke-miterlimit:10;}
	.st25{fill:url(#SVGID_25_);}
	.st26{fill:#93E9B9;}
	.st27{fill:#B4B5F2;}
	.st28{fill:#FFC887;}
	.st29{fill:#FFD288;}
	.st30{fill:#FF8DA6;}
	.st31{fill:#7BE5BE;}
	.st32{fill:#B7EEB2;}
	.st33{fill:#FFE188;}
	.st34{fill:#FF6BA6;}
	.st35{fill:#FFA4A6;}
	.st36{fill:#BFB9ED;}
	.st37{fill:#99AAFD;}
	.st38{fill:#FFBD87;}
</style>
<g>
	<g>
		<path class="st35" d="M71.71,52.14c0.12,0.07,0.26,0.15,0.43,0.22C71.88,52.33,71.71,52.26,71.71,52.14z"/>
		<path class="st35" d="M85.25,27.62C77.09,11.29,62.45,2.42,48.18,2.42h0c-9.3,0-18.45,3.77-25.54,11.72
			C-1.45,41.11-4.65,51.5,13,63.26c8.67,5.78,9.67,10.98,16.38,26.97c3.91,9.32,8.47,12.35,13.51,12.35
			c9.43,0,20.54-10.61,32.19-10.61c2.09,0,4.2,0.34,6.32,1.15c1.48,0.56,2.63,0.82,3.53,0.82c7.73,0-3.46-19.05,5.14-28.76
			C119.93,31.47,90.23,37.58,85.25,27.62z M64.61,51.82c2.38,1.58,7.23,2.77,9.91,3.13c-1.71-0.08-3.43-0.15-5.37-0.48
			c3.6,1.87,7,2.52,11.15,2.94c-7.62,0.4-12.67-1.78-19.39-5.02c3.99,4.1,6.16,4.93,12.17,7.65c-2.9-0.86-6.52-2.25-9.16-3.59
			c1.73,1.19,4.85,2.64,7.41,3.35c-5.76-1.51-11.01-3.91-15.31-7.62c4.86,6.59,9.66,9.01,17.67,10.83
			c-11.95-1.51-15.19-5.82-21.56-11.49c2.56,3.05,4.66,5.6,10.88,9.06c-3.84-1.89-6.95-3.74-9.77-6.31
			c3.25,4.07,4.9,5.61,10.19,8.05c-5.8-1.97-9.13-4.33-13.13-8.18c2.78,3.8,4.41,5.59,9.93,8.28c-4.34-1.66-5.52-2.69-8.58-5.53
			c1.86,2.29,3.96,4.83,9.01,7.02c-4.84-1.44-8.87-4.56-11.91-7.88c1.61,2.52,2.76,4.04,5.37,6.12c-4.05-2.63-4.5-3.63-6.58-6.42
			c2.02,4.26,2.7,5.51,6.96,8.89c-5.02-2.92-4.76-3.15-8.27-6.98c1.84,2.78,3.44,5.3,7.05,6.93c-2.89-1.11-6.2-3.95-7.33-6.21
			c1.99,4.99,3.39,6.52,7.38,10.62c-4.99-3.65-8.49-7.73-10.73-12.49c1.98,5.24,5.7,9.81,7.81,11.87c-2.59-2.32-5.41-5.14-6.77-7.65
			c0.41,1.73,1.08,3.23,2.24,4.76c-1.88-1.8-3.25-4.07-4.62-6.33c0.89,2,1.77,4.25,2.67,6.25c-2.23-4-2.92-5.3-3.09-5.65
			c0.19,0.26-0.17-0.36,0,0c-0.02-0.03-0.05-0.07-0.09-0.12c0.65,1.99,0.78,4.45,0.71,6.16c-0.62-2.72-1.49-5.22-2.37-7.46
			c0.62,2.72,1,5.19,0.9,7.4c-0.38-2.47-1.01-4.95-1.9-6.95c0.17,1.72-0.22,4.89-1.29,7.05c0.4-3.42,0.74-5.61-0.84-8.86
			c-0.15,3.43-0.97,5.35-2.81,8.21c1.35-2.88,1.66-4.34,1.79-7.28c-0.84,2.41-1.96,5.55-4.24,7.17c1.84-2.86,2.16-4.56,2.07-8
			c-0.92,4.13-1.45,5.08-5.02,8.12c1.8-1.88,2.85-3.55,3.21-5.99c-1.09,2.4-2.36,3.57-4.63,4.94c2.05-2.12,2.86-3.8,2.95-5.75
			c-0.59,2.18-1.62,3.36-3.64,4.74c0.52-0.71,2.08-2.61,2.62-3.81c-1.04,1.43-2.31,2.35-3.58,3.27c2.08-2.61,2.85-3.55,2.99-6.73
			c-0.84,2.41-1.89,3.84-4.65,5.43c2.03-1.63,2.82-2.82,3.42-5.24c-1.6,2.87-3.35,3.77-6.61,5.35c2.79-2.08,3.82-3.26,4.43-5.93
			c-1.32,2.15-2.56,2.34-5.29,3.2c2.75-1.11,3.5-1.56,4.33-3.73c-1.77,1.15-3.28,2.06-5.99,2.43c2.01-1.14,3.02-1.83,4.07-3.25
			c-1.02,0.94-2.28,1.62-3.27,1.82c0.5-0.22,1-0.45,1.28-1.17c-0.77,0.7-1.5,0.67-2.23,0.64c0.99-0.2,1.76-0.9,2.3-2.11
			c-0.78,0.95-2.01,1.14-3,1.34c1.75-0.66,2.03-1.63,2.57-2.58c-0.77,0.7-2.99,1.09-4.22,1.28c1.98-0.4,3.27-1.82,2.35-3.33
			c21.28,12.22,35.44-3.1,48.56-5.95c6.03,2.23,10.49,1.2,16.73-1.22c-4.03,2.52-9.51,4.48-17.04,2.68c9.85,4.6,21.43,3.4,28.94-0.2
			c-6.09,4.64-17.91,5.83-27.14,3.95c4.83,1.68,10.67,2.68,14.62,2.12c-4.22,1.29-11.03,0-16.11-1.69c0,0,0,0-0.24-0.01
			c3.11,1.85,4.81,2.17,9.2,2.61c0,0-1.69,0.21-2.5,0.1c2.34,1.04,9.75,2.35,16.41,1.5C81.13,55.49,72.57,54.87,64.61,51.82z"/>
	</g>
</g>
<g>
	<g>
		<path class="st8" d="M36.86,56.15C36.86,56.15,36.86,56.15,36.86,56.15L36.86,56.15C36.69,55.79,37.05,56.41,36.86,56.15z"/>
		<path class="st8" d="M67.4,56.24c0.25,0.06,0.49,0.13,0.74,0.19C67.9,56.38,67.65,56.31,67.4,56.24z"/>
		<path class="st8" d="M67.75,48.57c0.12,0.07,0.26,0.15,0.43,0.22C67.92,48.76,67.75,48.69,67.75,48.57z"/>
	</g>
</g>
</svg>
