<?xml version="1.0" encoding="utf-8"?>
<!-- Generator: Adobe Illustrator 24.0.1, SVG Export Plug-In . SVG Version: 6.00 Build 0)  -->
<svg version="1.1" id="Layer_1" xmlns="http://www.w3.org/2000/svg" xmlns:xlink="http://www.w3.org/1999/xlink" x="0px" y="0px"
	 viewBox="0 0 105 105" style="enable-background:new 0 0 105 105;" xml:space="preserve">
<style type="text/css">
	.st0{fill-rule:evenodd;clip-rule:evenodd;}
	.st1{fill-rule:evenodd;clip-rule:evenodd;fill:#DD5858;}
	.st2{fill-rule:evenodd;clip-rule:evenodd;fill:#606060;}
	.st3{fill:#FFFFFF;}
	
		.st4{fill-rule:evenodd;clip-rule:evenodd;fill:none;stroke:#000000;stroke-width:0.25;stroke-linecap:round;stroke-linejoin:round;stroke-miterlimit:10;}
	.st5{fill:#606060;}
	.st6{fill:none;stroke:#606060;stroke-linecap:round;stroke-linejoin:round;stroke-miterlimit:10;}
	.st7{fill-rule:evenodd;clip-rule:evenodd;fill:none;stroke:#DD5858;stroke-width:0.25;stroke-miterlimit:10;}
	.st8{fill-rule:evenodd;clip-rule:evenodd;fill:#FFFFFF;}
	.st9{fill:url(#SVGID_17_);}
	.st10{fill:url(#SVGID_18_);}
	.st11{fill:url(#SVGID_19_);}
	.st12{fill:url(#SVGID_20_);}
	.st13{fill:url(#SVGID_21_);}
	.st14{fill:url(#SVGID_22_);}
	.st15{fill:url(#SVGID_23_);}
	.st16{fill:url(#SVGID_24_);}
	
		.st17{fill-rule:evenodd;clip-rule:evenodd;fill:none;stroke:#FFFFFF;stroke-width:0.25;stroke-linecap:round;stroke-linejoin:round;stroke-miterlimit:10;}
	.st18{fill-rule:evenodd;clip-rule:evenodd;fill:none;stroke:#FFFFFF;stroke-width:0.25;stroke-miterlimit:10;}
	
		.st19{fill-rule:evenodd;clip-rule:evenodd;fill:none;stroke:#FFFFFF;stroke-width:0.1;stroke-linecap:round;stroke-linejoin:round;stroke-miterlimit:10;}
	.st20{fill:none;stroke:#FFFFFF;stroke-width:0.25;stroke-linecap:round;stroke-linejoin:round;stroke-miterlimit:10;}
	.st21{fill-rule:evenodd;clip-rule:evenodd;fill:#FFFFFF;stroke:#FFFFFF;stroke-width:0.25;stroke-miterlimit:10;}
	.st22{fill-rule:evenodd;clip-rule:evenodd;fill:none;stroke:#000000;stroke-width:0.25;stroke-miterlimit:10;}
	
		.st23{fill-rule:evenodd;clip-rule:evenodd;fill:none;stroke:#000000;stroke-width:0.1;stroke-linecap:round;stroke-linejoin:round;stroke-miterlimit:10;}
	.st24{fill:none;stroke:#000000;stroke-width:0.25;stroke-linecap:round;stroke-linejoin:round;stroke-miterlimit:10;}
	.st25{fill:url(#SVGID_25_);}
	.st26{fill:#93E9B9;}
	.st27{fill:#B4B5F2;}
	.st28{fill:#FFC887;}
	.st29{fill:#FFD288;}
	.st30{fill:#FF8DA6;}
	.st31{fill:#7BE5BE;}
	.st32{fill:#B7EEB2;}
	.st33{fill:#FFE188;}
	.st34{fill:#FF6BA6;}
	.st35{fill:#FFA4A6;}
	.st36{fill:#BFB9ED;}
	.st37{fill:#99AAFD;}
	.st38{fill:#FFBD87;}
</style>
<g>
	<path class="st30" d="M85.25,27.62C77.09,11.29,62.45,2.42,48.18,2.42v1.23c14.62,0,28.4,9.4,35.97,24.53
		c1.64,3.28,5.44,4.94,9.11,6.55c4.01,1.75,7.8,3.41,8.56,6.86c1.01,4.57-3.14,12.02-12.68,22.79c-4.93,5.57-3.89,13.61-3.05,20.06
		c0.44,3.37,0.89,6.85-0.03,7.9c-0.14,0.16-0.41,0.38-1.13,0.38c-0.77,0-1.81-0.25-3.1-0.74c-2.14-0.82-4.41-1.23-6.76-1.23
		c-6.41,0-12.47,2.97-18.32,5.85c-4.98,2.45-9.69,4.76-13.87,4.76c-3.23,0-8.02-1.2-12.38-11.6c-1-2.4-1.89-4.58-2.68-6.5
		c-4.58-11.24-6.47-15.9-14.15-21.02c-6.73-4.48-9.98-8.5-10.56-13.03C2.2,41.96,7.73,32.67,23.55,14.95
		C30.06,7.66,38.81,3.64,48.18,3.64l0-1.23c0,0,0,0,0,0c-9.3,0-18.45,3.77-25.54,11.72C-1.45,41.11-4.65,51.5,13,63.26
		c8.67,5.78,9.67,10.98,16.38,26.97c3.91,9.32,8.47,12.35,13.51,12.35c9.43,0,20.54-10.61,32.19-10.61c2.09,0,4.2,0.34,6.32,1.15
		c1.48,0.56,2.63,0.82,3.53,0.82c7.73,0-3.46-19.05,5.14-28.76C119.93,31.47,90.23,37.58,85.25,27.62z"/>
	<path class="st30" d="M28.5,58.28c8.61-2.15,36.74-17.43,49.92-13.71c13.35,3.69,13.35,3.69,13.35,3.69S75.89,35.85,66.9,37.89
		C57.94,40.1,20.97,52.9,20.97,52.9S19.92,60.61,28.5,58.28z"/>
	<path class="st30" d="M76.15,60.52c-5.63-2.49-11.41-3.86-17.18-4.06c-4.62-0.16-9.24,0.41-13.74,1.71
		c-7.67,2.21-12.24,5.71-12.44,5.86c-0.19,0.14-0.22,0.41-0.08,0.6c0.08,0.11,0.21,0.17,0.34,0.17c0.09,0,0.18-0.03,0.26-0.09
		c0.05-0.04,4.67-3.56,12.18-5.72c6.93-1.99,17.81-3.21,30.31,2.32c0.22,0.1,0.47,0,0.57-0.22C76.47,60.87,76.37,60.62,76.15,60.52z
		"/>
</g>
</svg>
