<?xml version="1.0" encoding="utf-8"?>
<!-- Generator: Adobe Illustrator 24.0.1, SVG Export Plug-In . SVG Version: 6.00 Build 0)  -->
<svg version="1.1" id="Layer_1" xmlns="http://www.w3.org/2000/svg" xmlns:xlink="http://www.w3.org/1999/xlink" x="0px" y="0px"
	 viewBox="0 0 105 105" style="enable-background:new 0 0 105 105;" xml:space="preserve">
<style type="text/css">
	.st0{fill-rule:evenodd;clip-rule:evenodd;}
	.st1{fill-rule:evenodd;clip-rule:evenodd;fill:#DD5858;}
	.st2{fill-rule:evenodd;clip-rule:evenodd;fill:#606060;}
	.st3{fill:#FFFFFF;}
	
		.st4{fill-rule:evenodd;clip-rule:evenodd;fill:none;stroke:#000000;stroke-width:0.25;stroke-linecap:round;stroke-linejoin:round;stroke-miterlimit:10;}
	.st5{fill:#606060;}
	.st6{fill:none;stroke:#606060;stroke-linecap:round;stroke-linejoin:round;stroke-miterlimit:10;}
	.st7{fill-rule:evenodd;clip-rule:evenodd;fill:none;stroke:#DD5858;stroke-width:0.25;stroke-miterlimit:10;}
	.st8{fill-rule:evenodd;clip-rule:evenodd;fill:#FFFFFF;}
	.st9{fill:url(#SVGID_17_);}
	.st10{fill:url(#SVGID_18_);}
	.st11{fill:url(#SVGID_19_);}
	.st12{fill:url(#SVGID_20_);}
	.st13{fill:url(#SVGID_21_);}
	.st14{fill:url(#SVGID_22_);}
	.st15{fill:url(#SVGID_23_);}
	.st16{fill:url(#SVGID_24_);}
	
		.st17{fill-rule:evenodd;clip-rule:evenodd;fill:none;stroke:#FFFFFF;stroke-width:0.25;stroke-linecap:round;stroke-linejoin:round;stroke-miterlimit:10;}
	.st18{fill-rule:evenodd;clip-rule:evenodd;fill:none;stroke:#FFFFFF;stroke-width:0.25;stroke-miterlimit:10;}
	
		.st19{fill-rule:evenodd;clip-rule:evenodd;fill:none;stroke:#FFFFFF;stroke-width:0.1;stroke-linecap:round;stroke-linejoin:round;stroke-miterlimit:10;}
	.st20{fill:none;stroke:#FFFFFF;stroke-width:0.25;stroke-linecap:round;stroke-linejoin:round;stroke-miterlimit:10;}
	.st21{fill-rule:evenodd;clip-rule:evenodd;fill:#FFFFFF;stroke:#FFFFFF;stroke-width:0.25;stroke-miterlimit:10;}
	.st22{fill-rule:evenodd;clip-rule:evenodd;fill:none;stroke:#000000;stroke-width:0.25;stroke-miterlimit:10;}
	
		.st23{fill-rule:evenodd;clip-rule:evenodd;fill:none;stroke:#000000;stroke-width:0.1;stroke-linecap:round;stroke-linejoin:round;stroke-miterlimit:10;}
	.st24{fill:none;stroke:#000000;stroke-width:0.25;stroke-linecap:round;stroke-linejoin:round;stroke-miterlimit:10;}
	.st25{fill:url(#SVGID_25_);}
	.st26{fill:#93E9B9;}
	.st27{fill:#B4B5F2;}
	.st28{fill:#FFC887;}
	.st29{fill:#FFD288;}
	.st30{fill:#FF8DA6;}
	.st31{fill:#7BE5BE;}
	.st32{fill:#B7EEB2;}
	.st33{fill:#FFE188;}
	.st34{fill:#FF6BA6;}
	.st35{fill:#FFA4A6;}
	.st36{fill:#BFB9ED;}
	.st37{fill:#99AAFD;}
	.st38{fill:#FFBD87;}
</style>
<g>
	<g>
		<path class="st34" d="M85.25,27.62C77.09,11.29,62.45,2.42,48.18,2.42h0c-9.3,0-18.45,3.77-25.54,11.72
			C-1.45,41.11-4.65,51.5,13,63.26c8.67,5.78,9.67,10.98,16.38,26.97c3.91,9.32,8.47,12.35,13.51,12.35
			c9.43,0,20.54-10.61,32.19-10.61c2.09,0,4.2,0.34,6.32,1.15c1.48,0.56,2.63,0.82,3.53,0.82c7.73,0-3.46-19.05,5.13-28.76
			C119.93,31.47,90.23,37.58,85.25,27.62z M76.37,61.09c-0.1,0.22-0.35,0.31-0.57,0.22C63.29,55.77,52.4,56.99,45.46,59
			c-7.51,2.17-12.1,5.68-12.15,5.71c-0.08,0.06-0.17,0.09-0.26,0.09c-0.13,0-0.26-0.06-0.34-0.17c-0.15-0.19-0.11-0.46,0.08-0.6
			c0.19-0.15,4.77-3.64,12.44-5.86c4.5-1.3,9.12-1.88,13.74-1.71c5.77,0.21,11.55,1.57,17.18,4.06
			C76.37,60.62,76.47,60.87,76.37,61.09z M78.42,44.58C65.24,40.85,37.11,56.13,28.5,58.28c-8.58,2.33-7.54-5.38-7.54-5.38
			S57.94,40.1,66.9,37.89c8.99-2.04,24.87,10.38,24.87,10.38S91.78,48.27,78.42,44.58z"/>
	</g>
</g>
</svg>
