<?xml version="1.0" encoding="utf-8"?>
<!-- Generator: Adobe Illustrator 24.0.1, SVG Export Plug-In . SVG Version: 6.00 Build 0)  -->
<svg version="1.1" id="Layer_1" xmlns="http://www.w3.org/2000/svg" xmlns:xlink="http://www.w3.org/1999/xlink" x="0px" y="0px"
	 viewBox="0 0 105 105" style="enable-background:new 0 0 105 105;" xml:space="preserve">
<style type="text/css">
	.st0{fill-rule:evenodd;clip-rule:evenodd;}
	.st1{fill-rule:evenodd;clip-rule:evenodd;fill:#DD5858;}
	.st2{fill-rule:evenodd;clip-rule:evenodd;fill:#606060;}
	.st3{fill:#FFFFFF;}
	
		.st4{fill-rule:evenodd;clip-rule:evenodd;fill:none;stroke:#000000;stroke-width:0.25;stroke-linecap:round;stroke-linejoin:round;stroke-miterlimit:10;}
	.st5{fill:#606060;}
	.st6{fill:none;stroke:#606060;stroke-linecap:round;stroke-linejoin:round;stroke-miterlimit:10;}
	.st7{fill-rule:evenodd;clip-rule:evenodd;fill:none;stroke:#DD5858;stroke-width:0.25;stroke-miterlimit:10;}
	.st8{fill-rule:evenodd;clip-rule:evenodd;fill:#FFFFFF;}
	.st9{fill:url(#SVGID_17_);}
	.st10{fill:url(#SVGID_18_);}
	.st11{fill:url(#SVGID_19_);}
	.st12{fill:url(#SVGID_20_);}
	.st13{fill:url(#SVGID_21_);}
	.st14{fill:url(#SVGID_22_);}
	.st15{fill:url(#SVGID_23_);}
	.st16{fill:url(#SVGID_24_);}
	
		.st17{fill-rule:evenodd;clip-rule:evenodd;fill:none;stroke:#FFFFFF;stroke-width:0.25;stroke-linecap:round;stroke-linejoin:round;stroke-miterlimit:10;}
	.st18{fill-rule:evenodd;clip-rule:evenodd;fill:none;stroke:#FFFFFF;stroke-width:0.25;stroke-miterlimit:10;}
	
		.st19{fill-rule:evenodd;clip-rule:evenodd;fill:none;stroke:#FFFFFF;stroke-width:0.1;stroke-linecap:round;stroke-linejoin:round;stroke-miterlimit:10;}
	.st20{fill:none;stroke:#FFFFFF;stroke-width:0.25;stroke-linecap:round;stroke-linejoin:round;stroke-miterlimit:10;}
	.st21{fill-rule:evenodd;clip-rule:evenodd;fill:#FFFFFF;stroke:#FFFFFF;stroke-width:0.25;stroke-miterlimit:10;}
	.st22{fill-rule:evenodd;clip-rule:evenodd;fill:none;stroke:#000000;stroke-width:0.25;stroke-miterlimit:10;}
	
		.st23{fill-rule:evenodd;clip-rule:evenodd;fill:none;stroke:#000000;stroke-width:0.1;stroke-linecap:round;stroke-linejoin:round;stroke-miterlimit:10;}
	.st24{fill:none;stroke:#000000;stroke-width:0.25;stroke-linecap:round;stroke-linejoin:round;stroke-miterlimit:10;}
	.st25{fill:url(#SVGID_25_);}
	.st26{fill:#93E9B9;}
	.st27{fill:#B4B5F2;}
	.st28{fill:#FFC887;}
	.st29{fill:#FFD288;}
	.st30{fill:#FF8DA6;}
	.st31{fill:#7BE5BE;}
	.st32{fill:#B7EEB2;}
	.st33{fill:#FFE188;}
	.st34{fill:#FF6BA6;}
	.st35{fill:#FFA4A6;}
	.st36{fill:#BFB9ED;}
	.st37{fill:#99AAFD;}
	.st38{fill:#FFBD87;}
</style>
<g>
	<path class="st30" d="M85.25,27.62C77.09,11.29,62.45,2.42,48.18,2.42v1.23c14.62,0,28.4,9.4,35.97,24.53
		c1.64,3.28,5.44,4.94,9.11,6.55c4.01,1.75,7.8,3.41,8.56,6.86c1.01,4.57-3.14,12.02-12.68,22.79c-4.93,5.57-3.89,13.61-3.05,20.06
		c0.44,3.37,0.89,6.85-0.03,7.9c-0.14,0.16-0.41,0.38-1.13,0.38c-0.77,0-1.81-0.25-3.1-0.74c-2.14-0.82-4.41-1.23-6.76-1.23
		c-6.41,0-12.47,2.97-18.32,5.85c-4.98,2.45-9.69,4.76-13.87,4.76c-3.23,0-8.02-1.2-12.38-11.6c-1-2.4-1.89-4.58-2.68-6.5
		c-4.58-11.24-6.47-15.9-14.15-21.02c-6.73-4.48-9.98-8.5-10.56-13.03C2.2,41.96,7.73,32.67,23.55,14.95
		C30.06,7.66,38.81,3.64,48.18,3.64l0-1.23c0,0,0,0,0,0c-9.3,0-18.45,3.77-25.54,11.72C-1.45,41.11-4.65,51.5,13,63.26
		c8.67,5.78,9.67,10.98,16.38,26.97c3.91,9.32,8.47,12.35,13.51,12.35c9.43,0,20.54-10.61,32.19-10.61c2.09,0,4.2,0.34,6.32,1.15
		c1.48,0.56,2.63,0.82,3.53,0.82c7.73,0-3.46-19.05,5.14-28.76C119.93,31.47,90.23,37.58,85.25,27.62z"/>
	<path class="st30" d="M17.13,49.98c0.91,1.51-0.37,2.93-2.35,3.33c1.23-0.19,3.46-0.58,4.22-1.28c-0.53,0.96-0.82,1.93-2.57,2.58
		c0.99-0.2,2.22-0.39,3-1.34c-0.54,1.2-1.31,1.9-2.3,2.11c0.73,0.03,1.47,0.06,2.23-0.64c-0.28,0.72-0.78,0.95-1.28,1.17
		c0.99-0.2,2.25-0.88,3.27-1.82c-1.04,1.43-2.05,2.12-4.07,3.25c2.71-0.37,4.22-1.28,5.99-2.43c-0.83,2.17-1.59,2.63-4.33,3.73
		c2.73-0.86,3.97-1.05,5.29-3.2c-0.61,2.67-1.64,3.85-4.43,5.93c3.26-1.57,5.01-2.48,6.61-5.35c-0.6,2.43-1.39,3.62-3.42,5.24
		c2.77-1.59,3.81-3.02,4.65-5.43c-0.14,3.18-0.92,4.13-2.99,6.73c1.27-0.92,2.53-1.85,3.58-3.27c-0.54,1.2-2.1,3.09-2.62,3.81
		c2.02-1.38,3.06-2.56,3.64-4.74c-0.09,1.96-0.9,3.64-2.95,5.75c2.27-1.37,3.54-2.54,4.63-4.94c-0.35,2.44-1.41,4.11-3.21,5.99
		c3.57-3.03,4.1-3.99,5.02-8.12c0.09,3.44-0.23,5.14-2.07,8c2.28-1.62,3.4-4.75,4.24-7.17c-0.13,2.94-0.44,4.39-1.79,7.28
		c1.84-2.86,2.66-4.79,2.81-8.21c1.57,3.26,1.23,5.45,0.84,8.86c1.08-2.16,1.46-5.33,1.29-7.05c0.89,2,1.52,4.48,1.9,6.95
		c0.1-2.2-0.28-4.67-0.9-7.4c0.88,2.25,1.75,4.74,2.37,7.46c0.08-1.71-0.06-4.17-0.71-6.16c0.04,0.05,0.06,0.09,0.09,0.12
		c-0.17-0.36,0.19,0.27,0,0c0.17,0.35,0.85,1.65,3.09,5.66c-0.89-2-1.77-4.25-2.67-6.25c1.37,2.27,2.74,4.53,4.62,6.33
		c-1.16-1.52-1.83-3.02-2.24-4.76c1.36,2.51,4.18,5.33,6.77,7.65c-2.12-2.05-5.84-6.63-7.81-11.87c2.24,4.76,5.74,8.83,10.73,12.49
		c-3.99-4.1-5.39-5.63-7.38-10.62c1.13,2.26,4.43,5.1,7.33,6.21c-3.61-1.63-5.21-4.15-7.05-6.93c3.51,3.83,3.25,4.07,8.27,6.98
		c-4.26-3.38-4.94-4.63-6.96-8.89c2.08,2.79,2.53,3.79,6.58,6.42c-2.61-2.08-3.76-3.6-5.37-6.12c3.04,3.32,7.07,6.44,11.91,7.88
		c-5.05-2.18-7.15-4.73-9.01-7.02c3.06,2.83,4.24,3.86,8.58,5.53c-5.52-2.7-7.16-4.48-9.93-8.28c4,3.85,7.33,6.21,13.12,8.18
		c-5.29-2.44-6.93-3.98-10.19-8.05c2.83,2.58,5.93,4.43,9.77,6.32c-6.22-3.46-8.32-6.01-10.88-9.06c6.37,5.67,9.61,9.99,21.56,11.49
		c-8.01-1.82-12.81-4.24-17.67-10.83c4.29,3.71,9.54,6.11,15.29,7.62c-2.55-0.72-5.67-2.16-7.39-3.35c2.64,1.34,6.25,2.73,9.16,3.59
		c-6.01-2.72-8.18-3.55-12.17-7.65c6.72,3.24,11.78,5.42,19.39,5.02c-4.15-0.43-7.55-1.07-11.15-2.94c1.95,0.33,3.66,0.41,5.37,0.48
		c-2.68-0.36-7.53-1.56-9.91-3.13c7.96,3.05,16.51,3.67,23.94,2.04c-6.66,0.85-14.07-0.46-16.41-1.5c-0.27-0.04-0.44-0.1-0.43-0.22
		c0.11,0.07,0.26,0.15,0.43,0.22c0.82,0.11,2.5-0.09,2.5-0.09c-4.39-0.44-6.1-0.76-9.2-2.61c0.24,0.01,0.24,0.01,0.24,0.01
		c5.07,1.69,11.88,2.98,16.11,1.69c-3.95,0.56-9.79-0.43-14.62-2.12c9.23,1.88,21.06,0.68,27.14-3.95
		c-7.51,3.59-19.09,4.8-28.94,0.2c7.52,1.8,13-0.16,17.04-2.68c-6.24,2.42-10.69,3.45-16.73,1.22
		C52.57,46.88,38.41,62.19,17.13,49.98z"/>
	<path class="st30" d="M71.31,59.8c0.27,0.08,0.53,0.14,0.79,0.2C71.84,59.94,71.57,59.87,71.31,59.8z"/>
</g>
</svg>
